<?xml version="1.0" encoding="utf-8"?>
<!-- Generator: Adobe Illustrator 27.7.0, SVG Export Plug-In . SVG Version: 6.00 Build 0)  -->
<svg version="1.1" id="Capa_1" xmlns="http://www.w3.org/2000/svg" xmlns:xlink="http://www.w3.org/1999/xlink" x="0px" y="0px"
	 viewBox="0 0 2504 623" style="enable-background:new 0 0 2504 623;" xml:space="preserve">
<style type="text/css">
	.st0{fill:#F99F53;}
	.st1{fill:#FFFFFF;}
</style>
<g>
	<g>
		<path class="st0" d="M152.2,436.9h17.4c13.2,42,39,63.5,75.5,63.5c26.4,0,45.5-15.6,45.5-38.4c0-21-16.2-36.6-51.5-49.7
			c-36.6-13.8-45.6-18.6-59.3-30c-18.6-15.6-27.6-33-27.6-52.1c0-39,34.2-71.9,75.5-71.9c20.4,0,39.6,7.2,61.7,22.8
			c3.6-3.6,7.2-9.6,11.4-19.2h15.6v74.3h-16.2c-9.6-35.4-37.2-59.9-67.7-59.9c-22.8,0-40.8,14.4-40.8,32.4
			c0,18.6,18.6,34.2,53.9,45.6c39.6,13.2,46.7,16.8,61.1,28.8c16.2,13.8,26.4,36.6,26.4,59.3c0,45-34.8,76.7-83.9,76.7
			c-24,0-47.9-8.4-62.9-21c-2.4-2.4-3.6-3-4.8-3.6c-5.4,5.4-9.6,12.6-12.6,22.2h-16.8V436.9z"/>
		<path class="st0" d="M607.8,457.9c-16.2,36.6-57.5,61.1-104.3,61.1c-73.7,0-127.7-55.1-127.7-129.5c0-75.5,52.7-131.3,124.7-131.3
			c64.1,0,110.3,43.8,110.3,103.7H443.5c-1.2,9.6-1.2,14.4-1.2,21.6c0,72.5,26.4,112.7,74.9,112.7c31.2,0,56.3-15.6,71.9-43.8
			L607.8,457.9z M545.4,344c0.6-4.2,0.6-5.4,0.6-9.6c0-34.8-18.6-56.3-47.4-56.3c-16.2,0-32.4,8.4-40.8,20.4
			c-7.8,11.4-10.8,21.6-13.8,45.5H545.4z"/>
		<path class="st0" d="M626.3,276.9c37.8-4.2,71.3-10.2,89.3-16.2h2.4c5.4,13.8,7.8,25.2,7.8,40.2v5.4
			c19.8-28.8,57.5-47.9,94.7-47.9c28.8,0,54.5,13.2,66.5,33.6c8.4,15,10.2,25.8,10.2,60.5v78.5c1.2,53.3,4.2,57.5,35.4,58.7h3.6
			v19.8H799v-19.8h4.8c30-1.8,33-6.6,33-58.7v-98.3c0-27.6-16.2-45-42-45c-25.2,0-47.3,15-69.5,46.2v97.1c0,52.1,3,57.5,33.6,58.7h3
			v19.8H625.7v-19.8h3c31.8-0.6,36-7.2,36.6-58.7v-76.7c-1.2-50.9-5.4-56.9-36.6-58.1h-2.4V276.9z"/>
		<path class="st0" d="M1060.9,430.9c1.2,51.5,5.4,58.1,36,58.7h5.4v19.8H955.4v-19.8h9c31.8-0.6,35.4-7.2,36.6-58.7v-78.5
			c-0.6-47.9-6-56.9-37.8-56.9h-7.8v-19.2c22.2-1.8,79.7-12,100.1-18h5.4V430.9z M1065.7,141.4c0,21.6-16.8,39-38.4,39
			c-21,0-37.8-17.4-37.8-39.6c0-20.4,17.4-37.8,37.8-37.8C1048.9,103,1065.7,120.4,1065.7,141.4z"/>
		<path class="st0" d="M1384,388.9c0,73.7-57.5,130.1-132.5,130.1c-79.7,0-137.3-54.5-137.3-129.5c0-76.1,56.9-131.3,134.9-131.3
			C1327,258.3,1384,313.4,1384,388.9z M1180.8,388.9c0,76.7,20.4,110.3,68.3,110.3c47.9,0,68.3-33,68.3-112.1
			c0-74.9-21-108.5-68.3-108.5C1201.2,278.7,1180.8,311.6,1180.8,388.9z"/>
		<path class="st0" d="M1400.1,278.1c40.8-6,50.3-8.4,89.3-19.8c6,15.6,9,36,9.6,61.1c16.8-37.2,48.6-61.1,80.3-61.1
			c25.2,0,45,18.6,45,42c0,15.6-11.4,27.6-26.4,27.6c-11.4,0-16.8-4.8-26.4-21.6c-5.4-9.6-10.8-13.8-17.4-13.8
			c-12.6,0-27.6,12-39,31.2c-10.8,18.6-13.2,33-13.2,69.5v37.8c1.2,52.1,4.8,58.1,36.6,58.7h7.2v19.8h-145.6v-19.8h5.4
			c31.8-1.2,34.8-5.4,36-58.7v-73.7c-0.6-51.5-4.8-58.7-36.6-59.3h-4.8V278.1z"/>
	</g>
	<g>
		<path class="st1" d="M1722.4,182.2v273.7h115.8v53.5h-175.4V182.2H1722.4z"/>
		<path class="st1" d="M1934.2,256.4h-56.1V205h56.1V256.4z M1933.4,509.4H1879V290.1h54.4V509.4z"/>
		<path class="st1" d="M2056.2,335.7v173.7h-54.4V335.7h-27.2v-45.6h27.2V245c0-68.4,45.6-82.5,87.7-82.5v47.4
			c-17.5,0-33.3,6.6-33.3,38.2v42.1h27.2v45.6H2056.2z"/>
		<path class="st1" d="M2243,520c-80.3,0-130.7-51.8-130.7-120.2c0-68.4,50-120.2,121.5-120.2c66.2,0,118,50.9,118,118.9v14h-181.6
			c4.8,40.4,32.5,63.6,73.7,63.6c32,0,56.1-11.8,75-28.9l29.8,33.8C2325.5,502.9,2289.9,520,2243,520z M2172.4,375.7h121.1
			c-7.5-31.1-29.4-51.3-60.1-51.3C2202.2,324.3,2179.8,344.1,2172.4,375.7z"/>
	</g>
</g>
</svg>
