<?xml version="1.0" standalone="no"?>
<!DOCTYPE svg PUBLIC "-//W3C//DTD SVG 1.1//EN" "http://www.w3.org/Graphics/SVG/1.1/DTD/svg11.dtd" >
<svg xmlns="http://www.w3.org/2000/svg" xmlns:xlink="http://www.w3.org/1999/xlink" version="1.1">
<metadata>
Created by FontForge 20190801 at Tue Apr 17 23:01:27 2018
 By Unknown
Copyright (c) 2017 by Joshua Darden, Inc. All rights reserved.
Omnes is a trademark of Joshua Darden, Inc.
</metadata>
<defs>
<font id="Omnes-Medium" horiz-adv-x="336" >
  <font-face 
    font-family="Omnes Medium"
    font-weight="500"
    font-stretch="normal"
    units-per-em="1000"
    panose-1="0 0 0 0 0 0 0 0 0 0"
    ascent="800"
    descent="-200"
    x-height="481"
    cap-height="651"
    bbox="-190 -224 1142 1015"
    underline-thickness="120"
    underline-position="-340"
    unicode-range="U+000D-FB04"
  />
<missing-glyph horiz-adv-x="730" 
d="M100 717h530v-787h-530v787zM555 0v647h-380v-647h380z" />
    <glyph glyph-name="f_f" unicode="ff" horiz-adv-x="706" 
d="M108 400h-56q-23 0 -33.5 9.5t-10.5 28.5v7q0 18 10.5 27t33.5 9h56v36q0 89 39.5 133t113.5 44q52 0 82 -20q26 -17 26 -45q0 -13 -5 -23t-11.5 -15.5t-7.5 -4.5q-11 11 -31 19.5t-41 8.5q-36 0 -52.5 -23.5t-16.5 -74.5v-35h81q23 0 33.5 -9t10.5 -28v-7
q0 -19 -10.5 -28t-33.5 -9h-79v-357q0 -26 -11 -36.5t-32 -10.5h-10q-45 0 -45 47v357zM461 400h-56q-23 0 -33.5 9.5t-10.5 28.5v7q0 18 10.5 27t33.5 9h56v36q0 89 39.5 133t113.5 44q52 0 82 -20q26 -17 26 -45q0 -13 -5 -23t-11.5 -15.5t-7.5 -4.5q-11 11 -31 19.5
t-41 8.5q-36 0 -52.5 -23.5t-16.5 -74.5v-35h81q23 0 33.5 -9t10.5 -28v-7q0 -19 -10.5 -28t-33.5 -9h-79v-357q0 -26 -11 -36.5t-32 -10.5h-10q-45 0 -45 47v357z" />
    <glyph glyph-name="fi" unicode="fi" horiz-adv-x="583" 
d="M108 400h-56q-23 0 -33.5 9.5t-10.5 28.5v7q0 18 10.5 27t33.5 9h56v36q0 89 39.5 133t113.5 44q52 0 82 -20q26 -17 26 -45q0 -13 -5 -23t-11.5 -15.5t-7.5 -4.5q-11 11 -31 19.5t-41 8.5q-36 0 -52.5 -23.5t-16.5 -74.5v-35h81q23 0 33.5 -9t10.5 -28v-7
q0 -19 -10.5 -28t-33.5 -9h-79v-357q0 -26 -11 -36.5t-32 -10.5h-10q-45 0 -45 47v357zM426 677.5q16 15.5 44 15.5t43 -15.5t15 -42.5t-15.5 -42t-43.5 -15t-43.5 15.5t-15.5 41.5q0 27 16 42.5zM418 438q0 48 45 48h10q21 0 32.5 -11t11.5 -37v-395q0 -47 -44 -47h-10
q-45 0 -45 47v395z" />
    <glyph glyph-name="fl" unicode="fl" horiz-adv-x="583" 
d="M108 400h-56q-23 0 -33.5 9.5t-10.5 28.5v7q0 18 10.5 27t33.5 9h56v36q0 89 39.5 133t113.5 44q52 0 82 -20q26 -17 26 -45q0 -13 -5 -23t-11.5 -15.5t-7.5 -4.5q-11 11 -31 19.5t-41 8.5q-36 0 -52.5 -23.5t-16.5 -74.5v-35h81q23 0 33.5 -9t10.5 -28v-7
q0 -19 -10.5 -28t-33.5 -9h-79v-357q0 -26 -11 -36.5t-32 -10.5h-10q-45 0 -45 47v357zM418 43v633q0 3 11.5 7t24.5 4q63 0 63 -85v-559q0 -47 -44 -47h-10q-45 0 -45 47z" />
    <glyph glyph-name="f_f_i" unicode="ffi" horiz-adv-x="936" 
d="M108 400h-56q-23 0 -33.5 9.5t-10.5 28.5v7q0 18 10.5 27t33.5 9h56v36q0 89 39.5 133t113.5 44q52 0 82 -20q26 -17 26 -45q0 -13 -5 -23t-11.5 -15.5t-7.5 -4.5q-11 11 -31 19.5t-41 8.5q-36 0 -52.5 -23.5t-16.5 -74.5v-35h81q23 0 33.5 -9t10.5 -28v-7
q0 -19 -10.5 -28t-33.5 -9h-79v-357q0 -26 -11 -36.5t-32 -10.5h-10q-45 0 -45 47v357zM461 400h-56q-23 0 -33.5 9.5t-10.5 28.5v7q0 18 10.5 27t33.5 9h56v36q0 89 39.5 133t113.5 44q52 0 82 -20q26 -17 26 -45q0 -13 -5 -23t-11.5 -15.5t-7.5 -4.5q-11 11 -31 19.5
t-41 8.5q-36 0 -52.5 -23.5t-16.5 -74.5v-35h81q23 0 33.5 -9t10.5 -28v-7q0 -19 -10.5 -28t-33.5 -9h-79v-357q0 -26 -11 -36.5t-32 -10.5h-10q-45 0 -45 47v357zM779 677.5q16 15.5 44 15.5t43 -15.5t15 -42.5t-15.5 -42t-43.5 -15t-43.5 15.5t-15.5 41.5q0 27 16 42.5z
M771 438q0 48 45 48h10q21 0 32.5 -11t11.5 -37v-395q0 -47 -44 -47h-10q-45 0 -45 47v395z" />
    <glyph glyph-name=".notdef" horiz-adv-x="730" 
d="M100 717h530v-787h-530v787zM555 0v647h-380v-647h380z" />
    <glyph glyph-name=".null" horiz-adv-x="0" 
 />
    <glyph glyph-name="nonmarkingreturn" unicode="&#xd;" horiz-adv-x="170" 
 />
    <glyph glyph-name="space" unicode=" " horiz-adv-x="170" 
 />
    <glyph glyph-name="exclam" unicode="!" horiz-adv-x="260" 
d="M108 196q-5 8 -8 26l-30 370q-1 4 -1 12q0 25 12.5 37t35.5 12h25q23 0 36 -12t13 -35q0 -9 -1 -14l-30 -370q-2 -18 -7.5 -26t-17.5 -8h-11q-11 0 -16 8zM83 7q-14 14 -14 40v12q0 26 14 40.5t40 14.5h13q55 0 55 -55v-12q0 -54 -55 -54h-13q-26 0 -40 14z" />
    <glyph glyph-name="quotedbl" unicode="&#x22;" horiz-adv-x="389" 
d="M87.5 382q-5.5 7 -7.5 24l-24 182q-1 6 -1 16q0 26 13.5 37t41.5 11q29 0 42.5 -11t13.5 -37q0 -10 -1 -16l-24 -182q-2 -17 -7.5 -24t-16.5 -7h-13q-11 0 -16.5 7zM254.5 382q-5.5 7 -7.5 24l-24 182q-1 5 -1 14q0 26 14 38t42 12t41.5 -11t13.5 -37q0 -10 -1 -16
l-23 -182q-2 -16 -7.5 -23.5t-17.5 -7.5h-13q-11 0 -16.5 7z" />
    <glyph glyph-name="numbersign" unicode="#" horiz-adv-x="663" 
d="M111.5 6.5q-15.5 13.5 -15.5 39.5q0 14 8 38l24 79h-76q-43 0 -43 34v10q0 35 43 35h101l50 163h-76q-43 0 -43 35v9q0 35 43 35h100l51 166q0 2 4 3t9 1q17 0 32.5 -13.5t15.5 -39.5q0 -12 -8 -38l-25 -79h149l51 166q2 4 14 4q17 0 32 -13.5t15 -39.5q0 -12 -8 -38
l-24 -79h76q43 0 43 -34v-10q0 -35 -43 -35h-101l-50 -163h76q43 0 43 -34v-10q0 -35 -43 -35h-100l-50 -166q-2 -4 -14 -4q-17 0 -32 13.5t-15 39.5q0 12 7 38l24 79h-148l-51 -166q0 -2 -4 -3t-9 -1q-17 0 -32.5 13.5zM382 240l51 167h-152l-51 -167h152z" />
    <glyph glyph-name="dollar" unicode="$" horiz-adv-x="550" 
d="M458.5 55.5q-53.5 -50.5 -141.5 -60.5v-50q0 -25 -10 -36.5t-31 -11.5h-6q-21 0 -30.5 11t-9.5 37v49q-60 6 -104.5 27t-68.5 50q-22 25 -22 49q0 16 10 28.5t21.5 19.5t13.5 5q23 -35 63.5 -60t90.5 -33v211q-83 21 -133 60.5t-50 119.5q0 69 50 118.5t131 61.5v49
q0 25 9.5 36t30.5 11h7q21 0 30.5 -11t9.5 -36v-47q51 -5 90.5 -21.5t63.5 -38.5q26 -26 26 -52q0 -16 -10 -29t-22.5 -20.5t-13.5 -5.5q-22 31 -59 53t-80 29v-203q90 -22 144 -62t54 -123q0 -74 -53.5 -124.5zM171 418q22 -20 66 -34v182q-40 -9 -64 -34t-24 -59
q0 -35 22 -55zM384 112.5q27 26.5 27 63.5t-25.5 59t-74.5 37v-193q46 7 73 33.5z" />
    <glyph glyph-name="percent" unicode="%" horiz-adv-x="735" 
d="M108 -8q-12 4 -22 13.5t-10 22.5t6 24.5t23 28.5l503 579q2 2 14 -1.5t22 -12.5t10 -23q0 -22 -28 -54l-504 -578q-2 -3 -14 1zM104.5 364q-35.5 20 -55.5 54.5t-20 76.5v9q0 42 20.5 77.5t56 55.5t79.5 20t80 -20t56 -54.5t20 -76.5v-9q0 -42 -20.5 -77t-56.5 -55.5
t-80 -20.5t-79.5 20zM242 431q22 24 22 62v15q0 38 -22.5 62.5t-57.5 24.5t-57 -24t-22 -63v-15q0 -37 22.5 -61.5t57.5 -24.5t57 24zM470 14q-36 20 -56 54.5t-20 76.5v9q0 42 20.5 77t56.5 55.5t80 20.5t79.5 -20t55.5 -54.5t20 -76.5v-9q0 -42 -20.5 -77.5t-56 -55.5
t-79.5 -20t-80 20zM607.5 81q22.5 24 22.5 62v15q0 38 -22.5 62.5t-57.5 24.5t-57 -24t-22 -63v-15q0 -37 22.5 -61.5t57.5 -24.5q34 0 56.5 24z" />
    <glyph glyph-name="ampersand" unicode="&#x26;" horiz-adv-x="667" 
d="M84.5 38.5q-63.5 51.5 -63.5 143.5q0 69 42 115.5t120 70.5q-57 62 -57 131q0 45 23 81.5t64 58t94 21.5q48 0 86.5 -19.5t60 -54.5t21.5 -78q0 -56 -38.5 -96t-112.5 -62l152 -136q27 48 49 131q9 31 22.5 43.5t34.5 12.5q14 0 24 -5.5t15.5 -12.5t4.5 -10
q-27 -122 -90 -214l136 -122q2 -1 -3.5 -12.5t-18.5 -20.5t-33 -9q-36 0 -65 30l-69 66q-95 -104 -228 -104q-107 0 -170.5 51.5zM361.5 437q28.5 26 28.5 66q0 36 -23.5 59.5t-60.5 23.5q-41 0 -64 -24.5t-23 -62.5q0 -30 13 -55t39 -50q62 17 90.5 43zM350.5 86
q41.5 21 74.5 59l-194 175q-114 -37 -114 -130q0 -58 40 -91.5t105 -33.5q47 0 88.5 21z" />
    <glyph glyph-name="quotesingle" unicode="'" horiz-adv-x="222" 
d="M87.5 382q-5.5 7 -7.5 24l-24 182q-1 6 -1 16q0 26 13.5 37t41.5 11q29 0 42.5 -11t13.5 -37q0 -10 -1 -16l-24 -182q-2 -17 -7.5 -24t-16.5 -7h-13q-11 0 -16.5 7z" />
    <glyph glyph-name="parenleft" unicode="(" horiz-adv-x="375" 
d="M245 -177q-41 21 -78 60q-56 58 -90 147t-34 197q0 107 35.5 197t92.5 149q36 38 75.5 58.5t77.5 20.5q46 0 46 -40q0 -10 -6 -21.5t-9 -13.5q-65 -15 -113 -65t-73 -124.5t-25 -159.5q0 -88 25 -162.5t72.5 -124.5t113.5 -65q3 -1 9 -12t6 -22q0 -40 -46 -40
q-38 0 -79 21z" />
    <glyph glyph-name="parenright" unicode=")" horiz-adv-x="375" 
d="M5 -158q0 11 6 22t9 12q66 15 113.5 65t72.5 124.5t25 162.5q0 85 -25 159.5t-73 124.5t-113 65q-3 2 -9 13.5t-6 21.5q0 40 46 40q41 0 85.5 -25t82.5 -70q51 -60 82 -145.5t31 -184.5q0 -100 -30 -184.5t-80 -144.5q-39 -46 -84 -71t-87 -25q-46 0 -46 40z" />
    <glyph glyph-name="asterisk" unicode="*" horiz-adv-x="392" 
d="M87 331q-13 8 -13 20q0 9 7 22l52 85l-90 38q-12 5 -17 10.5t-5 13.5q0 3 2 13l1 4q6 19 25 19q8 0 13 -1l97 -24l8 97q2 19 8.5 25t20.5 6h4q13 0 20 -6.5t9 -24.5l6 -97l97 24q4 1 12 1q21 0 27 -19l1 -4q2 -10 2 -13q0 -8 -5 -13.5t-17 -10.5l-92 -38l53 -85
q7 -13 7 -21q0 -13 -13 -21l-3 -2q-9 -7 -16 -7q-13 0 -25 15l-66 77l-65 -77q-14 -15 -25 -15q-6 0 -17 7z" />
    <glyph glyph-name="plus" unicode="+" horiz-adv-x="538" 
d="M227 67v157h-145q-43 0 -43 37v6q0 37 43 37h145v148q0 43 38 43h8q38 0 38 -43v-148h145q43 0 43 -37v-6q0 -37 -43 -37h-145v-157q0 -43 -38 -43h-8q-38 0 -38 43z" />
    <glyph glyph-name="comma" unicode="," horiz-adv-x="222" 
d="M67 71q8 26 17.5 36.5t33.5 10.5h9q19 0 30.5 -12t11.5 -35v-5q0 -30 -23 -60l-83 -128q-5 -8 -20 -8q-14 0 -24 8.5t-6 22.5z" />
    <glyph glyph-name="hyphen" unicode="-" horiz-adv-x="393" 
d="M41 250q0 18 11 28.5t32 10.5h225q21 0 32 -10.5t11 -28.5v-14q0 -18 -11 -28t-32 -10h-225q-21 0 -32 10t-11 28v14z" />
    <glyph glyph-name="period" unicode="." horiz-adv-x="222" 
d="M50 59q0 27 13.5 41t40.5 14h13q55 0 55 -55v-12q0 -26 -14 -40t-41 -14h-13q-26 0 -40 14t-14 40v12z" />
    <glyph glyph-name="slash" unicode="/" horiz-adv-x="339" 
d="M21 -192.5q-17 9.5 -17 36.5q0 14 8 40l238 766q1 1 7 2.5t13 1.5q55 0 55 -46q0 -13 -8 -40l-237 -766q0 -2 -6.5 -3t-13.5 -1q-22 0 -39 9.5z" />
    <glyph glyph-name="zero" unicode="0" horiz-adv-x="635" 
d="M173 23.5q-61 36.5 -93 105t-32 161.5v66q0 93 32.5 161.5t93.5 105.5t143 37q83 0 144 -36.5t93.5 -105t32.5 -161.5v-65q0 -93 -32.5 -162t-93.5 -106t-144 -37t-144 36.5zM440.5 129.5q43.5 55.5 43.5 157.5v72q0 102 -44 159t-123 57t-122 -56t-43 -158v-73
q0 -102 43.5 -158t121.5 -56q80 0 123.5 55.5z" />
    <glyph glyph-name="one" unicode="1" horiz-adv-x="366" 
d="M167 42v464q-27 -27 -67 -27q-34 0 -58 19q-22 19 -22 50q0 15 6 27t13.5 18.5t9.5 5.5q25 -23 59 -23q32 0 54.5 21.5t26.5 54.5h35q45 0 45 -47v-563q0 -47 -45 -47h-13q-44 0 -44 47z" />
    <glyph glyph-name="two" unicode="2" horiz-adv-x="535" 
d="M53 13q-15 13 -15 43v25q0 62 28 106.5t69.5 74t102.5 59.5q9 4 60.5 29.5t76 53.5t24.5 61q0 50 -35 78.5t-97 28.5q-66 0 -104.5 -34.5t-53.5 -89.5q0 -3 -18.5 -0.5t-34 14.5t-15.5 36q0 26 15 54.5t44 51.5q31 26 75.5 41t98.5 15q106 0 166 -51.5t60 -141.5
q0 -54 -25.5 -92t-64 -62t-100.5 -53q-77 -35 -118.5 -65.5t-53.5 -77.5q-4 -18 -4 -29h328q49 0 49 -40v-6q0 -42 -49 -42h-360q-34 0 -49 13z" />
    <glyph glyph-name="three" unicode="3" horiz-adv-x="546" 
d="M153 1q-45 14 -77 37q-29 21 -44.5 46t-15.5 48q0 24 13.5 36.5t29.5 16t17 0.5q19 -55 66 -84.5t112 -29.5q69 0 109.5 31t40.5 83q0 56 -37.5 85t-110.5 29h-46q-49 0 -49 37v6q0 20 11.5 28.5t35.5 8.5h60q59 0 90 26t31 72q0 47 -36 73.5t-100 26.5q-59 0 -99 -27
t-59 -71q-1 -3 -17 1t-29.5 16t-13.5 34q0 21 16 44t44 42q30 20 71 32t88 12q112 0 173.5 -46t61.5 -129q0 -105 -110 -138q61 -20 93.5 -63t32.5 -103q0 -91 -66.5 -142.5t-184.5 -51.5q-56 0 -101 14z" />
    <glyph glyph-name="four" unicode="4" horiz-adv-x="594" 
d="M372.5 8q-11.5 13 -11.5 34v131h-265q-29 0 -46 13.5t-17 34.5v22q0 15 6.5 28.5t22.5 35.5l231 299q20 28 36.5 37t51.5 9q42 0 59.5 -15.5t17.5 -51.5v-328h71q45 0 45 -40v-5q0 -20 -11 -29.5t-34 -9.5h-71v-131q0 -47 -44 -47h-11q-19 0 -30.5 13zM365 255v313
l-239 -313h239z" />
    <glyph glyph-name="five" unicode="5" horiz-adv-x="538" 
d="M164 -1.5q-43 11.5 -75 31.5q-30 19 -46.5 42t-16.5 43q0 16 11 28.5t23.5 19t14.5 3.5q28 -45 74.5 -70.5t107.5 -25.5q71 0 113 34.5t42 93.5t-38.5 92t-107.5 33q-92 0 -151 -44q-63 4 -63 64v246q0 26 14 42t39 16h325q48 0 48 -42v-5q0 -41 -48 -41h-287v-185
q65 29 133 29q105 0 168.5 -55.5t63.5 -148.5q0 -64 -30.5 -112t-87 -74t-133.5 -26q-50 0 -93 11.5z" />
    <glyph glyph-name="six" unicode="6" horiz-adv-x="587" 
d="M117 68.5q-69 81.5 -69 218.5v66q0 95 33 164t94.5 106t144.5 37q95 0 154 -38q26 -17 39 -37t13 -40q0 -17 -11.5 -29t-25.5 -17.5t-15 -3.5q-52 80 -149 80q-79 0 -124 -49t-50 -142q-1 -10 -1 -47q34 31 82 51t102 20q100 0 159.5 -52.5t59.5 -142.5v-5
q0 -63 -31 -113.5t-85.5 -79t-123.5 -28.5q-127 0 -196 81.5zM413.5 105.5q40.5 36.5 40.5 94.5v6q0 60 -37 92.5t-105 32.5q-45 0 -88 -20.5t-73 -53.5l1 -14q8 -83 48 -128.5t109 -45.5q64 0 104.5 36.5z" />
    <glyph glyph-name="seven" unicode="7" horiz-adv-x="530" 
d="M136 3q-14 8 -22 17.5t-5 13.5l287 521h-328q-46 0 -46 42v7q0 43 46 43h378q37 0 50.5 -13t13.5 -36v-8q0 -15 -7 -31t-23 -44l-261 -484q-19 -36 -53 -36q-16 0 -30 8z" />
    <glyph glyph-name="eight" unicode="8" horiz-adv-x="583" 
d="M105 38q-68 50 -68 134q0 57 33.5 98.5t97.5 62.5q-56 18 -84 55.5t-28 90.5t29 94t82.5 64t124.5 23q108 0 170.5 -48.5t62.5 -130.5q0 -52 -28 -90t-83 -57q65 -20 98 -61.5t33 -100.5q0 -54 -31.5 -95.5t-89.5 -65t-133 -23.5q-118 0 -186 50zM391.5 396.5
q35.5 27.5 35.5 76.5t-36 78.5t-100 29.5q-66 0 -101 -28.5t-35 -79.5q0 -47 36.5 -75.5t100.5 -28.5t99.5 27.5zM405 97q39 30 39 83q0 52 -41 83.5t-112 31.5q-72 0 -112.5 -31t-40.5 -84q0 -50 41 -81.5t113 -31.5q74 0 113 30z" />
    <glyph glyph-name="nine" unicode="9" horiz-adv-x="587" 
d="M109 24q-25 15 -38.5 34.5t-13.5 38.5q0 17 9.5 29.5t21 18.5t12.5 4q59 -78 158 -78q84 0 128.5 45.5t50.5 140.5q1 7 1 19q0 15 -1 26q-32 -31 -81 -50.5t-102 -19.5q-100 0 -159.5 52t-59.5 143v4q0 63 31 115.5t85.5 82.5t123.5 30q123 0 193.5 -79t70.5 -219v-69
q0 -150 -71 -227.5t-206 -77.5q-96 0 -153 37zM362.5 329.5q42.5 20.5 72.5 53.5l-1 18q-7 84 -46.5 130.5t-109.5 46.5q-62 0 -103 -40t-41 -99v-5q0 -60 36.5 -92.5t104.5 -32.5q45 0 87.5 20.5z" />
    <glyph glyph-name="colon" unicode=":" horiz-adv-x="246" 
d="M62 384q0 54 54 54h13q55 0 55 -54v-12q0 -26 -14 -40t-41 -14h-13q-26 0 -40 14t-14 40v12zM62 59q0 27 13.5 41t40.5 14h13q55 0 55 -55v-12q0 -26 -14 -40t-41 -14h-13q-26 0 -40 14t-14 40v12z" />
    <glyph glyph-name="semicolon" unicode=";" horiz-adv-x="246" 
d="M76 332q-14 14 -14 40v12q0 54 54 54h13q55 0 55 -54v-12q0 -26 -14 -40t-41 -14h-13q-26 0 -40 14zM55 -130q-14 0 -24 8.5t-6 22.5l54 170q8 26 17.5 36.5t33.5 10.5h9q19 0 30.5 -12t11.5 -35v-5q0 -30 -23 -60l-83 -128q-5 -8 -20 -8z" />
    <glyph glyph-name="less" unicode="&#x3c;" horiz-adv-x="464" 
d="M74 209q-15 8 -22.5 20t-7.5 35t7.5 35t22.5 20l317 171q2 1 9.5 -6.5t13 -18.5t5.5 -24q0 -34 -49 -59l-228 -118l228 -116q49 -26 49 -60q0 -14 -5.5 -25.5t-12.5 -18t-10 -5.5z" />
    <glyph glyph-name="equal" unicode="=" horiz-adv-x="538" 
d="M51 373v9q0 39 43 39h350q43 0 43 -39v-9q0 -39 -43 -39h-350q-43 0 -43 39zM51 139v10q0 39 43 39h350q43 0 43 -39v-10q0 -39 -43 -39h-350q-43 0 -43 39z" />
    <glyph glyph-name="greater" unicode="&#x3e;" horiz-adv-x="463" 
d="M62.5 44.5q-7.5 6.5 -13 18t-5.5 24.5q0 35 49 61l227 116l-227 118q-49 25 -49 60q0 12 6 23.5t13 18.5t10 6l316 -171q15 -8 22.5 -20t7.5 -35t-7.5 -35t-22.5 -20l-316 -170q-3 -1 -10.5 5.5z" />
    <glyph glyph-name="question" unicode="?" horiz-adv-x="479" 
d="M183.5 193.5q-11.5 8.5 -10.5 25.5q2 63 26.5 98.5t66.5 62.5q6 4 11 7.5t8 5.5q36 22 53 40t17 48q0 43 -30 68.5t-83 25.5q-66 0 -100 -36.5t-42 -90.5q-1 -3 -20 0.5t-34.5 16t-15.5 36.5t13.5 51.5t38.5 50.5q61 56 162 56q64 0 111 -21.5t72.5 -60t25.5 -88.5
q0 -55 -24.5 -86.5t-72.5 -63.5q-35 -23 -53.5 -37.5t-32 -38t-14.5 -56.5q-3 -22 -41 -22q-20 0 -31.5 8.5zM170 7q-14 14 -14 40v12q0 26 14 40.5t40 14.5h14q27 0 41 -14.5t14 -40.5v-12q0 -26 -14 -40t-41 -14h-14q-26 0 -40 14z" />
    <glyph glyph-name="at" unicode="@" horiz-adv-x="743" 
d="M86.5 497q42.5 77 118 120t171.5 43q100 0 174 -37.5t113.5 -105.5t39.5 -157q0 -95 -39.5 -145.5t-112.5 -50.5q-41 0 -69.5 17.5t-37.5 46.5q-16 -30 -42.5 -46.5t-60.5 -16.5q-59 0 -96.5 43t-37.5 109q0 67 38 109t98 42q29 0 54 -13.5t40 -35.5q4 25 18 37
q13 10 30 10q11 0 19.5 -4t8.5 -7v-157q0 -39 13.5 -58.5t44.5 -19.5q37 0 57 37.5t20 101.5q0 73 -32.5 129t-94 87.5t-145.5 31.5q-80 0 -143.5 -36.5t-98.5 -101t-35 -146.5q0 -81 36.5 -145.5t101.5 -101t147 -36.5q48 0 91 13.5t73 35.5q18 13 34 13q10 0 17.5 -7.5
t11.5 -17t2 -11.5q-38 -34 -99 -56.5t-130 -22.5q-101 0 -178 42t-119.5 118.5t-42.5 175.5q0 97 42.5 174zM436 351q-10 24 -29 37.5t-45 13.5q-34 0 -55 -23.5t-21 -61.5q0 -39 21 -62.5t54 -23.5q32 0 53.5 19.5t21.5 51.5v49z" />
    <glyph glyph-name="A" unicode="A" horiz-adv-x="630" 
d="M41.5 0.5q-13.5 5.5 -22 13t-6.5 12.5l230 594q6 17 22 25t49 8q34 0 49.5 -8t21.5 -25l232 -594q2 -4 -6.5 -11.5t-22.5 -13.5t-28 -6q-43 0 -61 48l-57 147h-259l-57 -148q-17 -47 -57 -47q-14 0 -27.5 5.5zM416 273l-104 274l-104 -274h208z" />
    <glyph glyph-name="B" unicode="B" horiz-adv-x="618" 
d="M84 16q-15 16 -15 42v531q0 26 15 42t40 16h213q106 0 162 -43t56 -125q0 -52 -29 -87t-85 -52q70 -16 105 -58t35 -101q0 -91 -60 -136t-186 -45h-211q-25 0 -40 16zM324 365q57 0 90.5 27.5t33.5 74.5q0 97 -126 97h-151v-199h153zM328 83q78 0 112.5 25t34.5 81
q0 102 -144 102h-160v-208h157z" />
    <glyph glyph-name="C" unicode="C" horiz-adv-x="657" 
d="M86 497q42 77 116.5 120t170.5 43q109 0 183 -52q29 -20 45 -43.5t16 -41.5q0 -22 -13.5 -35t-29.5 -18.5t-17 -2.5q-27 48 -77 74t-106 26q-65 0 -115.5 -30.5t-79 -86t-28.5 -126.5q0 -70 29 -126t80.5 -87t115.5 -31q66 0 116.5 30.5t70.5 82.5q1 3 18.5 -2t31.5 -18
t14 -35q0 -19 -16.5 -45t-47.5 -48q-78 -58 -193 -58q-95 0 -169 42.5t-115.5 119t-41.5 173.5q0 98 42 175z" />
    <glyph glyph-name="D" unicode="D" horiz-adv-x="677" 
d="M69 589q0 26 15.5 42t39.5 16h158q109 0 188 -38.5t121 -111t42 -172.5t-42.5 -173.5t-123 -112.5t-190.5 -39h-151q-24 0 -40.5 17t-16.5 40v532zM463.5 150.5q65.5 61.5 65.5 173.5q0 110 -66 172t-183 62h-109v-469h108q119 0 184.5 61.5z" />
    <glyph glyph-name="E" unicode="E" horiz-adv-x="587" 
d="M84 15.5q-15 15.5 -15 41.5v532q0 26 15 42t40 16h375q24 0 36 -11t12 -32v-6q0 -43 -48 -43h-327v-181h253q48 0 48 -41v-3q0 -43 -48 -43h-253v-196h333q47 0 47 -41v-5q0 -45 -47 -45h-381q-25 0 -40 15.5z" />
    <glyph glyph-name="F" unicode="F" horiz-adv-x="543" 
d="M69 589q0 26 15 42t40 16h349q48 0 48 -42v-6q0 -43 -48 -43h-302v-206h224q48 0 48 -41v-4q0 -42 -48 -42h-222v-220q0 -47 -45 -47h-16q-21 0 -32 14t-11 40v539z" />
    <glyph glyph-name="G" unicode="G" horiz-adv-x="712" 
d="M641 325.5q14 -15.5 14 -43.5v-276q0 -3 -10.5 -6.5t-23.5 -3.5q-26 0 -41 18t-15 65v12q-31 -49 -86 -76t-129 -27q-92 0 -161.5 43t-107 119t-37.5 172q0 98 42 175t117.5 120t172.5 43q56 0 102 -13t79 -35q30 -20 47 -43t17 -43q0 -21 -12 -33.5t-27 -17.5t-17 -2
q-29 47 -80 72.5t-107 25.5q-66 0 -118 -31.5t-81 -88.5t-29 -130t26.5 -129.5t76.5 -88.5t117 -32q78 0 131 40t63 105v41h-152q-27 0 -39.5 9t-12.5 30v5q0 21 12.5 30.5t39.5 9.5h188q27 0 41 -15.5z" />
    <glyph glyph-name="H" unicode="H" horiz-adv-x="685" 
d="M69 43v561q0 47 43 47h15q45 0 45 -47v-235h341v235q0 47 43 47h15q45 0 45 -47v-561q0 -47 -45 -47h-15q-43 0 -43 47v236h-341v-236q0 -47 -45 -47h-15q-43 0 -43 47z" />
    <glyph glyph-name="I" unicode="I" horiz-adv-x="259" 
d="M78 604q0 47 44 47h14q45 0 45 -47v-561q0 -47 -45 -47h-14q-44 0 -44 47v561z" />
    <glyph glyph-name="J" unicode="J" horiz-adv-x="464" 
d="M33.5 122q10.5 13 23 20.5t13.5 4.5q18 -33 48 -52t69 -19q59 0 85 33t26 110v385q0 47 44 47h15q44 0 44 -47v-386q0 -118 -51 -174.5t-155 -56.5q-50 0 -89 15.5t-61 39.5t-22 49q0 18 10.5 31z" />
    <glyph glyph-name="K" unicode="K" horiz-adv-x="582" 
d="M69 604q0 47 43 47h15q45 0 45 -47v-260l259 274q15 19 28.5 26t28.5 7q20 0 33 -9.5t18.5 -21.5t4.5 -15l-258 -274l265 -290q3 -3 -3.5 -14.5t-21 -21t-34.5 -9.5q-17 0 -30 7t-26 22l-264 288v-270q0 -47 -45 -47h-15q-43 0 -43 47v561z" />
    <glyph glyph-name="L" unicode="L" horiz-adv-x="528" 
d="M84 15.5q-15 15.5 -15 41.5v547q0 47 43 47h15q45 0 45 -47v-511h281q48 0 48 -44v-4q0 -22 -12.5 -33.5t-35.5 -11.5h-329q-25 0 -40 15.5z" />
    <glyph glyph-name="M" unicode="M" horiz-adv-x="750" 
d="M69 594q0 26 16 41.5t43 15.5h27q28 0 41 -11t26 -41l153 -345l154 345q13 30 26 41t40 11h25q28 0 44.5 -15.5t16.5 -41.5v-551q0 -47 -43 -47h-14q-21 0 -31 11.5t-10 35.5v475l-143 -322q-10 -23 -23 -33.5t-43 -10.5q-31 0 -43 10t-23 34l-141 319v-472
q0 -24 -10 -35.5t-32 -11.5h-16q-40 0 -40 47v551z" />
    <glyph glyph-name="N" unicode="N" horiz-adv-x="683" 
d="M69 43v550q0 27 12.5 42.5t36.5 15.5h17q22 0 34 -8.5t28 -30.5l320 -454v446q0 47 43 47h12q42 0 42 -47v-550q0 -27 -13 -42.5t-35 -15.5h-8q-22 0 -32 6.5t-23 24.5l-337 477v-461q0 -47 -44 -47h-11q-42 0 -42 47z" />
    <glyph glyph-name="O" unicode="O" horiz-adv-x="741" 
d="M200.5 29.5q-74.5 42.5 -116 119t-41.5 173.5q0 98 42 175t117 120t169 43q95 0 169.5 -42.5t116 -119t41.5 -174.5t-42 -174.5t-116.5 -119.5t-169.5 -43t-169.5 42.5zM486.5 109q50.5 31 79 86.5t28.5 126.5t-28.5 127.5t-79.5 88t-116 31.5t-115.5 -31t-79 -86.5
t-28.5 -127.5q0 -71 28.5 -127t79.5 -87.5t116 -31.5t115.5 31z" />
    <glyph glyph-name="P" unicode="P" horiz-adv-x="569" 
d="M69 43v546q0 26 15 42t40 16h167q120 0 185.5 -53.5t65.5 -152.5q0 -102 -65 -155t-190 -53h-115v-190q0 -22 -11.5 -34.5t-33.5 -12.5h-15q-43 0 -43 47zM401 347.5q38 31.5 38 91.5q0 61 -37.5 92t-111.5 31h-119v-246h118q74 0 112 31.5z" />
    <glyph glyph-name="Q" unicode="Q" horiz-adv-x="741" 
d="M695.5 15q-7.5 -11 -21.5 -19.5t-32 -8.5q-30 0 -60 33l-25 25q-39 -28 -87 -43t-100 -15q-95 0 -169.5 42.5t-116 118.5t-41.5 174t42 175t117 120t170 43t169 -42.5t115.5 -119t41.5 -174.5q0 -62 -19.5 -117t-54.5 -100l77 -79q2 -2 -5.5 -13zM495 111l-103 106
q-17 19 -17 39q0 15 11 25l7 6q10 10 24 10q20 0 38 -20l101 -104q40 60 40 149q0 71 -28.5 127t-80 88t-116.5 32t-116 -31.5t-79.5 -87t-28.5 -126.5t29 -127t80 -87.5t116 -31.5q70 0 123 33z" />
    <glyph glyph-name="R" unicode="R" horiz-adv-x="589" 
d="M80 9.5q-11 13.5 -11 39.5v540q0 26 15 42t40 16h184q119 0 180.5 -49t61.5 -145q0 -73 -39 -120.5t-113 -63.5q-19 -4 -41 -6l189 -225q3 -3 -4 -14t-21.5 -19.5t-34.5 -8.5t-35 9t-32 31l-177 217h-71v-210q0 -22 -11.5 -34.5t-33.5 -12.5h-14q-21 0 -32 13.5zM306 334
q70 0 105 30t35 84q0 114 -143 114h-133v-228h136z" />
    <glyph glyph-name="S" unicode="S" horiz-adv-x="554" 
d="M32 116q0 15 10.5 28.5t22.5 21t14 5.5q30 -43 81 -71t114 -28q67 0 104 26.5t37 74.5q0 34 -21 54.5t-52.5 31.5t-88.5 24q-61 14 -104 33t-71.5 57t-28.5 99q0 54 29.5 97t82.5 67t121 24q60 0 107 -14.5t76 -38.5q19 -15 29 -31t10 -31q0 -17 -10.5 -30.5t-23.5 -21
t-14 -5.5q-27 38 -73 62.5t-100 24.5q-61 0 -97.5 -27t-36.5 -72q0 -34 18 -52.5t46 -27.5t89 -23q100 -23 158 -65.5t58 -127.5q0 -89 -65 -141t-178 -52q-71 0 -124.5 18.5t-85.5 48.5q-33 32 -33 62z" />
    <glyph glyph-name="T" unicode="T" horiz-adv-x="593" 
d="M245 555h-177q-23 0 -35.5 11.5t-12.5 32.5v5q0 21 12.5 32t35.5 11h458q47 0 47 -43v-5q0 -21 -12 -32.5t-35 -11.5h-177v-512q0 -47 -46 -47h-14q-44 0 -44 47v512z" />
    <glyph glyph-name="U" unicode="U" horiz-adv-x="650" 
d="M61 604q0 23 11.5 35t32.5 12h14q45 0 45 -47v-338q0 -92 40.5 -139.5t120.5 -47.5q82 0 121.5 46.5t39.5 141.5v337q0 47 44 47h16q43 0 43 -47v-339q0 -135 -68 -206t-197 -71t-196 70t-67 205v341z" />
    <glyph glyph-name="V" unicode="V" horiz-adv-x="620" 
d="M269.5 2.5q-13.5 8.5 -22.5 30.5l-232 585q-2 5 7 13t24 14t30 6q20 0 36 -11.5t24 -35.5l176 -493l176 493q8 25 23.5 36t33.5 11q15 0 29.5 -6t23.5 -14t7 -13l-231 -585q-9 -21 -22.5 -30t-41.5 -9q-27 0 -40.5 8.5z" />
    <glyph glyph-name="W" unicode="W" horiz-adv-x="925" 
d="M220 2q-16 9 -21 32l-151 588q-1 3 7 10.5t22 13t32 5.5q46 0 60 -60l105 -476l123 407q6 24 22.5 35.5t45.5 11.5t44.5 -11.5t23.5 -35.5l121 -405l107 475q7 31 21 45t36 14q17 0 30.5 -6t21 -13t6.5 -10l-149 -588q-5 -22 -21 -31.5t-49 -9.5q-30 0 -45 9.5t-22 32.5
l-125 418l-131 -418q-6 -23 -20.5 -32.5t-44.5 -9.5q-33 0 -49 9z" />
    <glyph glyph-name="X" unicode="X" horiz-adv-x="606" 
d="M236 325l-207 283q-3 4 5.5 15t23.5 19.5t32 8.5q36 0 57 -34l158 -230l164 231q22 35 53 35q16 0 30.5 -9t22.5 -19.5t5 -14.5l-211 -286l211 -284q3 -4 -5 -15t-23 -19.5t-32 -8.5q-16 0 -31 8.5t-26 25.5l-163 233l-166 -234q-22 -35 -53 -35q-16 0 -30.5 9
t-22.5 19.5t-5 14.5z" />
    <glyph glyph-name="Y" unicode="Y" horiz-adv-x="573" 
d="M235 43v222l-229 344q-2 4 5 14.5t22.5 19t37.5 8.5q30 0 50 -36l166 -264l166 264q22 36 51 36q20 0 35 -8.5t22 -19t5 -14.5l-228 -344v-222q0 -47 -45 -47h-14q-44 0 -44 47z" />
    <glyph glyph-name="Z" unicode="Z" horiz-adv-x="609" 
d="M48 58q0 21 8.5 37t34.5 49l339 413h-333q-46 0 -46 42v6q0 42 46 42h391q34 0 50 -13.5t16 -34.5v-9q0 -21 -10 -38.5t-32 -44.5l-342 -417h353q46 0 46 -42v-6q0 -42 -46 -42h-408q-34 0 -50.5 14t-16.5 35v9z" />
    <glyph glyph-name="bracketleft" unicode="[" horiz-adv-x="345" 
d="M85 -182q-15 16 -15 42v732q0 26 15 42t40 16h154q25 0 36 -9t11 -29v-7q0 -20 -11 -29.5t-36 -9.5h-116v-680h116q26 0 37 -9t11 -29v-6q0 -21 -11 -30.5t-37 -9.5h-154q-25 0 -40 16z" />
    <glyph glyph-name="backslash" unicode="\" horiz-adv-x="339" 
d="M265 -201q-6 1 -6 3l-238 766q-8 27 -8 40q0 46 56 46q7 0 12.5 -1.5t7.5 -2.5l237 -766q8 -26 8 -40q0 -27 -16.5 -36.5t-38.5 -9.5q-8 0 -14 1z" />
    <glyph glyph-name="bracketright" unicode="]" horiz-adv-x="345" 
d="M29 -188.5q-11 9.5 -11 30.5v6q0 20 11 29t37 9h116v680h-115q-26 0 -37 9t-11 30v7q0 20 11 29t37 9h153q25 0 40 -16t15 -42v-732q0 -26 -15 -42t-40 -16h-154q-26 0 -37 9.5z" />
    <glyph glyph-name="asciicircum" unicode="^" horiz-adv-x="463" 
d="M174 622q8 15 20 22.5t35 7.5t35 -7.5t20 -22.5l170 -316q1 -3 -5.5 -10.5t-18 -13t-24.5 -5.5q-35 0 -61 49l-116 227l-118 -227q-26 -49 -58 -49q-13 0 -24.5 6t-19 13t-6.5 10z" />
    <glyph glyph-name="underscore" unicode="_" horiz-adv-x="479" 
d="M-43 -79q0 18 11 28.5t32 10.5h479q21 0 32 -10.5t11 -28.5v-5q0 -18 -11 -28t-32 -10h-479q-21 0 -32 10t-11 28v5z" />
    <glyph glyph-name="grave" unicode="`" horiz-adv-x="250" 
d="M153.5 571.5q-46.5 16.5 -85 43.5t-38.5 60q0 20 11.5 32.5t31.5 12.5q34 0 67.5 -33.5t56.5 -74.5t23 -52q0 -5 -8 -5q-12 0 -58.5 16.5z" />
    <glyph glyph-name="a" unicode="a" horiz-adv-x="523" 
d="M112 247q79 39 244 42h13v10q0 55 -30.5 84t-88.5 29q-51 0 -85.5 -22.5t-52.5 -59.5q0 -2 -17 1.5t-30.5 14.5t-13.5 32q0 30 33 60q27 24 71 39.5t102 15.5q102 0 156 -50t54 -142v-295q0 -4 -11.5 -7.5t-24.5 -3.5q-46 0 -57 44q-4 18 -4 33q-28 -39 -73.5 -61
t-99.5 -22q-76 0 -120 37.5t-44 99.5q0 82 79 121zM369 227l-27 -1q-108 -4 -160 -26t-52 -70q0 -32 24 -51t67 -19q65 0 106.5 36.5t41.5 93.5v37z" />
    <glyph glyph-name="b" unicode="b" horiz-adv-x="585" 
d="M159 43q0 -47 -43 -47h-11q-44 0 -44 47v633q0 3 11 7t25 4q27 0 45 -19t18 -66v-196q61 87 168 87q64 0 115.5 -31t80.5 -88.5t29 -132.5q0 -74 -29 -132t-81 -90t-118 -32q-58 0 -101.5 24t-64.5 61v-29zM438 328q-19 39 -52.5 61t-76.5 22q-54 0 -92.5 -26.5
t-57.5 -73.5v-107q1 -38 21.5 -69t54 -48.5t72.5 -17.5q67 0 108.5 47t41.5 124q0 49 -19 88z" />
    <glyph glyph-name="c" unicode="c" horiz-adv-x="516" 
d="M64.5 370.5q32.5 57.5 89.5 90t128 32.5q96 0 157 -50q24 -19 36.5 -42t12.5 -41t-13 -29t-28.5 -14.5t-17.5 -0.5q-39 94 -145 94q-45 0 -81 -22t-56.5 -60.5t-20.5 -86.5q0 -49 20.5 -88t56.5 -61t81 -22q106 0 145 94q2 3 17.5 0t28.5 -14.5t13 -30.5q0 -18 -13 -40.5
t-37 -41.5q-27 -23 -66.5 -36.5t-89.5 -13.5q-72 0 -129 32.5t-89 90.5t-32 131q0 72 32.5 129.5z" />
    <glyph glyph-name="d" unicode="d" horiz-adv-x="585" 
d="M141.5 18.5q-51.5 31.5 -80.5 89t-29 132.5t29 132.5t81 89t118 31.5q56 0 99.5 -22.5t65.5 -56.5v262q0 3 11.5 7t24.5 4q63 0 63 -85v-559q0 -47 -44 -47h-10q-44 0 -44 47v37q-61 -93 -169 -93q-64 0 -115.5 31.5zM426 312q-19 47 -56.5 73t-91.5 26q-68 0 -109 -47
t-41 -124q0 -49 19 -88t52.5 -61t76.5 -22q40 0 74.5 18.5t55 50.5t20.5 72v102z" />
    <glyph glyph-name="e" unicode="e" horiz-adv-x="540" 
d="M64 368.5q32 58.5 88 91.5t126 33q69 0 121 -30.5t81 -85.5t29 -126v-8q0 -16 -6.5 -22.5t-23.5 -6.5h-355q0 -6 2 -18q11 -59 54.5 -95t107.5 -36q58 0 94 21.5t57 58.5q2 2 15.5 -2.5t25 -16t11.5 -30.5q0 -16 -14 -35t-39 -35q-62 -39 -152 -39q-75 0 -132.5 31.5
t-89.5 88.5t-32 131q0 72 32 130.5zM373 381q-36 37 -96 37q-59 0 -101 -38.5t-51 -98.5h288q-4 63 -40 100z" />
    <glyph glyph-name="f" unicode="f" horiz-adv-x="353" 
d="M108 400h-56q-23 0 -33.5 9.5t-10.5 28.5v7q0 18 10.5 27t33.5 9h56v36q0 89 39.5 133t113.5 44q52 0 82 -20q26 -17 26 -45q0 -13 -5 -23t-11.5 -15.5t-7.5 -4.5q-11 11 -31 19.5t-41 8.5q-36 0 -52.5 -23.5t-16.5 -74.5v-35h81q23 0 33.5 -9t10.5 -28v-7
q0 -19 -10.5 -28t-33.5 -9h-79v-357q0 -26 -11 -36.5t-32 -10.5h-10q-45 0 -45 47v357z" />
    <glyph glyph-name="g" unicode="g" horiz-adv-x="489" 
d="M56 -178.5q-58 32.5 -58 100.5q0 51 42.5 85.5t110.5 46.5q-19 16 -19 45q0 28 27 52q-58 18 -92 61t-34 99q0 50 26.5 91.5t74 66t105.5 24.5q62 0 115 -29l26 46q12 20 25.5 29t31.5 9q17 0 29 -9t18 -20.5t4 -12.5l-82 -85q42 -48 42 -107q0 -50 -26.5 -90t-74 -62.5
t-107.5 -22.5h-18q-5 -7 -5 -17q0 -17 18.5 -25t66.5 -19l45 -11q62 -16 101 -46.5t39 -84.5q0 -69 -66.5 -108t-185.5 -39q-121 0 -179 32.5zM321 234q31 30 31 79q0 48 -31.5 78.5t-82.5 30.5q-49 0 -80 -30t-31 -79t31.5 -79t81.5 -30t81 30zM350.5 -122.5
q40.5 19.5 40.5 55.5q0 26 -24.5 39.5t-73.5 25.5l-50 12q-65 -4 -107.5 -26t-42.5 -59q0 -32 36.5 -49.5t107.5 -17.5q73 0 113.5 19.5z" />
    <glyph glyph-name="h" unicode="h" horiz-adv-x="561" 
d="M458 436q47 -57 47 -151v-242q0 -47 -44 -47h-11q-44 0 -44 47v231q0 62 -29.5 97t-81.5 35q-62 0 -98.5 -38t-36.5 -103v-222q0 -47 -44 -47h-11q-44 0 -44 47v633q0 3 11 7t25 4q27 0 45 -19t18 -66v-197q58 88 159 88q92 0 139 -57z" />
    <glyph glyph-name="i" unicode="i" horiz-adv-x="230" 
d="M73 677.5q16 15.5 44 15.5t43 -15.5t15 -42.5t-15.5 -42t-43.5 -15t-43.5 15.5t-15.5 41.5q0 27 16 42.5zM65 438q0 48 45 48h10q21 0 32.5 -11t11.5 -37v-395q0 -47 -44 -47h-10q-45 0 -45 47v395z" />
    <glyph glyph-name="j" unicode="j" horiz-adv-x="230" 
d="M73 677.5q16 15.5 44 15.5t43 -15.5t15 -42.5t-15.5 -42t-43.5 -15t-43.5 15.5t-15.5 41.5q0 27 16 42.5zM-82 -136q0 12 5 23t11 17.5t7 5.5q28 -28 64 -28q32 0 46 18t14 59v479q0 48 45 48h10q21 0 32.5 -11t11.5 -37v-485q0 -74 -37 -113.5t-107 -39.5q-59 0 -87 28
q-15 15 -15 36z" />
    <glyph glyph-name="k" unicode="k" horiz-adv-x="474" 
d="M61 676q0 3 11 7t25 4q27 0 45 -19t18 -66v-337l167 187q27 34 59 34q16 0 28.5 -8t18.5 -18t4 -13l-175 -193l202 -219q2 -3 -5 -13t-20 -18.5t-29 -8.5q-32 0 -59 34l-191 206v-192q0 -47 -44 -47h-11q-44 0 -44 47v633z" />
    <glyph glyph-name="l" unicode="l" horiz-adv-x="230" 
d="M65 43v633q0 3 11.5 7t24.5 4q63 0 63 -85v-559q0 -47 -44 -47h-10q-45 0 -45 47z" />
    <glyph glyph-name="m" unicode="m" horiz-adv-x="869" 
d="M767.5 441.5q45.5 -51.5 45.5 -146.5v-252q0 -47 -44 -47h-10q-22 0 -33.5 10.5t-11.5 36.5v240q0 123 -106 123q-38 0 -70.5 -21.5t-51.5 -58.5v-283q0 -47 -44 -47h-10q-45 0 -45 47v236q0 127 -106 127q-37 0 -70 -22t-51 -58v-283q0 -47 -44 -47h-11q-44 0 -44 47
v432q0 3 11 7t25 4q57 0 62 -74q26 37 64 59t85 22q58 0 98 -26t59 -75q27 46 69 73.5t98 27.5q90 0 135.5 -51.5z" />
    <glyph glyph-name="n" unicode="n" horiz-adv-x="561" 
d="M458 436.5q47 -56.5 47 -149.5v-244q0 -47 -44 -47h-11q-44 0 -44 47v232q0 61 -29.5 96t-81.5 35q-46 0 -81 -22.5t-54 -61.5v-279q0 -47 -44 -47h-11q-44 0 -44 47v432q0 3 11 7t25 4q25 0 43 -17.5t19 -60.5q27 40 67.5 62.5t92.5 22.5q92 0 139 -56.5z" />
    <glyph glyph-name="o" unicode="o" horiz-adv-x="568" 
d="M64 371q32 57 89.5 89.5t131.5 32.5q73 0 130 -32.5t89 -90.5t32 -131t-32 -130t-89.5 -89.5t-130.5 -32.5q-74 0 -131 32.5t-89 90t-32 131.5q0 73 32 130zM423.5 327.5q-20.5 39.5 -57 62t-82.5 22.5q-45 0 -82 -22t-58 -61t-21 -88t21 -88.5t58 -62t82 -22.5
t81.5 22.5t57.5 61.5t21 87q0 49 -20.5 88.5z" />
    <glyph glyph-name="p" unicode="p" horiz-adv-x="585" 
d="M443.5 462q51.5 -31 80.5 -88.5t29 -132.5q0 -74 -29 -132t-81 -90t-118 -32q-57 0 -100 25.5t-65 64.5v-226q0 -47 -44 -47h-11q-44 0 -44 47v624q0 3 11 7t25 4q49 0 59 -55q3 -15 3 -28q59 90 169 90q64 0 115.5 -31zM415.5 116q41.5 47 41.5 124q0 49 -19 88
t-52.5 61t-76.5 22q-54 0 -92.5 -26.5t-57.5 -73.5v-101q0 -40 20 -72t54 -50.5t74 -18.5q67 0 108.5 47z" />
    <glyph glyph-name="q" unicode="q" horiz-adv-x="585" 
d="M513 482q11 -4 11 -7v-624q0 -47 -44 -47h-11q-44 0 -44 47v227q-26 -42 -69.5 -66.5t-98.5 -24.5q-64 0 -115.5 31.5t-80.5 89t-29 132.5t29 132.5t81 89t118 31.5q56 0 100 -23t66 -58v1q5 73 62 73q14 0 25 -4zM426 311q-20 47 -57 73.5t-91 26.5q-68 0 -109 -47
t-41 -124q0 -49 19 -88t52.5 -61t76.5 -22q40 0 74.5 18.5t55 51t20.5 72.5v100z" />
    <glyph glyph-name="r" unicode="r" horiz-adv-x="372" 
d="M339 476q21 -17 21 -47q0 -17 -6.5 -29t-14.5 -17.5t-9 -4.5q-26 21 -61 21q-56 0 -82.5 -49.5t-26.5 -137.5v-169q0 -47 -44 -47h-11q-44 0 -44 47v432q0 3 11 7t25 4q45 0 58 -48q4 -20 4 -36q32 91 122 91q37 0 58 -17z" />
    <glyph glyph-name="s" unicode="s" horiz-adv-x="464" 
d="M36 59q-10 16 -10 31q0 14 8.5 24.5t18.5 16t12 4.5q26 -33 67 -52.5t95 -19.5q51 0 78.5 17.5t27.5 47.5q0 23 -14 36.5t-37 20.5t-73 18q-49 10 -83.5 23t-60 41t-25.5 75q0 68 52.5 109.5t139.5 41.5q65 0 109.5 -17.5t63.5 -45.5q12 -16 12 -34q0 -14 -9 -25
t-19.5 -17t-11.5 -4q-23 31 -60 49.5t-81 18.5q-50 0 -77 -17.5t-27 -48.5q0 -21 13 -33.5t36.5 -20t70.5 -17.5q53 -11 88.5 -24t62 -41.5t26.5 -76.5q0 -69 -53.5 -110t-146.5 -41q-54 0 -96 11.5t-69 30.5q-18 13 -28 29z" />
    <glyph glyph-name="t" unicode="t" horiz-adv-x="371" 
d="M97 146v254h-35q-23 0 -33 9t-10 28v7q0 19 10 28t33 9h35v74q0 47 44 47h10q21 0 32 -10.5t11 -36.5v-74h109q23 0 32.5 -8.5t9.5 -27.5v-7q0 -19 -10 -28.5t-33 -9.5h-109v-243q0 -46 14.5 -67.5t49.5 -21.5q43 0 68 34q2 2 9 -3t13 -15t6 -24q0 -24 -21 -44
q-32 -29 -91 -29q-144 0 -144 159z" />
    <glyph glyph-name="u" unicode="u" horiz-adv-x="561" 
d="M488.5 475q11.5 -11 11.5 -37v-431q0 -3 -11 -7t-24 -4q-46 0 -59 45q-4 18 -4 31q-58 -84 -160 -84q-92 0 -138.5 56t-46.5 150v244q0 48 43 48h11q21 0 32.5 -11t11.5 -37v-232q0 -62 30 -97t85 -35q44 0 78.5 23t53.5 62v279q0 48 43 48h11q21 0 32.5 -11z" />
    <glyph glyph-name="v" unicode="v" horiz-adv-x="499" 
d="M13 457q-1 3 6 10.5t19 13t27 5.5q22 0 36.5 -12.5t26.5 -46.5l121 -339l125 339q12 33 26.5 46t34.5 13q14 0 26 -6t19 -13t6 -10l-175 -432q-13 -31 -61 -31q-26 0 -39.5 6.5t-20.5 22.5z" />
    <glyph glyph-name="w" unicode="w" horiz-adv-x="710" 
d="M159 1q-14 7 -19 25l-120 431q-1 3 8 10.5t23.5 13t27.5 5.5q18 0 32 -12.5t20 -40.5l75 -337l92 291q5 18 19.5 26.5t41.5 8.5t41 -8.5t19 -26.5l89 -289l74 335q5 28 19 40.5t32 12.5q13 0 26.5 -6t22.5 -13t8 -10l-119 -431q-4 -18 -18 -25t-42 -7q-30 0 -42 7t-19 28
l-93 291l-96 -291q-7 -20 -19 -27.5t-41 -7.5q-28 0 -42 7z" />
    <glyph glyph-name="x" unicode="x" horiz-adv-x="489" 
d="M181 240l-157 210q-2 3 5 12t19.5 16.5t28.5 7.5q20 0 34.5 -10t27.5 -31l107 -153l105 153q26 41 61 41q16 0 29 -7.5t20.5 -17t5.5 -11.5l-159 -210l156 -208q2 -3 -5 -12.5t-19.5 -17t-29.5 -7.5q-19 0 -33.5 10.5t-27.5 30.5l-107 152l-104 -151q-26 -42 -62 -42
q-16 0 -29 8t-20 17.5t-5 11.5z" />
    <glyph glyph-name="y" unicode="y" horiz-adv-x="498" 
d="M173.5 -189.5q-12.5 5.5 -20 12t-6.5 9.5l80 195q-17 2 -26.5 8t-15.5 20l-172 402q-1 3 6 10.5t19 13t27 5.5q22 0 36.5 -12.5t26.5 -43.5l130 -332l115 330q18 58 62 58q12 0 24.5 -5.5t20.5 -12t7 -9.5l-227 -599q-20 -55 -61 -55q-13 0 -25.5 5.5z" />
    <glyph glyph-name="z" unicode="z" horiz-adv-x="482" 
d="M35 46q0 15 5.5 25t22.5 29l252 302h-235q-22 0 -32.5 8.5t-10.5 27.5v7q0 36 43 36h321q41 0 41 -37v-6q0 -14 -5.5 -24t-21.5 -28l-257 -306h249q22 0 32.5 -9t10.5 -28v-6q0 -19 -10.5 -28t-32.5 -9h-331q-21 0 -31 10.5t-10 27.5v8z" />
    <glyph glyph-name="braceleft" unicode="{" horiz-adv-x="433" 
d="M296.5 -182q-36.5 17 -67.5 50q-38 41 -62.5 103.5t-29.5 145.5l-55 30q-36 19 -47 33t-11 47t11.5 47.5t46.5 32.5l55 30q5 81 29 143t62 103q31 35 68 52.5t74 17.5q21 0 33.5 -11.5t12.5 -31.5q0 -11 -6 -22t-9 -12q-90 -17 -128 -85t-42 -200l-119 -64l118 -64
q5 -132 42.5 -200t127.5 -85q4 -1 10 -12t6 -22q0 -20 -13 -31.5t-34 -11.5q-36 0 -72.5 17z" />
    <glyph glyph-name="bar" unicode="|" horiz-adv-x="256" 
d="M78 606q0 47 45 47h10q44 0 44 -47v-756q0 -48 -44 -48h-10q-45 0 -45 48v756z" />
    <glyph glyph-name="braceright" unicode="}" horiz-adv-x="433" 
d="M29.5 -187.5q-12.5 11.5 -12.5 31.5q0 11 6 22t9 12q90 17 128 85t42 200l118 64l-118 64q-5 132 -42.5 200t-127.5 85q-4 1 -10 12t-6 22q0 20 12.5 31.5t33.5 11.5q38 0 77 -19t71 -56q77 -89 85 -241l56 -30q35 -19 46.5 -33t11.5 -47t-11 -47t-47 -33l-55 -30
q-8 -152 -85 -241q-32 -37 -71 -56t-77 -19q-21 0 -33.5 11.5z" />
    <glyph glyph-name="asciitilde" unicode="~" horiz-adv-x="499" 
d="M105 174q-9 11 -9 31q0 34 23 62.5t55 28.5q28 0 66 -19t78 -56q13 35 24 52t30 17q15 0 23 -11q9 -10 9 -30q0 -33 -23.5 -61.5t-54.5 -28.5q-28 0 -66 19t-78 56q-13 -37 -25 -53t-30 -16q-13 0 -22 9z" />
    <glyph glyph-name="uni00A0" unicode="&#xa0;" horiz-adv-x="170" 
 />
    <glyph glyph-name="exclamdown" unicode="&#xa1;" horiz-adv-x="260" 
d="M69 588v12q0 26 14 40t41 14h13q26 0 40 -14t14 -40v-12q0 -54 -54 -54h-13q-55 0 -55 54zM82 6q-13 12 -13 35q0 9 1 14l30 371q3 17 8.5 25t16.5 8h11q11 0 16 -7.5t8 -25.5l30 -371q1 -5 1 -14q0 -23 -13 -35t-35 -12h-25q-23 0 -36 12z" />
    <glyph glyph-name="cent" unicode="&#xa2;" horiz-adv-x="535" 
d="M472.5 198.5q14.5 -4.5 26.5 -16t12 -29.5q0 -17 -10.5 -36t-29.5 -36q-23 -21 -57.5 -35.5t-78.5 -18.5v-79q0 -25 -10 -36t-31 -11h-5q-21 0 -30.5 11t-9.5 36v81q-99 14 -155 80.5t-56 172.5q0 100 58 168.5t152 84.5v77q0 25 10 36.5t31 11.5h5q21 0 30.5 -11
t9.5 -37v-74q69 -7 117 -38q25 -17 38.5 -38t13.5 -39t-11.5 -30.5t-25.5 -17.5t-16 -2q-21 37 -50 57.5t-72 25.5v-348q45 4 77.5 28t50.5 64q2 3 16.5 -1.5zM165 174q31 -44 86 -60v338q-55 -13 -86 -58.5t-31 -111.5q0 -64 31 -108z" />
    <glyph glyph-name="sterling" unicode="&#xa3;" horiz-adv-x="579" 
d="M27.5 9.5q-11.5 9.5 -11.5 30.5v7q0 39 46 39h42l31 171h-62q-19 0 -29.5 9t-10.5 26v9q0 17 11 26.5t29 9.5h76l25 133q17 92 68 141t135 49q81 0 131 -43q22 -18 33 -41.5t11 -46.5q0 -25 -14 -37t-30.5 -14.5t-17.5 0.5q-21 98 -110 98q-51 0 -77 -27.5t-37 -88.5
l-23 -123h151q19 0 29.5 -9.5t10.5 -26.5v-9q0 -17 -10.5 -26t-29.5 -9h-165l-31 -171h298q46 0 46 -40v-6q0 -40 -46 -40h-434q-23 0 -34.5 9.5z" />
    <glyph glyph-name="currency" unicode="&#xa4;" horiz-adv-x="628" 
d="M216 46.5q-69 59.5 -89 166.5h-57q-40 0 -40 32v8q0 32 40 32h50v38v10v33h-50q-40 0 -40 32v8q0 31 40 31h58q21 103 89.5 162.5t168.5 59.5q80 0 138 -34q33 -19 51 -44t18 -48q0 -18 -11.5 -30.5t-25.5 -18t-16 -2.5q-27 46 -64 69t-92 23q-58 0 -99 -36.5t-58 -100.5
h191q39 0 39 -31v-8q0 -32 -39 -32h-201v-33v-10v-38h201q39 0 39 -32v-8q0 -32 -39 -32h-191q17 -65 59.5 -102.5t102.5 -37.5q55 0 91.5 25t61.5 75q2 3 16 -2.5t26 -18.5t12 -31q0 -17 -10.5 -36.5t-28.5 -37.5q-29 -27 -71 -43.5t-96 -16.5q-105 0 -174 59.5z" />
    <glyph glyph-name="yen" unicode="&#xa5;" horiz-adv-x="589" 
d="M248 42v71h-152q-41 0 -41 33v8q0 33 41 33h152v68h-152q-41 0 -41 33v8q0 33 41 33h122l-176 279q-2 4 5 15t22 20t36 9q32 0 50 -36l139 -255l144 254q21 37 51 37q18 0 32 -9t20.5 -20t4.5 -15l-175 -279h121q41 0 41 -33v-8q0 -33 -41 -33h-151v-68h151q41 0 41 -33
v-8q0 -33 -41 -33h-151v-71q0 -24 -10 -35.5t-32 -11.5h-11q-40 0 -40 47z" />
    <glyph glyph-name="brokenbar" unicode="&#xa6;" horiz-adv-x="256" 
d="M78 367v239q0 47 45 47h10q44 0 44 -47v-239q0 -48 -44 -48h-10q-45 0 -45 48zM78 -150v239q0 47 45 47h10q44 0 44 -47v-239q0 -48 -44 -48h-10q-45 0 -45 48z" />
    <glyph glyph-name="section" unicode="&#xa7;" horiz-adv-x="542" 
d="M87 -127q-27 17 -41 38.5t-14 41.5q0 14 9 26t20.5 19t12.5 5q28 -44 76 -68.5t111 -24.5q62 0 96.5 20t34.5 56q0 28 -17 43.5t-45 24t-88 22.5q-64 15 -106 30.5t-71.5 47t-29.5 83.5q0 47 28 80t78 50q-41 19 -63 49t-22 77q0 49 28.5 86.5t78 58.5t112.5 21
q100 0 159 -41q24 -16 36 -35t12 -36q0 -15 -9.5 -27.5t-20.5 -19t-13 -4.5q-61 84 -161 84q-53 0 -88 -20.5t-35 -56.5t36 -55.5t115 -37.5q64 -16 104.5 -31.5t69 -46t28.5 -81.5q0 -46 -27.5 -79.5t-77.5 -50.5q41 -18 64 -48t23 -79t-28.5 -86t-80 -57.5t-120.5 -20.5
q-110 0 -174 43zM389 179.5q29 26.5 29 57.5q0 30 -21 48t-53 28t-90 22l-23 5q-47 -7 -77 -33t-30 -56t21.5 -48.5t53.5 -28t92 -22.5l25 -6q44 7 73 33.5z" />
    <glyph glyph-name="dieresis" unicode="&#xa8;" horiz-adv-x="352" 
d="M45 592.5q-15 14.5 -15 41.5t14.5 41.5t40.5 14.5q57 0 57 -56q0 -27 -14.5 -41.5t-41.5 -14.5q-26 0 -41 14.5zM225 592.5q-15 14.5 -15 41.5t14.5 41.5t40.5 14.5q57 0 57 -56q0 -27 -14.5 -41.5t-41.5 -14.5q-26 0 -41 14.5z" />
    <glyph glyph-name="copyright" unicode="&#xa9;" horiz-adv-x="752" 
d="M88 495q43 77 119 121t170 44q96 0 171 -43t117 -119.5t42 -172.5t-43 -173t-118.5 -121t-169.5 -44q-96 0 -171 43t-117.5 119.5t-42.5 172.5t43 173zM612.5 468q-35.5 65 -97.5 101.5t-140 36.5q-80 0 -141.5 -35.5t-95.5 -99.5t-34 -147q0 -80 35.5 -145t97.5 -101.5
t140 -36.5q80 0 141.5 35.5t95.5 99.5t34 147q0 80 -35.5 145zM228.5 414q23.5 41 64.5 64.5t91 23.5q38 0 68 -12t47 -29q19 -19 19 -40q0 -12 -9 -21.5t-19.5 -14t-11.5 -2.5q-30 50 -93 50q-43 0 -73 -31.5t-30 -78.5q0 -48 30.5 -79.5t75.5 -31.5q33 0 56.5 14t36.5 40
q1 2 12 -2.5t20 -14t9 -22.5q0 -19 -23 -44q-16 -17 -46 -29t-68 -12q-52 0 -93 23t-64 64t-23 93q0 51 23.5 92z" />
    <glyph glyph-name="ordfeminine" unicode="&#xaa;" horiz-adv-x="435" 
d="M68.5 284q-37.5 29 -37.5 79q0 41 23 68.5t81 44t162 21.5q0 10 -1 15q-6 78 -93 78q-68 0 -105 -64q-1 -2 -15 1t-25.5 11.5t-11.5 25.5q0 15 10.5 31.5t29.5 30.5q44 34 123 34q87 0 130 -42.5t43 -120.5v-228q0 -3 -9.5 -6t-21.5 -3q-42 0 -50 45l-1 13
q-20 -29 -54.5 -46t-73.5 -17q-66 0 -103.5 29zM267.5 342.5q30.5 25.5 30.5 59.5v45q-74 -5 -114 -15t-55 -25.5t-15 -37.5q0 -24 21.5 -38t58.5 -14q43 0 73.5 25.5z" />
    <glyph glyph-name="guillemotleft" unicode="&#xab;" horiz-adv-x="519" 
d="M318 152q-28 29 -49.5 57.5t-21.5 34.5t21.5 34t49.5 58q78 80 120 80h1q17 0 26.5 -10t9.5 -25v-3q0 -22 -47 -62q-33 -27 -100 -73q71 -48 100 -73q47 -39 47 -60v-4q0 -15 -9.5 -24.5t-26.5 -9.5h-1q-42 0 -120 80zM105 161q-26 26 -45.5 51.5t-19.5 31.5t19.5 31.5
t45.5 51.5q72 72 110 72h1q14 0 23 -9.5t9 -22.5v-2q0 -18 -41 -56q-35 -30 -89 -66q60 -41 89 -65q41 -38 41 -56v-1q0 -14 -8.5 -23t-23.5 -9h-1q-38 0 -110 72z" />
    <glyph glyph-name="logicalnot" unicode="&#xac;" horiz-adv-x="540" 
d="M410 77v147h-327q-43 0 -43 37v6q0 37 43 37h364q43 0 43 -37v-190q0 -43 -37 -43h-6q-37 0 -37 43z" />
    <glyph glyph-name="uni00AD" unicode="&#xad;" horiz-adv-x="393" 
d="M52 208q-11 10 -11 28v14q0 18 11 28.5t32 10.5h225q21 0 32 -10.5t11 -28.5v-14q0 -18 -11 -28t-32 -10h-225q-21 0 -32 10z" />
    <glyph glyph-name="registered" unicode="&#xae;" horiz-adv-x="752" 
d="M205 30q-75 43 -117.5 119.5t-42.5 172.5t43 173t119 121t170 44q96 0 171 -43t117 -119.5t42 -172.5t-43 -173t-118.5 -121t-169.5 -44q-96 0 -171 43zM518.5 76.5q61.5 35.5 95.5 99.5t34 147q0 80 -35.5 145t-97.5 101.5t-140 36.5q-80 0 -141.5 -35.5t-95.5 -99.5
t-34 -147q0 -80 35.5 -145t97.5 -101.5t140 -36.5q80 0 141.5 35.5zM457 149q-13 7 -23 21l-76 100h-40v-92q0 -17 -8 -26t-24 -9h-11q-16 0 -24 11t-8 31v266q0 20 10.5 31t29.5 11h106q68 0 103.5 -27.5t35.5 -82.5q0 -35 -17.5 -61t-48.5 -36q-18 -6 -27 -7l89 -108
q2 -3 -4 -10t-16.5 -13t-21.5 -6q-12 0 -25 7zM388 328q31 0 48 14t17 38q0 52 -68 52h-68v-104h71z" />
    <glyph glyph-name="macron" unicode="&#xaf;" horiz-adv-x="374" 
d="M40 625v6q0 18 13 27.5t37 9.5h194q24 0 37 -9.5t13 -27.5v-6q0 -39 -50 -39h-194q-50 0 -50 39z" />
    <glyph glyph-name="degree" unicode="&#xb0;" horiz-adv-x="399" 
d="M43 502q0 44 20.5 79.5t56.5 55.5t81 20q68 0 111.5 -43.5t43.5 -110.5v-9q0 -44 -20.5 -79.5t-56.5 -55.5t-81 -20q-68 0 -111.5 43.5t-43.5 110.5v9zM286 503q0 39 -25.5 65t-61.5 26q-37 0 -61.5 -25.5t-24.5 -64.5v-11q0 -39 25.5 -65t62.5 -26q36 0 60.5 25.5
t24.5 64.5v11z" />
    <glyph glyph-name="plusminus" unicode="&#xb1;" horiz-adv-x="600" 
d="M258 164v131h-130q-43 0 -43 37v6q0 37 43 37h130v128q0 43 38 43h7q38 0 38 -43v-128h130q43 0 43 -37v-6q0 -37 -43 -37h-130v-131q0 -43 -38 -43h-7q-38 0 -38 43zM75 37v8q0 37 43 37h363q43 0 43 -37v-8q0 -37 -43 -37h-363q-43 0 -43 37z" />
    <glyph glyph-name="two.sups" unicode="&#xb2;" 
d="M44.5 396q-10.5 9 -10.5 32v17q0 50 27.5 76.5t83.5 52.5q7 4 33 16t38 25t12 28q0 23 -16.5 36.5t-45.5 13.5q-33 0 -51.5 -18.5t-25.5 -46.5q-1 -2 -15.5 -0.5t-26.5 10t-12 26.5q0 17 9 33.5t27 29.5q38 30 101 30t98 -29.5t35 -82.5q0 -45 -26 -68.5t-77 -45.5
q-8 -3 -34.5 -14.5t-42 -23.5t-21.5 -27q-2 -5 -4 -13h171q38 0 38 -31v-3q0 -17 -9 -24.5t-29 -7.5h-188q-28 0 -38.5 9z" />
    <glyph glyph-name="three.sups" unicode="&#xb3;" 
d="M56 407q-17 12 -26.5 26.5t-9.5 28.5q0 18 10.5 27.5t23.5 11.5t14 -1q8 -28 31.5 -43t57.5 -15t55 14.5t21 38.5q0 25 -18 38t-51 13h-20q-37 0 -37 27v5q0 27 36 27h28q25 0 40.5 12t15.5 31q0 21 -20 34t-51 13q-33 0 -52 -15t-28 -38q-1 -2 -13.5 0t-23 11.5
t-10.5 26.5q0 29 35 53q38 24 94 24q69 0 104.5 -26t35.5 -74q0 -58 -62 -76q34 -11 52 -34.5t18 -56.5q0 -52 -38.5 -81t-109.5 -29q-62 0 -102 27z" />
    <glyph glyph-name="acute" unicode="&#xb4;" horiz-adv-x="250" 
d="M30 560q0 11 23 52t56.5 74.5t67.5 33.5q20 0 31.5 -12.5t11.5 -32.5q0 -33 -38.5 -60t-85 -43.5t-58.5 -16.5q-8 0 -8 5z" />
    <glyph glyph-name="uni00B5" unicode="&#xb5;" horiz-adv-x="565" 
d="M492.5 475q11.5 -11 11.5 -37v-431q0 -3 -11 -7t-25 -4q-41 0 -56 40q-6 18 -7 29q-20 -34 -51 -55.5t-71 -21.5q-45 0 -76.5 18.5t-47.5 47.5v-203q0 -47 -44 -47h-10q-44 0 -44 47v587q0 48 43 48h11q21 0 32.5 -11t11.5 -37v-264q0 -44 34 -72t89 -28q44 0 76 23
t48 62v279q0 48 43 48h11q21 0 32.5 -11z" />
    <glyph glyph-name="paragraph" unicode="&#xb6;" horiz-adv-x="620" 
d="M473 616q0 36 33 36h11q35 0 35 -36v-585q0 -36 -35 -36h-11q-33 0 -33 36v585zM338 285h-75q-115 0 -175 45.5t-60 134.5q0 90 58.5 137.5t172.5 47.5h113q20 0 32 -12t12 -32v-575q0 -36 -33 -36h-11q-17 0 -25.5 10t-8.5 26v254z" />
    <glyph glyph-name="periodcentered" unicode="&#xb7;" horiz-adv-x="232" 
d="M54 237v12q0 26 14 40.5t40 14.5h14q27 0 41 -14.5t14 -40.5v-12q0 -53 -55 -53h-14q-54 0 -54 53z" />
    <glyph glyph-name="cedilla" unicode="&#xb8;" horiz-adv-x="274" 
d="M59 -188.5q-29 22.5 -29 51.5q0 16 9 24t22 10q28 -37 64 -37q21 0 35 12t14 33q0 27 -23.5 54.5t-51.5 41.5l55 11q45 -23 67.5 -56t22.5 -70q0 -47 -33 -72t-78 -25t-74 22.5z" />
    <glyph glyph-name="one.sups" unicode="&#xb9;" 
d="M43 419v1q0 34 37 34h63v199q-20 -17 -47 -17q-23 0 -39 13q-18 15 -18 35q0 12 5 21.5t11 14.5t8 4q16 -16 38 -16q20 0 35.5 12.5t18.5 32.5h27q36 0 36 -38v-261h50q38 0 38 -34v-1q0 -32 -38 -32h-188q-37 0 -37 32z" />
    <glyph glyph-name="ordmasculine" unicode="&#xba;" horiz-adv-x="478" 
d="M135.5 280.5q-45.5 26.5 -71.5 72.5t-26 103q0 56 26.5 102.5t73 74t102.5 27.5q57 0 102.5 -26.5t71.5 -73t26 -103.5q0 -56 -26.5 -102.5t-72.5 -73.5t-102 -27q-58 0 -103.5 26.5zM326 363.5q34 37.5 34 93.5t-34.5 93.5t-85.5 37.5q-52 0 -87 -37.5t-35 -93.5
q0 -55 35 -93t87 -38t86 37.5z" />
    <glyph glyph-name="guillemotright" unicode="&#xbb;" horiz-adv-x="519" 
d="M201 336q28 -29 49.5 -57.5t21.5 -34.5t-21.5 -34.5t-49.5 -57.5q-78 -80 -120 -80h-1q-17 0 -26.5 10t-9.5 25v3q0 23 47 62q33 27 100 73q-59 39 -100 73q-47 39 -47 60v4q0 15 9.5 24.5t26.5 9.5h1q42 0 120 -80zM354 379q29 -20 60 -52q26 -26 45.5 -51.5t19.5 -31.5
t-19.5 -31.5t-45.5 -51.5q-72 -72 -110 -72h-1q-14 0 -23 9.5t-9 22.5v2q0 22 41 56q35 30 89 66q-6 4 -37 25t-52 40q-41 38 -41 56v1q0 14 8.5 23t23.5 9h1q21 0 50 -20z" />
    <glyph glyph-name="onequarter" unicode="&#xbc;" horiz-adv-x="792" 
d="M43 319v1q0 34 37 34h63v199q-20 -17 -47 -17q-23 0 -39 13q-18 15 -18 35q0 12 5 21.5t11 14.5t8 4q16 -16 38 -16q20 0 35.5 12.5t18.5 32.5h27q36 0 36 -38v-261h50q38 0 38 -34v-1q0 -32 -38 -32h-188q-37 0 -37 32zM170.5 -29q-9.5 2 -17 9t-7.5 20t4.5 23t18.5 29
l45 54q157 189 162 196q77 95 264 332q2 2 11 0t17 -8.5t8 -19.5q0 -22 -25 -52l-63 -77q-117 -142 -143 -175q-77 -95 -263 -331q-2 -2 -11.5 0zM657.5 6q-8.5 10 -8.5 28v56h-134q-22 0 -34.5 9.5t-12.5 24.5v14q1 10 5.5 20t12.5 23l110 154q11 19 24 25t44 6t43.5 -11.5
t12.5 -40.5v-163h29q19 0 27 -7t8 -22v-3q0 -16 -8 -22.5t-27 -6.5h-29v-56q0 -38 -34 -38h-4q-16 0 -24.5 10zM652 150l-1 160l-114 -160h115z" />
    <glyph glyph-name="onehalf" unicode="&#xbd;" horiz-adv-x="822" 
d="M43 319v1q0 34 37 34h63v199q-20 -17 -47 -17q-23 0 -39 13q-18 15 -18 35q0 12 5 21.5t11 14.5t8 4q16 -16 38 -16q20 0 35.5 12.5t18.5 32.5h27q36 0 36 -38v-261h50q38 0 38 -34v-1q0 -32 -38 -32h-188q-37 0 -37 32zM170.5 -29q-9.5 2 -17 9t-7.5 20t4.5 23t18.5 29
l45 54q157 189 162 196q77 95 264 332q2 2 11 0t17 -8.5t8 -19.5q0 -22 -25 -52l-63 -77q-117 -142 -143 -175q-77 -95 -263 -331q-2 -2 -11.5 0zM530.5 9q-10.5 9 -10.5 32v17q0 50 27.5 76.5t83.5 52.5q7 4 33 16t38 25t12 28q0 23 -16.5 36.5t-45.5 13.5
q-33 0 -51.5 -18.5t-25.5 -46.5q-1 -2 -15.5 -0.5t-26.5 10t-12 26.5q0 17 9 33.5t27 29.5q38 30 101 30t98 -29.5t35 -82.5q0 -45 -26 -68.5t-77 -45.5q-8 -3 -34.5 -14.5t-42 -23.5t-21.5 -27q-2 -5 -4 -13h171q38 0 38 -31v-3q0 -17 -9 -24.5t-29 -7.5h-188
q-28 0 -38.5 9z" />
    <glyph glyph-name="threequarters" unicode="&#xbe;" horiz-adv-x="772" 
d="M56 307q-17 12 -26.5 26.5t-9.5 28.5q0 18 10.5 27.5t23.5 11.5t14 -1q8 -28 31.5 -43t57.5 -15t55 14.5t21 38.5q0 25 -18 38t-51 13h-20q-37 0 -37 27v5q0 27 36 27h28q25 0 40.5 12t15.5 31q0 21 -20 34t-51 13q-33 0 -52 -15t-28 -38q-1 -2 -13.5 0t-23 11.5
t-10.5 26.5q0 29 35 53q38 24 94 24q69 0 104.5 -26t35.5 -74q0 -58 -62 -76q34 -11 52 -34.5t18 -56.5q0 -52 -38.5 -81t-109.5 -29q-62 0 -102 27zM150.5 -29q-9.5 2 -17 9t-7.5 20t4.5 23t18.5 29l45 54q157 189 162 196q77 95 264 332q2 2 11 0t17 -8.5t8 -19.5
q0 -22 -25 -52l-63 -77q-117 -142 -143 -175q-77 -95 -263 -331q-2 -2 -11.5 0zM637.5 6q-8.5 10 -8.5 28v56h-134q-22 0 -34.5 9.5t-12.5 24.5v14q1 10 5.5 20t12.5 23l110 154q11 19 24 25t44 6t43.5 -11.5t12.5 -40.5v-163h29q19 0 27 -7t8 -22v-3q0 -16 -8 -22.5
t-27 -6.5h-29v-56q0 -38 -34 -38h-4q-16 0 -24.5 10zM632 150l-1 160l-114 -160h115z" />
    <glyph glyph-name="questiondown" unicode="&#xbf;" horiz-adv-x="479" 
d="M214 547.5q-14 14.5 -14 40.5v12q0 26 14 40t41 14h14q26 0 40 -14t14 -40v-12q0 -26 -14 -40.5t-40 -14.5h-14q-27 0 -41 14.5zM124 9.5q-47 21.5 -72.5 60t-25.5 88.5q0 55 24.5 86.5t72.5 63.5q35 23 53.5 37.5t32 38t14.5 56.5q3 22 41 22q20 0 31.5 -8.5t10.5 -25.5
q-2 -63 -26.5 -98.5t-66.5 -62.5q-6 -4 -11 -7.5t-8 -5.5q-36 -22 -53 -40t-17 -48q0 -43 30 -68.5t83 -25.5q66 0 100 36.5t42 90.5q1 3 20 -0.5t34.5 -16t15.5 -36.5t-13.5 -51.5t-38.5 -50.5q-61 -56 -162 -56q-64 0 -111 21.5z" />
    <glyph glyph-name="Agrave" unicode="&#xc0;" horiz-adv-x="630" 
d="M41.5 0.5q-13.5 5.5 -22 13t-6.5 12.5l230 594q6 17 22 25t49 8q34 0 49.5 -8t21.5 -25l232 -594q2 -4 -6.5 -11.5t-22.5 -13.5t-28 -6q-43 0 -61 48l-57 147h-259l-57 -148q-17 -47 -57 -47q-14 0 -27.5 5.5zM416 273l-104 274l-104 -274h208zM306.5 717
q-48.5 15 -89 41t-40.5 59q0 19 11.5 31t32.5 12q34 0 69 -32t60 -71t25 -50q0 -5 -8 -5q-12 0 -60.5 15z" />
    <glyph glyph-name="Aacute" unicode="&#xc1;" horiz-adv-x="630" 
d="M41.5 0.5q-13.5 5.5 -22 13t-6.5 12.5l230 594q6 17 22 25t49 8q34 0 49.5 -8t21.5 -25l232 -594q2 -4 -6.5 -11.5t-22.5 -13.5t-28 -6q-43 0 -61 48l-57 147h-259l-57 -148q-17 -47 -57 -47q-14 0 -27.5 5.5zM416 273l-104 274l-104 -274h208zM236 707q0 11 25 50t60 71
t69 32q21 0 32.5 -12t11.5 -31q0 -33 -40.5 -59t-89 -41t-60.5 -15q-8 0 -8 5z" />
    <glyph glyph-name="Acircumflex" unicode="&#xc2;" horiz-adv-x="630" 
d="M41.5 0.5q-13.5 5.5 -22 13t-6.5 12.5l230 594q6 17 22 25t49 8q34 0 49.5 -8t21.5 -25l232 -594q2 -4 -6.5 -11.5t-22.5 -13.5t-28 -6q-43 0 -61 48l-57 147h-259l-57 -148q-17 -47 -57 -47q-14 0 -27.5 5.5zM416 273l-104 274l-104 -274h208zM177.5 705.5
q-10.5 8.5 -10.5 22.5q0 25 30.5 56.5t68 57.5t49.5 28q12 -2 49.5 -28t68 -57.5t30.5 -56.5q0 -14 -9.5 -22.5t-24.5 -8.5q-22 0 -48.5 23.5t-65.5 76.5q-41 -55 -66 -77.5t-46 -22.5q-15 0 -25.5 8.5z" />
    <glyph glyph-name="Atilde" unicode="&#xc3;" horiz-adv-x="630" 
d="M41.5 0.5q-13.5 5.5 -22 13t-6.5 12.5l230 594q6 17 22 25t49 8q34 0 49.5 -8t21.5 -25l232 -594q2 -4 -6.5 -11.5t-22.5 -13.5t-28 -6q-43 0 -61 48l-57 147h-259l-57 -148q-17 -47 -57 -47q-14 0 -27.5 5.5zM416 273l-104 274l-104 -274h208zM164 726q-9 11 -9 30
q0 20 9.5 42t29 37t46.5 15q30 0 66 -22q30 -18 74 -59q24 75 62 75q15 0 24 -11q9 -10 9 -31q0 -20 -10 -41.5t-29.5 -36.5t-46.5 -15q-32 0 -65 21q-29 19 -74 60q-26 -75 -62 -75q-15 0 -24 11z" />
    <glyph glyph-name="Adieresis" unicode="&#xc4;" horiz-adv-x="630" 
d="M41.5 0.5q-13.5 5.5 -22 13t-6.5 12.5l230 594q6 17 22 25t49 8q34 0 49.5 -8t21.5 -25l232 -594q2 -4 -6.5 -11.5t-22.5 -13.5t-28 -6q-43 0 -61 48l-57 147h-259l-57 -148q-17 -47 -57 -47q-14 0 -27.5 5.5zM416 273l-104 274l-104 -274h208zM179 723.5
q-15 14.5 -15 41.5t14.5 41.5t40.5 14.5q57 0 57 -56q0 -27 -14.5 -41.5t-41.5 -14.5q-26 0 -41 14.5zM369 723.5q-15 14.5 -15 41.5t14.5 41.5t40.5 14.5q57 0 57 -56q0 -27 -14.5 -41.5t-41.5 -14.5q-26 0 -41 14.5z" />
    <glyph glyph-name="Aring" unicode="&#xc5;" horiz-adv-x="630" 
d="M41.5 0.5q-13.5 5.5 -22 13t-6.5 12.5l230 594q8 23 34 29q-38 11 -61 41t-23 70q0 50 35 83t88 33q54 0 88 -32.5t34 -83.5q0 -40 -24 -70t-63 -41q14 -4 21.5 -10.5t12.5 -18.5l232 -594q2 -4 -6.5 -11.5t-22.5 -13.5t-28 -6q-43 0 -61 48l-57 147h-259l-57 -148
q-17 -47 -57 -47q-14 0 -27.5 5.5zM361 716.5q18 17.5 18 43.5q0 27 -18.5 45t-45.5 18t-45 -18t-18 -45q0 -25 18.5 -43t44.5 -18q28 0 46 17.5zM416 273l-104 274l-104 -274h208z" />
    <glyph glyph-name="AE" unicode="&#xc6;" horiz-adv-x="858" 
d="M41.5 0.5q-13.5 5.5 -22 13t-6.5 12.5l226 582q7 19 22 29t44 10h465q24 0 36 -11t12 -32v-6q0 -43 -48 -43h-364l70 -180h220q48 0 48 -41v-5q0 -42 -48 -42h-184l76 -196h188q47 0 47 -41v-5q0 -45 -47 -45h-204q-33 0 -50 11t-28 41l-52 138h-259l-57 -148
q-18 -47 -57 -47q-14 0 -27.5 5.5zM417 273l-105 274l-104 -274h209z" />
    <glyph glyph-name="Ccedilla" unicode="&#xc7;" horiz-adv-x="657" 
d="M261.5 -212q-24.5 12 -38.5 30t-14 35q0 36 32 39l13 -13t23 -16.5t27 -6.5q25 0 40.5 11t15.5 36t-28.5 54.5t-61.5 43.5q-104 29 -165 115t-61 206q0 98 42 175t116.5 120t170.5 43q109 0 183 -52q29 -20 45 -43.5t16 -41.5q0 -22 -13.5 -35t-29.5 -18.5t-17 -2.5
q-27 48 -77 74t-106 26q-65 0 -115.5 -30.5t-79 -86t-28.5 -126.5q0 -70 29 -126t80.5 -87t115.5 -31q66 0 116.5 30.5t70.5 82.5q1 3 18.5 -2t31.5 -18t14 -35q0 -18 -16.5 -43.5t-45.5 -48.5q-53 -40 -130 -54q-28 -5 -57 -5q26 -20 43.5 -48.5t17.5 -62.5q0 -50 -36 -75
t-86 -25q-31 0 -55.5 12z" />
    <glyph glyph-name="Egrave" unicode="&#xc8;" horiz-adv-x="587" 
d="M84 15.5q-15 15.5 -15 41.5v532q0 26 15 42t40 16h375q24 0 36 -11t12 -32v-6q0 -43 -48 -43h-327v-181h253q48 0 48 -41v-3q0 -43 -48 -43h-253v-196h333q47 0 47 -41v-5q0 -45 -47 -45h-381q-25 0 -40 15.5zM301.5 717q-48.5 15 -89 41t-40.5 59q0 19 11.5 31t32.5 12
q34 0 69 -32t60 -71t25 -50q0 -5 -8 -5q-12 0 -60.5 15z" />
    <glyph glyph-name="Eacute" unicode="&#xc9;" horiz-adv-x="587" 
d="M84 15.5q-15 15.5 -15 41.5v532q0 26 15 42t40 16h375q24 0 36 -11t12 -32v-6q0 -43 -48 -43h-327v-181h253q48 0 48 -41v-3q0 -43 -48 -43h-253v-196h333q47 0 47 -41v-5q0 -45 -47 -45h-381q-25 0 -40 15.5zM231 707q0 11 25 50t60 71t69 32q21 0 32.5 -12t11.5 -31
q0 -33 -40.5 -59t-89 -41t-60.5 -15q-8 0 -8 5z" />
    <glyph glyph-name="Ecircumflex" unicode="&#xca;" horiz-adv-x="587" 
d="M84 15.5q-15 15.5 -15 41.5v532q0 26 15 42t40 16h375q24 0 36 -11t12 -32v-6q0 -43 -48 -43h-327v-181h253q48 0 48 -41v-3q0 -43 -48 -43h-253v-196h333q47 0 47 -41v-5q0 -45 -47 -45h-381q-25 0 -40 15.5zM172.5 705.5q-10.5 8.5 -10.5 22.5q0 25 30.5 56.5t68 57.5
t49.5 28q12 -2 49.5 -28t68 -57.5t30.5 -56.5q0 -14 -9.5 -22.5t-24.5 -8.5q-22 0 -48.5 23.5t-65.5 76.5q-41 -55 -66 -77.5t-46 -22.5q-15 0 -25.5 8.5z" />
    <glyph glyph-name="Edieresis" unicode="&#xcb;" horiz-adv-x="587" 
d="M84 15.5q-15 15.5 -15 41.5v532q0 26 15 42t40 16h375q24 0 36 -11t12 -32v-6q0 -43 -48 -43h-327v-181h253q48 0 48 -41v-3q0 -43 -48 -43h-253v-196h333q47 0 47 -41v-5q0 -45 -47 -45h-381q-25 0 -40 15.5zM174 723.5q-15 14.5 -15 41.5t14.5 41.5t40.5 14.5
q57 0 57 -56q0 -27 -14.5 -41.5t-41.5 -14.5q-26 0 -41 14.5zM364 723.5q-15 14.5 -15 41.5t14.5 41.5t40.5 14.5q57 0 57 -56q0 -27 -14.5 -41.5t-41.5 -14.5q-26 0 -41 14.5z" />
    <glyph glyph-name="Igrave" unicode="&#xcc;" horiz-adv-x="259" 
d="M78 604q0 47 44 47h14q45 0 45 -47v-561q0 -47 -45 -47h-14q-44 0 -44 47v561zM120.5 717q-48.5 15 -89 41t-40.5 59q0 19 11.5 31t32.5 12q34 0 69 -32t60 -71t25 -50q0 -5 -8 -5q-12 0 -60.5 15z" />
    <glyph glyph-name="Iacute" unicode="&#xcd;" horiz-adv-x="259" 
d="M78 604q0 47 44 47h14q45 0 45 -47v-561q0 -47 -45 -47h-14q-44 0 -44 47v561zM50 707q0 11 25 50t60 71t69 32q21 0 32.5 -12t11.5 -31q0 -33 -40.5 -59t-89 -41t-60.5 -15q-8 0 -8 5z" />
    <glyph glyph-name="Icircumflex" unicode="&#xce;" horiz-adv-x="259" 
d="M78 604q0 47 44 47h14q45 0 45 -47v-561q0 -47 -45 -47h-14q-44 0 -44 47v561zM-8.5 705.5q-10.5 8.5 -10.5 22.5q0 25 30.5 56.5t68 57.5t49.5 28q12 -2 49.5 -28t68 -57.5t30.5 -56.5q0 -14 -9.5 -22.5t-24.5 -8.5q-22 0 -48.5 23.5t-65.5 76.5q-41 -55 -66 -77.5
t-46 -22.5q-15 0 -25.5 8.5z" />
    <glyph glyph-name="Idieresis" unicode="&#xcf;" horiz-adv-x="259" 
d="M78 604q0 47 44 47h14q45 0 45 -47v-561q0 -47 -45 -47h-14q-44 0 -44 47v561zM-7 723.5q-15 14.5 -15 41.5t14.5 41.5t40.5 14.5q57 0 57 -56q0 -27 -14.5 -41.5t-41.5 -14.5q-26 0 -41 14.5zM183 723.5q-15 14.5 -15 41.5t14.5 41.5t40.5 14.5q57 0 57 -56
q0 -27 -14.5 -41.5t-41.5 -14.5q-26 0 -41 14.5z" />
    <glyph glyph-name="Eth" unicode="&#xd0;" horiz-adv-x="721" 
d="M121.5 17q-16.5 17 -16.5 40v227h-53q-39 0 -39 36v9q0 35 39 35h53v225q0 26 15.5 42t39.5 16h162q109 0 189 -39t123 -111.5t43 -171.5q0 -100 -44 -173t-125 -112.5t-191 -39.5h-155q-24 0 -40.5 17zM323 91q120 0 185.5 61t65.5 172q0 110 -66 171t-184 61h-117v-192
h175q40 0 40 -35v-9q0 -36 -40 -36h-175v-193h116z" />
    <glyph glyph-name="Ntilde" unicode="&#xd1;" horiz-adv-x="683" 
d="M69 43v550q0 27 12.5 42.5t36.5 15.5h17q22 0 34 -8.5t28 -30.5l320 -454v446q0 47 43 47h12q42 0 42 -47v-550q0 -27 -13 -42.5t-35 -15.5h-8q-22 0 -32 6.5t-23 24.5l-337 477v-461q0 -47 -44 -47h-11q-42 0 -42 47zM190 726q-9 11 -9 30q0 20 9.5 42t29 37t46.5 15
q30 0 66 -22q30 -18 74 -59q24 75 62 75q15 0 24 -11q9 -10 9 -31q0 -20 -10 -41.5t-29.5 -36.5t-46.5 -15q-32 0 -65 21q-29 19 -74 60q-26 -75 -62 -75q-15 0 -24 11z" />
    <glyph glyph-name="Ograve" unicode="&#xd2;" horiz-adv-x="741" 
d="M200.5 29.5q-74.5 42.5 -116 119t-41.5 173.5q0 98 42 175t117 120t169 43q95 0 169.5 -42.5t116 -119t41.5 -174.5t-42 -174.5t-116.5 -119.5t-169.5 -43t-169.5 42.5zM486.5 109q50.5 31 79 86.5t28.5 126.5t-28.5 127.5t-79.5 88t-116 31.5t-115.5 -31t-79 -86.5
t-28.5 -127.5q0 -71 28.5 -127t79.5 -87.5t116 -31.5t115.5 31zM361.5 717q-48.5 15 -89 41t-40.5 59q0 19 11.5 31t32.5 12q34 0 69 -32t60 -71t25 -50q0 -5 -8 -5q-12 0 -60.5 15z" />
    <glyph glyph-name="Oacute" unicode="&#xd3;" horiz-adv-x="741" 
d="M200.5 29.5q-74.5 42.5 -116 119t-41.5 173.5q0 98 42 175t117 120t169 43q95 0 169.5 -42.5t116 -119t41.5 -174.5t-42 -174.5t-116.5 -119.5t-169.5 -43t-169.5 42.5zM486.5 109q50.5 31 79 86.5t28.5 126.5t-28.5 127.5t-79.5 88t-116 31.5t-115.5 -31t-79 -86.5
t-28.5 -127.5q0 -71 28.5 -127t79.5 -87.5t116 -31.5t115.5 31zM291 707q0 11 25 50t60 71t69 32q21 0 32.5 -12t11.5 -31q0 -33 -40.5 -59t-89 -41t-60.5 -15q-8 0 -8 5z" />
    <glyph glyph-name="Ocircumflex" unicode="&#xd4;" horiz-adv-x="741" 
d="M200.5 29.5q-74.5 42.5 -116 119t-41.5 173.5q0 98 42 175t117 120t169 43q95 0 169.5 -42.5t116 -119t41.5 -174.5t-42 -174.5t-116.5 -119.5t-169.5 -43t-169.5 42.5zM486.5 109q50.5 31 79 86.5t28.5 126.5t-28.5 127.5t-79.5 88t-116 31.5t-115.5 -31t-79 -86.5
t-28.5 -127.5q0 -71 28.5 -127t79.5 -87.5t116 -31.5t115.5 31zM232.5 705.5q-10.5 8.5 -10.5 22.5q0 25 30.5 56.5t68 57.5t49.5 28q12 -2 49.5 -28t68 -57.5t30.5 -56.5q0 -14 -9.5 -22.5t-24.5 -8.5q-22 0 -48.5 23.5t-65.5 76.5q-41 -55 -66 -77.5t-46 -22.5
q-15 0 -25.5 8.5z" />
    <glyph glyph-name="Otilde" unicode="&#xd5;" horiz-adv-x="741" 
d="M200.5 29.5q-74.5 42.5 -116 119t-41.5 173.5q0 98 42 175t117 120t169 43q95 0 169.5 -42.5t116 -119t41.5 -174.5t-42 -174.5t-116.5 -119.5t-169.5 -43t-169.5 42.5zM486.5 109q50.5 31 79 86.5t28.5 126.5t-28.5 127.5t-79.5 88t-116 31.5t-115.5 -31t-79 -86.5
t-28.5 -127.5q0 -71 28.5 -127t79.5 -87.5t116 -31.5t115.5 31zM219 726q-9 11 -9 30q0 20 9.5 42t29 37t46.5 15q30 0 66 -22q30 -18 74 -59q24 75 62 75q15 0 24 -11q9 -10 9 -31q0 -20 -10 -41.5t-29.5 -36.5t-46.5 -15q-32 0 -65 21q-29 19 -74 60q-26 -75 -62 -75
q-15 0 -24 11z" />
    <glyph glyph-name="Odieresis" unicode="&#xd6;" horiz-adv-x="741" 
d="M200.5 29.5q-74.5 42.5 -116 119t-41.5 173.5q0 98 42 175t117 120t169 43q95 0 169.5 -42.5t116 -119t41.5 -174.5t-42 -174.5t-116.5 -119.5t-169.5 -43t-169.5 42.5zM486.5 109q50.5 31 79 86.5t28.5 126.5t-28.5 127.5t-79.5 88t-116 31.5t-115.5 -31t-79 -86.5
t-28.5 -127.5q0 -71 28.5 -127t79.5 -87.5t116 -31.5t115.5 31zM234 723.5q-15 14.5 -15 41.5t14.5 41.5t40.5 14.5q57 0 57 -56q0 -27 -14.5 -41.5t-41.5 -14.5q-26 0 -41 14.5zM424 723.5q-15 14.5 -15 41.5t14.5 41.5t40.5 14.5q57 0 57 -56q0 -27 -14.5 -41.5
t-41.5 -14.5q-26 0 -41 14.5z" />
    <glyph glyph-name="multiply" unicode="&#xd7;" horiz-adv-x="546" 
d="M95 83q-12 11 -12 25q0 16 16 32l120 122l-120 120q-16 16 -16 32q0 14 12 26l6 6q11 13 26 13q16 0 32 -18l116 -122l115 122q18 18 33 18q13 0 26 -13l6 -6q12 -12 12 -26q0 -16 -16 -32l-120 -120l120 -122q16 -16 16 -31q0 -13 -13 -26l-6 -6q-12 -12 -25 -12
q-16 0 -33 17l-115 122l-116 -122q-16 -17 -32 -17q-14 0 -26 12z" />
    <glyph glyph-name="Oslash" unicode="&#xd8;" horiz-adv-x="741" 
d="M679 447q19 -57 19 -123q0 -98 -42 -174.5t-116.5 -119.5t-169.5 -43q-116 0 -200 62l-83 -92q-3 -3 -14.5 2.5t-21 16t-9.5 23.5q0 21 24 49l49 54q-35 43 -53.5 99t-18.5 121q0 98 42 175t117 120t169 43q113 0 197 -60l76 84q2 3 13.5 -2.5t21 -16t9.5 -23.5
q0 -22 -23 -49l-41 -45q36 -44 55 -101zM254.5 538q-50.5 -31 -79 -86.5t-28.5 -127.5q0 -85 40 -147l315 349q-55 43 -132 43q-65 0 -115.5 -31zM486.5 109q50.5 31 79 86.5t28.5 126.5q0 87 -42 151l-315 -351q57 -44 134 -44q65 0 115.5 31z" />
    <glyph glyph-name="Ugrave" unicode="&#xd9;" horiz-adv-x="650" 
d="M61 604q0 23 11.5 35t32.5 12h14q45 0 45 -47v-338q0 -92 40.5 -139.5t120.5 -47.5q82 0 121.5 46.5t39.5 141.5v337q0 47 44 47h16q43 0 43 -47v-339q0 -135 -68 -206t-197 -71t-196 70t-67 205v341zM316.5 717q-48.5 15 -89 41t-40.5 59q0 19 11.5 31t32.5 12
q34 0 69 -32t60 -71t25 -50q0 -5 -8 -5q-12 0 -60.5 15z" />
    <glyph glyph-name="Uacute" unicode="&#xda;" horiz-adv-x="650" 
d="M61 604q0 23 11.5 35t32.5 12h14q45 0 45 -47v-338q0 -92 40.5 -139.5t120.5 -47.5q82 0 121.5 46.5t39.5 141.5v337q0 47 44 47h16q43 0 43 -47v-339q0 -135 -68 -206t-197 -71t-196 70t-67 205v341zM246 707q0 11 25 50t60 71t69 32q21 0 32.5 -12t11.5 -31
q0 -33 -40.5 -59t-89 -41t-60.5 -15q-8 0 -8 5z" />
    <glyph glyph-name="Ucircumflex" unicode="&#xdb;" horiz-adv-x="650" 
d="M61 604q0 23 11.5 35t32.5 12h14q45 0 45 -47v-338q0 -92 40.5 -139.5t120.5 -47.5q82 0 121.5 46.5t39.5 141.5v337q0 47 44 47h16q43 0 43 -47v-339q0 -135 -68 -206t-197 -71t-196 70t-67 205v341zM187.5 705.5q-10.5 8.5 -10.5 22.5q0 25 30.5 56.5t68 57.5t49.5 28
q12 -2 49.5 -28t68 -57.5t30.5 -56.5q0 -14 -9.5 -22.5t-24.5 -8.5q-22 0 -48.5 23.5t-65.5 76.5q-41 -55 -66 -77.5t-46 -22.5q-15 0 -25.5 8.5z" />
    <glyph glyph-name="Udieresis" unicode="&#xdc;" horiz-adv-x="650" 
d="M61 604q0 23 11.5 35t32.5 12h14q45 0 45 -47v-338q0 -92 40.5 -139.5t120.5 -47.5q82 0 121.5 46.5t39.5 141.5v337q0 47 44 47h16q43 0 43 -47v-339q0 -135 -68 -206t-197 -71t-196 70t-67 205v341zM189 723.5q-15 14.5 -15 41.5t14.5 41.5t40.5 14.5q57 0 57 -56
q0 -27 -14.5 -41.5t-41.5 -14.5q-26 0 -41 14.5zM379 723.5q-15 14.5 -15 41.5t14.5 41.5t40.5 14.5q57 0 57 -56q0 -27 -14.5 -41.5t-41.5 -14.5q-26 0 -41 14.5z" />
    <glyph glyph-name="Yacute" unicode="&#xdd;" horiz-adv-x="573" 
d="M235 43v222l-229 344q-2 4 5 14.5t22.5 19t37.5 8.5q30 0 50 -36l166 -264l166 264q22 36 51 36q20 0 35 -8.5t22 -19t5 -14.5l-228 -344v-222q0 -47 -45 -47h-14q-44 0 -44 47zM207 707q0 11 25 50t60 71t69 32q21 0 32.5 -12t11.5 -31q0 -33 -40.5 -59t-89 -41
t-60.5 -15q-8 0 -8 5z" />
    <glyph glyph-name="Thorn" unicode="&#xde;" horiz-adv-x="575" 
d="M69 43v561q0 47 43 47h15q45 0 45 -47v-73h118q121 0 186 -53t65 -151q0 -101 -64.5 -153.5t-190.5 -52.5h-114v-78q0 -47 -45 -47h-15q-43 0 -43 47zM289 204q74 0 112 31t38 90q0 121 -148 121h-119v-242h117z" />
    <glyph glyph-name="uni1E9E" unicode="&#xdf;" horiz-adv-x="560" 
d="M501.5 294.5q44.5 -42.5 44.5 -110.5q0 -88 -48 -142.5t-136 -54.5q-33 0 -61.5 6.5t-46.5 17.5q-17 10 -26 24t-9 29q0 13 6.5 24t14 17.5t9.5 5.5q18 -21 41 -32t58 -11q104 0 104 112q0 45 -31 72.5t-98 53.5q-33 13 -46 25.5t-13 37.5q0 16 8 30.5t13 19.5l120 146
h-112q-39 0 -69 -23.5t-47 -64.5t-17 -91v-343q0 -47 -45 -47h-10q-20 0 -32 11.5t-12 35.5v338q0 78 28.5 138t81.5 94t123 34h165q28 0 43 -15.5t15 -38.5q0 -24 -15 -45l-132 -177q87 -34 131.5 -76.5z" />
    <glyph glyph-name="uni1E9E" unicode="&#x1e9e;" horiz-adv-x="560" 
d="M501.5 294.5q44.5 -42.5 44.5 -110.5q0 -88 -48 -142.5t-136 -54.5q-33 0 -61.5 6.5t-46.5 17.5q-17 10 -26 24t-9 29q0 13 6.5 24t14 17.5t9.5 5.5q18 -21 41 -32t58 -11q104 0 104 112q0 45 -31 72.5t-98 53.5q-33 13 -46 25.5t-13 37.5q0 16 8 30.5t13 19.5l120 146
h-112q-39 0 -69 -23.5t-47 -64.5t-17 -91v-343q0 -47 -45 -47h-10q-20 0 -32 11.5t-12 35.5v338q0 78 28.5 138t81.5 94t123 34h165q28 0 43 -15.5t15 -38.5q0 -24 -15 -45l-132 -177q87 -34 131.5 -76.5z" />
    <glyph glyph-name="agrave" unicode="&#xe0;" horiz-adv-x="523" 
d="M112 247q79 39 244 42h13v10q0 55 -30.5 84t-88.5 29q-51 0 -85.5 -22.5t-52.5 -59.5q0 -2 -17 1.5t-30.5 14.5t-13.5 32q0 30 33 60q27 24 71 39.5t102 15.5q102 0 156 -50t54 -142v-295q0 -4 -11.5 -7.5t-24.5 -3.5q-46 0 -57 44q-4 18 -4 33q-28 -39 -73.5 -61
t-99.5 -22q-76 0 -120 37.5t-44 99.5q0 82 79 121zM369 227l-27 -1q-108 -4 -160 -26t-52 -70q0 -32 24 -51t67 -19q65 0 106.5 36.5t41.5 93.5v37zM275.5 571.5q-46.5 16.5 -85 43.5t-38.5 60q0 20 11.5 32.5t31.5 12.5q34 0 67.5 -33.5t56.5 -74.5t23 -52q0 -5 -8 -5
q-12 0 -58.5 16.5z" />
    <glyph glyph-name="aacute" unicode="&#xe1;" horiz-adv-x="523" 
d="M112 247q79 39 244 42h13v10q0 55 -30.5 84t-88.5 29q-51 0 -85.5 -22.5t-52.5 -59.5q0 -2 -17 1.5t-30.5 14.5t-13.5 32q0 30 33 60q27 24 71 39.5t102 15.5q102 0 156 -50t54 -142v-295q0 -4 -11.5 -7.5t-24.5 -3.5q-46 0 -57 44q-4 18 -4 33q-28 -39 -73.5 -61
t-99.5 -22q-76 0 -120 37.5t-44 99.5q0 82 79 121zM369 227l-27 -1q-108 -4 -160 -26t-52 -70q0 -32 24 -51t67 -19q65 0 106.5 36.5t41.5 93.5v37zM172 560q0 11 23 52t56.5 74.5t67.5 33.5q20 0 31.5 -12.5t11.5 -32.5q0 -33 -38.5 -60t-85 -43.5t-58.5 -16.5q-8 0 -8 5z
" />
    <glyph glyph-name="acircumflex" unicode="&#xe2;" horiz-adv-x="523" 
d="M112 247q79 39 244 42h13v10q0 55 -30.5 84t-88.5 29q-51 0 -85.5 -22.5t-52.5 -59.5q0 -2 -17 1.5t-30.5 14.5t-13.5 32q0 30 33 60q27 24 71 39.5t102 15.5q102 0 156 -50t54 -142v-295q0 -4 -11.5 -7.5t-24.5 -3.5q-46 0 -57 44q-4 18 -4 33q-28 -39 -73.5 -61
t-99.5 -22q-76 0 -120 37.5t-44 99.5q0 82 79 121zM369 227l-27 -1q-108 -4 -160 -26t-52 -70q0 -32 24 -51t67 -19q65 0 106.5 36.5t41.5 93.5v37zM124.5 564q-10.5 9 -10.5 23q0 26 29.5 59.5t65.5 60.5t48 29q12 -2 48 -29t65.5 -60.5t29.5 -59.5q0 -14 -10 -23t-24 -9
q-21 0 -46 25t-63 82q-40 -59 -63.5 -83t-43.5 -24q-15 0 -25.5 9z" />
    <glyph glyph-name="atilde" unicode="&#xe3;" horiz-adv-x="523" 
d="M112 247q79 39 244 42h13v10q0 55 -30.5 84t-88.5 29q-51 0 -85.5 -22.5t-52.5 -59.5q0 -2 -17 1.5t-30.5 14.5t-13.5 32q0 30 33 60q27 24 71 39.5t102 15.5q102 0 156 -50t54 -142v-295q0 -4 -11.5 -7.5t-24.5 -3.5q-46 0 -57 44q-4 18 -4 33q-28 -39 -73.5 -61
t-99.5 -22q-76 0 -120 37.5t-44 99.5q0 82 79 121zM369 227l-27 -1q-108 -4 -160 -26t-52 -70q0 -32 24 -51t67 -19q65 0 106.5 36.5t41.5 93.5v37zM111 583q-10 10 -10 27q0 40 24 70t58 30q28 0 66 -23q31 -19 69 -60q9 30 25.5 53.5t32.5 23.5q17 0 27 -10t10 -28
q0 -39 -24.5 -69t-57.5 -30q-35 0 -67 22t-68 61q-10 -31 -26 -54t-32 -23q-17 0 -27 10z" />
    <glyph glyph-name="adieresis" unicode="&#xe4;" horiz-adv-x="523" 
d="M112 247q79 39 244 42h13v10q0 55 -30.5 84t-88.5 29q-51 0 -85.5 -22.5t-52.5 -59.5q0 -2 -17 1.5t-30.5 14.5t-13.5 32q0 30 33 60q27 24 71 39.5t102 15.5q102 0 156 -50t54 -142v-295q0 -4 -11.5 -7.5t-24.5 -3.5q-46 0 -57 44q-4 18 -4 33q-28 -39 -73.5 -61
t-99.5 -22q-76 0 -120 37.5t-44 99.5q0 82 79 121zM369 227l-27 -1q-108 -4 -160 -26t-52 -70q0 -32 24 -51t67 -19q65 0 106.5 36.5t41.5 93.5v37zM126 592.5q-15 14.5 -15 41.5t14.5 41.5t40.5 14.5q57 0 57 -56q0 -27 -14.5 -41.5t-41.5 -14.5q-26 0 -41 14.5zM306 592.5
q-15 14.5 -15 41.5t14.5 41.5t40.5 14.5q57 0 57 -56q0 -27 -14.5 -41.5t-41.5 -14.5q-26 0 -41 14.5z" />
    <glyph glyph-name="aring" unicode="&#xe5;" horiz-adv-x="523" 
d="M112 247q79 39 244 42h13v10q0 55 -30.5 84t-88.5 29q-51 0 -85.5 -22.5t-52.5 -59.5q0 -2 -17 1.5t-30.5 14.5t-13.5 32q0 30 33 60q27 24 71 39.5t102 15.5q102 0 156 -50t54 -142v-295q0 -4 -11.5 -7.5t-24.5 -3.5q-46 0 -57 44q-4 18 -4 33q-28 -39 -73.5 -61
t-99.5 -22q-76 0 -120 37.5t-44 99.5q0 82 79 121zM369 227l-27 -1q-108 -4 -160 -26t-52 -70q0 -32 24 -51t67 -19q65 0 106.5 36.5t41.5 93.5v37zM167 569q-35 34 -35 85t36 85.5t90 34.5q55 0 89.5 -34t34.5 -86q0 -51 -35.5 -85t-89.5 -34q-55 0 -90 34zM304.5 607.5
q18.5 18.5 18.5 46.5q0 29 -19 48t-47 19t-47 -19t-19 -48q0 -27 19 -46t47 -19q29 0 47.5 18.5z" />
    <glyph glyph-name="ae" unicode="&#xe6;" horiz-adv-x="867" 
d="M77.5 26.5q-44.5 37.5 -44.5 99.5q0 82 79 121t244 42h13v10q0 55 -30.5 84.5t-88.5 29.5q-51 0 -85.5 -23t-52.5 -60q0 -2 -17 1.5t-30.5 14.5t-13.5 32q0 14 8.5 29.5t23.5 29.5q26 25 69 40.5t100 15.5q62 0 105.5 -22.5t66.5 -65.5q31 42 77 65t104 23
q69 0 121.5 -30.5t81.5 -85.5t29 -126v-8q-1 -16 -7.5 -22.5t-22.5 -6.5h-356q2 -18 4 -28q14 -55 57 -88t103 -33q58 0 94 21.5t58 58.5q1 2 14.5 -3t25 -16t11.5 -30q0 -21 -23 -46q-25 -27 -72.5 -45t-109.5 -18q-76 0 -130.5 30.5t-81.5 86.5q-26 -52 -80 -83.5
t-123 -31.5q-76 0 -120.5 37.5zM740 281q-4 63 -40 100t-95 37t-101 -38t-51 -99h287zM327.5 96.5q41.5 36.5 41.5 93.5v37l-27 -1q-108 -4 -160 -26t-52 -70q0 -32 24 -51t67 -19q65 0 106.5 36.5z" />
    <glyph glyph-name="ccedilla" unicode="&#xe7;" horiz-adv-x="517" 
d="M190.5 -212.5q-24.5 11.5 -38 29t-13.5 35.5q0 35 32 40l13.5 -13.5t23.5 -17.5t27 -7q24 0 39.5 12t15.5 37q0 24 -25 51t-55 43q-81 21 -129.5 87t-48.5 157q0 72 32.5 129.5t89.5 90t128 32.5q96 0 157 -50q24 -19 36.5 -42t12.5 -41t-13 -29t-28.5 -14.5t-17.5 -0.5
q-39 94 -145 94q-45 0 -81 -22t-56.5 -60.5t-20.5 -86.5q0 -49 20.5 -88t56.5 -61t81 -22q106 0 145 94q2 3 17.5 0t28.5 -14.5t13 -30.5q0 -17 -11.5 -37.5t-32.5 -39.5q-42 -39 -109 -50q-10 -2 -28 -4q60 -46 60 -111q0 -50 -35.5 -75.5t-85.5 -25.5q-31 0 -55.5 11.5z
" />
    <glyph glyph-name="egrave" unicode="&#xe8;" horiz-adv-x="540" 
d="M64 368.5q32 58.5 88 91.5t126 33q69 0 121 -30.5t81 -85.5t29 -126v-8q0 -16 -6.5 -22.5t-23.5 -6.5h-355q0 -6 2 -18q11 -59 54.5 -95t107.5 -36q58 0 94 21.5t57 58.5q2 2 15.5 -2.5t25 -16t11.5 -30.5q0 -16 -14 -35t-39 -35q-62 -39 -152 -39q-75 0 -132.5 31.5
t-89.5 88.5t-32 131q0 72 32 130.5zM373 381q-36 37 -96 37q-59 0 -101 -38.5t-51 -98.5h288q-4 63 -40 100zM288.5 571.5q-46.5 16.5 -85 43.5t-38.5 60q0 20 11.5 32.5t31.5 12.5q34 0 67.5 -33.5t56.5 -74.5t23 -52q0 -5 -8 -5q-12 0 -58.5 16.5z" />
    <glyph glyph-name="eacute" unicode="&#xe9;" horiz-adv-x="540" 
d="M64 368.5q32 58.5 88 91.5t126 33q69 0 121 -30.5t81 -85.5t29 -126v-8q0 -16 -6.5 -22.5t-23.5 -6.5h-355q0 -6 2 -18q11 -59 54.5 -95t107.5 -36q58 0 94 21.5t57 58.5q2 2 15.5 -2.5t25 -16t11.5 -30.5q0 -16 -14 -35t-39 -35q-62 -39 -152 -39q-75 0 -132.5 31.5
t-89.5 88.5t-32 131q0 72 32 130.5zM373 381q-36 37 -96 37q-59 0 -101 -38.5t-51 -98.5h288q-4 63 -40 100zM185 560q0 11 23 52t56.5 74.5t67.5 33.5q20 0 31.5 -12.5t11.5 -32.5q0 -33 -38.5 -60t-85 -43.5t-58.5 -16.5q-8 0 -8 5z" />
    <glyph glyph-name="ecircumflex" unicode="&#xea;" horiz-adv-x="540" 
d="M64 368.5q32 58.5 88 91.5t126 33q69 0 121 -30.5t81 -85.5t29 -126v-8q0 -16 -6.5 -22.5t-23.5 -6.5h-355q0 -6 2 -18q11 -59 54.5 -95t107.5 -36q58 0 94 21.5t57 58.5q2 2 15.5 -2.5t25 -16t11.5 -30.5q0 -16 -14 -35t-39 -35q-62 -39 -152 -39q-75 0 -132.5 31.5
t-89.5 88.5t-32 131q0 72 32 130.5zM373 381q-36 37 -96 37q-59 0 -101 -38.5t-51 -98.5h288q-4 63 -40 100zM137.5 564q-10.5 9 -10.5 23q0 26 29.5 59.5t65.5 60.5t48 29q12 -2 48 -29t65.5 -60.5t29.5 -59.5q0 -14 -10 -23t-24 -9q-21 0 -46 25t-63 82q-40 -59 -63.5 -83
t-43.5 -24q-15 0 -25.5 9z" />
    <glyph glyph-name="edieresis" unicode="&#xeb;" horiz-adv-x="540" 
d="M64 368.5q32 58.5 88 91.5t126 33q69 0 121 -30.5t81 -85.5t29 -126v-8q0 -16 -6.5 -22.5t-23.5 -6.5h-355q0 -6 2 -18q11 -59 54.5 -95t107.5 -36q58 0 94 21.5t57 58.5q2 2 15.5 -2.5t25 -16t11.5 -30.5q0 -16 -14 -35t-39 -35q-62 -39 -152 -39q-75 0 -132.5 31.5
t-89.5 88.5t-32 131q0 72 32 130.5zM373 381q-36 37 -96 37q-59 0 -101 -38.5t-51 -98.5h288q-4 63 -40 100zM139 592.5q-15 14.5 -15 41.5t14.5 41.5t40.5 14.5q57 0 57 -56q0 -27 -14.5 -41.5t-41.5 -14.5q-26 0 -41 14.5zM319 592.5q-15 14.5 -15 41.5t14.5 41.5
t40.5 14.5q57 0 57 -56q0 -27 -14.5 -41.5t-41.5 -14.5q-26 0 -41 14.5z" />
    <glyph glyph-name="igrave" unicode="&#xec;" horiz-adv-x="230" 
d="M65 43v395q0 48 45 48h10q21 0 32.5 -11t11.5 -37v-395q0 -47 -44 -47h-10q-45 0 -45 47zM132.5 571.5q-46.5 16.5 -85 43.5t-38.5 60q0 20 11.5 32.5t31.5 12.5q34 0 67.5 -33.5t56.5 -74.5t23 -52q0 -5 -8 -5q-12 0 -58.5 16.5z" />
    <glyph glyph-name="iacute" unicode="&#xed;" horiz-adv-x="230" 
d="M65 43v395q0 48 45 48h10q21 0 32.5 -11t11.5 -37v-395q0 -47 -44 -47h-10q-45 0 -45 47zM29 560q0 11 23 52t56.5 74.5t67.5 33.5q20 0 31.5 -12.5t11.5 -32.5q0 -33 -38.5 -60t-85 -43.5t-58.5 -16.5q-8 0 -8 5z" />
    <glyph glyph-name="icircumflex" unicode="&#xee;" horiz-adv-x="230" 
d="M65 43v395q0 48 45 48h10q21 0 32.5 -11t11.5 -37v-395q0 -47 -44 -47h-10q-45 0 -45 47zM-18.5 564q-10.5 9 -10.5 23q0 26 29.5 59.5t65.5 60.5t48 29q12 -2 48 -29t65.5 -60.5t29.5 -59.5q0 -14 -10 -23t-24 -9q-21 0 -46 25t-63 82q-40 -59 -63.5 -83t-43.5 -24
q-15 0 -25.5 9z" />
    <glyph glyph-name="idieresis" unicode="&#xef;" horiz-adv-x="230" 
d="M-17 592.5q-15 14.5 -15 41.5t14.5 41.5t40.5 14.5q57 0 57 -56q0 -27 -14.5 -41.5t-41.5 -14.5q-26 0 -41 14.5zM163 592.5q-15 14.5 -15 41.5t14.5 41.5t40.5 14.5q57 0 57 -56q0 -27 -14.5 -41.5t-41.5 -14.5q-26 0 -41 14.5zM65 43v395q0 48 45 48h10q21 0 32.5 -11
t11.5 -37v-395q0 -47 -44 -47h-10q-45 0 -45 47z" />
    <glyph glyph-name="eth" unicode="&#xf0;" horiz-adv-x="580" 
d="M505.5 467q35.5 -81 35.5 -184q0 -91 -32.5 -158t-91 -102.5t-135.5 -35.5q-73 0 -128 28t-85.5 80.5t-30.5 123.5q0 66 29.5 117t83 79t122.5 28q54 0 99 -23.5t69 -57.5q-22 123 -119 196l-100 -55q-13 -7 -24 -7q-18 0 -28 18l-3 5q-7 12 -7 20q0 15 22 26l67 36
q-69 29 -148 35q-5 1 0 18.5t23 32.5t50 15q40 0 85 -13t87 -39l98 54q10 6 21 6q9 0 15.5 -4.5t15.5 -13.5l3 -3q7 -7 7 -16t-7.5 -18t-20.5 -16l-68 -36q60 -55 95.5 -136zM440 285q-18 33 -60.5 57.5t-89.5 24.5q-75 0 -115 -38.5t-40 -108.5q0 -71 40 -111.5t108 -40.5
q73 0 115 51.5t42 132.5v33z" />
    <glyph glyph-name="ntilde" unicode="&#xf1;" horiz-adv-x="561" 
d="M458 436.5q47 -56.5 47 -149.5v-244q0 -47 -44 -47h-11q-44 0 -44 47v232q0 61 -29.5 96t-81.5 35q-46 0 -81 -22.5t-54 -61.5v-279q0 -47 -44 -47h-11q-44 0 -44 47v432q0 3 11 7t25 4q25 0 43 -17.5t19 -60.5q27 40 67.5 62.5t92.5 22.5q92 0 139 -56.5zM137 583
q-10 10 -10 27q0 40 24 70t58 30q28 0 66 -23q31 -19 69 -60q9 30 25.5 53.5t32.5 23.5q17 0 27 -10t10 -28q0 -39 -24.5 -69t-57.5 -30q-35 0 -67 22t-68 61q-10 -31 -26 -54t-32 -23q-17 0 -27 10z" />
    <glyph glyph-name="ograve" unicode="&#xf2;" horiz-adv-x="568" 
d="M64 371q32 57 89.5 89.5t131.5 32.5q73 0 130 -32.5t89 -90.5t32 -131t-32 -130t-89.5 -89.5t-130.5 -32.5q-74 0 -131 32.5t-89 90t-32 131.5q0 73 32 130zM423.5 327.5q-20.5 39.5 -57 62t-82.5 22.5q-45 0 -82 -22t-58 -61t-21 -88t21 -88.5t58 -62t82 -22.5
t81.5 22.5t57.5 61.5t21 87q0 49 -20.5 88.5zM302.5 571.5q-46.5 16.5 -85 43.5t-38.5 60q0 20 11.5 32.5t31.5 12.5q34 0 67.5 -33.5t56.5 -74.5t23 -52q0 -5 -8 -5q-12 0 -58.5 16.5z" />
    <glyph glyph-name="oacute" unicode="&#xf3;" horiz-adv-x="568" 
d="M64 371q32 57 89.5 89.5t131.5 32.5q73 0 130 -32.5t89 -90.5t32 -131t-32 -130t-89.5 -89.5t-130.5 -32.5q-74 0 -131 32.5t-89 90t-32 131.5q0 73 32 130zM423.5 327.5q-20.5 39.5 -57 62t-82.5 22.5q-45 0 -82 -22t-58 -61t-21 -88t21 -88.5t58 -62t82 -22.5
t81.5 22.5t57.5 61.5t21 87q0 49 -20.5 88.5zM199 560q0 11 23 52t56.5 74.5t67.5 33.5q20 0 31.5 -12.5t11.5 -32.5q0 -33 -38.5 -60t-85 -43.5t-58.5 -16.5q-8 0 -8 5z" />
    <glyph glyph-name="ocircumflex" unicode="&#xf4;" horiz-adv-x="568" 
d="M64 371q32 57 89.5 89.5t131.5 32.5q73 0 130 -32.5t89 -90.5t32 -131t-32 -130t-89.5 -89.5t-130.5 -32.5q-74 0 -131 32.5t-89 90t-32 131.5q0 73 32 130zM423.5 327.5q-20.5 39.5 -57 62t-82.5 22.5q-45 0 -82 -22t-58 -61t-21 -88t21 -88.5t58 -62t82 -22.5
t81.5 22.5t57.5 61.5t21 87q0 49 -20.5 88.5zM151.5 564q-10.5 9 -10.5 23q0 26 29.5 59.5t65.5 60.5t48 29q12 -2 48 -29t65.5 -60.5t29.5 -59.5q0 -14 -10 -23t-24 -9q-21 0 -46 25t-63 82q-40 -59 -63.5 -83t-43.5 -24q-15 0 -25.5 9z" />
    <glyph glyph-name="otilde" unicode="&#xf5;" horiz-adv-x="568" 
d="M64 371q32 57 89.5 89.5t131.5 32.5q73 0 130 -32.5t89 -90.5t32 -131t-32 -130t-89.5 -89.5t-130.5 -32.5q-74 0 -131 32.5t-89 90t-32 131.5q0 73 32 130zM423.5 327.5q-20.5 39.5 -57 62t-82.5 22.5q-45 0 -82 -22t-58 -61t-21 -88t21 -88.5t58 -62t82 -22.5
t81.5 22.5t57.5 61.5t21 87q0 49 -20.5 88.5zM138 583q-10 10 -10 27q0 40 24 70t58 30q28 0 66 -23q31 -19 69 -60q9 30 25.5 53.5t32.5 23.5q17 0 27 -10t10 -28q0 -39 -24.5 -69t-57.5 -30q-35 0 -67 22t-68 61q-10 -31 -26 -54t-32 -23q-17 0 -27 10z" />
    <glyph glyph-name="odieresis" unicode="&#xf6;" horiz-adv-x="568" 
d="M64 371q32 57 89.5 89.5t131.5 32.5q73 0 130 -32.5t89 -90.5t32 -131t-32 -130t-89.5 -89.5t-130.5 -32.5q-74 0 -131 32.5t-89 90t-32 131.5q0 73 32 130zM423.5 327.5q-20.5 39.5 -57 62t-82.5 22.5q-45 0 -82 -22t-58 -61t-21 -88t21 -88.5t58 -62t82 -22.5
t81.5 22.5t57.5 61.5t21 87q0 49 -20.5 88.5zM153 592.5q-15 14.5 -15 41.5t14.5 41.5t40.5 14.5q57 0 57 -56q0 -27 -14.5 -41.5t-41.5 -14.5q-26 0 -41 14.5zM333 592.5q-15 14.5 -15 41.5t14.5 41.5t40.5 14.5q57 0 57 -56q0 -27 -14.5 -41.5t-41.5 -14.5q-26 0 -41 14.5
z" />
    <glyph glyph-name="divide" unicode="&#xf7;" horiz-adv-x="600" 
d="M255 391q-13 13 -13 38v11q0 24 13 37.5t38 13.5h12q25 0 38.5 -13.5t13.5 -37.5v-11q0 -25 -13.5 -38t-38.5 -13h-12q-25 0 -38 13zM75 261v7q0 38 43 38h363q43 0 43 -38v-7q0 -38 -43 -38h-363q-43 0 -43 38zM255 51q-13 13 -13 38v11q0 25 13 38t38 13h12
q25 0 38.5 -13t13.5 -38v-11q0 -25 -13.5 -38t-38.5 -13h-12q-25 0 -38 13z" />
    <glyph glyph-name="oslash" unicode="&#xf8;" horiz-adv-x="568" 
d="M482 404q54 -70 54 -165q0 -73 -32 -130t-89.5 -89.5t-130.5 -32.5q-82 0 -144 40l-66 -73q-2 -2 -13.5 2.5t-20.5 13.5t-9 21q0 19 23 45l34 38q-27 32 -41.5 75t-14.5 92q0 73 32 130t89.5 89.5t131.5 32.5q85 0 146 -43l68 76q2 2 13.5 -2.5t20.5 -13.5t9 -21
q0 -19 -22 -44zM153 137l224 246q-42 29 -93 29q-45 0 -82 -22t-58 -61t-21 -88q0 -58 30 -104zM417 340l-222 -245q40 -27 89 -27q45 0 81.5 22.5t57.5 61.5t21 87q0 57 -27 101z" />
    <glyph glyph-name="ugrave" unicode="&#xf9;" horiz-adv-x="561" 
d="M488.5 475q11.5 -11 11.5 -37v-431q0 -3 -11 -7t-24 -4q-46 0 -59 45q-4 18 -4 31q-58 -84 -160 -84q-92 0 -138.5 56t-46.5 150v244q0 48 43 48h11q21 0 32.5 -11t11.5 -37v-232q0 -62 30 -97t85 -35q44 0 78.5 23t53.5 62v279q0 48 43 48h11q21 0 32.5 -11z
M296.5 571.5q-46.5 16.5 -85 43.5t-38.5 60q0 20 11.5 32.5t31.5 12.5q34 0 67.5 -33.5t56.5 -74.5t23 -52q0 -5 -8 -5q-12 0 -58.5 16.5z" />
    <glyph glyph-name="uacute" unicode="&#xfa;" horiz-adv-x="561" 
d="M488.5 475q11.5 -11 11.5 -37v-431q0 -3 -11 -7t-24 -4q-46 0 -59 45q-4 18 -4 31q-58 -84 -160 -84q-92 0 -138.5 56t-46.5 150v244q0 48 43 48h11q21 0 32.5 -11t11.5 -37v-232q0 -62 30 -97t85 -35q44 0 78.5 23t53.5 62v279q0 48 43 48h11q21 0 32.5 -11zM193 560
q0 11 23 52t56.5 74.5t67.5 33.5q20 0 31.5 -12.5t11.5 -32.5q0 -33 -38.5 -60t-85 -43.5t-58.5 -16.5q-8 0 -8 5z" />
    <glyph glyph-name="ucircumflex" unicode="&#xfb;" horiz-adv-x="561" 
d="M488.5 475q11.5 -11 11.5 -37v-431q0 -3 -11 -7t-24 -4q-46 0 -59 45q-4 18 -4 31q-58 -84 -160 -84q-92 0 -138.5 56t-46.5 150v244q0 48 43 48h11q21 0 32.5 -11t11.5 -37v-232q0 -62 30 -97t85 -35q44 0 78.5 23t53.5 62v279q0 48 43 48h11q21 0 32.5 -11zM145.5 564
q-10.5 9 -10.5 23q0 26 29.5 59.5t65.5 60.5t48 29q12 -2 48 -29t65.5 -60.5t29.5 -59.5q0 -14 -10 -23t-24 -9q-21 0 -46 25t-63 82q-40 -59 -63.5 -83t-43.5 -24q-15 0 -25.5 9z" />
    <glyph glyph-name="udieresis" unicode="&#xfc;" horiz-adv-x="561" 
d="M488.5 475q11.5 -11 11.5 -37v-431q0 -3 -11 -7t-24 -4q-46 0 -59 45q-4 18 -4 31q-58 -84 -160 -84q-92 0 -138.5 56t-46.5 150v244q0 48 43 48h11q21 0 32.5 -11t11.5 -37v-232q0 -62 30 -97t85 -35q44 0 78.5 23t53.5 62v279q0 48 43 48h11q21 0 32.5 -11zM147 592.5
q-15 14.5 -15 41.5t14.5 41.5t40.5 14.5q57 0 57 -56q0 -27 -14.5 -41.5t-41.5 -14.5q-26 0 -41 14.5zM327 592.5q-15 14.5 -15 41.5t14.5 41.5t40.5 14.5q57 0 57 -56q0 -27 -14.5 -41.5t-41.5 -14.5q-26 0 -41 14.5z" />
    <glyph glyph-name="yacute" unicode="&#xfd;" horiz-adv-x="498" 
d="M173.5 -189.5q-12.5 5.5 -20 12t-6.5 9.5l80 195q-17 2 -26.5 8t-15.5 20l-172 402q-1 3 6 10.5t19 13t27 5.5q22 0 36.5 -12.5t26.5 -43.5l130 -332l115 330q18 58 62 58q12 0 24.5 -5.5t20.5 -12t7 -9.5l-227 -599q-20 -55 -61 -55q-13 0 -25.5 5.5zM165 560
q0 11 23 52t56.5 74.5t67.5 33.5q20 0 31.5 -12.5t11.5 -32.5q0 -33 -38.5 -60t-85 -43.5t-58.5 -16.5q-8 0 -8 5z" />
    <glyph glyph-name="thorn" unicode="&#xfe;" horiz-adv-x="593" 
d="M61 -149v825q0 3 11 7t25 4q27 0 45 -19t18 -66v-200q29 43 72 67t96 24q64 0 115.5 -31t80.5 -88.5t29 -132.5t-29 -133t-80.5 -89.5t-118.5 -31.5q-55 0 -98.5 24t-66.5 60v-220q0 -47 -44 -47h-11q-44 0 -44 47zM415.5 116q41.5 47 41.5 124q0 49 -19 88t-52.5 61
t-76.5 22q-53 0 -91.5 -25.5t-57.5 -71.5v-122q7 -54 49 -88.5t98 -34.5q67 0 108.5 47z" />
    <glyph glyph-name="ydieresis" unicode="&#xff;" horiz-adv-x="498" 
d="M173.5 -189.5q-12.5 5.5 -20 12t-6.5 9.5l80 195q-17 2 -26.5 8t-15.5 20l-172 402q-1 3 6 10.5t19 13t27 5.5q22 0 36.5 -12.5t26.5 -43.5l130 -332l115 330q18 58 62 58q12 0 24.5 -5.5t20.5 -12t7 -9.5l-227 -599q-20 -55 -61 -55q-13 0 -25.5 5.5zM119 592.5
q-15 14.5 -15 41.5t14.5 41.5t40.5 14.5q57 0 57 -56q0 -27 -14.5 -41.5t-41.5 -14.5q-26 0 -41 14.5zM299 592.5q-15 14.5 -15 41.5t14.5 41.5t40.5 14.5q57 0 57 -56q0 -27 -14.5 -41.5t-41.5 -14.5q-26 0 -41 14.5z" />
    <glyph glyph-name="Amacron" unicode="&#x100;" horiz-adv-x="630" 
d="M41.5 0.5q-13.5 5.5 -22 13t-6.5 12.5l230 594q6 17 22 25t49 8q34 0 49.5 -8t21.5 -25l232 -594q2 -4 -6.5 -11.5t-22.5 -13.5t-28 -6q-43 0 -61 48l-57 147h-259l-57 -148q-17 -47 -57 -47q-14 0 -27.5 5.5zM416 273l-104 274l-104 -274h208zM153 763v6q0 18 13 27.5
t37 9.5h224q24 0 37 -9.5t13 -27.5v-6q0 -39 -50 -39h-224q-50 0 -50 39z" />
    <glyph glyph-name="amacron" unicode="&#x101;" horiz-adv-x="523" 
d="M112 247q79 39 244 42h13v10q0 55 -30.5 84t-88.5 29q-51 0 -85.5 -22.5t-52.5 -59.5q0 -2 -17 1.5t-30.5 14.5t-13.5 32q0 30 33 60q27 24 71 39.5t102 15.5q102 0 156 -50t54 -142v-295q0 -4 -11.5 -7.5t-24.5 -3.5q-46 0 -57 44q-4 18 -4 33q-28 -39 -73.5 -61
t-99.5 -22q-76 0 -120 37.5t-44 99.5q0 82 79 121zM369 227l-27 -1q-108 -4 -160 -26t-52 -70q0 -32 24 -51t67 -19q65 0 106.5 36.5t41.5 93.5v37zM110 625v6q0 18 13 27.5t37 9.5h194q24 0 37 -9.5t13 -27.5v-6q0 -39 -50 -39h-194q-50 0 -50 39z" />
    <glyph glyph-name="Abreve" unicode="&#x102;" horiz-adv-x="630" 
d="M41.5 0.5q-13.5 5.5 -22 13t-6.5 12.5l230 594q6 17 22 25t49 8q34 0 49.5 -8t21.5 -25l232 -594q2 -4 -6.5 -11.5t-22.5 -13.5t-28 -6q-43 0 -61 48l-57 147h-259l-57 -148q-17 -47 -57 -47q-14 0 -27.5 5.5zM416 273l-104 274l-104 -274h208zM213.5 723.5
q-39.5 27.5 -39.5 75.5q0 21 13.5 37.5t40.5 16.5q13 -75 87 -75q75 0 88 75q27 0 40.5 -16.5t13.5 -37.5q0 -46 -35.5 -74.5t-106.5 -28.5q-62 0 -101.5 27.5z" />
    <glyph glyph-name="abreve" unicode="&#x103;" horiz-adv-x="523" 
d="M112 247q79 39 244 42h13v10q0 55 -30.5 84t-88.5 29q-51 0 -85.5 -22.5t-52.5 -59.5q0 -2 -17 1.5t-30.5 14.5t-13.5 32q0 30 33 60q27 24 71 39.5t102 15.5q102 0 156 -50t54 -142v-295q0 -4 -11.5 -7.5t-24.5 -3.5q-46 0 -57 44q-4 18 -4 33q-28 -39 -73.5 -61
t-99.5 -22q-76 0 -120 37.5t-44 99.5q0 82 79 121zM369 227l-27 -1q-108 -4 -160 -26t-52 -70q0 -32 24 -51t67 -19q65 0 106.5 36.5t41.5 93.5v37zM159 577.5q-38 27.5 -38 75.5q0 21 13.5 37.5t40.5 16.5q13 -75 82 -75q37 0 56.5 19.5t25.5 55.5q27 0 40.5 -16.5
t13.5 -37.5q0 -46 -34 -74.5t-102 -28.5q-60 0 -98 27.5z" />
    <glyph glyph-name="Aogonek" unicode="&#x104;" horiz-adv-x="630" 
d="M477.5 -173q-27.5 23 -27.5 62q0 31 20.5 60.5t59.5 52.5q-20 12 -31 41l-57 147h-259l-57 -148q-17 -47 -57 -47q-14 0 -27.5 5.5t-22 13t-6.5 12.5l230 594q6 17 22 25t49 8q34 0 49.5 -8t21.5 -25l232 -594v-1q0 -8 -18 -19q-40 -31 -56.5 -54.5t-16.5 -43.5
q0 -16 9.5 -25.5t23.5 -9.5q25 0 37 20q13 -1 23 -11.5t10 -26.5q0 -23 -21 -37t-57 -14q-46 0 -73.5 23zM416 273l-104 274l-104 -274h208z" />
    <glyph glyph-name="aogonek" unicode="&#x105;" horiz-adv-x="523" 
d="M337.5 -180q-27.5 23 -27.5 62q0 33 23 64.5t68 54.5q-14 8 -23 24q-8 19 -8 47q-28 -39 -73.5 -61t-99.5 -22q-76 0 -120 37.5t-44 99.5q0 82 79 121t244 42h13v10q0 55 -30.5 84t-88.5 29q-51 0 -85.5 -22.5t-52.5 -59.5q0 -2 -17 1.5t-30.5 14.5t-13.5 32q0 30 32 60
q27 24 71.5 39.5t102.5 15.5q102 0 156 -50t54 -142v-295q0 -2 -7 -6q-41 -32 -57.5 -55.5t-16.5 -43.5q0 -16 9.5 -25.5t23.5 -9.5q25 0 37 20q13 -1 23 -11.5t10 -26.5q0 -23 -21 -37t-57 -14q-46 0 -73.5 23zM327.5 96.5q41.5 36.5 41.5 93.5v37l-27 -1q-108 -4 -160 -26
t-52 -70q0 -32 24 -51t67 -19q65 0 106.5 36.5z" />
    <glyph glyph-name="Cacute" unicode="&#x106;" horiz-adv-x="657" 
d="M86 497q42 77 116.5 120t170.5 43q109 0 183 -52q29 -20 45 -43.5t16 -41.5q0 -22 -13.5 -35t-29.5 -18.5t-17 -2.5q-27 48 -77 74t-106 26q-65 0 -115.5 -30.5t-79 -86t-28.5 -126.5q0 -70 29 -126t80.5 -87t115.5 -31q66 0 116.5 30.5t70.5 82.5q1 3 18.5 -2t31.5 -18
t14 -35q0 -19 -16.5 -45t-47.5 -48q-78 -58 -193 -58q-95 0 -169 42.5t-115.5 119t-41.5 173.5q0 98 42 175zM293 707q0 11 25 50t60 71t69 32q21 0 32.5 -12t11.5 -31q0 -33 -40.5 -59t-89 -41t-60.5 -15q-8 0 -8 5z" />
    <glyph glyph-name="cacute" unicode="&#x107;" horiz-adv-x="516" 
d="M64.5 370.5q32.5 57.5 89.5 90t128 32.5q96 0 157 -50q24 -19 36.5 -42t12.5 -41t-13 -29t-28.5 -14.5t-17.5 -0.5q-39 94 -145 94q-45 0 -81 -22t-56.5 -60.5t-20.5 -86.5q0 -49 20.5 -88t56.5 -61t81 -22q106 0 145 94q2 3 17.5 0t28.5 -14.5t13 -30.5q0 -18 -13 -40.5
t-37 -41.5q-27 -23 -66.5 -36.5t-89.5 -13.5q-72 0 -129 32.5t-89 90.5t-32 131q0 72 32.5 129.5zM197 560q0 11 23 52t56.5 74.5t67.5 33.5q20 0 31.5 -12.5t11.5 -32.5q0 -33 -38.5 -60t-85 -43.5t-58.5 -16.5q-8 0 -8 5z" />
    <glyph glyph-name="Ccircumflex" unicode="&#x108;" horiz-adv-x="657" 
d="M86 497q42 77 116.5 120t170.5 43q109 0 183 -52q29 -20 45 -43.5t16 -41.5q0 -22 -13.5 -35t-29.5 -18.5t-17 -2.5q-27 48 -77 74t-106 26q-65 0 -115.5 -30.5t-79 -86t-28.5 -126.5q0 -70 29 -126t80.5 -87t115.5 -31q66 0 116.5 30.5t70.5 82.5q1 3 18.5 -2t31.5 -18
t14 -35q0 -19 -16.5 -45t-47.5 -48q-78 -58 -193 -58q-95 0 -169 42.5t-115.5 119t-41.5 173.5q0 98 42 175zM234.5 705.5q-10.5 8.5 -10.5 22.5q0 25 30.5 56.5t68 57.5t49.5 28q12 -2 49.5 -28t68 -57.5t30.5 -56.5q0 -14 -9.5 -22.5t-24.5 -8.5q-22 0 -48.5 23.5
t-65.5 76.5q-41 -55 -66 -77.5t-46 -22.5q-15 0 -25.5 8.5z" />
    <glyph glyph-name="ccircumflex" unicode="&#x109;" horiz-adv-x="516" 
d="M64.5 370.5q32.5 57.5 89.5 90t128 32.5q96 0 157 -50q24 -19 36.5 -42t12.5 -41t-13 -29t-28.5 -14.5t-17.5 -0.5q-39 94 -145 94q-45 0 -81 -22t-56.5 -60.5t-20.5 -86.5q0 -49 20.5 -88t56.5 -61t81 -22q106 0 145 94q2 3 17.5 0t28.5 -14.5t13 -30.5q0 -18 -13 -40.5
t-37 -41.5q-27 -23 -66.5 -36.5t-89.5 -13.5q-72 0 -129 32.5t-89 90.5t-32 131q0 72 32.5 129.5zM149.5 564q-10.5 9 -10.5 23q0 26 29.5 59.5t65.5 60.5t48 29q12 -2 48 -29t65.5 -60.5t29.5 -59.5q0 -14 -10 -23t-24 -9q-21 0 -46 25t-63 82q-40 -59 -63.5 -83t-43.5 -24
q-15 0 -25.5 9z" />
    <glyph glyph-name="Cdotaccent" unicode="&#x10a;" horiz-adv-x="657" 
d="M86 497q42 77 116.5 120t170.5 43q109 0 183 -52q29 -20 45 -43.5t16 -41.5q0 -22 -13.5 -35t-29.5 -18.5t-17 -2.5q-27 48 -77 74t-106 26q-65 0 -115.5 -30.5t-79 -86t-28.5 -126.5q0 -70 29 -126t80.5 -87t115.5 -31q66 0 116.5 30.5t70.5 82.5q1 3 18.5 -2t31.5 -18
t14 -35q0 -19 -16.5 -45t-47.5 -48q-78 -58 -193 -58q-95 0 -169 42.5t-115.5 119t-41.5 173.5q0 98 42 175zM328.5 724.5q-15.5 15.5 -15.5 41.5q0 27 16 42.5t44 15.5t43 -15.5t15 -42.5t-15.5 -42t-43.5 -15t-43.5 15.5z" />
    <glyph glyph-name="cdotaccent" unicode="&#x10b;" horiz-adv-x="516" 
d="M64.5 370.5q32.5 57.5 89.5 90t128 32.5q96 0 157 -50q24 -19 36.5 -42t12.5 -41t-13 -29t-28.5 -14.5t-17.5 -0.5q-39 94 -145 94q-45 0 -81 -22t-56.5 -60.5t-20.5 -86.5q0 -49 20.5 -88t56.5 -61t81 -22q106 0 145 94q2 3 17.5 0t28.5 -14.5t13 -30.5q0 -18 -13 -40.5
t-37 -41.5q-27 -23 -66.5 -36.5t-89.5 -13.5q-72 0 -129 32.5t-89 90.5t-32 131q0 72 32.5 129.5zM237.5 593.5q-15.5 15.5 -15.5 41.5q0 27 16 42.5t44 15.5t43 -15.5t15 -42.5t-15.5 -42t-43.5 -15t-43.5 15.5z" />
    <glyph glyph-name="Ccaron" unicode="&#x10c;" horiz-adv-x="657" 
d="M86 497q42 77 116.5 120t170.5 43q109 0 183 -52q29 -20 45 -43.5t16 -41.5q0 -22 -13.5 -35t-29.5 -18.5t-17 -2.5q-27 48 -77 74t-106 26q-65 0 -115.5 -30.5t-79 -86t-28.5 -126.5q0 -70 29 -126t80.5 -87t115.5 -31q66 0 116.5 30.5t70.5 82.5q1 3 18.5 -2t31.5 -18
t14 -35q0 -19 -16.5 -45t-47.5 -48q-78 -58 -193 -58q-95 0 -169 42.5t-115.5 119t-41.5 173.5q0 98 42 175zM322.5 720q-37.5 26 -68 57.5t-30.5 56.5q0 14 9.5 22.5t24.5 8.5q22 0 48.5 -23.5t65.5 -76.5q41 55 66 77.5t46 22.5q15 0 25.5 -8.5t10.5 -22.5
q0 -25 -30.5 -56.5t-68 -57.5t-49.5 -28q-12 2 -49.5 28z" />
    <glyph glyph-name="ccaron" unicode="&#x10d;" horiz-adv-x="516" 
d="M64.5 370.5q32.5 57.5 89.5 90t128 32.5q96 0 157 -50q24 -19 36.5 -42t12.5 -41t-13 -29t-28.5 -14.5t-17.5 -0.5q-39 94 -145 94q-45 0 -81 -22t-56.5 -60.5t-20.5 -86.5q0 -49 20.5 -88t56.5 -61t81 -22q106 0 145 94q2 3 17.5 0t28.5 -14.5t13 -30.5q0 -18 -13 -40.5
t-37 -41.5q-27 -23 -66.5 -36.5t-89.5 -13.5q-72 0 -129 32.5t-89 90.5t-32 131q0 72 32.5 129.5zM234 579q-36 27 -65 60.5t-29 59.5q0 14 10 23.5t24 9.5q20 0 44.5 -25t63.5 -83q39 58 63.5 83t44.5 25q14 0 24 -9.5t10 -23.5q0 -26 -29 -59.5t-65 -60.5t-48 -29
q-12 2 -48 29z" />
    <glyph glyph-name="Dcaron" unicode="&#x10e;" horiz-adv-x="677" 
d="M69 589q0 26 15.5 42t39.5 16h158q109 0 188 -38.5t121 -111t42 -172.5t-42.5 -173.5t-123 -112.5t-190.5 -39h-151q-24 0 -40.5 17t-16.5 40v532zM463.5 150.5q65.5 61.5 65.5 173.5q0 110 -66 172t-183 62h-109v-469h108q119 0 184.5 61.5zM233.5 720
q-37.5 26 -68 57.5t-30.5 56.5q0 14 9.5 22.5t24.5 8.5q22 0 48.5 -23.5t65.5 -76.5q41 55 66 77.5t46 22.5q15 0 25.5 -8.5t10.5 -22.5q0 -25 -30.5 -56.5t-68 -57.5t-49.5 -28q-12 2 -49.5 28z" />
    <glyph glyph-name="dcaron" unicode="&#x10f;" horiz-adv-x="648" 
d="M575 549v75q0 39 7 51.5t34 12.5h9q39 0 39 -37q0 -7 -4 -27l-18 -75q-4 -17 -9 -23.5t-16 -6.5h-18q-24 0 -24 30zM141.5 18.5q-51.5 31.5 -80.5 89t-29 132.5t29 132.5t81 89t118 31.5q56 0 99.5 -22.5t65.5 -56.5v262q0 3 11.5 7t24.5 4q63 0 63 -85v-559
q0 -47 -44 -47h-10q-44 0 -44 47v37q-61 -93 -169 -93q-64 0 -115.5 31.5zM350.5 87.5q34.5 18.5 55 50.5t20.5 72v102q-19 47 -56.5 73t-91.5 26q-68 0 -109 -47t-41 -124q0 -49 19 -88t52.5 -61t76.5 -22q40 0 74.5 18.5z" />
    <glyph glyph-name="Dcroat" unicode="&#x110;" horiz-adv-x="721" 
d="M121.5 17q-16.5 17 -16.5 40v227h-53q-39 0 -39 36v9q0 35 39 35h53v225q0 26 15.5 42t39.5 16h162q109 0 189 -39t123 -111.5t43 -171.5q0 -100 -44 -173t-125 -112.5t-191 -39.5h-155q-24 0 -40.5 17zM323 91q120 0 185.5 61t65.5 172q0 110 -66 171t-184 61h-117v-192
h175q40 0 40 -35v-9q0 -36 -40 -36h-175v-193h116z" />
    <glyph glyph-name="dcroat" unicode="&#x111;" horiz-adv-x="585" 
d="M141.5 18.5q-51.5 31.5 -80.5 89t-29 132.5t29 132.5t81 89t118 31.5q56 0 99.5 -22.5t65.5 -56.5v124h-83q-39 0 -39 28v7q0 29 39 29h83v74q0 3 11.5 7t24.5 4q41 0 55 -37q8 -19 8 -48h37q39 0 39 -29v-7q0 -28 -39 -28h-37v-495q0 -47 -44 -47h-10q-44 0 -44 47v37
q-61 -93 -169 -93q-64 0 -115.5 31.5zM350.5 87.5q34.5 18.5 55 50.5t20.5 72v102q-19 47 -56.5 73t-91.5 26q-68 0 -109 -47t-41 -124q0 -49 19 -88t52.5 -61t76.5 -22q40 0 74.5 18.5z" />
    <glyph glyph-name="Emacron" unicode="&#x112;" horiz-adv-x="587" 
d="M84 15.5q-15 15.5 -15 41.5v532q0 26 15 42t40 16h375q24 0 36 -11t12 -32v-6q0 -43 -48 -43h-327v-181h253q48 0 48 -41v-3q0 -43 -48 -43h-253v-196h333q47 0 47 -41v-5q0 -45 -47 -45h-381q-25 0 -40 15.5zM148 763v6q0 18 13 27.5t37 9.5h224q24 0 37 -9.5t13 -27.5
v-6q0 -39 -50 -39h-224q-50 0 -50 39z" />
    <glyph glyph-name="emacron" unicode="&#x113;" horiz-adv-x="540" 
d="M64 368.5q32 58.5 88 91.5t126 33q69 0 121 -30.5t81 -85.5t29 -126v-8q0 -16 -6.5 -22.5t-23.5 -6.5h-355q0 -6 2 -18q11 -59 54.5 -95t107.5 -36q58 0 94 21.5t57 58.5q2 2 15.5 -2.5t25 -16t11.5 -30.5q0 -16 -14 -35t-39 -35q-62 -39 -152 -39q-75 0 -132.5 31.5
t-89.5 88.5t-32 131q0 72 32 130.5zM373 381q-36 37 -96 37q-59 0 -101 -38.5t-51 -98.5h288q-4 63 -40 100zM123 625v6q0 18 13 27.5t37 9.5h194q24 0 37 -9.5t13 -27.5v-6q0 -39 -50 -39h-194q-50 0 -50 39z" />
    <glyph glyph-name="Ebreve" unicode="&#x114;" horiz-adv-x="587" 
d="M84 15.5q-15 15.5 -15 41.5v532q0 26 15 42t40 16h375q24 0 36 -11t12 -32v-6q0 -43 -48 -43h-327v-181h253q48 0 48 -41v-3q0 -43 -48 -43h-253v-196h333q47 0 47 -41v-5q0 -45 -47 -45h-381q-25 0 -40 15.5zM208.5 723.5q-39.5 27.5 -39.5 75.5q0 21 13.5 37.5
t40.5 16.5q13 -75 87 -75q75 0 88 75q27 0 40.5 -16.5t13.5 -37.5q0 -46 -35.5 -74.5t-106.5 -28.5q-62 0 -101.5 27.5z" />
    <glyph glyph-name="ebreve" unicode="&#x115;" horiz-adv-x="540" 
d="M64 368.5q32 58.5 88 91.5t126 33q69 0 121 -30.5t81 -85.5t29 -126v-8q0 -16 -6.5 -22.5t-23.5 -6.5h-355q0 -6 2 -18q11 -59 54.5 -95t107.5 -36q58 0 94 21.5t57 58.5q2 2 15.5 -2.5t25 -16t11.5 -30.5q0 -16 -14 -35t-39 -35q-62 -39 -152 -39q-75 0 -132.5 31.5
t-89.5 88.5t-32 131q0 72 32 130.5zM373 381q-36 37 -96 37q-59 0 -101 -38.5t-51 -98.5h288q-4 63 -40 100zM172 577.5q-38 27.5 -38 75.5q0 21 13.5 37.5t40.5 16.5q13 -75 82 -75q37 0 56.5 19.5t25.5 55.5q27 0 40.5 -16.5t13.5 -37.5q0 -46 -34 -74.5t-102 -28.5
q-60 0 -98 27.5z" />
    <glyph glyph-name="Edotaccent" unicode="&#x116;" horiz-adv-x="587" 
d="M84 15.5q-15 15.5 -15 41.5v532q0 26 15 42t40 16h375q24 0 36 -11t12 -32v-6q0 -43 -48 -43h-327v-181h253q48 0 48 -41v-3q0 -43 -48 -43h-253v-196h333q47 0 47 -41v-5q0 -45 -47 -45h-381q-25 0 -40 15.5zM266.5 724.5q-15.5 15.5 -15.5 41.5q0 27 16 42.5t44 15.5
t43 -15.5t15 -42.5t-15.5 -42t-43.5 -15t-43.5 15.5z" />
    <glyph glyph-name="edotaccent" unicode="&#x117;" horiz-adv-x="540" 
d="M64 368.5q32 58.5 88 91.5t126 33q69 0 121 -30.5t81 -85.5t29 -126v-8q0 -16 -6.5 -22.5t-23.5 -6.5h-355q0 -6 2 -18q11 -59 54.5 -95t107.5 -36q58 0 94 21.5t57 58.5q2 2 15.5 -2.5t25 -16t11.5 -30.5q0 -16 -14 -35t-39 -35q-62 -39 -152 -39q-75 0 -132.5 31.5
t-89.5 88.5t-32 131q0 72 32 130.5zM373 381q-36 37 -96 37q-59 0 -101 -38.5t-51 -98.5h288q-4 63 -40 100zM225.5 593.5q-15.5 15.5 -15.5 41.5q0 27 16 42.5t44 15.5t43 -15.5t15 -42.5t-15.5 -42t-43.5 -15t-43.5 15.5z" />
    <glyph glyph-name="Eogonek" unicode="&#x118;" horiz-adv-x="587" 
d="M411.5 -174q-27.5 23 -27.5 62q0 31 20 60t58 52h-338q-25 0 -40 15.5t-15 41.5v532q0 26 15 42t40 16h375q24 0 36 -11t12 -32v-6q0 -43 -48 -43h-327v-181h253q48 0 48 -41v-3q0 -43 -48 -43h-253v-196h333q47 0 47 -41v-5q0 -25 -14 -36q-43 -34 -60.5 -58t-17.5 -44
q0 -16 9.5 -25.5t23.5 -9.5q25 0 37 20q13 -1 23 -11.5t10 -26.5q0 -23 -21 -37t-57 -14q-46 0 -73.5 23z" />
    <glyph glyph-name="eogonek" unicode="&#x119;" horiz-adv-x="540" 
d="M299.5 -162q-27.5 23 -27.5 62q0 23 11.5 46t34.5 43q-22 -2 -32 -2q-75 0 -132.5 31.5t-89.5 88.5t-32 131q0 72 32 130.5t88 91.5t126 33q69 0 121 -30.5t81 -85.5t29 -126v-8q0 -16 -6.5 -22.5t-23.5 -6.5h-355q1 -13 5 -32q14 -54 56.5 -85.5t102.5 -31.5
q58 0 94 21.5t57 58.5q2 2 15.5 -2.5t25 -16t11.5 -30.5q0 -21 -19 -41q-19 -23 -54 -41q-38 -31 -54 -53.5t-16 -41.5q0 -16 9.5 -25.5t23.5 -9.5q25 0 37 20q13 -1 23 -11.5t10 -26.5q0 -23 -21 -37t-57 -14q-46 0 -73.5 23zM413 281q-4 63 -40 100t-96 37
q-59 0 -101 -38.5t-51 -98.5h288z" />
    <glyph glyph-name="Ecaron" unicode="&#x11a;" horiz-adv-x="587" 
d="M84 15.5q-15 15.5 -15 41.5v532q0 26 15 42t40 16h375q24 0 36 -11t12 -32v-6q0 -43 -48 -43h-327v-181h253q48 0 48 -41v-3q0 -43 -48 -43h-253v-196h333q47 0 47 -41v-5q0 -45 -47 -45h-381q-25 0 -40 15.5zM260.5 720q-37.5 26 -68 57.5t-30.5 56.5q0 14 9.5 22.5
t24.5 8.5q22 0 48.5 -23.5t65.5 -76.5q41 55 66 77.5t46 22.5q15 0 25.5 -8.5t10.5 -22.5q0 -25 -30.5 -56.5t-68 -57.5t-49.5 -28q-12 2 -49.5 28z" />
    <glyph glyph-name="ecaron" unicode="&#x11b;" horiz-adv-x="540" 
d="M64 368.5q32 58.5 88 91.5t126 33q69 0 121 -30.5t81 -85.5t29 -126v-8q0 -16 -6.5 -22.5t-23.5 -6.5h-355q0 -6 2 -18q11 -59 54.5 -95t107.5 -36q58 0 94 21.5t57 58.5q2 2 15.5 -2.5t25 -16t11.5 -30.5q0 -16 -14 -35t-39 -35q-62 -39 -152 -39q-75 0 -132.5 31.5
t-89.5 88.5t-32 131q0 72 32 130.5zM373 381q-36 37 -96 37q-59 0 -101 -38.5t-51 -98.5h288q-4 63 -40 100zM222 579q-36 27 -65 60.5t-29 59.5q0 14 10 23.5t24 9.5q20 0 44.5 -25t63.5 -83q39 58 63.5 83t44.5 25q14 0 24 -9.5t10 -23.5q0 -26 -29 -59.5t-65 -60.5
t-48 -29q-12 2 -48 29z" />
    <glyph glyph-name="Gcircumflex" unicode="&#x11c;" horiz-adv-x="712" 
d="M641 325.5q14 -15.5 14 -43.5v-276q0 -3 -10.5 -6.5t-23.5 -3.5q-26 0 -41 18t-15 65v12q-31 -49 -86 -76t-129 -27q-92 0 -161.5 43t-107 119t-37.5 172q0 98 42 175t117.5 120t172.5 43q56 0 102 -13t79 -35q30 -20 47 -43t17 -43q0 -21 -12 -33.5t-27 -17.5t-17 -2
q-29 47 -80 72.5t-107 25.5q-66 0 -118 -31.5t-81 -88.5t-29 -130t26.5 -129.5t76.5 -88.5t117 -32q78 0 131 40t63 105v41h-152q-27 0 -39.5 9t-12.5 30v5q0 21 12.5 30.5t39.5 9.5h188q27 0 41 -15.5zM240.5 705.5q-10.5 8.5 -10.5 22.5q0 25 30.5 56.5t68 57.5t49.5 28
q12 -2 49.5 -28t68 -57.5t30.5 -56.5q0 -14 -9.5 -22.5t-24.5 -8.5q-22 0 -48.5 23.5t-65.5 76.5q-41 -55 -66 -77.5t-46 -22.5q-15 0 -25.5 8.5z" />
    <glyph glyph-name="gcircumflex" unicode="&#x11d;" horiz-adv-x="489" 
d="M56 -178.5q-58 32.5 -58 100.5q0 51 42.5 85.5t110.5 46.5q-19 16 -19 45q0 28 27 52q-58 18 -92 61t-34 99q0 50 26.5 91.5t74 66t105.5 24.5q62 0 115 -29l26 46q12 20 25.5 29t31.5 9q17 0 29 -9t18 -20.5t4 -12.5l-82 -85q42 -48 42 -107q0 -50 -26.5 -90t-74 -62.5
t-107.5 -22.5h-18q-5 -7 -5 -17q0 -17 18.5 -25t66.5 -19l45 -11q62 -16 101 -46.5t39 -84.5q0 -69 -66.5 -108t-185.5 -39q-121 0 -179 32.5zM321 234q31 30 31 79q0 48 -31.5 78.5t-82.5 30.5q-49 0 -80 -30t-31 -79t31.5 -79t81.5 -30t81 30zM350.5 -122.5
q40.5 19.5 40.5 55.5q0 26 -24.5 39.5t-73.5 25.5l-50 12q-65 -4 -107.5 -26t-42.5 -59q0 -32 36.5 -49.5t107.5 -17.5q73 0 113.5 19.5zM106.5 564q-10.5 9 -10.5 23q0 26 29.5 59.5t65.5 60.5t48 29q12 -2 48 -29t65.5 -60.5t29.5 -59.5q0 -14 -10 -23t-24 -9
q-21 0 -46 25t-63 82q-40 -59 -63.5 -83t-43.5 -24q-15 0 -25.5 9z" />
    <glyph glyph-name="Gbreve" unicode="&#x11e;" horiz-adv-x="712" 
d="M641 325.5q14 -15.5 14 -43.5v-276q0 -3 -10.5 -6.5t-23.5 -3.5q-26 0 -41 18t-15 65v12q-31 -49 -86 -76t-129 -27q-92 0 -161.5 43t-107 119t-37.5 172q0 98 42 175t117.5 120t172.5 43q56 0 102 -13t79 -35q30 -20 47 -43t17 -43q0 -21 -12 -33.5t-27 -17.5t-17 -2
q-29 47 -80 72.5t-107 25.5q-66 0 -118 -31.5t-81 -88.5t-29 -130t26.5 -129.5t76.5 -88.5t117 -32q78 0 131 40t63 105v41h-152q-27 0 -39.5 9t-12.5 30v5q0 21 12.5 30.5t39.5 9.5h188q27 0 41 -15.5zM276.5 723.5q-39.5 27.5 -39.5 75.5q0 21 13.5 37.5t40.5 16.5
q13 -75 87 -75q75 0 88 75q27 0 40.5 -16.5t13.5 -37.5q0 -46 -35.5 -74.5t-106.5 -28.5q-62 0 -101.5 27.5z" />
    <glyph glyph-name="gbreve" unicode="&#x11f;" horiz-adv-x="489" 
d="M56 -178.5q-58 32.5 -58 100.5q0 51 42.5 85.5t110.5 46.5q-19 16 -19 45q0 28 27 52q-58 18 -92 61t-34 99q0 50 26.5 91.5t74 66t105.5 24.5q62 0 115 -29l26 46q12 20 25.5 29t31.5 9q17 0 29 -9t18 -20.5t4 -12.5l-82 -85q42 -48 42 -107q0 -50 -26.5 -90t-74 -62.5
t-107.5 -22.5h-18q-5 -7 -5 -17q0 -17 18.5 -25t66.5 -19l45 -11q62 -16 101 -46.5t39 -84.5q0 -69 -66.5 -108t-185.5 -39q-121 0 -179 32.5zM321 234q31 30 31 79q0 48 -31.5 78.5t-82.5 30.5q-49 0 -80 -30t-31 -79t31.5 -79t81.5 -30t81 30zM350.5 -122.5
q40.5 19.5 40.5 55.5q0 26 -24.5 39.5t-73.5 25.5l-50 12q-65 -4 -107.5 -26t-42.5 -59q0 -32 36.5 -49.5t107.5 -17.5q73 0 113.5 19.5zM141 577.5q-38 27.5 -38 75.5q0 21 13.5 37.5t40.5 16.5q13 -75 82 -75q37 0 56.5 19.5t25.5 55.5q27 0 40.5 -16.5t13.5 -37.5
q0 -46 -34 -74.5t-102 -28.5q-60 0 -98 27.5z" />
    <glyph glyph-name="Gdotaccent" unicode="&#x120;" horiz-adv-x="712" 
d="M641 325.5q14 -15.5 14 -43.5v-276q0 -3 -10.5 -6.5t-23.5 -3.5q-26 0 -41 18t-15 65v12q-31 -49 -86 -76t-129 -27q-92 0 -161.5 43t-107 119t-37.5 172q0 98 42 175t117.5 120t172.5 43q56 0 102 -13t79 -35q30 -20 47 -43t17 -43q0 -21 -12 -33.5t-27 -17.5t-17 -2
q-29 47 -80 72.5t-107 25.5q-66 0 -118 -31.5t-81 -88.5t-29 -130t26.5 -129.5t76.5 -88.5t117 -32q78 0 131 40t63 105v41h-152q-27 0 -39.5 9t-12.5 30v5q0 21 12.5 30.5t39.5 9.5h188q27 0 41 -15.5zM334.5 724.5q-15.5 15.5 -15.5 41.5q0 27 16 42.5t44 15.5t43 -15.5
t15 -42.5t-15.5 -42t-43.5 -15t-43.5 15.5z" />
    <glyph glyph-name="gdotaccent" unicode="&#x121;" horiz-adv-x="489" 
d="M56 -178.5q-58 32.5 -58 100.5q0 51 42.5 85.5t110.5 46.5q-19 16 -19 45q0 28 27 52q-58 18 -92 61t-34 99q0 50 26.5 91.5t74 66t105.5 24.5q62 0 115 -29l26 46q12 20 25.5 29t31.5 9q17 0 29 -9t18 -20.5t4 -12.5l-82 -85q42 -48 42 -107q0 -50 -26.5 -90t-74 -62.5
t-107.5 -22.5h-18q-5 -7 -5 -17q0 -17 18.5 -25t66.5 -19l45 -11q62 -16 101 -46.5t39 -84.5q0 -69 -66.5 -108t-185.5 -39q-121 0 -179 32.5zM321 234q31 30 31 79q0 48 -31.5 78.5t-82.5 30.5q-49 0 -80 -30t-31 -79t31.5 -79t81.5 -30t81 30zM350.5 -122.5
q40.5 19.5 40.5 55.5q0 26 -24.5 39.5t-73.5 25.5l-50 12q-65 -4 -107.5 -26t-42.5 -59q0 -32 36.5 -49.5t107.5 -17.5q73 0 113.5 19.5zM194.5 593.5q-15.5 15.5 -15.5 41.5q0 27 16 42.5t44 15.5t43 -15.5t15 -42.5t-15.5 -42t-43.5 -15t-43.5 15.5z" />
    <glyph glyph-name="uni0122" unicode="&#x122;" horiz-adv-x="712" 
d="M641 325.5q14 -15.5 14 -43.5v-276q0 -3 -10.5 -6.5t-23.5 -3.5q-26 0 -41 18t-15 65v12q-31 -49 -86 -76t-129 -27q-92 0 -161.5 43t-107 119t-37.5 172q0 98 42 175t117.5 120t172.5 43q56 0 102 -13t79 -35q30 -20 47 -43t17 -43q0 -21 -12 -33.5t-27 -17.5t-17 -2
q-29 47 -80 72.5t-107 25.5q-66 0 -118 -31.5t-81 -88.5t-29 -130t26.5 -129.5t76.5 -88.5t117 -32q78 0 131 40t63 105v41h-152q-27 0 -39.5 9t-12.5 30v5q0 21 12.5 30.5t39.5 9.5h188q27 0 41 -15.5zM324 -224q-15 0 -24.5 7t-4.5 18l40 108q10 22 19.5 30.5t33.5 8.5h9
q20 0 32.5 -9t12.5 -25v-2q0 -9 -6.5 -18.5t-24.5 -31.5l-66 -80q-7 -6 -21 -6z" />
    <glyph glyph-name="uni0123" unicode="&#x123;" horiz-adv-x="489" 
d="M56 -178.5q-58 32.5 -58 100.5q0 51 42.5 85.5t110.5 46.5q-19 16 -19 45q0 28 27 52q-58 18 -92 61t-34 99q0 50 26.5 91.5t74 66t105.5 24.5q62 0 115 -29l26 46q12 20 25.5 29t31.5 9q17 0 29 -9t18 -20.5t4 -12.5l-82 -85q42 -48 42 -107q0 -50 -26.5 -90t-74 -62.5
t-107.5 -22.5h-18q-5 -7 -5 -17q0 -17 18.5 -25t66.5 -19l45 -11q62 -16 101 -46.5t39 -84.5q0 -69 -66.5 -108t-185.5 -39q-121 0 -179 32.5zM321 234q31 30 31 79q0 48 -31.5 78.5t-82.5 30.5q-49 0 -80 -30t-31 -79t31.5 -79t81.5 -30t81 30zM350.5 -122.5
q40.5 19.5 40.5 55.5q0 26 -24.5 39.5t-73.5 25.5l-50 12q-65 -4 -107.5 -26t-42.5 -59q0 -32 36.5 -49.5t107.5 -17.5q73 0 113.5 19.5zM197.5 564q-12.5 9 -12.5 25v2q0 9 6.5 18.5t24.5 31.5l66 80q7 6 21 6q15 0 24.5 -7t4.5 -18l-40 -108q-10 -22 -19.5 -30.5
t-33.5 -8.5h-9q-20 0 -32.5 9z" />
    <glyph glyph-name="Hcircumflex" unicode="&#x124;" horiz-adv-x="685" 
d="M69 43v561q0 47 43 47h15q45 0 45 -47v-235h341v235q0 47 43 47h15q45 0 45 -47v-561q0 -47 -45 -47h-15q-43 0 -43 47v236h-341v-236q0 -47 -45 -47h-15q-43 0 -43 47zM204.5 705.5q-10.5 8.5 -10.5 22.5q0 25 30.5 56.5t68 57.5t49.5 28q12 -2 49.5 -28t68 -57.5
t30.5 -56.5q0 -14 -9.5 -22.5t-24.5 -8.5q-22 0 -48.5 23.5t-65.5 76.5q-41 -55 -66 -77.5t-46 -22.5q-15 0 -25.5 8.5z" />
    <glyph glyph-name="hcircumflex" unicode="&#x125;" horiz-adv-x="561" 
d="M458 436q47 -57 47 -151v-242q0 -47 -44 -47h-11q-44 0 -44 47v231q0 62 -29.5 97t-81.5 35q-62 0 -98.5 -38t-36.5 -103v-222q0 -47 -44 -47h-11q-44 0 -44 47v633q0 3 11 7t25 4q27 0 45 -19t18 -66v-197q58 88 159 88q92 0 139 -57zM-33.5 705.5q-10.5 8.5 -10.5 22.5
q0 25 30.5 56.5t68 57.5t49.5 28q12 -2 49.5 -28t68 -57.5t30.5 -56.5q0 -14 -9.5 -22.5t-24.5 -8.5q-22 0 -48.5 23.5t-65.5 76.5q-41 -55 -66 -77.5t-46 -22.5q-15 0 -25.5 8.5z" />
    <glyph glyph-name="Hbar" unicode="&#x126;" horiz-adv-x="685" 
d="M69 43v422h-28q-20 0 -29.5 6t-9.5 21v7q0 26 39 26h28v79q0 47 43 47h15q45 0 45 -47v-79h341v79q0 47 43 47h15q45 0 45 -47v-79h28q39 0 39 -26v-7q0 -15 -9.5 -21t-29.5 -6h-28v-422q0 -47 -45 -47h-15q-43 0 -43 47v236h-341v-236q0 -47 -45 -47h-15q-43 0 -43 47z
M513 369v96h-341v-96h341z" />
    <glyph glyph-name="hbar" unicode="&#x127;" horiz-adv-x="561" 
d="M458 436q47 -57 47 -151v-242q0 -47 -44 -47h-11q-44 0 -44 47v231q0 62 -29.5 97t-81.5 35q-62 0 -98.5 -38t-36.5 -103v-222q0 -47 -44 -47h-11q-44 0 -44 47v495h-37q-39 0 -39 29v7q0 28 39 28h37v74q0 3 11 7t25 4q25 0 42.5 -16.5t20.5 -56.5v-12h83q39 0 39 -28
v-7q0 -29 -39 -29h-83v-132q25 40 65 63.5t94 23.5q92 0 139 -57z" />
    <glyph glyph-name="Itilde" unicode="&#x128;" horiz-adv-x="259" 
d="M78 604q0 47 44 47h14q45 0 45 -47v-561q0 -47 -45 -47h-14q-44 0 -44 47v561zM-22 726q-9 11 -9 30q0 20 9.5 42t29 37t46.5 15q30 0 66 -22q30 -18 74 -59q24 75 62 75q15 0 24 -11q9 -10 9 -31q0 -20 -10 -41.5t-29.5 -36.5t-46.5 -15q-32 0 -65 21q-29 19 -74 60
q-26 -75 -62 -75q-15 0 -24 11z" />
    <glyph glyph-name="itilde" unicode="&#x129;" horiz-adv-x="230" 
d="M-32 583q-10 10 -10 27q0 40 24 70t58 30q32 0 66 -23q31 -19 69 -60q9 30 25.5 53.5t32.5 23.5q17 0 27 -10t10 -28q0 -39 -24.5 -69t-57.5 -30q-31 0 -67 22q-32 22 -68 61q-10 -31 -26 -54t-32 -23q-17 0 -27 10zM65 43v395q0 48 45 48h10q21 0 32.5 -11t11.5 -37
v-395q0 -47 -44 -47h-10q-45 0 -45 47z" />
    <glyph glyph-name="Imacron" unicode="&#x12a;" horiz-adv-x="259" 
d="M78 604q0 47 44 47h14q45 0 45 -47v-561q0 -47 -45 -47h-14q-44 0 -44 47v561zM-33 763v6q0 18 13 27.5t37 9.5h224q24 0 37 -9.5t13 -27.5v-6q0 -39 -50 -39h-224q-50 0 -50 39z" />
    <glyph glyph-name="imacron" unicode="&#x12b;" horiz-adv-x="230" 
d="M65 43v395q0 48 45 48h10q21 0 32.5 -11t11.5 -37v-395q0 -47 -44 -47h-10q-45 0 -45 47zM-33 625v6q0 18 13 27.5t37 9.5h194q24 0 37 -9.5t13 -27.5v-6q0 -39 -50 -39h-194q-50 0 -50 39z" />
    <glyph glyph-name="Ibreve" unicode="&#x12c;" horiz-adv-x="259" 
d="M78 604q0 47 44 47h14q45 0 45 -47v-561q0 -47 -45 -47h-14q-44 0 -44 47v561zM27.5 723.5q-39.5 27.5 -39.5 75.5q0 21 13.5 37.5t40.5 16.5q13 -75 87 -75q75 0 88 75q27 0 40.5 -16.5t13.5 -37.5q0 -46 -35.5 -74.5t-106.5 -28.5q-62 0 -101.5 27.5z" />
    <glyph glyph-name="ibreve" unicode="&#x12d;" horiz-adv-x="230" 
d="M65 43v395q0 48 45 48h10q21 0 32.5 -11t11.5 -37v-395q0 -47 -44 -47h-10q-45 0 -45 47zM16 577.5q-38 27.5 -38 75.5q0 21 13.5 37.5t40.5 16.5q13 -75 82 -75q37 0 56.5 19.5t25.5 55.5q27 0 40.5 -16.5t13.5 -37.5q0 -46 -34 -74.5t-102 -28.5q-60 0 -98 27.5z" />
    <glyph glyph-name="Iogonek" unicode="&#x12e;" horiz-adv-x="259" 
d="M40.5 -178q-27.5 23 -27.5 62q0 32 22 62t64 54q-21 11 -21 43v561q0 47 44 47h14q45 0 45 -47v-561q0 -26 -14 -38q-43 -34 -60.5 -58t-17.5 -44q0 -16 9.5 -25.5t23.5 -9.5q25 0 37 20q13 -1 23 -11.5t10 -26.5q0 -23 -21 -37t-57 -14q-46 0 -73.5 23z" />
    <glyph glyph-name="iogonek" unicode="&#x12f;" horiz-adv-x="230" 
d="M71.5 598.5q-15.5 14.5 -15.5 40.5q0 27 15.5 41.5t44.5 14.5q28 0 43 -14.5t15 -41.5t-15 -41t-44 -14q-28 0 -43.5 14.5zM24.5 -178q-27.5 23 -27.5 62q0 32 22 62.5t65 54.5q-19 11 -19 42v395q0 48 45 48h10q21 0 32.5 -11t11.5 -37v-395q0 -27 -13 -38
q-43 -34 -60.5 -58t-17.5 -44q0 -16 9.5 -25.5t23.5 -9.5q25 0 37 20q13 -1 23 -11.5t10 -26.5q0 -23 -21 -37t-57 -14q-46 0 -73.5 23z" />
    <glyph glyph-name="Idotaccent" unicode="&#x130;" horiz-adv-x="259" 
d="M78 604q0 47 44 47h14q45 0 45 -47v-561q0 -47 -45 -47h-14q-44 0 -44 47v561zM85.5 724.5q-15.5 15.5 -15.5 41.5q0 27 16 42.5t44 15.5t43 -15.5t15 -42.5t-15.5 -42t-43.5 -15t-43.5 15.5z" />
    <glyph glyph-name="dotlessi" unicode="&#x131;" horiz-adv-x="230" 
d="M65 43v395q0 48 45 48h10q21 0 32.5 -11t11.5 -37v-395q0 -47 -44 -47h-10q-45 0 -45 47z" />
    <glyph glyph-name="IJ" unicode="&#x132;" horiz-adv-x="723" 
d="M78 604q0 47 44 47h14q45 0 45 -47v-561q0 -47 -45 -47h-14q-44 0 -44 47v561zM292.5 122q10.5 13 23 20.5t13.5 4.5q18 -33 48 -52t69 -19q59 0 85 33t26 110v385q0 47 44 47h15q44 0 44 -47v-386q0 -118 -51 -174.5t-155 -56.5q-50 0 -89 15.5t-61 39.5t-22 49
q0 18 10.5 31z" />
    <glyph glyph-name="ij" unicode="&#x133;" horiz-adv-x="460" 
d="M73 677.5q16 15.5 44 15.5t43 -15.5t15 -42.5t-15.5 -42t-43.5 -15t-43.5 15.5t-15.5 41.5q0 27 16 42.5zM65 438q0 48 45 48h10q21 0 32.5 -11t11.5 -37v-395q0 -47 -44 -47h-10q-45 0 -45 47v395zM303 677.5q16 15.5 44 15.5t43 -15.5t15 -42.5t-15.5 -42t-43.5 -15
t-43.5 15.5t-15.5 41.5q0 27 16 42.5zM148 -136q0 12 5 23t11 17.5t7 5.5q28 -28 64 -28q32 0 46 18t14 59v479q0 48 45 48h10q21 0 32.5 -11t11.5 -37v-485q0 -74 -37 -113.5t-107 -39.5q-59 0 -87 28q-15 15 -15 36z" />
    <glyph glyph-name="Jcircumflex" unicode="&#x134;" horiz-adv-x="464" 
d="M33.5 122q10.5 13 23 20.5t13.5 4.5q18 -33 48 -52t69 -19q59 0 85 33t26 110v385q0 47 44 47h15q44 0 44 -47v-386q0 -118 -51 -174.5t-155 -56.5q-50 0 -89 15.5t-61 39.5t-22 49q0 18 10.5 31zM212.5 705.5q-10.5 8.5 -10.5 22.5q0 25 30.5 56.5t68 57.5t49.5 28
q12 -2 49.5 -28t68 -57.5t30.5 -56.5q0 -14 -9.5 -22.5t-24.5 -8.5q-22 0 -48.5 23.5t-65.5 76.5q-41 -55 -66 -77.5t-46 -22.5q-15 0 -25.5 8.5z" />
    <glyph glyph-name="jcircumflex" unicode="&#x135;" horiz-adv-x="230" 
d="M-67 -172q-15 15 -15 36q0 12 5 23t11 17.5t7 5.5q28 -28 64 -28q32 0 46 18t14 59v479q0 48 45 48h10q21 0 32.5 -11t11.5 -37v-485q0 -74 -37 -113.5t-107 -39.5q-59 0 -87 28zM-17.5 564q-10.5 9 -10.5 23q0 26 29.5 59.5t65.5 60.5t48 29q12 -2 48 -29t65.5 -60.5
t29.5 -59.5q0 -14 -10 -23t-24 -9q-21 0 -46 25t-63 82q-40 -59 -63.5 -83t-43.5 -24q-15 0 -25.5 9z" />
    <glyph glyph-name="uni0136" unicode="&#x136;" horiz-adv-x="582" 
d="M69 604q0 47 43 47h15q45 0 45 -47v-260l259 274q15 19 28.5 26t28.5 7q20 0 33 -9.5t18.5 -21.5t4.5 -15l-258 -274l265 -290q3 -3 -3.5 -14.5t-21 -21t-34.5 -9.5q-17 0 -30 7t-26 22l-264 288v-270q0 -47 -45 -47h-15q-43 0 -43 47v561zM255 -224q-15 0 -24.5 7
t-4.5 18l40 108q10 22 19.5 30.5t33.5 8.5h9q20 0 32.5 -9t12.5 -25v-2q0 -9 -6.5 -18.5t-24.5 -31.5l-66 -80q-7 -6 -21 -6z" />
    <glyph glyph-name="uni0137" unicode="&#x137;" horiz-adv-x="474" 
d="M61 676q0 3 11 7t25 4q27 0 45 -19t18 -66v-337l167 187q27 34 59 34q16 0 28.5 -8t18.5 -18t4 -13l-175 -193l202 -219q2 -3 -5 -13t-20 -18.5t-29 -8.5q-32 0 -59 34l-191 206v-192q0 -47 -44 -47h-11q-44 0 -44 47v633zM189 -224q-15 0 -24.5 7t-4.5 18l40 108
q10 22 19.5 30.5t33.5 8.5h9q20 0 32.5 -9t12.5 -25v-2q0 -9 -6.5 -18.5t-24.5 -31.5l-66 -80q-7 -6 -21 -6z" />
    <glyph glyph-name="kgreenlandic" unicode="&#x138;" horiz-adv-x="474" 
d="M351 29l-191 206v-192q0 -47 -44 -47h-11q-44 0 -44 47v432q0 3 11 7t25 4q27 0 45 -19t18 -66v-136l167 187q27 34 59 34q16 0 28.5 -8t18.5 -18t4 -13l-175 -193l202 -219q2 -3 -5 -13t-20 -18.5t-29 -8.5q-32 0 -59 34z" />
    <glyph glyph-name="Lacute" unicode="&#x139;" horiz-adv-x="528" 
d="M84 15.5q-15 15.5 -15 41.5v547q0 47 43 47h15q45 0 45 -47v-511h281q48 0 48 -44v-4q0 -22 -12.5 -33.5t-35.5 -11.5h-329q-25 0 -40 15.5zM43 707q0 11 25 50t60 71t69 32q21 0 32.5 -12t11.5 -31q0 -33 -40.5 -59t-89 -41t-60.5 -15q-8 0 -8 5z" />
    <glyph glyph-name="lacute" unicode="&#x13a;" horiz-adv-x="230" 
d="M25 707q0 11 25 50t60 71t69 32q21 0 32.5 -12t11.5 -31q0 -33 -40.5 -59t-89 -41t-60.5 -15q-8 0 -8 5zM65 43v633q0 3 11.5 7t24.5 4q63 0 63 -85v-559q0 -47 -44 -47h-10q-45 0 -45 47z" />
    <glyph glyph-name="uni013B" unicode="&#x13b;" horiz-adv-x="528" 
d="M84 15.5q-15 15.5 -15 41.5v547q0 47 43 47h15q45 0 45 -47v-511h281q48 0 48 -44v-4q0 -22 -12.5 -33.5t-35.5 -11.5h-329q-25 0 -40 15.5zM216 -224q-15 0 -24.5 7t-4.5 18l40 108q10 22 19.5 30.5t33.5 8.5h9q20 0 32.5 -9t12.5 -25v-2q0 -9 -6.5 -18.5t-24.5 -31.5
l-66 -80q-7 -6 -21 -6z" />
    <glyph glyph-name="uni013C" unicode="&#x13c;" horiz-adv-x="230" 
d="M65 43v633q0 3 11.5 7t24.5 4q63 0 63 -85v-559q0 -47 -44 -47h-10q-45 0 -45 47zM60 -224q-15 0 -24.5 7t-4.5 18l40 108q10 22 19.5 30.5t33.5 8.5h9q20 0 32.5 -9t12.5 -25v-2q0 -9 -6.5 -18.5t-24.5 -31.5l-66 -80q-7 -6 -21 -6z" />
    <glyph glyph-name="Lcaron" unicode="&#x13d;" horiz-adv-x="528" 
d="M287 552v75q0 39 7 51.5t34 12.5h9q39 0 39 -37q0 -7 -4 -27l-18 -75q-4 -17 -9 -23.5t-16 -6.5h-18q-24 0 -24 30zM84 15.5q-15 15.5 -15 41.5v547q0 47 43 47h15q45 0 45 -47v-511h281q48 0 48 -44v-4q0 -22 -12.5 -33.5t-35.5 -11.5h-329q-25 0 -40 15.5z" />
    <glyph glyph-name="lcaron" unicode="&#x13e;" horiz-adv-x="288" 
d="M215 552v75q0 39 7 51.5t34 12.5h9q39 0 39 -37q0 -7 -4 -27l-18 -75q-4 -17 -9 -23.5t-16 -6.5h-18q-24 0 -24 30zM65 43v633q0 3 11.5 7t24.5 4q63 0 63 -85v-559q0 -47 -44 -47h-10q-45 0 -45 47z" />
    <glyph glyph-name="Ldot" unicode="&#x13f;" horiz-adv-x="528" 
d="M84 15.5q-15 15.5 -15 41.5v547q0 47 43 47h15q45 0 45 -47v-511h281q48 0 48 -44v-4q0 -22 -12.5 -33.5t-35.5 -11.5h-329q-25 0 -40 15.5zM290 343v12q0 26 14 40.5t40 14.5h14q27 0 41 -14.5t14 -40.5v-12q0 -53 -55 -53h-14q-54 0 -54 53z" />
    <glyph glyph-name="ldot" unicode="&#x140;" horiz-adv-x="377" 
d="M65 43v633q0 3 11.5 7t24.5 4q63 0 63 -85v-559q0 -47 -44 -47h-10q-45 0 -45 47zM244 326v12q0 26 14 40.5t40 14.5h14q27 0 41 -14.5t14 -40.5v-12q0 -53 -55 -53h-14q-54 0 -54 53z" />
    <glyph glyph-name="Lslash" unicode="&#x141;" horiz-adv-x="548" 
d="M120 15.5q-15 15.5 -15 41.5v255l-71 -22q-4 -2 -12 12.5t-8 29.5q0 19 12.5 32t46.5 24l32 11v205q0 47 43 47h15q45 0 45 -47v-174l182 56q5 1 12.5 -13t7.5 -29q0 -19 -13 -32.5t-46 -23.5l-143 -44v-251h281q48 0 48 -44v-4q0 -22 -12.5 -33.5t-35.5 -11.5h-329
q-25 0 -40 15.5z" />
    <glyph glyph-name="lslash" unicode="&#x142;" 
d="M115 43v296l-82 -26q-4 -2 -12 13.5t-8 29.5q0 17 12.5 30t45.5 24l44 14v252q0 3 11.5 7t24.5 4q63 0 63 -85v-147l90 28q4 2 12 -13.5t8 -29.5q0 -17 -13 -30t-46 -24l-51 -17v-326q0 -47 -44 -47h-10q-45 0 -45 47z" />
    <glyph glyph-name="Nacute" unicode="&#x143;" horiz-adv-x="683" 
d="M69 43v550q0 27 12.5 42.5t36.5 15.5h17q22 0 34 -8.5t28 -30.5l320 -454v446q0 47 43 47h12q42 0 42 -47v-550q0 -27 -13 -42.5t-35 -15.5h-8q-22 0 -32 6.5t-23 24.5l-337 477v-461q0 -47 -44 -47h-11q-42 0 -42 47zM262 707q0 11 25 50t60 71t69 32q21 0 32.5 -12
t11.5 -31q0 -33 -40.5 -59t-89 -41t-60.5 -15q-8 0 -8 5z" />
    <glyph glyph-name="nacute" unicode="&#x144;" horiz-adv-x="561" 
d="M458 436.5q47 -56.5 47 -149.5v-244q0 -47 -44 -47h-11q-44 0 -44 47v232q0 61 -29.5 96t-81.5 35q-46 0 -81 -22.5t-54 -61.5v-279q0 -47 -44 -47h-11q-44 0 -44 47v432q0 3 11 7t25 4q25 0 43 -17.5t19 -60.5q27 40 67.5 62.5t92.5 22.5q92 0 139 -56.5zM198 560
q0 11 23 52t56.5 74.5t67.5 33.5q20 0 31.5 -12.5t11.5 -32.5q0 -33 -38.5 -60t-85 -43.5t-58.5 -16.5q-8 0 -8 5z" />
    <glyph glyph-name="uni0145" unicode="&#x145;" horiz-adv-x="683" 
d="M69 43v550q0 27 12.5 42.5t36.5 15.5h17q22 0 34 -8.5t28 -30.5l320 -454v446q0 47 43 47h12q42 0 42 -47v-550q0 -27 -13 -42.5t-35 -15.5h-8q-22 0 -32 6.5t-23 24.5l-337 477v-461q0 -47 -44 -47h-11q-42 0 -42 47zM286 -224q-15 0 -24.5 7t-4.5 18l40 108
q10 22 19.5 30.5t33.5 8.5h9q20 0 32.5 -9t12.5 -25v-2q0 -9 -6.5 -18.5t-24.5 -31.5l-66 -80q-7 -6 -21 -6z" />
    <glyph glyph-name="uni0146" unicode="&#x146;" horiz-adv-x="561" 
d="M458 436.5q47 -56.5 47 -149.5v-244q0 -47 -44 -47h-11q-44 0 -44 47v232q0 61 -29.5 96t-81.5 35q-46 0 -81 -22.5t-54 -61.5v-279q0 -47 -44 -47h-11q-44 0 -44 47v432q0 3 11 7t25 4q25 0 43 -17.5t19 -60.5q27 40 67.5 62.5t92.5 22.5q92 0 139 -56.5zM228 -224
q-15 0 -24.5 7t-4.5 18l40 108q10 22 19.5 30.5t33.5 8.5h9q20 0 32.5 -9t12.5 -25v-2q0 -9 -6.5 -18.5t-24.5 -31.5l-66 -80q-7 -6 -21 -6z" />
    <glyph glyph-name="Ncaron" unicode="&#x147;" horiz-adv-x="683" 
d="M69 43v550q0 27 12.5 42.5t36.5 15.5h17q22 0 34 -8.5t28 -30.5l320 -454v446q0 47 43 47h12q42 0 42 -47v-550q0 -27 -13 -42.5t-35 -15.5h-8q-22 0 -32 6.5t-23 24.5l-337 477v-461q0 -47 -44 -47h-11q-42 0 -42 47zM291.5 720q-37.5 26 -68 57.5t-30.5 56.5
q0 14 9.5 22.5t24.5 8.5q22 0 48.5 -23.5t65.5 -76.5q41 55 66 77.5t46 22.5q15 0 25.5 -8.5t10.5 -22.5q0 -25 -30.5 -56.5t-68 -57.5t-49.5 -28q-12 2 -49.5 28z" />
    <glyph glyph-name="ncaron" unicode="&#x148;" horiz-adv-x="561" 
d="M458 436.5q47 -56.5 47 -149.5v-244q0 -47 -44 -47h-11q-44 0 -44 47v232q0 61 -29.5 96t-81.5 35q-46 0 -81 -22.5t-54 -61.5v-279q0 -47 -44 -47h-11q-44 0 -44 47v432q0 3 11 7t25 4q25 0 43 -17.5t19 -60.5q27 40 67.5 62.5t92.5 22.5q92 0 139 -56.5zM235 579
q-36 27 -65 60.5t-29 59.5q0 14 10 23.5t24 9.5q20 0 44.5 -25t63.5 -83q39 58 63.5 83t44.5 25q14 0 24 -9.5t10 -23.5q0 -26 -29 -59.5t-65 -60.5t-48 -29q-12 2 -48 29z" />
    <glyph glyph-name="Eng" unicode="&#x14a;" horiz-adv-x="683" 
d="M325 -187.5q-39 15.5 -61 39.5t-22 49q0 18 10.5 31t23 20.5t13.5 4.5q18 -33 48 -52t69 -19q56 0 81.5 28.5t28.5 95.5q-3 3 -13 17l-337 477v-461q0 -47 -44 -47h-11q-42 0 -42 47v550q0 27 12.5 42.5t36.5 15.5h17q22 0 34 -8.5t28 -30.5l320 -454v446q0 47 43 47h12
q42 0 42 -47v-576q0 -231 -200 -231q-50 0 -89 15.5z" />
    <glyph glyph-name="eng" unicode="&#x14b;" horiz-adv-x="561" 
d="M286 -182q-27 17 -27 46q0 12 5 23t11 17.5t7 5.5q28 -28 64 -28q32 0 46 18t14 59v316q0 60 -29.5 95.5t-81.5 35.5q-46 0 -81 -22.5t-54 -61.5v-279q0 -47 -44 -47h-11q-44 0 -44 47v432q0 3 11 7t25 4q36 0 52 -33q8 -15 10 -45q26 39 66.5 62t93.5 23q88 0 137 -57
t49 -149v-286q0 -69 -11.5 -112t-43 -66t-89.5 -23q-48 0 -75 18z" />
    <glyph glyph-name="Omacron" unicode="&#x14c;" horiz-adv-x="741" 
d="M200.5 29.5q-74.5 42.5 -116 119t-41.5 173.5q0 98 42 175t117 120t169 43q95 0 169.5 -42.5t116 -119t41.5 -174.5t-42 -174.5t-116.5 -119.5t-169.5 -43t-169.5 42.5zM486.5 109q50.5 31 79 86.5t28.5 126.5t-28.5 127.5t-79.5 88t-116 31.5t-115.5 -31t-79 -86.5
t-28.5 -127.5q0 -71 28.5 -127t79.5 -87.5t116 -31.5t115.5 31zM208 763v6q0 18 13 27.5t37 9.5h224q24 0 37 -9.5t13 -27.5v-6q0 -39 -50 -39h-224q-50 0 -50 39z" />
    <glyph glyph-name="omacron" unicode="&#x14d;" horiz-adv-x="568" 
d="M64 371q32 57 89.5 89.5t131.5 32.5q73 0 130 -32.5t89 -90.5t32 -131t-32 -130t-89.5 -89.5t-130.5 -32.5q-74 0 -131 32.5t-89 90t-32 131.5q0 73 32 130zM423.5 327.5q-20.5 39.5 -57 62t-82.5 22.5q-45 0 -82 -22t-58 -61t-21 -88t21 -88.5t58 -62t82 -22.5
t81.5 22.5t57.5 61.5t21 87q0 49 -20.5 88.5zM137 625v6q0 18 13 27.5t37 9.5h194q24 0 37 -9.5t13 -27.5v-6q0 -39 -50 -39h-194q-50 0 -50 39z" />
    <glyph glyph-name="Obreve" unicode="&#x14e;" horiz-adv-x="741" 
d="M200.5 29.5q-74.5 42.5 -116 119t-41.5 173.5q0 98 42 175t117 120t169 43q95 0 169.5 -42.5t116 -119t41.5 -174.5t-42 -174.5t-116.5 -119.5t-169.5 -43t-169.5 42.5zM486.5 109q50.5 31 79 86.5t28.5 126.5t-28.5 127.5t-79.5 88t-116 31.5t-115.5 -31t-79 -86.5
t-28.5 -127.5q0 -71 28.5 -127t79.5 -87.5t116 -31.5t115.5 31zM268.5 723.5q-39.5 27.5 -39.5 75.5q0 21 13.5 37.5t40.5 16.5q13 -75 87 -75q75 0 88 75q27 0 40.5 -16.5t13.5 -37.5q0 -46 -35.5 -74.5t-106.5 -28.5q-62 0 -101.5 27.5z" />
    <glyph glyph-name="obreve" unicode="&#x14f;" horiz-adv-x="568" 
d="M64 371q32 57 89.5 89.5t131.5 32.5q73 0 130 -32.5t89 -90.5t32 -131t-32 -130t-89.5 -89.5t-130.5 -32.5q-74 0 -131 32.5t-89 90t-32 131.5q0 73 32 130zM423.5 327.5q-20.5 39.5 -57 62t-82.5 22.5q-45 0 -82 -22t-58 -61t-21 -88t21 -88.5t58 -62t82 -22.5
t81.5 22.5t57.5 61.5t21 87q0 49 -20.5 88.5zM186 577.5q-38 27.5 -38 75.5q0 21 13.5 37.5t40.5 16.5q13 -75 82 -75q37 0 56.5 19.5t25.5 55.5q27 0 40.5 -16.5t13.5 -37.5q0 -46 -34 -74.5t-102 -28.5q-60 0 -98 27.5z" />
    <glyph glyph-name="Ohungarumlaut" unicode="&#x150;" horiz-adv-x="741" 
d="M200.5 29.5q-74.5 42.5 -116 119t-41.5 173.5q0 98 42 175t117 120t169 43q95 0 169.5 -42.5t116 -119t41.5 -174.5t-42 -174.5t-116.5 -119.5t-169.5 -43t-169.5 42.5zM486.5 109q50.5 31 79 86.5t28.5 126.5t-28.5 127.5t-79.5 88t-116 31.5t-115.5 -31t-79 -86.5
t-28.5 -127.5q0 -71 28.5 -127t79.5 -87.5t116 -31.5t115.5 31zM250 707q0 11 20 50t50 71t61 32q20 0 30.5 -10.5t10.5 -28.5q0 -32 -35.5 -58.5t-79 -43.5t-53.5 -17q-4 0 -4 5zM434 707q0 11 20 50t50 71t61 32q20 0 30.5 -10.5t10.5 -28.5q0 -32 -35.5 -58.5t-79 -43.5
t-53.5 -17q-4 0 -4 5z" />
    <glyph glyph-name="ohungarumlaut" unicode="&#x151;" horiz-adv-x="568" 
d="M64 371q32 57 89.5 89.5t131.5 32.5q73 0 130 -32.5t89 -90.5t32 -131t-32 -130t-89.5 -89.5t-130.5 -32.5q-74 0 -131 32.5t-89 90t-32 131.5q0 73 32 130zM423.5 327.5q-20.5 39.5 -57 62t-82.5 22.5q-45 0 -82 -22t-58 -61t-21 -88t21 -88.5t58 -62t82 -22.5
t81.5 22.5t57.5 61.5t21 87q0 49 -20.5 88.5zM164 560q0 11 20 51t50 72.5t61 32.5q20 0 30.5 -10.5t10.5 -28.5q0 -32 -35.5 -59.5t-79 -45t-53.5 -17.5q-4 0 -4 5zM342 560q0 11 20 51t50 72.5t61 32.5q20 0 30.5 -10.5t10.5 -28.5q0 -32 -35.5 -59.5t-79 -45t-53.5 -17.5
q-4 0 -4 5z" />
    <glyph glyph-name="OE" unicode="&#x152;" horiz-adv-x="1031" 
d="M200.5 29.5q-74.5 42.5 -116 119t-41.5 173.5q0 98 42 175t117 120t169 43q48 0 97 -13h475q24 0 36 -11t12 -32v-6q0 -43 -48 -43h-337q37 -32 60 -78t27 -103h176q48 0 48 -41v-3q0 -43 -48 -43h-175q-3 -61 -26 -111t-63 -85h344q47 0 47 -41v-5q0 -45 -47 -45h-481
q-49 -13 -98 -13q-95 0 -169.5 42.5zM486.5 109q50.5 31 79 86.5t28.5 126.5t-28.5 127.5t-79.5 88t-116 31.5t-115.5 -31t-79 -86.5t-28.5 -127.5q0 -71 28.5 -127t79.5 -87.5t116 -31.5t115.5 31z" />
    <glyph glyph-name="oe" unicode="&#x153;" horiz-adv-x="952" 
d="M153 19.5q-57 32.5 -89 90t-32 131.5q0 73 32 130t89.5 89.5t131.5 32.5q66 0 119 -29.5t84 -81.5q31 52 83.5 81.5t118.5 29.5q69 0 121 -30.5t81 -85.5t29 -126v-8q0 -16 -6.5 -22.5t-23.5 -6.5h-355q0 -5 2 -17q10 -59 54 -95.5t108 -36.5q58 0 94 21.5t57 58.5
q2 2 15.5 -2.5t25 -16t11.5 -30.5q0 -27 -34 -56q-28 -24 -71.5 -38.5t-99.5 -14.5q-73 0 -127.5 28t-85.5 80q-31 -51 -83.5 -79.5t-117.5 -28.5q-74 0 -131 32.5zM825 281q-4 63 -40 100t-96 37q-59 0 -101 -38.5t-51 -98.5h288zM365.5 90.5q36.5 22.5 57.5 61.5t21 87
q0 49 -20.5 88.5t-57 62t-82.5 22.5q-45 0 -82 -22t-58 -61t-21 -88t21 -88.5t58 -62t82 -22.5t81.5 22.5z" />
    <glyph glyph-name="Racute" unicode="&#x154;" horiz-adv-x="589" 
d="M80 9.5q-11 13.5 -11 39.5v540q0 26 15 42t40 16h184q119 0 180.5 -49t61.5 -145q0 -73 -39 -120.5t-113 -63.5q-19 -4 -41 -6l189 -225q3 -3 -4 -14t-21.5 -19.5t-34.5 -8.5t-35 9t-32 31l-177 217h-71v-210q0 -22 -11.5 -34.5t-33.5 -12.5h-14q-21 0 -32 13.5zM306 334
q70 0 105 30t35 84q0 114 -143 114h-133v-228h136zM207 707q0 11 25 50t60 71t69 32q21 0 32.5 -12t11.5 -31q0 -33 -40.5 -59t-89 -41t-60.5 -15q-8 0 -8 5z" />
    <glyph glyph-name="racute" unicode="&#x155;" horiz-adv-x="372" 
d="M339 476q21 -17 21 -47q0 -17 -6.5 -29t-14.5 -17.5t-9 -4.5q-26 21 -61 21q-56 0 -82.5 -49.5t-26.5 -137.5v-169q0 -47 -44 -47h-11q-44 0 -44 47v432q0 3 11 7t25 4q45 0 58 -48q4 -20 4 -36q32 91 122 91q37 0 58 -17zM98 560q0 11 23 52t56.5 74.5t67.5 33.5
q20 0 31.5 -12.5t11.5 -32.5q0 -33 -38.5 -60t-85 -43.5t-58.5 -16.5q-8 0 -8 5z" />
    <glyph glyph-name="uni0156" unicode="&#x156;" horiz-adv-x="589" 
d="M80 9.5q-11 13.5 -11 39.5v540q0 26 15 42t40 16h184q119 0 180.5 -49t61.5 -145q0 -73 -39 -120.5t-113 -63.5q-19 -4 -41 -6l189 -225q3 -3 -4 -14t-21.5 -19.5t-34.5 -8.5t-35 9t-32 31l-177 217h-71v-210q0 -22 -11.5 -34.5t-33.5 -12.5h-14q-21 0 -32 13.5zM306 334
q70 0 105 30t35 84q0 114 -143 114h-133v-228h136zM233 -224q-15 0 -24.5 7t-4.5 18l40 108q10 22 19.5 30.5t33.5 8.5h9q20 0 32.5 -9t12.5 -25v-2q0 -9 -6.5 -18.5t-24.5 -31.5l-66 -80q-7 -6 -21 -6z" />
    <glyph glyph-name="uni0157" unicode="&#x157;" horiz-adv-x="372" 
d="M339 476q21 -17 21 -47q0 -17 -6.5 -29t-14.5 -17.5t-9 -4.5q-26 21 -61 21q-56 0 -82.5 -49.5t-26.5 -137.5v-169q0 -47 -44 -47h-11q-44 0 -44 47v432q0 3 11 7t25 4q45 0 58 -48q4 -20 4 -36q32 91 122 91q37 0 58 -17zM57 -224q-15 0 -24.5 7t-4.5 18l40 108
q10 22 19.5 30.5t33.5 8.5h9q20 0 32.5 -9t12.5 -25v-2q0 -9 -6.5 -18.5t-24.5 -31.5l-66 -80q-7 -6 -21 -6z" />
    <glyph glyph-name="Rcaron" unicode="&#x158;" horiz-adv-x="589" 
d="M80 9.5q-11 13.5 -11 39.5v540q0 26 15 42t40 16h184q119 0 180.5 -49t61.5 -145q0 -73 -39 -120.5t-113 -63.5q-19 -4 -41 -6l189 -225q3 -3 -4 -14t-21.5 -19.5t-34.5 -8.5t-35 9t-32 31l-177 217h-71v-210q0 -22 -11.5 -34.5t-33.5 -12.5h-14q-21 0 -32 13.5zM306 334
q70 0 105 30t35 84q0 114 -143 114h-133v-228h136zM236.5 720q-37.5 26 -68 57.5t-30.5 56.5q0 14 9.5 22.5t24.5 8.5q22 0 48.5 -23.5t65.5 -76.5q41 55 66 77.5t46 22.5q15 0 25.5 -8.5t10.5 -22.5q0 -25 -30.5 -56.5t-68 -57.5t-49.5 -28q-12 2 -49.5 28z" />
    <glyph glyph-name="rcaron" unicode="&#x159;" horiz-adv-x="372" 
d="M339 476q21 -17 21 -47q0 -17 -6.5 -29t-14.5 -17.5t-9 -4.5q-26 21 -61 21q-56 0 -82.5 -49.5t-26.5 -137.5v-169q0 -47 -44 -47h-11q-44 0 -44 47v432q0 3 11 7t25 4q45 0 58 -48q4 -20 4 -36q32 91 122 91q37 0 58 -17zM135 579q-36 27 -65 60.5t-29 59.5
q0 14 10 23.5t24 9.5q20 0 44.5 -25t63.5 -83q39 58 63.5 83t44.5 25q14 0 24 -9.5t10 -23.5q0 -26 -29 -59.5t-65 -60.5t-48 -29q-12 2 -48 29z" />
    <glyph glyph-name="Sacute" unicode="&#x15a;" horiz-adv-x="554" 
d="M32 116q0 15 10.5 28.5t22.5 21t14 5.5q30 -43 81 -71t114 -28q67 0 104 26.5t37 74.5q0 34 -21 54.5t-52.5 31.5t-88.5 24q-61 14 -104 33t-71.5 57t-28.5 99q0 54 29.5 97t82.5 67t121 24q60 0 107 -14.5t76 -38.5q19 -15 29 -31t10 -31q0 -17 -10.5 -30.5t-23.5 -21
t-14 -5.5q-27 38 -73 62.5t-100 24.5q-61 0 -97.5 -27t-36.5 -72q0 -34 18 -52.5t46 -27.5t89 -23q100 -23 158 -65.5t58 -127.5q0 -89 -65 -141t-178 -52q-71 0 -124.5 18.5t-85.5 48.5q-33 32 -33 62zM207 707q0 11 25 50t60 71t69 32q21 0 32.5 -12t11.5 -31
q0 -33 -40.5 -59t-89 -41t-60.5 -15q-8 0 -8 5z" />
    <glyph glyph-name="sacute" unicode="&#x15b;" horiz-adv-x="464" 
d="M36 59q-10 16 -10 31q0 14 8.5 24.5t18.5 16t12 4.5q26 -33 67 -52.5t95 -19.5q51 0 78.5 17.5t27.5 47.5q0 23 -14 36.5t-37 20.5t-73 18q-49 10 -83.5 23t-60 41t-25.5 75q0 68 52.5 109.5t139.5 41.5q65 0 109.5 -17.5t63.5 -45.5q12 -16 12 -34q0 -14 -9 -25
t-19.5 -17t-11.5 -4q-23 31 -60 49.5t-81 18.5q-50 0 -77 -17.5t-27 -48.5q0 -21 13 -33.5t36.5 -20t70.5 -17.5q53 -11 88.5 -24t62 -41.5t26.5 -76.5q0 -69 -53.5 -110t-146.5 -41q-54 0 -96 11.5t-69 30.5q-18 13 -28 29zM142 560q0 11 23 52t56.5 74.5t67.5 33.5
q20 0 31.5 -12.5t11.5 -32.5q0 -33 -38.5 -60t-85 -43.5t-58.5 -16.5q-8 0 -8 5z" />
    <glyph glyph-name="Scircumflex" unicode="&#x15c;" horiz-adv-x="554" 
d="M32 116q0 15 10.5 28.5t22.5 21t14 5.5q30 -43 81 -71t114 -28q67 0 104 26.5t37 74.5q0 34 -21 54.5t-52.5 31.5t-88.5 24q-61 14 -104 33t-71.5 57t-28.5 99q0 54 29.5 97t82.5 67t121 24q60 0 107 -14.5t76 -38.5q19 -15 29 -31t10 -31q0 -17 -10.5 -30.5t-23.5 -21
t-14 -5.5q-27 38 -73 62.5t-100 24.5q-61 0 -97.5 -27t-36.5 -72q0 -34 18 -52.5t46 -27.5t89 -23q100 -23 158 -65.5t58 -127.5q0 -89 -65 -141t-178 -52q-71 0 -124.5 18.5t-85.5 48.5q-33 32 -33 62zM148.5 705.5q-10.5 8.5 -10.5 22.5q0 25 30.5 56.5t68 57.5t49.5 28
q12 -2 49.5 -28t68 -57.5t30.5 -56.5q0 -14 -9.5 -22.5t-24.5 -8.5q-22 0 -48.5 23.5t-65.5 76.5q-41 -55 -66 -77.5t-46 -22.5q-15 0 -25.5 8.5z" />
    <glyph glyph-name="scircumflex" unicode="&#x15d;" horiz-adv-x="464" 
d="M36 59q-10 16 -10 31q0 14 8.5 24.5t18.5 16t12 4.5q26 -33 67 -52.5t95 -19.5q51 0 78.5 17.5t27.5 47.5q0 23 -14 36.5t-37 20.5t-73 18q-49 10 -83.5 23t-60 41t-25.5 75q0 68 52.5 109.5t139.5 41.5q65 0 109.5 -17.5t63.5 -45.5q12 -16 12 -34q0 -14 -9 -25
t-19.5 -17t-11.5 -4q-23 31 -60 49.5t-81 18.5q-50 0 -77 -17.5t-27 -48.5q0 -21 13 -33.5t36.5 -20t70.5 -17.5q53 -11 88.5 -24t62 -41.5t26.5 -76.5q0 -69 -53.5 -110t-146.5 -41q-54 0 -96 11.5t-69 30.5q-18 13 -28 29zM94.5 564q-10.5 9 -10.5 23q0 26 29.5 59.5
t65.5 60.5t48 29q12 -2 48 -29t65.5 -60.5t29.5 -59.5q0 -14 -10 -23t-24 -9q-21 0 -46 25t-63 82q-40 -59 -63.5 -83t-43.5 -24q-15 0 -25.5 9z" />
    <glyph glyph-name="Scedilla" unicode="&#x15e;" horiz-adv-x="554" 
d="M183 -188.5q-29 22.5 -29 51.5q0 16 9 24t22 10q28 -37 64 -37q21 0 35 12t14 33q0 22 -15.5 44.5t-38.5 38.5q-60 4 -105.5 22t-73.5 44q-33 32 -33 62q0 15 10.5 28.5t22.5 21t14 5.5q30 -43 81 -71t114 -28q67 0 104 26.5t37 74.5q0 34 -21 54.5t-52.5 31.5t-88.5 24
q-61 14 -104 33t-71.5 57t-28.5 99q0 54 29.5 97t82.5 67t121 24q60 0 107 -14.5t76 -38.5q19 -15 29 -31t10 -31q0 -17 -10.5 -30.5t-23.5 -21t-14 -5.5q-27 38 -73 62.5t-100 24.5q-61 0 -97.5 -27t-36.5 -72q0 -34 18 -52.5t46 -27.5t89 -23q100 -23 158 -65.5t58 -127.5
q0 -75 -46.5 -124.5t-129.5 -63.5l-28 -3q27 -21 40.5 -48t13.5 -55q0 -47 -33 -72t-78 -25t-74 22.5z" />
    <glyph glyph-name="scedilla" unicode="&#x15f;" horiz-adv-x="464" 
d="M150 -188.5q-29 22.5 -29 51.5q0 16 9 24t22 10q28 -37 64 -37q21 0 35 12t14 33q0 22 -16 44.5t-39 39.5q-92 3 -146 41q-18 13 -28 29t-10 31q0 14 8.5 24.5t18.5 16t12 4.5q26 -33 67 -52.5t95 -19.5q51 0 78.5 17.5t27.5 47.5q0 23 -14 36.5t-37 20.5t-73 18
q-49 10 -83.5 23t-60 41t-25.5 75q0 68 52.5 109.5t139.5 41.5q65 0 109.5 -17.5t63.5 -45.5q12 -16 12 -34q0 -14 -9 -25t-19.5 -17t-11.5 -4q-23 31 -60 49.5t-81 18.5q-50 0 -77 -17.5t-27 -48.5q0 -21 13 -33.5t36.5 -20t70.5 -17.5q53 -11 88.5 -24t62 -41.5
t26.5 -76.5q0 -53 -32.5 -90t-90.5 -51q-13 -4 -29 -6q58 -45 58 -106q0 -47 -33 -72t-78 -25t-74 22.5z" />
    <glyph glyph-name="Scaron" unicode="&#x160;" horiz-adv-x="554" 
d="M32 116q0 15 10.5 28.5t22.5 21t14 5.5q30 -43 81 -71t114 -28q67 0 104 26.5t37 74.5q0 34 -21 54.5t-52.5 31.5t-88.5 24q-61 14 -104 33t-71.5 57t-28.5 99q0 54 29.5 97t82.5 67t121 24q60 0 107 -14.5t76 -38.5q19 -15 29 -31t10 -31q0 -17 -10.5 -30.5t-23.5 -21
t-14 -5.5q-27 38 -73 62.5t-100 24.5q-61 0 -97.5 -27t-36.5 -72q0 -34 18 -52.5t46 -27.5t89 -23q100 -23 158 -65.5t58 -127.5q0 -89 -65 -141t-178 -52q-71 0 -124.5 18.5t-85.5 48.5q-33 32 -33 62zM236.5 720q-37.5 26 -68 57.5t-30.5 56.5q0 14 9.5 22.5t24.5 8.5
q22 0 48.5 -23.5t65.5 -76.5q41 55 66 77.5t46 22.5q15 0 25.5 -8.5t10.5 -22.5q0 -25 -30.5 -56.5t-68 -57.5t-49.5 -28q-12 2 -49.5 28z" />
    <glyph glyph-name="scaron" unicode="&#x161;" horiz-adv-x="464" 
d="M36 59q-10 16 -10 31q0 14 8.5 24.5t18.5 16t12 4.5q26 -33 67 -52.5t95 -19.5q51 0 78.5 17.5t27.5 47.5q0 23 -14 36.5t-37 20.5t-73 18q-49 10 -83.5 23t-60 41t-25.5 75q0 68 52.5 109.5t139.5 41.5q65 0 109.5 -17.5t63.5 -45.5q12 -16 12 -34q0 -14 -9 -25
t-19.5 -17t-11.5 -4q-23 31 -60 49.5t-81 18.5q-50 0 -77 -17.5t-27 -48.5q0 -21 13 -33.5t36.5 -20t70.5 -17.5q53 -11 88.5 -24t62 -41.5t26.5 -76.5q0 -69 -53.5 -110t-146.5 -41q-54 0 -96 11.5t-69 30.5q-18 13 -28 29zM179 579q-36 27 -65 60.5t-29 59.5q0 14 10 23.5
t24 9.5q20 0 44.5 -25t63.5 -83q39 58 63.5 83t44.5 25q14 0 24 -9.5t10 -23.5q0 -26 -29 -59.5t-65 -60.5t-48 -29q-12 2 -48 29z" />
    <glyph glyph-name="uni0162" unicode="&#x162;" horiz-adv-x="593" 
d="M227 -188.5q-29 22.5 -29 51.5q0 16 9 24t22 10q28 -37 64 -37q21 0 35 12t14 33q0 25 -21.5 51.5t-48.5 41.5q-27 8 -27 45v512h-177q-23 0 -35.5 11.5t-12.5 32.5v5q0 21 12.5 32t35.5 11h458q47 0 47 -43v-5q0 -21 -12 -32.5t-35 -11.5h-177v-512q0 -26 -15 -38
q39 -23 58.5 -53.5t19.5 -65.5q0 -47 -33 -72t-78 -25t-74 22.5z" />
    <glyph glyph-name="uni0163" unicode="&#x163;" horiz-adv-x="371" 
d="M127 -188.5q-29 22.5 -29 51.5q0 16 9 24t22 10q28 -37 64 -37q21 0 35 12t14 33q0 27 -23.5 54.5t-51.5 41.5q-70 32 -70 145v254h-35q-23 0 -33 9t-10 28v7q0 19 10 28t33 9h35v74q0 47 44 47h10q21 0 32 -10.5t11 -36.5v-74h109q23 0 32.5 -8.5t9.5 -27.5v-7
q0 -19 -10 -28.5t-33 -9.5h-109v-243q0 -46 14.5 -67.5t49.5 -21.5q43 0 68 34q2 2 9 -3t13 -15t6 -24q0 -24 -21 -44q-18 -16 -48 -24q-9 -2 -25 -4q53 -43 53 -102q0 -47 -33 -72t-78 -25t-74 22.5z" />
    <glyph glyph-name="Tcaron" unicode="&#x164;" horiz-adv-x="593" 
d="M245 555h-177q-23 0 -35.5 11.5t-12.5 32.5v5q0 21 12.5 32t35.5 11h458q47 0 47 -43v-5q0 -21 -12 -32.5t-35 -11.5h-177v-512q0 -47 -46 -47h-14q-44 0 -44 47v512zM246.5 720q-37.5 26 -68 57.5t-30.5 56.5q0 14 9.5 22.5t24.5 8.5q22 0 48.5 -23.5t65.5 -76.5
q41 55 66 77.5t46 22.5q15 0 25.5 -8.5t10.5 -22.5q0 -25 -30.5 -56.5t-68 -57.5t-49.5 -28q-12 2 -49.5 28z" />
    <glyph glyph-name="tcaron" unicode="&#x165;" horiz-adv-x="371" 
d="M244 552v75q0 39 7 51.5t34 12.5h9q39 0 39 -37q0 -7 -4 -27l-18 -75q-4 -17 -9 -23.5t-16 -6.5h-18q-24 0 -24 30zM97 146v254h-35q-23 0 -33 9t-10 28v7q0 19 10 28t33 9h35v74q0 47 44 47h10q21 0 32 -10.5t11 -36.5v-74h109q23 0 32.5 -8.5t9.5 -27.5v-7
q0 -19 -10 -28.5t-33 -9.5h-109v-243q0 -46 14.5 -67.5t49.5 -21.5q43 0 68 34q2 2 9 -3t13 -15t6 -24q0 -24 -21 -44q-32 -29 -91 -29q-144 0 -144 159z" />
    <glyph glyph-name="Tbar" unicode="&#x166;" horiz-adv-x="593" 
d="M245 43v241h-118q-39 0 -39 36v9q0 35 39 35h118v191h-177q-23 0 -35.5 11.5t-12.5 32.5v5q0 21 12.5 32t35.5 11h458q47 0 47 -43v-5q0 -21 -12 -32.5t-35 -11.5h-177v-191h120q40 0 40 -35v-9q0 -36 -40 -36h-120v-241q0 -47 -46 -47h-14q-44 0 -44 47z" />
    <glyph glyph-name="tbar" unicode="&#x167;" horiz-adv-x="371" 
d="M97 146v94h-18q-50 0 -50 39v5q0 18 13 27.5t37 9.5h18v79h-35q-23 0 -33 9t-10 28v7q0 19 10 28t33 9h35v74q0 47 44 47h10q21 0 32 -10.5t11 -36.5v-74h109q23 0 32.5 -8.5t9.5 -27.5v-7q0 -19 -10 -28.5t-33 -9.5h-109v-79h100q24 0 37 -9.5t13 -27.5v-5
q0 -39 -50 -39h-100v-83q0 -46 14.5 -67.5t49.5 -21.5q43 0 68 34q2 2 9 -3t13 -15t6 -24t-7.5 -27t-21.5 -23q-31 -23 -83 -23q-144 0 -144 159z" />
    <glyph glyph-name="Utilde" unicode="&#x168;" horiz-adv-x="650" 
d="M61 604q0 23 11.5 35t32.5 12h14q45 0 45 -47v-338q0 -92 40.5 -139.5t120.5 -47.5q82 0 121.5 46.5t39.5 141.5v337q0 47 44 47h16q43 0 43 -47v-339q0 -135 -68 -206t-197 -71t-196 70t-67 205v341zM174 726q-9 11 -9 30q0 20 9.5 42t29 37t46.5 15q30 0 66 -22
q30 -18 74 -59q24 75 62 75q15 0 24 -11q9 -10 9 -31q0 -20 -10 -41.5t-29.5 -36.5t-46.5 -15q-32 0 -65 21q-29 19 -74 60q-26 -75 -62 -75q-15 0 -24 11z" />
    <glyph glyph-name="utilde" unicode="&#x169;" horiz-adv-x="561" 
d="M488.5 475q11.5 -11 11.5 -37v-431q0 -3 -11 -7t-24 -4q-46 0 -59 45q-4 18 -4 31q-58 -84 -160 -84q-92 0 -138.5 56t-46.5 150v244q0 48 43 48h11q21 0 32.5 -11t11.5 -37v-232q0 -62 30 -97t85 -35q44 0 78.5 23t53.5 62v279q0 48 43 48h11q21 0 32.5 -11zM132 583
q-10 10 -10 27q0 40 24 70t58 30q28 0 66 -23q31 -19 69 -60q9 30 25.5 53.5t32.5 23.5q17 0 27 -10t10 -28q0 -39 -24.5 -69t-57.5 -30q-35 0 -67 22t-68 61q-10 -31 -26 -54t-32 -23q-17 0 -27 10z" />
    <glyph glyph-name="Umacron" unicode="&#x16a;" horiz-adv-x="650" 
d="M61 604q0 23 11.5 35t32.5 12h14q45 0 45 -47v-338q0 -92 40.5 -139.5t120.5 -47.5q82 0 121.5 46.5t39.5 141.5v337q0 47 44 47h16q43 0 43 -47v-339q0 -135 -68 -206t-197 -71t-196 70t-67 205v341zM163 763v6q0 18 13 27.5t37 9.5h224q24 0 37 -9.5t13 -27.5v-6
q0 -39 -50 -39h-224q-50 0 -50 39z" />
    <glyph glyph-name="umacron" unicode="&#x16b;" horiz-adv-x="561" 
d="M488.5 475q11.5 -11 11.5 -37v-431q0 -3 -11 -7t-24 -4q-46 0 -59 45q-4 18 -4 31q-58 -84 -160 -84q-92 0 -138.5 56t-46.5 150v244q0 48 43 48h11q21 0 32.5 -11t11.5 -37v-232q0 -62 30 -97t85 -35q44 0 78.5 23t53.5 62v279q0 48 43 48h11q21 0 32.5 -11zM131 625v6
q0 18 13 27.5t37 9.5h194q24 0 37 -9.5t13 -27.5v-6q0 -39 -50 -39h-194q-50 0 -50 39z" />
    <glyph glyph-name="Ubreve" unicode="&#x16c;" horiz-adv-x="650" 
d="M61 604q0 23 11.5 35t32.5 12h14q45 0 45 -47v-338q0 -92 40.5 -139.5t120.5 -47.5q82 0 121.5 46.5t39.5 141.5v337q0 47 44 47h16q43 0 43 -47v-339q0 -135 -68 -206t-197 -71t-196 70t-67 205v341zM223.5 723.5q-39.5 27.5 -39.5 75.5q0 21 13.5 37.5t40.5 16.5
q13 -75 87 -75q75 0 88 75q27 0 40.5 -16.5t13.5 -37.5q0 -46 -35.5 -74.5t-106.5 -28.5q-62 0 -101.5 27.5z" />
    <glyph glyph-name="ubreve" unicode="&#x16d;" horiz-adv-x="561" 
d="M488.5 475q11.5 -11 11.5 -37v-431q0 -3 -11 -7t-24 -4q-46 0 -59 45q-4 18 -4 31q-58 -84 -160 -84q-92 0 -138.5 56t-46.5 150v244q0 48 43 48h11q21 0 32.5 -11t11.5 -37v-232q0 -62 30 -97t85 -35q44 0 78.5 23t53.5 62v279q0 48 43 48h11q21 0 32.5 -11zM180 577.5
q-38 27.5 -38 75.5q0 21 13.5 37.5t40.5 16.5q13 -75 82 -75q37 0 56.5 19.5t25.5 55.5q27 0 40.5 -16.5t13.5 -37.5q0 -46 -34 -74.5t-102 -28.5q-60 0 -98 27.5z" />
    <glyph glyph-name="Uring" unicode="&#x16e;" horiz-adv-x="650" 
d="M61 604q0 23 11.5 35t32.5 12h14q45 0 45 -47v-338q0 -92 40.5 -139.5t120.5 -47.5q82 0 121.5 46.5t39.5 141.5v337q0 47 44 47h16q43 0 43 -47v-339q0 -135 -68 -206t-197 -71t-196 70t-67 205v341zM237 727.5q-34 32.5 -34 82.5t35 83t88 33q54 0 88 -32.5t34 -83.5
q0 -49 -35 -82t-88 -33q-54 0 -88 32.5zM371 766.5q18 17.5 18 43.5q0 27 -18.5 44.5t-45.5 17.5t-45 -17.5t-18 -44.5q0 -25 18.5 -43t44.5 -18q28 0 46 17.5z" />
    <glyph glyph-name="uring" unicode="&#x16f;" horiz-adv-x="561" 
d="M488.5 475q11.5 -11 11.5 -37v-431q0 -3 -11 -7t-24 -4q-46 0 -59 45q-4 18 -4 31q-58 -84 -160 -84q-92 0 -138.5 56t-46.5 150v244q0 48 43 48h11q21 0 32.5 -11t11.5 -37v-232q0 -62 30 -97t85 -35q44 0 78.5 23t53.5 62v279q0 48 43 48h11q21 0 32.5 -11zM188 569
q-35 34 -35 85t36 85.5t90 34.5q55 0 89.5 -34t34.5 -86q0 -51 -35.5 -85t-89.5 -34q-55 0 -90 34zM325.5 607.5q18.5 18.5 18.5 46.5q0 29 -19 48t-47 19t-47 -19t-19 -48q0 -27 19 -46t47 -19q29 0 47.5 18.5z" />
    <glyph glyph-name="Uhungarumlaut" unicode="&#x170;" horiz-adv-x="650" 
d="M61 604q0 23 11.5 35t32.5 12h14q45 0 45 -47v-338q0 -92 40.5 -139.5t120.5 -47.5q82 0 121.5 46.5t39.5 141.5v337q0 47 44 47h16q43 0 43 -47v-339q0 -135 -68 -206t-197 -71t-196 70t-67 205v341zM205 707q0 11 20 50t50 71t61 32q20 0 30.5 -10.5t10.5 -28.5
q0 -32 -35.5 -58.5t-79 -43.5t-53.5 -17q-4 0 -4 5zM389 707q0 11 20 50t50 71t61 32q20 0 30.5 -10.5t10.5 -28.5q0 -32 -35.5 -58.5t-79 -43.5t-53.5 -17q-4 0 -4 5z" />
    <glyph glyph-name="uhungarumlaut" unicode="&#x171;" horiz-adv-x="561" 
d="M488.5 475q11.5 -11 11.5 -37v-431q0 -3 -11 -7t-24 -4q-46 0 -59 45q-4 18 -4 31q-58 -84 -160 -84q-92 0 -138.5 56t-46.5 150v244q0 48 43 48h11q21 0 32.5 -11t11.5 -37v-232q0 -62 30 -97t85 -35q44 0 78.5 23t53.5 62v279q0 48 43 48h11q21 0 32.5 -11zM158 560
q0 11 20 51t50 72.5t61 32.5q20 0 30.5 -10.5t10.5 -28.5q0 -32 -35.5 -59.5t-79 -45t-53.5 -17.5q-4 0 -4 5zM336 560q0 11 20 51t50 72.5t61 32.5q20 0 30.5 -10.5t10.5 -28.5q0 -32 -35.5 -59.5t-79 -45t-53.5 -17.5q-4 0 -4 5z" />
    <glyph glyph-name="Uogonek" unicode="&#x172;" horiz-adv-x="650" 
d="M367.5 -147q-27.5 23 -27.5 62q0 40 33 76q-22 -3 -49 -3q-129 0 -196 70t-67 205v341q0 23 11.5 35t32.5 12h14q45 0 45 -47v-338q0 -92 40.5 -139.5t120.5 -47.5q82 0 121.5 46.5t39.5 141.5v337q0 47 44 47h16q43 0 43 -47v-339q0 -83 -26.5 -142.5t-76.5 -92.5
q-70 -56 -70 -96q0 -16 9.5 -25.5t23.5 -9.5q25 0 37 20q13 -1 23 -11.5t10 -26.5q0 -23 -21 -37t-57 -14q-46 0 -73.5 23z" />
    <glyph glyph-name="uogonek" unicode="&#x173;" horiz-adv-x="561" 
d="M372.5 -178q-27.5 23 -27.5 62q0 33 22.5 63.5t66.5 54.5q-23 13 -30 46q-2 14 -2 24q-58 -84 -160 -84q-92 0 -138.5 56t-46.5 150v244q0 48 43 48h11q21 0 32.5 -11t11.5 -37v-232q0 -62 30 -97t85 -35q44 0 78.5 23t53.5 62v279q0 48 43 48h11q21 0 32.5 -11t11.5 -37
v-431l-1 -2q-43 -34 -60.5 -58t-17.5 -44q0 -16 9.5 -25.5t23.5 -9.5q25 0 37 20q13 -1 23 -11.5t10 -26.5q0 -23 -21 -37t-57 -14q-46 0 -73.5 23z" />
    <glyph glyph-name="Wcircumflex" unicode="&#x174;" horiz-adv-x="925" 
d="M220 2q-16 9 -21 32l-151 588q-1 3 7 10.5t22 13t32 5.5q46 0 60 -60l105 -476l123 407q6 24 22.5 35.5t45.5 11.5t44.5 -11.5t23.5 -35.5l121 -405l107 475q7 31 21 45t36 14q17 0 30.5 -6t21 -13t6.5 -10l-149 -588q-5 -22 -21 -31.5t-49 -9.5q-30 0 -45 9.5t-22 32.5
l-125 418l-131 -418q-6 -23 -20.5 -32.5t-44.5 -9.5q-33 0 -49 9zM324.5 705.5q-10.5 8.5 -10.5 22.5q0 25 30.5 56.5t68 57.5t49.5 28q12 -2 49.5 -28t68 -57.5t30.5 -56.5q0 -14 -9.5 -22.5t-24.5 -8.5q-22 0 -48.5 23.5t-65.5 76.5q-41 -55 -66 -77.5t-46 -22.5
q-15 0 -25.5 8.5z" />
    <glyph glyph-name="wcircumflex" unicode="&#x175;" horiz-adv-x="710" 
d="M159 1q-14 7 -19 25l-120 431q-1 3 8 10.5t23.5 13t27.5 5.5q18 0 32 -12.5t20 -40.5l75 -337l92 291q5 18 19.5 26.5t41.5 8.5t41 -8.5t19 -26.5l89 -289l74 335q5 28 19 40.5t32 12.5q13 0 26.5 -6t22.5 -13t8 -10l-119 -431q-4 -18 -18 -25t-42 -7q-30 0 -42 7t-19 28
l-93 291l-96 -291q-7 -20 -19 -27.5t-41 -7.5q-28 0 -42 7zM222.5 564q-10.5 9 -10.5 23q0 26 29.5 59.5t65.5 60.5t48 29q12 -2 48 -29t65.5 -60.5t29.5 -59.5q0 -14 -10 -23t-24 -9q-21 0 -46 25t-63 82q-40 -59 -63.5 -83t-43.5 -24q-15 0 -25.5 9z" />
    <glyph glyph-name="Ycircumflex" unicode="&#x176;" horiz-adv-x="573" 
d="M235 43v222l-229 344q-2 4 5 14.5t22.5 19t37.5 8.5q30 0 50 -36l166 -264l166 264q22 36 51 36q20 0 35 -8.5t22 -19t5 -14.5l-228 -344v-222q0 -47 -45 -47h-14q-44 0 -44 47zM148.5 705.5q-10.5 8.5 -10.5 22.5q0 25 30.5 56.5t68 57.5t49.5 28q12 -2 49.5 -28
t68 -57.5t30.5 -56.5q0 -14 -9.5 -22.5t-24.5 -8.5q-22 0 -48.5 23.5t-65.5 76.5q-41 -55 -66 -77.5t-46 -22.5q-15 0 -25.5 8.5z" />
    <glyph glyph-name="ycircumflex" unicode="&#x177;" horiz-adv-x="498" 
d="M173.5 -189.5q-12.5 5.5 -20 12t-6.5 9.5l80 195q-17 2 -26.5 8t-15.5 20l-172 402q-1 3 6 10.5t19 13t27 5.5q22 0 36.5 -12.5t26.5 -43.5l130 -332l115 330q18 58 62 58q12 0 24.5 -5.5t20.5 -12t7 -9.5l-227 -599q-20 -55 -61 -55q-13 0 -25.5 5.5zM117.5 564
q-10.5 9 -10.5 23q0 26 29.5 59.5t65.5 60.5t48 29q12 -2 48 -29t65.5 -60.5t29.5 -59.5q0 -14 -10 -23t-24 -9q-21 0 -46 25t-63 82q-40 -59 -63.5 -83t-43.5 -24q-15 0 -25.5 9z" />
    <glyph glyph-name="Ydieresis" unicode="&#x178;" horiz-adv-x="573" 
d="M235 43v222l-229 344q-2 4 5 14.5t22.5 19t37.5 8.5q30 0 50 -36l166 -264l166 264q22 36 51 36q20 0 35 -8.5t22 -19t5 -14.5l-228 -344v-222q0 -47 -45 -47h-14q-44 0 -44 47zM150 723.5q-15 14.5 -15 41.5t14.5 41.5t40.5 14.5q57 0 57 -56q0 -27 -14.5 -41.5
t-41.5 -14.5q-26 0 -41 14.5zM340 723.5q-15 14.5 -15 41.5t14.5 41.5t40.5 14.5q57 0 57 -56q0 -27 -14.5 -41.5t-41.5 -14.5q-26 0 -41 14.5z" />
    <glyph glyph-name="Zacute" unicode="&#x179;" horiz-adv-x="609" 
d="M48 58q0 21 8.5 37t34.5 49l339 413h-333q-46 0 -46 42v6q0 42 46 42h391q34 0 50 -13.5t16 -34.5v-9q0 -21 -10 -38.5t-32 -44.5l-342 -417h353q46 0 46 -42v-6q0 -42 -46 -42h-408q-34 0 -50.5 14t-16.5 35v9zM229 707q0 11 25 50t60 71t69 32q21 0 32.5 -12t11.5 -31
q0 -33 -40.5 -59t-89 -41t-60.5 -15q-8 0 -8 5z" />
    <glyph glyph-name="zacute" unicode="&#x17a;" horiz-adv-x="482" 
d="M35 46q0 15 5.5 25t22.5 29l252 302h-235q-22 0 -32.5 8.5t-10.5 27.5v7q0 36 43 36h321q41 0 41 -37v-6q0 -14 -5.5 -24t-21.5 -28l-257 -306h249q22 0 32.5 -9t10.5 -28v-6q0 -19 -10.5 -28t-32.5 -9h-331q-21 0 -31 10.5t-10 27.5v8zM157 560q0 11 23 52t56.5 74.5
t67.5 33.5q20 0 31.5 -12.5t11.5 -32.5q0 -33 -38.5 -60t-85 -43.5t-58.5 -16.5q-8 0 -8 5z" />
    <glyph glyph-name="Zdotaccent" unicode="&#x17b;" horiz-adv-x="609" 
d="M48 58q0 21 8.5 37t34.5 49l339 413h-333q-46 0 -46 42v6q0 42 46 42h391q34 0 50 -13.5t16 -34.5v-9q0 -21 -10 -38.5t-32 -44.5l-342 -417h353q46 0 46 -42v-6q0 -42 -46 -42h-408q-34 0 -50.5 14t-16.5 35v9zM264.5 724.5q-15.5 15.5 -15.5 41.5q0 27 16 42.5t44 15.5
t43 -15.5t15 -42.5t-15.5 -42t-43.5 -15t-43.5 15.5z" />
    <glyph glyph-name="zdotaccent" unicode="&#x17c;" horiz-adv-x="482" 
d="M35 46q0 15 5.5 25t22.5 29l252 302h-235q-22 0 -32.5 8.5t-10.5 27.5v7q0 36 43 36h321q41 0 41 -37v-6q0 -14 -5.5 -24t-21.5 -28l-257 -306h249q22 0 32.5 -9t10.5 -28v-6q0 -19 -10.5 -28t-32.5 -9h-331q-21 0 -31 10.5t-10 27.5v8zM197.5 593.5
q-15.5 15.5 -15.5 41.5q0 27 16 42.5t44 15.5t43 -15.5t15 -42.5t-15.5 -42t-43.5 -15t-43.5 15.5z" />
    <glyph glyph-name="Zcaron" unicode="&#x17d;" horiz-adv-x="609" 
d="M48 58q0 21 8.5 37t34.5 49l339 413h-333q-46 0 -46 42v6q0 42 46 42h391q34 0 50 -13.5t16 -34.5v-9q0 -21 -10 -38.5t-32 -44.5l-342 -417h353q46 0 46 -42v-6q0 -42 -46 -42h-408q-34 0 -50.5 14t-16.5 35v9zM258.5 720q-37.5 26 -68 57.5t-30.5 56.5q0 14 9.5 22.5
t24.5 8.5q22 0 48.5 -23.5t65.5 -76.5q41 55 66 77.5t46 22.5q15 0 25.5 -8.5t10.5 -22.5q0 -25 -30.5 -56.5t-68 -57.5t-49.5 -28q-12 2 -49.5 28z" />
    <glyph glyph-name="zcaron" unicode="&#x17e;" horiz-adv-x="482" 
d="M35 46q0 15 5.5 25t22.5 29l252 302h-235q-22 0 -32.5 8.5t-10.5 27.5v7q0 36 43 36h321q41 0 41 -37v-6q0 -14 -5.5 -24t-21.5 -28l-257 -306h249q22 0 32.5 -9t10.5 -28v-6q0 -19 -10.5 -28t-32.5 -9h-331q-21 0 -31 10.5t-10 27.5v8zM194 579q-36 27 -65 60.5
t-29 59.5q0 14 10 23.5t24 9.5q20 0 44.5 -25t63.5 -83q39 58 63.5 83t44.5 25q14 0 24 -9.5t10 -23.5q0 -26 -29 -59.5t-65 -60.5t-48 -29q-12 2 -48 29z" />
    <glyph glyph-name="uni018F" unicode="&#x18f;" horiz-adv-x="717" 
d="M191 24q-70 37 -108.5 103.5t-38.5 150.5v11q0 24 7 33.5t29 9.5h487q0 18 -3 34q-8 61 -38 107.5t-75 72t-99 25.5q-61 0 -114.5 -26.5t-85.5 -73.5q-2 -3 -16.5 4t-26.5 20t-12 31q0 20 17 43.5t48 42.5q35 22 83.5 35t108.5 13q91 0 164 -43t114 -120t41 -175
q0 -97 -40.5 -173.5t-113.5 -119t-166 -42.5q-92 0 -162 37zM483.5 120.5q55.5 47.5 75.5 127.5h-410q4 -83 61 -129t145 -46q73 0 128.5 47.5z" />
    <glyph glyph-name="florin" unicode="&#x192;" horiz-adv-x="413" 
d="M67 -1.5q-14 6.5 -13 10.5l61 342h-45q-23 0 -33.5 9t-10.5 28v7q0 19 10.5 28t33.5 9h60l11 61q15 83 56 124.5t106 41.5q51 0 80 -20q29 -18 29 -48q0 -14 -7.5 -26.5t-16 -19.5t-9.5 -5q-10 14 -28 24t-41 10q-30 0 -47.5 -22.5t-26.5 -72.5l-9 -47h98q23 0 33 -9.5
t10 -28.5v-7q0 -18 -10 -27t-33 -9h-109l-52 -284q-13 -75 -65 -75q-18 0 -32 6.5z" />
    <glyph glyph-name="Aringacute" unicode="&#x1fa;" horiz-adv-x="630" 
d="M41.5 0.5q-13.5 5.5 -22 13t-6.5 12.5l230 594q8 23 34 29q-38 11 -61 41t-23 70q0 39 22.5 68.5t59.5 41.5q6 2 18 4q12 24 46 62t70 62q26 17 48 17q19 0 32 -11t13 -28q0 -35 -42 -61q-44 -30 -101 -46q36 -11 57.5 -40.5t21.5 -68.5q0 -40 -24 -70t-63 -41
q14 -4 21.5 -10.5t12.5 -18.5l232 -594q2 -4 -6.5 -11.5t-22.5 -13.5t-28 -6q-43 0 -61 48l-57 147h-259l-57 -148q-17 -47 -57 -47q-14 0 -27.5 5.5zM361 716.5q18 17.5 18 43.5q0 27 -18.5 45t-45.5 18t-45 -18t-18 -45q0 -25 18.5 -43t44.5 -18q28 0 46 17.5zM416 273
l-104 274l-104 -274h208z" />
    <glyph glyph-name="aringacute" unicode="&#x1fb;" horiz-adv-x="523" 
d="M171.5 580q-33.5 34 -33.5 85q0 41 22.5 72t59.5 42q10 22 45.5 63t73.5 66q26 17 48 17q19 0 32 -11t13 -28q0 -35 -42 -61q-42 -27 -97 -44q39 -11 62.5 -42t23.5 -74q0 -51 -34.5 -85t-86.5 -34q-53 0 -86.5 34zM302.5 618.5q17.5 18.5 17.5 46.5t-18 47.5t-44 19.5
t-43.5 -19t-17.5 -48q0 -27 18 -46t43 -19q27 0 44.5 18.5zM77 26.5q-44 37.5 -44 99.5q0 82 79 121t244 42h13v10q0 55 -30.5 84t-88.5 29q-51 0 -85.5 -22.5t-52.5 -59.5q0 -2 -17 1.5t-30.5 14.5t-13.5 32q0 30 33 60q27 24 71 39.5t102 15.5q102 0 156 -50t54 -142v-295
q0 -4 -11.5 -7.5t-24.5 -3.5q-46 0 -57 44q-4 18 -4 33q-28 -39 -73.5 -61t-99.5 -22q-76 0 -120 37.5zM327.5 96.5q41.5 36.5 41.5 93.5v37l-27 -1q-108 -4 -160 -26t-52 -70q0 -32 24 -51t67 -19q65 0 106.5 36.5z" />
    <glyph glyph-name="AEacute" unicode="&#x1fc;" horiz-adv-x="858" 
d="M41.5 0.5q-13.5 5.5 -22 13t-6.5 12.5l226 582q7 19 22 29t44 10h465q24 0 36 -11t12 -32v-6q0 -43 -48 -43h-364l70 -180h220q48 0 48 -41v-5q0 -42 -48 -42h-184l76 -196h188q47 0 47 -41v-5q0 -45 -47 -45h-204q-33 0 -50 11t-28 41l-52 138h-259l-57 -148
q-18 -47 -57 -47q-14 0 -27.5 5.5zM417 273l-105 274l-104 -274h209zM419 707q0 11 25 50t60 71t69 32q21 0 32.5 -12t11.5 -31q0 -33 -40.5 -59t-89 -41t-60.5 -15q-8 0 -8 5z" />
    <glyph glyph-name="aeacute" unicode="&#x1fd;" horiz-adv-x="867" 
d="M77.5 26.5q-44.5 37.5 -44.5 99.5q0 82 79 121t244 42h13v10q0 55 -30.5 84.5t-88.5 29.5q-51 0 -85.5 -23t-52.5 -60q0 -2 -17 1.5t-30.5 14.5t-13.5 32q0 14 8.5 29.5t23.5 29.5q26 25 69 40.5t100 15.5q62 0 105.5 -22.5t66.5 -65.5q31 42 77 65t104 23
q69 0 121.5 -30.5t81.5 -85.5t29 -126v-8q-1 -16 -7.5 -22.5t-22.5 -6.5h-356q2 -18 4 -28q14 -55 57 -88t103 -33q58 0 94 21.5t58 58.5q1 2 14.5 -3t25 -16t11.5 -30q0 -21 -23 -46q-25 -27 -72.5 -45t-109.5 -18q-76 0 -130.5 30.5t-81.5 86.5q-26 -52 -80 -83.5
t-123 -31.5q-76 0 -120.5 37.5zM740 281q-4 63 -40 100t-95 37t-101 -38t-51 -99h287zM327.5 96.5q41.5 36.5 41.5 93.5v37l-27 -1q-108 -4 -160 -26t-52 -70q0 -32 24 -51t67 -19q65 0 106.5 36.5zM350 560q0 11 23 52t56.5 74.5t67.5 33.5q20 0 31.5 -12.5t11.5 -32.5
q0 -33 -38.5 -60t-85 -43.5t-58.5 -16.5q-8 0 -8 5z" />
    <glyph glyph-name="Oslashacute" unicode="&#x1fe;" horiz-adv-x="741" 
d="M679 447q19 -57 19 -123q0 -98 -42 -174.5t-116.5 -119.5t-169.5 -43q-116 0 -200 62l-83 -92q-3 -3 -14.5 2.5t-21 16t-9.5 23.5q0 21 24 49l49 54q-35 43 -53.5 99t-18.5 121q0 98 42 175t117 120t169 43q113 0 197 -60l76 84q2 3 13.5 -2.5t21 -16t9.5 -23.5
q0 -22 -23 -49l-41 -45q36 -44 55 -101zM254.5 538q-50.5 -31 -79 -86.5t-28.5 -127.5q0 -85 40 -147l315 349q-55 43 -132 43q-65 0 -115.5 -31zM486.5 109q50.5 31 79 86.5t28.5 126.5q0 87 -42 151l-315 -351q57 -44 134 -44q65 0 115.5 31zM291 707q0 11 25 50t60 71
t69 32q21 0 32.5 -12t11.5 -31q0 -33 -40.5 -59t-89 -41t-60.5 -15q-8 0 -8 5z" />
    <glyph glyph-name="oslashacute" unicode="&#x1ff;" horiz-adv-x="568" 
d="M482 404q54 -70 54 -165q0 -73 -32 -130t-89.5 -89.5t-130.5 -32.5q-82 0 -144 40l-66 -73q-2 -2 -13.5 2.5t-20.5 13.5t-9 21q0 19 23 45l34 38q-27 32 -41.5 75t-14.5 92q0 73 32 130t89.5 89.5t131.5 32.5q85 0 146 -43l68 76q2 2 13.5 -2.5t20.5 -13.5t9 -21
q0 -19 -22 -44zM153 137l224 246q-42 29 -93 29q-45 0 -82 -22t-58 -61t-21 -88q0 -58 30 -104zM417 340l-222 -245q40 -27 89 -27q45 0 81.5 22.5t57.5 61.5t21 87q0 57 -27 101zM200 560q0 11 23 52t56.5 74.5t67.5 33.5q20 0 31.5 -12.5t11.5 -32.5q0 -33 -38.5 -60
t-85 -43.5t-58.5 -16.5q-8 0 -8 5z" />
    <glyph glyph-name="uni0218" unicode="&#x218;" horiz-adv-x="554" 
d="M32 116q0 15 10.5 28.5t22.5 21t14 5.5q30 -43 81 -71t114 -28q67 0 104 26.5t37 74.5q0 34 -21 54.5t-52.5 31.5t-88.5 24q-61 14 -104 33t-71.5 57t-28.5 99q0 54 29.5 97t82.5 67t121 24q60 0 107 -14.5t76 -38.5q19 -15 29 -31t10 -31q0 -17 -10.5 -30.5t-23.5 -21
t-14 -5.5q-27 38 -73 62.5t-100 24.5q-61 0 -97.5 -27t-36.5 -72q0 -34 18 -52.5t46 -27.5t89 -23q100 -23 158 -65.5t58 -127.5q0 -89 -65 -141t-178 -52q-71 0 -124.5 18.5t-85.5 48.5q-33 32 -33 62zM226 -224q-15 0 -24.5 7t-4.5 18l40 108q10 22 19.5 30.5t33.5 8.5h9
q20 0 32.5 -9t12.5 -25v-2q0 -9 -6.5 -18.5t-24.5 -31.5l-66 -80q-7 -6 -21 -6z" />
    <glyph glyph-name="uni0219" unicode="&#x219;" horiz-adv-x="464" 
d="M36 59q-10 16 -10 31q0 14 8.5 24.5t18.5 16t12 4.5q26 -33 67 -52.5t95 -19.5q51 0 78.5 17.5t27.5 47.5q0 23 -14 36.5t-37 20.5t-73 18q-49 10 -83.5 23t-60 41t-25.5 75q0 68 52.5 109.5t139.5 41.5q65 0 109.5 -17.5t63.5 -45.5q12 -16 12 -34q0 -14 -9 -25
t-19.5 -17t-11.5 -4q-23 31 -60 49.5t-81 18.5q-50 0 -77 -17.5t-27 -48.5q0 -21 13 -33.5t36.5 -20t70.5 -17.5q53 -11 88.5 -24t62 -41.5t26.5 -76.5q0 -69 -53.5 -110t-146.5 -41q-54 0 -96 11.5t-69 30.5q-18 13 -28 29zM172 -224q-15 0 -24.5 7t-4.5 18l40 108
q10 22 19.5 30.5t33.5 8.5h9q20 0 32.5 -9t12.5 -25v-2q0 -9 -6.5 -18.5t-24.5 -31.5l-66 -80q-7 -6 -21 -6z" />
    <glyph glyph-name="uni021A" unicode="&#x21a;" horiz-adv-x="593" 
d="M245 555h-177q-23 0 -35.5 11.5t-12.5 32.5v5q0 21 12.5 32t35.5 11h458q47 0 47 -43v-5q0 -21 -12 -32.5t-35 -11.5h-177v-512q0 -47 -46 -47h-14q-44 0 -44 47v512zM241 -224q-15 0 -24.5 7t-4.5 18l40 108q10 22 19.5 30.5t33.5 8.5h9q20 0 32.5 -9t12.5 -25v-2
q0 -9 -6.5 -18.5t-24.5 -31.5l-66 -80q-7 -6 -21 -6z" />
    <glyph glyph-name="uni0237" unicode="&#x237;" horiz-adv-x="230" 
d="M-67 -172q-15 15 -15 36q0 12 5 23t11 17.5t7 5.5q28 -28 64 -28q32 0 46 18t14 59v479q0 48 45 48h10q21 0 32.5 -11t11.5 -37v-485q0 -74 -37 -113.5t-107 -39.5q-59 0 -87 28z" />
    <glyph glyph-name="uni0259" unicode="&#x259;" horiz-adv-x="540" 
d="M141 17.5q-52 30.5 -81 85.5t-29 126v8q0 16 6.5 22.5t23.5 6.5h355q0 6 -2 18q-11 59 -54.5 95t-107.5 36q-58 0 -94 -21.5t-57 -58.5q-2 -2 -15.5 2.5t-25 16t-11.5 30.5q0 16 14 35t39 35q62 39 152 39q75 0 132.5 -31.5t89.5 -88.5t32 -131q0 -72 -32 -130.5
t-88 -91.5t-126 -33q-69 0 -121 30.5zM364 100.5q42 38.5 51 98.5h-288q4 -63 40 -100t96 -37q59 0 101 38.5z" />
    <glyph glyph-name="circumflex" unicode="&#x2c6;" horiz-adv-x="346" 
d="M40.5 564q-10.5 9 -10.5 23q0 26 29.5 59.5t65.5 60.5t48 29q12 -2 48 -29t65.5 -60.5t29.5 -59.5q0 -14 -10 -23t-24 -9q-21 0 -46 25t-63 82q-40 -59 -63.5 -83t-43.5 -24q-15 0 -25.5 9z" />
    <glyph glyph-name="caron" unicode="&#x2c7;" horiz-adv-x="344" 
d="M124 579q-36 27 -65 60.5t-29 59.5q0 14 10 23.5t24 9.5q20 0 44.5 -25t63.5 -83q39 58 63.5 83t44.5 25q14 0 24 -9.5t10 -23.5q0 -26 -29 -59.5t-65 -60.5t-48 -29q-12 2 -48 29z" />
    <glyph glyph-name="breve" unicode="&#x2d8;" horiz-adv-x="333" 
d="M68 577.5q-38 27.5 -38 75.5q0 21 13.5 37.5t40.5 16.5q13 -75 82 -75q37 0 56.5 19.5t25.5 55.5q27 0 40.5 -16.5t13.5 -37.5q0 -46 -34 -74.5t-102 -28.5q-60 0 -98 27.5z" />
    <glyph glyph-name="dotaccent" unicode="&#x2d9;" horiz-adv-x="178" 
d="M45.5 593.5q-15.5 15.5 -15.5 41.5q0 27 16 42.5t44 15.5t43 -15.5t15 -42.5t-15.5 -42t-43.5 -15t-43.5 15.5z" />
    <glyph glyph-name="ring" unicode="&#x2da;" horiz-adv-x="311" 
d="M65 569q-35 34 -35 85t36 85.5t90 34.5q55 0 89.5 -34t34.5 -86q0 -51 -35.5 -85t-89.5 -34q-55 0 -90 34zM202.5 607.5q18.5 18.5 18.5 46.5q0 29 -19 48t-47 19t-47 -19t-19 -48q0 -27 19 -46t47 -19q29 0 47.5 18.5z" />
    <glyph glyph-name="ogonek" unicode="&#x2db;" horiz-adv-x="238" 
d="M57 -187q-27 24 -27 63q0 43 34 79t99 60l19 -18q-44 -33 -61 -57t-17 -44q0 -17 9.5 -26.5t25.5 -9.5q24 0 36 19q13 -1 23 -11.5t10 -26.5q0 -23 -21 -37.5t-57 -14.5q-46 0 -73 24z" />
    <glyph glyph-name="tilde" unicode="&#x2dc;" horiz-adv-x="372" 
d="M40 583q-10 10 -10 27q0 40 24 70t58 30q28 0 66 -23q31 -19 69 -60q9 30 25.5 53.5t32.5 23.5q17 0 27 -10t10 -28q0 -39 -24.5 -69t-57.5 -30q-35 0 -67 22t-68 61q-10 -31 -26 -54t-32 -23q-17 0 -27 10z" />
    <glyph glyph-name="hungarumlaut" unicode="&#x2dd;" horiz-adv-x="410" 
d="M30 560q0 11 20 51t50 72.5t61 32.5q20 0 30.5 -10.5t10.5 -28.5q0 -32 -35.5 -59.5t-79 -45t-53.5 -17.5q-4 0 -4 5zM208 560q0 11 20 51t50 72.5t61 32.5q20 0 30.5 -10.5t10.5 -28.5q0 -32 -35.5 -59.5t-79 -45t-53.5 -17.5q-4 0 -4 5z" />
    <glyph glyph-name="gravecomb" unicode="&#x300;" horiz-adv-x="0" 
d="M18.5 571.5q-46.5 16.5 -85 43.5t-38.5 60q0 20 11.5 32.5t31.5 12.5q34 0 67.5 -33.5t56.5 -74.5t23 -52q0 -5 -8 -5q-12 0 -58.5 16.5z" />
    <glyph glyph-name="acutecomb" unicode="&#x301;" horiz-adv-x="0" 
d="M-85 560q0 11 23 52t56.5 74.5t67.5 33.5q20 0 31.5 -12.5t11.5 -32.5q0 -33 -38.5 -60t-85 -43.5t-58.5 -16.5q-8 0 -8 5z" />
    <glyph glyph-name="uni0302" unicode="&#x302;" horiz-adv-x="0" 
d="M-132.5 564q-10.5 9 -10.5 23q0 26 29.5 59.5t65.5 60.5t48 29q12 -2 48 -29t65.5 -60.5t29.5 -59.5q0 -14 -10 -23t-24 -9q-21 0 -46 25t-63 82q-40 -59 -63.5 -83t-43.5 -24q-15 0 -25.5 9z" />
    <glyph glyph-name="tildecomb" unicode="&#x303;" horiz-adv-x="0" 
d="M-147 583q-10 10 -10 27q0 40 24 70t58 30q28 0 66 -23q31 -19 69 -60q9 30 25.5 53.5t32.5 23.5q17 0 27 -10t10 -28q0 -39 -24.5 -69t-57.5 -30q-35 0 -67 22t-68 61q-10 -31 -26 -54t-32 -23q-17 0 -27 10z" />
    <glyph glyph-name="uni0304" unicode="&#x304;" horiz-adv-x="0" 
d="M-147 625v6q0 18 13 27.5t37 9.5h194q24 0 37 -9.5t13 -27.5v-6q0 -39 -50 -39h-194q-50 0 -50 39z" />
    <glyph glyph-name="uni0306" unicode="&#x306;" horiz-adv-x="0" 
d="M-98 577.5q-38 27.5 -38 75.5q0 21 13.5 37.5t40.5 16.5q13 -75 82 -75q37 0 56.5 19.5t25.5 55.5q27 0 40.5 -16.5t13.5 -37.5q0 -46 -34 -74.5t-102 -28.5q-60 0 -98 27.5z" />
    <glyph glyph-name="uni0307" unicode="&#x307;" horiz-adv-x="0" 
d="M-44.5 593.5q-15.5 15.5 -15.5 41.5q0 27 16 42.5t44 15.5t43 -15.5t15 -42.5t-15.5 -42t-43.5 -15t-43.5 15.5z" />
    <glyph glyph-name="uni0308" unicode="&#x308;" horiz-adv-x="0" 
d="M-131 592.5q-15 14.5 -15 41.5t14.5 41.5t40.5 14.5q57 0 57 -56q0 -27 -14.5 -41.5t-41.5 -14.5q-26 0 -41 14.5zM49 592.5q-15 14.5 -15 41.5t14.5 41.5t40.5 14.5q57 0 57 -56q0 -27 -14.5 -41.5t-41.5 -14.5q-26 0 -41 14.5z" />
    <glyph glyph-name="uni030A" unicode="&#x30a;" horiz-adv-x="0" 
d="M-90 569q-35 34 -35 85t36 85.5t90 34.5q55 0 89.5 -34t34.5 -86q0 -51 -35.5 -85t-89.5 -34q-55 0 -90 34zM47.5 607.5q18.5 18.5 18.5 46.5q0 29 -19 48t-47 19t-47 -19t-19 -48q0 -27 19 -46t47 -19q29 0 47.5 18.5z" />
    <glyph glyph-name="uni030B" unicode="&#x30b;" horiz-adv-x="0" 
d="M-120 560q0 11 20 51t50 72.5t61 32.5q20 0 30.5 -10.5t10.5 -28.5q0 -32 -35.5 -59.5t-79 -45t-53.5 -17.5q-4 0 -4 5zM58 560q0 11 20 51t50 72.5t61 32.5q20 0 30.5 -10.5t10.5 -28.5q0 -32 -35.5 -59.5t-79 -45t-53.5 -17.5q-4 0 -4 5z" />
    <glyph glyph-name="uni030C" unicode="&#x30c;" horiz-adv-x="0" 
d="M-48 579q-36 27 -65 60.5t-29 59.5q0 14 10 23.5t24 9.5q20 0 44.5 -25t63.5 -83q39 58 63.5 83t44.5 25q14 0 24 -9.5t10 -23.5q0 -26 -29 -59.5t-65 -60.5t-48 -29q-12 2 -48 29z" />
    <glyph glyph-name="uni0312" unicode="&#x312;" horiz-adv-x="0" 
d="M-41.5 564q-12.5 9 -12.5 25v2q0 9 6.5 18.5t24.5 31.5l66 80q7 6 21 6q15 0 24.5 -7t4.5 -18l-40 -108q-10 -22 -19.5 -30.5t-33.5 -8.5h-9q-20 0 -32.5 9z" />
    <glyph glyph-name="uni0315" unicode="&#x315;" horiz-adv-x="0" 
d="M-40 552v75q0 39 7 51.5t34 12.5h9q39 0 39 -37q0 -7 -4 -27l-18 -75q-4 -17 -9 -23.5t-16 -6.5h-18q-24 0 -24 30z" />
    <glyph glyph-name="dotbelowcomb" unicode="&#x323;" horiz-adv-x="0" 
d="M-43.5 -169.5q-15.5 15.5 -15.5 41.5q0 27 15.5 42.5t43.5 15.5t43.5 -15.5t15.5 -42.5t-15.5 -42t-43.5 -15t-43.5 15.5z" />
    <glyph glyph-name="uni0326" unicode="&#x326;" horiz-adv-x="0" 
d="M-55 -224q-15 0 -24.5 7t-4.5 18l40 108q10 22 19.5 30.5t33.5 8.5h9q20 0 32.5 -9t12.5 -25v-2q0 -9 -6.5 -18.5t-24.5 -31.5l-66 -80q-7 -6 -21 -6z" />
    <glyph glyph-name="uni0327" unicode="&#x327;" horiz-adv-x="0" 
d="M-85 -188.5q-29 22.5 -29 51.5q0 16 9 24t22 10q28 -37 64 -37q21 0 35 12t14 33q0 27 -23.5 54.5t-51.5 41.5l55 11q45 -23 67.5 -56t22.5 -70q0 -47 -33 -72t-78 -25t-74 22.5z" />
    <glyph glyph-name="uni0328" unicode="&#x328;" horiz-adv-x="0" 
d="M-81 -187q-27 24 -27 63q0 43 34 79t99 60l19 -18q-44 -33 -61 -57t-17 -44q0 -17 9.5 -26.5t25.5 -9.5q24 0 36 19q13 -1 23 -11.5t10 -26.5q0 -23 -21 -37.5t-57 -14.5q-46 0 -73 24z" />
    <glyph glyph-name="uni03BC" unicode="&#x3bc;" horiz-adv-x="565" 
d="M492.5 475q11.5 -11 11.5 -37v-431q0 -3 -11 -7t-25 -4q-41 0 -56 40q-6 18 -7 29q-20 -34 -51 -55.5t-71 -21.5q-45 0 -76.5 18.5t-47.5 47.5v-203q0 -47 -44 -47h-10q-44 0 -44 47v587q0 48 43 48h11q21 0 32.5 -11t11.5 -37v-264q0 -44 34 -72t89 -28q44 0 76 23
t48 62v279q0 48 43 48h11q21 0 32.5 -11z" />
    <glyph glyph-name="pi" unicode="&#x3c0;" horiz-adv-x="731" 
d="M208.5 31q-73.5 43 -118.5 119.5t-45 171.5t45.5 172t119.5 121t154 44q81 0 157 -43t123 -119.5t47 -171.5q0 -94 -48 -171.5t-124 -121.5t-156 -44q-81 0 -154.5 43zM493.5 78q62.5 36 101.5 100.5t39 144.5q0 79 -40 144t-103 101.5t-129 36.5t-126 -36t-97 -100
t-37 -145q0 -80 37.5 -144.5t98 -101t126.5 -36.5q67 0 129.5 36zM273 160q-7 10 -7 26v276q0 18 8.5 27.5t24.5 9.5h84q55 0 86 -28t31 -83q0 -57 -31 -85t-87 -28h-53v-95q0 -14 -7.5 -22t-20.5 -8h-9q-12 0 -19 10zM380 328q26 0 41 15t15 43q0 29 -15 43t-42 14h-51
v-115h52z" />
    <glyph glyph-name="Wgrave" unicode="&#x1e80;" horiz-adv-x="925" 
d="M220 2q-16 9 -21 32l-151 588q-1 3 7 10.5t22 13t32 5.5q46 0 60 -60l105 -476l123 407q6 24 22.5 35.5t45.5 11.5t44.5 -11.5t23.5 -35.5l121 -405l107 475q7 31 21 45t36 14q17 0 30.5 -6t21 -13t6.5 -10l-149 -588q-5 -22 -21 -31.5t-49 -9.5q-30 0 -45 9.5t-22 32.5
l-125 418l-131 -418q-6 -23 -20.5 -32.5t-44.5 -9.5q-33 0 -49 9zM453.5 717q-48.5 15 -89 41t-40.5 59q0 19 11.5 31t32.5 12q34 0 69 -32t60 -71t25 -50q0 -5 -8 -5q-12 0 -60.5 15z" />
    <glyph glyph-name="wgrave" unicode="&#x1e81;" horiz-adv-x="710" 
d="M159 1q-14 7 -19 25l-120 431q-1 3 8 10.5t23.5 13t27.5 5.5q18 0 32 -12.5t20 -40.5l75 -337l92 291q5 18 19.5 26.5t41.5 8.5t41 -8.5t19 -26.5l89 -289l74 335q5 28 19 40.5t32 12.5q13 0 26.5 -6t22.5 -13t8 -10l-119 -431q-4 -18 -18 -25t-42 -7q-30 0 -42 7t-19 28
l-93 291l-96 -291q-7 -20 -19 -27.5t-41 -7.5q-28 0 -42 7zM373.5 571.5q-46.5 16.5 -85 43.5t-38.5 60q0 20 11.5 32.5t31.5 12.5q34 0 67.5 -33.5t56.5 -74.5t23 -52q0 -5 -8 -5q-12 0 -58.5 16.5z" />
    <glyph glyph-name="Wacute" unicode="&#x1e82;" horiz-adv-x="925" 
d="M220 2q-16 9 -21 32l-151 588q-1 3 7 10.5t22 13t32 5.5q46 0 60 -60l105 -476l123 407q6 24 22.5 35.5t45.5 11.5t44.5 -11.5t23.5 -35.5l121 -405l107 475q7 31 21 45t36 14q17 0 30.5 -6t21 -13t6.5 -10l-149 -588q-5 -22 -21 -31.5t-49 -9.5q-30 0 -45 9.5t-22 32.5
l-125 418l-131 -418q-6 -23 -20.5 -32.5t-44.5 -9.5q-33 0 -49 9zM383 707q0 11 25 50t60 71t69 32q21 0 32.5 -12t11.5 -31q0 -33 -40.5 -59t-89 -41t-60.5 -15q-8 0 -8 5z" />
    <glyph glyph-name="wacute" unicode="&#x1e83;" horiz-adv-x="710" 
d="M159 1q-14 7 -19 25l-120 431q-1 3 8 10.5t23.5 13t27.5 5.5q18 0 32 -12.5t20 -40.5l75 -337l92 291q5 18 19.5 26.5t41.5 8.5t41 -8.5t19 -26.5l89 -289l74 335q5 28 19 40.5t32 12.5q13 0 26.5 -6t22.5 -13t8 -10l-119 -431q-4 -18 -18 -25t-42 -7q-30 0 -42 7t-19 28
l-93 291l-96 -291q-7 -20 -19 -27.5t-41 -7.5q-28 0 -42 7zM270 560q0 11 23 52t56.5 74.5t67.5 33.5q20 0 31.5 -12.5t11.5 -32.5q0 -33 -38.5 -60t-85 -43.5t-58.5 -16.5q-8 0 -8 5z" />
    <glyph glyph-name="Wdieresis" unicode="&#x1e84;" horiz-adv-x="925" 
d="M220 2q-16 9 -21 32l-151 588q-1 3 7 10.5t22 13t32 5.5q46 0 60 -60l105 -476l123 407q6 24 22.5 35.5t45.5 11.5t44.5 -11.5t23.5 -35.5l121 -405l107 475q7 31 21 45t36 14q17 0 30.5 -6t21 -13t6.5 -10l-149 -588q-5 -22 -21 -31.5t-49 -9.5q-30 0 -45 9.5t-22 32.5
l-125 418l-131 -418q-6 -23 -20.5 -32.5t-44.5 -9.5q-33 0 -49 9zM326 723.5q-15 14.5 -15 41.5t14.5 41.5t40.5 14.5q57 0 57 -56q0 -27 -14.5 -41.5t-41.5 -14.5q-26 0 -41 14.5zM516 723.5q-15 14.5 -15 41.5t14.5 41.5t40.5 14.5q57 0 57 -56q0 -27 -14.5 -41.5
t-41.5 -14.5q-26 0 -41 14.5z" />
    <glyph glyph-name="wdieresis" unicode="&#x1e85;" horiz-adv-x="710" 
d="M159 1q-14 7 -19 25l-120 431q-1 3 8 10.5t23.5 13t27.5 5.5q18 0 32 -12.5t20 -40.5l75 -337l92 291q5 18 19.5 26.5t41.5 8.5t41 -8.5t19 -26.5l89 -289l74 335q5 28 19 40.5t32 12.5q13 0 26.5 -6t22.5 -13t8 -10l-119 -431q-4 -18 -18 -25t-42 -7q-30 0 -42 7t-19 28
l-93 291l-96 -291q-7 -20 -19 -27.5t-41 -7.5q-28 0 -42 7zM224 592.5q-15 14.5 -15 41.5t14.5 41.5t40.5 14.5q57 0 57 -56q0 -27 -14.5 -41.5t-41.5 -14.5q-26 0 -41 14.5zM404 592.5q-15 14.5 -15 41.5t14.5 41.5t40.5 14.5q57 0 57 -56q0 -27 -14.5 -41.5t-41.5 -14.5
q-26 0 -41 14.5z" />
    <glyph glyph-name="uni1EA0" unicode="&#x1ea0;" horiz-adv-x="630" 
d="M41.5 0.5q-13.5 5.5 -22 13t-6.5 12.5l230 594q6 17 22 25t49 8q34 0 49.5 -8t21.5 -25l232 -594q2 -4 -6.5 -11.5t-22.5 -13.5t-28 -6q-43 0 -61 48l-57 147h-259l-57 -148q-17 -47 -57 -47q-14 0 -27.5 5.5zM416 273l-104 274l-104 -274h208zM271.5 -169.5
q-15.5 15.5 -15.5 41.5q0 27 15.5 42.5t43.5 15.5t43.5 -15.5t15.5 -42.5t-15.5 -42t-43.5 -15t-43.5 15.5z" />
    <glyph glyph-name="uni1EA1" unicode="&#x1ea1;" horiz-adv-x="523" 
d="M112 247q79 39 244 42h13v10q0 55 -30.5 84t-88.5 29q-51 0 -85.5 -22.5t-52.5 -59.5q0 -2 -17 1.5t-30.5 14.5t-13.5 32q0 30 33 60q27 24 71 39.5t102 15.5q102 0 156 -50t54 -142v-295q0 -4 -11.5 -7.5t-24.5 -3.5q-46 0 -57 44q-4 18 -4 33q-28 -39 -73.5 -61
t-99.5 -22q-76 0 -120 37.5t-44 99.5q0 82 79 121zM369 227l-27 -1q-108 -4 -160 -26t-52 -70q0 -32 24 -51t67 -19q65 0 106.5 36.5t41.5 93.5v37zM212.5 -169.5q-15.5 15.5 -15.5 41.5q0 27 15.5 42.5t43.5 15.5t43.5 -15.5t15.5 -42.5t-15.5 -42t-43.5 -15t-43.5 15.5z
" />
    <glyph glyph-name="uni1EB8" unicode="&#x1eb8;" horiz-adv-x="587" 
d="M84 15.5q-15 15.5 -15 41.5v532q0 26 15 42t40 16h375q24 0 36 -11t12 -32v-6q0 -43 -48 -43h-327v-181h253q48 0 48 -41v-3q0 -43 -48 -43h-253v-196h333q47 0 47 -41v-5q0 -45 -47 -45h-381q-25 0 -40 15.5zM266.5 -169.5q-15.5 15.5 -15.5 41.5q0 27 15.5 42.5
t43.5 15.5t43.5 -15.5t15.5 -42.5t-15.5 -42t-43.5 -15t-43.5 15.5z" />
    <glyph glyph-name="uni1EB9" unicode="&#x1eb9;" horiz-adv-x="540" 
d="M64 368.5q32 58.5 88 91.5t126 33q69 0 121 -30.5t81 -85.5t29 -126v-8q0 -16 -6.5 -22.5t-23.5 -6.5h-355q0 -6 2 -18q11 -59 54.5 -95t107.5 -36q58 0 94 21.5t57 58.5q2 2 15.5 -2.5t25 -16t11.5 -30.5q0 -16 -14 -35t-39 -35q-62 -39 -152 -39q-75 0 -132.5 31.5
t-89.5 88.5t-32 131q0 72 32 130.5zM373 381q-36 37 -96 37q-59 0 -101 -38.5t-51 -98.5h288q-4 63 -40 100zM226.5 -169.5q-15.5 15.5 -15.5 41.5q0 27 15.5 42.5t43.5 15.5t43.5 -15.5t15.5 -42.5t-15.5 -42t-43.5 -15t-43.5 15.5z" />
    <glyph glyph-name="uni1EBD" unicode="&#x1ebd;" horiz-adv-x="540" 
d="M64 368.5q32 58.5 88 91.5t126 33q69 0 121 -30.5t81 -85.5t29 -126v-8q0 -16 -6.5 -22.5t-23.5 -6.5h-355q0 -6 2 -18q11 -59 54.5 -95t107.5 -36q58 0 94 21.5t57 58.5q2 2 15.5 -2.5t25 -16t11.5 -30.5q0 -16 -14 -35t-39 -35q-62 -39 -152 -39q-75 0 -132.5 31.5
t-89.5 88.5t-32 131q0 72 32 130.5zM373 381q-36 37 -96 37q-59 0 -101 -38.5t-51 -98.5h288q-4 63 -40 100zM124 583q-10 10 -10 27q0 40 24 70t58 30q28 0 66 -23q31 -19 69 -60q9 30 25.5 53.5t32.5 23.5q17 0 27 -10t10 -28q0 -39 -24.5 -69t-57.5 -30q-35 0 -67 22
t-68 61q-10 -31 -26 -54t-32 -23q-17 0 -27 10z" />
    <glyph glyph-name="uni1ECA" unicode="&#x1eca;" horiz-adv-x="259" 
d="M78 604q0 47 44 47h14q45 0 45 -47v-561q0 -47 -45 -47h-14q-44 0 -44 47v561zM85.5 -169.5q-15.5 15.5 -15.5 41.5q0 27 15.5 42.5t43.5 15.5t43.5 -15.5t15.5 -42.5t-15.5 -42t-43.5 -15t-43.5 15.5z" />
    <glyph glyph-name="uni1ECB" unicode="&#x1ecb;" horiz-adv-x="230" 
d="M65 43v395q0 48 45 48h10q21 0 32.5 -11t11.5 -37v-395q0 -47 -44 -47h-10q-45 0 -45 47zM69.5 593.5q-15.5 15.5 -15.5 41.5q0 27 16 42.5t44 15.5t43 -15.5t15 -42.5t-15.5 -42t-43.5 -15t-43.5 15.5zM70.5 -169.5q-15.5 15.5 -15.5 41.5q0 27 15.5 42.5t43.5 15.5
t43.5 -15.5t15.5 -42.5t-15.5 -42t-43.5 -15t-43.5 15.5z" />
    <glyph glyph-name="uni1ECD" unicode="&#x1ecd;" horiz-adv-x="568" 
d="M64 371q32 57 89.5 89.5t131.5 32.5q73 0 130 -32.5t89 -90.5t32 -131t-32 -130t-89.5 -89.5t-130.5 -32.5q-74 0 -131 32.5t-89 90t-32 131.5q0 73 32 130zM423.5 327.5q-20.5 39.5 -57 62t-82.5 22.5q-45 0 -82 -22t-58 -61t-21 -88t21 -88.5t58 -62t82 -22.5
t81.5 22.5t57.5 61.5t21 87q0 49 -20.5 88.5zM240.5 -169.5q-15.5 15.5 -15.5 41.5q0 27 15.5 42.5t43.5 15.5t43.5 -15.5t15.5 -42.5t-15.5 -42t-43.5 -15t-43.5 15.5z" />
    <glyph glyph-name="Ygrave" unicode="&#x1ef2;" horiz-adv-x="573" 
d="M235 43v222l-229 344q-2 4 5 14.5t22.5 19t37.5 8.5q30 0 50 -36l166 -264l166 264q22 36 51 36q20 0 35 -8.5t22 -19t5 -14.5l-228 -344v-222q0 -47 -45 -47h-14q-44 0 -44 47zM277.5 717q-48.5 15 -89 41t-40.5 59q0 19 11.5 31t32.5 12q34 0 69 -32t60 -71t25 -50
q0 -5 -8 -5q-12 0 -60.5 15z" />
    <glyph glyph-name="ygrave" unicode="&#x1ef3;" horiz-adv-x="498" 
d="M173.5 -189.5q-12.5 5.5 -20 12t-6.5 9.5l80 195q-17 2 -26.5 8t-15.5 20l-172 402q-1 3 6 10.5t19 13t27 5.5q22 0 36.5 -12.5t26.5 -43.5l130 -332l115 330q18 58 62 58q12 0 24.5 -5.5t20.5 -12t7 -9.5l-227 -599q-20 -55 -61 -55q-13 0 -25.5 5.5zM268.5 571.5
q-46.5 16.5 -85 43.5t-38.5 60q0 20 11.5 32.5t31.5 12.5q34 0 67.5 -33.5t56.5 -74.5t23 -52q0 -5 -8 -5q-12 0 -58.5 16.5z" />
    <glyph glyph-name="uni1EF4" unicode="&#x1ef4;" horiz-adv-x="573" 
d="M235 43v222l-229 344q-2 4 5 14.5t22.5 19t37.5 8.5q30 0 50 -36l166 -264l166 264q22 36 51 36q20 0 35 -8.5t22 -19t5 -14.5l-228 -344v-222q0 -47 -45 -47h-14q-44 0 -44 47zM242.5 -169.5q-15.5 15.5 -15.5 41.5q0 27 15.5 42.5t43.5 15.5t43.5 -15.5t15.5 -42.5
t-15.5 -42t-43.5 -15t-43.5 15.5z" />
    <glyph glyph-name="uni1EF5" unicode="&#x1ef5;" horiz-adv-x="498" 
d="M173.5 -189.5q-12.5 5.5 -20 12t-6.5 9.5l80 195q-17 2 -26.5 8t-15.5 20l-172 402q-1 3 6 10.5t19 13t27 5.5q22 0 36.5 -12.5t26.5 -43.5l130 -332l115 330q18 58 62 58q12 0 24.5 -5.5t20.5 -12t7 -9.5l-227 -599q-20 -55 -61 -55q-13 0 -25.5 5.5zM329.5 -169.5
q-15.5 15.5 -15.5 41.5q0 27 15.5 42.5t43.5 15.5t43.5 -15.5t15.5 -42.5t-15.5 -42t-43.5 -15t-43.5 15.5z" />
    <glyph glyph-name="uni1EF8" unicode="&#x1ef8;" horiz-adv-x="573" 
d="M235 43v222l-229 344q-2 4 5 14.5t22.5 19t37.5 8.5q30 0 50 -36l166 -264l166 264q22 36 51 36q20 0 35 -8.5t22 -19t5 -14.5l-228 -344v-222q0 -47 -45 -47h-14q-44 0 -44 47zM135 726q-9 11 -9 30q0 20 9.5 42t29 37t46.5 15q30 0 66 -22q30 -18 74 -59q24 75 62 75
q15 0 24 -11q9 -10 9 -31q0 -20 -10 -41.5t-29.5 -36.5t-46.5 -15q-32 0 -65 21q-29 19 -74 60q-26 -75 -62 -75q-15 0 -24 11z" />
    <glyph glyph-name="uni1EF9" unicode="&#x1ef9;" horiz-adv-x="498" 
d="M173.5 -189.5q-12.5 5.5 -20 12t-6.5 9.5l80 195q-17 2 -26.5 8t-15.5 20l-172 402q-1 3 6 10.5t19 13t27 5.5q22 0 36.5 -12.5t26.5 -43.5l130 -332l115 330q18 58 62 58q12 0 24.5 -5.5t20.5 -12t7 -9.5l-227 -599q-20 -55 -61 -55q-13 0 -25.5 5.5zM104 583
q-10 10 -10 27q0 40 24 70t58 30q28 0 66 -23q31 -19 69 -60q9 30 25.5 53.5t32.5 23.5q17 0 27 -10t10 -28q0 -39 -24.5 -69t-57.5 -30q-35 0 -67 22t-68 61q-10 -31 -26 -54t-32 -23q-17 0 -27 10z" />
    <glyph glyph-name="uni2002" unicode="&#x2002;" horiz-adv-x="500" 
 />
    <glyph glyph-name="uni2009" unicode="&#x2009;" horiz-adv-x="83" 
 />
    <glyph glyph-name="uni200B" unicode="&#x200b;" horiz-adv-x="0" 
 />
    <glyph glyph-name="endash" unicode="&#x2013;" horiz-adv-x="539" 
d="M41 248q0 38 43 38h369q43 0 43 -38v-9q0 -38 -43 -38h-369q-43 0 -43 38v9z" />
    <glyph glyph-name="emdash" unicode="&#x2014;" horiz-adv-x="705" 
d="M41 248q0 38 43 38h537q43 0 43 -38v-9q0 -38 -43 -38h-537q-43 0 -43 38v9z" />
    <glyph glyph-name="quoteleft" unicode="&#x2018;" horiz-adv-x="216" 
d="M48 424q-12 12 -12 35v4q0 28 24 61l82 127q8 9 22 9q13 0 22.5 -8.5t5.5 -22.5l-52 -170q-8 -26 -18 -36.5t-34 -10.5h-9q-19 0 -31 12z" />
    <glyph glyph-name="quoteright" unicode="&#x2019;" horiz-adv-x="216" 
d="M53 412q-14 0 -23.5 9t-5.5 22l53 170q8 27 18 37t34 10h9q19 0 30.5 -12t11.5 -35v-4q0 -30 -23 -61l-83 -127q-7 -9 -21 -9z" />
    <glyph glyph-name="quotesinglbase" unicode="&#x201a;" horiz-adv-x="216" 
d="M45 -129q-14 0 -23.5 9t-5.5 22l53 170q8 27 18 37t34 10h9q19 0 30.5 -12t11.5 -35v-4q0 -30 -23 -61l-83 -127q-8 -9 -21 -9z" />
    <glyph glyph-name="quotereversed" unicode="&#x201b;" horiz-adv-x="216" 
d="M60 557q-24 33 -24 61v4q0 23 12 35t31 12h9q24 0 34 -10.5t18 -36.5l52 -170q4 -14 -5.5 -22.5t-22.5 -8.5q-14 0 -22 9z" />
    <glyph glyph-name="quotedblleft" unicode="&#x201c;" horiz-adv-x="391" 
d="M47.5 424q-11.5 12 -11.5 35v4q0 27 24 61l82 127q8 9 21 9q14 0 23.5 -9t5.5 -22l-53 -170q-7 -26 -17 -36.5t-34 -10.5h-10q-19 0 -30.5 12zM222.5 424q-11.5 12 -11.5 35v4q0 29 24 61l82 127q8 9 21 9q14 0 23.5 -9t5.5 -22l-53 -170q-7 -26 -17 -36.5t-35 -10.5h-9
q-19 0 -30.5 12z" />
    <glyph glyph-name="quotedblright" unicode="&#x201d;" horiz-adv-x="391" 
d="M53 412q-14 0 -24 9t-6 22l54 170q7 26 17 36.5t34 10.5h9q19 0 30.5 -12t11.5 -35v-4q0 -30 -23 -61l-83 -127q-6 -9 -20 -9zM228 412q-14 0 -24 9t-6 22l54 170q9 27 18 37t33 10h10q19 0 30 -12t11 -35v-4q0 -29 -23 -61l-82 -127q-7 -9 -21 -9z" />
    <glyph glyph-name="quotedblbase" unicode="&#x201e;" horiz-adv-x="391" 
d="M45 -129q-14 0 -24 9t-6 22l54 170q7 26 17 36.5t34 10.5h9q19 0 30.5 -12t11.5 -35v-4q0 -30 -23 -61l-83 -127q-6 -9 -20 -9zM220 -129q-14 0 -24 9t-6 22l54 170q9 27 18 37t33 10h10q19 0 30 -12t11 -35v-4q0 -29 -23 -61l-82 -127q-7 -9 -21 -9z" />
    <glyph glyph-name="dagger" unicode="&#x2020;" horiz-adv-x="518" 
d="M229.5 -152.5q-6.5 6.5 -8.5 22.5l-14 407q-2 24 5 48.5t22 44.5l-155 -25q-10 -2 -14 -2q-40 0 -40 53q0 54 38 54q4 0 16 -2l155 -26l-27 179q-1 6 -1 15q0 21 13 30t40 9q28 0 41 -8.5t13 -29.5q0 -4 -2 -16l-26 -178l154 25q5 1 13 1q41 0 41 -53t-40 -53q-4 0 -14 2
l-155 25q15 -20 22 -44.5t5 -48.5l-14 -407q-2 -16 -8 -22.5t-21 -6.5h-17q-15 0 -21.5 6.5z" />
    <glyph glyph-name="daggerdbl" unicode="&#x2021;" horiz-adv-x="518" 
d="M229.5 -152.5q-6.5 6.5 -8.5 22.5l-7 217l-135 -23q-12 -2 -16 -2q-38 0 -38 54q0 53 40 53q4 0 14 -2l133 -22l-5 136q-2 24 5.5 48.5t23.5 44.5l-157 -25q-10 -2 -14 -2q-40 0 -40 53q0 54 38 54q4 0 16 -2l154 -25l-26 174q-1 6 -1 15q0 21 13 30t40 9q28 0 41 -8.5
t13 -29.5q0 -4 -2 -16l-26 -174l154 25q5 1 13 1q41 0 41 -53t-40 -53q-4 0 -14 2l-156 25q15 -20 22.5 -44.5t5.5 -48.5l-5 -136l133 22q10 2 14 2q40 0 40 -53t-41 -53q-8 0 -13 1l-135 23l-7 -217q-2 -16 -8 -22.5t-21 -6.5h-17q-15 0 -21.5 6.5z" />
    <glyph glyph-name="bullet" unicode="&#x2022;" horiz-adv-x="334" 
d="M86.5 325q32.5 34 80.5 34t81 -34t33 -82q0 -47 -33.5 -80.5t-80.5 -33.5q-48 0 -80.5 33t-32.5 81t32.5 82z" />
    <glyph glyph-name="ellipsis" unicode="&#x2026;" horiz-adv-x="667" 
d="M50 59q0 27 13.5 41t40.5 14h13q55 0 55 -55v-12q0 -26 -14 -40t-41 -14h-13q-26 0 -40 14t-14 40v12zM272 59q0 26 14 40.5t40 14.5h13q55 0 55 -55v-12q0 -54 -55 -54h-13q-26 0 -40 14t-14 40v12zM494 59q0 26 14 40.5t40 14.5h13q28 0 42 -14t14 -41v-12
q0 -54 -56 -54h-13q-26 0 -40 14t-14 40v12z" />
    <glyph glyph-name="perthousand" unicode="&#x2030;" horiz-adv-x="1096" 
d="M108 -8q-12 4 -22 13.5t-10 22.5t6 24.5t23 28.5l503 579q2 2 14 -1.5t22 -12.5t10 -23q0 -22 -28 -54l-504 -578q-2 -3 -14 1zM104.5 364q-35.5 20 -55.5 54.5t-20 76.5v9q0 42 20.5 77.5t56 55.5t79.5 20t80 -20t56 -54.5t20 -76.5v-9q0 -42 -20.5 -77t-56.5 -55.5
t-80 -20.5t-79.5 20zM242 431q22 24 22 62v15q0 38 -22.5 62.5t-57.5 24.5t-57 -24t-22 -63v-15q0 -37 22.5 -61.5t57.5 -24.5t57 24zM470 14q-36 20 -56 54.5t-20 76.5v9q0 42 20.5 77t56.5 55.5t80 20.5t79.5 -20t55.5 -54.5t20 -76.5v-9q0 -42 -20.5 -77.5t-56 -55.5
t-79.5 -20t-80 20zM831 14q-36 20 -56 54.5t-20 76.5v9q0 42 20.5 77t56.5 55.5t80 20.5t79.5 -19.5t55.5 -54t20 -77.5v-9q0 -42 -20.5 -77.5t-56 -55.5t-79.5 -20t-80 20zM607.5 81q22.5 24 22.5 62v15q0 38 -22.5 62.5t-57.5 24.5t-57 -24t-22 -63v-15q0 -37 22.5 -61.5
t57.5 -24.5q34 0 56.5 24zM969 81q22 24 22 62v15q0 38 -22.5 62.5t-57.5 24.5t-57 -24t-22 -63v-15q0 -37 22.5 -61.5t57.5 -24.5t57 24z" />
    <glyph glyph-name="guilsinglleft" unicode="&#x2039;" horiz-adv-x="315" 
d="M62 209.5q-22 28.5 -22 34.5t22 34.5t51 57.5q34 35 66 57.5t54 22.5h2q16 0 26 -10t10 -25v-3q0 -22 -47 -62q-33 -28 -100 -73q56 -35 100 -72q47 -39 47 -61v-4q0 -14 -10 -24t-26 -10h-2q-22 0 -54 22.5t-66 57.5q-29 29 -51 57.5z" />
    <glyph glyph-name="guilsinglright" unicode="&#x203a;" horiz-adv-x="315" 
d="M54.5 82q-9.5 10 -9.5 24v4q0 22 47 61q38 32 100 72q-72 48 -100 73q-47 40 -47 62v3q0 15 9.5 25t25.5 10h1q43 0 121 -80q29 -29 51 -57.5t22 -34.5t-22 -34.5t-51 -57.5q-78 -80 -121 -80h-1q-16 0 -25.5 10z" />
    <glyph glyph-name="fraction" unicode="&#x2044;" horiz-adv-x="150" 
d="M-165.5 -29q-9.5 2 -17 9t-7.5 20t4.5 23t18.5 29l45 54q157 189 162 196q77 95 264 332q2 2 11 0t17 -8.5t8 -19.5q0 -22 -25 -52l-63 -77q-117 -142 -143 -175q-77 -95 -263 -331q-2 -2 -11.5 0z" />
    <glyph glyph-name="zero.sups" unicode="&#x2070;" 
d="M55 424.5q-40 44.5 -40 125.5v36q0 80 41 125.5t112 45.5t111.5 -45t40.5 -125v-36q0 -81 -40.5 -126t-112.5 -45t-112 44.5zM222 470.5q19 25.5 19 74.5v48q0 49 -19 74t-55 25q-35 0 -53.5 -25t-18.5 -74v-48q0 -49 19 -74.5t54 -25.5t54 25.5z" />
    <glyph glyph-name="four.sups" unicode="&#x2074;" 
d="M201.5 393q-8.5 10 -8.5 28v56h-134q-22 0 -34.5 9.5t-12.5 24.5v14q1 10 5.5 20t12.5 23l110 154q11 19 24 25t44 6t43.5 -11.5t12.5 -40.5v-163h29q19 0 27 -7t8 -22v-3q0 -16 -8 -22.5t-27 -6.5h-29v-56q0 -38 -34 -38h-4q-16 0 -24.5 10zM196 537l-1 160l-114 -160
h115z" />
    <glyph glyph-name="five.sups" unicode="&#x2075;" 
d="M62 403q-17 10 -26.5 22.5t-9.5 24.5q0 11 7 20.5t16 14.5t10 4q17 -24 43 -36.5t58 -12.5q35 0 55.5 15.5t20.5 43.5q0 27 -20 43t-54 16q-23 0 -42.5 -6.5t-32.5 -15.5q-24 1 -36 12.5t-12 35.5v120q0 21 10 33t30 12h175q38 0 38 -31v-3q0 -16 -9 -23.5t-29 -7.5h-147
v-83q32 13 68 13q60 0 96.5 -30.5t36.5 -83.5q0 -56 -39.5 -88t-107.5 -32q-61 0 -99 23z" />
    <glyph glyph-name="six.sups" unicode="&#x2076;" 
d="M65 426q-40 46 -40 124v33q0 82 42 128t116 46q58 0 90 -21q31 -19 31 -48q0 -14 -8.5 -22t-19 -11t-11.5 -2q-25 40 -77 40q-41 0 -63.5 -28t-22.5 -82v-10q15 19 40.5 30.5t54.5 11.5q55 0 87 -28.5t32 -77.5v-4q0 -56 -38 -90.5t-101 -34.5q-72 0 -112 46zM226 454.5
q19 17.5 19 45.5v3q0 30 -17 46t-49 16q-39 0 -75 -38q0 -14 4 -32q14 -58 70 -58q29 0 48 17.5z" />
    <glyph glyph-name="seven.sups" unicode="&#x2077;" 
d="M96.5 389q-9.5 6 -14.5 13t-3 10l149 268h-163q-36 0 -36 32v6q0 31 36 31h192q31 0 42 -10.5t11 -29.5v-6q0 -12 -6 -25t-18 -35l-126 -231q-16 -29 -42 -29q-12 0 -21.5 6z" />
    <glyph glyph-name="eight.sups" unicode="&#x2078;" 
d="M59 407.5q-38 27.5 -38 77.5q0 66 71 88q-60 20 -60 81q0 48 37 76t100 28t98.5 -27.5t35.5 -75.5q0 -62 -60 -82q71 -21 71 -88q0 -48 -39 -76.5t-108 -28.5q-70 0 -108 27.5zM215.5 607q17.5 14 17.5 38q0 25 -17.5 40t-48.5 15q-30 0 -47.5 -15t-17.5 -40
q0 -23 18 -37.5t48 -14.5t47.5 14zM221 453q19 15 19 41t-20 41.5t-53 15.5t-52.5 -15.5t-19.5 -41.5q0 -25 20 -40.5t53 -15.5q34 0 53 15z" />
    <glyph glyph-name="nine.sups" unicode="&#x2079;" 
d="M62 400q-31 19 -31 46q0 14 8.5 22.5t19 11.5t11.5 2q24 -40 78 -40q70 0 83 69q4 16 4 41v7q-15 -20 -39.5 -31.5t-55.5 -11.5q-54 0 -86.5 29.5t-32.5 80.5q0 57 38 94t100 37q72 0 112 -45.5t40 -125.5v-33q0 -84 -40.5 -128.5t-118.5 -44.5q-57 0 -90 20zM235 603v7
q-2 41 -22 64t-53 23q-29 0 -48.5 -19t-19.5 -47q0 -32 17.5 -49t49.5 -17q41 0 76 38z" />
    <glyph glyph-name="minus.sups" unicode="&#x207b;" 
d="M43 449.5q-8 7.5 -8 21.5v4q0 14 8.5 22t23.5 8h203q32 0 32 -30v-4q0 -29 -32 -29h-203q-16 0 -24 7.5z" />
    <glyph glyph-name="Euro" unicode="&#x20ac;" horiz-adv-x="628" 
d="M216 46.5q-69 59.5 -89 166.5h-57q-40 0 -40 32v8q0 32 40 32h50v38v10v33h-50q-40 0 -40 32v8q0 31 40 31h58q21 103 89.5 162.5t168.5 59.5q80 0 138 -34q33 -19 51 -44t18 -48q0 -18 -11.5 -30.5t-25.5 -18t-16 -2.5q-27 46 -64 69t-92 23q-58 0 -99 -36.5t-58 -100.5
h191q39 0 39 -31v-8q0 -32 -39 -32h-201v-33v-10v-38h201q39 0 39 -32v-8q0 -32 -39 -32h-191q17 -65 59.5 -102.5t102.5 -37.5q55 0 91.5 25t61.5 75q2 3 16 -2.5t26 -18.5t12 -31q0 -17 -10.5 -36.5t-28.5 -37.5q-29 -27 -71 -43.5t-96 -16.5q-105 0 -174 59.5z" />
    <glyph glyph-name="uni2117" unicode="&#x2117;" horiz-adv-x="752" 
d="M205 30q-75 43 -117.5 119.5t-42.5 172.5t43 173t119 121t170 44q96 0 171 -43t117 -119.5t42 -172.5t-43 -173t-118.5 -121t-169.5 -44q-96 0 -171 43zM518.5 76.5q61.5 35.5 95.5 99.5t34 147q0 80 -35.5 145t-97.5 101.5t-140 36.5q-80 0 -141.5 -35.5t-95.5 -99.5
t-34 -147q0 -80 35.5 -145t97.5 -101.5t140 -36.5q80 0 141.5 35.5zM273 154q-7 10 -7 26v276q0 18 8.5 27.5t24.5 9.5h84q55 0 86 -28t31 -83q0 -57 -31 -85t-87 -28h-53v-95q0 -14 -7.5 -22t-20.5 -8h-9q-12 0 -19 10zM380 322q26 0 41 15t15 43q0 29 -15 43t-42 14h-51
v-115h52z" />
    <glyph glyph-name="trademark" unicode="&#x2122;" horiz-adv-x="683" 
d="M336 617q0 34 30 34h27q15 0 22 -5t12 -18l60 -147l60 147q5 13 12.5 18t20.5 5h26q30 0 30 -34v-249q0 -32 -27 -32h-9q-27 0 -27 32v189l-55 -141q-3 -9 -8.5 -12.5t-23.5 -3.5t-22.5 3t-8.5 13l-56 140v-188q0 -16 -5.5 -24t-19.5 -8h-11q-27 0 -27 32v249zM120 588
h-72q-31 0 -31 29v3q0 28 31 28h211q30 0 30 -28v-3q0 -29 -30 -29h-72v-220q0 -32 -30 -32h-9q-13 0 -20.5 8.5t-7.5 23.5v220z" />
    <glyph glyph-name="uni2150" unicode="&#x2150;" horiz-adv-x="832" 
d="M43 319v1q0 34 37 34h63v199q-20 -17 -47 -17q-23 0 -39 13q-18 15 -18 35q0 12 5 21.5t11 14.5t8 4q16 -16 38 -16q20 0 35.5 12.5t18.5 32.5h27q36 0 36 -38v-261h50q38 0 38 -34v-1q0 -32 -38 -32h-188q-37 0 -37 32zM170.5 -29q-9.5 2 -17 9t-7.5 20t4.5 23t18.5 29
l45 54q157 189 162 196q77 95 264 332q2 2 11 0t17 -8.5t8 -19.5q0 -22 -25 -52l-63 -77q-117 -142 -143 -175q-77 -95 -263 -331q-2 -2 -11.5 0zM592.5 2q-9.5 6 -14.5 13t-3 10l149 268h-163q-36 0 -36 32v6q0 31 36 31h192q31 0 42 -10.5t11 -29.5v-6q0 -12 -6 -25
t-18 -35l-126 -231q-16 -29 -42 -29q-12 0 -21.5 6z" />
    <glyph glyph-name="uni2151" unicode="&#x2151;" horiz-adv-x="822" 
d="M43 319v1q0 34 37 34h63v199q-20 -17 -47 -17q-23 0 -39 13q-18 15 -18 35q0 12 5 21.5t11 14.5t8 4q16 -16 38 -16q20 0 35.5 12.5t18.5 32.5h27q36 0 36 -38v-261h50q38 0 38 -34v-1q0 -32 -38 -32h-188q-37 0 -37 32zM170.5 -29q-9.5 2 -17 9t-7.5 20t4.5 23t18.5 29
l45 54q157 189 162 196q77 95 264 332q2 2 11 0t17 -8.5t8 -19.5q0 -22 -25 -52l-63 -77q-117 -142 -143 -175q-77 -95 -263 -331q-2 -2 -11.5 0zM548 13q-31 19 -31 46q0 14 8.5 22.5t19 11.5t11.5 2q24 -40 78 -40q70 0 83 69q4 16 4 41v7q-15 -20 -39.5 -31.5
t-55.5 -11.5q-54 0 -86.5 29.5t-32.5 80.5q0 57 38 94t100 37q72 0 112 -45.5t40 -125.5v-33q0 -84 -40.5 -128.5t-118.5 -44.5q-57 0 -90 20zM721 216v7q-2 41 -22 64t-53 23q-29 0 -48.5 -19t-19.5 -47q0 -32 17.5 -49t49.5 -17q41 0 76 38z" />
    <glyph glyph-name="uni2152" unicode="&#x2152;" horiz-adv-x="1158" 
d="M43 319v1q0 34 37 34h63v199q-20 -17 -47 -17q-23 0 -39 13q-18 15 -18 35q0 12 5 21.5t11 14.5t8 4q16 -16 38 -16q20 0 35.5 12.5t18.5 32.5h27q36 0 36 -38v-261h50q38 0 38 -34v-1q0 -32 -38 -32h-188q-37 0 -37 32zM170.5 -29q-9.5 2 -17 9t-7.5 20t4.5 23t18.5 29
l45 54q157 189 162 196q77 95 264 332q2 2 11 0t17 -8.5t8 -19.5q0 -22 -25 -52l-63 -77q-117 -142 -143 -175q-77 -95 -263 -331q-2 -2 -11.5 0zM529 32v1q0 34 37 34h63v199q-20 -17 -47 -17q-23 0 -39 13q-18 15 -18 35q0 12 5 21.5t11 14.5t8 4q16 -16 38 -16
q20 0 35.5 12.5t18.5 32.5h27q36 0 36 -38v-261h50q38 0 38 -34v-1q0 -32 -38 -32h-188q-37 0 -37 32zM877 37.5q-40 44.5 -40 125.5v36q0 80 41 125.5t112 45.5t111.5 -45t40.5 -125v-36q0 -81 -40.5 -126t-112.5 -45t-112 44.5zM1044 83.5q19 25.5 19 74.5v48q0 49 -19 74
t-55 25q-35 0 -53.5 -25t-18.5 -74v-48q0 -49 19 -74.5t54 -25.5t54 25.5z" />
    <glyph glyph-name="uni2153" unicode="&#x2153;" horiz-adv-x="822" 
d="M43 319v1q0 34 37 34h63v199q-20 -17 -47 -17q-23 0 -39 13q-18 15 -18 35q0 12 5 21.5t11 14.5t8 4q16 -16 38 -16q20 0 35.5 12.5t18.5 32.5h27q36 0 36 -38v-261h50q38 0 38 -34v-1q0 -32 -38 -32h-188q-37 0 -37 32zM170.5 -29q-9.5 2 -17 9t-7.5 20t4.5 23t18.5 29
l45 54q157 189 162 196q77 95 264 332q2 2 11 0t17 -8.5t8 -19.5q0 -22 -25 -52l-63 -77q-117 -142 -143 -175q-77 -95 -263 -331q-2 -2 -11.5 0zM542 20q-17 12 -26.5 26.5t-9.5 28.5q0 18 10.5 27.5t23.5 11.5t14 -1q8 -28 31.5 -43t57.5 -15t55 14.5t21 38.5q0 25 -18 38
t-51 13h-20q-37 0 -37 27v5q0 27 36 27h28q25 0 40.5 12t15.5 31q0 21 -20 34t-51 13q-33 0 -52 -15t-28 -38q-1 -2 -13.5 0t-23 11.5t-10.5 26.5q0 29 35 53q38 24 94 24q69 0 104.5 -26t35.5 -74q0 -58 -62 -76q34 -11 52 -34.5t18 -56.5q0 -52 -38.5 -81t-109.5 -29
q-61 0 -102 27z" />
    <glyph glyph-name="uni2154" unicode="&#x2154;" horiz-adv-x="822" 
d="M44.5 296q-10.5 9 -10.5 32v17q0 50 27.5 76.5t83.5 52.5q7 4 33 16t38 25t12 28q0 23 -16.5 36.5t-45.5 13.5q-33 0 -51.5 -18.5t-25.5 -46.5q-1 -2 -15.5 -0.5t-26.5 10t-12 26.5q0 17 9 33.5t27 29.5q38 30 101 30t98 -29.5t35 -82.5q0 -45 -26 -68.5t-77 -45.5
q-8 -3 -34.5 -14.5t-42 -23.5t-21.5 -27q-2 -5 -4 -13h171q38 0 38 -31v-3q0 -17 -9 -24.5t-29 -7.5h-188q-28 0 -38.5 9zM170.5 -29q-9.5 2 -17 9t-7.5 20t4.5 23t18.5 29l45 54q157 189 162 196q77 95 264 332q2 2 11 0t17 -8.5t8 -19.5q0 -22 -25 -52l-63 -77
q-117 -142 -143 -175q-77 -95 -263 -331q-2 -2 -11.5 0zM542 20q-17 12 -26.5 26.5t-9.5 28.5q0 18 10.5 27.5t23.5 11.5t14 -1q8 -28 31.5 -43t57.5 -15t55 14.5t21 38.5q0 25 -18 38t-51 13h-20q-37 0 -37 27v5q0 27 36 27h28q25 0 40.5 12t15.5 31q0 21 -20 34t-51 13
q-33 0 -52 -15t-28 -38q-1 -2 -13.5 0t-23 11.5t-10.5 26.5q0 29 35 53q38 24 94 24q69 0 104.5 -26t35.5 -74q0 -58 -62 -76q34 -11 52 -34.5t18 -56.5q0 -52 -38.5 -81t-109.5 -29q-61 0 -102 27z" />
    <glyph glyph-name="uni2155" unicode="&#x2155;" horiz-adv-x="832" 
d="M43 319v1q0 34 37 34h63v199q-20 -17 -47 -17q-23 0 -39 13q-18 15 -18 35q0 12 5 21.5t11 14.5t8 4q16 -16 38 -16q20 0 35.5 12.5t18.5 32.5h27q36 0 36 -38v-261h50q38 0 38 -34v-1q0 -32 -38 -32h-188q-37 0 -37 32zM170.5 -29q-9.5 2 -17 9t-7.5 20t4.5 23t18.5 29
l45 54q157 189 162 196q77 95 264 332q2 2 11 0t17 -8.5t8 -19.5q0 -22 -25 -52l-63 -77q-117 -142 -143 -175q-77 -95 -263 -331q-2 -2 -11.5 0zM558 16q-17 10 -26.5 22.5t-9.5 24.5q0 11 7 20.5t16 14.5t10 4q17 -24 43 -36.5t58 -12.5q35 0 55.5 15.5t20.5 43.5
q0 27 -20 43t-54 16q-23 0 -42.5 -6.5t-32.5 -15.5q-24 1 -36 12.5t-12 35.5v120q0 21 10 33t30 12h175q38 0 38 -31v-3q0 -16 -9 -23.5t-29 -7.5h-147v-83q33 13 68 13q60 0 96.5 -30.5t36.5 -83.5q0 -56 -39.5 -88t-107.5 -32q-61 0 -99 23z" />
    <glyph glyph-name="uni2156" unicode="&#x2156;" horiz-adv-x="832" 
d="M44.5 296q-10.5 9 -10.5 32v17q0 50 27.5 76.5t83.5 52.5q7 4 33 16t38 25t12 28q0 23 -16.5 36.5t-45.5 13.5q-33 0 -51.5 -18.5t-25.5 -46.5q-1 -2 -15.5 -0.5t-26.5 10t-12 26.5q0 17 9 33.5t27 29.5q38 30 101 30t98 -29.5t35 -82.5q0 -45 -26 -68.5t-77 -45.5
q-8 -3 -34.5 -14.5t-42 -23.5t-21.5 -27q-2 -5 -4 -13h171q38 0 38 -31v-3q0 -17 -9 -24.5t-29 -7.5h-188q-28 0 -38.5 9zM170.5 -29q-9.5 2 -17 9t-7.5 20t4.5 23t18.5 29l45 54q157 189 162 196q77 95 264 332q2 2 11 0t17 -8.5t8 -19.5q0 -22 -25 -52l-63 -77
q-117 -142 -143 -175q-77 -95 -263 -331q-2 -2 -11.5 0zM558 16q-17 10 -26.5 22.5t-9.5 24.5q0 11 7 20.5t16 14.5t10 4q17 -24 43 -36.5t58 -12.5q35 0 55.5 15.5t20.5 43.5q0 27 -20 43t-54 16q-23 0 -42.5 -6.5t-32.5 -15.5q-24 1 -36 12.5t-12 35.5v120q0 21 10 33
t30 12h175q38 0 38 -31v-3q0 -16 -9 -23.5t-29 -7.5h-147v-83q33 13 68 13q60 0 96.5 -30.5t36.5 -83.5q0 -56 -39.5 -88t-107.5 -32q-61 0 -99 23z" />
    <glyph glyph-name="uni2157" unicode="&#x2157;" horiz-adv-x="812" 
d="M56 307q-17 12 -26.5 26.5t-9.5 28.5q0 18 10.5 27.5t23.5 11.5t14 -1q8 -28 31.5 -43t57.5 -15t55 14.5t21 38.5q0 25 -18 38t-51 13h-20q-37 0 -37 27v5q0 27 36 27h28q25 0 40.5 12t15.5 31q0 21 -20 34t-51 13q-33 0 -52 -15t-28 -38q-1 -2 -13.5 0t-23 11.5
t-10.5 26.5q0 29 35 53q38 24 94 24q69 0 104.5 -26t35.5 -74q0 -58 -62 -76q34 -11 52 -34.5t18 -56.5q0 -52 -38.5 -81t-109.5 -29q-62 0 -102 27zM150.5 -29q-9.5 2 -17 9t-7.5 20t4.5 23t18.5 29l45 54q157 189 162 196q77 95 264 332q2 2 11 0t17 -8.5t8 -19.5
q0 -22 -25 -52l-63 -77q-117 -142 -143 -175q-77 -95 -263 -331q-2 -2 -11.5 0zM538 16q-17 10 -26.5 22.5t-9.5 24.5q0 11 7 20.5t16 14.5t10 4q17 -24 43 -36.5t58 -12.5q35 0 55.5 15.5t20.5 43.5q0 27 -20 43t-54 16q-23 0 -42.5 -6.5t-32.5 -15.5q-24 1 -36 12.5
t-12 35.5v120q0 21 10 33t30 12h175q38 0 38 -31v-3q0 -16 -9 -23.5t-29 -7.5h-147v-83q33 13 68 13q60 0 96.5 -30.5t36.5 -83.5q0 -56 -39.5 -88t-107.5 -32q-61 0 -99 23z" />
    <glyph glyph-name="uni2158" unicode="&#x2158;" horiz-adv-x="832" 
d="M201.5 293q-8.5 10 -8.5 28v56h-134q-22 0 -34.5 9.5t-12.5 24.5v14q1 10 5.5 20t12.5 23l110 154q11 19 24 25t44 6t43.5 -11.5t12.5 -40.5v-163h29q19 0 27 -7t8 -22v-3q0 -16 -8 -22.5t-27 -6.5h-29v-56q0 -38 -34 -38h-4q-16 0 -24.5 10zM196 437l-1 160l-114 -160
h115zM170.5 -29q-9.5 2 -17 9t-7.5 20t4.5 23t18.5 29l45 54q157 189 162 196q77 95 264 332q2 2 11 0t17 -8.5t8 -19.5q0 -22 -25 -52l-63 -77q-117 -142 -143 -175q-77 -95 -263 -331q-2 -2 -11.5 0zM558 16q-17 10 -26.5 22.5t-9.5 24.5q0 11 7 20.5t16 14.5t10 4
q17 -24 43 -36.5t58 -12.5q35 0 55.5 15.5t20.5 43.5q0 27 -20 43t-54 16q-23 0 -42.5 -6.5t-32.5 -15.5q-24 1 -36 12.5t-12 35.5v120q0 21 10 33t30 12h175q38 0 38 -31v-3q0 -16 -9 -23.5t-29 -7.5h-147v-83q33 13 68 13q60 0 96.5 -30.5t36.5 -83.5q0 -56 -39.5 -88
t-107.5 -32q-61 0 -99 23z" />
    <glyph glyph-name="uni2159" unicode="&#x2159;" horiz-adv-x="822" 
d="M43 319v1q0 34 37 34h63v199q-20 -17 -47 -17q-23 0 -39 13q-18 15 -18 35q0 12 5 21.5t11 14.5t8 4q16 -16 38 -16q20 0 35.5 12.5t18.5 32.5h27q36 0 36 -38v-261h50q38 0 38 -34v-1q0 -32 -38 -32h-188q-37 0 -37 32zM170.5 -29q-9.5 2 -17 9t-7.5 20t4.5 23t18.5 29
l45 54q157 189 162 196q77 95 264 332q2 2 11 0t17 -8.5t8 -19.5q0 -22 -25 -52l-63 -77q-117 -142 -143 -175q-77 -95 -263 -331q-2 -2 -11.5 0zM551 39q-40 46 -40 124v33q0 82 42 128t116 46q58 0 90 -21q31 -19 31 -48q0 -14 -8.5 -22t-19 -11t-11.5 -2q-25 40 -77 40
q-41 0 -63.5 -28t-22.5 -82v-10q15 19 40.5 30.5t54.5 11.5q55 0 87 -28.5t32 -77.5v-4q0 -56 -38 -90.5t-101 -34.5q-72 0 -112 46zM712 67.5q19 17.5 19 45.5v3q0 30 -17 46t-49 16q-39 0 -75 -38q0 -14 4 -32q14 -58 70 -58q29 0 48 17.5z" />
    <glyph glyph-name="uni215A" unicode="&#x215a;" horiz-adv-x="802" 
d="M62 303q-17 10 -26.5 22.5t-9.5 24.5q0 11 7 20.5t16 14.5t10 4q17 -24 43 -36.5t58 -12.5q35 0 55.5 15.5t20.5 43.5q0 27 -20 43t-54 16q-23 0 -42.5 -6.5t-32.5 -15.5q-24 1 -36 12.5t-12 35.5v120q0 21 10 33t30 12h175q38 0 38 -31v-3q0 -16 -9 -23.5t-29 -7.5h-147
v-83q33 13 68 13q60 0 96.5 -30.5t36.5 -83.5q0 -56 -39.5 -88t-107.5 -32q-61 0 -99 23zM150.5 -29q-9.5 2 -17 9t-7.5 20t4.5 23t18.5 29l45 54q157 189 162 196q77 95 264 332q2 2 11 0t17 -8.5t8 -19.5q0 -22 -25 -52l-63 -77q-117 -142 -143 -175q-77 -95 -263 -331
q-2 -2 -11.5 0zM531 39q-40 46 -40 124v33q0 82 42 128t116 46q58 0 90 -21q31 -19 31 -48q0 -14 -8.5 -22t-19 -11t-11.5 -2q-25 40 -77 40q-41 0 -63.5 -28t-22.5 -82v-10q15 19 40.5 30.5t54.5 11.5q55 0 87 -28.5t32 -77.5v-4q0 -56 -38 -90.5t-101 -34.5q-72 0 -112 46
zM692 67.5q19 17.5 19 45.5v3q0 30 -17 46t-49 16q-39 0 -75 -38q0 -14 4 -32q14 -58 70 -58q29 0 48 17.5z" />
    <glyph glyph-name="oneeighth" unicode="&#x215b;" horiz-adv-x="822" 
d="M43 319v1q0 34 37 34h63v199q-20 -17 -47 -17q-23 0 -39 13q-18 15 -18 35q0 12 5 21.5t11 14.5t8 4q16 -16 38 -16q20 0 35.5 12.5t18.5 32.5h27q36 0 36 -38v-261h50q38 0 38 -34v-1q0 -32 -38 -32h-188q-37 0 -37 32zM170.5 -29q-9.5 2 -17 9t-7.5 20t4.5 23t18.5 29
l45 54q157 189 162 196q77 95 264 332q2 2 11 0t17 -8.5t8 -19.5q0 -22 -25 -52l-63 -77q-117 -142 -143 -175q-77 -95 -263 -331q-2 -2 -11.5 0zM545 20.5q-38 27.5 -38 77.5q0 66 71 88q-60 20 -60 81q0 48 37 76t100 28t98.5 -27.5t35.5 -75.5q0 -62 -60 -82
q71 -21 71 -88q0 -48 -39 -76.5t-108 -28.5q-70 0 -108 27.5zM701.5 220q17.5 14 17.5 38q0 25 -17.5 40t-48.5 15q-30 0 -47.5 -15t-17.5 -40q0 -23 18 -37.5t48 -14.5t47.5 14zM707 66q19 15 19 41t-20 41.5t-53 15.5t-52.5 -15.5t-19.5 -41.5q0 -25 20 -40.5t53 -15.5
q34 0 53 15z" />
    <glyph glyph-name="threeeighths" unicode="&#x215c;" horiz-adv-x="802" 
d="M56 307q-17 12 -26.5 26.5t-9.5 28.5q0 18 10.5 27.5t23.5 11.5t14 -1q8 -28 31.5 -43t57.5 -15t55 14.5t21 38.5q0 25 -18 38t-51 13h-20q-37 0 -37 27v5q0 27 36 27h28q25 0 40.5 12t15.5 31q0 21 -20 34t-51 13q-33 0 -52 -15t-28 -38q-1 -2 -13.5 0t-23 11.5
t-10.5 26.5q0 29 35 53q38 24 94 24q69 0 104.5 -26t35.5 -74q0 -58 -62 -76q34 -11 52 -34.5t18 -56.5q0 -52 -38.5 -81t-109.5 -29q-62 0 -102 27zM150.5 -29q-9.5 2 -17 9t-7.5 20t4.5 23t18.5 29l45 54q157 189 162 196q77 95 264 332q2 2 11 0t17 -8.5t8 -19.5
q0 -22 -25 -52l-63 -77q-117 -142 -143 -175q-77 -95 -263 -331q-2 -2 -11.5 0zM525 20.5q-38 27.5 -38 77.5q0 66 71 88q-60 20 -60 81q0 48 37 76t100 28t98.5 -27.5t35.5 -75.5q0 -62 -60 -82q71 -21 71 -88q0 -48 -39 -76.5t-108 -28.5q-70 0 -108 27.5zM681.5 220
q17.5 14 17.5 38q0 25 -17.5 40t-48.5 15q-30 0 -47.5 -15t-17.5 -40q0 -23 18 -37.5t48 -14.5t47.5 14zM687 66q19 15 19 41t-20 41.5t-53 15.5t-52.5 -15.5t-19.5 -41.5q0 -25 20 -40.5t53 -15.5q34 0 53 15z" />
    <glyph glyph-name="fiveeighths" unicode="&#x215d;" horiz-adv-x="802" 
d="M62 303q-17 10 -26.5 22.5t-9.5 24.5q0 11 7 20.5t16 14.5t10 4q17 -24 43 -36.5t58 -12.5q35 0 55.5 15.5t20.5 43.5q0 27 -20 43t-54 16q-23 0 -42.5 -6.5t-32.5 -15.5q-24 1 -36 12.5t-12 35.5v120q0 21 10 33t30 12h175q38 0 38 -31v-3q0 -16 -9 -23.5t-29 -7.5h-147
v-83q33 13 68 13q60 0 96.5 -30.5t36.5 -83.5q0 -56 -39.5 -88t-107.5 -32q-61 0 -99 23zM150.5 -29q-9.5 2 -17 9t-7.5 20t4.5 23t18.5 29l45 54q157 189 162 196q77 95 264 332q2 2 11 0t17 -8.5t8 -19.5q0 -22 -25 -52l-63 -77q-117 -142 -143 -175q-77 -95 -263 -331
q-2 -2 -11.5 0zM525 20.5q-38 27.5 -38 77.5q0 66 71 88q-60 20 -60 81q0 48 37 76t100 28t98.5 -27.5t35.5 -75.5q0 -62 -60 -82q71 -21 71 -88q0 -48 -39 -76.5t-108 -28.5q-70 0 -108 27.5zM681.5 220q17.5 14 17.5 38q0 25 -17.5 40t-48.5 15q-30 0 -47.5 -15t-17.5 -40
q0 -23 18 -37.5t48 -14.5t47.5 14zM687 66q19 15 19 41t-20 41.5t-53 15.5t-52.5 -15.5t-19.5 -41.5q0 -25 20 -40.5t53 -15.5q34 0 53 15z" />
    <glyph glyph-name="seveneighths" unicode="&#x215e;" horiz-adv-x="762" 
d="M96.5 289q-9.5 6 -14.5 13t-3 10l149 268h-163q-36 0 -36 32v6q0 31 36 31h192q31 0 42 -10.5t11 -29.5v-6q0 -12 -6 -25t-18 -35l-126 -231q-16 -29 -42 -29q-12 0 -21.5 6zM110.5 -29q-9.5 2 -17 9t-7.5 20t4.5 23t18.5 29l45 54q157 189 162 196q77 95 264 332
q2 2 11 0t17 -8.5t8 -19.5q0 -22 -25 -52l-63 -77q-117 -142 -143 -175q-77 -95 -263 -331q-2 -2 -11.5 0zM485 20.5q-38 27.5 -38 77.5q0 66 71 88q-60 20 -60 81q0 48 37 76t100 28t98.5 -27.5t35.5 -75.5q0 -62 -60 -82q71 -21 71 -88q0 -48 -39 -76.5t-108 -28.5
q-70 0 -108 27.5zM641.5 220q17.5 14 17.5 38q0 25 -17.5 40t-48.5 15q-30 0 -47.5 -15t-17.5 -40q0 -23 18 -37.5t48 -14.5t47.5 14zM647 66q19 15 19 41t-20 41.5t-53 15.5t-52.5 -15.5t-19.5 -41.5q0 -25 20 -40.5t53 -15.5q34 0 53 15z" />
    <glyph glyph-name="minus" unicode="&#x2212;" horiz-adv-x="600" 
d="M75 260v7q0 39 43 39h363q43 0 43 -39v-7q0 -39 -43 -39h-363q-43 0 -43 39z" />
    <glyph glyph-name="uni2219" unicode="&#x2219;" horiz-adv-x="232" 
d="M54 249q0 26 14 40.5t40 14.5h14q27 0 41 -14.5t14 -40.5v-12q0 -53 -55 -53h-14q-54 0 -54 53v12z" />
    <glyph glyph-name="notequal" unicode="&#x2260;" horiz-adv-x="600" 
d="M150 -60q-19 8 -19 27q0 13 7 30l46 106h-66q-43 0 -43 37v8q0 37 43 37h109l69 152h-178q-43 0 -43 37v7q0 37 43 37h208l61 136q14 34 34 34q7 0 13 -3l11 -4q19 -8 19 -27q0 -13 -7 -30l-48 -106h72q43 0 43 -37v-7q0 -37 -43 -37h-114l-69 -152h183q43 0 43 -37v-8
q0 -37 -43 -37h-214l-59 -136q-14 -35 -34 -35q-5 0 -13 3z" />
    <glyph glyph-name="lessequal" unicode="&#x2264;" horiz-adv-x="600" 
d="M114 269q-15 7 -21.5 18.5t-6.5 35.5t6.5 35.5t21.5 18.5l372 156q3 1 9.5 -5.5t12.5 -17t6 -22.5q3 -16 -10.5 -33t-38.5 -26l-275 -106l275 -104q24 -9 36.5 -24.5t12.5 -32.5q0 -13 -5.5 -24.5t-12.5 -18t-10 -4.5zM78 37v7q0 37 43 37h357q43 0 43 -37v-7
q0 -37 -43 -37h-357q-43 0 -43 37z" />
    <glyph glyph-name="greaterequal" unicode="&#x2265;" horiz-adv-x="600" 
d="M103 118.5q-7 6.5 -12.5 18t-5.5 24.5q0 16 13.5 32.5t35.5 25.5l276 103l-276 106q-25 10 -38.5 27t-10.5 32q1 12 6.5 22.5t12.5 17t9 5.5l373 -156q15 -7 21.5 -18.5t6.5 -35.5q0 -23 -6.5 -35t-21.5 -18l-373 -155q-3 -2 -10 4.5zM78 37v8q0 37 43 37h357
q43 0 43 -37v-8q0 -37 -43 -37h-357q-43 0 -43 37z" />
    <glyph glyph-name="uni25CC" unicode="&#x25cc;" horiz-adv-x="594" 
d="M297 494q24 0 24 -24q0 -25 -24 -25q-25 0 -25 25q0 24 25 24zM212 477q25 0 25 -25q0 -24 -25 -24q-24 0 -24 24q0 25 24 25zM383 477q23 0 23 -25q0 -24 -23 -24q-26 0 -26 24q0 25 26 25zM140 429q25 0 25 -25q0 -24 -25 -24q-24 0 -24 23q0 26 24 26zM455 429
q24 0 24 -25q0 -24 -24 -24q-25 0 -25 24q0 25 25 25zM92 356q24 0 24 -24q0 -25 -23 -25q-26 0 -26 25q0 24 25 24zM503 356q24 0 24 -24q0 -25 -25 -25q-24 0 -24 25q0 24 25 24zM75 271q24 0 24 -24t-24 -24q-25 0 -25 24t25 24zM521 271q23 0 23 -24t-23 -24
q-25 0 -25 24t25 24zM92 187q24 0 24 -25q0 -24 -24 -24q-25 0 -25 24q0 25 25 25zM502 187q25 0 25 -25q0 -24 -25 -24q-24 0 -24 24q0 25 24 25zM140 114q25 0 25 -25q0 -24 -25 -24q-24 0 -24 24q0 25 24 25zM455 114q24 0 24 -25q0 -24 -24 -24q-25 0 -25 24q0 25 25 25
zM212 66q25 0 25 -23q0 -25 -25 -25q-24 0 -24 23q0 25 24 25zM383 66q23 0 23 -25q0 -23 -23 -23q-26 0 -26 23q0 25 26 25zM297 49q24 0 24 -24q0 -25 -24 -25q-25 0 -25 25q0 24 25 24z" />
    <glyph glyph-name="heart" unicode="&#x2665;" horiz-adv-x="722" 
d="M262 56q-74 47 -117.5 80t-74.5 78.5t-31 102.5v6q0 73 43.5 120t112.5 47h4q69 0 108 -40.5t54 -100.5q15 60 54 100.5t108 40.5h4q69 0 112.5 -47t43.5 -120v-6q0 -57 -31 -102.5t-74.5 -78.5t-117.5 -80q-62 -38 -99 -66q-37 28 -99 66z" />
    <glyph glyph-name="uni2713" unicode="&#x2713;" horiz-adv-x="610" 
d="M65.5 478.5q9.5 8.5 27.5 8.5q24 0 37.5 -12.5t33.5 -43.5l113 -191l276 485q2 3 10 19q18 34 33.5 50.5t40.5 16.5q15 0 25.5 -11.5t10.5 -26.5q0 -13 -7 -24l-376 -631l-24 1l-213 340q3 11 12.5 19.5z" />
    <glyph glyph-name="uni2717" unicode="&#x2717;" horiz-adv-x="428" 
d="M118 131q-11 -11 -25 -11q-18 0 -33 14t-15 30q0 12 10 22l103 104l-99 99q-10 9 -10 22q0 17 15 32.5t32 15.5q14 0 22 -11l96 -101l97 103q9 9 22 9q17 0 31.5 -15t14.5 -32q0 -13 -10 -23l-99 -99l102 -104q10 -9 10 -21q0 -16 -15.5 -30.5t-32.5 -14.5q-14 0 -24 11
l-96 101z" />
    <glyph glyph-name="uniF8FF" unicode="&#xf8ff;" horiz-adv-x="758" 
d="M46 199q-13 6 -20 15.5t-7 20.5t7 21t20 15l123 51l-51 123q-4 12 -4 18q0 16 10 26.5t26 10.5q11 0 19 -4l123 -51l51 124q12 26 36 26q11 0 21 -6.5t15 -19.5l51 -124l123 51q9 4 19 4q15 0 25 -10.5t10 -26.5q0 -9 -3 -18l-51 -123l123 -51q13 -5 20 -15t7 -21
t-7 -20.5t-20 -15.5l-123 -50l51 -124q4 -12 4 -18q0 -16 -10 -26.5t-26 -10.5q-11 0 -19 4l-123 52l-51 -124q-5 -13 -15 -20t-21 -7t-20.5 7t-15.5 20l-51 124l-123 -52q-12 -4 -18 -4q-16 0 -26.5 10t-10.5 26q0 11 4 19l51 124zM314 103q15 0 23 -15l42 -100l42 100
q8 15 24 15l8 -2l101 -40l-41 100q-1 3 -1 8q0 16 15 24l99 42l-99 42q-9 4 -13 13.5t-1 18.5l41 101l-101 -41q-3 -1 -8 -1q-16 0 -24 15l-42 99l-42 -99q-8 -15 -24 -15q-5 0 -8 1l-101 41l41 -101q1 -3 1 -8q0 -16 -14 -24l-100 -42l100 -42q14 -8 14 -24q0 -5 -1 -8
l-41 -100l101 40q6 2 9 2z" />
    <glyph glyph-name="f_f_l" unicode="&#xfb04;" horiz-adv-x="936" 
d="M108 400h-56q-23 0 -33.5 9.5t-10.5 28.5v7q0 18 10.5 27t33.5 9h56v36q0 89 39.5 133t113.5 44q52 0 82 -20q26 -17 26 -45q0 -13 -5 -23t-11.5 -15.5t-7.5 -4.5q-11 11 -31 19.5t-41 8.5q-36 0 -52.5 -23.5t-16.5 -74.5v-35h81q23 0 33.5 -9t10.5 -28v-7
q0 -19 -10.5 -28t-33.5 -9h-79v-357q0 -26 -11 -36.5t-32 -10.5h-10q-45 0 -45 47v357zM461 400h-56q-23 0 -33.5 9.5t-10.5 28.5v7q0 18 10.5 27t33.5 9h56v36q0 89 39.5 133t113.5 44q52 0 82 -20q26 -17 26 -45q0 -13 -5 -23t-11.5 -15.5t-7.5 -4.5q-11 11 -31 19.5
t-41 8.5q-36 0 -52.5 -23.5t-16.5 -74.5v-35h81q23 0 33.5 -9t10.5 -28v-7q0 -19 -10.5 -28t-33.5 -9h-79v-357q0 -26 -11 -36.5t-32 -10.5h-10q-45 0 -45 47v357zM771 43v633q0 3 11.5 7t24.5 4q63 0 63 -85v-559q0 -47 -44 -47h-10q-45 0 -45 47z" />
    <glyph glyph-name="NULL" horiz-adv-x="0" 
 />
    <glyph glyph-name="IJ_acutecomb" horiz-adv-x="723" 
d="M78 604q0 47 44 47h14q45 0 45 -47v-561q0 -47 -45 -47h-14q-44 0 -44 47v561zM50 707q0 11 25 50t60 71t69 32q21 0 32.5 -12t11.5 -31q0 -33 -40.5 -59t-89 -41t-60.5 -15q-8 0 -8 5zM292.5 122q10.5 13 23 20.5t13.5 4.5q18 -33 48 -52t69 -19q59 0 85 33t26 110v385
q0 47 44 47h15q44 0 44 -47v-386q0 -118 -51 -174.5t-155 -56.5q-50 0 -89 15.5t-61 39.5t-22 49q0 18 10.5 31zM530 707q0 11 25 50t60 71t69 32q21 0 32.5 -12t11.5 -31q0 -33 -40.5 -59t-89 -41t-60.5 -15q-8 0 -8 5z" />
    <glyph glyph-name="uni00A40301" horiz-adv-x="464" 
d="M33.5 122q10.5 13 23 20.5t13.5 4.5q18 -33 48 -52t69 -19q59 0 85 33t26 110v385q0 47 44 47h15q44 0 44 -47v-386q0 -118 -51 -174.5t-155 -56.5q-50 0 -89 15.5t-61 39.5t-22 49q0 18 10.5 31zM271 707q0 11 25 50t60 71t69 32q21 0 32.5 -12t11.5 -31
q0 -33 -40.5 -59t-89 -41t-60.5 -15q-8 0 -8 5z" />
    <glyph glyph-name="G.ss01" horiz-adv-x="717" 
d="M86 497q42 77 117.5 120t172.5 43q66 0 117 -17.5t84 -46.5q20 -17 31.5 -36t11.5 -34q0 -18 -12 -31t-26.5 -20t-16.5 -4q-29 47 -80 73.5t-107 26.5q-66 0 -118 -31.5t-81 -88.5t-29 -130q0 -72 29 -128.5t80 -88t116 -31.5q81 0 135 46.5t58 128.5h-183q-24 0 -36 9
t-12 30v5q0 22 11.5 31t36.5 9h252q22 0 29 -9.5t7 -33.5v-11q0 -84 -37.5 -150.5t-105 -103.5t-153.5 -37q-99 0 -174.5 42.5t-117 118.5t-41.5 174t42 175z" />
    <glyph glyph-name="Gbreve.ss01" horiz-adv-x="717" 
d="M86 497q42 77 117.5 120t172.5 43q66 0 117 -17.5t84 -46.5q20 -17 31.5 -36t11.5 -34q0 -18 -12 -31t-26.5 -20t-16.5 -4q-29 47 -80 73.5t-107 26.5q-66 0 -118 -31.5t-81 -88.5t-29 -130q0 -72 29 -128.5t80 -88t116 -31.5q81 0 135 46.5t58 128.5h-183q-24 0 -36 9
t-12 30v5q0 22 11.5 31t36.5 9h252q22 0 29 -9.5t7 -33.5v-11q0 -84 -37.5 -150.5t-105 -103.5t-153.5 -37q-99 0 -174.5 42.5t-117 118.5t-41.5 174t42 175zM256.5 723.5q-39.5 27.5 -39.5 75.5q0 21 13.5 37.5t40.5 16.5q13 -75 87 -75q75 0 88 75q27 0 40.5 -16.5
t13.5 -37.5q0 -46 -35.5 -74.5t-106.5 -28.5q-62 0 -101.5 27.5z" />
    <glyph glyph-name="Gcircumflex.ss01" horiz-adv-x="717" 
d="M86 497q42 77 117.5 120t172.5 43q66 0 117 -17.5t84 -46.5q20 -17 31.5 -36t11.5 -34q0 -18 -12 -31t-26.5 -20t-16.5 -4q-29 47 -80 73.5t-107 26.5q-66 0 -118 -31.5t-81 -88.5t-29 -130q0 -72 29 -128.5t80 -88t116 -31.5q81 0 135 46.5t58 128.5h-183q-24 0 -36 9
t-12 30v5q0 22 11.5 31t36.5 9h252q22 0 29 -9.5t7 -33.5v-11q0 -84 -37.5 -150.5t-105 -103.5t-153.5 -37q-99 0 -174.5 42.5t-117 118.5t-41.5 174t42 175zM220.5 705.5q-10.5 8.5 -10.5 22.5q0 25 30.5 56.5t68 57.5t49.5 28q12 -2 49.5 -28t68 -57.5t30.5 -56.5
q0 -14 -9.5 -22.5t-24.5 -8.5q-22 0 -48.5 23.5t-65.5 76.5q-41 -55 -66 -77.5t-46 -22.5q-15 0 -25.5 8.5z" />
    <glyph glyph-name="uni0122.ss01" horiz-adv-x="717" 
d="M86 497q42 77 117.5 120t172.5 43q66 0 117 -17.5t84 -46.5q20 -17 31.5 -36t11.5 -34q0 -18 -12 -31t-26.5 -20t-16.5 -4q-29 47 -80 73.5t-107 26.5q-66 0 -118 -31.5t-81 -88.5t-29 -130q0 -72 29 -128.5t80 -88t116 -31.5q81 0 135 46.5t58 128.5h-183q-24 0 -36 9
t-12 30v5q0 22 11.5 31t36.5 9h252q22 0 29 -9.5t7 -33.5v-11q0 -84 -37.5 -150.5t-105 -103.5t-153.5 -37q-99 0 -174.5 42.5t-117 118.5t-41.5 174t42 175zM303 -224q-15 0 -24.5 7t-4.5 18l40 108q10 22 19.5 30.5t33.5 8.5h9q20 0 32.5 -9t12.5 -25v-2q0 -9 -6.5 -18.5
t-24.5 -31.5l-66 -80q-7 -6 -21 -6z" />
    <glyph glyph-name="Gdotaccent.ss01" horiz-adv-x="717" 
d="M86 497q42 77 117.5 120t172.5 43q66 0 117 -17.5t84 -46.5q20 -17 31.5 -36t11.5 -34q0 -18 -12 -31t-26.5 -20t-16.5 -4q-29 47 -80 73.5t-107 26.5q-66 0 -118 -31.5t-81 -88.5t-29 -130q0 -72 29 -128.5t80 -88t116 -31.5q81 0 135 46.5t58 128.5h-183q-24 0 -36 9
t-12 30v5q0 22 11.5 31t36.5 9h252q22 0 29 -9.5t7 -33.5v-11q0 -84 -37.5 -150.5t-105 -103.5t-153.5 -37q-99 0 -174.5 42.5t-117 118.5t-41.5 174t42 175zM314.5 724.5q-15.5 15.5 -15.5 41.5q0 27 16 42.5t44 15.5t43 -15.5t15 -42.5t-15.5 -42t-43.5 -15t-43.5 15.5z
" />
    <glyph glyph-name="I.ss02" horiz-adv-x="430" 
d="M27 45q0 42 48 42h90v473h-90q-48 0 -48 41v5q0 41 48 41h280q24 0 36 -10t12 -31v-5q0 -41 -48 -41h-87v-473h87q48 0 48 -42v-5q0 -21 -12 -30.5t-36 -9.5h-280q-48 0 -48 40v5z" />
    <glyph glyph-name="IJ.ss02" horiz-adv-x="894" 
d="M27 45q0 42 48 42h90v473h-90q-48 0 -48 41v5q0 41 48 41h280q24 0 36 -10t12 -31v-5q0 -41 -48 -41h-87v-473h87q48 0 48 -42v-5q0 -21 -12 -30.5t-36 -9.5h-280q-48 0 -48 40v5zM463.5 122q10.5 13 23 20.5t13.5 4.5q18 -33 48 -52t69 -19q59 0 85 33t26 110v385
q0 47 44 47h15q44 0 44 -47v-386q0 -118 -51 -174.5t-155 -56.5q-50 0 -89 15.5t-61 39.5t-22 49q0 18 10.5 31z" />
    <glyph glyph-name="IJ_acutecomb.ss02" horiz-adv-x="903" 
d="M116 707q0 11 25 50t60 71t69 32q21 0 32.5 -12t11.5 -31q0 -33 -40.5 -59t-89 -41t-60.5 -15q-8 0 -8 5zM689 707q0 11 25 50t60 71t69 32q21 0 32.5 -12t11.5 -31q0 -33 -40.5 -59t-89 -41t-60.5 -15q-8 0 -8 5zM545 2.5q-39 15.5 -61 39.5t-22 49q0 18 10.5 31
t23 20.5t13.5 4.5q18 -33 48 -52t69 -19q59 0 85 33t26 110v385q0 47 44 47h15q44 0 44 -47v-386q0 -118 -51 -174.5t-155 -56.5q-50 0 -89 15.5zM27 40v5q0 42 48 42h90v473h-90q-48 0 -48 41v5q0 41 48 41h280q24 0 36 -10t12 -31v-5q0 -41 -48 -41h-87v-473h87
q48 0 48 -42v-5q0 -21 -12 -30.5t-36 -9.5h-280q-48 0 -48 40z" />
    <glyph glyph-name="Iacute.ss02" horiz-adv-x="430" 
d="M27 45q0 42 48 42h90v473h-90q-48 0 -48 41v5q0 41 48 41h280q24 0 36 -10t12 -31v-5q0 -41 -48 -41h-87v-473h87q48 0 48 -42v-5q0 -21 -12 -30.5t-36 -9.5h-280q-48 0 -48 40v5zM136 707q0 11 25 50t60 71t69 32q21 0 32.5 -12t11.5 -31q0 -33 -40.5 -59t-89 -41
t-60.5 -15q-8 0 -8 5z" />
    <glyph glyph-name="Ibreve.ss02" horiz-adv-x="430" 
d="M27 45q0 42 48 42h90v473h-90q-48 0 -48 41v5q0 41 48 41h280q24 0 36 -10t12 -31v-5q0 -41 -48 -41h-87v-473h87q48 0 48 -42v-5q0 -21 -12 -30.5t-36 -9.5h-280q-48 0 -48 40v5zM113.5 723.5q-39.5 27.5 -39.5 75.5q0 21 13.5 37.5t40.5 16.5q13 -75 87 -75q75 0 88 75
q27 0 40.5 -16.5t13.5 -37.5q0 -46 -35.5 -74.5t-106.5 -28.5q-62 0 -101.5 27.5z" />
    <glyph glyph-name="Icircumflex.ss02" horiz-adv-x="430" 
d="M27 45q0 42 48 42h90v473h-90q-48 0 -48 41v5q0 41 48 41h280q24 0 36 -10t12 -31v-5q0 -41 -48 -41h-87v-473h87q48 0 48 -42v-5q0 -21 -12 -30.5t-36 -9.5h-280q-48 0 -48 40v5zM77.5 705.5q-10.5 8.5 -10.5 22.5q0 25 30.5 56.5t68 57.5t49.5 28q12 -2 49.5 -28
t68 -57.5t30.5 -56.5q0 -14 -9.5 -22.5t-24.5 -8.5q-22 0 -48.5 23.5t-65.5 76.5q-41 -55 -66 -77.5t-46 -22.5q-15 0 -25.5 8.5z" />
    <glyph glyph-name="Idieresis.ss02" horiz-adv-x="430" 
d="M27 45q0 42 48 42h90v473h-90q-48 0 -48 41v5q0 41 48 41h280q24 0 36 -10t12 -31v-5q0 -41 -48 -41h-87v-473h87q48 0 48 -42v-5q0 -21 -12 -30.5t-36 -9.5h-280q-48 0 -48 40v5zM79 723.5q-15 14.5 -15 41.5t14.5 41.5t40.5 14.5q57 0 57 -56q0 -27 -14.5 -41.5
t-41.5 -14.5q-26 0 -41 14.5zM269 723.5q-15 14.5 -15 41.5t14.5 41.5t40.5 14.5q57 0 57 -56q0 -27 -14.5 -41.5t-41.5 -14.5q-26 0 -41 14.5z" />
    <glyph glyph-name="Idotaccent.ss02" horiz-adv-x="430" 
d="M27 45q0 42 48 42h90v473h-90q-48 0 -48 41v5q0 41 48 41h280q24 0 36 -10t12 -31v-5q0 -41 -48 -41h-87v-473h87q48 0 48 -42v-5q0 -21 -12 -30.5t-36 -9.5h-280q-48 0 -48 40v5zM171.5 724.5q-15.5 15.5 -15.5 41.5q0 27 16 42.5t44 15.5t43 -15.5t15 -42.5t-15.5 -42
t-43.5 -15t-43.5 15.5z" />
    <glyph glyph-name="uni1ECA.ss02" horiz-adv-x="430" 
d="M27 45q0 42 48 42h90v473h-90q-48 0 -48 41v5q0 41 48 41h280q24 0 36 -10t12 -31v-5q0 -41 -48 -41h-87v-473h87q48 0 48 -42v-5q0 -21 -12 -30.5t-36 -9.5h-280q-48 0 -48 40v5zM171.5 -169.5q-15.5 15.5 -15.5 41.5q0 27 15.5 42.5t43.5 15.5t43.5 -15.5t15.5 -42.5
t-15.5 -42t-43.5 -15t-43.5 15.5z" />
    <glyph glyph-name="Igrave.ss02" horiz-adv-x="430" 
d="M27 45q0 42 48 42h90v473h-90q-48 0 -48 41v5q0 41 48 41h280q24 0 36 -10t12 -31v-5q0 -41 -48 -41h-87v-473h87q48 0 48 -42v-5q0 -21 -12 -30.5t-36 -9.5h-280q-48 0 -48 40v5zM206.5 717q-48.5 15 -89 41t-40.5 59q0 19 11.5 31t32.5 12q34 0 69 -32t60 -71t25 -50
q0 -5 -8 -5q-12 0 -60.5 15z" />
    <glyph glyph-name="Imacron.ss02" horiz-adv-x="430" 
d="M27 45q0 42 48 42h90v473h-90q-48 0 -48 41v5q0 41 48 41h280q24 0 36 -10t12 -31v-5q0 -41 -48 -41h-87v-473h87q48 0 48 -42v-5q0 -21 -12 -30.5t-36 -9.5h-280q-48 0 -48 40v5zM53 763v6q0 18 13 27.5t37 9.5h224q24 0 37 -9.5t13 -27.5v-6q0 -39 -50 -39h-224
q-50 0 -50 39z" />
    </font>
</defs>
</svg>
