<?xml version="1.0" standalone="no"?>
<!DOCTYPE svg PUBLIC "-//W3C//DTD SVG 1.1//EN" "http://www.w3.org/Graphics/SVG/1.1/DTD/svg11.dtd" >
<svg xmlns="http://www.w3.org/2000/svg" xmlns:xlink="http://www.w3.org/1999/xlink" version="1.1">
<metadata>
Created by FontForge 20200314 at Fri Oct 14 10:40:57 2016
 By Unknown
Copyright (c) 2015 CJ Type. All rights reserved.
</metadata>
<defs>
<font id="DunbarText-Regular" horiz-adv-x="40" >
  <font-face 
    font-family="DunbarText"
    font-weight="400"
    font-stretch="normal"
    units-per-em="1000"
    panose-1="0 0 0 0 0 0 0 2 0 0"
    ascent="780"
    descent="-220"
    x-height="500"
    cap-height="746"
    bbox="-183.333 -277 1064 1095"
    underline-thickness="0"
    underline-position="0"
    unicode-range="U+0020-FEFF"
  />
<missing-glyph horiz-adv-x="20" 
 />
    <glyph glyph-name="f_f" unicode="ff" horiz-adv-x="606" 
d="M263 421h-68v-421h-94v421h-67v79h67v112q0 54 15.5 88t40.5 53t56.5 26t63.5 7v-82q-31 0 -56.5 -19t-25.5 -79v-106h68v-79zM566 421h-68v-421h-94v421h-67v79h67v112q0 54 15.5 88t40.5 53t56.5 26t63.5 7v-82q-31 0 -56.5 -19t-25.5 -79v-106h68v-79z" />
    <glyph glyph-name="f_i" unicode="fi" horiz-adv-x="532" 
d="M263 421h-68v-421h-94v421h-67v79h67v112q0 54 15.5 88t40.5 53t56.5 26t63.5 7v-82q-31 0 -56.5 -19t-25.5 -79v-106h68v-79zM467 692v-110h-98v110h98zM465 500v-500h-94v500h94z" />
    <glyph glyph-name="f_l" unicode="fl" horiz-adv-x="532" 
d="M263 421h-68v-421h-94v421h-67v79h67v112q0 54 15.5 88t40.5 53t56.5 26t63.5 7v-82q-31 0 -56.5 -19t-25.5 -79v-106h68v-79zM465 780v-780h-94v780h94z" />
    <glyph glyph-name="f_f_i" unicode="ffi" horiz-adv-x="835" 
d="M263 421h-68v-421h-94v421h-67v79h67v112q0 54 15.5 88t40.5 53t56.5 26t63.5 7v-82q-31 0 -56.5 -19t-25.5 -79v-106h68v-79zM566 421h-68v-421h-94v421h-67v79h67v112q0 54 15.5 88t40.5 53t56.5 26t63.5 7v-82q-31 0 -56.5 -19t-25.5 -79v-106h68v-79zM770 692v-110
h-98v110h98zM768 500v-500h-94v500h94z" />
    <glyph glyph-name="f_f_l" unicode="ffl" horiz-adv-x="835" 
d="M263 421h-68v-421h-94v421h-67v79h67v112q0 54 15.5 88t40.5 53t56.5 26t63.5 7v-82q-31 0 -56.5 -19t-25.5 -79v-106h68v-79zM566 421h-68v-421h-94v421h-67v79h67v112q0 54 15.5 88t40.5 53t56.5 26t63.5 7v-82q-31 0 -56.5 -19t-25.5 -79v-106h68v-79zM768 780v-780
h-94v780h94z" />
    <glyph glyph-name=".notdef" horiz-adv-x="20" 
 />
    <glyph glyph-name=".null" horiz-adv-x="0" 
 />
    <glyph glyph-name="nonmarkingreturn" horiz-adv-x="333" 
 />
    <glyph glyph-name="space" unicode=" " horiz-adv-x="200" 
 />
    <glyph glyph-name="exclam" unicode="!" horiz-adv-x="325" 
d="M203 182h-82l-18 564h119zM106 0v110h113v-110h-113z" />
    <glyph glyph-name="quotedbl" unicode="&#x22;" horiz-adv-x="468" 
d="M76 469l56 277h109l-95 -277h-70zM239 469l56 277h109l-95 -277h-70z" />
    <glyph glyph-name="numbersign" unicode="#" horiz-adv-x="798" 
d="M472 289l34 168h-170l-35 -168h171zM414 0l42 210h-170l-43 -210h-83l42 210h-137v79h153l34 168h-148v79h164l42 210h84l-43 -210h171l42 210h85l-43 -210h126v-79h-142l-34 -168h136v-79h-152l-43 -210h-83z" />
    <glyph glyph-name="dollar" unicode="$" horiz-adv-x="560" 
d="M314 -116h-70v114q-49 1 -101 13.5t-86 35.5v94q49 -34 95 -47t103 -13q80 0 117.5 34.5t37.5 73.5q0 38 -39 73t-123 91q-100 65 -142.5 113.5t-42.5 108.5q0 55 45.5 102.5t135.5 57.5v112h70v-110q35 -2 75 -11t71 -26l1 -90q-31 20 -73 32.5t-88 12.5q-39 0 -65 -8
t-41.5 -19.5t-22 -25t-6.5 -24.5q0 -40 35 -73.5t113 -84.5q49 -34 86 -60.5t61.5 -52t37 -53t12.5 -63.5q0 -43 -15.5 -76t-42 -56.5t-62 -37.5t-76.5 -19v-118z" />
    <glyph glyph-name="percent" unicode="%" horiz-adv-x="780" 
d="M669 746l-478 -746h-78l476 746h80zM190 746q64 0 106 -47.5t42 -140.5v-26q0 -93 -42.5 -140.5t-105.5 -47.5q-61 0 -103.5 47.5t-42.5 140.5v26q0 93 42.5 140.5t103.5 47.5zM263 532v25q0 66 -20 99.5t-53 33.5q-31 0 -51 -33.5t-20 -99.5v-25q0 -66 20 -99t51 -33
q32 0 52.5 33t20.5 99zM589 402q63 0 105 -47.5t42 -140.5v-26q0 -93 -42 -140.5t-105 -47.5q-62 0 -104 47.5t-42 140.5v26q0 93 42 140.5t104 47.5zM661 188v25q0 66 -20 99.5t-52 33.5q-31 0 -51 -33.5t-20 -99.5v-25q0 -66 20 -99t51 -33q32 0 52 33t20 99z" />
    <glyph glyph-name="ampersand" unicode="&#x26;" horiz-adv-x="764" 
d="M246 600q0 -37 21.5 -65t57.5 -68l6 4l6 4q52 34 82 63.5t30 69.5q0 30 -25.5 58t-76.5 28q-46 0 -73.5 -28t-27.5 -66zM304 59q51 0 95.5 25t82.5 64q-48 55 -98 113t-83 96q-59 -38 -95 -76t-36 -94q0 -26 11.5 -49t30 -40.5t43 -28t49.5 -10.5zM612 0q-4 4 -23.5 26
t-47.5 54q-47 -46 -106.5 -75.5t-139.5 -28.5q-50 0 -93 15t-74 42t-49 64.5t-18 82.5q0 83 52.5 135t134.5 104q-47 52 -75.5 92.5t-28.5 89.5q0 70 57.5 119.5t144.5 49.5q48 0 86 -13t63.5 -35t39.5 -51.5t14 -61.5q0 -62 -43.5 -105t-105.5 -84q-5 -4 -10.5 -7t-10.5 -7
q31 -35 74.5 -85.5t88.5 -101.5q21 27 41.5 56t40.5 57l65 -63q-22 -29 -43.5 -60t-43.5 -59q51 -59 87.5 -101.5t38.5 -44.5l-2 -4h-114z" />
    <glyph glyph-name="quotesingle" unicode="'" horiz-adv-x="305" 
d="M76 469l56 277h109l-95 -277h-70z" />
    <glyph glyph-name="parenleft" unicode="(" horiz-adv-x="449" 
d="M310 776l55 -61q-26 -26 -55 -67t-52.5 -93.5t-39 -116.5t-15.5 -135v-13q0 -71 15 -135.5t38.5 -117.5t52.5 -93.5t56 -64.5l-54 -61q-33 27 -69 71t-65.5 103.5t-49 134t-19.5 161.5v16q0 87 19.5 161.5t48.5 133.5t65 103.5t69 73.5z" />
    <glyph glyph-name="parenright" unicode=")" horiz-adv-x="449" 
d="M138 776q33 -29 69 -73.5t65 -103.5t48.5 -133.5t19.5 -161.5v-16q0 -87 -19.5 -161.5t-49 -134t-65.5 -103.5t-69 -71l-53 61q27 24 56 64.5t52 93.5t38 117.5t15 135.5v13q0 71 -15 135t-38.5 116.5t-52.5 93.5t-55 67z" />
    <glyph glyph-name="asterisk" unicode="*" horiz-adv-x="408" 
d="M280 418l-75 133l-75 -135l-62 45l103 107l-132 24l24 73l121 -58l-18 139h76l-18 -138l120 58l24 -73l-130 -24l102 -107z" />
    <glyph glyph-name="plus" unicode="+" horiz-adv-x="654" 
d="M595 311h-223v-243h-90v243h-223v79h223v224h90v-224h223v-79z" />
    <glyph glyph-name="comma" unicode="," horiz-adv-x="291" 
d="M102 119h117l-90 -269h-72z" />
    <glyph glyph-name="hyphen" unicode="-" horiz-adv-x="411" 
d="M351 323v-93h-291v93h291z" />
    <glyph glyph-name="period" unicode="." horiz-adv-x="276" 
d="M79 124h118v-124h-118v124z" />
    <glyph glyph-name="slash" unicode="/" horiz-adv-x="570" 
d="M534 780l-495 -1000h-93l492 1000h96z" />
    <glyph glyph-name="zero" unicode="0" horiz-adv-x="643" 
d="M322 770q56 0 104 -23.5t82.5 -70t54 -116.5t19.5 -162v-52q0 -91 -19.5 -160.5t-54 -116t-82.5 -70t-104 -23.5q-55 0 -103 23.5t-82.5 70t-54.5 116t-20 160.5v52q0 92 20 162t54.5 116.5t82.5 70t103 23.5zM486 346v52q0 147 -45.5 218t-118.5 71q-71 0 -118 -71
t-47 -218v-52q0 -146 47 -217t118 -71q72 0 118 71t46 217z" />
    <glyph glyph-name="one" unicode="1" horiz-adv-x="389" 
d="M298 0h-95v601l-146 -153v123l167 175h74v-746z" />
    <glyph glyph-name="two" unicode="2" horiz-adv-x="609" 
d="M523 0h-476l-5 11q11 13 53 61t90 103t91 104.5t55 64.5q55 66 77.5 109.5t22.5 92.5q0 27 -11 52.5t-31 45t-47.5 32t-61.5 12.5q-43 0 -85.5 -15.5t-88.5 -55.5l1 101q40 26 86 39t95 13q53 0 98 -18t76.5 -48t49.5 -70t18 -85q1 -66 -29.5 -120t-95.5 -131
q-10 -12 -32 -36.5t-49 -54.5t-57.5 -63.5t-56.5 -62.5h347z" />
    <glyph glyph-name="three" unicode="3" horiz-adv-x="541" 
d="M209 -24q-16 0 -38.5 2.5t-45.5 7t-45.5 11.5t-38.5 16v86q16 -10 37 -17.5t41.5 -13t39.5 -8t31 -2.5q90 -1 147.5 46t57.5 116q0 70 -55 112.5t-137 42.5h-56l3 80h53q63 0 105.5 37.5t42.5 86.5q0 48 -39 79t-98 31q-30 0 -60.5 -5.5t-63.5 -21.5l9 87q23 10 56 15.5
t72 5.5q46 0 86 -13.5t69.5 -38t47 -58t17.5 -71.5q-1 -50 -30 -95.5t-75 -70.5q65 -23 106.5 -77.5t41.5 -127.5q0 -51 -21 -95.5t-58 -77t-88.5 -51t-113.5 -18.5z" />
    <glyph glyph-name="four" unicode="4" horiz-adv-x="661" 
d="M421 234v355l-240 -355h240zM589 154h-72v-154h-96v154h-373l-5 14l394 578h80v-512h97z" />
    <glyph glyph-name="five" unicode="5" horiz-adv-x="614" 
d="M227 -24q-39 0 -87.5 12t-91.5 34v87q40 -23 88 -37.5t91 -14.5q45 0 83.5 14t66.5 39.5t44 61t16 78.5q0 69 -53.5 116.5t-139.5 47.5q-43 0 -79 -8t-72 -21l92 361h378l-26 -82h-286l-46 -174q16 2 32 3.5t32 1.5q60 0 109.5 -18.5t84 -50.5t53.5 -77.5t19 -98.5
q0 -59 -22 -109.5t-62.5 -87t-97.5 -57t-126 -20.5z" />
    <glyph glyph-name="six" unicode="6" horiz-adv-x="624" 
d="M314 -24q-54 0 -102.5 17.5t-85 50t-58 79.5t-21.5 105q0 59 25 123.5t65 130t90 132.5t100 132h118q-70 -87 -130.5 -165.5t-102.5 -147.5q26 17 58 26.5t67 9.5q51 0 95.5 -19t78 -51.5t52.5 -77t19 -94.5q0 -51 -20.5 -97t-56 -80t-85 -54t-106.5 -20zM314 392
q-35 0 -66.5 -13t-55 -36t-37.5 -53.5t-14 -64.5t14 -64.5t37.5 -53.5t55 -36.5t66.5 -13.5q36 0 67.5 13.5t54.5 36.5t36.5 53.5t13.5 64.5q0 69 -50 118t-122 49z" />
    <glyph glyph-name="seven" unicode="7" horiz-adv-x="582" 
d="M234 0h-104l282 663h-370l31 83h477z" />
    <glyph glyph-name="eight" unicode="8" horiz-adv-x="618" 
d="M309 -24q-59 0 -108.5 18.5t-84.5 50t-55 74.5t-20 92q0 66 37.5 120.5t100.5 82.5q-45 25 -71 66.5t-26 90.5q0 41 17 77t47 63t72 43t91 16q50 0 92.5 -16t72.5 -43t46.5 -63t16.5 -77q0 -49 -26 -91t-71 -67q63 -28 100.5 -82t37.5 -120q0 -49 -20 -92t-56 -74.5
t-85.5 -50t-107.5 -18.5zM309 444q53 0 92.5 35t39.5 86q0 52 -39 88t-93 36t-93.5 -36t-39.5 -88q0 -50 39.5 -85.5t93.5 -35.5zM309 56q36 0 67.5 12.5t55.5 34t37.5 50.5t13.5 62q0 68 -51 113t-123 45q-35 0 -66.5 -12t-55 -33t-37.5 -50t-14 -63q0 -33 14 -62
t37.5 -50.5t55 -34t66.5 -12.5z" />
    <glyph glyph-name="nine" unicode="9" horiz-adv-x="624" 
d="M297 0h-118q70 87 130.5 165.5t103.5 147.5q-27 -17 -58.5 -26.5t-67.5 -9.5q-51 0 -95.5 19t-78 51.5t-52.5 77t-19 94.5q0 51 20.5 97t56 80t84.5 54t106 20q54 0 103 -17.5t85.5 -50t58 -79.5t21.5 -105q0 -59 -25 -123.5t-65 -130t-90 -132.5t-100 -132zM309 354
q35 0 66.5 13t55 36t37.5 53.5t14 64.5t-14 64.5t-37.5 53.5t-55 36.5t-66.5 13.5t-66.5 -13.5t-55 -36.5t-37 -53.5t-13.5 -64.5t13.5 -64.5t37 -53.5t55 -36t66.5 -13z" />
    <glyph glyph-name="colon" unicode=":" horiz-adv-x="277" 
d="M82 459h114v-133h-114v133zM82 133h114v-133h-114v133z" />
    <glyph glyph-name="semicolon" unicode=";" horiz-adv-x="292" 
d="M95 459h112v-133h-112v133zM95 108h113l-74 -247h-74z" />
    <glyph glyph-name="less" unicode="&#x3c;" horiz-adv-x="601" 
d="M552 31l-504 248v75l504 249v-88l-410 -197l410 -196v-91z" />
    <glyph glyph-name="equal" unicode="=" horiz-adv-x="580" 
d="M522 482v-75h-463v75h463zM522 272v-75h-463v75h463z" />
    <glyph glyph-name="greater" unicode="&#x3e;" horiz-adv-x="601" 
d="M49 31v91l410 196l-410 197v88l504 -249v-75z" />
    <glyph glyph-name="question" unicode="?" horiz-adv-x="577" 
d="M301 175h-92v215h29q32 0 62 9.5t52.5 29t36.5 48t14 65.5q0 54 -41.5 95t-114.5 41q-42 0 -83.5 -14t-85.5 -51l-3 93q42 27 90 41t99 14q104 0 170 -60t66 -158q0 -50 -16 -90t-43.5 -69t-63.5 -46.5t-76 -23.5v-139zM208 0v104h94v-104h-94z" />
    <glyph glyph-name="at" unicode="@" horiz-adv-x="1041" 
d="M552 -189q-109 0 -199 37.5t-153.5 100.5t-98 148.5t-34.5 182.5q0 90 33 173t93.5 145.5t147 100t192.5 37.5q100 0 182.5 -34.5t140.5 -92t90 -134.5t32 -161q0 -78 -20 -131.5t-50 -85.5t-65.5 -46.5t-64.5 -14.5q-51 0 -79 26t-33 63q-29 -34 -71.5 -55.5
t-93.5 -22.5q-47 -1 -87.5 15t-70 45t-46.5 69.5t-17 88.5t17 89t46.5 70t70 46t87.5 17q49 1 91 -20.5t71 -55.5v55h83v-323q0 -31 15 -39.5t28 -8.5q17 0 39.5 11t43 37t34.5 68t14 104q0 73 -27.5 140t-78 118t-122 81.5t-159.5 30.5q-93 0 -168.5 -34t-128.5 -90
t-82 -129t-29 -151q0 -83 30 -159t85 -133.5t134.5 -92t177.5 -34.5q41 0 85 5.5t85.5 16.5t78 26.5t62.5 36.5l30 -45q-29 -21 -69 -38t-85 -29t-93.5 -18t-93.5 -6zM516 122q29 0 55.5 12t45.5 32t30 46t11 54t-10.5 53.5t-29.5 45.5t-45 32t-57 12q-58 0 -101.5 -37.5
t-43.5 -105.5t43.5 -106t101.5 -38z" />
    <glyph glyph-name="A" unicode="A" horiz-adv-x="737" 
d="M519 235l-151 389l-153 -389h304zM610 0l-59 151h-369l-59 -151h-105l300 746h102l299 -746h-109z" />
    <glyph glyph-name="B" unicode="B" horiz-adv-x="571" 
d="M282 0h-211v746h190q64 0 108.5 -15t71.5 -40t39 -59t12 -72q0 -50 -26 -95t-73 -74q60 -26 93 -77.5t33 -114.5q0 -37 -13 -73t-41.5 -64t-74 -45t-108.5 -17zM245 661h-72v-237h68q71 0 113.5 37t42.5 89q-1 44 -33.5 77.5t-118.5 33.5zM258 343h-85v-258h89
q44 0 73.5 11t47.5 28.5t25.5 39.5t7.5 45q0 59 -43 96.5t-115 37.5z" />
    <glyph glyph-name="C" unicode="C" horiz-adv-x="683" 
d="M628 730v-101q-37 22 -79.5 34.5t-88.5 12.5q-64 0 -120.5 -25t-98.5 -66t-66.5 -96t-24.5 -114q0 -61 24.5 -116.5t66.5 -97t98.5 -66.5t120.5 -25q46 0 88.5 12.5t79.5 34.5v-102q-39 -18 -82.5 -28.5t-90.5 -10.5q-86 0 -161 31.5t-129.5 85t-86 126.5t-31.5 155
t31.5 154.5t86 126t129.5 84.5t161 31q47 0 90 -10.5t83 -29.5z" />
    <glyph glyph-name="D" unicode="D" horiz-adv-x="686" 
d="M71 0v746h188q73 0 141 -25t120.5 -72t84 -116.5t31.5 -158.5q0 -90 -31.5 -160t-83.5 -117.5t-120 -72t-141 -24.5h-189zM173 655v-564h85q54 0 104 18.5t87.5 54t60.5 88.5t23 122q0 68 -23 121t-60.5 88t-87.5 53.5t-104 18.5h-85z" />
    <glyph glyph-name="E" unicode="E" horiz-adv-x="520" 
d="M71 0v746h380v-89h-278v-220h257v-87h-257v-261h286v-89h-388z" />
    <glyph glyph-name="F" unicode="F" horiz-adv-x="531" 
d="M71 0v746h408v-89h-306v-236h276v-89h-276v-332h-102z" />
    <glyph glyph-name="G" unicode="G" horiz-adv-x="880" 
d="M834 372q0 -81 -29.5 -153.5t-80.5 -126t-120 -85t-148 -31.5q-85 0 -160 31.5t-130 85t-87 126.5t-32 155t32 154.5t87 126t130 84.5t160 31q81 0 154 -28.5t124 -75.5l-68 -71q-44 39 -97 60.5t-113 21.5q-63 0 -119 -24.5t-97.5 -66t-65.5 -96.5t-24 -115
q0 -62 24 -117.5t65.5 -97.5t97.5 -66.5t119 -24.5q53 0 100.5 20t83.5 54.5t59.5 80.5t29.5 98l-247 -1l40 92h312v-41z" />
    <glyph glyph-name="H" unicode="H" horiz-adv-x="704" 
d="M71 0v746h102v-303h358v303h102v-746h-102v352h-358v-352h-102z" />
    <glyph glyph-name="I" unicode="I" horiz-adv-x="248" 
d="M73 0v746h102v-746h-102z" />
    <glyph glyph-name="J" unicode="J" horiz-adv-x="356" 
d="M25 0v94q16 -7 32.5 -10.5t34.5 -3.5t34.5 5t29 21.5t19.5 46.5t7 80v513h102v-537q0 -120 -41.5 -171.5t-140.5 -51.5q-22 0 -41 3.5t-36 10.5z" />
    <glyph glyph-name="K" unicode="K" horiz-adv-x="667" 
d="M513 0l-284 347l-56 -64v-283h-102v746h102v-320l283 320h125l-285 -324l345 -422h-128z" />
    <glyph glyph-name="L" unicode="L" horiz-adv-x="477" 
d="M71 746h102v-655h273v-91h-375v746z" />
    <glyph glyph-name="M" unicode="M" horiz-adv-x="875" 
d="M430 129l-257 432v-561h-102v746h108l264 -447l255 447h106v-746h-102v558l-249 -429h-23z" />
    <glyph glyph-name="N" unicode="N" horiz-adv-x="758" 
d="M586 0l-413 580v-580h-102v746h106l406 -571v571h102v-746h-99z" />
    <glyph glyph-name="O" unicode="O" horiz-adv-x="912" 
d="M456 770q85 0 159.5 -31t129.5 -84.5t87 -126t32 -154.5t-32 -155t-87 -126.5t-129.5 -85t-159.5 -31.5t-160 31.5t-130 85t-87 126.5t-32 155t32 154.5t87 126t130 84.5t160 31zM456 677q-63 0 -119 -24.5t-97.5 -66t-65.5 -96.5t-24 -115q0 -62 24 -117.5t65.5 -97.5
t97.5 -66.5t119 -24.5t119 24.5t97 66.5t65 97.5t24 117.5q0 60 -24 115t-65 96.5t-97 66t-119 24.5z" />
    <glyph glyph-name="P" unicode="P" horiz-adv-x="553" 
d="M244 292h-71v-292h-102v746h179q122 0 190.5 -55t69.5 -169q0 -56 -22 -99t-58 -72t-84.5 -44t-101.5 -15zM256 653h-83v-268h83q66 0 109 38t43 99q-1 54 -34 92.5t-118 38.5z" />
    <glyph glyph-name="Q" unicode="Q" horiz-adv-x="912" 
d="M456 677q-63 0 -119 -24.5t-97.5 -66t-65.5 -96.5t-24 -115q0 -62 24 -117.5t65.5 -97.5t97.5 -66.5t119 -24.5t119 24.5t97 66.5t65 97.5t24 117.5q0 60 -24 115t-65 96.5t-97 66t-119 24.5zM850 -23h-366q-7 -1 -14 -1h-14q-85 0 -160 31.5t-130 85t-87 126.5t-32 155
t32 154.5t87 126t130 84.5t160 31t159.5 -31t129.5 -84.5t87 -126t32 -153.5q0 -101 -53.5 -187t-138.5 -134l200 12z" />
    <glyph glyph-name="R" unicode="R" horiz-adv-x="605" 
d="M242 653h-69v-263h67q69 0 111.5 38.5t42.5 96.5q0 50 -36.5 89t-115.5 39zM446 0l-267 302h-6v-302h-102v746h170q120 0 187.5 -59t67.5 -161q0 -87 -55.5 -143t-137.5 -74l269 -309h-126z" />
    <glyph glyph-name="S" unicode="S" horiz-adv-x="521" 
d="M424 734l-2 -97q-28 15 -63.5 26t-72.5 11q-66 0 -91.5 -28t-25.5 -55q0 -38 30 -72t97 -85q96 -73 136 -128.5t40 -112.5q0 -48 -18.5 -86.5t-51 -64.5t-77.5 -40t-96 -14q-40 0 -90.5 11t-83.5 27l2 99q37 -23 85.5 -36.5t91.5 -13.5q69 0 102 35.5t33 76.5
q0 40 -31.5 78.5t-105.5 93.5q-89 69 -127.5 118t-38.5 111q0 33 13 64t39.5 55.5t67.5 39t97 14.5q33 0 71.5 -7t69.5 -20z" />
    <glyph glyph-name="T" unicode="T" horiz-adv-x="431" 
d="M164 0v656h-134v90h371v-90h-135v-656h-102z" />
    <glyph glyph-name="U" unicode="U" horiz-adv-x="697" 
d="M626 295q0 -147 -70.5 -233t-207.5 -86q-135 0 -206 86t-71 233v451h102v-481q0 -49 15 -85.5t39 -61t56 -37t65 -12.5q35 0 67 12.5t56 37t38.5 61t14.5 85.5v481h102v-451z" />
    <glyph glyph-name="V" unicode="V" horiz-adv-x="713" 
d="M410 0h-108l-286 746h109l234 -617l232 617h106z" />
    <glyph glyph-name="W" unicode="W" horiz-adv-x="1017" 
d="M674 0l-164 584l-167 -584h-105l-220 746h107l170 -597l165 597h103l164 -597l170 597h102l-220 -746h-105z" />
    <glyph glyph-name="X" unicode="X" horiz-adv-x="667" 
d="M528 0l-196 324l-193 -324h-113l238 393l-216 353h115l169 -278l172 278h110l-215 -350l242 -396h-113z" />
    <glyph glyph-name="Y" unicode="Y" horiz-adv-x="637" 
d="M369 0h-102v242l-254 504h112l195 -402l198 402h106l-255 -504v-242z" />
    <glyph glyph-name="Z" unicode="Z" horiz-adv-x="640" 
d="M569 0h-534l-1 9l390 650h-343l41 87h463l1 -9l-391 -650h414z" />
    <glyph glyph-name="bracketleft" unicode="[" horiz-adv-x="427" 
d="M137 -214v960h222v-64h-127v-832h135v-64h-230z" />
    <glyph glyph-name="backslash" unicode="\" horiz-adv-x="572" 
d="M36 780h98l493 -1000h-96z" />
    <glyph glyph-name="bracketright" unicode="]" horiz-adv-x="427" 
d="M290 -214h-230v64h135v832h-127v64h222v-960z" />
    <glyph glyph-name="asciicircum" unicode="^" horiz-adv-x="664" 
d="M503 369l-172 293l-172 -293h-92l222 377h83l225 -377h-94z" />
    <glyph glyph-name="underscore" unicode="_" horiz-adv-x="540" 
d="M520 -57v-75h-500v75h500z" />
    <glyph glyph-name="grave" unicode="`" horiz-adv-x="540" 
d="M151 790h118l86 -147h-77z" />
    <glyph glyph-name="a" unicode="a" horiz-adv-x="529" 
d="M255 45q49 0 83 31.5t34 74.5t-33 73t-84 30t-81.5 -30t-30.5 -73t30.5 -74.5t81.5 -31.5zM376 0v48q-25 -28 -64 -47.5t-89 -19.5q-75 0 -126.5 47.5t-51.5 119.5t52.5 121t136.5 49q44 0 78.5 -13t58.5 -32v33q0 72 -33.5 100.5t-90.5 28.5q-25 0 -51.5 -3t-73.5 -13
l-4 79q46 10 76 13t66 3q104 0 154 -50.5t50 -133.5v-330h-88z" />
    <glyph glyph-name="b" unicode="b" horiz-adv-x="668" 
d="M364 -21q-66 0 -120 28.5t-89 74.5v-82h-90v780h94v-359q35 45 88.5 72.5t116.5 27.5q56 0 103.5 -22t82 -59t54 -86.5t19.5 -103.5q0 -55 -19.5 -104.5t-54 -86.5t-82 -58.5t-103.5 -21.5zM157 249q0 -37 14 -70.5t38.5 -59t58.5 -41t73 -15.5q40 0 73.5 15.5t58 41
t38 59.5t13.5 71t-13.5 71t-38 60t-58 41t-73.5 15q-39 0 -73 -15.5t-58.5 -41t-38.5 -60t-14 -71.5z" />
    <glyph glyph-name="c" unicode="c" horiz-adv-x="512" 
d="M454 95v-86q-24 -13 -60 -19t-62 -6q-61 0 -113.5 21t-91 57t-60.5 84.5t-22 103.5t22 103.5t60.5 84.5t91 57t113.5 21q25 0 60.5 -6.5t61.5 -20.5v-87h-3q-31 20 -62.5 26.5t-55.5 6.5q-40 0 -75 -14.5t-60 -39.5t-39.5 -59t-14.5 -72t14.5 -72t39.5 -59t60 -39.5
t75 -14.5q25 0 54.5 5.5t63.5 24.5h3z" />
    <glyph glyph-name="d" unicode="d" horiz-adv-x="668" 
d="M511 249q0 37 -14 71.5t-38.5 60t-58.5 41t-73 15.5q-40 0 -73.5 -15t-58 -41t-38 -60t-13.5 -71t13.5 -71t38 -59.5t58 -41t73.5 -15.5q39 0 73 15.5t58.5 41t38.5 59t14 70.5zM514 0v82q-35 -46 -89.5 -74.5t-120.5 -28.5q-55 0 -102.5 21.5t-82.5 58.5t-54.5 86.5
t-19.5 104.5q0 54 19.5 103.5t54.5 86.5t82.5 59t102.5 22q63 0 116.5 -27.5t88.5 -72.5v359h93v-780h-88z" />
    <glyph glyph-name="e" unicode="e" horiz-adv-x="626" 
d="M316 445q-63 0 -107.5 -38t-58.5 -101h331q-14 61 -58.5 100t-106.5 39zM574 69q-40 -39 -101 -66.5t-140 -27.5q-65 0 -118 21.5t-90.5 58.5t-58.5 87.5t-21 107.5t20 107t56 87.5t86 59t109 21.5q56 0 105 -20.5t85 -57t57 -85.5t21 -106v-23h-439q5 -80 56 -129.5
t132 -49.5q59 0 105.5 21.5t81.5 54.5z" />
    <glyph glyph-name="f" unicode="f" horiz-adv-x="303" 
d="M263 421h-68v-421h-94v421h-67v79h67v112q0 54 15.5 88t40.5 53t56.5 26t63.5 7v-82q-31 0 -56.5 -19t-25.5 -79v-106h68v-79z" />
    <glyph glyph-name="g" unicode="g" horiz-adv-x="644" 
d="M319 95q35 0 65.5 13.5t53.5 37t36 55t13 66.5t-13 66.5t-36 55t-53.5 37t-65.5 13.5q-36 0 -68 -13.5t-55.5 -37t-37.5 -55t-14 -66.5t14 -66.5t37.5 -55t55.5 -37t68 -13.5zM310 -213q-35 0 -77 4t-91 14v82q57 -12 96 -16t71 -4q35 0 67.5 8.5t56.5 29.5t38 57t14 90
v48q-37 -41 -86.5 -63.5t-97.5 -22.5q-50 0 -96.5 18t-81.5 51t-56 80t-21 104t21 104.5t55.5 80.5t81 51.5t97.5 18.5q49 0 99 -23t87 -66v67h92v-446q0 -75 -19.5 -126.5t-55 -82.5t-85 -44.5t-109.5 -13.5z" />
    <glyph glyph-name="h" unicode="h" horiz-adv-x="563" 
d="M159 307v-307h-94v780h92v-340q24 28 66 50.5t96 22.5q81 0 130.5 -50t49.5 -137v-326h-93v298q0 74 -37 103t-85 29q-20 0 -42 -8t-40.5 -23.5t-30.5 -38.5t-12 -53z" />
    <glyph glyph-name="i" unicode="i" horiz-adv-x="229" 
d="M164 692v-110h-98v110h98zM162 500v-500h-94v500h94z" />
    <glyph glyph-name="j" unicode="j" horiz-adv-x="229" 
d="M164 692v-110h-98v110h98zM-32 -130h10q44 0 67 27t23 82v521h94v-520q0 -105 -43 -150.5t-138 -45.5h-13v86z" />
    <glyph glyph-name="k" unicode="k" horiz-adv-x="532" 
d="M392 0l-178 239l-55 -52v-187h-94v780h94v-477l213 197h121l-211 -200l226 -300h-116z" />
    <glyph glyph-name="l" unicode="l" horiz-adv-x="229" 
d="M162 780v-780h-94v780h94z" />
    <glyph glyph-name="m" unicode="m" horiz-adv-x="827" 
d="M160 307v-307h-95v500h91v-67q19 30 54.5 55t86.5 25q52 0 90.5 -24.5t57.5 -70.5q15 33 54 64t100 31q74 0 119 -50t45 -137v-326h-94v298q0 75 -29 103.5t-75 28.5q-38 0 -71 -31.5t-33 -91.5v-307h-94v298q0 75 -30 103.5t-73 28.5q-39 0 -71.5 -31.5t-32.5 -91.5z
" />
    <glyph glyph-name="n" unicode="n" horiz-adv-x="563" 
d="M159 307v-307h-94v500h90v-62q24 29 66.5 52t97.5 23q81 0 130.5 -50t49.5 -137v-326h-94v298q0 74 -37 103t-84 29q-20 0 -42 -8t-40.5 -23.5t-30.5 -38.5t-12 -53z" />
    <glyph glyph-name="o" unicode="o" horiz-adv-x="659" 
d="M329 525q61 0 113.5 -22t90.5 -59.5t59.5 -87.5t21.5 -106t-21.5 -106t-59.5 -87.5t-90.5 -59.5t-113.5 -22t-113 22t-90 59.5t-59.5 87.5t-21.5 106t21.5 106t59.5 87.5t90 59.5t113 22zM329 444q-40 0 -74 -15.5t-58.5 -42t-38.5 -62t-14 -74.5t14 -74.5t38.5 -62
t58.5 -42t74 -15.5t74.5 16t59 42t38.5 61.5t14 74.5t-14 74.5t-38.5 62t-59 42t-74.5 15.5z" />
    <glyph glyph-name="p" unicode="p" horiz-adv-x="668" 
d="M157 251q0 -37 14 -71.5t38.5 -60t58.5 -41t73 -15.5q40 0 73.5 15t58 41t38 60t13.5 71t-13.5 71t-38 59.5t-58 41t-73.5 15.5q-39 0 -73 -15.5t-58.5 -41t-38.5 -59t-14 -70.5zM364 -21q-63 0 -116.5 27.5t-88.5 72.5v-292h-94v713h90v-82q35 46 89 74.5t120 28.5
q56 0 103.5 -21.5t82 -58.5t54 -86.5t19.5 -104.5q0 -54 -19.5 -103.5t-54 -86.5t-82 -59t-103.5 -22z" />
    <glyph glyph-name="q" unicode="q" horiz-adv-x="668" 
d="M602 -213h-93v292q-35 -45 -89 -72.5t-117 -27.5q-55 0 -102.5 22t-82 59t-54 86.5t-19.5 103.5q0 55 19.5 104.5t54 86.5t82 58.5t102.5 21.5q66 0 121 -28.5t90 -74.5v82h88v-713zM511 251q0 37 -14 70.5t-38.5 59t-58.5 41t-73 15.5q-40 0 -73.5 -15.5t-58 -41
t-38 -59.5t-13.5 -71t13.5 -71t38 -60t58 -41t73.5 -15q39 0 73 15.5t58.5 41t38.5 60t14 71.5z" />
    <glyph glyph-name="r" unicode="r" horiz-adv-x="359" 
d="M159 274v-274h-94v500h90v-103q7 15 20.5 33t31.5 33.5t41 26t49 10.5h16v-106q-3 2 -9.5 3t-10.5 1q-31 0 -55.5 -12.5t-42 -31t-27 -40t-9.5 -40.5z" />
    <glyph glyph-name="s" unicode="s" horiz-adv-x="428" 
d="M218 515q31 0 58.5 -6t49.5 -16v-86q-26 14 -52 22t-49 8q-34 0 -54.5 -14.5t-20.5 -38.5q0 -17 19.5 -35t65.5 -47q87 -55 117.5 -94.5t30.5 -82.5q0 -63 -48 -101t-129 -39q-35 0 -75.5 10.5t-70.5 25.5v86q37 -20 73.5 -31t61.5 -11q45 1 66.5 18.5t21.5 42.5
q0 7 -3 16.5t-14 21.5t-31.5 28t-54.5 37q-75 49 -102 81.5t-27 78.5q0 22 9.5 44.5t29.5 40.5t52 29.5t76 11.5z" />
    <glyph glyph-name="t" unicode="t" horiz-adv-x="297" 
d="M261 421h-66v-421h-93v421h-67v79h67v159l93 37v-196h66v-79z" />
    <glyph glyph-name="u" unicode="u" horiz-adv-x="563" 
d="M408 0v62q-24 -29 -67 -52t-97 -23q-81 0 -131 50t-50 137v326h94v-298q0 -74 37 -103t85 -29q20 0 42 8t40.5 23.5t30.5 38.5t12 53v307h93v-500h-89z" />
    <glyph glyph-name="v" unicode="v" horiz-adv-x="576" 
d="M343 0h-110l-217 500h104l169 -404l173 404h98z" />
    <glyph glyph-name="w" unicode="w" horiz-adv-x="797" 
d="M520 0l-121 365l-118 -365h-93l-172 500h100l119 -376l118 376h97l116 -376l120 376h95l-171 -500h-90z" />
    <glyph glyph-name="x" unicode="x" horiz-adv-x="559" 
d="M418 0l-141 199l-145 -199h-102l190 258l-172 242h107l129 -187l131 187h102l-177 -242l181 -258h-103z" />
    <glyph glyph-name="y" unicode="y" horiz-adv-x="554" 
d="M267 -213h-95l76 202l-232 511h104l172 -398l150 398h96z" />
    <glyph glyph-name="z" unicode="z" horiz-adv-x="543" 
d="M462 0h-427l-2 5l312 415h-255l35 80h377l2 -5l-310 -415h302z" />
    <glyph glyph-name="braceleft" unicode="{" horiz-adv-x="444" 
d="M357 -214h-75q-57 0 -87.5 28.5t-30.5 109.5v208q0 46 -15.5 67t-40.5 28q-1 1 -3.5 1.5t-3.5 0.5v72q1 0 3.5 0.5t3.5 1.5q25 7 40.5 27.5t15.5 66.5v211q0 81 30.5 109.5t87.5 28.5h75v-64h-37q-31 0 -46 -17.5t-15 -74.5v-192q0 -47 -17 -78.5t-56 -47.5v-14
q39 -15 56 -45.5t17 -78.5v-197q0 -57 15 -72t46 -15h37v-64z" />
    <glyph glyph-name="bar" unicode="|" horiz-adv-x="224" 
d="M77 746h69v-906h-69v906z" />
    <glyph glyph-name="braceright" unicode="}" horiz-adv-x="444" 
d="M162 -214h-76v59h38q30 0 45 15.5t15 73.5v200q0 48 17.5 78.5t55.5 45.5v14q-38 16 -55.5 47.5t-17.5 78.5v197q0 57 -15 74.5t-45 17.5h-38v59h76q56 0 87 -28.5t31 -109.5v-211q0 -46 15.5 -66.5t40.5 -27.5q1 -1 3 -1.5t3 -0.5v-72q-1 0 -3.5 -0.5t-2.5 -1.5
q-25 -7 -40.5 -28t-15.5 -67v-208q0 -81 -31 -109.5t-87 -28.5z" />
    <glyph glyph-name="asciitilde" unicode="~" horiz-adv-x="705" 
d="M165 235l-88 7q0 93 41.5 130t97.5 37q32 0 68 -17.5t71.5 -38t69 -38t59.5 -17.5q22 0 39 15t17 70l88 -7q0 -85 -38.5 -125t-95.5 -40q-32 0 -69.5 17t-73.5 38t-70 38t-60 17q-20 0 -38 -15.5t-18 -70.5z" />
    <glyph glyph-name="exclamdown" unicode="&#xa1;" horiz-adv-x="325" 
d="M106 746h113v-110h-113v110zM203 564l19 -564h-119l18 564h82z" />
    <glyph glyph-name="cent" unicode="&#xa2;" horiz-adv-x="552" 
d="M505 -1q-31 -12 -62 -17.5t-57 -6.5v-92h-71v96q-58 9 -107.5 36.5t-85.5 68t-56.5 92.5t-20.5 111t20.5 111t56.5 92.5t85.5 68t107.5 36.5v100h71v-96q25 -1 56.5 -7t62.5 -22v-90h-3q-34 22 -69.5 30t-59.5 8q-47 0 -88.5 -18.5t-72.5 -50t-49 -73.5t-18 -89t18 -89.5
t49 -73.5t72.5 -49.5t88.5 -18.5q25 0 55.5 6t73.5 26h3v-89z" />
    <glyph glyph-name="sterling" unicode="&#xa3;" horiz-adv-x="624" 
d="M569 78v-78h-506v78h25q46 0 69 32t23 94v151h-90v67h90v150q0 45 19 80.5t51 59.5t74 36.5t88 12.5q30 0 60.5 -4t60.5 -17v-86q-27 14 -54 20t-55 6q-27 0 -53.5 -8t-47 -22.5t-33.5 -36.5t-13 -49v-142h193v-67h-193v-151q0 -44 -10.5 -75.5t-28.5 -50.5h331z" />
    <glyph glyph-name="currency" unicode="&#xa4;" horiz-adv-x="612" 
d="M500 152l-95 94q-21 -14 -46.5 -22t-53.5 -8t-53 8t-46 22l-95 -94l-56 58l95 94q-13 21 -19.5 44.5t-6.5 48.5t6.5 48.5t19.5 44.5l-95 94l56 58l95 -93q21 13 46 21t53 8t53.5 -8t46.5 -22l95 94l56 -57l-95 -94q13 -21 19.5 -45t6.5 -49t-6.5 -48.5t-19.5 -44.5
l95 -94zM305 511q-48 0 -79 -34.5t-31 -79.5t31 -79.5t79 -34.5t80 34.5t32 79.5t-32 79.5t-80 34.5z" />
    <glyph glyph-name="yen" unicode="&#xa5;" horiz-adv-x="656" 
d="M588 172h-209v-172h-102v172h-202v64h202v37l-29 55h-173v65h140l-183 353h112l185 -374l188 374h107l-184 -353h148v-65h-182l-27 -52v-40h209v-64z" />
    <glyph glyph-name="brokenbar" unicode="&#xa6;" horiz-adv-x="224" 
d="M77 746h69v-398h-69v398zM77 238h69v-398h-69v398z" />
    <glyph glyph-name="section" unicode="&#xa7;" horiz-adv-x="537" 
d="M274 179q19 -10 35.5 -20t30.5 -20q31 13 49 39.5t18 59.5q0 12 -4 28t-18 35t-41.5 41.5t-73.5 47.5q-8 4 -16.5 9t-15.5 9q-43 -4 -71 -29t-28 -61q0 -33 27 -64.5t108 -74.5zM234 -220q-44 0 -86 13t-74 30l2 91q40 -23 79 -37.5t79 -14.5q56 0 89.5 28t33.5 69
q0 15 -5 31t-20.5 34.5t-45 40.5t-78.5 49q-78 40 -116 82.5t-38 102.5q0 46 29 90.5t85 65.5q-40 31 -56 64t-16 73q0 30 12.5 61t36 56t59 41t81.5 16q32 0 60.5 -7.5t62.5 -24.5l-2 -85q-29 17 -58 26t-63 9q-40 0 -70 -23t-30 -59q0 -34 30.5 -62.5t96.5 -68.5
q105 -57 142.5 -111t37.5 -111q0 -60 -27.5 -99t-68.5 -59q28 -30 39.5 -61.5t11.5 -64.5q0 -47 -17.5 -82t-47 -57.5t-68.5 -34t-80 -11.5z" />
    <glyph glyph-name="dieresis" unicode="&#xa8;" horiz-adv-x="540" 
d="M425 763v-88h-98v88h98zM213 763v-88h-98v88h98z" />
    <glyph glyph-name="copyright" unicode="&#xa9;" horiz-adv-x="917" 
d="M459 756q83 0 154.5 -30t123.5 -82t81.5 -122t29.5 -149t-29.5 -149t-81.5 -122t-123.5 -82t-154.5 -30t-155 30t-124 82t-81.5 122t-29.5 149t29.5 149t81.5 122t124 82t155 30zM459 715q-71 0 -133.5 -27t-109 -73t-73.5 -108.5t-27 -133.5t27 -133.5t73.5 -108.5
t109 -73t133.5 -27t133.5 27t108.5 73t73 108.5t27 133.5t-27 133.5t-73 108.5t-108.5 73t-133.5 27zM621 555l-39 -56q-25 18 -51 27.5t-55 9.5q-34 0 -64 -13t-52 -35t-35 -51t-13 -61t13 -61.5t35 -51.5t52 -35t64 -13q29 0 55 9.5t51 27.5l39 -56q-33 -27 -71 -41
t-78 -14q-51 0 -95 18.5t-76 50.5t-50.5 75t-18.5 91t18.5 91t50.5 74.5t76 50t95 18.5q40 0 78 -14t71 -41z" />
    <glyph glyph-name="ordfeminine" unicode="&#xaa;" horiz-adv-x="414" 
d="M199 426q31 0 52 19.5t21 47.5q0 27 -20.5 45.5t-52.5 18.5q-33 0 -52 -18.5t-19 -45.5q0 -28 19 -47.5t52 -19.5zM277 383v34q-18 -19 -46.5 -33t-66.5 -14q-54 0 -90.5 33t-36.5 87q0 53 38.5 88.5t101.5 35.5q29 0 52.5 -7t40.5 -19v14q0 44 -21.5 62.5t-65.5 18.5
q-18 0 -38 -3t-53 -10l-2 76q33 7 56 9t51 2q83 0 123 -37t40 -97v-240h-83z" />
    <glyph glyph-name="guillemotleft" unicode="&#xab;" horiz-adv-x="545" 
d="M303 0h-82l-161 248v3l161 249h84l-162 -250zM479 0h-82l-161 248v3l161 249h84l-162 -250z" />
    <glyph glyph-name="logicalnot" unicode="&#xac;" horiz-adv-x="694" 
d="M634 131h-97v217h-487v83h584v-300z" />
    <glyph glyph-name="registered" unicode="&#xae;" horiz-adv-x="567" 
d="M284 756q50 0 92.5 -18t73.5 -49t49 -73t18 -89t-18 -89.5t-49 -73.5t-73.5 -49t-92.5 -18t-93 18t-74 49t-49 73.5t-18 89.5t18 89t49 73t74 49t93 18zM284 732q-43 0 -80.5 -16t-65.5 -43.5t-44.5 -65t-16.5 -80.5t16.5 -80.5t44.5 -65.5t65.5 -44t80.5 -16
q42 0 79.5 16t65.5 44t44 65.5t16 80.5t-16 80.5t-44 65t-65.5 43.5t-79.5 16zM281 615h-20v-81h20q21 0 32.5 11.5t11.5 29.5q0 17 -11 28.5t-33 11.5zM340 398l-77 94h-2v-94h-48v260h67q39 0 66.5 -19.5t27.5 -62.5q0 -29 -16.5 -48.5t-39.5 -28.5l77 -96l-3 -5h-52z" />
    <glyph glyph-name="macron" unicode="&#xaf;" horiz-adv-x="540" 
d="M405 739v-74h-270v74h270z" />
    <glyph glyph-name="degree" unicode="&#xb0;" horiz-adv-x="410" 
d="M205 765q35 0 65 -13t51.5 -34.5t34 -50.5t12.5 -61t-12.5 -61.5t-34 -51.5t-51.5 -35t-65 -13t-65 13t-51.5 35t-34 51.5t-12.5 61.5t12.5 61t34 50.5t51.5 34.5t65 13zM205 712q-45 0 -74 -32t-29 -74q0 -43 29 -75t74 -32t74 32t29 75q0 42 -29 74t-74 32z" />
    <glyph glyph-name="plusminus" unicode="&#xb1;" horiz-adv-x="644" 
d="M584 325h-216v-187h-90v187h-218v79h218v214h90v-214h216v-79zM585 98v-72h-526v72h526z" />
    <glyph glyph-name="two.sups" unicode="&#xb2;" horiz-adv-x="433" 
d="M357 279h-306l-5 9q9 11 37 45.5t60 72.5t60 72.5t36 45.5q22 26 33 45.5t11 47.5q0 30 -24 54t-64 25q-25 0 -51.5 -10t-54.5 -33v78q26 15 55.5 22.5t58.5 7.5q72 -1 116 -41.5t44 -98.5q-1 -47 -20 -74.5t-44 -58.5q-7 -9 -21 -25.5t-32 -36.5t-37 -42t-37 -41h212z
" />
    <glyph glyph-name="three.sups" unicode="&#xb3;" horiz-adv-x="395" 
d="M162 264q-21 0 -55.5 5t-56.5 18v65q16 -13 46.5 -18t45.5 -5q54 -1 88.5 24t34.5 65q0 39 -32.5 61.5t-81.5 22.5h-33l2 64h31q38 0 63.5 20.5t25.5 49.5q0 27 -23 43.5t-60 16.5q-16 0 -37 -3t-41 -13l6 69q15 5 36 8.5t49 3.5q62 1 104 -32.5t42 -83.5q-1 -31 -18 -59
t-45 -44q39 -16 64 -49t25 -77q0 -65 -50.5 -109t-129.5 -43z" />
    <glyph glyph-name="acute" unicode="&#xb4;" horiz-adv-x="540" 
d="M390 790l-127 -147h-75l86 147h116z" />
    <glyph glyph-name="paragraph" unicode="&#xb6;" horiz-adv-x="627" 
d="M401 -207h-63v479h-15q-60 0 -110 19t-85.5 51t-55 75t-19.5 91q0 47 19.5 90t54.5 76t84 52.5t107 19.5h235v-953h-63v884h-89v-884z" />
    <glyph glyph-name="periodcentered" unicode="&#xb7;" horiz-adv-x="276" 
d="M79 408h118v-124h-118v124z" />
    <glyph glyph-name="cedilla" unicode="&#xb8;" horiz-adv-x="540" 
d="M242 -196q-11 0 -31.5 3t-38.5 9v51h1q18 -6 36.5 -9t27.5 -3q26 0 41 10t15 26q0 14 -18 23t-48 9h-20l-3 7l30 80h55l-19 -43q42 -5 65 -26.5t23 -52.5q0 -35 -32 -59.5t-84 -24.5z" />
    <glyph glyph-name="one.sups" unicode="&#xb9;" horiz-adv-x="305" 
d="M226 279h-76v354l-90 -92v100l106 105h60v-467z" />
    <glyph glyph-name="ordmasculine" unicode="&#xba;" horiz-adv-x="503" 
d="M251 764q46 0 85 -15.5t67 -42.5t44 -63.5t16 -77.5t-16 -78t-44 -64t-67 -42.5t-85 -15.5q-45 0 -84 15.5t-67 42.5t-44 64t-16 78t16 77.5t44 63.5t67 42.5t84 15.5zM251 688q-51 0 -84 -36t-33 -87t33 -87.5t84 -36.5q52 0 85.5 36.5t33.5 87.5t-33.5 87t-85.5 36z
" />
    <glyph glyph-name="guillemotright" unicode="&#xbb;" horiz-adv-x="543" 
d="M150 0h-85l162 252l-160 248h83l161 -248v-4zM324 0h-85l162 252l-160 248h83l161 -248v-4z" />
    <glyph glyph-name="onequarter" unicode="&#xbc;" horiz-adv-x="873" 
d="M206 279h-76v354l-90 -92v100l106 105h60v-467zM594 746h85l-443 -746h-85zM711 154v194l-137 -194h137zM827 90h-38v-90h-78v90h-237l-6 12l256 365h65v-313h58z" />
    <glyph glyph-name="onehalf" unicode="&#xbd;" horiz-adv-x="935" 
d="M206 279h-76v354l-90 -92v100l106 105h60v-467zM594 746h85l-443 -746h-85zM879 0h-306l-5 9q9 11 37 45.5t60 72.5t60 72.5t36 45.5q22 26 33 45.5t11 47.5q0 30 -24 54t-64 25q-25 0 -51.5 -10t-54.5 -33v78q26 15 55.5 22.5t58.5 7.5q72 -1 116 -41.5t44 -98.5
q-1 -47 -20 -74.5t-44 -58.5q-7 -9 -21 -25.5t-32 -36.5t-37 -42t-37 -41h212z" />
    <glyph glyph-name="threequarters" unicode="&#xbe;" horiz-adv-x="953" 
d="M142 264q-21 0 -55.5 5t-56.5 18v65q16 -13 46.5 -18t45.5 -5q54 -1 88.5 24t34.5 65q0 39 -32.5 61.5t-81.5 22.5h-33l2 64h31q38 0 63.5 20.5t25.5 49.5q0 27 -23 43.5t-60 16.5q-16 0 -37 -3t-41 -13l6 69q15 5 36 8.5t49 3.5q62 1 104 -32.5t42 -83.5q-1 -31 -18 -59
t-45 -44q39 -16 64 -49t25 -77q0 -65 -50.5 -109t-129.5 -43zM674 746h85l-443 -746h-85zM791 154v194l-137 -194h137zM907 90h-38v-90h-78v90h-237l-6 12l256 365h65v-313h58z" />
    <glyph glyph-name="questiondown" unicode="&#xbf;" horiz-adv-x="620" 
d="M390 746v-104h-94v104h94zM335 -15q-52 0 -96 15.5t-75.5 43.5t-49 68t-17.5 89q0 51 16.5 90.5t44 67t64 43.5t76.5 21v149h90v-206h-28q-32 0 -62.5 -10t-53 -29.5t-36.5 -48.5t-14 -66q0 -60 42 -102.5t115 -42.5q41 0 83 14.5t86 51.5l2 -93q-42 -26 -89 -40.5
t-98 -14.5z" />
    <glyph glyph-name="Agrave" unicode="&#xc0;" horiz-adv-x="737" 
d="M519 235l-151 389l-153 -389h304zM610 0l-59 151h-369l-59 -151h-105l300 746h102l299 -746h-109zM209 954h118l86 -147h-77z" />
    <glyph glyph-name="Aacute" unicode="&#xc1;" horiz-adv-x="737" 
d="M519 235l-151 389l-153 -389h304zM610 0l-59 151h-369l-59 -151h-105l300 746h102l299 -746h-109zM531 954l-127 -147h-75l86 147h116z" />
    <glyph glyph-name="Acircumflex" unicode="&#xc2;" horiz-adv-x="737" 
d="M519 235l-151 389l-153 -389h304zM610 0l-59 151h-369l-59 -151h-105l300 746h102l299 -746h-109zM450 807l-78 95l-78 -95h-81l106 147h106l106 -147h-81z" />
    <glyph glyph-name="Atilde" unicode="&#xc3;" horiz-adv-x="737" 
d="M519 235l-151 389l-153 -389h304zM610 0l-59 151h-369l-59 -151h-105l300 746h102l299 -746h-109zM245 807l-76 1q-4 41 4 69t23 45t35.5 24t42.5 7t47.5 -10.5t50 -23.5t46 -23.5t37.5 -10.5t29.5 13t12.5 55l76 -2q7 -75 -25.5 -108.5t-78.5 -33.5q-24 0 -49.5 10.5
t-50 23.5t-46 23.5t-36.5 10.5q-17 0 -30.5 -13.5t-11.5 -56.5z" />
    <glyph glyph-name="Adieresis" unicode="&#xc4;" horiz-adv-x="737" 
d="M519 235l-151 389l-153 -389h304zM610 0l-59 151h-369l-59 -151h-105l300 746h102l299 -746h-109zM526 895v-88h-98v88h98zM314 895v-88h-98v88h98z" />
    <glyph glyph-name="Aring" unicode="&#xc5;" horiz-adv-x="737" 
d="M519 235l-151 389l-153 -389h304zM610 0l-59 151h-369l-59 -151h-105l300 746h102l299 -746h-109zM371 924q49 0 82.5 -34t33.5 -79t-33.5 -78.5t-82.5 -33.5t-82.5 34t-33.5 78q0 45 33.5 79t82.5 34zM371 876q-27 0 -45.5 -18.5t-18.5 -46.5q0 -27 18.5 -45.5
t45.5 -18.5t45.5 18.5t18.5 45.5q0 28 -18.5 46.5t-45.5 18.5z" />
    <glyph glyph-name="AE" unicode="&#xc6;" horiz-adv-x="977" 
d="M501 235l-147 408l-146 -408h293zM586 0l-54 151h-354l-54 -151h-106l287 746h428v-89h-292l85 -220h301v-87h-268l100 -261h300v-89h-373z" />
    <glyph glyph-name="Ccedilla" unicode="&#xc7;" horiz-adv-x="683" 
d="M628 730v-101q-37 22 -79.5 34.5t-88.5 12.5q-64 0 -120.5 -25t-98.5 -66t-66.5 -96t-24.5 -114q0 -61 24.5 -116.5t66.5 -97t98.5 -66.5t120.5 -25q46 0 88.5 12.5t79.5 34.5v-102q-39 -18 -82.5 -28.5t-90.5 -10.5q-86 0 -161 31.5t-129.5 85t-86 126.5t-31.5 155
t31.5 154.5t86 126t129.5 84.5t161 31q47 0 90 -10.5t83 -29.5zM412 -220q-11 0 -31.5 3t-38.5 9v51h1q18 -6 36.5 -9t27.5 -3q26 0 41 10t15 26q0 14 -18 23t-48 9h-20l-3 7l30 80h55l-19 -43q42 -5 65 -26.5t23 -52.5q0 -35 -32 -59.5t-84 -24.5z" />
    <glyph glyph-name="Egrave" unicode="&#xc8;" horiz-adv-x="520" 
d="M71 0v746h380v-89h-278v-220h257v-87h-257v-261h286v-89h-388zM108 954h118l86 -147h-77z" />
    <glyph glyph-name="Eacute" unicode="&#xc9;" horiz-adv-x="520" 
d="M71 0v746h380v-89h-278v-220h257v-87h-257v-261h286v-89h-388zM430 954l-127 -147h-75l86 147h116z" />
    <glyph glyph-name="Ecircumflex" unicode="&#xca;" horiz-adv-x="520" 
d="M71 0v746h380v-89h-278v-220h257v-87h-257v-261h286v-89h-388zM349 807l-78 95l-78 -95h-81l106 147h106l106 -147h-81z" />
    <glyph glyph-name="Edieresis" unicode="&#xcb;" horiz-adv-x="520" 
d="M71 0v746h380v-89h-278v-220h257v-87h-257v-261h286v-89h-388zM426 895v-88h-98v88h98zM214 895v-88h-98v88h98z" />
    <glyph glyph-name="Igrave" unicode="&#xcc;" horiz-adv-x="248" 
d="M73 0v746h102v-746h-102zM-38 954h118l86 -147h-77z" />
    <glyph glyph-name="Iacute" unicode="&#xcd;" horiz-adv-x="248" 
d="M73 0v746h102v-746h-102zM284 954l-127 -147h-75l86 147h116z" />
    <glyph glyph-name="Icircumflex" unicode="&#xce;" horiz-adv-x="248" 
d="M73 0v746h102v-746h-102zM203 807l-78 95l-78 -95h-81l106 147h106l106 -147h-81z" />
    <glyph glyph-name="Idieresis" unicode="&#xcf;" horiz-adv-x="248" 
d="M73 0v746h102v-746h-102zM279 895v-88h-98v88h98zM67 895v-88h-98v88h98z" />
    <glyph glyph-name="Eth" unicode="&#xd0;" horiz-adv-x="693" 
d="M266 0h-188v340h-51v82h51v324h188q73 0 141 -25t120 -72t83.5 -116.5t31.5 -158.5q0 -90 -31.5 -160t-83 -117.5t-120 -72t-141.5 -24.5zM180 91h84q53 0 103 18.5t88 54t61 88.5t23 122q0 68 -23 121t-61 88t-88 53.5t-103 18.5h-84v-233h140v-82h-140v-249z" />
    <glyph glyph-name="Ntilde" unicode="&#xd1;" horiz-adv-x="758" 
d="M586 0l-413 580v-580h-102v746h106l406 -571v571h102v-746h-99zM247 807l-76 1q-4 41 4 69t23 45t35.5 24t42.5 7t47.5 -10.5t50 -23.5t46 -23.5t37.5 -10.5t29.5 13t12.5 55l76 -2q7 -75 -25.5 -108.5t-78.5 -33.5q-24 0 -49.5 10.5t-50 23.5t-46 23.5t-36.5 10.5
q-17 0 -30.5 -13.5t-11.5 -56.5z" />
    <glyph glyph-name="Ograve" unicode="&#xd2;" horiz-adv-x="912" 
d="M456 770q85 0 159.5 -31t129.5 -84.5t87 -126t32 -154.5t-32 -155t-87 -126.5t-129.5 -85t-159.5 -31.5t-160 31.5t-130 85t-87 126.5t-32 155t32 154.5t87 126t130 84.5t160 31zM456 677q-63 0 -119 -24.5t-97.5 -66t-65.5 -96.5t-24 -115q0 -62 24 -117.5t65.5 -97.5
t97.5 -66.5t119 -24.5t119 24.5t97 66.5t65 97.5t24 117.5q0 60 -24 115t-65 96.5t-97 66t-119 24.5zM293 954h118l86 -147h-77z" />
    <glyph glyph-name="Oacute" unicode="&#xd3;" horiz-adv-x="912" 
d="M456 770q85 0 159.5 -31t129.5 -84.5t87 -126t32 -154.5t-32 -155t-87 -126.5t-129.5 -85t-159.5 -31.5t-160 31.5t-130 85t-87 126.5t-32 155t32 154.5t87 126t130 84.5t160 31zM456 677q-63 0 -119 -24.5t-97.5 -66t-65.5 -96.5t-24 -115q0 -62 24 -117.5t65.5 -97.5
t97.5 -66.5t119 -24.5t119 24.5t97 66.5t65 97.5t24 117.5q0 60 -24 115t-65 96.5t-97 66t-119 24.5zM615 954l-127 -147h-75l86 147h116z" />
    <glyph glyph-name="Ocircumflex" unicode="&#xd4;" horiz-adv-x="912" 
d="M456 770q85 0 159.5 -31t129.5 -84.5t87 -126t32 -154.5t-32 -155t-87 -126.5t-129.5 -85t-159.5 -31.5t-160 31.5t-130 85t-87 126.5t-32 155t32 154.5t87 126t130 84.5t160 31zM456 677q-63 0 -119 -24.5t-97.5 -66t-65.5 -96.5t-24 -115q0 -62 24 -117.5t65.5 -97.5
t97.5 -66.5t119 -24.5t119 24.5t97 66.5t65 97.5t24 117.5q0 60 -24 115t-65 96.5t-97 66t-119 24.5zM535 807l-78 95l-78 -95h-81l106 147h106l106 -147h-81z" />
    <glyph glyph-name="Otilde" unicode="&#xd5;" horiz-adv-x="912" 
d="M456 770q85 0 159.5 -31t129.5 -84.5t87 -126t32 -154.5t-32 -155t-87 -126.5t-129.5 -85t-159.5 -31.5t-160 31.5t-130 85t-87 126.5t-32 155t32 154.5t87 126t130 84.5t160 31zM456 677q-63 0 -119 -24.5t-97.5 -66t-65.5 -96.5t-24 -115q0 -62 24 -117.5t65.5 -97.5
t97.5 -66.5t119 -24.5t119 24.5t97 66.5t65 97.5t24 117.5q0 60 -24 115t-65 96.5t-97 66t-119 24.5zM330 807l-76 1q-4 41 4 69t23 45t35.5 24t42.5 7t47.5 -10.5t50 -23.5t46 -23.5t37.5 -10.5t29.5 13t12.5 55l76 -2q7 -75 -25.5 -108.5t-78.5 -33.5q-24 0 -49.5 10.5
t-50 23.5t-46 23.5t-36.5 10.5q-17 0 -30.5 -13.5t-11.5 -56.5z" />
    <glyph glyph-name="Odieresis" unicode="&#xd6;" horiz-adv-x="912" 
d="M456 770q85 0 159.5 -31t129.5 -84.5t87 -126t32 -154.5t-32 -155t-87 -126.5t-129.5 -85t-159.5 -31.5t-160 31.5t-130 85t-87 126.5t-32 155t32 154.5t87 126t130 84.5t160 31zM456 677q-63 0 -119 -24.5t-97.5 -66t-65.5 -96.5t-24 -115q0 -62 24 -117.5t65.5 -97.5
t97.5 -66.5t119 -24.5t119 24.5t97 66.5t65 97.5t24 117.5q0 60 -24 115t-65 96.5t-97 66t-119 24.5zM611 895v-88h-98v88h98zM399 895v-88h-98v88h98z" />
    <glyph glyph-name="multiply" unicode="&#xd7;" horiz-adv-x="571" 
d="M465 100l-185 185l-176 -176l-54 55l176 176l-171 171l56 55l171 -171l161 161l54 -54l-161 -161l185 -185z" />
    <glyph glyph-name="Oslash" unicode="&#xd8;" horiz-adv-x="920" 
d="M150 375q0 -61 24 -117t65 -97l341 489q-28 13 -59.5 20t-64.5 7q-63 0 -119 -24.5t-97.5 -66t-65.5 -96.5t-24 -115zM456 69q63 0 119 24.5t97 66.5t65 97.5t24 117.5q0 69 -31 130t-82 103l-346 -497q34 -19 73 -30.5t81 -11.5zM456 -24q-57 0 -110.5 14.5t-99.5 40.5
l-55 -79h-97l88 126q-62 54 -98.5 131t-36.5 165q0 82 32 154.5t87 126t130 84.5t160 31q49 0 94 -10.5t86 -29.5l44 64h97l-73 -105q73 -54 116.5 -136.5t43.5 -178.5q0 -82 -32 -155t-87 -126.5t-129.5 -85t-159.5 -31.5z" />
    <glyph glyph-name="Ugrave" unicode="&#xd9;" horiz-adv-x="697" 
d="M626 295q0 -147 -70.5 -233t-207.5 -86q-135 0 -206 86t-71 233v451h102v-481q0 -49 15 -85.5t39 -61t56 -37t65 -12.5q35 0 67 12.5t56 37t38.5 61t14.5 85.5v481h102v-451zM186 954h118l86 -147h-77z" />
    <glyph glyph-name="Uacute" unicode="&#xda;" horiz-adv-x="697" 
d="M626 295q0 -147 -70.5 -233t-207.5 -86q-135 0 -206 86t-71 233v451h102v-481q0 -49 15 -85.5t39 -61t56 -37t65 -12.5q35 0 67 12.5t56 37t38.5 61t14.5 85.5v481h102v-451zM508 954l-127 -147h-75l86 147h116z" />
    <glyph glyph-name="Ucircumflex" unicode="&#xdb;" horiz-adv-x="697" 
d="M626 295q0 -147 -70.5 -233t-207.5 -86q-135 0 -206 86t-71 233v451h102v-481q0 -49 15 -85.5t39 -61t56 -37t65 -12.5q35 0 67 12.5t56 37t38.5 61t14.5 85.5v481h102v-451zM428 807l-78 95l-78 -95h-81l106 147h106l106 -147h-81z" />
    <glyph glyph-name="Udieresis" unicode="&#xdc;" horiz-adv-x="697" 
d="M626 295q0 -147 -70.5 -233t-207.5 -86q-135 0 -206 86t-71 233v451h102v-481q0 -49 15 -85.5t39 -61t56 -37t65 -12.5q35 0 67 12.5t56 37t38.5 61t14.5 85.5v481h102v-451zM504 895v-88h-98v88h98zM292 895v-88h-98v88h98z" />
    <glyph glyph-name="Yacute" unicode="&#xdd;" horiz-adv-x="637" 
d="M369 0h-102v242l-254 504h112l195 -402l198 402h106l-255 -504v-242zM487 954l-127 -147h-75l86 147h116z" />
    <glyph glyph-name="Thorn" unicode="&#xde;" horiz-adv-x="543" 
d="M256 543h-83v-268h83q66 0 109 38t43 98q-1 54 -34 93t-118 39zM243 183h-70v-183h-102v746h102v-110h77q122 0 191 -55t69 -170q0 -55 -21.5 -98t-57.5 -71.5t-85 -43.5t-103 -15z" />
    <glyph glyph-name="germandbls" unicode="&#xdf;" horiz-adv-x="560" 
d="M275 -165v97q73 46 106 96.5t33 100.5q0 55 -37 92.5t-96 53.5l80 145h-201v-420h-93v613q0 54 16 88t42 53t58.5 26t64.5 7v-82q-33 0 -60.5 -19t-27.5 -79v-154l32 47h303l1 -3l-103 -188q56 -28 86.5 -75.5t30.5 -104.5q0 -96 -65 -168t-170 -126z" />
    <glyph glyph-name="agrave" unicode="&#xe0;" horiz-adv-x="529" 
d="M255 45q49 0 83 31.5t34 74.5t-33 73t-84 30t-81.5 -30t-30.5 -73t30.5 -74.5t81.5 -31.5zM376 0v48q-25 -28 -64 -47.5t-89 -19.5q-75 0 -126.5 47.5t-51.5 119.5t52.5 121t136.5 49q44 0 78.5 -13t58.5 -32v33q0 72 -33.5 100.5t-90.5 28.5q-25 0 -51.5 -3t-73.5 -13
l-4 79q46 10 76 13t66 3q104 0 154 -50.5t50 -133.5v-330h-88zM107 720h118l86 -147h-77z" />
    <glyph glyph-name="aacute" unicode="&#xe1;" horiz-adv-x="529" 
d="M255 45q49 0 83 31.5t34 74.5t-33 73t-84 30t-81.5 -30t-30.5 -73t30.5 -74.5t81.5 -31.5zM376 0v48q-25 -28 -64 -47.5t-89 -19.5q-75 0 -126.5 47.5t-51.5 119.5t52.5 121t136.5 49q44 0 78.5 -13t58.5 -32v33q0 72 -33.5 100.5t-90.5 28.5q-25 0 -51.5 -3t-73.5 -13
l-4 79q46 10 76 13t66 3q104 0 154 -50.5t50 -133.5v-330h-88zM429 720l-127 -147h-75l86 147h116z" />
    <glyph glyph-name="acircumflex" unicode="&#xe2;" horiz-adv-x="529" 
d="M255 45q49 0 83 31.5t34 74.5t-33 73t-84 30t-81.5 -30t-30.5 -73t30.5 -74.5t81.5 -31.5zM376 0v48q-25 -28 -64 -47.5t-89 -19.5q-75 0 -126.5 47.5t-51.5 119.5t52.5 121t136.5 49q44 0 78.5 -13t58.5 -32v33q0 72 -33.5 100.5t-90.5 28.5q-25 0 -51.5 -3t-73.5 -13
l-4 79q46 10 76 13t66 3q104 0 154 -50.5t50 -133.5v-330h-88zM348 573l-78 95l-78 -95h-81l106 147h106l106 -147h-81z" />
    <glyph glyph-name="atilde" unicode="&#xe3;" horiz-adv-x="529" 
d="M255 45q49 0 83 31.5t34 74.5t-33 73t-84 30t-81.5 -30t-30.5 -73t30.5 -74.5t81.5 -31.5zM376 0v48q-25 -28 -64 -47.5t-89 -19.5q-75 0 -126.5 47.5t-51.5 119.5t52.5 121t136.5 49q44 0 78.5 -13t58.5 -32v33q0 72 -33.5 100.5t-90.5 28.5q-25 0 -51.5 -3t-73.5 -13
l-4 79q46 10 76 13t66 3q104 0 154 -50.5t50 -133.5v-330h-88zM158 573l-74 2q-7 78 25 107.5t72 29.5q21 0 43.5 -9.5t44.5 -21.5t41.5 -21.5t33.5 -9.5q16 0 28 12t11 49l73 -1q6 -70 -23 -102t-73 -32q-21 0 -44.5 9.5t-45 21t-41 21t-33.5 9.5q-16 0 -28 -12t-10 -52z
" />
    <glyph glyph-name="adieresis" unicode="&#xe4;" horiz-adv-x="529" 
d="M255 45q49 0 83 31.5t34 74.5t-33 73t-84 30t-81.5 -30t-30.5 -73t30.5 -74.5t81.5 -31.5zM376 0v48q-25 -28 -64 -47.5t-89 -19.5q-75 0 -126.5 47.5t-51.5 119.5t52.5 121t136.5 49q44 0 78.5 -13t58.5 -32v33q0 72 -33.5 100.5t-90.5 28.5q-25 0 -51.5 -3t-73.5 -13
l-4 79q46 10 76 13t66 3q104 0 154 -50.5t50 -133.5v-330h-88zM416 661v-88h-94v88h94zM222 661v-88h-94v88h94z" />
    <glyph glyph-name="aring" unicode="&#xe5;" horiz-adv-x="529" 
d="M255 45q49 0 83 31.5t34 74.5t-33 73t-84 30t-81.5 -30t-30.5 -73t30.5 -74.5t81.5 -31.5zM376 0v48q-25 -28 -64 -47.5t-89 -19.5q-75 0 -126.5 47.5t-51.5 119.5t52.5 121t136.5 49q44 0 78.5 -13t58.5 -32v33q0 72 -33.5 100.5t-90.5 28.5q-25 0 -51.5 -3t-73.5 -13
l-4 79q46 10 76 13t66 3q104 0 154 -50.5t50 -133.5v-330h-88zM270 793q49 0 82.5 -34t33.5 -79t-33.5 -78.5t-82.5 -33.5t-82.5 34t-33.5 78q0 45 33.5 79t82.5 34zM270 745q-27 0 -45.5 -18.5t-18.5 -46.5q0 -27 18.5 -45.5t45.5 -18.5t45.5 18.5t18.5 45.5
q0 28 -18.5 46.5t-45.5 18.5z" />
    <glyph glyph-name="ae" unicode="&#xe6;" horiz-adv-x="937" 
d="M627 445q-63 0 -107.5 -38t-58.5 -101h331q-14 61 -59 100t-106 39zM255 39q49 0 83 31t34 78q0 44 -33 75t-84 31t-81.5 -31t-30.5 -75q0 -46 30.5 -77.5t81.5 -31.5zM885 69q-40 -39 -101 -66.5t-140 -27.5q-72 0 -129.5 28t-93.5 75q-17 -40 -63.5 -71.5t-119.5 -31.5
q-86 0 -139.5 47.5t-53.5 122.5q0 74 52.5 123.5t136.5 49.5q40 0 72 -10.5t55 -27.5v26q0 72 -30 100.5t-87 28.5q-25 0 -50 -3t-72 -13l-4 79q46 10 74.5 13t64.5 3q65 0 107.5 -21.5t64.5 -58.5q35 42 86 66.5t112 24.5q56 0 105 -20.5t85 -57t57 -85.5t21 -106v-23h-439
q5 -80 56 -129.5t132 -49.5q58 0 105 21.5t81 54.5zM382 146v2v2v0l-2 -8q0 1 1 2t1 2z" />
    <glyph glyph-name="ccedilla" unicode="&#xe7;" horiz-adv-x="512" 
d="M454 95v-86q-24 -13 -60 -19t-62 -6q-61 0 -113.5 21t-91 57t-60.5 84.5t-22 103.5t22 103.5t60.5 84.5t91 57t113.5 21q25 0 60.5 -6.5t61.5 -20.5v-87h-3q-31 20 -62.5 26.5t-55.5 6.5q-40 0 -75 -14.5t-60 -39.5t-39.5 -59t-14.5 -72t14.5 -72t39.5 -59t60 -39.5
t75 -14.5q25 0 54.5 5.5t63.5 24.5h3zM290 -203q-12 0 -32 3.5t-36 9.5v50h1q17 -5 34 -8.5t27 -3.5q24 0 37.5 10t13.5 24q0 13 -16.5 22t-44.5 9h-19l-2 6l28 76l53 -1l-17 -38q40 -6 61.5 -26t21.5 -50q0 -35 -30 -59t-80 -24z" />
    <glyph glyph-name="egrave" unicode="&#xe8;" horiz-adv-x="626" 
d="M316 445q-63 0 -107.5 -38t-58.5 -101h331q-14 61 -58.5 100t-106.5 39zM574 69q-40 -39 -101 -66.5t-140 -27.5q-65 0 -118 21.5t-90.5 58.5t-58.5 87.5t-21 107.5t20 107t56 87.5t86 59t109 21.5q56 0 105 -20.5t85 -57t57 -85.5t21 -106v-23h-439q5 -80 56 -129.5
t132 -49.5q59 0 105.5 21.5t81.5 54.5zM153 720h118l86 -147h-77z" />
    <glyph glyph-name="eacute" unicode="&#xe9;" horiz-adv-x="626" 
d="M316 445q-63 0 -107.5 -38t-58.5 -101h331q-14 61 -58.5 100t-106.5 39zM574 69q-40 -39 -101 -66.5t-140 -27.5q-65 0 -118 21.5t-90.5 58.5t-58.5 87.5t-21 107.5t20 107t56 87.5t86 59t109 21.5q56 0 105 -20.5t85 -57t57 -85.5t21 -106v-23h-439q5 -80 56 -129.5
t132 -49.5q59 0 105.5 21.5t81.5 54.5zM476 720l-127 -147h-75l86 147h116z" />
    <glyph glyph-name="ecircumflex" unicode="&#xea;" horiz-adv-x="626" 
d="M316 445q-63 0 -107.5 -38t-58.5 -101h331q-14 61 -58.5 100t-106.5 39zM574 69q-40 -39 -101 -66.5t-140 -27.5q-65 0 -118 21.5t-90.5 58.5t-58.5 87.5t-21 107.5t20 107t56 87.5t86 59t109 21.5q56 0 105 -20.5t85 -57t57 -85.5t21 -106v-23h-439q5 -80 56 -129.5
t132 -49.5q59 0 105.5 21.5t81.5 54.5zM395 573l-78 95l-78 -95h-81l106 147h106l106 -147h-81z" />
    <glyph glyph-name="edieresis" unicode="&#xeb;" horiz-adv-x="626" 
d="M316 445q-63 0 -107.5 -38t-58.5 -101h331q-14 61 -58.5 100t-106.5 39zM574 69q-40 -39 -101 -66.5t-140 -27.5q-65 0 -118 21.5t-90.5 58.5t-58.5 87.5t-21 107.5t20 107t56 87.5t86 59t109 21.5q56 0 105 -20.5t85 -57t57 -85.5t21 -106v-23h-439q5 -80 56 -129.5
t132 -49.5q59 0 105.5 21.5t81.5 54.5zM460 661v-88h-94v88h94zM266 661v-88h-94v88h94z" />
    <glyph glyph-name="igrave" unicode="&#xec;" horiz-adv-x="229" 
d="M162 500v-500h-94v500h94zM-48 720h118l86 -147h-77z" />
    <glyph glyph-name="iacute" unicode="&#xed;" horiz-adv-x="229" 
d="M162 500v-500h-94v500h94zM275 720l-127 -147h-75l86 147h116z" />
    <glyph glyph-name="icircumflex" unicode="&#xee;" horiz-adv-x="229" 
d="M162 500v-500h-94v500h94zM193 573l-78 95l-78 -95h-81l106 147h106l106 -147h-81z" />
    <glyph glyph-name="idieresis" unicode="&#xef;" horiz-adv-x="229" 
d="M162 500v-500h-94v500h94zM259 661v-88h-94v88h94zM65 661v-88h-94v88h94z" />
    <glyph glyph-name="eth" unicode="&#xf0;" horiz-adv-x="653" 
d="M323 -24q-59 0 -110 22t-88 59t-58.5 87t-21.5 106q0 54 21 103t58 85t88.5 57.5t110.5 21.5q40 0 76.5 -11t67.5 -31q-20 37 -47 74t-61 72l-153 -49l-30 54l135 44q-31 28 -66 55.5t-75 54.5h128q28 -19 53.5 -39.5t48.5 -41.5l131 42l29 -55l-112 -36
q77 -85 118.5 -182.5t41.5 -196.5v-4v-3v0q0 -60 -21.5 -113t-59.5 -91.5t-90.5 -61t-113.5 -22.5zM327 441q-40 0 -74 -15.5t-58.5 -41.5t-38.5 -61t-14 -73t14 -73t38.5 -61t58.5 -41.5t74 -15.5t73.5 15.5t58 41.5t38.5 61t14 73t-14 73t-38.5 61t-58 41.5t-73.5 15.5z
" />
    <glyph glyph-name="ntilde" unicode="&#xf1;" horiz-adv-x="563" 
d="M159 307v-307h-94v500h90v-62q24 29 66.5 52t97.5 23q81 0 130.5 -50t49.5 -137v-326h-94v298q0 74 -37 103t-84 29q-20 0 -42 -8t-40.5 -23.5t-30.5 -38.5t-12 -53zM170 573l-74 2q-7 78 25 107.5t72 29.5q21 0 43.5 -9.5t44.5 -21.5t41.5 -21.5t33.5 -9.5q16 0 28 12
t11 49l73 -1q6 -70 -23 -102t-73 -32q-21 0 -44.5 9.5t-45 21t-41 21t-33.5 9.5q-16 0 -28 -12t-10 -52z" />
    <glyph glyph-name="ograve" unicode="&#xf2;" horiz-adv-x="658" 
d="M329 525q61 0 113.5 -22t90.5 -59.5t59.5 -87.5t21.5 -106t-21.5 -106t-59.5 -87.5t-90.5 -59.5t-113.5 -22t-113 22t-90 59.5t-59.5 87.5t-21.5 106t21.5 106t59.5 87.5t90 59.5t113 22zM329 444q-40 0 -74 -15.5t-58.5 -42t-38.5 -62t-14 -74.5t14 -74.5t38.5 -62
t58.5 -42t74 -15.5t74.5 16t59 42t38.5 61.5t14 74.5t-14 74.5t-38.5 62t-59 42t-74.5 15.5zM166 720h118l86 -147h-77z" />
    <glyph glyph-name="oacute" unicode="&#xf3;" horiz-adv-x="658" 
d="M329 525q61 0 113.5 -22t90.5 -59.5t59.5 -87.5t21.5 -106t-21.5 -106t-59.5 -87.5t-90.5 -59.5t-113.5 -22t-113 22t-90 59.5t-59.5 87.5t-21.5 106t21.5 106t59.5 87.5t90 59.5t113 22zM329 444q-40 0 -74 -15.5t-58.5 -42t-38.5 -62t-14 -74.5t14 -74.5t38.5 -62
t58.5 -42t74 -15.5t74.5 16t59 42t38.5 61.5t14 74.5t-14 74.5t-38.5 62t-59 42t-74.5 15.5zM489 720l-127 -147h-75l86 147h116z" />
    <glyph glyph-name="ocircumflex" unicode="&#xf4;" horiz-adv-x="658" 
d="M329 525q61 0 113.5 -22t90.5 -59.5t59.5 -87.5t21.5 -106t-21.5 -106t-59.5 -87.5t-90.5 -59.5t-113.5 -22t-113 22t-90 59.5t-59.5 87.5t-21.5 106t21.5 106t59.5 87.5t90 59.5t113 22zM329 444q-40 0 -74 -15.5t-58.5 -42t-38.5 -62t-14 -74.5t14 -74.5t38.5 -62
t58.5 -42t74 -15.5t74.5 16t59 42t38.5 61.5t14 74.5t-14 74.5t-38.5 62t-59 42t-74.5 15.5zM408 573l-78 95l-78 -95h-81l106 147h106l106 -147h-81z" />
    <glyph glyph-name="otilde" unicode="&#xf5;" horiz-adv-x="658" 
d="M329 525q61 0 113.5 -22t90.5 -59.5t59.5 -87.5t21.5 -106t-21.5 -106t-59.5 -87.5t-90.5 -59.5t-113.5 -22t-113 22t-90 59.5t-59.5 87.5t-21.5 106t21.5 106t59.5 87.5t90 59.5t113 22zM329 444q-40 0 -74 -15.5t-58.5 -42t-38.5 -62t-14 -74.5t14 -74.5t38.5 -62
t58.5 -42t74 -15.5t74.5 16t59 42t38.5 61.5t14 74.5t-14 74.5t-38.5 62t-59 42t-74.5 15.5zM217 573l-74 2q-7 78 25 107.5t72 29.5q21 0 43.5 -9.5t44.5 -21.5t41.5 -21.5t33.5 -9.5q16 0 28 12t11 49l73 -1q6 -70 -23 -102t-73 -32q-21 0 -44.5 9.5t-45 21t-41 21
t-33.5 9.5q-16 0 -28 -12t-10 -52z" />
    <glyph glyph-name="odieresis" unicode="&#xf6;" horiz-adv-x="658" 
d="M329 525q61 0 113.5 -22t90.5 -59.5t59.5 -87.5t21.5 -106t-21.5 -106t-59.5 -87.5t-90.5 -59.5t-113.5 -22t-113 22t-90 59.5t-59.5 87.5t-21.5 106t21.5 106t59.5 87.5t90 59.5t113 22zM329 444q-40 0 -74 -15.5t-58.5 -42t-38.5 -62t-14 -74.5t14 -74.5t38.5 -62
t58.5 -42t74 -15.5t74.5 16t59 42t38.5 61.5t14 74.5t-14 74.5t-38.5 62t-59 42t-74.5 15.5zM473 661v-88h-94v88h94zM279 661v-88h-94v88h94z" />
    <glyph glyph-name="divide" unicode="&#xf7;" horiz-adv-x="636" 
d="M271 491v111h96v-111h-96zM579 389v-79h-521v79h521zM271 97v111h96v-111h-96z" />
    <glyph glyph-name="oslash" unicode="&#xf8;" horiz-adv-x="662" 
d="M144 250q0 -40 14 -75t39 -62l205 316q-16 7 -34.5 11t-38.5 4q-40 0 -74 -15.5t-58.5 -42t-38.5 -62t-14 -74.5zM329 56q40 0 74.5 16t59 42t38.5 61.5t14 74.5t-13.5 74t-37.5 61l-205 -315q16 -7 33.5 -10.5t36.5 -3.5zM329 -25q-31 0 -61 6t-56 17l-30 -46h-90l55 85
q-47 38 -74.5 94t-27.5 119q0 56 21.5 106t59.5 87.5t90 59.5t113 22q33 0 63 -6.5t57 -18.5l31 48h90l-57 -87q47 -38 74 -93t27 -118q0 -56 -21.5 -106t-59.5 -87.5t-90.5 -59.5t-113.5 -22z" />
    <glyph glyph-name="ugrave" unicode="&#xf9;" horiz-adv-x="563" 
d="M408 0v62q-24 -29 -67 -52t-97 -23q-81 0 -131 50t-50 137v326h94v-298q0 -74 37 -103t85 -29q20 0 42 8t40.5 23.5t30.5 38.5t12 53v307h93v-500h-89zM117 720h118l86 -147h-77z" />
    <glyph glyph-name="uacute" unicode="&#xfa;" horiz-adv-x="563" 
d="M408 0v62q-24 -29 -67 -52t-97 -23q-81 0 -131 50t-50 137v326h94v-298q0 -74 37 -103t85 -29q20 0 42 8t40.5 23.5t30.5 38.5t12 53v307h93v-500h-89zM440 720l-127 -147h-75l86 147h116z" />
    <glyph glyph-name="ucircumflex" unicode="&#xfb;" horiz-adv-x="563" 
d="M408 0v62q-24 -29 -67 -52t-97 -23q-81 0 -131 50t-50 137v326h94v-298q0 -74 37 -103t85 -29q20 0 42 8t40.5 23.5t30.5 38.5t12 53v307h93v-500h-89zM359 573l-78 95l-78 -95h-81l106 147h106l106 -147h-81z" />
    <glyph glyph-name="udieresis" unicode="&#xfc;" horiz-adv-x="563" 
d="M408 0v62q-24 -29 -67 -52t-97 -23q-81 0 -131 50t-50 137v326h94v-298q0 -74 37 -103t85 -29q20 0 42 8t40.5 23.5t30.5 38.5t12 53v307h93v-500h-89zM425 661v-88h-94v88h94zM231 661v-88h-94v88h94z" />
    <glyph glyph-name="yacute" unicode="&#xfd;" horiz-adv-x="554" 
d="M267 -213h-95l76 202l-232 511h104l172 -398l150 398h96zM445 720l-127 -147h-75l86 147h116z" />
    <glyph glyph-name="thorn" unicode="&#xfe;" horiz-adv-x="668" 
d="M157 251q0 -37 14 -71.5t38.5 -60t58.5 -41t73 -15.5q40 0 73.5 15t58 41t38 60t13.5 71t-13.5 71t-38 60t-58 41t-73.5 15q-39 0 -73 -15.5t-58.5 -41t-38.5 -59t-14 -70.5zM364 -21q-63 0 -116 27t-89 73v-292h-94v993h94v-358q35 45 88.5 72t116.5 27q56 0 103.5 -22
t82 -59t54 -86.5t19.5 -104.5q0 -54 -19.5 -103.5t-54 -86t-82 -58.5t-103.5 -22z" />
    <glyph glyph-name="ydieresis" unicode="&#xff;" horiz-adv-x="554" 
d="M267 -213h-95l76 202l-232 511h104l172 -398l150 398h96zM430 661v-88h-94v88h94zM236 661v-88h-94v88h94z" />
    <glyph glyph-name="Amacron" unicode="&#x100;" horiz-adv-x="737" 
d="M519 235l-151 389l-153 -389h304zM610 0l-59 151h-369l-59 -151h-105l300 746h102l299 -746h-109zM506 881v-74h-270v74h270z" />
    <glyph glyph-name="amacron" unicode="&#x101;" horiz-adv-x="529" 
d="M255 45q49 0 83 31.5t34 74.5t-33 73t-84 30t-81.5 -30t-30.5 -73t30.5 -74.5t81.5 -31.5zM376 0v48q-25 -28 -64 -47.5t-89 -19.5q-75 0 -126.5 47.5t-51.5 119.5t52.5 121t136.5 49q44 0 78.5 -13t58.5 -32v33q0 72 -33.5 100.5t-90.5 28.5q-25 0 -51.5 -3t-73.5 -13
l-4 79q46 10 76 13t66 3q104 0 154 -50.5t50 -133.5v-330h-88zM402 646v-74h-264v74h264z" />
    <glyph glyph-name="Abreve" unicode="&#x102;" horiz-adv-x="737" 
d="M519 235l-151 389l-153 -389h304zM610 0l-59 151h-369l-59 -151h-105l300 746h102l299 -746h-109zM524 948q-16 -66 -55 -106t-98 -40t-98 40t-55 106l65 3q16 -43 40 -64t48 -21t48 21t40 64z" />
    <glyph glyph-name="abreve" unicode="&#x103;" horiz-adv-x="529" 
d="M255 45q49 0 83 31.5t34 74.5t-33 73t-84 30t-81.5 -30t-30.5 -73t30.5 -74.5t81.5 -31.5zM376 0v48q-25 -28 -64 -47.5t-89 -19.5q-75 0 -126.5 47.5t-51.5 119.5t52.5 121t136.5 49q44 0 78.5 -13t58.5 -32v33q0 72 -33.5 100.5t-90.5 28.5q-25 0 -51.5 -3t-73.5 -13
l-4 79q46 10 76 13t66 3q104 0 154 -50.5t50 -133.5v-330h-88zM423 714q-16 -66 -55 -106t-98 -40t-98 40t-55 106l65 3q16 -43 40 -64t48 -21t48 21t40 64z" />
    <glyph glyph-name="Aogonek" unicode="&#x104;" horiz-adv-x="737" 
d="M641 -177q-46 0 -67.5 23t-21.5 50q0 28 16.5 50t38.5 41l6 6l-61 158h-370l-59 -151h-105l300 746h102l299 -746l-45 -34q-21 -16 -32 -28t-11 -26q0 -10 8.5 -19.5t23.5 -9.5q12 0 21 4.5t16 10.5l33 -41q-12 -12 -36.5 -23t-55.5 -11zM519 235l-151 389l-153 -389h304
z" />
    <glyph glyph-name="aogonek" unicode="&#x105;" horiz-adv-x="529" 
d="M387 -169q-44 0 -64.5 22t-20.5 47t16 45t38 38l20 16v49q-25 -28 -64 -47.5t-89 -19.5q-75 0 -126.5 47.5t-51.5 119.5t52.5 121t136.5 49q44 0 78.5 -13t58.5 -32v33q0 72 -33.5 100.5t-90.5 28.5q-25 0 -51.5 -3t-73.5 -13l-4 79q46 10 76 13t66 3q104 0 154 -50.5
t50 -133.5v-330l-44 -34q-19 -15 -29.5 -26.5t-10.5 -24.5q0 -10 8 -18.5t22 -8.5q11 0 20 4t16 10l30 -39q-11 -12 -34.5 -22t-54.5 -10zM255 45q49 0 83 31.5t34 74.5t-33 73t-84 30t-81.5 -30t-30.5 -73t30.5 -74.5t81.5 -31.5z" />
    <glyph glyph-name="Cacute" unicode="&#x106;" horiz-adv-x="683" 
d="M628 730v-101q-37 22 -79.5 34.5t-88.5 12.5q-64 0 -120.5 -25t-98.5 -66t-66.5 -96t-24.5 -114q0 -61 24.5 -116.5t66.5 -97t98.5 -66.5t120.5 -25q46 0 88.5 12.5t79.5 34.5v-102q-39 -18 -82.5 -28.5t-90.5 -10.5q-86 0 -161 31.5t-129.5 85t-86 126.5t-31.5 155
t31.5 154.5t86 126t129.5 84.5t161 31q47 0 90 -10.5t83 -29.5zM590 954l-127 -147h-75l86 147h116z" />
    <glyph glyph-name="cacute" unicode="&#x107;" horiz-adv-x="512" 
d="M454 95v-86q-24 -13 -60 -19t-62 -6q-61 0 -113.5 21t-91 57t-60.5 84.5t-22 103.5t22 103.5t60.5 84.5t91 57t113.5 21q25 0 60.5 -6.5t61.5 -20.5v-87h-3q-31 20 -62.5 26.5t-55.5 6.5q-40 0 -75 -14.5t-60 -39.5t-39.5 -59t-14.5 -72t14.5 -72t39.5 -59t60 -39.5
t75 -14.5q25 0 54.5 5.5t63.5 24.5h3zM474 720l-127 -147h-75l86 147h116z" />
    <glyph glyph-name="Ccircumflex" unicode="&#x108;" horiz-adv-x="683" 
d="M628 730v-101q-37 22 -79.5 34.5t-88.5 12.5q-64 0 -120.5 -25t-98.5 -66t-66.5 -96t-24.5 -114q0 -61 24.5 -116.5t66.5 -97t98.5 -66.5t120.5 -25q46 0 88.5 12.5t79.5 34.5v-102q-39 -18 -82.5 -28.5t-90.5 -10.5q-86 0 -161 31.5t-129.5 85t-86 126.5t-31.5 155
t31.5 154.5t86 126t129.5 84.5t161 31q47 0 90 -10.5t83 -29.5zM508 807l-78 95l-78 -95h-81l106 147h106l106 -147h-81z" />
    <glyph glyph-name="ccircumflex" unicode="&#x109;" horiz-adv-x="512" 
d="M454 95v-86q-24 -13 -60 -19t-62 -6q-61 0 -113.5 21t-91 57t-60.5 84.5t-22 103.5t22 103.5t60.5 84.5t91 57t113.5 21q25 0 60.5 -6.5t61.5 -20.5v-87h-3q-31 20 -62.5 26.5t-55.5 6.5q-40 0 -75 -14.5t-60 -39.5t-39.5 -59t-14.5 -72t14.5 -72t39.5 -59t60 -39.5
t75 -14.5q25 0 54.5 5.5t63.5 24.5h3zM392 573l-78 95l-78 -95h-81l106 147h106l106 -147h-81z" />
    <glyph glyph-name="Cdotaccent" unicode="&#x10a;" horiz-adv-x="683" 
d="M628 730v-101q-37 22 -79.5 34.5t-88.5 12.5q-64 0 -120.5 -25t-98.5 -66t-66.5 -96t-24.5 -114q0 -61 24.5 -116.5t66.5 -97t98.5 -66.5t120.5 -25q46 0 88.5 12.5t79.5 34.5v-102q-39 -18 -82.5 -28.5t-90.5 -10.5q-86 0 -161 31.5t-129.5 85t-86 126.5t-31.5 155
t31.5 154.5t86 126t129.5 84.5t161 31q47 0 90 -10.5t83 -29.5zM478 909v-102h-96v102h96z" />
    <glyph glyph-name="cdotaccent" unicode="&#x10b;" horiz-adv-x="512" 
d="M454 95v-86q-24 -13 -60 -19t-62 -6q-61 0 -113.5 21t-91 57t-60.5 84.5t-22 103.5t22 103.5t60.5 84.5t91 57t113.5 21q25 0 60.5 -6.5t61.5 -20.5v-87h-3q-31 20 -62.5 26.5t-55.5 6.5q-40 0 -75 -14.5t-60 -39.5t-39.5 -59t-14.5 -72t14.5 -72t39.5 -59t60 -39.5
t75 -14.5q25 0 54.5 5.5t63.5 24.5h3zM362 691v-109h-96v109h96z" />
    <glyph glyph-name="Ccaron" unicode="&#x10c;" horiz-adv-x="683" 
d="M628 730v-101q-37 22 -79.5 34.5t-88.5 12.5q-64 0 -120.5 -25t-98.5 -66t-66.5 -96t-24.5 -114q0 -61 24.5 -116.5t66.5 -97t98.5 -66.5t120.5 -25q46 0 88.5 12.5t79.5 34.5v-102q-39 -18 -82.5 -28.5t-90.5 -10.5q-86 0 -161 31.5t-129.5 85t-86 126.5t-31.5 155
t31.5 154.5t86 126t129.5 84.5t161 31q47 0 90 -10.5t83 -29.5zM484 807h-106l-106 147h80l78 -95l78 95h82z" />
    <glyph glyph-name="ccaron" unicode="&#x10d;" horiz-adv-x="512" 
d="M454 95v-86q-24 -13 -60 -19t-62 -6q-61 0 -113.5 21t-91 57t-60.5 84.5t-22 103.5t22 103.5t60.5 84.5t91 57t113.5 21q25 0 60.5 -6.5t61.5 -20.5v-87h-3q-31 20 -62.5 26.5t-55.5 6.5q-40 0 -75 -14.5t-60 -39.5t-39.5 -59t-14.5 -72t14.5 -72t39.5 -59t60 -39.5
t75 -14.5q25 0 54.5 5.5t63.5 24.5h3zM368 573h-106l-106 147h80l78 -95l78 95h82z" />
    <glyph glyph-name="Dcaron" unicode="&#x10e;" horiz-adv-x="686" 
d="M71 0v746h188q73 0 141 -25t120.5 -72t84 -116.5t31.5 -158.5q0 -90 -31.5 -160t-83.5 -117.5t-120 -72t-141 -24.5h-189zM173 655v-564h85q54 0 104 18.5t87.5 54t60.5 88.5t23 122q0 68 -23 121t-60.5 88t-87.5 53.5t-104 18.5h-85zM366 807h-106l-106 147h80l78 -95
l78 95h82z" />
    <glyph glyph-name="dcaron" unicode="&#x10f;" horiz-adv-x="668" 
d="M511 249q0 37 -14 71.5t-38.5 60t-58.5 41t-73 15.5q-40 0 -73.5 -15t-58 -41t-38 -60t-13.5 -71t13.5 -71t38 -59.5t58 -41t73.5 -15.5q39 0 73 15.5t58.5 41t38.5 59t14 70.5zM514 0v82q-35 -46 -89.5 -74.5t-120.5 -28.5q-55 0 -102.5 21.5t-82.5 58.5t-54.5 86.5
t-19.5 104.5q0 54 19.5 103.5t54.5 86.5t82.5 59t102.5 22q63 0 116.5 -27.5t88.5 -72.5v359h93v-780h-88zM742 780l-44 -162h-57l16 162h85z" />
    <glyph glyph-name="Dcroat" unicode="&#x110;" horiz-adv-x="696" 
d="M269 0h-188v340h-51v82h51v324h188q73 0 141 -25t120 -72t83.5 -116.5t31.5 -158.5q0 -90 -31.5 -160t-83 -117.5t-120 -72t-141.5 -24.5zM183 91h84q53 0 103 18.5t88 54t61 88.5t23 122q0 68 -23 121t-61 88t-88 53.5t-103 18.5h-84v-233h140v-82h-140v-249z" />
    <glyph glyph-name="dcroat" unicode="&#x111;" horiz-adv-x="668" 
d="M511 249q0 37 -14 71.5t-38.5 60t-58.5 41t-73 15.5q-40 0 -73.5 -15t-58 -41t-38 -60t-13.5 -71t13.5 -71t38 -59.5t58 -41t73.5 -15.5q39 0 73 15.5t58.5 41t38.5 59t14 70.5zM514 0v82q-35 -46 -89.5 -74.5t-120.5 -28.5q-55 0 -102.5 21.5t-82.5 58.5t-54.5 86.5
t-19.5 104.5q0 54 19.5 103.5t54.5 86.5t82.5 59t102.5 22q63 0 116.5 -27.5t88.5 -72.5v170h-80v64h80v125h93v-125h53v-64h-53v-591h-88z" />
    <glyph glyph-name="Emacron" unicode="&#x112;" horiz-adv-x="520" 
d="M71 0v746h380v-89h-278v-220h257v-87h-257v-261h286v-89h-388zM406 881v-74h-270v74h270z" />
    <glyph glyph-name="emacron" unicode="&#x113;" horiz-adv-x="626" 
d="M316 445q-63 0 -107.5 -38t-58.5 -101h331q-14 61 -58.5 100t-106.5 39zM574 69q-40 -39 -101 -66.5t-140 -27.5q-65 0 -118 21.5t-90.5 58.5t-58.5 87.5t-21 107.5t20 107t56 87.5t86 59t109 21.5q56 0 105 -20.5t85 -57t57 -85.5t21 -106v-23h-439q5 -80 56 -129.5
t132 -49.5q59 0 105.5 21.5t81.5 54.5zM448 646v-74h-264v74h264z" />
    <glyph glyph-name="Ebreve" unicode="&#x114;" horiz-adv-x="520" 
d="M71 0v746h380v-89h-278v-220h257v-87h-257v-261h286v-89h-388zM424 948q-16 -66 -55 -106t-98 -40t-98 40t-55 106l65 3q16 -43 40 -64t48 -21t48 21t40 64z" />
    <glyph glyph-name="ebreve" unicode="&#x115;" horiz-adv-x="626" 
d="M316 445q-63 0 -107.5 -38t-58.5 -101h331q-14 61 -58.5 100t-106.5 39zM574 69q-40 -39 -101 -66.5t-140 -27.5q-65 0 -118 21.5t-90.5 58.5t-58.5 87.5t-21 107.5t20 107t56 87.5t86 59t109 21.5q56 0 105 -20.5t85 -57t57 -85.5t21 -106v-23h-439q5 -80 56 -129.5
t132 -49.5q59 0 105.5 21.5t81.5 54.5zM469 714q-16 -66 -55 -106t-98 -40t-98 40t-55 106l65 3q16 -43 40 -64t48 -21t48 21t40 64z" />
    <glyph glyph-name="Edotaccent" unicode="&#x116;" horiz-adv-x="520" 
d="M71 0v746h380v-89h-278v-220h257v-87h-257v-261h286v-89h-388zM319 909v-102h-96v102h96z" />
    <glyph glyph-name="edotaccent" unicode="&#x117;" horiz-adv-x="626" 
d="M316 445q-63 0 -107.5 -38t-58.5 -101h331q-14 61 -58.5 100t-106.5 39zM574 69q-40 -39 -101 -66.5t-140 -27.5q-65 0 -118 21.5t-90.5 58.5t-58.5 87.5t-21 107.5t20 107t56 87.5t86 59t109 21.5q56 0 105 -20.5t85 -57t57 -85.5t21 -106v-23h-439q5 -80 56 -129.5
t132 -49.5q59 0 105.5 21.5t81.5 54.5zM364 691v-109h-96v109h96z" />
    <glyph glyph-name="Eogonek" unicode="&#x118;" horiz-adv-x="520" 
d="M473 -143q-12 -12 -36 -23t-55 -11q-47 0 -68.5 23t-21.5 50t17 47.5t39 38.5l23 18h-300v746h380v-89h-278v-220h257v-87h-257v-261h286v-89l-45 -34q-20 -16 -31 -28t-11 -26q0 -10 8.5 -19.5t22.5 -9.5q12 0 21.5 4.5t15.5 10.5z" />
    <glyph glyph-name="eogonek" unicode="&#x119;" horiz-adv-x="626" 
d="M316 445q-63 0 -107.5 -38t-58.5 -101h331q-14 61 -58.5 100t-106.5 39zM581 -137q-13 -12 -36.5 -22t-53.5 -10q-44 0 -65 22t-21 51q0 24 10.5 45t26.5 42q-25 -7 -52 -11.5t-57 -4.5q-65 0 -118 21.5t-90.5 58.5t-58.5 87.5t-21 107.5t20 107t56 87.5t86 59t109 21.5
q56 0 105 -20.5t85 -57t57 -85.5t21 -106v-23h-439q5 -80 56 -129.5t132 -49.5q59 0 105.5 21.5t81.5 54.5l54 -61q-1 -1 -2 -1.5t-2 -1.5l-52 -71q-17 -23 -25.5 -41.5t-8.5 -32.5q0 -16 8 -24.5t22 -8.5q11 0 20 4t16 10z" />
    <glyph glyph-name="Ecaron" unicode="&#x11a;" horiz-adv-x="520" 
d="M71 0v746h380v-89h-278v-220h257v-87h-257v-261h286v-89h-388zM325 807h-106l-106 147h80l78 -95l78 95h82z" />
    <glyph glyph-name="ecaron" unicode="&#x11b;" horiz-adv-x="626" 
d="M316 445q-63 0 -107.5 -38t-58.5 -101h331q-14 61 -58.5 100t-106.5 39zM574 69q-40 -39 -101 -66.5t-140 -27.5q-65 0 -118 21.5t-90.5 58.5t-58.5 87.5t-21 107.5t20 107t56 87.5t86 59t109 21.5q56 0 105 -20.5t85 -57t57 -85.5t21 -106v-23h-439q5 -80 56 -129.5
t132 -49.5q59 0 105.5 21.5t81.5 54.5zM371 573h-106l-106 147h80l78 -95l78 95h82z" />
    <glyph glyph-name="Gcircumflex" unicode="&#x11c;" horiz-adv-x="880" 
d="M834 372q0 -81 -29.5 -153.5t-80.5 -126t-120 -85t-148 -31.5q-85 0 -160 31.5t-130 85t-87 126.5t-32 155t32 154.5t87 126t130 84.5t160 31q81 0 154 -28.5t124 -75.5l-68 -71q-44 39 -97 60.5t-113 21.5q-63 0 -119 -24.5t-97.5 -66t-65.5 -96.5t-24 -115
q0 -62 24 -117.5t65.5 -97.5t97.5 -66.5t119 -24.5q53 0 100.5 20t83.5 54.5t59.5 80.5t29.5 98l-247 -1l40 92h312v-41zM535 807l-78 95l-78 -95h-81l106 147h106l106 -147h-81z" />
    <glyph glyph-name="gcircumflex" unicode="&#x11d;" horiz-adv-x="644" 
d="M319 95q35 0 65.5 13.5t53.5 37t36 55t13 66.5t-13 66.5t-36 55t-53.5 37t-65.5 13.5q-36 0 -68 -13.5t-55.5 -37t-37.5 -55t-14 -66.5t14 -66.5t37.5 -55t55.5 -37t68 -13.5zM310 -213q-35 0 -77 4t-91 14v82q57 -12 96 -16t71 -4q35 0 67.5 8.5t56.5 29.5t38 57t14 90
v48q-37 -41 -86.5 -63.5t-97.5 -22.5q-50 0 -96.5 18t-81.5 51t-56 80t-21 104t21 104.5t55.5 80.5t81 51.5t97.5 18.5q49 0 99 -23t87 -66v67h92v-446q0 -75 -19.5 -126.5t-55 -82.5t-85 -44.5t-109.5 -13.5zM397 573l-78 95l-78 -95h-81l106 147h106l106 -147h-81z" />
    <glyph glyph-name="Gbreve" unicode="&#x11e;" horiz-adv-x="880" 
d="M834 372q0 -81 -29.5 -153.5t-80.5 -126t-120 -85t-148 -31.5q-85 0 -160 31.5t-130 85t-87 126.5t-32 155t32 154.5t87 126t130 84.5t160 31q81 0 154 -28.5t124 -75.5l-68 -71q-44 39 -97 60.5t-113 21.5q-63 0 -119 -24.5t-97.5 -66t-65.5 -96.5t-24 -115
q0 -62 24 -117.5t65.5 -97.5t97.5 -66.5t119 -24.5q53 0 100.5 20t83.5 54.5t59.5 80.5t29.5 98l-247 -1l40 92h312v-41zM609 948q-16 -66 -55 -106t-98 -40t-98 40t-55 106l65 3q16 -43 40 -64t48 -21t48 21t40 64z" />
    <glyph glyph-name="gbreve" unicode="&#x11f;" horiz-adv-x="644" 
d="M319 95q35 0 65.5 13.5t53.5 37t36 55t13 66.5t-13 66.5t-36 55t-53.5 37t-65.5 13.5q-36 0 -68 -13.5t-55.5 -37t-37.5 -55t-14 -66.5t14 -66.5t37.5 -55t55.5 -37t68 -13.5zM310 -213q-35 0 -77 4t-91 14v82q57 -12 96 -16t71 -4q35 0 67.5 8.5t56.5 29.5t38 57t14 90
v48q-37 -41 -86.5 -63.5t-97.5 -22.5q-50 0 -96.5 18t-81.5 51t-56 80t-21 104t21 104.5t55.5 80.5t81 51.5t97.5 18.5q49 0 99 -23t87 -66v67h92v-446q0 -75 -19.5 -126.5t-55 -82.5t-85 -44.5t-109.5 -13.5zM472 714q-16 -66 -55 -106t-98 -40t-98 40t-55 106l65 3
q16 -43 40 -64t48 -21t48 21t40 64z" />
    <glyph glyph-name="Gdotaccent" unicode="&#x120;" horiz-adv-x="880" 
d="M834 372q0 -81 -29.5 -153.5t-80.5 -126t-120 -85t-148 -31.5q-85 0 -160 31.5t-130 85t-87 126.5t-32 155t32 154.5t87 126t130 84.5t160 31q81 0 154 -28.5t124 -75.5l-68 -71q-44 39 -97 60.5t-113 21.5q-63 0 -119 -24.5t-97.5 -66t-65.5 -96.5t-24 -115
q0 -62 24 -117.5t65.5 -97.5t97.5 -66.5t119 -24.5q53 0 100.5 20t83.5 54.5t59.5 80.5t29.5 98l-247 -1l40 92h312v-41zM504 909v-102h-96v102h96z" />
    <glyph glyph-name="gdotaccent" unicode="&#x121;" horiz-adv-x="644" 
d="M319 95q35 0 65.5 13.5t53.5 37t36 55t13 66.5t-13 66.5t-36 55t-53.5 37t-65.5 13.5q-36 0 -68 -13.5t-55.5 -37t-37.5 -55t-14 -66.5t14 -66.5t37.5 -55t55.5 -37t68 -13.5zM310 -213q-35 0 -77 4t-91 14v82q57 -12 96 -16t71 -4q35 0 67.5 8.5t56.5 29.5t38 57t14 90
v48q-37 -41 -86.5 -63.5t-97.5 -22.5q-50 0 -96.5 18t-81.5 51t-56 80t-21 104t21 104.5t55.5 80.5t81 51.5t97.5 18.5q49 0 99 -23t87 -66v67h92v-446q0 -75 -19.5 -126.5t-55 -82.5t-85 -44.5t-109.5 -13.5zM367 691v-109h-96v109h96z" />
    <glyph glyph-name="Gcommaaccent" unicode="&#x122;" horiz-adv-x="880" 
d="M834 372q0 -81 -29.5 -153.5t-80.5 -126t-120 -85t-148 -31.5q-85 0 -160 31.5t-130 85t-87 126.5t-32 155t32 154.5t87 126t130 84.5t160 31q81 0 154 -28.5t124 -75.5l-68 -71q-44 39 -97 60.5t-113 21.5q-63 0 -119 -24.5t-97.5 -66t-65.5 -96.5t-24 -115
q0 -62 24 -117.5t65.5 -97.5t97.5 -66.5t119 -24.5q53 0 100.5 20t83.5 54.5t59.5 80.5t29.5 98l-247 -1l40 92h312v-41zM499 -69l-54 -161h-69l21 161h102z" />
    <glyph glyph-name="gcommaaccent" unicode="&#x123;" horiz-adv-x="644" 
d="M319 95q35 0 65.5 13.5t53.5 37t36 55t13 66.5t-13 66.5t-36 55t-53.5 37t-65.5 13.5q-36 0 -68 -13.5t-55.5 -37t-37.5 -55t-14 -66.5t14 -66.5t37.5 -55t55.5 -37t68 -13.5zM310 -213q-35 0 -77 4t-91 14v82q57 -12 96 -16t71 -4q35 0 67.5 8.5t56.5 29.5t38 57t14 90
v48q-37 -41 -86.5 -63.5t-97.5 -22.5q-50 0 -96.5 18t-81.5 51t-56 80t-21 104t21 104.5t55.5 80.5t81 51.5t97.5 18.5q49 0 99 -23t87 -66v67h92v-446q0 -75 -19.5 -126.5t-55 -82.5t-85 -44.5t-109.5 -13.5z" />
    <glyph glyph-name="Hcircumflex" unicode="&#x124;" horiz-adv-x="704" 
d="M71 0v746h102v-303h358v303h102v-746h-102v352h-358v-352h-102zM431 807l-78 95l-78 -95h-81l106 147h106l106 -147h-81z" />
    <glyph glyph-name="hcircumflex" unicode="&#x125;" horiz-adv-x="563" 
d="M159 307v-307h-94v780h92v-340q24 28 66 50.5t96 22.5q81 0 130.5 -50t49.5 -137v-326h-93v298q0 74 -37 103t-85 29q-20 0 -42 -8t-40.5 -23.5t-30.5 -38.5t-12 -53zM190 840l-78 95l-78 -95h-81l106 147h106l106 -147h-81z" />
    <glyph glyph-name="Hbar" unicode="&#x126;" horiz-adv-x="717" 
d="M177 443h364v104h-364v-104zM177 352v-352h-102v547h-47v80h47v119h102v-119h364v119h102v-119h46v-80h-46v-547h-102v352h-364z" />
    <glyph glyph-name="hbar" unicode="&#x127;" horiz-adv-x="562" 
d="M159 307v-307h-94v591h-46v64h46v125h92v-125h89v-64h-89v-151q24 28 66 50.5t96 22.5q81 0 130.5 -50t49.5 -137v-326h-93v298q0 74 -37 103t-85 29q-20 0 -42 -8t-40.5 -23.5t-30.5 -38.5t-12 -53z" />
    <glyph glyph-name="Itilde" unicode="&#x128;" horiz-adv-x="248" 
d="M73 0v746h102v-746h-102zM-2 807l-76 1q-4 41 4 69t23 45t35.5 24t42.5 7t47.5 -10.5t50 -23.5t46 -23.5t37.5 -10.5t29.5 13t12.5 55l76 -2q7 -75 -25.5 -108.5t-78.5 -33.5q-24 0 -49.5 10.5t-50 23.5t-46 23.5t-36.5 10.5q-17 0 -30.5 -13.5t-11.5 -56.5z" />
    <glyph glyph-name="itilde" unicode="&#x129;" horiz-adv-x="229" 
d="M162 500v-500h-94v500h94zM3 573l-74 2q-7 78 25 107.5t72 29.5q21 0 43.5 -9.5t44.5 -21.5t41.5 -21.5t33.5 -9.5q16 0 28 12t11 49l73 -1q6 -70 -23 -102t-73 -32q-21 0 -44.5 9.5t-45 21t-41 21t-33.5 9.5q-16 0 -28 -12t-10 -52z" />
    <glyph glyph-name="Imacron" unicode="&#x12a;" horiz-adv-x="248" 
d="M73 0v746h102v-746h-102zM259 881v-74h-270v74h270z" />
    <glyph glyph-name="imacron" unicode="&#x12b;" horiz-adv-x="229" 
d="M162 500v-500h-94v500h94zM247 646v-74h-264v74h264z" />
    <glyph glyph-name="Ibreve" unicode="&#x12c;" horiz-adv-x="248" 
d="M73 0v746h102v-746h-102zM277 948q-16 -66 -55 -106t-98 -40t-98 40t-55 106l65 3q16 -43 40 -64t48 -21t48 21t40 64z" />
    <glyph glyph-name="ibreve" unicode="&#x12d;" horiz-adv-x="229" 
d="M162 500v-500h-94v500h94zM268 714q-16 -66 -55 -106t-98 -40t-98 40t-55 106l65 3q16 -43 40 -64t48 -21t48 21t40 64z" />
    <glyph glyph-name="Iogonek" unicode="&#x12e;" horiz-adv-x="248" 
d="M98 -177q-47 0 -69 23t-22 50q0 29 16.5 50.5t38.5 40.5l11 8v751h102v-746l-45 -34q-20 -16 -31 -28t-11 -26q0 -10 8.5 -19.5t22.5 -9.5q12 0 21 4.5t16 10.5l33 -41q-13 -12 -36.5 -23t-54.5 -11z" />
    <glyph glyph-name="iogonek" unicode="&#x12f;" horiz-adv-x="229" 
d="M164 692v-110h-98v110h98zM85 -169q-44 0 -64.5 22t-20.5 47q0 26 16 48t37 39l15 12v501h94v-500l-44 -34q-19 -15 -29.5 -26.5t-10.5 -24.5q0 -10 8.5 -18.5t21.5 -8.5q11 0 20 4t16 10l30 -39q-11 -12 -35 -22t-54 -10z" />
    <glyph glyph-name="Idotaccent" unicode="&#x130;" horiz-adv-x="248" 
d="M73 0v746h102v-746h-102zM172 909v-102h-96v102h96z" />
    <glyph glyph-name="dotlessi" unicode="&#x131;" horiz-adv-x="229" 
d="M162 500v-500h-94v500h94z" />
    <glyph glyph-name="IJ" unicode="&#x132;" horiz-adv-x="604" 
d="M73 0v746h102v-746h-102zM273 0v94q16 -7 32.5 -10.5t34.5 -3.5t34.5 5t29 21.5t19.5 46.5t7 80v513h102v-537q0 -120 -41.5 -171.5t-140.5 -51.5q-22 0 -41 3.5t-36 10.5z" />
    <glyph glyph-name="ij" unicode="&#x133;" horiz-adv-x="458" 
d="M164 692v-110h-98v110h98zM162 500v-500h-94v500h94zM393 692v-110h-98v110h98zM197 -130h10q44 0 67 27t23 82v521h94v-520q0 -105 -43 -150.5t-138 -45.5h-13v86z" />
    <glyph glyph-name="Jcircumflex" unicode="&#x134;" horiz-adv-x="356" 
d="M25 0v94q16 -7 32.5 -10.5t34.5 -3.5t34.5 5t29 21.5t19.5 46.5t7 80v513h102v-537q0 -120 -41.5 -171.5t-140.5 -51.5q-22 0 -41 3.5t-36 10.5zM312 807l-78 95l-78 -95h-81l106 147h106l106 -147h-81z" />
    <glyph glyph-name="jcircumflex" unicode="&#x135;" horiz-adv-x="225" 
d="M-28 -131h9q40 0 62.5 29.5t22.5 83.5v518h93v-518q0 -100 -43.5 -149t-130.5 -49h-13v85zM194 573l-78 95l-78 -95h-81l106 147h106l106 -147h-81z" />
    <glyph glyph-name="Kcommaaccent" unicode="&#x136;" horiz-adv-x="667" 
d="M513 0l-284 347l-56 -64v-283h-102v746h102v-320l283 320h125l-285 -324l345 -422h-128zM374 -58l-54 -161h-69l21 161h102z" />
    <glyph glyph-name="kcommaaccent" unicode="&#x137;" horiz-adv-x="532" 
d="M392 0l-178 239l-55 -52v-187h-94v780h94v-477l213 197h121l-211 -200l226 -300h-116zM334 -58l-54 -161h-69l21 161h102z" />
    <glyph glyph-name="kgreenlandic" unicode="&#x138;" horiz-adv-x="532" 
d="M392 0l-178 239l-55 -52v-187h-94v500h94v-197l213 197h121l-211 -200l226 -300h-116z" />
    <glyph glyph-name="Lacute" unicode="&#x139;" horiz-adv-x="477" 
d="M71 746h102v-655h273v-91h-375v746zM282 954l-127 -147h-75l86 147h116z" />
    <glyph glyph-name="lacute" unicode="&#x13a;" horiz-adv-x="229" 
d="M162 780v-780h-94v780h94zM275 987l-127 -147h-75l86 147h116z" />
    <glyph glyph-name="Lcommaaccent" unicode="&#x13b;" horiz-adv-x="477" 
d="M71 746h102v-655h273v-91h-375v746zM330 -58l-54 -161h-69l21 161h102z" />
    <glyph glyph-name="lcommaaccent" unicode="&#x13c;" horiz-adv-x="229" 
d="M162 780v-780h-94v780h94zM165 -61l-54 -161h-69l21 161h102z" />
    <glyph glyph-name="Lcaron" unicode="&#x13d;" horiz-adv-x="477" 
d="M71 746h102v-655h273v-91h-375v746zM386 780l-44 -162h-57l16 162h85z" />
    <glyph glyph-name="lcaron" unicode="&#x13e;" horiz-adv-x="229" 
d="M162 780v-780h-94v780h94zM302 780l-44 -162h-57l16 162h85z" />
    <glyph glyph-name="Ldot" unicode="&#x13f;" horiz-adv-x="477" 
d="M71 746h102v-655h273v-91h-375v746zM370 459v-102h-96v102h96z" />
    <glyph glyph-name="ldot" unicode="&#x140;" horiz-adv-x="273" 
d="M162 780v-780h-94v780h94zM280 475v-109h-96v109h96z" />
    <glyph glyph-name="Lslash" unicode="&#x141;" horiz-adv-x="482" 
d="M446 0h-375v306l-46 -24l-1 88l47 24v352h102v-300l174 89v-87l-174 -90v-267h273v-91z" />
    <glyph glyph-name="lslash" unicode="&#x142;" horiz-adv-x="236" 
d="M166 0h-94v366l-47 -25v76l47 25v338h94v-287l55 29v-75l-55 -30v-417z" />
    <glyph glyph-name="Nacute" unicode="&#x143;" horiz-adv-x="758" 
d="M586 0l-413 580v-580h-102v746h106l406 -571v571h102v-746h-99zM533 954l-127 -147h-75l86 147h116z" />
    <glyph glyph-name="nacute" unicode="&#x144;" horiz-adv-x="563" 
d="M159 307v-307h-94v500h90v-62q24 29 66.5 52t97.5 23q81 0 130.5 -50t49.5 -137v-326h-94v298q0 74 -37 103t-84 29q-20 0 -42 -8t-40.5 -23.5t-30.5 -38.5t-12 -53zM442 720l-127 -147h-75l86 147h116z" />
    <glyph glyph-name="Ncommaaccent" unicode="&#x145;" horiz-adv-x="758" 
d="M586 0l-413 580v-580h-102v746h106l406 -571v571h102v-746h-99zM422 -58l-54 -161h-69l21 161h102z" />
    <glyph glyph-name="ncommaaccent" unicode="&#x146;" horiz-adv-x="563" 
d="M159 307v-307h-94v500h90v-62q24 29 66.5 52t97.5 23q81 0 130.5 -50t49.5 -137v-326h-94v298q0 74 -37 103t-84 29q-20 0 -42 -8t-40.5 -23.5t-30.5 -38.5t-12 -53zM333 -58l-54 -161h-69l21 161h102z" />
    <glyph glyph-name="Ncaron" unicode="&#x147;" horiz-adv-x="758" 
d="M586 0l-413 580v-580h-102v746h106l406 -571v571h102v-746h-99zM427 807h-106l-106 147h80l78 -95l78 95h82z" />
    <glyph glyph-name="ncaron" unicode="&#x148;" horiz-adv-x="563" 
d="M159 307v-307h-94v500h90v-62q24 29 66.5 52t97.5 23q81 0 130.5 -50t49.5 -137v-326h-94v298q0 74 -37 103t-84 29q-20 0 -42 -8t-40.5 -23.5t-30.5 -38.5t-12 -53zM336 573h-106l-106 147h80l78 -95l78 95h82z" />
    <glyph glyph-name="Eng" unicode="&#x14a;" horiz-adv-x="758" 
d="M493 -225h-17v86h15q45 0 70 36t25 102l-413 581v-580h-102v746h106l406 -571v571h102v-748q0 -116 -51 -169.5t-141 -53.5z" />
    <glyph glyph-name="eng" unicode="&#x14b;" horiz-adv-x="563" 
d="M325 -216h-14v85h9q40 0 62.5 29t22.5 83v317q0 74 -37 103t-84 29q-20 0 -42 -8t-40.5 -23.5t-30.5 -38.5t-12 -53v-307h-94v500h90v-62q24 29 66.5 52t97.5 23q81 0 130.5 -50t49.5 -137v-344q0 -100 -43.5 -149t-130.5 -49z" />
    <glyph glyph-name="Omacron" unicode="&#x14c;" horiz-adv-x="912" 
d="M456 770q85 0 159.5 -31t129.5 -84.5t87 -126t32 -154.5t-32 -155t-87 -126.5t-129.5 -85t-159.5 -31.5t-160 31.5t-130 85t-87 126.5t-32 155t32 154.5t87 126t130 84.5t160 31zM456 677q-63 0 -119 -24.5t-97.5 -66t-65.5 -96.5t-24 -115q0 -62 24 -117.5t65.5 -97.5
t97.5 -66.5t119 -24.5t119 24.5t97 66.5t65 97.5t24 117.5q0 60 -24 115t-65 96.5t-97 66t-119 24.5zM591 881v-74h-270v74h270z" />
    <glyph glyph-name="omacron" unicode="&#x14d;" horiz-adv-x="658" 
d="M329 525q61 0 113.5 -22t90.5 -59.5t59.5 -87.5t21.5 -106t-21.5 -106t-59.5 -87.5t-90.5 -59.5t-113.5 -22t-113 22t-90 59.5t-59.5 87.5t-21.5 106t21.5 106t59.5 87.5t90 59.5t113 22zM329 444q-40 0 -74 -15.5t-58.5 -42t-38.5 -62t-14 -74.5t14 -74.5t38.5 -62
t58.5 -42t74 -15.5t74.5 16t59 42t38.5 61.5t14 74.5t-14 74.5t-38.5 62t-59 42t-74.5 15.5zM461 646v-74h-264v74h264z" />
    <glyph glyph-name="Obreve" unicode="&#x14e;" horiz-adv-x="912" 
d="M456 770q85 0 159.5 -31t129.5 -84.5t87 -126t32 -154.5t-32 -155t-87 -126.5t-129.5 -85t-159.5 -31.5t-160 31.5t-130 85t-87 126.5t-32 155t32 154.5t87 126t130 84.5t160 31zM456 677q-63 0 -119 -24.5t-97.5 -66t-65.5 -96.5t-24 -115q0 -62 24 -117.5t65.5 -97.5
t97.5 -66.5t119 -24.5t119 24.5t97 66.5t65 97.5t24 117.5q0 60 -24 115t-65 96.5t-97 66t-119 24.5zM609 948q-16 -66 -55 -106t-98 -40t-98 40t-55 106l65 3q16 -43 40 -64t48 -21t48 21t40 64z" />
    <glyph glyph-name="obreve" unicode="&#x14f;" horiz-adv-x="658" 
d="M329 525q61 0 113.5 -22t90.5 -59.5t59.5 -87.5t21.5 -106t-21.5 -106t-59.5 -87.5t-90.5 -59.5t-113.5 -22t-113 22t-90 59.5t-59.5 87.5t-21.5 106t21.5 106t59.5 87.5t90 59.5t113 22zM329 444q-40 0 -74 -15.5t-58.5 -42t-38.5 -62t-14 -74.5t14 -74.5t38.5 -62
t58.5 -42t74 -15.5t74.5 16t59 42t38.5 61.5t14 74.5t-14 74.5t-38.5 62t-59 42t-74.5 15.5zM482 714q-16 -66 -55 -106t-98 -40t-98 40t-55 106l65 3q16 -43 40 -64t48 -21t48 21t40 64z" />
    <glyph glyph-name="Ohungarumlaut" unicode="&#x150;" horiz-adv-x="912" 
d="M456 770q85 0 159.5 -31t129.5 -84.5t87 -126t32 -154.5t-32 -155t-87 -126.5t-129.5 -85t-159.5 -31.5t-160 31.5t-130 85t-87 126.5t-32 155t32 154.5t87 126t130 84.5t160 31zM456 677q-63 0 -119 -24.5t-97.5 -66t-65.5 -96.5t-24 -115q0 -62 24 -117.5t65.5 -97.5
t97.5 -66.5t119 -24.5t119 24.5t97 66.5t65 97.5t24 117.5q0 60 -24 115t-65 96.5t-97 66t-119 24.5zM597 954h108l-132 -147h-71zM424 954h108l-133 -147h-71z" />
    <glyph glyph-name="ohungarumlaut" unicode="&#x151;" horiz-adv-x="658" 
d="M329 525q61 0 113.5 -22t90.5 -59.5t59.5 -87.5t21.5 -106t-21.5 -106t-59.5 -87.5t-90.5 -59.5t-113.5 -22t-113 22t-90 59.5t-59.5 87.5t-21.5 106t21.5 106t59.5 87.5t90 59.5t113 22zM329 444q-40 0 -74 -15.5t-58.5 -42t-38.5 -62t-14 -74.5t14 -74.5t38.5 -62
t58.5 -42t74 -15.5t74.5 16t59 42t38.5 61.5t14 74.5t-14 74.5t-38.5 62t-59 42t-74.5 15.5zM468 720h108l-132 -147h-71zM301 720h108l-133 -147h-71z" />
    <glyph glyph-name="OE" unicode="&#x152;" horiz-adv-x="985" 
d="M464 91h68v564h-68q-60 0 -116.5 -18.5t-99.5 -53.5t-69 -88t-26 -121q0 -69 26 -122t69 -88.5t99.5 -54t116.5 -18.5zM463 0q-81 0 -156 24.5t-131.5 72t-91 117.5t-34.5 160q0 89 34.5 158.5t91.5 116.5t132 72t155 25h449v-89h-278v-220h268v-87h-268v-261h286v-89
h-457z" />
    <glyph glyph-name="oe" unicode="&#x153;" horiz-adv-x="1094" 
d="M785 445q-63 0 -107.5 -38t-58.5 -101h330q-13 61 -57.5 100t-106.5 39zM329 444q-40 0 -74 -15.5t-58.5 -42t-38.5 -62t-14 -74.5t14 -74.5t38.5 -61.5t58.5 -42t74 -16t74.5 16t59 42t38.5 61.5t14 74.5t-14 74.5t-38.5 62t-59 42t-74.5 15.5zM1042 69
q-40 -39 -100.5 -66.5t-139.5 -27.5q-80 0 -141.5 32.5t-97.5 86.5q-37 -53 -98 -86t-136 -33q-61 0 -113 22t-90 59.5t-59.5 87.5t-21.5 106t21.5 106t59.5 87.5t90 59.5t113 22q74 0 135 -32.5t98 -85.5q34 53 92.5 85.5t131.5 32.5q56 0 104.5 -20.5t84.5 -57t57 -85.5
t21 -106v-23h-439q5 -80 56.5 -129.5t132.5 -49.5q57 0 104 21.5t82 54.5z" />
    <glyph glyph-name="Racute" unicode="&#x154;" horiz-adv-x="605" 
d="M242 653h-69v-263h67q69 0 111.5 38.5t42.5 96.5q0 50 -36.5 89t-115.5 39zM446 0l-267 302h-6v-302h-102v746h170q120 0 187.5 -59t67.5 -161q0 -87 -55.5 -143t-137.5 -74l269 -309h-126zM424 954l-127 -147h-75l86 147h116z" />
    <glyph glyph-name="racute" unicode="&#x155;" horiz-adv-x="359" 
d="M159 274v-274h-94v500h90v-103q7 15 20.5 33t31.5 33.5t41 26t49 10.5h16v-106q-3 2 -9.5 3t-10.5 1q-31 0 -55.5 -12.5t-42 -31t-27 -40t-9.5 -40.5zM361 720l-127 -147h-75l86 147h116z" />
    <glyph glyph-name="Rcommaaccent" unicode="&#x156;" horiz-adv-x="605" 
d="M242 653h-69v-263h67q69 0 111.5 38.5t42.5 96.5q0 50 -36.5 89t-115.5 39zM446 0l-267 302h-6v-302h-102v746h170q120 0 187.5 -59t67.5 -161q0 -87 -55.5 -143t-137.5 -74l269 -309h-126zM338 -58l-54 -161h-69l21 161h102z" />
    <glyph glyph-name="rcommaaccent" unicode="&#x157;" horiz-adv-x="359" 
d="M159 274v-274h-94v500h90v-103q7 15 20.5 33t31.5 33.5t41 26t49 10.5h16v-106q-3 2 -9.5 3t-10.5 1q-31 0 -55.5 -12.5t-42 -31t-27 -40t-9.5 -40.5zM162 -58l-54 -161h-69l21 161h102z" />
    <glyph glyph-name="Rcaron" unicode="&#x158;" horiz-adv-x="605" 
d="M242 653h-69v-263h67q69 0 111.5 38.5t42.5 96.5q0 50 -36.5 89t-115.5 39zM446 0l-267 302h-6v-302h-102v746h170q120 0 187.5 -59t67.5 -161q0 -87 -55.5 -143t-137.5 -74l269 -309h-126zM318 807h-106l-106 147h80l78 -95l78 95h82z" />
    <glyph glyph-name="rcaron" unicode="&#x159;" horiz-adv-x="359" 
d="M159 274v-274h-94v500h90v-103q7 15 20.5 33t31.5 33.5t41 26t49 10.5h16v-106q-3 2 -9.5 3t-10.5 1q-31 0 -55.5 -12.5t-42 -31t-27 -40t-9.5 -40.5zM255 573h-106l-106 147h80l78 -95l78 95h82z" />
    <glyph glyph-name="Sacute" unicode="&#x15a;" horiz-adv-x="521" 
d="M424 734l-2 -97q-28 15 -63.5 26t-72.5 11q-66 0 -91.5 -28t-25.5 -55q0 -38 30 -72t97 -85q96 -73 136 -128.5t40 -112.5q0 -48 -18.5 -86.5t-51 -64.5t-77.5 -40t-96 -14q-40 0 -90.5 11t-83.5 27l2 99q37 -23 85.5 -36.5t91.5 -13.5q69 0 102 35.5t33 76.5
q0 40 -31.5 78.5t-105.5 93.5q-89 69 -127.5 118t-38.5 111q0 33 13 64t39.5 55.5t67.5 39t97 14.5q33 0 71.5 -7t69.5 -20zM442 954l-127 -147h-75l86 147h116z" />
    <glyph glyph-name="sacute" unicode="&#x15b;" horiz-adv-x="428" 
d="M218 515q31 0 58.5 -6t49.5 -16v-86q-26 14 -52 22t-49 8q-34 0 -54.5 -14.5t-20.5 -38.5q0 -17 19.5 -35t65.5 -47q87 -55 117.5 -94.5t30.5 -82.5q0 -63 -48 -101t-129 -39q-35 0 -75.5 10.5t-70.5 25.5v86q37 -20 73.5 -31t61.5 -11q45 1 66.5 18.5t21.5 42.5
q0 7 -3 16.5t-14 21.5t-31.5 28t-54.5 37q-75 49 -102 81.5t-27 78.5q0 22 9.5 44.5t29.5 40.5t52 29.5t76 11.5zM372 720l-127 -147h-75l86 147h116z" />
    <glyph glyph-name="Scircumflex" unicode="&#x15c;" horiz-adv-x="521" 
d="M424 734l-2 -97q-28 15 -63.5 26t-72.5 11q-66 0 -91.5 -28t-25.5 -55q0 -38 30 -72t97 -85q96 -73 136 -128.5t40 -112.5q0 -48 -18.5 -86.5t-51 -64.5t-77.5 -40t-96 -14q-40 0 -90.5 11t-83.5 27l2 99q37 -23 85.5 -36.5t91.5 -13.5q69 0 102 35.5t33 76.5
q0 40 -31.5 78.5t-105.5 93.5q-89 69 -127.5 118t-38.5 111q0 33 13 64t39.5 55.5t67.5 39t97 14.5q33 0 71.5 -7t69.5 -20zM361 807l-78 95l-78 -95h-81l106 147h106l106 -147h-81z" />
    <glyph glyph-name="scircumflex" unicode="&#x15d;" horiz-adv-x="428" 
d="M218 515q31 0 58.5 -6t49.5 -16v-86q-26 14 -52 22t-49 8q-34 0 -54.5 -14.5t-20.5 -38.5q0 -17 19.5 -35t65.5 -47q87 -55 117.5 -94.5t30.5 -82.5q0 -63 -48 -101t-129 -39q-35 0 -75.5 10.5t-70.5 25.5v86q37 -20 73.5 -31t61.5 -11q45 1 66.5 18.5t21.5 42.5
q0 7 -3 16.5t-14 21.5t-31.5 28t-54.5 37q-75 49 -102 81.5t-27 78.5q0 22 9.5 44.5t29.5 40.5t52 29.5t76 11.5zM291 573l-78 95l-78 -95h-81l106 147h106l106 -147h-81z" />
    <glyph glyph-name="Scedilla" unicode="&#x15e;" horiz-adv-x="521" 
d="M424 734l-2 -97q-28 15 -63.5 26t-72.5 11q-66 0 -91.5 -28t-25.5 -55q0 -38 30 -72t97 -85q96 -73 136 -128.5t40 -112.5q0 -48 -18.5 -86.5t-51 -64.5t-77.5 -40t-96 -14q-40 0 -90.5 11t-83.5 27l2 99q37 -23 85.5 -36.5t91.5 -13.5q69 0 102 35.5t33 76.5
q0 40 -31.5 78.5t-105.5 93.5q-89 69 -127.5 118t-38.5 111q0 33 13 64t39.5 55.5t67.5 39t97 14.5q33 0 71.5 -7t69.5 -20zM214 -208q-11 0 -31.5 3t-38.5 9v51h1q18 -6 36.5 -9t27.5 -3q26 0 41 10t15 26q0 14 -18 23t-48 9h-20l-3 7l30 80h55l-19 -43q42 -5 65 -26.5
t23 -52.5q0 -35 -32 -59.5t-84 -24.5z" />
    <glyph glyph-name="scedilla" unicode="&#x15f;" horiz-adv-x="428" 
d="M218 515q31 0 58.5 -6t49.5 -16v-86q-26 14 -52 22t-49 8q-34 0 -54.5 -14.5t-20.5 -38.5q0 -17 19.5 -35t65.5 -47q87 -55 117.5 -94.5t30.5 -82.5q0 -63 -48 -101t-129 -39q-35 0 -75.5 10.5t-70.5 25.5v86q37 -20 73.5 -31t61.5 -11q45 1 66.5 18.5t21.5 42.5
q0 7 -3 16.5t-14 21.5t-31.5 28t-54.5 37q-75 49 -102 81.5t-27 78.5q0 22 9.5 44.5t29.5 40.5t52 29.5t76 11.5zM191 -202q-12 0 -32 3.5t-36 9.5v50h1q17 -5 34 -8.5t27 -3.5q24 0 37.5 10t13.5 24q0 13 -16.5 22t-44.5 9h-19l-2 6l28 76l53 -1l-17 -38q40 -6 61.5 -26
t21.5 -50q0 -35 -30 -59t-80 -24z" />
    <glyph glyph-name="Scaron" unicode="&#x160;" horiz-adv-x="521" 
d="M424 734l-2 -97q-28 15 -63.5 26t-72.5 11q-66 0 -91.5 -28t-25.5 -55q0 -38 30 -72t97 -85q96 -73 136 -128.5t40 -112.5q0 -48 -18.5 -86.5t-51 -64.5t-77.5 -40t-96 -14q-40 0 -90.5 11t-83.5 27l2 99q37 -23 85.5 -36.5t91.5 -13.5q69 0 102 35.5t33 76.5
q0 40 -31.5 78.5t-105.5 93.5q-89 69 -127.5 118t-38.5 111q0 33 13 64t39.5 55.5t67.5 39t97 14.5q33 0 71.5 -7t69.5 -20zM337 807h-106l-106 147h80l78 -95l78 95h82z" />
    <glyph glyph-name="scaron" unicode="&#x161;" horiz-adv-x="428" 
d="M218 515q31 0 58.5 -6t49.5 -16v-86q-26 14 -52 22t-49 8q-34 0 -54.5 -14.5t-20.5 -38.5q0 -17 19.5 -35t65.5 -47q87 -55 117.5 -94.5t30.5 -82.5q0 -63 -48 -101t-129 -39q-35 0 -75.5 10.5t-70.5 25.5v86q37 -20 73.5 -31t61.5 -11q45 1 66.5 18.5t21.5 42.5
q0 7 -3 16.5t-14 21.5t-31.5 28t-54.5 37q-75 49 -102 81.5t-27 78.5q0 22 9.5 44.5t29.5 40.5t52 29.5t76 11.5zM266 573h-106l-106 147h80l78 -95l78 95h82z" />
    <glyph glyph-name="Tcaron" unicode="&#x164;" horiz-adv-x="431" 
d="M164 0v656h-134v90h371v-90h-135v-656h-102zM269 807h-106l-106 147h80l78 -95l78 95h82z" />
    <glyph glyph-name="tcaron" unicode="&#x165;" horiz-adv-x="297" 
d="M261 421h-66v-421h-93v421h-67v79h67v159l93 37v-196h66v-79zM328 801l-44 -162h-57l16 162h85z" />
    <glyph glyph-name="Tbar" unicode="&#x166;" horiz-adv-x="431" 
d="M344 325h-78v-325h-102v325h-80v80h80v251h-134v90h371v-90h-135v-251h78v-80z" />
    <glyph glyph-name="tbar" unicode="&#x167;" horiz-adv-x="297" 
d="M262 250h-67v-250h-93v250h-67v62h67v109h-67v79h67v159l93 37v-196h66v-79h-66v-109h67v-62z" />
    <glyph glyph-name="Utilde" unicode="&#x168;" horiz-adv-x="697" 
d="M626 295q0 -147 -70.5 -233t-207.5 -86q-135 0 -206 86t-71 233v451h102v-481q0 -49 15 -85.5t39 -61t56 -37t65 -12.5q35 0 67 12.5t56 37t38.5 61t14.5 85.5v481h102v-451zM223 807l-76 1q-4 41 4 69t23 45t35.5 24t42.5 7t47.5 -10.5t50 -23.5t46 -23.5t37.5 -10.5
t29.5 13t12.5 55l76 -2q7 -75 -25.5 -108.5t-78.5 -33.5q-24 0 -49.5 10.5t-50 23.5t-46 23.5t-36.5 10.5q-17 0 -30.5 -13.5t-11.5 -56.5z" />
    <glyph glyph-name="utilde" unicode="&#x169;" horiz-adv-x="563" 
d="M408 0v62q-24 -29 -67 -52t-97 -23q-81 0 -131 50t-50 137v326h94v-298q0 -74 37 -103t85 -29q20 0 42 8t40.5 23.5t30.5 38.5t12 53v307h93v-500h-89zM169 573l-74 2q-7 78 25 107.5t72 29.5q21 0 43.5 -9.5t44.5 -21.5t41.5 -21.5t33.5 -9.5q16 0 28 12t11 49l73 -1
q6 -70 -23 -102t-73 -32q-21 0 -44.5 9.5t-45 21t-41 21t-33.5 9.5q-16 0 -28 -12t-10 -52z" />
    <glyph glyph-name="Umacron" unicode="&#x16a;" horiz-adv-x="697" 
d="M626 295q0 -147 -70.5 -233t-207.5 -86q-135 0 -206 86t-71 233v451h102v-481q0 -49 15 -85.5t39 -61t56 -37t65 -12.5q35 0 67 12.5t56 37t38.5 61t14.5 85.5v481h102v-451zM484 881v-74h-270v74h270z" />
    <glyph glyph-name="umacron" unicode="&#x16b;" horiz-adv-x="563" 
d="M408 0v62q-24 -29 -67 -52t-97 -23q-81 0 -131 50t-50 137v326h94v-298q0 -74 37 -103t85 -29q20 0 42 8t40.5 23.5t30.5 38.5t12 53v307h93v-500h-89zM413 646v-74h-264v74h264z" />
    <glyph glyph-name="Ubreve" unicode="&#x16c;" horiz-adv-x="697" 
d="M626 295q0 -147 -70.5 -233t-207.5 -86q-135 0 -206 86t-71 233v451h102v-481q0 -49 15 -85.5t39 -61t56 -37t65 -12.5q35 0 67 12.5t56 37t38.5 61t14.5 85.5v481h102v-451zM502 948q-16 -66 -55 -106t-98 -40t-98 40t-55 106l65 3q16 -43 40 -64t48 -21t48 21t40 64z
" />
    <glyph glyph-name="ubreve" unicode="&#x16d;" horiz-adv-x="563" 
d="M408 0v62q-24 -29 -67 -52t-97 -23q-81 0 -131 50t-50 137v326h94v-298q0 -74 37 -103t85 -29q20 0 42 8t40.5 23.5t30.5 38.5t12 53v307h93v-500h-89zM434 714q-16 -66 -55 -106t-98 -40t-98 40t-55 106l65 3q16 -43 40 -64t48 -21t48 21t40 64z" />
    <glyph glyph-name="Uring" unicode="&#x16e;" horiz-adv-x="697" 
d="M626 295q0 -147 -70.5 -233t-207.5 -86q-135 0 -206 86t-71 233v451h102v-481q0 -49 15 -85.5t39 -61t56 -37t65 -12.5q35 0 67 12.5t56 37t38.5 61t14.5 85.5v481h102v-451zM349 1027q49 0 82.5 -34t33.5 -79t-33.5 -78.5t-82.5 -33.5t-82.5 34t-33.5 78q0 45 33.5 79
t82.5 34zM349 979q-27 0 -45.5 -18.5t-18.5 -46.5q0 -27 18.5 -45.5t45.5 -18.5t45.5 18.5t18.5 45.5q0 28 -18.5 46.5t-45.5 18.5z" />
    <glyph glyph-name="uring" unicode="&#x16f;" horiz-adv-x="563" 
d="M408 0v62q-24 -29 -67 -52t-97 -23q-81 0 -131 50t-50 137v326h94v-298q0 -74 37 -103t85 -29q20 0 42 8t40.5 23.5t30.5 38.5t12 53v307h93v-500h-89zM281 793q49 0 82.5 -34t33.5 -79t-33.5 -78.5t-82.5 -33.5t-82.5 34t-33.5 78q0 45 33.5 79t82.5 34zM281 745
q-27 0 -45.5 -18.5t-18.5 -46.5q0 -27 18.5 -45.5t45.5 -18.5t45.5 18.5t18.5 45.5q0 28 -18.5 46.5t-45.5 18.5z" />
    <glyph glyph-name="Uhungarumlaut" unicode="&#x170;" horiz-adv-x="697" 
d="M626 295q0 -147 -70.5 -233t-207.5 -86q-135 0 -206 86t-71 233v451h102v-481q0 -49 15 -85.5t39 -61t56 -37t65 -12.5q35 0 67 12.5t56 37t38.5 61t14.5 85.5v481h102v-451zM490 954h108l-132 -147h-71zM317 954h108l-133 -147h-71z" />
    <glyph glyph-name="uhungarumlaut" unicode="&#x171;" horiz-adv-x="563" 
d="M408 0v62q-24 -29 -67 -52t-97 -23q-81 0 -131 50t-50 137v326h94v-298q0 -74 37 -103t85 -29q20 0 42 8t40.5 23.5t30.5 38.5t12 53v307h93v-500h-89zM419 720h108l-132 -147h-71zM252 720h108l-133 -147h-71z" />
    <glyph glyph-name="Uogonek" unicode="&#x172;" horiz-adv-x="699" 
d="M417 -177q-46 0 -67.5 24.5t-21.5 52.5q0 22 8.5 41.5t24.5 34.5h-6.5h-6.5q-135 0 -206 86t-71 233v451h102v-481q0 -49 15 -85.5t39 -61t56 -37t65 -12.5q35 0 67 12.5t56 37t38.5 61t14.5 85.5v481h102v-451q0 -101 -34 -175t-100 -111l-40 -28q-25 -16 -35 -31.5
t-10 -32.5q0 -13 8.5 -23.5t23.5 -10.5q12 0 21 4.5t16 10.5l32 -41q-13 -12 -36.5 -23t-54.5 -11z" />
    <glyph glyph-name="uogonek" unicode="&#x173;" horiz-adv-x="563" 
d="M421 -169q-44 0 -65 22t-21 47q0 26 16 46.5t38 37.5l19 16v62q-24 -29 -67 -52t-97 -23q-81 0 -131 50t-50 137v326h94v-298q0 -74 37 -103t85 -29q20 0 42 8t40.5 23.5t30.5 38.5t12 53v307h93v-500l-43 -34q-19 -15 -29.5 -26.5t-10.5 -24.5q0 -10 8 -18.5t21 -8.5
q11 0 20 4t16 10l32 -39q-13 -12 -36 -22t-54 -10z" />
    <glyph glyph-name="Wcircumflex" unicode="&#x174;" horiz-adv-x="1017" 
d="M674 0l-164 584l-167 -584h-105l-220 746h107l170 -597l165 597h103l164 -597l170 597h102l-220 -746h-105zM593 807l-78 95l-78 -95h-81l106 147h106l106 -147h-81z" />
    <glyph glyph-name="wcircumflex" unicode="&#x175;" horiz-adv-x="797" 
d="M520 0l-121 365l-118 -365h-93l-172 500h100l119 -376l118 376h97l116 -376l120 376h95l-171 -500h-90zM481 573l-78 95l-78 -95h-81l106 147h106l106 -147h-81z" />
    <glyph glyph-name="Ycircumflex" unicode="&#x176;" horiz-adv-x="637" 
d="M369 0h-102v242l-254 504h112l195 -402l198 402h106l-255 -504v-242zM406 807l-78 95l-78 -95h-81l106 147h106l106 -147h-81z" />
    <glyph glyph-name="ycircumflex" unicode="&#x177;" horiz-adv-x="554" 
d="M267 -213h-95l76 202l-232 511h104l172 -398l150 398h96zM365 573l-78 95l-78 -95h-81l106 147h106l106 -147h-81z" />
    <glyph glyph-name="Ydieresis" unicode="&#x178;" horiz-adv-x="637" 
d="M369 0h-102v242l-254 504h112l195 -402l198 402h106l-255 -504v-242zM483 895v-88h-98v88h98zM271 895v-88h-98v88h98z" />
    <glyph glyph-name="Zacute" unicode="&#x179;" horiz-adv-x="640" 
d="M569 0h-534l-1 9l390 650h-343l41 87h463l1 -9l-391 -650h414zM489 954l-127 -147h-75l86 147h116z" />
    <glyph glyph-name="zacute" unicode="&#x17a;" horiz-adv-x="543" 
d="M462 0h-427l-2 5l312 415h-255l35 80h377l2 -5l-310 -415h302zM450 720l-127 -147h-75l86 147h116z" />
    <glyph glyph-name="Zdotaccent" unicode="&#x17b;" horiz-adv-x="640" 
d="M569 0h-534l-1 9l390 650h-343l41 87h463l1 -9l-391 -650h414zM378 909v-102h-96v102h96z" />
    <glyph glyph-name="zdotaccent" unicode="&#x17c;" horiz-adv-x="543" 
d="M462 0h-427l-2 5l312 415h-255l35 80h377l2 -5l-310 -415h302zM339 691v-109h-96v109h96z" />
    <glyph glyph-name="Zcaron" unicode="&#x17d;" horiz-adv-x="640" 
d="M569 0h-534l-1 9l390 650h-343l41 87h463l1 -9l-391 -650h414zM383 807h-106l-106 147h80l78 -95l78 95h82z" />
    <glyph glyph-name="zcaron" unicode="&#x17e;" horiz-adv-x="543" 
d="M462 0h-427l-2 5l312 415h-255l35 80h377l2 -5l-310 -415h302zM345 573h-106l-106 147h80l78 -95l78 95h82z" />
    <glyph glyph-name="florin" unicode="&#x192;" horiz-adv-x="498" 
d="M256 -21q-9 -60 -26.5 -99t-44 -61t-62.5 -30.5t-81 -8.5v85q21 0 39.5 3t34 15t27 35t16.5 62q2 18 8 60.5t13.5 98.5t16.5 119.5t18 123.5h-83v82h94l7.5 52.5t6.5 43.5q8 59 27.5 95.5t46.5 56.5t61.5 27t71.5 7v-85q-17 0 -34.5 -3t-32.5 -13t-26.5 -30.5
t-16.5 -55.5q-3 -19 -6 -43t-7 -52h83v-82h-95q-9 -60 -18 -124t-16.5 -119.5t-13.5 -98.5t-8 -61z" />
    <glyph glyph-name="Aringacute" unicode="&#x1fa;" horiz-adv-x="737" 
d="M519 235l-151 389l-153 -389h304zM610 0l-59 151h-369l-59 -151h-105l300 746h102l299 -746h-109zM371 924q49 0 82.5 -34t33.5 -79t-33.5 -78.5t-82.5 -33.5t-82.5 34t-33.5 78q0 45 33.5 79t82.5 34zM371 876q-27 0 -45.5 -18.5t-18.5 -46.5q0 -27 18.5 -45.5
t45.5 -18.5t45.5 18.5t18.5 45.5q0 28 -18.5 46.5t-45.5 18.5zM531 1095l-127 -147h-75l86 147h116z" />
    <glyph glyph-name="aringacute" unicode="&#x1fb;" horiz-adv-x="529" 
d="M255 45q49 0 83 31.5t34 74.5t-33 73t-84 30t-81.5 -30t-30.5 -73t30.5 -74.5t81.5 -31.5zM376 0v48q-25 -28 -64 -47.5t-89 -19.5q-75 0 -126.5 47.5t-51.5 119.5t52.5 121t136.5 49q44 0 78.5 -13t58.5 -32v33q0 72 -33.5 100.5t-90.5 28.5q-25 0 -51.5 -3t-73.5 -13
l-4 79q46 10 76 13t66 3q104 0 154 -50.5t50 -133.5v-330h-88zM270 793q49 0 82.5 -34t33.5 -79t-33.5 -78.5t-82.5 -33.5t-82.5 34t-33.5 78q0 45 33.5 79t82.5 34zM270 745q-27 0 -45.5 -18.5t-18.5 -46.5q0 -27 18.5 -45.5t45.5 -18.5t45.5 18.5t18.5 45.5
q0 28 -18.5 46.5t-45.5 18.5zM429 964l-127 -147h-75l86 147h116z" />
    <glyph glyph-name="AEacute" unicode="&#x1fc;" horiz-adv-x="977" 
d="M501 235l-147 408l-146 -408h293zM586 0l-54 151h-354l-54 -151h-106l287 746h428v-89h-292l85 -220h301v-87h-268l100 -261h300v-89h-373zM542 954l-127 -147h-75l86 147h116z" />
    <glyph glyph-name="aeacute" unicode="&#x1fd;" horiz-adv-x="937" 
d="M627 445q-63 0 -107.5 -38t-58.5 -101h331q-14 61 -59 100t-106 39zM255 39q49 0 83 31t34 78q0 44 -33 75t-84 31t-81.5 -31t-30.5 -75q0 -46 30.5 -77.5t81.5 -31.5zM885 69q-40 -39 -101 -66.5t-140 -27.5q-72 0 -129.5 28t-93.5 75q-17 -40 -63.5 -71.5t-119.5 -31.5
q-86 0 -139.5 47.5t-53.5 122.5q0 74 52.5 123.5t136.5 49.5q40 0 72 -10.5t55 -27.5v26q0 72 -30 100.5t-87 28.5q-25 0 -50 -3t-72 -13l-4 79q46 10 74.5 13t64.5 3q65 0 107.5 -21.5t64.5 -58.5q35 42 86 66.5t112 24.5q56 0 105 -20.5t85 -57t57 -85.5t21 -106v-23h-439
q5 -80 56 -129.5t132 -49.5q58 0 105 21.5t81 54.5zM382 146v2v2v0l-2 -8q0 1 1 2t1 2zM613 720l-127 -147h-75l86 147h116z" />
    <glyph glyph-name="Oslashacute" unicode="&#x1fe;" horiz-adv-x="920" 
d="M150 375q0 -61 24 -117t65 -97l341 489q-28 13 -59.5 20t-64.5 7q-63 0 -119 -24.5t-97.5 -66t-65.5 -96.5t-24 -115zM456 69q63 0 119 24.5t97 66.5t65 97.5t24 117.5q0 69 -31 130t-82 103l-346 -497q34 -19 73 -30.5t81 -11.5zM456 -24q-57 0 -110.5 14.5t-99.5 40.5
l-55 -79h-97l88 126q-62 54 -98.5 131t-36.5 165q0 82 32 154.5t87 126t130 84.5t160 31q49 0 94 -10.5t86 -29.5l44 64h97l-73 -105q73 -54 116.5 -136.5t43.5 -178.5q0 -82 -32 -155t-87 -126.5t-129.5 -85t-159.5 -31.5zM615 954l-127 -147h-75l86 147h116z" />
    <glyph glyph-name="oslashacute" unicode="&#x1ff;" horiz-adv-x="662" 
d="M144 250q0 -40 14 -75t39 -62l205 316q-16 7 -34.5 11t-38.5 4q-40 0 -74 -15.5t-58.5 -42t-38.5 -62t-14 -74.5zM329 56q40 0 74.5 16t59 42t38.5 61.5t14 74.5t-13.5 74t-37.5 61l-205 -315q16 -7 33.5 -10.5t36.5 -3.5zM329 -25q-31 0 -61 6t-56 17l-30 -46h-90l55 85
q-47 38 -74.5 94t-27.5 119q0 56 21.5 106t59.5 87.5t90 59.5t113 22q33 0 63 -6.5t57 -18.5l31 48h90l-57 -87q47 -38 74 -93t27 -118q0 -56 -21.5 -106t-59.5 -87.5t-90.5 -59.5t-113.5 -22zM490 720l-127 -147h-75l86 147h116z" />
    <glyph glyph-name="Scommaaccent" unicode="&#x218;" horiz-adv-x="521" 
d="M424 734l-2 -97q-28 15 -63.5 26t-72.5 11q-66 0 -91.5 -28t-25.5 -55q0 -38 30 -72t97 -85q96 -73 136 -128.5t40 -112.5q0 -48 -18.5 -86.5t-51 -64.5t-77.5 -40t-96 -14q-40 0 -90.5 11t-83.5 27l2 99q37 -23 85.5 -36.5t91.5 -13.5q69 0 102 35.5t33 76.5
q0 40 -31.5 78.5t-105.5 93.5q-89 69 -127.5 118t-38.5 111q0 33 13 64t39.5 55.5t67.5 39t97 14.5q33 0 71.5 -7t69.5 -20zM284 -58l-54 -161h-69l21 161h102z" />
    <glyph glyph-name="scommaaccent" unicode="&#x219;" horiz-adv-x="428" 
d="M218 515q31 0 58.5 -6t49.5 -16v-86q-26 14 -52 22t-49 8q-34 0 -54.5 -14.5t-20.5 -38.5q0 -17 19.5 -35t65.5 -47q87 -55 117.5 -94.5t30.5 -82.5q0 -63 -48 -101t-129 -39q-35 0 -75.5 10.5t-70.5 25.5v86q37 -20 73.5 -31t61.5 -11q45 1 66.5 18.5t21.5 42.5
q0 7 -3 16.5t-14 21.5t-31.5 28t-54.5 37q-75 49 -102 81.5t-27 78.5q0 22 9.5 44.5t29.5 40.5t52 29.5t76 11.5zM259 -58l-54 -161h-69l21 161h102z" />
    <glyph glyph-name="Tcommaaccent" unicode="&#x21a;" horiz-adv-x="431" 
d="M164 0v656h-134v90h371v-90h-135v-656h-102zM266 -58l-54 -161h-69l21 161h102z" />
    <glyph glyph-name="tcommaaccent" unicode="&#x21b;" horiz-adv-x="297" 
d="M261 421h-66v-421h-93v421h-67v79h67v159l93 37v-196h66v-79zM198 -58l-54 -161h-69l21 161h102z" />
    <glyph glyph-name="dotlessj" unicode="&#x237;" horiz-adv-x="225" 
d="M-28 -131h9q40 0 62.5 29.5t22.5 83.5v518h93v-518q0 -100 -43.5 -149t-130.5 -49h-13v85z" />
    <glyph glyph-name="schwa" unicode="&#x259;" horiz-adv-x="626" 
d="M310 -25q-56 0 -105 20.5t-85 57t-57 85.5t-21 106v23h439q-5 80 -56 129.5t-132 49.5q-58 0 -105 -21.5t-81 -54.5l-55 61q40 39 101 66.5t140 27.5q65 0 118 -21.5t90.5 -58.5t58.5 -87.5t21 -107.5t-20 -107t-56 -87.5t-86 -59t-109 -21.5zM310 55q63 0 107.5 38
t58.5 101h-331q14 -61 58.5 -100t106.5 -39z" />
    <glyph glyph-name="circumflex" unicode="&#x2c6;" horiz-adv-x="540" 
d="M347 643l-78 95l-78 -95h-81l106 147h106l106 -147h-81z" />
    <glyph glyph-name="caron" unicode="&#x2c7;" horiz-adv-x="540" 
d="M322 643h-106l-106 147h80l78 -95l78 95h82z" />
    <glyph glyph-name="breve" unicode="&#x2d8;" horiz-adv-x="540" 
d="M423 787q-16 -66 -55 -106t-98 -40t-98 40t-55 106l65 3q16 -43 40 -64t48 -21t48 21t40 64z" />
    <glyph glyph-name="dotaccent" unicode="&#x2d9;" horiz-adv-x="540" 
d="M318 740v-102h-96v102h96z" />
    <glyph glyph-name="ring" unicode="&#x2da;" horiz-adv-x="540" 
d="M270 867q49 0 82.5 -34t33.5 -79t-33.5 -78.5t-82.5 -33.5t-82.5 34t-33.5 78q0 45 33.5 79t82.5 34zM270 819q-27 0 -45.5 -18.5t-18.5 -46.5q0 -27 18.5 -45.5t45.5 -18.5t45.5 18.5t18.5 45.5q0 28 -18.5 46.5t-45.5 18.5z" />
    <glyph glyph-name="ogonek" unicode="&#x2db;" horiz-adv-x="540" 
d="M278 -28q-20 -16 -31 -28t-11 -26q0 -10 8.5 -19.5t23.5 -9.5q11 0 20.5 4.5t15.5 10.5l33 -41q-13 -12 -36.5 -23t-54.5 -11q-47 0 -68.5 23t-21.5 50t16.5 47.5t39.5 38.5l37 29l72 -11z" />
    <glyph glyph-name="tilde" unicode="&#x2dc;" horiz-adv-x="540" 
d="M144 643l-76 1q-4 41 4 69t23 45t35.5 24t42.5 7t47.5 -10.5t50 -23.5t46 -23.5t37.5 -10.5t29.5 13t12.5 55l76 -2q7 -75 -25.5 -108.5t-78.5 -33.5q-24 0 -49.5 10.5t-50 23.5t-46 23.5t-36.5 10.5q-17 0 -30.5 -13.5t-11.5 -56.5z" />
    <glyph glyph-name="hungarumlaut" unicode="&#x2dd;" horiz-adv-x="540" 
d="M405 790h108l-132 -147h-71zM232 790h108l-133 -147h-71z" />
    <glyph glyph-name="acute.cmb" unicode="&#x301;" 
d="M140 790l-127 -147h-75l86 147h116z" />
    <glyph glyph-name="mu" unicode="&#x3bc;" horiz-adv-x="564" 
d="M150 -194l-85 -26v720h94v-307q0 -31 12 -54t30 -38.5t39.5 -23t41.5 -7.5t42 7.5t40 23t30 38.5t12 54v307h93v-500h-84v60q-19 -32 -53.5 -52.5t-79.5 -20.5q-44 0 -78.5 20t-53.5 52v-253z" />
    <glyph glyph-name="Wgrave" unicode="&#x1e80;" horiz-adv-x="1017" 
d="M674 0l-164 584l-167 -584h-105l-220 746h107l170 -597l165 597h103l164 -597l170 597h102l-220 -746h-105zM352 954h118l86 -147h-77z" />
    <glyph glyph-name="wgrave" unicode="&#x1e81;" horiz-adv-x="797" 
d="M520 0l-121 365l-118 -365h-93l-172 500h100l119 -376l118 376h97l116 -376l120 376h95l-171 -500h-90zM240 720h118l86 -147h-77z" />
    <glyph glyph-name="Wacute" unicode="&#x1e82;" horiz-adv-x="1017" 
d="M674 0l-164 584l-167 -584h-105l-220 746h107l170 -597l165 597h103l164 -597l170 597h102l-220 -746h-105zM674 954l-127 -147h-75l86 147h116z" />
    <glyph glyph-name="wacute" unicode="&#x1e83;" horiz-adv-x="797" 
d="M520 0l-121 365l-118 -365h-93l-172 500h100l119 -376l118 376h97l116 -376l120 376h95l-171 -500h-90zM563 720l-127 -147h-75l86 147h116z" />
    <glyph glyph-name="Wdieresis" unicode="&#x1e84;" horiz-adv-x="1017" 
d="M674 0l-164 584l-167 -584h-105l-220 746h107l170 -597l165 597h103l164 -597l170 597h102l-220 -746h-105zM669 895v-88h-98v88h98zM457 895v-88h-98v88h98z" />
    <glyph glyph-name="wdieresis" unicode="&#x1e85;" horiz-adv-x="797" 
d="M520 0l-121 365l-118 -365h-93l-172 500h100l119 -376l118 376h97l116 -376l120 376h95l-171 -500h-90zM547 661v-88h-94v88h94zM353 661v-88h-94v88h94z" />
    <glyph glyph-name="Ygrave" unicode="&#x1ef2;" horiz-adv-x="637" 
d="M369 0h-102v242l-254 504h112l195 -402l198 402h106l-255 -504v-242zM164 954h118l86 -147h-77z" />
    <glyph glyph-name="ygrave" unicode="&#x1ef3;" horiz-adv-x="554" 
d="M267 -213h-95l76 202l-232 511h104l172 -398l150 398h96zM123 720h118l86 -147h-77z" />
    <glyph glyph-name="uni2000" unicode="&#x2000;" horiz-adv-x="500" 
 />
    <glyph glyph-name="uni2001" unicode="&#x2001;" horiz-adv-x="1000" 
 />
    <glyph glyph-name="uni2002" unicode="&#x2002;" horiz-adv-x="500" 
 />
    <glyph glyph-name="uni2003" unicode="&#x2003;" horiz-adv-x="1000" 
 />
    <glyph glyph-name="uni2004" unicode="&#x2004;" horiz-adv-x="333" 
 />
    <glyph glyph-name="uni2005" unicode="&#x2005;" horiz-adv-x="250" 
 />
    <glyph glyph-name="uni2009" unicode="&#x2009;" horiz-adv-x="166" 
 />
    <glyph glyph-name="uni200A" unicode="&#x200a;" horiz-adv-x="100" 
 />
    <glyph glyph-name="uni200B" unicode="&#x200b;" horiz-adv-x="0" 
 />
    <glyph glyph-name="endash" unicode="&#x2013;" horiz-adv-x="564" 
d="M514 314v-75h-464v75h464z" />
    <glyph glyph-name="emdash" unicode="&#x2014;" horiz-adv-x="764" 
d="M714 314v-75h-664v75h664z" />
    <glyph glyph-name="emdash.salt_em" unicode="&#x2015;" horiz-adv-x="1040" 
d="M1020 314v-75h-1000v75h1000z" />
    <glyph glyph-name="quoteleft" unicode="&#x2018;" horiz-adv-x="309" 
d="M237 746l-54 -277h-111l96 277h69z" />
    <glyph glyph-name="quoteright" unicode="&#x2019;" horiz-adv-x="305" 
d="M76 469l56 277h109l-95 -277h-70z" />
    <glyph glyph-name="quotesinglbase" unicode="&#x201a;" horiz-adv-x="307" 
d="M56 -277l56 277h109l-95 -277h-70z" />
    <glyph glyph-name="quotedblleft" unicode="&#x201c;" horiz-adv-x="473" 
d="M237 746l-54 -277h-111l96 277h69zM400 746l-54 -277h-111l96 277h69z" />
    <glyph glyph-name="quotedblright" unicode="&#x201d;" horiz-adv-x="468" 
d="M76 469l56 277h109l-95 -277h-70zM239 469l56 277h109l-95 -277h-70z" />
    <glyph glyph-name="quotedblbase" unicode="&#x201e;" horiz-adv-x="470" 
d="M56 -277l56 277h109l-95 -277h-70zM219 -277l56 277h109l-95 -277h-70z" />
    <glyph glyph-name="dagger" unicode="&#x2020;" horiz-adv-x="514" 
d="M455 486h-150v-596l-95 30v566h-152v78h152v182h95v-182h150v-78z" />
    <glyph glyph-name="daggerdbl" unicode="&#x2021;" horiz-adv-x="518" 
d="M457 235h-151v-345l-95 30v315h-151v78h151v173h-151v78h151v182h95v-182h151v-78h-151v-173h151v-78z" />
    <glyph glyph-name="bullet" unicode="&#x2022;" horiz-adv-x="288" 
d="M81 382h126v-129h-126v129z" />
    <glyph glyph-name="ellipsis" unicode="&#x2026;" horiz-adv-x="741" 
d="M79 124h118v-124h-118v124zM311 124h118v-124h-118v124zM543 124h118v-124h-118v124z" />
    <glyph glyph-name="perthousand" unicode="&#x2030;" horiz-adv-x="1108" 
d="M669 746l-478 -746h-78l476 746h80zM190 746q64 0 106 -47.5t42 -140.5v-26q0 -93 -42.5 -140.5t-105.5 -47.5q-61 0 -103.5 47.5t-42.5 140.5v26q0 93 42.5 140.5t103.5 47.5zM263 532v25q0 66 -20 99.5t-53 33.5q-31 0 -51 -33.5t-20 -99.5v-25q0 -66 20 -99t51 -33
q32 0 52.5 33t20.5 99zM589 402q63 0 105 -47.5t42 -140.5v-26q0 -93 -42 -140.5t-105 -47.5q-62 0 -104 47.5t-42 140.5v26q0 93 42 140.5t104 47.5zM917 402q63 0 105 -47.5t42 -140.5v-26q0 -93 -42 -140.5t-105 -47.5q-62 0 -104 47.5t-42 140.5v26q0 93 42 140.5
t104 47.5zM989 189v24q0 67 -20 100.5t-52 33.5q-31 0 -51.5 -33.5t-20.5 -100.5v-24q0 -68 20.5 -101t51.5 -33q32 0 52 33t20 101zM661 188v25q0 66 -20 99.5t-52 33.5q-31 0 -51 -33.5t-20 -99.5v-25q0 -66 20 -99t51 -33q32 0 52 33t20 99z" />
    <glyph glyph-name="minute" unicode="&#x2032;" horiz-adv-x="257" 
d="M56 425l58 321h87l-59 -321h-86z" />
    <glyph glyph-name="second" unicode="&#x2033;" horiz-adv-x="432" 
d="M56 425l58 321h87l-59 -321h-86zM231 425l58 321h87l-59 -321h-86z" />
    <glyph glyph-name="guilsinglleft" unicode="&#x2039;" horiz-adv-x="370" 
d="M303 0h-82l-161 248v3l161 249h84l-162 -250z" />
    <glyph glyph-name="guilsinglright" unicode="&#x203a;" horiz-adv-x="370" 
d="M150 0h-85l162 252l-160 248h83l161 -248v-4z" />
    <glyph glyph-name="fraction" unicode="&#x2044;" horiz-adv-x="299" 
d="M329 746h85l-443 -746h-85z" />
    <glyph glyph-name="zero.sups" unicode="&#x2070;" horiz-adv-x="471" 
d="M236 761q74 0 123 -58.5t49 -174.5v-32q0 -114 -49 -173t-123 -59t-123.5 59t-49.5 173v32q0 116 49.5 174.5t123.5 58.5zM331 496v32q0 85 -26 126t-69 41q-41 0 -69 -41t-28 -126v-32q0 -85 28 -126t69 -41q42 0 68.5 41t26.5 126z" />
    <glyph glyph-name="four.sups" unicode="&#x2074;" horiz-adv-x="470" 
d="M288 433v194l-137 -194h137zM404 369h-38v-90h-78v90h-237l-6 12l256 365h65v-313h58z" />
    <glyph glyph-name="five.sups" unicode="&#x2075;" horiz-adv-x="437" 
d="M169 264q-26 0 -58.5 7t-58.5 22v68q25 -15 55 -23.5t61 -8.5q51 0 86 29.5t35 76.5q0 37 -32.5 64t-85.5 27q-25 0 -48 -5t-44 -12l59 237h248l-21 -65h-176l-26 -94q8 0 16 0.5t16 0.5q81 0 127 -43t46 -110q0 -74 -54.5 -122.5t-144.5 -48.5z" />
    <glyph glyph-name="six.sups" unicode="&#x2076;" horiz-adv-x="451" 
d="M228 264q-36 0 -68 11t-55.5 32t-37.5 51.5t-14 68.5t15.5 78t40.5 80.5t56.5 81t62.5 79.5h94q-42 -49 -80 -96t-65 -90q16 9 34.5 14t38.5 5q63 0 107.5 -45t44.5 -108q0 -66 -49.5 -114t-124.5 -48zM228 519q-40 0 -69.5 -27.5t-29.5 -67.5q0 -39 29.5 -67.5
t69.5 -28.5t68.5 28.5t28.5 67.5q0 40 -28.5 67.5t-68.5 27.5z" />
    <glyph glyph-name="seven.sups" unicode="&#x2077;" horiz-adv-x="425" 
d="M184 279h-85l174 401h-223l21 66h312z" />
    <glyph glyph-name="eight.sups" unicode="&#x2078;" horiz-adv-x="444" 
d="M222 264q-78 0 -125.5 43.5t-47.5 108.5q0 40 22 72.5t62 50.5q-27 16 -42 41.5t-15 55.5q0 51 40 88t106 37q67 0 107 -37t40 -88q0 -30 -15 -55.5t-42 -41.5q39 -18 61 -50.5t22 -72.5q0 -65 -48 -108.5t-125 -43.5zM222 561q29 0 50.5 20t21.5 51q0 28 -21 46.5
t-51 18.5q-29 0 -50.5 -18.5t-21.5 -46.5q0 -30 21 -50.5t51 -20.5zM222 328q41 0 69 26.5t28 65.5q0 38 -28 63t-69 25q-40 0 -68.5 -25t-28.5 -63q0 -39 28.5 -65.5t68.5 -26.5z" />
    <glyph glyph-name="nine.sups" unicode="&#x2079;" horiz-adv-x="451" 
d="M223 279h-94q43 49 80.5 96t64.5 90q-16 -9 -34.5 -14t-38.5 -5q-63 0 -107.5 44.5t-44.5 108.5q0 33 13 62.5t36.5 51.5t55.5 35t70 13q35 0 67 -11t56 -32t38 -51.5t14 -68.5t-16 -78t-41 -80.5t-56.5 -81.5t-62.5 -79zM224 505q40 0 68.5 28t28.5 67t-28.5 67.5
t-68.5 28.5q-41 0 -69.5 -28.5t-28.5 -67.5t28.5 -67t69.5 -28z" />
    <glyph glyph-name="zero.sinf" unicode="&#x2080;" horiz-adv-x="432" 
d="M216 282q74 0 123 -58.5t49 -174.5v-32q0 -114 -49 -173t-123 -59t-123.5 59t-49.5 173v32q0 116 49.5 174.5t123.5 58.5zM311 17v32q0 85 -26 126t-69 41q-41 0 -69 -41t-28 -126v-32q0 -85 28 -126t69 -41q42 0 68.5 41t26.5 126z" />
    <glyph glyph-name="one.sinf" unicode="&#x2081;" horiz-adv-x="265" 
d="M206 -200h-76v354l-90 -92v100l106 105h60v-467z" />
    <glyph glyph-name="two.sinf" unicode="&#x2082;" horiz-adv-x="393" 
d="M337 -200h-306l-5 9q9 11 37 45.5t60 72.5t60 72.5t36 45.5q22 26 33 45.5t11 47.5q0 30 -24 54t-64 25q-25 0 -51.5 -10t-54.5 -33v78q26 15 55.5 22.5t58.5 7.5q72 -1 116 -41.5t44 -98.5q-1 -47 -20 -74.5t-44 -58.5q-7 -9 -21 -25.5t-32 -36.5t-37 -42t-37 -41h212z
" />
    <glyph glyph-name="three.sinf" unicode="&#x2083;" horiz-adv-x="355" 
d="M142 -215q-21 0 -55.5 5t-56.5 18v65q16 -13 46.5 -18t45.5 -5q54 -1 88.5 24t34.5 65q0 39 -32.5 61.5t-81.5 22.5h-33l2 64h31q38 0 63.5 20.5t25.5 49.5q0 27 -23 43.5t-60 16.5q-16 0 -37 -3t-41 -13l6 69q15 5 36 8.5t49 3.5q62 1 104 -32.5t42 -83.5
q-1 -31 -18 -59t-45 -44q39 -16 64 -49t25 -77q0 -65 -50.5 -109t-129.5 -43z" />
    <glyph glyph-name="four.sinf" unicode="&#x2084;" horiz-adv-x="430" 
d="M268 -46v194l-137 -194h137zM384 -110h-38v-90h-78v90h-237l-6 12l256 365h65v-313h58z" />
    <glyph glyph-name="five.sinf" unicode="&#x2085;" horiz-adv-x="397" 
d="M149 -215q-26 0 -58.5 7t-58.5 22v68q25 -15 55 -23.5t61 -8.5q51 0 86 29.5t35 76.5q0 37 -32.5 64t-85.5 27q-25 0 -48 -5t-44 -12l59 237h248l-21 -65h-176l-26 -94q8 0 16 0.5t16 0.5q81 0 127 -43t46 -110q0 -74 -54.5 -122.5t-144.5 -48.5z" />
    <glyph glyph-name="six.sinf" unicode="&#x2086;" horiz-adv-x="411" 
d="M208 -215q-36 0 -68 11t-55.5 32t-37.5 51.5t-14 68.5t15.5 78t40.5 80.5t56.5 81t62.5 79.5h94q-42 -49 -80 -96t-65 -90q16 9 34.5 14t38.5 5q63 0 107.5 -45t44.5 -108q0 -66 -49.5 -114t-124.5 -48zM208 40q-40 0 -69.5 -27.5t-29.5 -67.5q0 -39 29.5 -67.5
t69.5 -28.5t68.5 28.5t28.5 67.5q0 40 -28.5 67.5t-68.5 27.5z" />
    <glyph glyph-name="seven.sinf" unicode="&#x2087;" horiz-adv-x="385" 
d="M164 -200h-85l174 401h-223l21 66h312z" />
    <glyph glyph-name="eight.sinf" unicode="&#x2088;" horiz-adv-x="404" 
d="M202 -215q-78 0 -125.5 43.5t-47.5 108.5q0 40 22 72.5t62 50.5q-27 16 -42 41.5t-15 55.5q0 51 40 88t106 37q67 0 107 -37t40 -88q0 -30 -15 -55.5t-42 -41.5q39 -18 61 -50.5t22 -72.5q0 -65 -48 -108.5t-125 -43.5zM202 82q29 0 50.5 20t21.5 51q0 28 -21 46.5
t-51 18.5q-29 0 -50.5 -18.5t-21.5 -46.5q0 -30 21 -50.5t51 -20.5zM202 -151q41 0 69 26.5t28 65.5q0 38 -28 63t-69 25q-40 0 -68.5 -25t-28.5 -63q0 -39 28.5 -65.5t68.5 -26.5z" />
    <glyph glyph-name="nine.sinf" unicode="&#x2089;" horiz-adv-x="411" 
d="M203 -200h-94q43 49 80.5 96t64.5 90q-16 -9 -34.5 -14t-38.5 -5q-63 0 -107.5 44.5t-44.5 108.5q0 33 13 62.5t36.5 51.5t55.5 35t70 13q35 0 67 -11t56 -32t38 -51.5t14 -68.5t-16 -78t-41 -80.5t-56.5 -81.5t-62.5 -79zM204 26q40 0 68.5 28t28.5 67t-28.5 67.5
t-68.5 28.5q-41 0 -69.5 -28.5t-28.5 -67.5t28.5 -67t69.5 -28z" />
    <glyph glyph-name="Euro" unicode="&#x20ac;" horiz-adv-x="679" 
d="M625 12q-33 -16 -68.5 -25t-74.5 -9q-64 0 -120 21.5t-100 59t-75 90t-46 114.5h-114l12 58h92q-1 13 -2 26.5t-1 26.5q0 10 0.5 20t1.5 20h-103l12 59h99q14 63 45 117.5t75.5 93.5t101.5 61.5t122 22.5q39 0 74 -9t69 -25v-92q-31 18 -63.5 29.5t-69.5 11.5
q-46 0 -86 -16t-72.5 -44t-56 -67t-36.5 -83h314l-14 -59h-312q-1 -10 -1.5 -19.5t-0.5 -19.5q0 -13 1 -27t3 -27h294l-14 -58h-267q28 -86 94 -143t154 -57q37 0 69.5 11.5t63.5 30.5v-93z" />
    <glyph glyph-name="copyrightsound" unicode="&#x2117;" horiz-adv-x="917" 
d="M459 756q83 0 154.5 -30t123.5 -82t81.5 -122t29.5 -149t-29.5 -149t-81.5 -122t-123.5 -82t-154.5 -30t-155 30t-124 82t-81.5 122t-29.5 149t29.5 149t81.5 122t124 82t155 30zM459 715q-71 0 -133.5 -27t-109 -73t-73.5 -108.5t-27 -133.5t27 -133.5t73.5 -108.5
t109 -73t133.5 -27t133.5 27t108.5 73t73 108.5t27 133.5t-27 133.5t-73 108.5t-108.5 73t-133.5 27zM469 312h-34v-153h-81v434h117q71 0 117 -31t47 -109q0 -36 -14.5 -63t-37.5 -44t-53 -25.5t-61 -8.5zM477 519h-42v-133h42q34 0 56 18.5t22 47.5q0 30 -18 48.5
t-60 18.5z" />
    <glyph glyph-name="trademark" unicode="&#x2122;" horiz-adv-x="670" 
d="M105 442v250h-64v54h185v-54h-62v-250h-59zM430 492l-95 154v-204h-59v304h64l97 -165l94 165h63v-304h-59v203l-92 -153h-13z" />
    <glyph glyph-name="arrowleft" unicode="&#x2190;" horiz-adv-x="790" 
d="M444 117v-5h-133l-287 286v10l287 286h133v-5l-235 -235h556v-102h-556z" />
    <glyph glyph-name="arrowup" unicode="&#x2191;" horiz-adv-x="790" 
d="M681 320l-235 236v-556h-102v556l-235 -236h-5v134l286 286h10l286 -286v-134h-5z" />
    <glyph glyph-name="arrowright" unicode="&#x2192;" horiz-adv-x="790" 
d="M479 107h-133v5l235 235h-556v102h556l-235 235v5h133l287 -286v-10z" />
    <glyph glyph-name="arrowdown" unicode="&#x2193;" horiz-adv-x="790" 
d="M400 6h-10l-286 286v134h5l235 -236v556h102v-556l235 236h5v-134z" />
    <glyph glyph-name="uni2196" unicode="&#x2196;" horiz-adv-x="790" 
d="M684 143l-72 -72l-392 391v-332l-4 -3l-94 95v404l6 6h404l95 -94l-3 -3h-333z" />
    <glyph glyph-name="uni2197" unicode="&#x2197;" horiz-adv-x="790" 
d="M571 133v333l-392 -393l-72 72l391 392h-332l-3 4l95 94h404l6 -6v-404l-93 -94z" />
    <glyph glyph-name="uni2198" unicode="&#x2198;" horiz-adv-x="790" 
d="M258 88l-95 95l3 3h333l-393 393l72 72l392 -392v331l4 4l94 -95v-404l-7 -6z" />
    <glyph glyph-name="uni2199" unicode="&#x2199;" horiz-adv-x="790" 
d="M532 85l-404 1l-6 6v405l93 94l4 -4v-331l392 392l72 -72l-393 -393h334l3 -3z" />
    <glyph glyph-name="minus" unicode="&#x2212;" horiz-adv-x="619" 
d="M564 389v-79h-509v79h509z" />
    <glyph glyph-name="radical" unicode="&#x221a;" horiz-adv-x="700" 
d="M385 0h-96l-135 376h-89v79h146l127 -358l250 649h86z" />
    <glyph glyph-name="infinity" unicode="&#x221e;" horiz-adv-x="711" 
d="M515 169q-60 0 -96 35t-63 77q-28 -47 -66 -79.5t-97 -32.5q-35 0 -65 14t-51.5 37.5t-33.5 55t-12 65.5t12 65.5t34 55t52.5 37.5t66.5 14q58 0 94.5 -32t64.5 -76q33 56 72.5 82t89.5 26q35 0 65.5 -14t52 -37.5t33.5 -55t12 -65.5t-12.5 -65.5t-34 -55t-52 -37.5
t-66.5 -14zM200 239q24 0 42.5 9.5t32 24t24 32t19.5 34.5q-31 46 -53.5 75t-66.5 29q-41 0 -67.5 -31t-26.5 -71t27 -71t69 -31zM513 239q41 0 67 31t26 71t-26.5 71t-68.5 31q-44 0 -69.5 -26.5t-48.5 -71.5q27 -43 50.5 -74.5t69.5 -31.5z" />
    <glyph glyph-name="approxequal" unicode="&#x2248;" horiz-adv-x="592" 
d="M132 386l-73 10q0 37 10.5 61.5t27.5 39t38 21t42 6.5q28 0 59 -12t61.5 -26.5t58.5 -26.5t49 -12q19 0 37 9.5t18 44.5l73 -11q0 -37 -10.5 -61.5t-27.5 -39t-38.5 -20.5t-42.5 -6q-28 0 -59 12t-61.5 26.5t-58.5 26.5t-49 12q-19 0 -36.5 -10t-17.5 -44zM132 182
l-73 11q0 36 10.5 60.5t27.5 39.5t38 21t42 6q28 0 59 -12t61.5 -26.5t58.5 -26.5t49 -12q19 0 37 10t18 44l73 -11q0 -37 -10.5 -61.5t-27.5 -39t-38.5 -20.5t-42.5 -6q-28 0 -59 12t-61.5 26t-58.5 26t-49 12q-19 0 -36.5 -9.5t-17.5 -43.5z" />
    <glyph glyph-name="notequal" unicode="&#x2260;" horiz-adv-x="578" 
d="M209 27l-86 -1l71 171h-135v75h166l57 135h-223v75h254l71 171h86l-71 -171h120v-75h-152l-56 -135h208v-75h-239z" />
    <glyph glyph-name="lessequal" unicode="&#x2264;" horiz-adv-x="600" 
d="M552 144l-504 191v74l504 194v-86l-397 -144l397 -140v-89zM48 101h504v-71h-504v71z" />
    <glyph glyph-name="greaterequal" unicode="&#x2265;" horiz-adv-x="600" 
d="M48 144v89l397 140l-397 144v86l504 -194v-74zM552 101v-71h-504v71h504z" />
    <glyph glyph-name="lozenge" unicode="&#x25ca;" horiz-adv-x="626" 
d="M566 373l-215 -373h-75l-216 373l215 373h77zM314 78l169 293l-170 298l-169 -295z" />
    <glyph glyph-name="commaaccent" unicode="&#xf6c3;" horiz-adv-x="540" 
d="M320 -30l-54 -161h-69l21 161h102z" />
    <glyph glyph-name="apple" unicode="&#xf8ff;" horiz-adv-x="636" 
d="M30 -101v761h576v-761h-576zM121 560v-560h173q49 0 94.5 19.5t80 55.5t55 88.5t20.5 117.5q0 64 -21 116t-55.5 88t-79.5 55.5t-94 19.5h-173zM279 17h-150v525h150q43 0 83.5 -17t72 -49.5t50.5 -81.5t19 -113q0 -65 -19 -114.5t-50.5 -82.5t-72 -50t-83.5 -17z
M279 535h-143v-510h143q41 0 80.5 16.5t69.5 49t48.5 80.5t18.5 110t-18.5 109.5t-48.5 79.5t-69.5 48.5t-80.5 16.5zM176 48v464h115q38 0 74 -15.5t63.5 -44.5t44 -72t16.5 -99q0 -57 -16.5 -100.5t-44 -73t-63.5 -44.5t-74 -15h-115z" />
    <glyph glyph-name="uniFEFF" unicode="&#xfeff;" horiz-adv-x="0" 
 />
    <glyph glyph-name="Jacute" horiz-adv-x="356" 
d="M25 0v94q16 -7 32.5 -10.5t34.5 -3.5t34.5 5t29 21.5t19.5 46.5t7 80v513h102v-537q0 -120 -41.5 -171.5t-140.5 -51.5q-22 0 -41 3.5t-36 10.5zM393 954l-127 -147h-75l86 147h116z" />
    <glyph glyph-name="jacute" horiz-adv-x="225" 
d="M-28 -131h9q40 0 62.5 29.5t22.5 83.5v518h93v-518q0 -100 -43.5 -149t-130.5 -49h-13v85zM273 720l-127 -147h-75l86 147h116z" />
    <glyph glyph-name="I_Jacute" horiz-adv-x="604" 
d="M73 0v746h102v-746h-102zM284 954l-127 -147h-75l86 147h116zM273 0v94q16 -7 32.5 -10.5t34.5 -3.5t34.5 5t29 21.5t19.5 46.5t7 80v513h102v-537q0 -120 -41.5 -171.5t-140.5 -51.5q-22 0 -41 3.5t-36 10.5zM641 954l-127 -147h-75l86 147h116z" />
    <glyph glyph-name="c_h" horiz-adv-x="1015" 
d="M454 95v-86q-24 -13 -60 -19t-62 -6q-61 0 -113.5 21t-91 57t-60.5 84.5t-22 103.5t22 103.5t60.5 84.5t91 57t113.5 21q25 0 60.5 -6.5t61.5 -20.5v-87h-3q-31 20 -62.5 26.5t-55.5 6.5q-40 0 -75 -14.5t-60 -39.5t-39.5 -59t-14.5 -72t14.5 -72t39.5 -59t60 -39.5
t75 -14.5q25 0 54.5 5.5t63.5 24.5h3zM612 307v-307h-94v780h92v-340q24 28 66 50.5t96 22.5q81 0 130.5 -50t49.5 -137v-326h-93v298q0 74 -37 103t-85 29q-20 0 -42 -8t-40.5 -23.5t-30.5 -38.5t-12 -53z" />
    <glyph glyph-name="c_k" horiz-adv-x="985" 
d="M454 95v-86q-24 -13 -60 -19t-62 -6q-61 0 -113.5 21t-91 57t-60.5 84.5t-22 103.5t22 103.5t60.5 84.5t91 57t113.5 21q25 0 60.5 -6.5t61.5 -20.5v-87h-3q-31 20 -62.5 26.5t-55.5 6.5q-40 0 -75 -14.5t-60 -39.5t-39.5 -59t-14.5 -72t14.5 -72t39.5 -59t60 -39.5
t75 -14.5q25 0 54.5 5.5t63.5 24.5h3zM845 0l-178 239l-55 -52v-187h-94v780h94v-477l213 197h121l-211 -200l226 -300h-116z" />
    <glyph glyph-name="i_jacute" horiz-adv-x="454" 
d="M162 500v-500h-94v500h94zM275 720l-127 -147h-75l86 147h116zM201 -131h9q40 0 62.5 29.5t22.5 83.5v518h93v-518q0 -100 -43.5 -149t-130.5 -49h-13v85zM502 720l-127 -147h-75l86 147h116z" />
    <glyph glyph-name="caron.vertical" orientation="v" 
d="M47 -30l-44 -162h-57l16 162h85z" />
    <glyph glyph-name="endash.salt_en" horiz-adv-x="540" 
d="M520 314v-75h-500v75h500z" />
    <glyph glyph-name="emdash.uc_salt_em" horiz-adv-x="1040" 
d="M1020 392v-75h-1000v75h1000z" />
    <glyph glyph-name="endash.uc_salt_en" horiz-adv-x="540" 
d="M520 392v-75h-500v75h500z" />
    <glyph glyph-name="registered.salt_big" horiz-adv-x="917" 
d="M459 756q83 0 154.5 -30t123.5 -82t81.5 -122t29.5 -149t-29.5 -149t-81.5 -122t-123.5 -82t-154.5 -30t-155 30t-124 82t-81.5 122t-29.5 149t29.5 149t81.5 122t124 82t155 30zM459 715q-71 0 -133.5 -27t-109 -73t-73.5 -108.5t-27 -133.5t27 -133.5t73.5 -108.5
t109 -73t133.5 -27t133.5 27t108.5 73t73 108.5t27 133.5t-27 133.5t-73 108.5t-108.5 73t-133.5 27zM453 520h-33v-134h33q36 0 56.5 18.5t20.5 49.5q0 28 -19.5 47t-57.5 19zM552 160l-126 155h-5v-155h-81v433h112q66 0 112 -33t46 -105q0 -48 -27 -80.5t-67 -47.5
l129 -159l-7 -8h-86z" />
    <glyph glyph-name="acute.lc" 
d="M140 790l-127 -147h-75l86 147h116z" />
    <glyph glyph-name="grave.lc" 
d="M-99 790h118l86 -147h-77z" />
    <glyph glyph-name="hungarumlaut.lc" 
d="M152 790h108l-132 -147h-71zM-15 790h108l-133 -147h-71z" />
    <glyph glyph-name="circumflex.lc" 
d="M97 643l-78 95l-78 -95h-81l106 147h106l106 -147h-81z" />
    <glyph glyph-name="caron.lc" 
d="M72 643h-106l-106 147h80l78 -95l78 95h82z" />
    <glyph glyph-name="breve.lc" 
d="M173 787q-16 -66 -55 -106t-98 -40t-98 40t-55 106l65 3q16 -43 40 -64t48 -21t48 21t40 64z" />
    <glyph glyph-name="tilde.lc" 
d="M-92 643l-74 2q-7 78 25 107.5t72 29.5q21 0 43.5 -9.5t44.5 -21.5t41.5 -21.5t33.5 -9.5q16 0 28 12t11 49l73 -1q6 -70 -23 -102t-73 -32q-21 0 -44.5 9.5t-45 21t-41 21t-33.5 9.5q-16 0 -28 -12t-10 -52z" />
    <glyph glyph-name="macron.lc" 
d="M152 739v-74h-264v74h264z" />
    <glyph glyph-name="dieresis.lc" 
d="M164 763v-88h-94v88h94zM-30 763v-88h-94v88h94z" />
    <glyph glyph-name="dotaccent.lc" 
d="M68 747v-109h-96v109h96z" />
    <glyph glyph-name="ring.lc" 
d="M20 867q49 0 82.5 -34t33.5 -79t-33.5 -78.5t-82.5 -33.5t-82.5 34t-33.5 78q0 45 33.5 79t82.5 34zM20 819q-27 0 -45.5 -18.5t-18.5 -46.5q0 -27 18.5 -45.5t45.5 -18.5t45.5 18.5t18.5 45.5q0 28 -18.5 46.5t-45.5 18.5z" />
    <glyph glyph-name="cedilla.lc" 
d="M-7 -187q-12 0 -32 3.5t-36 9.5v50h1q17 -5 34 -8.5t27 -3.5q24 0 37.5 10t13.5 24q0 13 -16.5 22t-44.5 9h-19l-2 6l28 76l53 -1l-17 -38q40 -6 61.5 -26t21.5 -50q0 -35 -30 -59t-80 -24z" />
    <glyph glyph-name="ogonek.lc" 
d="M25 -28q-19 -15 -29.5 -26.5t-10.5 -24.5q0 -10 8.5 -18.5t22.5 -8.5q11 0 19.5 4t15.5 10l31 -39q-12 -12 -35.5 -22t-53.5 -10q-44 0 -65 22t-21 47t16 45t38 38l35 28l72 -11z" />
    <glyph glyph-name="commaaccent.lc" 
d="M70 -30l-54 -161h-69l21 161h102z" />
    <glyph glyph-name="grave.cmb" 
d="M-99 790h118l86 -147h-77z" />
    <glyph glyph-name="hungarumlaut.cmb" 
d="M155 790h108l-132 -147h-71zM-18 790h108l-133 -147h-71z" />
    <glyph glyph-name="circumflex.cmb" 
d="M97 643l-78 95l-78 -95h-81l106 147h106l106 -147h-81z" />
    <glyph glyph-name="caron.cmb" 
d="M72 643h-106l-106 147h80l78 -95l78 95h82z" />
    <glyph glyph-name="breve.cmb" 
d="M173 787q-16 -66 -55 -106t-98 -40t-98 40t-55 106l65 3q16 -43 40 -64t48 -21t48 21t40 64z" />
    <glyph glyph-name="tilde.cmb" 
d="M-106 643l-76 1q-4 41 4 69t23 45t35.5 24t42.5 7t47.5 -10.5t50 -23.5t46 -23.5t37.5 -10.5t29.5 13t12.5 55l76 -2q7 -75 -25.5 -108.5t-78.5 -33.5q-24 0 -49.5 10.5t-50 23.5t-46 23.5t-36.5 10.5q-17 0 -30.5 -13.5t-11.5 -56.5z" />
    <glyph glyph-name="macron.cmb" 
d="M155 739v-74h-270v74h270z" />
    <glyph glyph-name="dieresis.cmb" 
d="M175 763v-88h-98v88h98zM-37 763v-88h-98v88h98z" />
    <glyph glyph-name="dotaccent.cmb" 
d="M68 740v-102h-96v102h96z" />
    <glyph glyph-name="ring.cmb" 
d="M20 867q49 0 82.5 -34t33.5 -79t-33.5 -78.5t-82.5 -33.5t-82.5 34t-33.5 78q0 45 33.5 79t82.5 34zM20 819q-27 0 -45.5 -18.5t-18.5 -46.5q0 -27 18.5 -45.5t45.5 -18.5t45.5 18.5t18.5 45.5q0 28 -18.5 46.5t-45.5 18.5z" />
    <glyph glyph-name="cedilla.cmb" 
d="M-8 -196q-11 0 -31.5 3t-38.5 9v51h1q18 -6 36.5 -9t27.5 -3q26 0 41 10t15 26q0 14 -18 23t-48 9h-20l-3 7l30 80h55l-19 -43q42 -5 65 -26.5t23 -52.5q0 -35 -32 -59.5t-84 -24.5z" />
    <glyph glyph-name="ogonek.cmb" 
d="M28 -28q-20 -16 -31 -28t-11 -26q0 -10 8.5 -19.5t23.5 -9.5q11 0 20.5 4.5t15.5 10.5l33 -41q-13 -12 -36.5 -23t-54.5 -11q-47 0 -68.5 23t-21.5 50t16.5 47.5t39.5 38.5l37 29l72 -11z" />
    <glyph glyph-name="commaaccent.cmb" 
d="M70 -30l-54 -161h-69l21 161h102z" />
    <glyph glyph-name="hyphen.uc" horiz-adv-x="444" 
d="M384 401v-93h-324v93h324z" />
    <glyph glyph-name="endash.uc" horiz-adv-x="564" 
d="M514 392v-75h-464v75h464z" />
    <glyph glyph-name="emdash.uc" horiz-adv-x="764" 
d="M714 392v-75h-664v75h664z" />
    <glyph glyph-name="parenleft.uc" horiz-adv-x="440" 
d="M310 840l55 -61q-26 -26 -55 -67t-52.5 -93.5t-39 -116.5t-15.5 -135v-13q0 -71 15 -135.5t38.5 -117.5t52.5 -93.5t56 -64.5l-54 -61q-33 27 -69 71t-65.5 103.5t-49 134t-19.5 161.5v16q0 87 19.5 161.5t48.5 133.5t65 103.5t69 73.5z" />
    <glyph glyph-name="parenright.uc" horiz-adv-x="449" 
d="M138 840q33 -29 69 -73.5t65 -103.5t48.5 -133.5t19.5 -161.5v-16q0 -87 -19.5 -161.5t-49 -134t-65.5 -103.5t-69 -71l-53 61q27 24 56 64.5t52 93.5t38 117.5t15 135.5v13q0 71 -15 135t-38.5 116.5t-52.5 93.5t-55 67z" />
    <glyph glyph-name="bracketleft.uc" horiz-adv-x="427" 
d="M137 -122v960h222v-64h-127v-832h135v-64h-230z" />
    <glyph glyph-name="bracketright.uc" horiz-adv-x="427" 
d="M290 -122h-230v64h135v832h-127v64h222v-960z" />
    <glyph glyph-name="braceleft.uc" horiz-adv-x="443" 
d="M357 -122h-75q-57 0 -87.5 28.5t-30.5 109.5v208q0 46 -15.5 67t-40.5 28q-1 1 -3.5 1.5t-3.5 0.5v72q1 0 3.5 0.5t3.5 1.5q25 7 40.5 27.5t15.5 66.5v211q0 81 30.5 109.5t87.5 28.5h75v-64h-37q-31 0 -46 -17.5t-15 -74.5v-192q0 -47 -17 -78.5t-56 -47.5v-14
q39 -15 56 -45.5t17 -78.5v-197q0 -57 15 -72t46 -15h37v-64z" />
    <glyph glyph-name="braceright.uc" horiz-adv-x="444" 
d="M162 -122h-76v59h38q30 0 45 15.5t15 73.5v200q0 48 17.5 78.5t55.5 45.5v14q-38 16 -55.5 47.5t-17.5 78.5v197q0 57 -15 74.5t-45 17.5h-38v59h76q56 0 87 -28.5t31 -109.5v-211q0 -46 15.5 -66.5t40.5 -27.5q1 -1 3 -1.5t3 -0.5v-72q-1 0 -3.5 -0.5t-2.5 -1.5
q-25 -7 -40.5 -28t-15.5 -67v-208q0 -81 -31 -109.5t-87 -28.5z" />
    <glyph glyph-name="guilsinglleft.uc" horiz-adv-x="407" 
d="M335 46h-84l-185 285v4l185 285h85l-186 -287z" />
    <glyph glyph-name="guilsinglright.uc" horiz-adv-x="407" 
d="M156 46h-85l186 288l-184 286h83l185 -285v-4z" />
    <glyph glyph-name="guillemotleft.uc" horiz-adv-x="591" 
d="M519 46h-83l-185 285v4l185 285h85l-186 -287zM335 46h-84l-185 285v4l185 285h85l-186 -287z" />
    <glyph glyph-name="guillemotright.uc" horiz-adv-x="591" 
d="M341 46h-85l185 288l-184 286h84l185 -285v-4zM156 46h-85l186 288l-184 286h83l185 -285v-4z" />
    <glyph glyph-name="colon.uc" horiz-adv-x="277" 
d="M82 621h114v-133h-114v133zM82 234h114v-134h-114v134z" />
    <glyph glyph-name="semicolon.uc" horiz-adv-x="294" 
d="M95 621h113v-133h-113v133zM97 211h113l-78 -258h-74z" />
    <glyph glyph-name="plus.uc" horiz-adv-x="654" 
d="M595 335h-223v-243h-90v243h-223v79h223v224h90v-224h223v-79z" />
    <glyph glyph-name="minus.uc" horiz-adv-x="619" 
d="M564 413v-79h-509v79h509z" />
    <glyph glyph-name="divide.uc" horiz-adv-x="636" 
d="M271 515v111h96v-111h-96zM579 413v-79h-521v79h521zM271 121v111h96v-111h-96z" />
    <glyph glyph-name="multiply.uc" horiz-adv-x="571" 
d="M465 124l-185 185l-176 -176l-54 55l176 176l-171 171l56 55l171 -171l161 161l54 -54l-161 -161l185 -185z" />
    <glyph glyph-name="equal.uc" horiz-adv-x="580" 
d="M522 506v-75h-463v75h463zM522 296v-75h-463v75h463z" />
    <glyph glyph-name="zero.dnom" horiz-adv-x="432" 
d="M216 482q74 0 123 -58.5t49 -174.5v-32q0 -114 -49 -173t-123 -59t-123.5 59t-49.5 173v32q0 116 49.5 174.5t123.5 58.5zM311 217v32q0 85 -26 126t-69 41q-41 0 -69 -41t-28 -126v-32q0 -85 28 -126t69 -41q42 0 68.5 41t26.5 126z" />
    <glyph glyph-name="one.dnom" horiz-adv-x="265" 
d="M206 0h-76v354l-90 -92v100l106 105h60v-467z" />
    <glyph glyph-name="two.dnom" horiz-adv-x="393" 
d="M337 0h-306l-5 9q9 11 37 45.5t60 72.5t60 72.5t36 45.5q22 26 33 45.5t11 47.5q0 30 -24 54t-64 25q-25 0 -51.5 -10t-54.5 -33v78q26 15 55.5 22.5t58.5 7.5q72 -1 116 -41.5t44 -98.5q-1 -47 -20 -74.5t-44 -58.5q-7 -9 -21 -25.5t-32 -36.5t-37 -42t-37 -41h212z" />
    <glyph glyph-name="three.dnom" horiz-adv-x="355" 
d="M142 -15q-21 0 -55.5 5t-56.5 18v65q16 -13 46.5 -18t45.5 -5q54 -1 88.5 24t34.5 65q0 39 -32.5 61.5t-81.5 22.5h-33l2 64h31q38 0 63.5 20.5t25.5 49.5q0 27 -23 43.5t-60 16.5q-16 0 -37 -3t-41 -13l6 69q15 5 36 8.5t49 3.5q62 1 104 -32.5t42 -83.5q-1 -31 -18 -59
t-45 -44q39 -16 64 -49t25 -77q0 -65 -50.5 -109t-129.5 -43z" />
    <glyph glyph-name="four.dnom" horiz-adv-x="430" 
d="M268 154v194l-137 -194h137zM384 90h-38v-90h-78v90h-237l-6 12l256 365h65v-313h58z" />
    <glyph glyph-name="five.dnom" horiz-adv-x="397" 
d="M149 -15q-26 0 -58.5 7t-58.5 22v68q25 -15 55 -23.5t61 -8.5q51 0 86 29.5t35 76.5q0 37 -32.5 64t-85.5 27q-25 0 -48 -5t-44 -12l59 237h248l-21 -65h-176l-26 -94q8 0 16 0.5t16 0.5q81 0 127 -43t46 -110q0 -74 -54.5 -122.5t-144.5 -48.5z" />
    <glyph glyph-name="six.dnom" horiz-adv-x="411" 
d="M208 -15q-36 0 -68 11t-55.5 32t-37.5 51.5t-14 68.5t15.5 78t40.5 80.5t56.5 81t62.5 79.5h94q-42 -49 -80 -96t-65 -90q16 9 34.5 14t38.5 5q63 0 107.5 -45t44.5 -108q0 -66 -49.5 -114t-124.5 -48zM208 240q-40 0 -69.5 -27.5t-29.5 -67.5q0 -39 29.5 -67.5
t69.5 -28.5t68.5 28.5t28.5 67.5q0 40 -28.5 67.5t-68.5 27.5z" />
    <glyph glyph-name="seven.dnom" horiz-adv-x="385" 
d="M164 0h-85l174 401h-223l21 66h312z" />
    <glyph glyph-name="eight.dnom" horiz-adv-x="404" 
d="M202 -15q-78 0 -125.5 43.5t-47.5 108.5q0 40 22 72.5t62 50.5q-27 16 -42 41.5t-15 55.5q0 51 40 88t106 37q67 0 107 -37t40 -88q0 -30 -15 -55.5t-42 -41.5q39 -18 61 -50.5t22 -72.5q0 -65 -48 -108.5t-125 -43.5zM202 282q29 0 50.5 20t21.5 51q0 28 -21 46.5
t-51 18.5q-29 0 -50.5 -18.5t-21.5 -46.5q0 -30 21 -50.5t51 -20.5zM202 49q41 0 69 26.5t28 65.5q0 38 -28 63t-69 25q-40 0 -68.5 -25t-28.5 -63q0 -39 28.5 -65.5t68.5 -26.5z" />
    <glyph glyph-name="nine.dnom" horiz-adv-x="411" 
d="M203 0h-94q43 49 80.5 96t64.5 90q-16 -9 -34.5 -14t-38.5 -5q-63 0 -107.5 44.5t-44.5 108.5q0 33 13 62.5t36.5 51.5t55.5 35t70 13q35 0 67 -11t56 -32t38 -51.5t14 -68.5t-16 -78t-41 -80.5t-56.5 -81.5t-62.5 -79zM204 226q40 0 68.5 28t28.5 67t-28.5 67.5
t-68.5 28.5q-41 0 -69.5 -28.5t-28.5 -67.5t28.5 -67t69.5 -28z" />
    <glyph glyph-name="zero.numr" horiz-adv-x="432" 
d="M216 761q74 0 123 -58.5t49 -174.5v-32q0 -114 -49 -173t-123 -59t-123.5 59t-49.5 173v32q0 116 49.5 174.5t123.5 58.5zM311 496v32q0 85 -26 126t-69 41q-41 0 -69 -41t-28 -126v-32q0 -85 28 -126t69 -41q42 0 68.5 41t26.5 126z" />
    <glyph glyph-name="one.numr" horiz-adv-x="265" 
d="M206 279h-76v354l-90 -92v100l106 105h60v-467z" />
    <glyph glyph-name="two.numr" horiz-adv-x="393" 
d="M337 279h-306l-5 9q9 11 37 45.5t60 72.5t60 72.5t36 45.5q22 26 33 45.5t11 47.5q0 30 -24 54t-64 25q-25 0 -51.5 -10t-54.5 -33v78q26 15 55.5 22.5t58.5 7.5q72 -1 116 -41.5t44 -98.5q-1 -47 -20 -74.5t-44 -58.5q-7 -9 -21 -25.5t-32 -36.5t-37 -42t-37 -41h212z
" />
    <glyph glyph-name="three.numr" horiz-adv-x="355" 
d="M142 264q-21 0 -55.5 5t-56.5 18v65q16 -13 46.5 -18t45.5 -5q54 -1 88.5 24t34.5 65q0 39 -32.5 61.5t-81.5 22.5h-33l2 64h31q38 0 63.5 20.5t25.5 49.5q0 27 -23 43.5t-60 16.5q-16 0 -37 -3t-41 -13l6 69q15 5 36 8.5t49 3.5q62 1 104 -32.5t42 -83.5q-1 -31 -18 -59
t-45 -44q39 -16 64 -49t25 -77q0 -65 -50.5 -109t-129.5 -43z" />
    <glyph glyph-name="four.numr" horiz-adv-x="430" 
d="M268 433v194l-137 -194h137zM384 369h-38v-90h-78v90h-237l-6 12l256 365h65v-313h58z" />
    <glyph glyph-name="five.numr" horiz-adv-x="397" 
d="M149 264q-26 0 -58.5 7t-58.5 22v68q25 -15 55 -23.5t61 -8.5q51 0 86 29.5t35 76.5q0 37 -32.5 64t-85.5 27q-25 0 -48 -5t-44 -12l59 237h248l-21 -65h-176l-26 -94q8 0 16 0.5t16 0.5q81 0 127 -43t46 -110q0 -74 -54.5 -122.5t-144.5 -48.5z" />
    <glyph glyph-name="six.numr" horiz-adv-x="411" 
d="M208 264q-36 0 -68 11t-55.5 32t-37.5 51.5t-14 68.5t15.5 78t40.5 80.5t56.5 81t62.5 79.5h94q-42 -49 -80 -96t-65 -90q16 9 34.5 14t38.5 5q63 0 107.5 -45t44.5 -108q0 -66 -49.5 -114t-124.5 -48zM208 519q-40 0 -69.5 -27.5t-29.5 -67.5q0 -39 29.5 -67.5
t69.5 -28.5t68.5 28.5t28.5 67.5q0 40 -28.5 67.5t-68.5 27.5z" />
    <glyph glyph-name="seven.numr" horiz-adv-x="385" 
d="M164 279h-85l174 401h-223l21 66h312z" />
    <glyph glyph-name="eight.numr" horiz-adv-x="404" 
d="M202 264q-78 0 -125.5 43.5t-47.5 108.5q0 40 22 72.5t62 50.5q-27 16 -42 41.5t-15 55.5q0 51 40 88t106 37q67 0 107 -37t40 -88q0 -30 -15 -55.5t-42 -41.5q39 -18 61 -50.5t22 -72.5q0 -65 -48 -108.5t-125 -43.5zM202 561q29 0 50.5 20t21.5 51q0 28 -21 46.5
t-51 18.5q-29 0 -50.5 -18.5t-21.5 -46.5q0 -30 21 -50.5t51 -20.5zM202 328q41 0 69 26.5t28 65.5q0 38 -28 63t-69 25q-40 0 -68.5 -25t-28.5 -63q0 -39 28.5 -65.5t68.5 -26.5z" />
    <glyph glyph-name="nine.numr" horiz-adv-x="411" 
d="M203 279h-94q43 49 80.5 96t64.5 90q-16 -9 -34.5 -14t-38.5 -5q-63 0 -107.5 44.5t-44.5 108.5q0 33 13 62.5t36.5 51.5t55.5 35t70 13q35 0 67 -11t56 -32t38 -51.5t14 -68.5t-16 -78t-41 -80.5t-56.5 -81.5t-62.5 -79zM204 505q40 0 68.5 28t28.5 67t-28.5 67.5
t-68.5 28.5q-41 0 -69.5 -28.5t-28.5 -67.5t28.5 -67t69.5 -28z" />
    <glyph glyph-name="zero.salt_slash" horiz-adv-x="643" 
d="M322 770q56 0 104 -23.5t82.5 -70t54 -116.5t19.5 -162v-52q0 -91 -19.5 -160.5t-54 -116t-82.5 -70t-104 -23.5q-55 0 -103 23.5t-82.5 70t-54.5 116t-20 160.5v52q0 92 20 162t54.5 116.5t82.5 70t103 23.5zM322 687q-25 0 -48.5 -9t-42.5 -28l208 -524q22 36 34.5 91
t12.5 129v52q0 147 -45.5 218t-118.5 71zM322 58q16 0 31 3.5t28 10.5l-199 499q-12 -34 -18.5 -77t-6.5 -96v-52q0 -146 47 -217t118 -71z" />
    <glyph glyph-name="C.salt_low" horiz-adv-x="741" 
d="M684 702l-46 -79q-40 25 -86 39.5t-96 14.5q-68 0 -124.5 -25t-96.5 -66.5t-62.5 -96.5t-22.5 -114q0 -61 22.5 -116.5t62.5 -97.5t96.5 -67t124.5 -25q46 0 91 13.5t91 40.5l46 -79q-58 -37 -114 -52.5t-117 -15.5q-90 0 -165 31.5t-128 85t-83 126.5t-30 155t30 154.5
t83.5 126t128.5 84.5t164 31q61 0 116 -15.5t115 -52.5z" />
    <glyph glyph-name="Ccedilla.salt_low" horiz-adv-x="741" 
d="M684 702l-46 -79q-40 25 -86 39.5t-96 14.5q-68 0 -124.5 -25t-96.5 -66.5t-62.5 -96.5t-22.5 -114q0 -61 22.5 -116.5t62.5 -97.5t96.5 -67t124.5 -25q46 0 91 13.5t91 40.5l46 -79q-58 -37 -114 -52.5t-117 -15.5q-90 0 -165 31.5t-128 85t-83 126.5t-30 155t30 154.5
t83.5 126t128.5 84.5t164 31q61 0 116 -15.5t115 -52.5zM420 -220q-11 0 -31.5 3t-38.5 9v51h1q18 -6 36.5 -9t27.5 -3q26 0 41 10t15 26q0 14 -18 23t-48 9h-20l-3 7l30 80h55l-19 -43q42 -5 65 -26.5t23 -52.5q0 -35 -32 -59.5t-84 -24.5z" />
    <glyph glyph-name="Cacute.salt_low" horiz-adv-x="741" 
d="M684 702l-46 -79q-40 25 -86 39.5t-96 14.5q-68 0 -124.5 -25t-96.5 -66.5t-62.5 -96.5t-22.5 -114q0 -61 22.5 -116.5t62.5 -97.5t96.5 -67t124.5 -25q46 0 91 13.5t91 40.5l46 -79q-58 -37 -114 -52.5t-117 -15.5q-90 0 -165 31.5t-128 85t-83 126.5t-30 155t30 154.5
t83.5 126t128.5 84.5t164 31q61 0 116 -15.5t115 -52.5zM597 954l-127 -147h-75l86 147h116z" />
    <glyph glyph-name="Ccircumflex.salt_low" horiz-adv-x="741" 
d="M684 702l-46 -79q-40 25 -86 39.5t-96 14.5q-68 0 -124.5 -25t-96.5 -66.5t-62.5 -96.5t-22.5 -114q0 -61 22.5 -116.5t62.5 -97.5t96.5 -67t124.5 -25q46 0 91 13.5t91 40.5l46 -79q-58 -37 -114 -52.5t-117 -15.5q-90 0 -165 31.5t-128 85t-83 126.5t-30 155t30 154.5
t83.5 126t128.5 84.5t164 31q61 0 116 -15.5t115 -52.5zM515 807l-78 95l-78 -95h-81l106 147h106l106 -147h-81z" />
    <glyph glyph-name="Cdotaccent.salt_low" horiz-adv-x="741" 
d="M684 702l-46 -79q-40 25 -86 39.5t-96 14.5q-68 0 -124.5 -25t-96.5 -66.5t-62.5 -96.5t-22.5 -114q0 -61 22.5 -116.5t62.5 -97.5t96.5 -67t124.5 -25q46 0 91 13.5t91 40.5l46 -79q-58 -37 -114 -52.5t-117 -15.5q-90 0 -165 31.5t-128 85t-83 126.5t-30 155t30 154.5
t83.5 126t128.5 84.5t164 31q61 0 116 -15.5t115 -52.5zM485 909v-102h-96v102h96z" />
    <glyph glyph-name="Ccaron.salt_low" horiz-adv-x="741" 
d="M684 702l-46 -79q-40 25 -86 39.5t-96 14.5q-68 0 -124.5 -25t-96.5 -66.5t-62.5 -96.5t-22.5 -114q0 -61 22.5 -116.5t62.5 -97.5t96.5 -67t124.5 -25q46 0 91 13.5t91 40.5l46 -79q-58 -37 -114 -52.5t-117 -15.5q-90 0 -165 31.5t-128 85t-83 126.5t-30 155t30 154.5
t83.5 126t128.5 84.5t164 31q61 0 116 -15.5t115 -52.5zM490 807h-106l-106 147h80l78 -95l78 95h82z" />
    <glyph glyph-name="S.salt_low" horiz-adv-x="523" 
d="M445 710l-43 -83q-26 19 -59 33t-67 14q-61 0 -84 -28t-23 -55q0 -38 30 -72t97 -85q96 -73 136 -129t40 -113q0 -48 -18 -86t-49 -64t-73.5 -40t-91.5 -14q-47 0 -103.5 16t-99.5 44l44 84q35 -22 76 -39.5t87 -17.5q63 0 94 35.5t31 76.5q0 40 -31.5 78.5t-105.5 93.5
q-89 69 -127.5 118t-38.5 111q0 33 12.5 64t38.5 55.5t66 39t95 14.5q43 0 87.5 -14.5t79.5 -36.5z" />
    <glyph glyph-name="Sacute.salt_low" horiz-adv-x="523" 
d="M445 710l-43 -83q-26 19 -59 33t-67 14q-61 0 -84 -28t-23 -55q0 -38 30 -72t97 -85q96 -73 136 -129t40 -113q0 -48 -18 -86t-49 -64t-73.5 -40t-91.5 -14q-47 0 -103.5 16t-99.5 44l44 84q35 -22 76 -39.5t87 -17.5q63 0 94 35.5t31 76.5q0 40 -31.5 78.5t-105.5 93.5
q-89 69 -127.5 118t-38.5 111q0 33 12.5 64t38.5 55.5t66 39t95 14.5q43 0 87.5 -14.5t79.5 -36.5zM439 954l-127 -147h-75l86 147h116z" />
    <glyph glyph-name="Scircumflex.salt_low" horiz-adv-x="523" 
d="M445 710l-43 -83q-26 19 -59 33t-67 14q-61 0 -84 -28t-23 -55q0 -38 30 -72t97 -85q96 -73 136 -129t40 -113q0 -48 -18 -86t-49 -64t-73.5 -40t-91.5 -14q-47 0 -103.5 16t-99.5 44l44 84q35 -22 76 -39.5t87 -17.5q63 0 94 35.5t31 76.5q0 40 -31.5 78.5t-105.5 93.5
q-89 69 -127.5 118t-38.5 111q0 33 12.5 64t38.5 55.5t66 39t95 14.5q43 0 87.5 -14.5t79.5 -36.5zM358 807l-78 95l-78 -95h-81l106 147h106l106 -147h-81z" />
    <glyph glyph-name="Scedilla.salt_low" horiz-adv-x="523" 
d="M445 710l-43 -83q-26 19 -59 33t-67 14q-61 0 -84 -28t-23 -55q0 -38 30 -72t97 -85q96 -73 136 -129t40 -113q0 -48 -18 -86t-49 -64t-73.5 -40t-91.5 -14q-47 0 -103.5 16t-99.5 44l44 84q35 -22 76 -39.5t87 -17.5q63 0 94 35.5t31 76.5q0 40 -31.5 78.5t-105.5 93.5
q-89 69 -127.5 118t-38.5 111q0 33 12.5 64t38.5 55.5t66 39t95 14.5q43 0 87.5 -14.5t79.5 -36.5zM217 -208q-11 0 -31.5 3t-38.5 9v51h1q18 -6 36.5 -9t27.5 -3q26 0 41 10t15 26q0 14 -18 23t-48 9h-20l-3 7l30 80h55l-19 -43q42 -5 65 -26.5t23 -52.5q0 -35 -32 -59.5
t-84 -24.5z" />
    <glyph glyph-name="Scaron.salt_low" horiz-adv-x="523" 
d="M445 710l-43 -83q-26 19 -59 33t-67 14q-61 0 -84 -28t-23 -55q0 -38 30 -72t97 -85q96 -73 136 -129t40 -113q0 -48 -18 -86t-49 -64t-73.5 -40t-91.5 -14q-47 0 -103.5 16t-99.5 44l44 84q35 -22 76 -39.5t87 -17.5q63 0 94 35.5t31 76.5q0 40 -31.5 78.5t-105.5 93.5
q-89 69 -127.5 118t-38.5 111q0 33 12.5 64t38.5 55.5t66 39t95 14.5q43 0 87.5 -14.5t79.5 -36.5zM334 807h-106l-106 147h80l78 -95l78 95h82z" />
    <glyph glyph-name="Scommaaccent.salt_low" horiz-adv-x="523" 
d="M445 710l-43 -83q-26 19 -59 33t-67 14q-61 0 -84 -28t-23 -55q0 -38 30 -72t97 -85q96 -73 136 -129t40 -113q0 -48 -18 -86t-49 -64t-73.5 -40t-91.5 -14q-47 0 -103.5 16t-99.5 44l44 84q35 -22 76 -39.5t87 -17.5q63 0 94 35.5t31 76.5q0 40 -31.5 78.5t-105.5 93.5
q-89 69 -127.5 118t-38.5 111q0 33 12.5 64t38.5 55.5t66 39t95 14.5q43 0 87.5 -14.5t79.5 -36.5zM289 -58l-54 -161h-69l21 161h102z" />
    <glyph glyph-name="a.salt_low" horiz-adv-x="529" 
d="M255 45q49 0 83 31t34 75t-33 74t-84 30t-81.5 -30.5t-30.5 -73.5q0 -44 30.5 -75t81.5 -31zM376 0v44q-25 -26 -63 -44.5t-87 -18.5q-77 0 -129 47.5t-52 121.5q0 70 52.5 119t136.5 49q44 0 78.5 -13t58.5 -32v33q0 72 -33.5 100.5t-90.5 28.5q-25 0 -50 -3.5
t-66 -11.5l-19 76q51 11 82.5 14.5t65.5 3.5q104 0 154 -50.5t50 -133.5v-330h-88z" />
    <glyph glyph-name="agrave.salt_low" horiz-adv-x="529" 
d="M255 45q49 0 83 31t34 75t-33 74t-84 30t-81.5 -30.5t-30.5 -73.5q0 -44 30.5 -75t81.5 -31zM376 0v44q-25 -26 -63 -44.5t-87 -18.5q-77 0 -129 47.5t-52 121.5q0 70 52.5 119t136.5 49q44 0 78.5 -13t58.5 -32v33q0 72 -33.5 100.5t-90.5 28.5q-25 0 -50 -3.5
t-66 -11.5l-19 76q51 11 82.5 14.5t65.5 3.5q104 0 154 -50.5t50 -133.5v-330h-88zM107 720h118l86 -147h-77z" />
    <glyph glyph-name="aacute.salt_low" horiz-adv-x="529" 
d="M255 45q49 0 83 31t34 75t-33 74t-84 30t-81.5 -30.5t-30.5 -73.5q0 -44 30.5 -75t81.5 -31zM376 0v44q-25 -26 -63 -44.5t-87 -18.5q-77 0 -129 47.5t-52 121.5q0 70 52.5 119t136.5 49q44 0 78.5 -13t58.5 -32v33q0 72 -33.5 100.5t-90.5 28.5q-25 0 -50 -3.5
t-66 -11.5l-19 76q51 11 82.5 14.5t65.5 3.5q104 0 154 -50.5t50 -133.5v-330h-88zM429 720l-127 -147h-75l86 147h116z" />
    <glyph glyph-name="acircumflex.salt_low" horiz-adv-x="529" 
d="M255 45q49 0 83 31t34 75t-33 74t-84 30t-81.5 -30.5t-30.5 -73.5q0 -44 30.5 -75t81.5 -31zM376 0v44q-25 -26 -63 -44.5t-87 -18.5q-77 0 -129 47.5t-52 121.5q0 70 52.5 119t136.5 49q44 0 78.5 -13t58.5 -32v33q0 72 -33.5 100.5t-90.5 28.5q-25 0 -50 -3.5
t-66 -11.5l-19 76q51 11 82.5 14.5t65.5 3.5q104 0 154 -50.5t50 -133.5v-330h-88zM348 573l-78 95l-78 -95h-81l106 147h106l106 -147h-81z" />
    <glyph glyph-name="atilde.salt_low" horiz-adv-x="529" 
d="M255 45q49 0 83 31t34 75t-33 74t-84 30t-81.5 -30.5t-30.5 -73.5q0 -44 30.5 -75t81.5 -31zM376 0v44q-25 -26 -63 -44.5t-87 -18.5q-77 0 -129 47.5t-52 121.5q0 70 52.5 119t136.5 49q44 0 78.5 -13t58.5 -32v33q0 72 -33.5 100.5t-90.5 28.5q-25 0 -50 -3.5
t-66 -11.5l-19 76q51 11 82.5 14.5t65.5 3.5q104 0 154 -50.5t50 -133.5v-330h-88zM158 573l-74 2q-7 78 25 107.5t72 29.5q21 0 43.5 -9.5t44.5 -21.5t41.5 -21.5t33.5 -9.5q16 0 28 12t11 49l73 -1q6 -70 -23 -102t-73 -32q-21 0 -44.5 9.5t-45 21t-41 21t-33.5 9.5
q-16 0 -28 -12t-10 -52z" />
    <glyph glyph-name="adieresis.salt_low" horiz-adv-x="529" 
d="M255 45q49 0 83 31t34 75t-33 74t-84 30t-81.5 -30.5t-30.5 -73.5q0 -44 30.5 -75t81.5 -31zM376 0v44q-25 -26 -63 -44.5t-87 -18.5q-77 0 -129 47.5t-52 121.5q0 70 52.5 119t136.5 49q44 0 78.5 -13t58.5 -32v33q0 72 -33.5 100.5t-90.5 28.5q-25 0 -50 -3.5
t-66 -11.5l-19 76q51 11 82.5 14.5t65.5 3.5q104 0 154 -50.5t50 -133.5v-330h-88zM416 661v-88h-94v88h94zM222 661v-88h-94v88h94z" />
    <glyph glyph-name="aring.salt_low" horiz-adv-x="529" 
d="M255 45q49 0 83 31t34 75t-33 74t-84 30t-81.5 -30.5t-30.5 -73.5q0 -44 30.5 -75t81.5 -31zM376 0v44q-25 -26 -63 -44.5t-87 -18.5q-77 0 -129 47.5t-52 121.5q0 70 52.5 119t136.5 49q44 0 78.5 -13t58.5 -32v33q0 72 -33.5 100.5t-90.5 28.5q-25 0 -50 -3.5
t-66 -11.5l-19 76q51 11 82.5 14.5t65.5 3.5q104 0 154 -50.5t50 -133.5v-330h-88zM270 793q49 0 82.5 -34t33.5 -79t-33.5 -78.5t-82.5 -33.5t-82.5 34t-33.5 78q0 45 33.5 79t82.5 34zM270 745q-27 0 -45.5 -18.5t-18.5 -46.5q0 -27 18.5 -45.5t45.5 -18.5t45.5 18.5
t18.5 45.5q0 28 -18.5 46.5t-45.5 18.5z" />
    <glyph glyph-name="amacron.salt_low" horiz-adv-x="529" 
d="M255 45q49 0 83 31t34 75t-33 74t-84 30t-81.5 -30.5t-30.5 -73.5q0 -44 30.5 -75t81.5 -31zM376 0v44q-25 -26 -63 -44.5t-87 -18.5q-77 0 -129 47.5t-52 121.5q0 70 52.5 119t136.5 49q44 0 78.5 -13t58.5 -32v33q0 72 -33.5 100.5t-90.5 28.5q-25 0 -50 -3.5
t-66 -11.5l-19 76q51 11 82.5 14.5t65.5 3.5q104 0 154 -50.5t50 -133.5v-330h-88zM402 646v-74h-264v74h264z" />
    <glyph glyph-name="abreve.salt_low" horiz-adv-x="529" 
d="M255 45q49 0 83 31t34 75t-33 74t-84 30t-81.5 -30.5t-30.5 -73.5q0 -44 30.5 -75t81.5 -31zM376 0v44q-25 -26 -63 -44.5t-87 -18.5q-77 0 -129 47.5t-52 121.5q0 70 52.5 119t136.5 49q44 0 78.5 -13t58.5 -32v33q0 72 -33.5 100.5t-90.5 28.5q-25 0 -50 -3.5
t-66 -11.5l-19 76q51 11 82.5 14.5t65.5 3.5q104 0 154 -50.5t50 -133.5v-330h-88zM423 714q-16 -66 -55 -106t-98 -40t-98 40t-55 106l65 3q16 -43 40 -64t48 -21t48 21t40 64z" />
    <glyph glyph-name="aogonek.salt_low" horiz-adv-x="529" 
d="M387 -169q-44 0 -64.5 22t-20.5 47t16 45.5t38 37.5l20 16v45q-25 -26 -63 -44.5t-87 -18.5q-77 0 -129 47.5t-52 121.5q0 70 52.5 119t136.5 49q44 0 78.5 -13t58.5 -32v33q0 72 -33.5 100.5t-90.5 28.5q-25 0 -50 -3.5t-66 -11.5l-19 76q51 11 82.5 14.5t65.5 3.5
q104 0 154 -50.5t50 -133.5v-330l-44 -34q-19 -15 -29.5 -26.5t-10.5 -24.5q0 -10 8 -18.5t22 -8.5q11 0 20 4t16 10l30 -39q-12 -12 -35 -22t-54 -10zM255 45q49 0 83 31t34 75q0 43 -33 73t-84 30t-81.5 -30t-30.5 -73q0 -44 30.5 -75t81.5 -31z" />
    <glyph glyph-name="aringacute.salt_low" horiz-adv-x="529" 
d="M255 45q49 0 83 31t34 75t-33 74t-84 30t-81.5 -30.5t-30.5 -73.5q0 -44 30.5 -75t81.5 -31zM376 0v44q-25 -26 -63 -44.5t-87 -18.5q-77 0 -129 47.5t-52 121.5q0 70 52.5 119t136.5 49q44 0 78.5 -13t58.5 -32v33q0 72 -33.5 100.5t-90.5 28.5q-25 0 -50 -3.5
t-66 -11.5l-19 76q51 11 82.5 14.5t65.5 3.5q104 0 154 -50.5t50 -133.5v-330h-88zM270 793q49 0 82.5 -34t33.5 -79t-33.5 -78.5t-82.5 -33.5t-82.5 34t-33.5 78q0 45 33.5 79t82.5 34zM270 745q-27 0 -45.5 -18.5t-18.5 -46.5q0 -27 18.5 -45.5t45.5 -18.5t45.5 18.5
t18.5 45.5q0 28 -18.5 46.5t-45.5 18.5zM429 964l-127 -147h-75l86 147h116z" />
    <glyph glyph-name="c.salt_low" horiz-adv-x="518" 
d="M443 97l37 -70q-31 -20 -71.5 -32t-80.5 -12q-60 0 -112 21t-90 57t-59.5 85t-21.5 104t21.5 103.5t59.5 84t90 56.5t112 21q40 0 80.5 -11.5t71.5 -31.5l-37 -70h-3q-28 19 -58.5 25.5t-52.5 6.5q-39 0 -73 -14.5t-59 -39.5t-39 -58.5t-14 -71.5t14 -72.5t39 -59.5
t59 -39.5t73 -14.5q22 0 52.5 7t58.5 26h3z" />
    <glyph glyph-name="ccedilla.salt_low" horiz-adv-x="518" 
d="M443 97l37 -70q-31 -20 -71.5 -32t-80.5 -12q-60 0 -112 21t-90 57t-59.5 85t-21.5 104t21.5 103.5t59.5 84t90 56.5t112 21q40 0 80.5 -11.5t71.5 -31.5l-37 -70h-3q-28 19 -58.5 25.5t-52.5 6.5q-39 0 -73 -14.5t-59 -39.5t-39 -58.5t-14 -71.5t14 -72.5t39 -59.5
t59 -39.5t73 -14.5q22 0 52.5 7t58.5 26h3zM290 -203q-12 0 -32 3.5t-36 9.5v50h1q17 -5 34 -8.5t27 -3.5q24 0 37.5 10t13.5 24q0 13 -16.5 22t-44.5 9h-19l-2 6l28 76l53 -1l-17 -38q40 -6 61.5 -26t21.5 -50q0 -35 -30 -59t-80 -24z" />
    <glyph glyph-name="cacute.salt_low" horiz-adv-x="518" 
d="M443 97l37 -70q-31 -20 -71.5 -32t-80.5 -12q-60 0 -112 21t-90 57t-59.5 85t-21.5 104t21.5 103.5t59.5 84t90 56.5t112 21q40 0 80.5 -11.5t71.5 -31.5l-37 -70h-3q-28 19 -58.5 25.5t-52.5 6.5q-39 0 -73 -14.5t-59 -39.5t-39 -58.5t-14 -71.5t14 -72.5t39 -59.5
t59 -39.5t73 -14.5q22 0 52.5 7t58.5 26h3zM474 720l-127 -147h-75l86 147h116z" />
    <glyph glyph-name="ccircumflex.salt_low" horiz-adv-x="518" 
d="M443 97l37 -70q-31 -20 -71.5 -32t-80.5 -12q-60 0 -112 21t-90 57t-59.5 85t-21.5 104t21.5 103.5t59.5 84t90 56.5t112 21q40 0 80.5 -11.5t71.5 -31.5l-37 -70h-3q-28 19 -58.5 25.5t-52.5 6.5q-39 0 -73 -14.5t-59 -39.5t-39 -58.5t-14 -71.5t14 -72.5t39 -59.5
t59 -39.5t73 -14.5q22 0 52.5 7t58.5 26h3zM392 573l-78 95l-78 -95h-81l106 147h106l106 -147h-81z" />
    <glyph glyph-name="cdotaccent.salt_low" horiz-adv-x="518" 
d="M443 97l37 -70q-31 -20 -71.5 -32t-80.5 -12q-60 0 -112 21t-90 57t-59.5 85t-21.5 104t21.5 103.5t59.5 84t90 56.5t112 21q40 0 80.5 -11.5t71.5 -31.5l-37 -70h-3q-28 19 -58.5 25.5t-52.5 6.5q-39 0 -73 -14.5t-59 -39.5t-39 -58.5t-14 -71.5t14 -72.5t39 -59.5
t59 -39.5t73 -14.5q22 0 52.5 7t58.5 26h3zM362 692v-109h-96v109h96z" />
    <glyph glyph-name="ccaron.salt_low" horiz-adv-x="518" 
d="M443 97l37 -70q-31 -20 -71.5 -32t-80.5 -12q-60 0 -112 21t-90 57t-59.5 85t-21.5 104t21.5 103.5t59.5 84t90 56.5t112 21q40 0 80.5 -11.5t71.5 -31.5l-37 -70h-3q-28 19 -58.5 25.5t-52.5 6.5q-39 0 -73 -14.5t-59 -39.5t-39 -58.5t-14 -71.5t14 -72.5t39 -59.5
t59 -39.5t73 -14.5q22 0 52.5 7t58.5 26h3zM368 573h-106l-106 147h80l78 -95l78 95h82z" />
    <glyph glyph-name="s.salt_low" horiz-adv-x="428" 
d="M216 515q40 0 74.5 -11.5t59.5 -24.5l-35 -70q-24 13 -48 20t-44 7q-33 0 -53 -15t-20 -37q0 -19 20 -36t67 -48q86 -55 115.5 -91t29.5 -79q0 -63 -49 -103.5t-130 -41.5q-41 0 -84 13.5t-80 35.5l33 73q37 -20 65.5 -31t54.5 -11q46 1 68.5 19.5t22.5 42.5
q0 14 -17 36.5t-85 64.5q-38 25 -63.5 44t-40 37t-20 36t-5.5 42q0 21 9.5 44t29 41.5t51 30.5t74.5 12z" />
    <glyph glyph-name="sacute.salt_low" horiz-adv-x="428" 
d="M216 515q40 0 74.5 -11.5t59.5 -24.5l-35 -70q-24 13 -48 20t-44 7q-33 0 -53 -15t-20 -37q0 -19 20 -36t67 -48q86 -55 115.5 -91t29.5 -79q0 -63 -49 -103.5t-130 -41.5q-41 0 -84 13.5t-80 35.5l33 73q37 -20 65.5 -31t54.5 -11q46 1 68.5 19.5t22.5 42.5
q0 14 -17 36.5t-85 64.5q-38 25 -63.5 44t-40 37t-20 36t-5.5 42q0 21 9.5 44t29 41.5t51 30.5t74.5 12zM371 720l-127 -147h-75l86 147h116z" />
    <glyph glyph-name="scircumflex.salt_low" horiz-adv-x="428" 
d="M216 515q40 0 74.5 -11.5t59.5 -24.5l-35 -70q-24 13 -48 20t-44 7q-33 0 -53 -15t-20 -37q0 -19 20 -36t67 -48q86 -55 115.5 -91t29.5 -79q0 -63 -49 -103.5t-130 -41.5q-41 0 -84 13.5t-80 35.5l33 73q37 -20 65.5 -31t54.5 -11q46 1 68.5 19.5t22.5 42.5
q0 14 -17 36.5t-85 64.5q-38 25 -63.5 44t-40 37t-20 36t-5.5 42q0 21 9.5 44t29 41.5t51 30.5t74.5 12zM289 573l-78 95l-78 -95h-81l106 147h106l106 -147h-81z" />
    <glyph glyph-name="scedilla.salt_low" horiz-adv-x="428" 
d="M216 515q40 0 74.5 -11.5t59.5 -24.5l-35 -70q-24 13 -48 20t-44 7q-33 0 -53 -15t-20 -37q0 -19 20 -36t67 -48q86 -55 115.5 -91t29.5 -79q0 -63 -49 -103.5t-130 -41.5q-41 0 -84 13.5t-80 35.5l33 73q37 -20 65.5 -31t54.5 -11q46 1 68.5 19.5t22.5 42.5
q0 14 -17 36.5t-85 64.5q-38 25 -63.5 44t-40 37t-20 36t-5.5 42q0 21 9.5 44t29 41.5t51 30.5t74.5 12zM188 -202q-12 0 -32 3.5t-36 9.5v50h1q17 -5 34 -8.5t27 -3.5q24 0 37.5 10t13.5 24q0 13 -16.5 22t-44.5 9h-19l-2 6l28 76l53 -1l-17 -38q40 -6 61.5 -26t21.5 -50
q0 -35 -30 -59t-80 -24z" />
    <glyph glyph-name="scaron.salt_low" horiz-adv-x="428" 
d="M216 515q40 0 74.5 -11.5t59.5 -24.5l-35 -70q-24 13 -48 20t-44 7q-33 0 -53 -15t-20 -37q0 -19 20 -36t67 -48q86 -55 115.5 -91t29.5 -79q0 -63 -49 -103.5t-130 -41.5q-41 0 -84 13.5t-80 35.5l33 73q37 -20 65.5 -31t54.5 -11q46 1 68.5 19.5t22.5 42.5
q0 14 -17 36.5t-85 64.5q-38 25 -63.5 44t-40 37t-20 36t-5.5 42q0 21 9.5 44t29 41.5t51 30.5t74.5 12zM264 573h-106l-106 147h80l78 -95l78 95h82z" />
    <glyph glyph-name="scommaaccent.salt_low" horiz-adv-x="428" 
d="M216 515q40 0 74.5 -11.5t59.5 -24.5l-35 -70q-24 13 -48 20t-44 7q-33 0 -53 -15t-20 -37q0 -19 20 -36t67 -48q86 -55 115.5 -91t29.5 -79q0 -63 -49 -103.5t-130 -41.5q-41 0 -84 13.5t-80 35.5l33 73q37 -20 65.5 -31t54.5 -11q46 1 68.5 19.5t22.5 42.5
q0 14 -17 36.5t-85 64.5q-38 25 -63.5 44t-40 37t-20 36t-5.5 42q0 21 9.5 44t29 41.5t51 30.5t74.5 12zM257 -58l-54 -161h-69l21 161h102z" />
    <glyph glyph-name="ae.salt_low" horiz-adv-x="937" 
d="M627 445q-63 0 -107.5 -38t-58.5 -101h331q-14 61 -59 100t-106 39zM255 39q49 0 83 31t34 78q0 44 -33 75t-84 31t-81.5 -31t-30.5 -75q0 -46 30.5 -77.5t81.5 -31.5zM885 69q-40 -39 -101 -66.5t-140 -27.5q-72 0 -129.5 28t-93.5 75q-17 -40 -63.5 -71.5t-119.5 -31.5
q-86 0 -139.5 47.5t-53.5 122.5q0 74 52.5 123.5t136.5 49.5q40 0 72 -10.5t55 -27.5v26q0 72 -30 100.5t-86 28.5q-25 0 -49.5 -3.5t-69.5 -12.5l-9 78q47 10 75.5 13.5t65.5 3.5q65 0 107.5 -21.5t64.5 -58.5q34 42 85 66.5t112 24.5q56 0 105 -20.5t85 -57t57 -85.5
t21 -106v-23h-439q5 -80 56 -129.5t132 -49.5q58 0 105 21.5t81 54.5zM382 146v2v2v0l-2 -8q0 1 1 2t1 2z" />
    <glyph glyph-name="aeacute.salt_low" horiz-adv-x="937" 
d="M627 445q-63 0 -107.5 -38t-58.5 -101h331q-14 61 -59 100t-106 39zM255 39q49 0 83 31t34 78q0 44 -33 75t-84 31t-81.5 -31t-30.5 -75q0 -46 30.5 -77.5t81.5 -31.5zM885 69q-40 -39 -101 -66.5t-140 -27.5q-72 0 -129.5 28t-93.5 75q-17 -40 -63.5 -71.5t-119.5 -31.5
q-86 0 -139.5 47.5t-53.5 122.5q0 74 52.5 123.5t136.5 49.5q40 0 72 -10.5t55 -27.5v26q0 72 -30 100.5t-86 28.5q-25 0 -49.5 -3.5t-69.5 -12.5l-9 78q47 10 75.5 13.5t65.5 3.5q65 0 107.5 -21.5t64.5 -58.5q34 42 85 66.5t112 24.5q56 0 105 -20.5t85 -57t57 -85.5
t21 -106v-23h-439q5 -80 56 -129.5t132 -49.5q58 0 105 21.5t81 54.5zM382 146v2v2v0l-2 -8q0 1 1 2t1 2zM614 720l-127 -147h-75l86 147h116z" />
    <glyph glyph-name="K.salt_tall" horiz-adv-x="661" 
d="M485 0l-312 360v-360h-102v746h102v-349l298 349h121l-314 -362l338 -384h-131z" />
    <glyph glyph-name="Kcommaaccent.salt_tall" horiz-adv-x="661" 
d="M485 0l-312 360v-360h-102v746h102v-349l298 349h121l-314 -362l338 -384h-131zM371 -58l-54 -161h-69l21 161h102z" />
    <glyph glyph-name="P.salt_tall" horiz-adv-x="557" 
d="M244 268h-71v-268h-102v746h180q126 0 197.5 -60t71.5 -170q0 -59 -22.5 -105t-60 -77.5t-87.5 -48.5t-106 -17zM247 653h-74v-293h74q75 0 121.5 43.5t46.5 112.5q0 57 -36.5 97t-131.5 40z" />
    <glyph glyph-name="R.salt_tall" horiz-adv-x="588" 
d="M245 653h-72v-281h70q76 0 125 43t49 108q-1 50 -40.5 90t-131.5 40zM424 0l-247 283h-4v-283h-102v746h167q132 0 207 -60t75 -163q0 -47 -17 -86t-46.5 -68.5t-69.5 -49.5t-87 -29l251 -290h-127z" />
    <glyph glyph-name="Racute.salt_tall" horiz-adv-x="588" 
d="M245 653h-72v-281h70q76 0 125 43t49 108q-1 50 -40.5 90t-131.5 40zM424 0l-247 283h-4v-283h-102v746h167q132 0 207 -60t75 -163q0 -47 -17 -86t-46.5 -68.5t-69.5 -49.5t-87 -29l251 -290h-127zM435 954l-127 -147h-75l86 147h116z" />
    <glyph glyph-name="Rcommaaccent.salt_tall" horiz-adv-x="588" 
d="M245 653h-72v-281h70q76 0 125 43t49 108q-1 50 -40.5 90t-131.5 40zM424 0l-247 283h-4v-283h-102v746h167q132 0 207 -60t75 -163q0 -47 -17 -86t-46.5 -68.5t-69.5 -49.5t-87 -29l251 -290h-127zM334 -58l-54 -161h-69l21 161h102z" />
    <glyph glyph-name="Rcaron.salt_tall" horiz-adv-x="588" 
d="M245 653h-72v-281h70q76 0 125 43t49 108q-1 50 -40.5 90t-131.5 40zM424 0l-247 283h-4v-283h-102v746h167q132 0 207 -60t75 -163q0 -47 -17 -86t-46.5 -68.5t-69.5 -49.5t-87 -29l251 -290h-127zM330 807h-106l-106 147h80l78 -95l78 95h82z" />
    <glyph glyph-name="S.salt_tall" horiz-adv-x="548" 
d="M442 733l-3 -96q-28 16 -67 26.5t-78 10.5q-36 0 -60.5 -8.5t-39.5 -22t-21 -29t-6 -30.5q0 -37 31.5 -71.5t107.5 -80.5q96 -58 143.5 -112t47.5 -122q0 -49 -19.5 -88.5t-53.5 -66t-81 -41t-101 -14.5q-22 0 -47.5 2.5t-50.5 7.5t-47.5 12t-37.5 16l3 99
q37 -23 84.5 -36.5t100.5 -13.5q37 0 65 10.5t46 27.5t27 38t9 43q0 40 -35.5 78t-118.5 87q-99 60 -137.5 111t-38.5 111q0 34 13.5 67t41.5 58t71 40t102 15q35 0 76 -7t74 -21z" />
    <glyph glyph-name="Sacute.salt_tall" horiz-adv-x="548" 
d="M442 733l-3 -96q-28 16 -67 26.5t-78 10.5q-36 0 -60.5 -8.5t-39.5 -22t-21 -29t-6 -30.5q0 -37 31.5 -71.5t107.5 -80.5q96 -58 143.5 -112t47.5 -122q0 -49 -19.5 -88.5t-53.5 -66t-81 -41t-101 -14.5q-22 0 -47.5 2.5t-50.5 7.5t-47.5 12t-37.5 16l3 99
q37 -23 84.5 -36.5t100.5 -13.5q37 0 65 10.5t46 27.5t27 38t9 43q0 40 -35.5 78t-118.5 87q-99 60 -137.5 111t-38.5 111q0 34 13.5 67t41.5 58t71 40t102 15q35 0 76 -7t74 -21zM449 954l-127 -147h-75l86 147h116z" />
    <glyph glyph-name="Scircumflex.salt_tall" horiz-adv-x="548" 
d="M442 733l-3 -96q-28 16 -67 26.5t-78 10.5q-36 0 -60.5 -8.5t-39.5 -22t-21 -29t-6 -30.5q0 -37 31.5 -71.5t107.5 -80.5q96 -58 143.5 -112t47.5 -122q0 -49 -19.5 -88.5t-53.5 -66t-81 -41t-101 -14.5q-22 0 -47.5 2.5t-50.5 7.5t-47.5 12t-37.5 16l3 99
q37 -23 84.5 -36.5t100.5 -13.5q37 0 65 10.5t46 27.5t27 38t9 43q0 40 -35.5 78t-118.5 87q-99 60 -137.5 111t-38.5 111q0 34 13.5 67t41.5 58t71 40t102 15q35 0 76 -7t74 -21zM368 807l-78 95l-78 -95h-81l106 147h106l106 -147h-81z" />
    <glyph glyph-name="Scedilla.salt_tall" horiz-adv-x="548" 
d="M442 733l-3 -96q-28 16 -67 26.5t-78 10.5q-36 0 -60.5 -8.5t-39.5 -22t-21 -29t-6 -30.5q0 -37 31.5 -71.5t107.5 -80.5q96 -58 143.5 -112t47.5 -122q0 -49 -19.5 -88.5t-53.5 -66t-81 -41t-101 -14.5q-22 0 -47.5 2.5t-50.5 7.5t-47.5 12t-37.5 16l3 99
q37 -23 84.5 -36.5t100.5 -13.5q37 0 65 10.5t46 27.5t27 38t9 43q0 40 -35.5 78t-118.5 87q-99 60 -137.5 111t-38.5 111q0 34 13.5 67t41.5 58t71 40t102 15q35 0 76 -7t74 -21zM228 -208q-11 0 -31.5 3t-38.5 9v51h1q18 -6 36.5 -9t27.5 -3q26 0 41 10t15 26q0 14 -18 23
t-48 9h-20l-3 7l30 80h55l-19 -43q42 -5 65 -26.5t23 -52.5q0 -35 -32 -59.5t-84 -24.5z" />
    <glyph glyph-name="Scaron.salt_tall" horiz-adv-x="548" 
d="M442 733l-3 -96q-28 16 -67 26.5t-78 10.5q-36 0 -60.5 -8.5t-39.5 -22t-21 -29t-6 -30.5q0 -37 31.5 -71.5t107.5 -80.5q96 -58 143.5 -112t47.5 -122q0 -49 -19.5 -88.5t-53.5 -66t-81 -41t-101 -14.5q-22 0 -47.5 2.5t-50.5 7.5t-47.5 12t-37.5 16l3 99
q37 -23 84.5 -36.5t100.5 -13.5q37 0 65 10.5t46 27.5t27 38t9 43q0 40 -35.5 78t-118.5 87q-99 60 -137.5 111t-38.5 111q0 34 13.5 67t41.5 58t71 40t102 15q35 0 76 -7t74 -21zM343 807h-106l-106 147h80l78 -95l78 95h82z" />
    <glyph glyph-name="Scommaaccent.salt_tall" horiz-adv-x="548" 
d="M442 733l-3 -96q-28 16 -67 26.5t-78 10.5q-36 0 -60.5 -8.5t-39.5 -22t-21 -29t-6 -30.5q0 -37 31.5 -71.5t107.5 -80.5q96 -58 143.5 -112t47.5 -122q0 -49 -19.5 -88.5t-53.5 -66t-81 -41t-101 -14.5q-22 0 -47.5 2.5t-50.5 7.5t-47.5 12t-37.5 16l3 99
q37 -23 84.5 -36.5t100.5 -13.5q37 0 65 10.5t46 27.5t27 38t9 43q0 40 -35.5 78t-118.5 87q-99 60 -137.5 111t-38.5 111q0 34 13.5 67t41.5 58t71 40t102 15q35 0 76 -7t74 -21zM298 -69l-54 -161h-69l21 161h102z" />
    <glyph glyph-name="T.salt_tall" horiz-adv-x="467" 
d="M182 0v656h-153v90h409v-90h-154v-656h-102z" />
    <glyph glyph-name="Tcaron.salt_tall" horiz-adv-x="467" 
d="M182 0v656h-153v90h409v-90h-154v-656h-102zM288 807h-106l-106 147h80l78 -95l78 95h82z" />
    <glyph glyph-name="Tcommaaccent.salt_tall" horiz-adv-x="467" 
d="M182 0v656h-153v90h409v-90h-154v-656h-102zM284 -58l-54 -161h-69l21 161h102z" />
    <glyph glyph-name="Tbar.salt_tall" horiz-adv-x="467" 
d="M364 325h-80v-325h-102v325h-79v80h79v251h-153v90h409v-90h-154v-251h80v-80z" />
    <glyph glyph-name="a.salt_ss" horiz-adv-x="668" 
d="M511 249q0 37 -14 71.5t-38.5 60t-58.5 41t-73 15.5q-40 0 -73.5 -15t-58 -41t-38 -60t-13.5 -71t13.5 -71t38 -59.5t58 -41t73.5 -15.5q39 0 73 15.5t58.5 41t38.5 59t14 70.5zM514 0v83q-35 -47 -89.5 -75.5t-120.5 -28.5q-55 0 -102.5 21.5t-82.5 58.5t-54.5 86.5
t-19.5 104.5q0 54 19.5 103.5t54.5 86.5t82.5 59t102.5 22q63 0 116.5 -27t88.5 -72v78h93v-500h-88z" />
    <glyph glyph-name="agrave.salt_ss" horiz-adv-x="668" 
d="M511 249q0 37 -14 71.5t-38.5 60t-58.5 41t-73 15.5q-40 0 -73.5 -15t-58 -41t-38 -60t-13.5 -71t13.5 -71t38 -59.5t58 -41t73.5 -15.5q39 0 73 15.5t58.5 41t38.5 59t14 70.5zM514 0v83q-35 -47 -89.5 -75.5t-120.5 -28.5q-55 0 -102.5 21.5t-82.5 58.5t-54.5 86.5
t-19.5 104.5q0 54 19.5 103.5t54.5 86.5t82.5 59t102.5 22q63 0 116.5 -27t88.5 -72v78h93v-500h-88zM174 720h118l86 -147h-77z" />
    <glyph glyph-name="aacute.salt_ss" horiz-adv-x="668" 
d="M511 249q0 37 -14 71.5t-38.5 60t-58.5 41t-73 15.5q-40 0 -73.5 -15t-58 -41t-38 -60t-13.5 -71t13.5 -71t38 -59.5t58 -41t73.5 -15.5q39 0 73 15.5t58.5 41t38.5 59t14 70.5zM514 0v83q-35 -47 -89.5 -75.5t-120.5 -28.5q-55 0 -102.5 21.5t-82.5 58.5t-54.5 86.5
t-19.5 104.5q0 54 19.5 103.5t54.5 86.5t82.5 59t102.5 22q63 0 116.5 -27t88.5 -72v78h93v-500h-88zM496 720l-127 -147h-75l86 147h116z" />
    <glyph glyph-name="acircumflex.salt_ss" horiz-adv-x="668" 
d="M511 249q0 37 -14 71.5t-38.5 60t-58.5 41t-73 15.5q-40 0 -73.5 -15t-58 -41t-38 -60t-13.5 -71t13.5 -71t38 -59.5t58 -41t73.5 -15.5q39 0 73 15.5t58.5 41t38.5 59t14 70.5zM514 0v83q-35 -47 -89.5 -75.5t-120.5 -28.5q-55 0 -102.5 21.5t-82.5 58.5t-54.5 86.5
t-19.5 104.5q0 54 19.5 103.5t54.5 86.5t82.5 59t102.5 22q63 0 116.5 -27t88.5 -72v78h93v-500h-88zM414 573l-78 95l-78 -95h-81l106 147h106l106 -147h-81z" />
    <glyph glyph-name="atilde.salt_ss" horiz-adv-x="668" 
d="M511 249q0 37 -14 71.5t-38.5 60t-58.5 41t-73 15.5q-40 0 -73.5 -15t-58 -41t-38 -60t-13.5 -71t13.5 -71t38 -59.5t58 -41t73.5 -15.5q39 0 73 15.5t58.5 41t38.5 59t14 70.5zM514 0v83q-35 -47 -89.5 -75.5t-120.5 -28.5q-55 0 -102.5 21.5t-82.5 58.5t-54.5 86.5
t-19.5 104.5q0 54 19.5 103.5t54.5 86.5t82.5 59t102.5 22q63 0 116.5 -27t88.5 -72v78h93v-500h-88zM224 573l-74 2q-7 78 25 107.5t72 29.5q21 0 43.5 -9.5t44.5 -21.5t41.5 -21.5t33.5 -9.5q16 0 28 12t11 49l73 -1q6 -70 -23 -102t-73 -32q-21 0 -44.5 9.5t-45 21
t-41 21t-33.5 9.5q-16 0 -28 -12t-10 -52z" />
    <glyph glyph-name="adieresis.salt_ss" horiz-adv-x="668" 
d="M511 249q0 37 -14 71.5t-38.5 60t-58.5 41t-73 15.5q-40 0 -73.5 -15t-58 -41t-38 -60t-13.5 -71t13.5 -71t38 -59.5t58 -41t73.5 -15.5q39 0 73 15.5t58.5 41t38.5 59t14 70.5zM514 0v83q-35 -47 -89.5 -75.5t-120.5 -28.5q-55 0 -102.5 21.5t-82.5 58.5t-54.5 86.5
t-19.5 104.5q0 54 19.5 103.5t54.5 86.5t82.5 59t102.5 22q63 0 116.5 -27t88.5 -72v78h93v-500h-88zM480 661v-88h-94v88h94zM286 661v-88h-94v88h94z" />
    <glyph glyph-name="aring.salt_ss" horiz-adv-x="668" 
d="M511 249q0 37 -14 71.5t-38.5 60t-58.5 41t-73 15.5q-40 0 -73.5 -15t-58 -41t-38 -60t-13.5 -71t13.5 -71t38 -59.5t58 -41t73.5 -15.5q39 0 73 15.5t58.5 41t38.5 59t14 70.5zM514 0v83q-35 -47 -89.5 -75.5t-120.5 -28.5q-55 0 -102.5 21.5t-82.5 58.5t-54.5 86.5
t-19.5 104.5q0 54 19.5 103.5t54.5 86.5t82.5 59t102.5 22q63 0 116.5 -27t88.5 -72v78h93v-500h-88zM337 793q49 0 82.5 -34t33.5 -79t-33.5 -78.5t-82.5 -33.5t-82.5 34t-33.5 78q0 45 33.5 79t82.5 34zM337 745q-27 0 -45.5 -18.5t-18.5 -46.5q0 -27 18.5 -45.5
t45.5 -18.5t45.5 18.5t18.5 45.5q0 28 -18.5 46.5t-45.5 18.5z" />
    <glyph glyph-name="amacron.salt_ss" horiz-adv-x="668" 
d="M511 249q0 37 -14 71.5t-38.5 60t-58.5 41t-73 15.5q-40 0 -73.5 -15t-58 -41t-38 -60t-13.5 -71t13.5 -71t38 -59.5t58 -41t73.5 -15.5q39 0 73 15.5t58.5 41t38.5 59t14 70.5zM514 0v83q-35 -47 -89.5 -75.5t-120.5 -28.5q-55 0 -102.5 21.5t-82.5 58.5t-54.5 86.5
t-19.5 104.5q0 54 19.5 103.5t54.5 86.5t82.5 59t102.5 22q63 0 116.5 -27t88.5 -72v78h93v-500h-88zM468 646v-74h-264v74h264z" />
    <glyph glyph-name="abreve.salt_ss" horiz-adv-x="668" 
d="M511 249q0 37 -14 71.5t-38.5 60t-58.5 41t-73 15.5q-40 0 -73.5 -15t-58 -41t-38 -60t-13.5 -71t13.5 -71t38 -59.5t58 -41t73.5 -15.5q39 0 73 15.5t58.5 41t38.5 59t14 70.5zM514 0v83q-35 -47 -89.5 -75.5t-120.5 -28.5q-55 0 -102.5 21.5t-82.5 58.5t-54.5 86.5
t-19.5 104.5q0 54 19.5 103.5t54.5 86.5t82.5 59t102.5 22q63 0 116.5 -27t88.5 -72v78h93v-500h-88zM489 714q-16 -66 -55 -106t-98 -40t-98 40t-55 106l65 3q16 -43 40 -64t48 -21t48 21t40 64z" />
    <glyph glyph-name="aogonek.salt_ss" horiz-adv-x="668" 
d="M527 -169q-45 0 -65.5 22t-20.5 47t16 45t37 38l20 16v84q-35 -47 -89.5 -75.5t-120.5 -28.5q-55 0 -102.5 21.5t-82.5 58.5t-54.5 86.5t-19.5 104.5q0 54 19.5 103.5t54.5 86.5t82.5 59t102.5 22q63 0 116.5 -27t88.5 -72v78h93v-500l-42 -34q-19 -15 -30 -26.5
t-11 -24.5q0 -10 8.5 -18.5t22.5 -8.5q10 0 19 4t16 10l31 -39q-12 -12 -35.5 -22t-53.5 -10zM511 249q0 37 -14 71.5t-38.5 60t-58.5 41t-73 15.5q-40 0 -73.5 -15t-58 -41t-38 -60t-13.5 -71t13.5 -71t38 -59.5t58 -41t73.5 -15.5q39 0 73 15.5t58.5 41t38.5 59t14 70.5z
" />
    <glyph glyph-name="aringacute.salt_ss" horiz-adv-x="668" 
d="M511 249q0 37 -14 71.5t-38.5 60t-58.5 41t-73 15.5q-40 0 -73.5 -15t-58 -41t-38 -60t-13.5 -71t13.5 -71t38 -59.5t58 -41t73.5 -15.5q39 0 73 15.5t58.5 41t38.5 59t14 70.5zM514 0v83q-35 -47 -89.5 -75.5t-120.5 -28.5q-55 0 -102.5 21.5t-82.5 58.5t-54.5 86.5
t-19.5 104.5q0 54 19.5 103.5t54.5 86.5t82.5 59t102.5 22q63 0 116.5 -27t88.5 -72v78h93v-500h-88zM336 793q49 0 82.5 -34t33.5 -79t-33.5 -78.5t-82.5 -33.5t-82.5 34t-33.5 78q0 45 33.5 79t82.5 34zM336 745q-27 0 -45.5 -18.5t-18.5 -46.5q0 -27 18.5 -45.5
t45.5 -18.5t45.5 18.5t18.5 45.5q0 28 -18.5 46.5t-45.5 18.5zM496 964l-127 -147h-75l86 147h116z" />
    <glyph glyph-name="Adieresis.salt" horiz-adv-x="737" 
d="M600 746v-98h-106v98h106zM244 746v-98h-106v98h106zM519 235l-151 389l-153 -389h304zM610 0l-59 151h-369l-59 -151h-105l300 746h102l299 -746h-109z" />
    <glyph glyph-name="Odieresis.salt" horiz-adv-x="912" 
d="M456 677q-63 0 -119 -24.5t-97.5 -66t-65.5 -96.5t-24 -115q0 -62 24 -117.5t65.5 -97.5t97.5 -66.5t119 -24.5t119 24.5t97 66.5t65 97.5t24 117.5q0 60 -24 115t-65 96.5t-97 66t-119 24.5zM864 374q0 -82 -32 -155t-87 -126.5t-129.5 -85t-159.5 -31.5t-160 31.5
t-130 85t-87 126.5t-32 155q0 79 30.5 150t81.5 124h-96v98h106v-89q54 52 128.5 82.5t158.5 30.5t158.5 -30.5t128.5 -83.5v90h106v-98h-98q52 -53 82.5 -124t30.5 -150z" />
    <glyph glyph-name="Udieresis.salt" horiz-adv-x="697" 
d="M626 295q0 -147 -70.5 -233t-207.5 -86q-135 0 -206 86t-71 233v451h102v-481q0 -49 15 -85.5t39 -61t56 -37t65 -12.5q35 0 67 12.5t56 37t38.5 61t14.5 85.5v481h102v-451zM479 746v-98h-101v98h101zM320 746v-98h-101v98h101z" />
    <glyph glyph-name="asterisk.salt1" horiz-adv-x="396" 
d="M340 508l-115 28l-41 -105l-21 2l-8 118l-113 6l-4 21l108 45l-28 109l18 10l77 -90l94 61l16 -14l-62 -100l87 -72z" />
    <glyph glyph-name="space.em" horiz-adv-x="1000" 
 />
    <glyph glyph-name="space.en" horiz-adv-x="500" 
 />
    <glyph glyph-name="space.frac" horiz-adv-x="85" 
 />
    <glyph glyph-name="space.thin" horiz-adv-x="150" 
 />
    </font>
</defs>
</svg>
