<?xml version="1.0" standalone="no"?>
<!DOCTYPE svg PUBLIC "-//W3C//DTD SVG 1.1//EN" "http://www.w3.org/Graphics/SVG/1.1/DTD/svg11.dtd" >
<svg xmlns="http://www.w3.org/2000/svg" xmlns:xlink="http://www.w3.org/1999/xlink" version="1.1">
<metadata>
Created by FontForge 20200314 at Fri Oct 14 10:40:52 2016
 By Unknown
Copyright (c) 2015 CJ Type. All rights reserved.
</metadata>
<defs>
<font id="DunbarText-Medium" horiz-adv-x="36" >
  <font-face 
    font-family="DunbarText Medium"
    font-weight="500"
    font-stretch="normal"
    units-per-em="1000"
    panose-1="0 0 0 0 0 0 0 2 0 0"
    ascent="780"
    descent="-220"
    x-height="500"
    cap-height="746"
    bbox="-198.126 -290 1168 1101"
    underline-thickness="0"
    underline-position="0"
    unicode-range="U+0020-FEFF"
  />
<missing-glyph horiz-adv-x="18" 
 />
    <glyph glyph-name="f_f" unicode="ff" horiz-adv-x="634" 
d="M281 396h-62v-396h-124v396h-62v104h62v103q0 58 18 95t46 57.5t64 28t72 7.5v-108q-30 0 -53 -16.5t-23 -70.5v-96h62v-104zM598 396h-62v-396h-124v396h-62v104h62v103q0 58 18 95t46 57.5t64 28t72 7.5v-108q-30 0 -53 -16.5t-23 -70.5v-96h62v-104z" />
    <glyph glyph-name="f_i" unicode="fi" horiz-adv-x="564" 
d="M281 396h-62v-396h-124v396h-62v104h62v103q0 58 18 95t46 57.5t64 28t72 7.5v-108q-30 0 -53 -16.5t-23 -70.5v-96h62v-104zM505 694v-117h-128v117h128zM503 500v-500h-124v500h124z" />
    <glyph glyph-name="f_l" unicode="fl" horiz-adv-x="564" 
d="M281 396h-62v-396h-124v396h-62v104h62v103q0 58 18 95t46 57.5t64 28t72 7.5v-108q-30 0 -53 -16.5t-23 -70.5v-96h62v-104zM503 780v-780h-124v780h124z" />
    <glyph glyph-name="f_f_i" unicode="ffi" horiz-adv-x="881" 
d="M281 396h-62v-396h-124v396h-62v104h62v103q0 58 18 95t46 57.5t64 28t72 7.5v-108q-30 0 -53 -16.5t-23 -70.5v-96h62v-104zM598 396h-62v-396h-124v396h-62v104h62v103q0 58 18 95t46 57.5t64 28t72 7.5v-108q-30 0 -53 -16.5t-23 -70.5v-96h62v-104zM822 694v-117
h-128v117h128zM820 500v-500h-124v500h124z" />
    <glyph glyph-name="f_f_l" unicode="ffl" horiz-adv-x="881" 
d="M281 396h-62v-396h-124v396h-62v104h62v103q0 58 18 95t46 57.5t64 28t72 7.5v-108q-30 0 -53 -16.5t-23 -70.5v-96h62v-104zM598 396h-62v-396h-124v396h-62v104h62v103q0 58 18 95t46 57.5t64 28t72 7.5v-108q-30 0 -53 -16.5t-23 -70.5v-96h62v-104zM820 780v-780
h-124v780h124z" />
    <glyph glyph-name=".notdef" horiz-adv-x="18" 
 />
    <glyph glyph-name=".null" horiz-adv-x="0" 
 />
    <glyph glyph-name="nonmarkingreturn" horiz-adv-x="333" 
 />
    <glyph glyph-name="space" unicode=" " horiz-adv-x="200" 
 />
    <glyph glyph-name="exclam" unicode="!" horiz-adv-x="344" 
d="M226 199h-109l-24 547h157zM99 0v129h145v-129h-145z" />
    <glyph glyph-name="quotedbl" unicode="&#x22;" horiz-adv-x="527" 
d="M71 456l61 290h142l-107 -290h-96zM266 456l61 290h142l-107 -290h-96z" />
    <glyph glyph-name="numbersign" unicode="#" horiz-adv-x="816" 
d="M474 297l29 152h-150l-30 -152h151zM415 0l38 195h-150l-39 -195h-106l38 195h-132v102h153l29 152h-143v102h164l38 195h107l-39 -195h151l38 195h107l-39 -195h122v-102h-142l-31 -152h133v-102h-153l-39 -195h-105z" />
    <glyph glyph-name="dollar" unicode="$" horiz-adv-x="565" 
d="M329 -116h-85v114q-51 1 -102 12.5t-85 33.5v119q48 -31 93 -44t99 -13q68 0 101.5 27.5t33.5 60.5q0 34 -37.5 66.5t-112.5 83.5q-97 66 -136 114t-39 108q0 57 46.5 106.5t138.5 61.5v114h85v-111q35 -2 73 -11t69 -25l1 -115q-31 20 -72.5 32t-85.5 12
q-66 0 -91.5 -22t-25.5 -41q0 -34 32.5 -64.5t100.5 -76.5q48 -35 83.5 -62.5t58.5 -53t34.5 -53t11.5 -62.5q0 -43 -15 -75.5t-40.5 -56t-60 -38t-73.5 -21.5v-120z" />
    <glyph glyph-name="percent" unicode="%" horiz-adv-x="852" 
d="M720 746l-483 -746h-103l481 746h105zM206 746q72 0 118.5 -47.5t46.5 -140.5v-26q0 -93 -47 -140.5t-118 -47.5q-69 0 -116.5 47.5t-47.5 140.5v26q0 93 47.5 140.5t116.5 47.5zM273 532v25q0 60 -18.5 89.5t-48.5 29.5q-28 0 -47 -29.5t-19 -89.5v-25q0 -60 19 -89
t47 -29q29 0 48 29t19 89zM646 402q70 0 117 -47.5t47 -140.5v-26q0 -93 -47 -140.5t-117 -47.5q-69 0 -116.5 47.5t-47.5 140.5v26q0 93 47.5 140.5t116.5 47.5zM712 188v25q0 60 -18.5 89.5t-47.5 29.5t-47.5 -29.5t-18.5 -89.5v-25q0 -60 18.5 -89t47.5 -29t47.5 29
t18.5 89z" />
    <glyph glyph-name="ampersand" unicode="&#x26;" horiz-adv-x="797" 
d="M276 591q0 -34 18.5 -58.5t50.5 -59.5q56 35 83.5 62t27.5 62q0 28 -22.5 53t-68.5 25q-40 0 -64.5 -25t-24.5 -59zM320 81q42 0 81 20t75 52q-43 48 -86.5 97t-75.5 85q-54 -35 -83 -68t-29 -79q0 -44 36 -75t82 -32zM617 0q-7 6 -24 24.5t-40 44.5q-49 -42 -109 -68
t-139 -25q-113 1 -181.5 56t-68.5 144q0 83 53 134t137 102q-47 51 -76 90.5t-29 89.5q0 37 17 70t46.5 56.5t71 37.5t89.5 14q103 0 163.5 -49t60.5 -122q0 -59 -41 -101.5t-108 -85.5q-6 -4 -12 -7.5t-11 -6.5q28 -31 65.5 -73t76.5 -86q22 27 45 55t45 56l81 -85
q-25 -28 -48 -56.5t-46 -55.5q50 -57 87 -98.5t42 -46.5l-4 -8h-143z" />
    <glyph glyph-name="quotesingle" unicode="'" horiz-adv-x="334" 
d="M71 456l61 290h142l-107 -290h-96z" />
    <glyph glyph-name="parenleft" unicode="(" horiz-adv-x="452" 
d="M306 782l71 -75q-25 -25 -52.5 -65t-49.5 -91.5t-36.5 -114t-14.5 -131.5v-13q0 -69 14.5 -131.5t36.5 -114t49 -91t53 -63.5l-71 -75q-34 27 -71 71.5t-67 104t-50 134.5t-20 162v18q0 88 20 163t50 134.5t67 104t71 73.5z" />
    <glyph glyph-name="parenright" unicode=")" horiz-adv-x="452" 
d="M145 782q34 -29 70.5 -73.5t66.5 -104t50 -134.5t20 -163v-18q0 -87 -20 -162t-50 -134.5t-67 -104t-71 -71.5l-70 75q26 24 53.5 63.5t49.5 91t36.5 114t14.5 131.5v13q0 69 -14.5 131.5t-37 114t-50 91.5t-52.5 65z" />
    <glyph glyph-name="asterisk" unicode="*" horiz-adv-x="413" 
d="M277 409l-69 135l-70 -137l-74 53l107 103l-133 19l28 87l120 -64l-24 141h90l-23 -139l117 63l29 -87l-130 -19l105 -103z" />
    <glyph glyph-name="plus" unicode="+" horiz-adv-x="657" 
d="M600 300h-213v-234h-117v234h-214v102h214v217h117v-217h213v-102z" />
    <glyph glyph-name="comma" unicode="," horiz-adv-x="315" 
d="M102 131h147l-103 -283h-97z" />
    <glyph glyph-name="hyphen" unicode="-" horiz-adv-x="407" 
d="M349 335v-117h-291v117h291z" />
    <glyph glyph-name="period" unicode="." horiz-adv-x="293" 
d="M72 141h148v-141h-148v141z" />
    <glyph glyph-name="slash" unicode="/" horiz-adv-x="586" 
d="M555 780l-489 -1000h-124l486 1000h127z" />
    <glyph glyph-name="zero" unicode="0" horiz-adv-x="671" 
d="M336 770q60 0 110.5 -23.5t87.5 -70t57.5 -116.5t20.5 -162v-52q0 -91 -21 -160.5t-57.5 -116t-87.5 -70t-110 -23.5t-110 23.5t-88 70t-58 116t-21 160.5v52q0 92 21 162t58 116.5t88 70t110 23.5zM486 345v52q0 134 -42 199t-108 65q-65 0 -108 -65t-43 -199v-52
q0 -134 43 -198t108 -64q66 0 108 64t42 198z" />
    <glyph glyph-name="one" unicode="1" horiz-adv-x="405" 
d="M321 0h-126v560l-141 -143v162l168 167h99v-746z" />
    <glyph glyph-name="two" unicode="2" horiz-adv-x="620" 
d="M530 0h-485l-8 17q14 16 55 64.5t87.5 103t87.5 103.5t54 66q49 59 68.5 97.5t19.5 83.5q0 48 -38 86.5t-101 38.5q-40 0 -82 -14.5t-86 -51.5l1 130q41 23 87.5 34.5t93.5 11.5q57 0 105 -18.5t81.5 -49.5t52 -73t18.5 -89q0 -69 -32 -122t-89 -122q-10 -12 -29 -33.5
t-42 -47.5t-49 -54.5t-50 -54.5h324z" />
    <glyph glyph-name="three" unicode="3" horiz-adv-x="554" 
d="M219 -24q-19 0 -43 2t-49 6.5t-48.5 11.5t-40.5 17v109q16 -10 36.5 -17.5t41 -13t39.5 -8t31 -2.5q87 -1 141.5 39.5t54.5 101.5t-52 97.5t-130 36.5h-53l4 103h49q60 0 100 32.5t40 77.5q0 43 -36.5 70t-93.5 27q-30 0 -62 -5.5t-65 -21.5l10 110q25 10 59 15.5t80 5.5
q49 0 92 -14t75 -38.5t50 -58.5t18 -74q-1 -49 -29 -94.5t-74 -71.5q63 -25 103 -78t40 -123q0 -52 -21 -96.5t-59 -76.5t-91.5 -50.5t-116.5 -18.5z" />
    <glyph glyph-name="four" unicode="4" horiz-adv-x="667" 
d="M407 246v305l-203 -305h203zM599 142h-65v-142h-127v142h-363l-9 22l392 582h107v-500h95z" />
    <glyph glyph-name="five" unicode="5" horiz-adv-x="624" 
d="M230 -24q-41 0 -92 11.5t-94 33.5v111q42 -23 89.5 -36.5t96.5 -13.5q83 0 137.5 46.5t54.5 119.5q0 61 -52 103t-138 42q-41 0 -76.5 -7t-69.5 -19l93 379h399l-33 -108h-280l-39 -146q11 1 22.5 1.5t21.5 0.5q66 0 119 -18t89 -50.5t55 -77.5t19 -99q0 -59 -23 -109.5
t-65 -86.5t-101.5 -56.5t-132.5 -20.5z" />
    <glyph glyph-name="six" unicode="6" horiz-adv-x="640" 
d="M322 -24q-58 0 -109 18t-88.5 51.5t-59.5 82t-22 108.5t25 124t64.5 129t89.5 130t100 127h157q-69 -80 -131 -156t-107 -144v0q26 15 56 23.5t64 8.5q50 0 94.5 -19t77 -52t51.5 -77.5t19 -94.5q0 -53 -21 -100.5t-58.5 -82.5t-89 -55.5t-112.5 -20.5zM322 382
q-31 0 -59 -12t-49.5 -32t-34 -47.5t-12.5 -58.5q0 -30 12.5 -57.5t34 -48t49.5 -32.5t59 -12q64 0 109 45t45 105q0 62 -45 106t-109 44z" />
    <glyph glyph-name="seven" unicode="7" horiz-adv-x="604" 
d="M260 0h-140l273 634h-353l37 112h500z" />
    <glyph glyph-name="eight" unicode="8" horiz-adv-x="633" 
d="M316 -24q-63 0 -115.5 18t-89 49.5t-56.5 75.5t-20 94q0 65 35.5 117t98.5 81q-44 25 -68.5 66t-24.5 89q0 42 17 79t48.5 65t76 44t98.5 16q56 0 101 -16t76 -44t48 -65t17 -79q0 -49 -24.5 -89.5t-69.5 -66.5q63 -29 98.5 -81t35.5 -116q0 -50 -20.5 -94t-57 -75.5
t-89 -49.5t-115.5 -18zM316 447q48 0 83 32t35 78t-34.5 77.5t-83.5 31.5t-83.5 -31.5t-34.5 -77.5t34.5 -78t83.5 -32zM316 78q65 0 111 41t46 101t-46 100t-111 40q-63 0 -109 -40t-46 -100t46 -101t109 -41z" />
    <glyph glyph-name="nine" unicode="9" horiz-adv-x="640" 
d="M318 0h-157q69 79 131 155.5t107 144.5v1q-26 -16 -56 -24.5t-64 -8.5q-50 0 -94 19t-76.5 52t-51.5 77.5t-19 94.5q0 53 21 100.5t58 82.5t88.5 55.5t111.5 20.5q58 0 109.5 -18t89.5 -51.5t60 -82t22 -108.5t-25 -124t-64.5 -129t-90 -130t-100.5 -127zM317 364
q63 0 109 44t46 106q0 60 -46 105t-109 45t-108.5 -45t-45.5 -105q0 -62 45.5 -106t108.5 -44z" />
    <glyph glyph-name="colon" unicode=":" horiz-adv-x="290" 
d="M74 462h143v-147h-143v147zM74 148h143v-148h-143v148z" />
    <glyph glyph-name="semicolon" unicode=";" horiz-adv-x="316" 
d="M95 462h141v-147h-141v147zM95 116h143l-85 -257h-100z" />
    <glyph glyph-name="less" unicode="&#x3c;" horiz-adv-x="597" 
d="M553 14l-510 245v102l510 246v-114l-396 -182l396 -179v-118z" />
    <glyph glyph-name="equal" unicode="=" horiz-adv-x="587" 
d="M532 495v-95h-476v95h476zM532 279v-95h-476v95h476z" />
    <glyph glyph-name="greater" unicode="&#x3e;" horiz-adv-x="597" 
d="M44 14v118l396 179l-396 182v114l510 -246v-102z" />
    <glyph glyph-name="question" unicode="?" horiz-adv-x="584" 
d="M318 188h-119v207h32q31 0 59 8.5t49.5 25.5t34.5 42.5t13 59.5q0 49 -39 86t-111 37q-40 0 -80 -13t-82 -46l-4 113q44 26 93.5 39.5t99.5 13.5q111 0 179.5 -62t68.5 -162q0 -50 -15.5 -90.5t-42 -69t-62 -46.5t-74.5 -24v-119zM198 0v119h122v-119h-122z" />
    <glyph glyph-name="at" unicode="@" horiz-adv-x="1037" 
d="M546 -190q-109 0 -198.5 36.5t-152.5 100t-98 149.5t-35 184q0 91 33.5 174.5t94.5 146t148 99.5t193 37q101 0 184 -34t141 -91t90 -133.5t32 -160.5q0 -76 -20 -129.5t-50 -86t-66 -47.5t-68 -15q-52 0 -84 24t-42 60q-28 -34 -68.5 -55.5t-90.5 -22.5
q-46 -1 -85.5 14.5t-68.5 44.5t-45.5 69.5t-16.5 88.5q0 49 17 89.5t46 70t68.5 46.5t84.5 17q47 1 87 -20t68 -54v54h106v-309q0 -32 15 -39.5t26 -7.5q15 0 35.5 11t39 35.5t31.5 65t13 97.5q0 71 -27 136t-76 114t-119.5 78.5t-156.5 29.5q-91 0 -165 -33.5t-126.5 -88.5
t-81 -126.5t-28.5 -147.5q0 -81 29 -155.5t82.5 -131t131 -90.5t173.5 -34q42 0 86 5.5t85 16t77 26.5t62 36l34 -54q-29 -21 -69.5 -38t-86 -28.5t-94 -17.5t-94.5 -6zM513 143q50 0 85 37.5t35 85.5q0 47 -34 84t-86 37q-49 0 -86 -32t-37 -90t37 -90t86 -32z" />
    <glyph glyph-name="A" unicode="A" horiz-adv-x="756" 
d="M504 242l-127 339l-129 -339h256zM595 0l-50 133h-338l-51 -133h-140l295 746h135l294 -746h-145z" />
    <glyph glyph-name="B" unicode="B" horiz-adv-x="599" 
d="M316 0h-249v746h228q64 0 108 -15t70.5 -40.5t38.5 -60.5t12 -74q0 -47 -24 -90.5t-68 -72.5q57 -28 89 -78t32 -112q0 -38 -14 -75t-42.5 -65t-73.5 -45.5t-107 -17.5zM267 636h-64v-204h60q64 0 101 30t37 77q-1 41 -29.5 69t-104.5 28zM277 333h-74v-223h77
q78 0 107 32.5t29 75.5q0 53 -36.5 84t-102.5 31z" />
    <glyph glyph-name="C" unicode="C" horiz-adv-x="671" 
d="M618 732v-132q-35 22 -75.5 33t-84.5 11q-58 0 -109 -22t-88.5 -58.5t-59.5 -85.5t-22 -103q0 -55 22 -104.5t59.5 -87t88.5 -59.5t109 -22q44 0 84.5 11t75.5 33v-133q-37 -17 -79.5 -26.5t-87.5 -9.5q-87 0 -162 31t-129.5 85t-85.5 126.5t-31 154.5t31 154t85.5 125.5
t129.5 84.5t162 31q45 0 87 -9.5t80 -27.5z" />
    <glyph glyph-name="D" unicode="D" horiz-adv-x="704" 
d="M67 0v746h205q75 0 144.5 -23.5t123 -69.5t85.5 -116t32 -163q0 -94 -32 -164.5t-85 -116.5t-122.5 -69.5t-144.5 -23.5h-206zM203 624v-502h73q48 0 92.5 16t78.5 47.5t54 79t20 109.5q0 61 -20 108t-54 78t-78.5 47.5t-92.5 16.5h-73z" />
    <glyph glyph-name="E" unicode="E" horiz-adv-x="537" 
d="M67 0v746h403v-119h-267v-183h244v-112h-244v-213h275v-119h-411z" />
    <glyph glyph-name="F" unicode="F" horiz-adv-x="544" 
d="M67 0v746h429v-119h-293v-202h261v-119h-261v-306h-136z" />
    <glyph glyph-name="G" unicode="G" horiz-adv-x="873" 
d="M832 373q0 -82 -29.5 -154.5t-80.5 -126.5t-120 -85t-148 -31q-86 0 -161.5 31.5t-130.5 85t-87 126.5t-32 155t32 154.5t87 126t130.5 84.5t161.5 31q81 0 154.5 -28.5t125.5 -75.5l-89 -96q-39 36 -88 56t-103 20q-57 0 -107.5 -22t-87.5 -59t-58.5 -86.5t-21.5 -103.5
q0 -56 21.5 -106t58.5 -87.5t87.5 -59.5t107.5 -22q44 0 84 16t71 43.5t52.5 64.5t29.5 80h-221l49 115h313v-46z" />
    <glyph glyph-name="H" unicode="H" horiz-adv-x="715" 
d="M67 0v746h136v-288h309v288h136v-746h-136v337h-309v-337h-136z" />
    <glyph glyph-name="I" unicode="I" horiz-adv-x="273" 
d="M69 0v746h135v-746h-135z" />
    <glyph glyph-name="J" unicode="J" horiz-adv-x="386" 
d="M25 0v126q17 -8 35 -12.5t36 -4.5q37 0 61.5 29t24.5 120v488h136v-530q0 -117 -47 -174.5t-158 -57.5q-25 0 -47 3.5t-41 12.5z" />
    <glyph glyph-name="K" unicode="K" horiz-adv-x="699" 
d="M509 0l-246 325l-60 -68v-257h-136v746h136v-305l260 305h166l-276 -320l324 -426h-168z" />
    <glyph glyph-name="L" unicode="L" horiz-adv-x="498" 
d="M67 746h136v-624h264v-122h-400v746z" />
    <glyph glyph-name="M" unicode="M" horiz-adv-x="900" 
d="M444 135l-242 377v-512h-135v746h142l247 -391l238 391h139v-746h-135v509l-234 -374h-20z" />
    <glyph glyph-name="N" unicode="N" horiz-adv-x="776" 
d="M577 0l-374 521v-521h-136v746h135l370 -515v515h136v-746h-131z" />
    <glyph glyph-name="O" unicode="O" horiz-adv-x="907" 
d="M454 770q85 0 160.5 -31t130.5 -84.5t87 -126t32 -154.5t-32 -155t-87 -126.5t-130.5 -85t-160.5 -31.5q-86 0 -161.5 31.5t-130.5 85t-87 126.5t-32 155t32 154.5t87 126t130.5 84.5t161.5 31zM454 646q-57 0 -107.5 -22t-87.5 -59t-58.5 -86.5t-21.5 -104.5
q0 -56 21.5 -106t58.5 -87t87.5 -59t107.5 -22t107 22t86.5 59t58 87t21.5 106q0 55 -21.5 104.5t-58 86.5t-86.5 59t-107 22z" />
    <glyph glyph-name="P" unicode="P" horiz-adv-x="585" 
d="M263 269h-60v-269h-136v746h200q60 0 111 -12t88 -39.5t58.5 -73.5t21.5 -113q0 -62 -24.5 -107t-64.5 -74.5t-90.5 -43.5t-103.5 -14zM277 624h-74v-234h74q59 0 96.5 32t37.5 86q0 51 -31 83.5t-103 32.5z" />
    <glyph glyph-name="Q" unicode="Q" horiz-adv-x="907" 
d="M454 646q-57 0 -107.5 -22t-87.5 -59t-58.5 -86.5t-21.5 -104.5q0 -56 21.5 -106t58.5 -87t87.5 -59t107.5 -22t107 22t86.5 59t58 87t21.5 106q0 55 -21.5 104.5t-58 86.5t-86.5 59t-107 22zM855 -23h-373q-7 -1 -14 -1h-14q-86 0 -161.5 31.5t-130.5 85t-87 126.5
t-32 155t32 154.5t87 126t130.5 84.5t161.5 31q85 0 160.5 -31t130.5 -84t87 -125t32 -152q0 -91 -47.5 -172t-125.5 -130l182 19z" />
    <glyph glyph-name="R" unicode="R" horiz-adv-x="632" 
d="M260 624h-57v-234h56q61 0 98 33t37 87q0 49 -34 81.5t-100 32.5zM438 0l-226 279h-9v-279h-136v746h190q58 0 108 -13.5t86 -42t57 -73t21 -106.5q0 -81 -48.5 -135t-117.5 -78l240 -298h-165z" />
    <glyph glyph-name="S" unicode="S" horiz-adv-x="525" 
d="M438 737l-1 -122q-28 14 -64.5 24t-72.5 10q-57 0 -80.5 -22t-23.5 -47q0 -33 28.5 -63t88.5 -79q93 -76 131 -131.5t38 -113.5q0 -48 -19.5 -86.5t-54 -64.5t-81 -40t-100.5 -14q-42 0 -93.5 9.5t-82.5 23.5l2 123q34 -19 82.5 -31.5t94.5 -12.5q56 0 85 27.5t29 61.5
t-29 69t-95 87q-44 36 -75.5 65.5t-51 56t-28.5 53.5t-9 59q0 35 14 68t43.5 58t74.5 40.5t106 15.5q34 0 73.5 -6t70.5 -18z" />
    <glyph glyph-name="T" unicode="T" horiz-adv-x="454" 
d="M159 0v625h-131v121h398v-121h-131v-625h-136z" />
    <glyph glyph-name="U" unicode="U" horiz-adv-x="718" 
d="M650 307q0 -155 -74.5 -243t-216.5 -88q-141 0 -216.5 88t-75.5 243v439h136v-470q0 -43 13 -76.5t35 -55.5t50 -33.5t58 -11.5q31 0 59 11.5t49.5 33.5t34 55.5t12.5 76.5v470h136v-439z" />
    <glyph glyph-name="V" unicode="V" horiz-adv-x="741" 
d="M442 0h-145l-283 746h146l214 -578l213 578h140z" />
    <glyph glyph-name="W" unicode="W" horiz-adv-x="1023" 
d="M660 0l-147 534l-151 -534h-132l-214 746h141l148 -547l147 547h126l145 -546l149 546h135l-215 -746h-132z" />
    <glyph glyph-name="X" unicode="X" horiz-adv-x="700" 
d="M526 0l-178 301l-173 -301h-150l233 391l-214 355h152l153 -258l155 258h147l-213 -352l237 -394h-149z" />
    <glyph glyph-name="Y" unicode="Y" horiz-adv-x="670" 
d="M403 0h-136v240l-256 506h148l178 -376l184 376h139l-257 -506v-240z" />
    <glyph glyph-name="Z" unicode="Z" horiz-adv-x="658" 
d="M580 0h-546l-2 16l365 613h-320l52 117h477l3 -16l-366 -613h387z" />
    <glyph glyph-name="bracketleft" unicode="[" horiz-adv-x="445" 
d="M130 -214v960h252v-81h-127v-798h135v-81h-260z" />
    <glyph glyph-name="backslash" unicode="\" horiz-adv-x="589" 
d="M32 780h128l487 -1000h-126z" />
    <glyph glyph-name="bracketright" unicode="]" horiz-adv-x="445" 
d="M315 -214h-261v81h135v798h-127v81h253v-960z" />
    <glyph glyph-name="asciicircum" unicode="^" horiz-adv-x="667" 
d="M489 369l-156 270l-157 -270h-119l224 377h102l226 -377h-120z" />
    <glyph glyph-name="underscore" unicode="_" horiz-adv-x="536" 
d="M518 -52v-99h-500v99h500z" />
    <glyph glyph-name="grave" unicode="`" horiz-adv-x="536" 
d="M130 790h152l82 -147h-102z" />
    <glyph glyph-name="a" unicode="a" horiz-adv-x="540" 
d="M262 57q41 0 68.5 27t27.5 64q0 36 -26.5 61.5t-69.5 25.5t-69 -25.5t-26 -61.5q0 -37 26 -64t69 -27zM365 0v49q-24 -28 -62 -47.5t-89 -19.5q-77 0 -126 46.5t-49 116.5q0 69 50.5 117t134.5 48q43 0 76.5 -11.5t56.5 -29.5v28q0 65 -31.5 90t-86.5 25q-24 0 -51 -3.5
t-73 -12.5l-4 102q46 9 78.5 12.5t72.5 3.5q110 0 164.5 -51.5t54.5 -135.5v-327h-116z" />
    <glyph glyph-name="b" unicode="b" horiz-adv-x="668" 
d="M377 -19q-63 0 -114.5 26.5t-85.5 71.5v-79h-118v780h125v-354q34 43 84 68t109 25q53 0 99 -21.5t79.5 -58.5t52.5 -86t19 -104q0 -56 -19 -105t-52.5 -85t-79.5 -57t-99 -21zM181 249q0 -32 12 -61t33.5 -50.5t50.5 -34.5t63 -13t62.5 13t49.5 35t33 51t12 61t-12 61.5
t-33 51t-49.5 34.5t-62.5 13t-63 -13t-50.5 -35t-33.5 -51.5t-12 -61.5z" />
    <glyph glyph-name="c" unicode="c" horiz-adv-x="505" 
d="M453 119v-111q-22 -13 -57 -18.5t-63 -5.5q-62 0 -116 20.5t-93.5 56t-62 84.5t-22.5 105t22.5 105t62 84.5t93.5 56t116 20.5q27 0 62 -6t58 -19v-112h-4q-26 18 -55.5 24.5t-56.5 6.5q-71 0 -119 -46.5t-48 -113.5t48 -113.5t119 -46.5q27 0 55.5 6t56.5 23h4z" />
    <glyph glyph-name="d" unicode="d" horiz-adv-x="668" 
d="M487 249q0 32 -12 61.5t-33.5 51.5t-50.5 35t-63 13t-62.5 -13t-49.5 -34.5t-33 -51t-12 -61.5t12 -61t33 -51t49.5 -35t62.5 -13t63 13t50.5 34.5t33.5 50.5t12 61zM492 0v80q-34 -45 -85.5 -72t-115.5 -27q-53 0 -99 21t-79.5 57t-52.5 85t-19 105q0 55 19 104t52.5 86
t79.5 58.5t99 21.5q59 0 109 -25t84 -68v354h124v-780h-116z" />
    <glyph glyph-name="e" unicode="e" horiz-adv-x="623" 
d="M315 422q-53 0 -89.5 -31.5t-49.5 -85.5h276q-13 53 -49 85t-88 32zM578 65q-40 -37 -100.5 -63t-140.5 -26q-68 0 -123.5 21t-94 57.5t-59.5 87t-21 108.5t20.5 108.5t57 87t87.5 57.5t112 21q56 0 105.5 -20.5t85.5 -56.5t57 -86t21 -108v-32h-414q8 -69 53 -107
t115 -38q54 0 96.5 18.5t74.5 47.5z" />
    <glyph glyph-name="f" unicode="f" horiz-adv-x="317" 
d="M281 396h-62v-396h-124v396h-62v104h62v103q0 58 18 95t46 57.5t64 28t72 7.5v-108q-30 0 -53 -16.5t-23 -70.5v-96h62v-104z" />
    <glyph glyph-name="g" unicode="g" horiz-adv-x="645" 
d="M319 120q60 0 102.5 43t42.5 103t-42.5 103t-102.5 43t-103.5 -43t-43.5 -103t43.5 -103t103.5 -43zM306 -215q-38 0 -80 3.5t-88 13.5v109q52 -11 91 -15t74 -4q67 0 113 32.5t46 125.5v45q-34 -37 -79.5 -59t-93.5 -22q-49 0 -94 17.5t-79 50.5t-54.5 80t-20.5 104
q0 58 20.5 105t54.5 80t79 51.5t94 18.5t96 -23.5t81 -63.5v66h120v-446q0 -146 -73 -207.5t-207 -61.5z" />
    <glyph glyph-name="h" unicode="h" horiz-adv-x="579" 
d="M184 297v-297h-125v780h121v-343q23 28 65 51.5t97 23.5q78 0 128.5 -49.5t50.5 -136.5v-326h-124v289q0 62 -31 87.5t-74 25.5q-18 0 -37.5 -7t-35 -20t-25.5 -33t-10 -45z" />
    <glyph glyph-name="i" unicode="i" horiz-adv-x="247" 
d="M188 694v-117h-128v117h128zM186 500v-500h-124v500h124z" />
    <glyph glyph-name="j" unicode="j" horiz-adv-x="247" 
d="M188 694v-117h-128v117h128zM-32 -107h14q38 0 59 21.5t21 67.5v518h124v-519q0 -110 -49 -154.5t-156 -44.5h-13v111z" />
    <glyph glyph-name="k" unicode="k" horiz-adv-x="558" 
d="M385 0l-151 221l-50 -52v-169h-125v780h125v-460l182 180h157l-197 -198l210 -302h-151z" />
    <glyph glyph-name="l" unicode="l" horiz-adv-x="247" 
d="M186 780v-780h-124v780h124z" />
    <glyph glyph-name="m" unicode="m" horiz-adv-x="849" 
d="M184 298v-298h-125v500h120v-72q17 30 53.5 57.5t90.5 27.5q51 0 90 -25t58 -71q7 16 20.5 33t32.5 31t44.5 23t57.5 9q74 0 120 -50t46 -137v-326h-125v289q0 63 -24.5 88.5t-64.5 25.5q-34 0 -62.5 -27t-28.5 -81v-295h-124v289q0 63 -25.5 88.5t-62.5 25.5t-64 -27.5
t-27 -77.5z" />
    <glyph glyph-name="n" unicode="n" horiz-adv-x="579" 
d="M184 298v-298h-125v500h119v-62q23 28 65 51.5t99 23.5q78 0 128.5 -50t50.5 -137v-326h-124v289q0 63 -31.5 88t-73.5 25q-18 0 -37.5 -7t-35 -20t-25.5 -32.5t-10 -44.5z" />
    <glyph glyph-name="o" unicode="o" horiz-adv-x="658" 
d="M329 524q62 0 115.5 -21.5t92 -58.5t60.5 -87t22 -107t-22 -107t-60.5 -87t-92 -58.5t-115.5 -21.5t-115.5 21.5t-92 58.5t-60.5 87t-22 107t22 107t60.5 87t92 58.5t115.5 21.5zM329 417q-34 0 -63.5 -13.5t-50.5 -36t-33 -53t-12 -64.5q0 -69 45 -118t114 -49
q34 0 63.5 13.5t51 36t33.5 53t12 64.5t-12 64.5t-33.5 53t-51 36t-63.5 13.5z" />
    <glyph glyph-name="p" unicode="p" horiz-adv-x="668" 
d="M181 251q0 -32 12 -61.5t33.5 -51.5t50.5 -35t63 -13t62.5 13t49.5 34.5t33 51t12 61.5t-12 61t-33 51t-49.5 35t-62.5 13t-63 -13t-50.5 -34.5t-33.5 -50.5t-12 -61zM377 -19q-59 0 -109 25t-84 68v-287h-125v713h118v-79q34 45 85.5 71.5t114.5 26.5q53 0 99 -21
t79.5 -57t52.5 -85t19 -105q0 -55 -19 -104t-52.5 -86t-79.5 -58.5t-99 -21.5z" />
    <glyph glyph-name="q" unicode="q" horiz-adv-x="667" 
d="M607 -213h-123v288q-34 -43 -84.5 -68.5t-110.5 -25.5q-53 0 -98.5 21.5t-78.5 58.5t-52 86t-19 104q0 56 19 105t52 85t78.5 57t98.5 21q64 0 116 -27t86 -73v81h116v-713zM487 251q0 32 -12 61t-33.5 50.5t-50.5 34.5t-63 13t-62.5 -13t-49.5 -35t-33 -51t-12 -61
t12 -61.5t33 -51t49.5 -34.5t62.5 -13t63 13t50.5 35t33.5 51.5t12 61.5z" />
    <glyph glyph-name="r" unicode="r" horiz-adv-x="377" 
d="M184 262v-262h-125v500h119v-106q7 15 20 33.5t31 35t41.5 28t50.5 11.5h17v-139q-4 2 -11.5 3t-12.5 1q-30 0 -54 -10.5t-41 -26t-26 -34t-9 -34.5z" />
    <glyph glyph-name="s" unicode="s" horiz-adv-x="433" 
d="M226 516q33 0 62 -5.5t51 -14.5v-107q-28 13 -55 20t-46 7q-28 0 -45 -10.5t-17 -29.5q0 -14 17.5 -29.5t56.5 -40.5q84 -55 113.5 -94t29.5 -83q0 -63 -49.5 -103.5t-137.5 -41.5q-37 0 -77.5 10t-70.5 23v107q37 -19 72.5 -28.5t58.5 -9.5q37 0 54 14t17 33
q0 13 -15.5 32t-74.5 56q-75 49 -100 83t-25 78q0 25 10 49t32 43t56.5 30.5t82.5 11.5z" />
    <glyph glyph-name="t" unicode="t" horiz-adv-x="315" 
d="M281 396h-62v-396h-124v396h-62v104h62v159l124 37v-196h62v-104z" />
    <glyph glyph-name="u" unicode="u" horiz-adv-x="579" 
d="M401 0v63q-23 -28 -65.5 -52t-98.5 -24q-78 0 -129 50t-51 137v326h125v-289q0 -63 31 -88t74 -25q18 0 37.5 7t35.5 20t26 32.5t10 44.5v298h123v-500h-118z" />
    <glyph glyph-name="v" unicode="v" horiz-adv-x="593" 
d="M371 0h-149l-208 500h137l147 -373l151 373h130z" />
    <glyph glyph-name="w" unicode="w" horiz-adv-x="818" 
d="M518 0l-107 326l-105 -326h-119l-172 500h130l102 -339l107 339h115l107 -339l102 339h125l-171 -500h-114z" />
    <glyph glyph-name="x" unicode="x" horiz-adv-x="580" 
d="M411 0l-125 182l-128 -182h-132l185 258l-168 242h139l114 -173l118 173h132l-175 -243l173 -257h-133z" />
    <glyph glyph-name="y" unicode="y" horiz-adv-x="582" 
d="M299 -213h-128l73 199l-229 514h139l151 -371l134 371h128z" />
    <glyph glyph-name="z" unicode="z" horiz-adv-x="544" 
d="M459 0h-424l-6 11l274 384h-225l43 105h377l6 -11l-272 -384h269z" />
    <glyph glyph-name="braceleft" unicode="{" horiz-adv-x="462" 
d="M379 -214h-86q-61 0 -96.5 28.5t-35.5 109.5v201q0 46 -15.5 68t-40.5 29q-1 1 -4 1.5t-4 1.5v80q1 1 4 1.5t4 1.5q25 7 40.5 29t15.5 67v204q0 81 35.5 109.5t96.5 28.5h86v-81h-35q-30 0 -44 -16t-14 -70v-173q0 -47 -19 -80.5t-61 -51.5v-18q42 -17 61 -49t19 -80
v-182q0 -54 14 -66t44 -12h35v-81z" />
    <glyph glyph-name="bar" unicode="|" horiz-adv-x="239" 
d="M77 746h84v-906h-84v906z" />
    <glyph glyph-name="braceright" unicode="}" horiz-adv-x="462" 
d="M169 -214h-86v73h35q28 0 43 13t15 68v187q0 48 18.5 80t61.5 50v17q-43 18 -61.5 51.5t-18.5 80.5v181q0 54 -15 70t-43 16h-35v73h86q60 0 96 -28.5t36 -109.5v-204q0 -45 15.5 -67t40.5 -29q1 -1 4 -1.5t4 -1.5v-80q-1 -1 -4 -1.5t-4 -1.5q-25 -7 -40.5 -29t-15.5 -68
v-201q0 -81 -36 -109.5t-96 -28.5z" />
    <glyph glyph-name="asciitilde" unicode="~" horiz-adv-x="701" 
d="M179 225l-110 8q0 101 43.5 145t106.5 44q30 0 64 -16t67.5 -35.5t64.5 -35.5t56 -16q21 0 36 14.5t15 65.5l110 -8q0 -90 -38 -137.5t-104 -47.5q-31 0 -66 16t-69.5 35t-66.5 35t-57 16q-19 0 -35.5 -15.5t-16.5 -67.5z" />
    <glyph glyph-name="exclamdown" unicode="&#xa1;" horiz-adv-x="344" 
d="M99 746h145v-129h-145v129zM226 547l24 -547h-157l24 547h109z" />
    <glyph glyph-name="cent" unicode="&#xa2;" horiz-adv-x="548" 
d="M506 0q-27 -11 -57 -16.5t-56 -6.5v-94h-85v99q-58 10 -107 36.5t-84.5 66.5t-55.5 91.5t-20 110.5t20 110.5t55.5 91.5t84.5 66.5t107 36.5v103h85v-98q26 -1 55.5 -7.5t57.5 -19.5v-116h-4q-29 20 -62.5 28t-60.5 8q-42 0 -79.5 -16t-65.5 -43.5t-44.5 -64.5t-16.5 -79
t16.5 -79.5t44.5 -64.5t65.5 -43t79.5 -16q28 0 58 6.5t65 25.5h4v-116z" />
    <glyph glyph-name="sterling" unicode="&#xa3;" horiz-adv-x="634" 
d="M577 101v-101h-518v101h26q43 0 63.5 28t20.5 85v131h-84v81h84v138q0 47 20.5 83.5t54 61.5t78.5 38.5t93 13.5q31 0 63 -4t63 -17v-111q-26 14 -53 20t-54 6q-25 0 -49.5 -7t-44 -20.5t-31 -32.5t-11.5 -43v-126h182v-81h-182v-131q0 -39 -9.5 -67.5t-25.5 -45.5h314z
" />
    <glyph glyph-name="currency" unicode="&#xa4;" horiz-adv-x="608" 
d="M493 146l-91 89q-21 -13 -45.5 -20t-52.5 -7t-52.5 7t-45.5 20l-91 -89l-67 70l90 89q-11 21 -17.5 44t-6.5 48t6.5 48t17.5 44l-90 89l67 70l91 -89q21 13 45.5 20t52.5 7t52.5 -7t45.5 -20l91 89l67 -69l-91 -90q11 -21 17.5 -44t6.5 -48q0 -24 -6 -47.5t-18 -43.5
l91 -90zM304 505q-46 0 -75.5 -32.5t-29.5 -75.5t29.5 -75.5t75.5 -32.5t76 32.5t30 75.5t-30 75.5t-76 32.5z" />
    <glyph glyph-name="yen" unicode="&#xa5;" horiz-adv-x="691" 
d="M620 161h-207v-161h-136v161h-199v79h199v32l-26 50h-173v80h132l-178 344h148l166 -347l173 347h140l-179 -344h140v-80h-182l-25 -48v-34h207v-79z" />
    <glyph glyph-name="brokenbar" unicode="&#xa6;" horiz-adv-x="239" 
d="M77 746h84v-403h-84v403zM77 243h84v-403h-84v403z" />
    <glyph glyph-name="section" unicode="&#xa7;" horiz-adv-x="570" 
d="M293 187q19 -10 36.5 -19.5t32.5 -19.5q25 12 39.5 34t14.5 50q0 12 -4.5 26.5t-18 32.5t-39 38t-67.5 42q-12 5 -23 11t-21 11q-37 -4 -60 -25.5t-23 -52.5q0 -29 25.5 -58.5t107.5 -69.5zM245 -223q-43 0 -85.5 11.5t-75.5 30.5l2 116q40 -23 79.5 -37t79.5 -14
q49 0 80.5 22.5t31.5 58.5q0 13 -4.5 27t-19.5 30t-43 34.5t-74 42.5q-85 38 -125.5 82.5t-40.5 105.5q0 47 28.5 93t82.5 69q-33 30 -46 61.5t-13 67.5q0 34 13.5 68t39 61t64 44t88.5 17q32 0 62.5 -7t64.5 -25l-1 -108q-30 17 -61 25.5t-66 8.5t-63 -20t-28 -51
q0 -30 31.5 -55t94.5 -61q110 -56 148 -111.5t38 -114.5q0 -60 -27.5 -100.5t-68.5 -61.5q22 -28 31.5 -57t9.5 -58q0 -51 -19.5 -88t-51.5 -60.5t-73 -35t-83 -11.5z" />
    <glyph glyph-name="dieresis" unicode="&#xa8;" horiz-adv-x="536" 
d="M436 778v-103h-116v103h116zM216 778v-103h-116v103h116z" />
    <glyph glyph-name="copyright" unicode="&#xa9;" horiz-adv-x="908" 
d="M455 756q83 0 154.5 -30t123.5 -82t81.5 -122t29.5 -149t-29.5 -149t-81.5 -122t-123.5 -82t-154.5 -30t-155 30t-124 82t-81.5 122t-29.5 149t29.5 149t81.5 122t124 82t155 30zM455 712q-70 0 -132.5 -27t-108.5 -72.5t-73 -107.5t-27 -132t27 -132t73 -108
t108.5 -72.5t132.5 -26.5q69 0 131 26.5t108 72.5t73 108t27 132t-27 132t-73 107.5t-108 72.5t-131 27zM621 555l-49 -74q-24 16 -48 25t-50 9q-60 0 -101.5 -41t-41.5 -98t41.5 -98.5t101.5 -41.5q26 0 50 9t48 25l49 -74q-34 -28 -73 -42.5t-80 -14.5q-52 0 -96.5 19
t-77 51t-51 75t-18.5 92t18.5 92t51 75t77 50.5t96.5 18.5q41 0 80 -14.5t73 -42.5z" />
    <glyph glyph-name="ordfeminine" unicode="&#xaa;" horiz-adv-x="421" 
d="M202 435q25 0 42 16t17 40q0 22 -16.5 37.5t-42.5 15.5q-27 0 -42.5 -15.5t-15.5 -37.5q0 -23 15.5 -39.5t42.5 -16.5zM269 384v35q-17 -19 -45.5 -33.5t-67.5 -14.5q-55 0 -90.5 33t-35.5 84t37 86t100 35q29 0 52.5 -7t39.5 -18v11q0 40 -20.5 56.5t-62.5 15.5
q-17 0 -38 -2.5t-53 -9.5l-2 93q34 7 59 9t57 2q87 0 131 -38t44 -100v-237h-105z" />
    <glyph glyph-name="guillemotleft" unicode="&#xab;" horiz-adv-x="578" 
d="M324 0h-107l-161 248v3l161 249h109l-161 -249zM517 0h-107l-161 248v3l161 249h109l-161 -249z" />
    <glyph glyph-name="logicalnot" unicode="&#xac;" horiz-adv-x="690" 
d="M632 125h-128v204h-456v109h584v-313z" />
    <glyph glyph-name="registered" unicode="&#xae;" horiz-adv-x="563" 
d="M282 756q50 0 92.5 -18t73.5 -49t49 -73t18 -89t-18 -89.5t-49 -73.5t-73.5 -49t-92.5 -18t-93 18t-74 49t-49 73.5t-18 89.5t18 89t49 73t74 49t93 18zM282 730q-42 0 -79.5 -16t-65 -43t-44 -64.5t-16.5 -79.5t16.5 -79.5t44 -65t65 -43.5t79.5 -16t79 16t64.5 43.5
t43.5 65t16 79.5t-16 79.5t-43.5 64.5t-64.5 43t-79 16zM281 604h-16v-70h16q18 0 27.5 9.5t9.5 25.5q0 17 -9.5 26t-27.5 9zM330 399l-60 85h-4v-85h-63v260h76q37 0 69.5 -18.5t32.5 -68.5q0 -27 -14 -46t-34 -29l67 -93l-4 -5h-66z" />
    <glyph glyph-name="macron" unicode="&#xaf;" horiz-adv-x="536" 
d="M413 760v-93h-290v93h290z" />
    <glyph glyph-name="degree" unicode="&#xb0;" horiz-adv-x="414" 
d="M207 765q35 0 66 -13t53 -35t34.5 -51t12.5 -61q0 -33 -12.5 -62.5t-34.5 -51.5t-53 -35t-66 -13t-65.5 13t-52.5 35t-35 51.5t-13 62.5q0 32 13 61t35 51t52.5 35t65.5 13zM207 701q-41 0 -67.5 -29t-26.5 -68t26.5 -68t67.5 -29t68 29.5t27 67.5q0 39 -27 68t-68 29z
" />
    <glyph glyph-name="plusminus" unicode="&#xb1;" horiz-adv-x="647" 
d="M588 318h-205v-174h-117v174h-208v103h208v201h117v-201h205v-103zM590 106v-92h-534v92h534z" />
    <glyph glyph-name="two.sups" unicode="&#xb2;" horiz-adv-x="445" 
d="M364 279h-313l-7 13q10 14 37 46.5t56.5 69t55.5 68.5t35 44q21 25 30.5 43t9.5 43q0 27 -21 47.5t-58 21.5q-23 0 -48.5 -9t-52.5 -31v99q27 13 56.5 20t57.5 7q78 -1 124.5 -42.5t46.5 -103.5q-1 -48 -22.5 -77.5t-46.5 -61.5q-13 -16 -42 -49.5t-57 -64.5h194z" />
    <glyph glyph-name="three.sups" unicode="&#xb3;" horiz-adv-x="407" 
d="M171 264q-25 0 -62 5t-59 18v82q18 -13 47 -18t45 -5q51 -1 83 19.5t32 53.5q0 32 -30 51.5t-76 19.5h-31l3 79h28q35 0 58.5 17t23.5 42q0 24 -21 37.5t-55 13.5q-18 0 -40 -3.5t-41 -12.5l6 86q17 5 39 8.5t55 3.5q67 1 112 -33.5t45 -85.5q-1 -31 -17.5 -59t-44.5 -45
q37 -16 61.5 -48.5t24.5 -73.5q0 -66 -52 -109.5t-134 -42.5z" />
    <glyph glyph-name="acute" unicode="&#xb4;" horiz-adv-x="536" 
d="M409 790l-131 -147h-100l82 147h149z" />
    <glyph glyph-name="paragraph" unicode="&#xb6;" horiz-adv-x="652" 
d="M416 -207h-81v479h-20q-59 0 -108 18.5t-83.5 50t-54 74.5t-19.5 92q0 47 19.5 90t54.5 76t84.5 53t108.5 20h263v-953h-80v866h-84v-866z" />
    <glyph glyph-name="periodcentered" unicode="&#xb7;" horiz-adv-x="293" 
d="M72 416h148v-140h-148v140z" />
    <glyph glyph-name="cedilla" unicode="&#xb8;" horiz-adv-x="536" 
d="M240 -201q-14 0 -35.5 3t-40.5 10v57h1q19 -6 38 -9t29 -3q25 0 40 9t15 24q0 14 -18.5 23t-48.5 9h-20l-3 8l30 81l60 -1l-17 -40q45 -6 70 -28t25 -56q0 -37 -34.5 -62t-90.5 -25z" />
    <glyph glyph-name="one.sups" unicode="&#xb9;" horiz-adv-x="321" 
d="M246 279h-100v323l-86 -84v128l108 100h78v-467z" />
    <glyph glyph-name="ordmasculine" unicode="&#xba;" horiz-adv-x="501" 
d="M251 765q46 0 86 -15.5t68.5 -42t45 -63.5t16.5 -79t-16.5 -79t-45 -63.5t-68.5 -42t-86 -15.5t-86 15.5t-69 42t-45.5 63.5t-16.5 79t16.5 79t45.5 63.5t69 42t86 15.5zM251 669q-43 0 -71 -30.5t-28 -73.5q0 -44 28 -73.5t71 -29.5t71 30t28 73t-28 73.5t-71 30.5z" />
    <glyph glyph-name="guillemotright" unicode="&#xbb;" horiz-adv-x="577" 
d="M170 0h-109l161 252l-159 248h107l161 -248v-4zM361 0h-109l161 252l-159 248h107l161 -248v-4z" />
    <glyph glyph-name="onequarter" unicode="&#xbc;" horiz-adv-x="927" 
d="M226 279h-100v323l-86 -84v128l108 100h78v-467zM614 746h112l-450 -746h-111zM744 164v161l-111 -161h111zM880 82h-35v-82h-101v82h-227l-9 18l251 367h86v-303h59z" />
    <glyph glyph-name="onehalf" unicode="&#xbd;" horiz-adv-x="993" 
d="M226 279h-100v323l-86 -84v128l108 100h78v-467zM614 746h112l-450 -746h-111zM931 0h-313l-7 13q10 14 37 46.5t56.5 69t55.5 68.5t35 44q21 25 30.5 43t9.5 43q0 27 -21 47.5t-58 21.5q-23 0 -48.5 -9t-52.5 -31v99q27 13 56.5 20t57.5 7q78 -1 124.5 -42.5
t46.5 -103.5q-1 -48 -22.5 -77.5t-46.5 -61.5q-13 -16 -42 -49.5t-57 -64.5h194z" />
    <glyph glyph-name="threequarters" unicode="&#xbe;" horiz-adv-x="1001" 
d="M151 264q-25 0 -62 5t-59 18v82q18 -13 47 -18t45 -5q51 -1 83 19.5t32 53.5q0 32 -30 51.5t-76 19.5h-31l3 79h28q35 0 58.5 17t23.5 42q0 24 -21 37.5t-55 13.5q-18 0 -40 -3.5t-41 -12.5l6 86q17 5 39 8.5t55 3.5q67 1 112 -33.5t45 -85.5q-1 -31 -17.5 -59t-44.5 -45
q37 -16 61.5 -48.5t24.5 -73.5q0 -66 -52 -109.5t-134 -42.5zM689 746h112l-450 -746h-111zM818 164v161l-111 -161h111zM954 82h-35v-82h-101v82h-227l-9 18l251 367h86v-303h59z" />
    <glyph glyph-name="questiondown" unicode="&#xbf;" horiz-adv-x="608" 
d="M398 746v-119h-122v119h122zM332 -15q-111 0 -180 61t-69 160q0 52 16 91.5t42.5 66.5t62 43t75.5 21v132h116v-196h-30q-31 0 -59.5 -9t-49.5 -27t-34 -44t-13 -60q0 -55 39 -93.5t111 -38.5q40 0 80 13t82 46l3 -113q-43 -25 -92.5 -39t-99.5 -14z" />
    <glyph glyph-name="Agrave" unicode="&#xc0;" horiz-adv-x="756" 
d="M504 242l-127 339l-129 -339h256zM595 0l-50 133h-338l-51 -133h-140l295 746h135l294 -746h-145zM198 954h152l82 -147h-102z" />
    <glyph glyph-name="Aacute" unicode="&#xc1;" horiz-adv-x="756" 
d="M504 242l-127 339l-129 -339h256zM595 0l-50 133h-338l-51 -133h-140l295 746h135l294 -746h-145zM560 954l-131 -147h-100l82 147h149z" />
    <glyph glyph-name="Acircumflex" unicode="&#xc2;" horiz-adv-x="756" 
d="M504 242l-127 339l-129 -339h256zM595 0l-50 133h-338l-51 -133h-140l295 746h135l294 -746h-145zM451 807l-71 86l-70 -86h-109l114 147h131l115 -147h-110z" />
    <glyph glyph-name="Atilde" unicode="&#xc3;" horiz-adv-x="756" 
d="M504 242l-127 339l-129 -339h256zM595 0l-50 133h-338l-51 -133h-140l295 746h135l294 -746h-145zM261 808l-96 2q-7 87 29.5 121t86.5 34q24 0 48.5 -9.5t48 -20.5t44 -20.5t35.5 -9.5q16 0 28.5 11.5t11.5 46.5l97 -3q6 -76 -27 -113t-87 -37q-24 0 -49.5 9t-49 20
t-44 20t-35.5 9q-16 0 -29 -11.5t-12 -48.5z" />
    <glyph glyph-name="Adieresis" unicode="&#xc4;" horiz-adv-x="756" 
d="M504 242l-127 339l-129 -339h256zM595 0l-50 133h-338l-51 -133h-140l295 746h135l294 -746h-145zM548 910v-103h-116v103h116zM328 910v-103h-116v103h116z" />
    <glyph glyph-name="Aring" unicode="&#xc5;" horiz-adv-x="756" 
d="M504 242l-127 339l-129 -339h256zM595 0l-50 133h-338l-51 -133h-140l295 746h135l294 -746h-145zM380 929q52 0 88.5 -36t36.5 -84q0 -49 -36.5 -85t-88.5 -36t-88.5 37t-36.5 84q0 48 36.5 84t88.5 36zM380 871q-25 0 -43.5 -18t-18.5 -44t18.5 -44t43.5 -18
q26 0 44 18t18 44t-18 44t-44 18z" />
    <glyph glyph-name="AE" unicode="&#xc6;" horiz-adv-x="977" 
d="M490 242l-125 361l-124 -361h249zM574 0l-46 133h-325l-46 -133h-141l284 746h457v-119h-277l69 -183h291v-112h-249l80 -213h291v-119h-388z" />
    <glyph glyph-name="Ccedilla" unicode="&#xc7;" horiz-adv-x="671" 
d="M618 732v-132q-35 22 -75.5 33t-84.5 11q-58 0 -109 -22t-88.5 -58.5t-59.5 -85.5t-22 -103q0 -55 22 -104.5t59.5 -87t88.5 -59.5t109 -22q44 0 84.5 11t75.5 33v-133q-37 -17 -79.5 -26.5t-87.5 -9.5q-87 0 -162 31t-129.5 85t-85.5 126.5t-31 154.5t31 154t85.5 125.5
t129.5 84.5t162 31q45 0 87 -9.5t80 -27.5zM399 -224q-14 0 -35.5 3t-40.5 10v57h1q19 -6 38 -9t29 -3q25 0 40 9t15 24q0 14 -18.5 23t-48.5 9h-20l-3 8l30 81l60 -1l-17 -40q45 -6 70 -28t25 -56q0 -37 -34.5 -62t-90.5 -25z" />
    <glyph glyph-name="Egrave" unicode="&#xc8;" horiz-adv-x="537" 
d="M67 0v746h403v-119h-267v-183h244v-112h-244v-213h275v-119h-411zM95 954h152l82 -147h-102z" />
    <glyph glyph-name="Eacute" unicode="&#xc9;" horiz-adv-x="537" 
d="M67 0v746h403v-119h-267v-183h244v-112h-244v-213h275v-119h-411zM457 954l-131 -147h-100l82 147h149z" />
    <glyph glyph-name="Ecircumflex" unicode="&#xca;" horiz-adv-x="537" 
d="M67 0v746h403v-119h-267v-183h244v-112h-244v-213h275v-119h-411zM348 807l-71 86l-70 -86h-109l114 147h131l115 -147h-110z" />
    <glyph glyph-name="Edieresis" unicode="&#xcb;" horiz-adv-x="537" 
d="M67 0v746h403v-119h-267v-183h244v-112h-244v-213h275v-119h-411zM446 910v-103h-116v103h116zM226 910v-103h-116v103h116z" />
    <glyph glyph-name="Igrave" unicode="&#xcc;" horiz-adv-x="273" 
d="M69 0v746h135v-746h-135zM-47 954h152l82 -147h-102z" />
    <glyph glyph-name="Iacute" unicode="&#xcd;" horiz-adv-x="273" 
d="M69 0v746h135v-746h-135zM315 954l-131 -147h-100l82 147h149z" />
    <glyph glyph-name="Icircumflex" unicode="&#xce;" horiz-adv-x="273" 
d="M69 0v746h135v-746h-135zM207 807l-71 86l-70 -86h-109l114 147h131l115 -147h-110z" />
    <glyph glyph-name="Idieresis" unicode="&#xcf;" horiz-adv-x="273" 
d="M69 0v746h135v-746h-135zM304 910v-103h-116v103h116zM84 910v-103h-116v103h116z" />
    <glyph glyph-name="Eth" unicode="&#xd0;" horiz-adv-x="711" 
d="M279 0h-205v328h-49v104h49v314h204q75 0 144.5 -23.5t123 -69.5t85.5 -116t32 -163q0 -94 -31.5 -164.5t-84.5 -116.5t-123 -69.5t-145 -23.5zM210 122h71q48 0 93 16t78.5 47.5t54 79t20.5 109.5q0 61 -20.5 108t-54 78t-78.5 47.5t-93 16.5h-71v-192h125v-104h-125
v-206z" />
    <glyph glyph-name="Ntilde" unicode="&#xd1;" horiz-adv-x="776" 
d="M577 0l-374 521v-521h-136v746h135l370 -515v515h136v-746h-131zM259 808l-96 2q-7 87 29.5 121t86.5 34q24 0 48.5 -9.5t48 -20.5t44 -20.5t35.5 -9.5q16 0 28.5 11.5t11.5 46.5l97 -3q6 -76 -27 -113t-87 -37q-24 0 -49.5 9t-49 20t-44 20t-35.5 9q-16 0 -29 -11.5
t-12 -48.5z" />
    <glyph glyph-name="Ograve" unicode="&#xd2;" horiz-adv-x="907" 
d="M454 770q85 0 160.5 -31t130.5 -84.5t87 -126t32 -154.5t-32 -155t-87 -126.5t-130.5 -85t-160.5 -31.5q-86 0 -161.5 31.5t-130.5 85t-87 126.5t-32 155t32 154.5t87 126t130.5 84.5t161.5 31zM454 646q-57 0 -107.5 -22t-87.5 -59t-58.5 -86.5t-21.5 -104.5
q0 -56 21.5 -106t58.5 -87t87.5 -59t107.5 -22t107 22t86.5 59t58 87t21.5 106q0 55 -21.5 104.5t-58 86.5t-86.5 59t-107 22zM270 954h152l82 -147h-102z" />
    <glyph glyph-name="Oacute" unicode="&#xd3;" horiz-adv-x="907" 
d="M454 770q85 0 160.5 -31t130.5 -84.5t87 -126t32 -154.5t-32 -155t-87 -126.5t-130.5 -85t-160.5 -31.5q-86 0 -161.5 31.5t-130.5 85t-87 126.5t-32 155t32 154.5t87 126t130.5 84.5t161.5 31zM454 646q-57 0 -107.5 -22t-87.5 -59t-58.5 -86.5t-21.5 -104.5
q0 -56 21.5 -106t58.5 -87t87.5 -59t107.5 -22t107 22t86.5 59t58 87t21.5 106q0 55 -21.5 104.5t-58 86.5t-86.5 59t-107 22zM632 954l-131 -147h-100l82 147h149z" />
    <glyph glyph-name="Ocircumflex" unicode="&#xd4;" horiz-adv-x="907" 
d="M454 770q85 0 160.5 -31t130.5 -84.5t87 -126t32 -154.5t-32 -155t-87 -126.5t-130.5 -85t-160.5 -31.5q-86 0 -161.5 31.5t-130.5 85t-87 126.5t-32 155t32 154.5t87 126t130.5 84.5t161.5 31zM454 646q-57 0 -107.5 -22t-87.5 -59t-58.5 -86.5t-21.5 -104.5
q0 -56 21.5 -106t58.5 -87t87.5 -59t107.5 -22t107 22t86.5 59t58 87t21.5 106q0 55 -21.5 104.5t-58 86.5t-86.5 59t-107 22zM525 807l-71 86l-70 -86h-109l114 147h131l115 -147h-110z" />
    <glyph glyph-name="Otilde" unicode="&#xd5;" horiz-adv-x="907" 
d="M454 770q85 0 160.5 -31t130.5 -84.5t87 -126t32 -154.5t-32 -155t-87 -126.5t-130.5 -85t-160.5 -31.5q-86 0 -161.5 31.5t-130.5 85t-87 126.5t-32 155t32 154.5t87 126t130.5 84.5t161.5 31zM454 646q-57 0 -107.5 -22t-87.5 -59t-58.5 -86.5t-21.5 -104.5
q0 -56 21.5 -106t58.5 -87t87.5 -59t107.5 -22t107 22t86.5 59t58 87t21.5 106q0 55 -21.5 104.5t-58 86.5t-86.5 59t-107 22zM335 808l-96 2q-7 87 29.5 121t86.5 34q24 0 48.5 -9.5t48 -20.5t44 -20.5t35.5 -9.5q16 0 28.5 11.5t11.5 46.5l97 -3q6 -76 -27 -113t-87 -37
q-24 0 -49.5 9t-49 20t-44 20t-35.5 9q-16 0 -29 -11.5t-12 -48.5z" />
    <glyph glyph-name="Odieresis" unicode="&#xd6;" horiz-adv-x="907" 
d="M454 770q85 0 160.5 -31t130.5 -84.5t87 -126t32 -154.5t-32 -155t-87 -126.5t-130.5 -85t-160.5 -31.5q-86 0 -161.5 31.5t-130.5 85t-87 126.5t-32 155t32 154.5t87 126t130.5 84.5t161.5 31zM454 646q-57 0 -107.5 -22t-87.5 -59t-58.5 -86.5t-21.5 -104.5
q0 -56 21.5 -106t58.5 -87t87.5 -59t107.5 -22t107 22t86.5 59t58 87t21.5 106q0 55 -21.5 104.5t-58 86.5t-86.5 59t-107 22zM622 910v-103h-116v103h116zM402 910v-103h-116v103h116z" />
    <glyph glyph-name="multiply" unicode="&#xd7;" horiz-adv-x="584" 
d="M464 94l-177 178l-170 -170l-69 70l169 169l-166 167l73 71l166 -165l156 156l70 -69l-157 -157l177 -177z" />
    <glyph glyph-name="Oslash" unicode="&#xd8;" horiz-adv-x="918" 
d="M179 374q0 -52 19 -99.5t52 -83.5l303 436q-23 9 -48 14t-51 5q-57 0 -107.5 -22t-87.5 -59t-58.5 -86.5t-21.5 -104.5zM454 100q57 0 107 22t86.5 59t58 87t21.5 106q0 60 -24.5 113t-67.5 90l-309 -446q28 -15 61 -23t67 -8zM454 -24q-55 0 -106 13t-95 37l-51 -74
h-117l89 129q-60 54 -95.5 130t-35.5 163q0 82 32 154.5t87 126t130.5 84.5t161.5 31q46 0 89.5 -9.5t82.5 -26.5l42 60h117l-76 -109q71 -54 113 -135.5t42 -175.5q0 -82 -32 -155t-87 -126.5t-130.5 -85t-160.5 -31.5z" />
    <glyph glyph-name="Ugrave" unicode="&#xd9;" horiz-adv-x="718" 
d="M650 307q0 -155 -74.5 -243t-216.5 -88q-141 0 -216.5 88t-75.5 243v439h136v-470q0 -43 13 -76.5t35 -55.5t50 -33.5t58 -11.5q31 0 59 11.5t49.5 33.5t34 55.5t12.5 76.5v470h136v-439zM175 954h152l82 -147h-102z" />
    <glyph glyph-name="Uacute" unicode="&#xda;" horiz-adv-x="718" 
d="M650 307q0 -155 -74.5 -243t-216.5 -88q-141 0 -216.5 88t-75.5 243v439h136v-470q0 -43 13 -76.5t35 -55.5t50 -33.5t58 -11.5q31 0 59 11.5t49.5 33.5t34 55.5t12.5 76.5v470h136v-439zM537 954l-131 -147h-100l82 147h149z" />
    <glyph glyph-name="Ucircumflex" unicode="&#xdb;" horiz-adv-x="718" 
d="M650 307q0 -155 -74.5 -243t-216.5 -88q-141 0 -216.5 88t-75.5 243v439h136v-470q0 -43 13 -76.5t35 -55.5t50 -33.5t58 -11.5q31 0 59 11.5t49.5 33.5t34 55.5t12.5 76.5v470h136v-439zM430 807l-71 86l-70 -86h-109l114 147h131l115 -147h-110z" />
    <glyph glyph-name="Udieresis" unicode="&#xdc;" horiz-adv-x="728" 
d="M650 307q0 -155 -74.5 -243t-216.5 -88q-141 0 -216.5 88t-75.5 243v439h136v-470q0 -43 13 -76.5t35 -55.5t50 -33.5t58 -11.5q31 0 59 11.5t49.5 33.5t34 55.5t12.5 76.5v470h136v-439zM530 910v-103h-116v103h116zM310 910v-103h-116v103h116z" />
    <glyph glyph-name="Yacute" unicode="&#xdd;" horiz-adv-x="670" 
d="M403 0h-136v240l-256 506h148l178 -376l184 376h139l-257 -506v-240zM524 954l-131 -147h-100l82 147h149z" />
    <glyph glyph-name="Thorn" unicode="&#xde;" horiz-adv-x="577" 
d="M277 520h-74v-235h74q59 0 96.5 32t37.5 86q0 51 -31 84t-103 33zM262 165h-59v-165h-136v746h136v-104h64q60 0 111 -12t88.5 -39.5t58.5 -73.5t21 -114q0 -62 -24.5 -107t-64 -74t-91 -43t-104.5 -14z" />
    <glyph glyph-name="germandbls" unicode="&#xdf;" horiz-adv-x="592" 
d="M287 -165v126q69 40 99.5 85t30.5 89q0 49 -34.5 81t-88.5 45l72 134h-181v-395h-125v607q0 60 18.5 97.5t48 57.5t66.5 26.5t74 6.5v-108q-32 0 -57 -16.5t-25 -71.5v-160l39 61h313l2 -5l-101 -191q51 -28 78.5 -72t27.5 -97q0 -51 -19 -94.5t-52.5 -80.5t-81 -68
t-104.5 -57z" />
    <glyph glyph-name="agrave" unicode="&#xe0;" horiz-adv-x="540" 
d="M262 57q41 0 68.5 27t27.5 64q0 36 -26.5 61.5t-69.5 25.5t-69 -25.5t-26 -61.5q0 -37 26 -64t69 -27zM365 0v49q-24 -28 -62 -47.5t-89 -19.5q-77 0 -126 46.5t-49 116.5q0 69 50.5 117t134.5 48q43 0 76.5 -11.5t56.5 -29.5v28q0 65 -31.5 90t-86.5 25q-24 0 -51 -3.5
t-73 -12.5l-4 102q46 9 78.5 12.5t72.5 3.5q110 0 164.5 -51.5t54.5 -135.5v-327h-116zM88 719h152l82 -147h-102z" />
    <glyph glyph-name="aacute" unicode="&#xe1;" horiz-adv-x="540" 
d="M262 57q41 0 68.5 27t27.5 64q0 36 -26.5 61.5t-69.5 25.5t-69 -25.5t-26 -61.5q0 -37 26 -64t69 -27zM365 0v49q-24 -28 -62 -47.5t-89 -19.5q-77 0 -126 46.5t-49 116.5q0 69 50.5 117t134.5 48q43 0 76.5 -11.5t56.5 -29.5v28q0 65 -31.5 90t-86.5 25q-24 0 -51 -3.5
t-73 -12.5l-4 102q46 9 78.5 12.5t72.5 3.5q110 0 164.5 -51.5t54.5 -135.5v-327h-116zM450 719l-131 -147h-100l82 147h149z" />
    <glyph glyph-name="acircumflex" unicode="&#xe2;" horiz-adv-x="540" 
d="M262 57q41 0 68.5 27t27.5 64q0 36 -26.5 61.5t-69.5 25.5t-69 -25.5t-26 -61.5q0 -37 26 -64t69 -27zM365 0v49q-24 -28 -62 -47.5t-89 -19.5q-77 0 -126 46.5t-49 116.5q0 69 50.5 117t134.5 48q43 0 76.5 -11.5t56.5 -29.5v28q0 65 -31.5 90t-86.5 25q-24 0 -51 -3.5
t-73 -12.5l-4 102q46 9 78.5 12.5t72.5 3.5q110 0 164.5 -51.5t54.5 -135.5v-327h-116zM342 572l-71 86l-70 -86h-109l114 147h131l115 -147h-110z" />
    <glyph glyph-name="atilde" unicode="&#xe3;" horiz-adv-x="540" 
d="M262 57q41 0 68.5 27t27.5 64q0 36 -26.5 61.5t-69.5 25.5t-69 -25.5t-26 -61.5q0 -37 26 -64t69 -27zM365 0v49q-24 -28 -62 -47.5t-89 -19.5q-77 0 -126 46.5t-49 116.5q0 69 50.5 117t134.5 48q43 0 76.5 -11.5t56.5 -29.5v28q0 65 -31.5 90t-86.5 25q-24 0 -51 -3.5
t-73 -12.5l-4 102q46 9 78.5 12.5t72.5 3.5q110 0 164.5 -51.5t54.5 -135.5v-327h-116zM165 573l-94 2q-6 84 28 116.5t80 32.5q22 0 45 -8.5t44 -19t39.5 -19t31.5 -8.5q15 0 26 10.5t11 42.5l94 -3q5 -72 -24.5 -108t-82.5 -36q-22 0 -45 8.5t-44.5 18t-40 18t-31.5 8.5
q-15 0 -26.5 -10.5t-10.5 -44.5z" />
    <glyph glyph-name="adieresis" unicode="&#xe4;" horiz-adv-x="540" 
d="M262 57q41 0 68.5 27t27.5 64q0 36 -26.5 61.5t-69.5 25.5t-69 -25.5t-26 -61.5q0 -37 26 -64t69 -27zM365 0v49q-24 -28 -62 -47.5t-89 -19.5q-77 0 -126 46.5t-49 116.5q0 69 50.5 117t134.5 48q43 0 76.5 -11.5t56.5 -29.5v28q0 65 -31.5 90t-86.5 25q-24 0 -51 -3.5
t-73 -12.5l-4 102q46 9 78.5 12.5t72.5 3.5q110 0 164.5 -51.5t54.5 -135.5v-327h-116zM434 675v-103h-114v103h114zM231 675v-103h-115v103h115z" />
    <glyph glyph-name="aring" unicode="&#xe5;" horiz-adv-x="540" 
d="M262 57q41 0 68.5 27t27.5 64q0 36 -26.5 61.5t-69.5 25.5t-69 -25.5t-26 -61.5q0 -37 26 -64t69 -27zM365 0v49q-24 -28 -62 -47.5t-89 -19.5q-77 0 -126 46.5t-49 116.5q0 69 50.5 117t134.5 48q43 0 76.5 -11.5t56.5 -29.5v28q0 65 -31.5 90t-86.5 25q-24 0 -51 -3.5
t-73 -12.5l-4 102q46 9 78.5 12.5t72.5 3.5q110 0 164.5 -51.5t54.5 -135.5v-327h-116zM271 808q52 0 88.5 -36t36.5 -84q0 -49 -36.5 -85t-88.5 -36t-88.5 37t-36.5 84q0 48 36.5 84t88.5 36zM271 750q-25 0 -43.5 -18t-18.5 -44t18.5 -44t43.5 -18q26 0 44 18t18 44
t-18 44t-44 18z" />
    <glyph glyph-name="ae" unicode="&#xe6;" horiz-adv-x="926" 
d="M618 422q-54 0 -89.5 -31.5t-48.5 -85.5h275q-13 53 -49 85t-88 32zM262 52q41 0 69 26.5t28 66.5q0 37 -27 63.5t-70 26.5t-69 -26.5t-26 -63.5q0 -40 26 -66.5t69 -26.5zM881 65q-40 -37 -100.5 -63t-140.5 -26q-72 0 -129 26t-94 70q-19 -37 -64.5 -66.5t-118.5 -29.5
q-89 0 -142 47t-53 119q0 70 50.5 119t134.5 49q40 0 71.5 -10t54.5 -26v23q0 65 -29.5 90t-84.5 25q-24 0 -49.5 -3t-71.5 -13l-4 102q46 9 77.5 12.5t71.5 3.5q60 0 103 -18t68 -49q34 36 82.5 56.5t105.5 20.5q56 0 105.5 -20.5t86 -56.5t57.5 -86t21 -108v-32h-414
q7 -69 51.5 -107t115.5 -38q54 0 96.5 18.5t73.5 47.5z" />
    <glyph glyph-name="ccedilla" unicode="&#xe7;" horiz-adv-x="505" 
d="M453 119v-111q-22 -13 -57 -18.5t-63 -5.5q-62 0 -116 20.5t-93.5 56t-62 84.5t-22.5 105t22.5 105t62 84.5t93.5 56t116 20.5q27 0 62 -6t58 -19v-112h-4q-26 18 -55.5 24.5t-56.5 6.5q-71 0 -119 -46.5t-48 -113.5t48 -113.5t119 -46.5q27 0 55.5 6t56.5 23h4z
M285 -208q-14 0 -35 3.5t-39 10.5v55h1q18 -5 36.5 -8t28.5 -3q22 0 36 9t14 22t-17.5 22t-45.5 9h-18l-2 6l28 79l58 -3l-15 -35q43 -6 66.5 -27.5t23.5 -53.5q0 -37 -33 -61.5t-87 -24.5z" />
    <glyph glyph-name="egrave" unicode="&#xe8;" horiz-adv-x="623" 
d="M315 422q-53 0 -89.5 -31.5t-49.5 -85.5h276q-13 53 -49 85t-88 32zM578 65q-40 -37 -100.5 -63t-140.5 -26q-68 0 -123.5 21t-94 57.5t-59.5 87t-21 108.5t20.5 108.5t57 87t87.5 57.5t112 21q56 0 105.5 -20.5t85.5 -56.5t57 -86t21 -108v-32h-414q8 -69 53 -107
t115 -38q54 0 96.5 18.5t74.5 47.5zM132 719h152l82 -147h-102z" />
    <glyph glyph-name="eacute" unicode="&#xe9;" horiz-adv-x="623" 
d="M315 422q-53 0 -89.5 -31.5t-49.5 -85.5h276q-13 53 -49 85t-88 32zM578 65q-40 -37 -100.5 -63t-140.5 -26q-68 0 -123.5 21t-94 57.5t-59.5 87t-21 108.5t20.5 108.5t57 87t87.5 57.5t112 21q56 0 105.5 -20.5t85.5 -56.5t57 -86t21 -108v-32h-414q8 -69 53 -107
t115 -38q54 0 96.5 18.5t74.5 47.5zM495 719l-131 -147h-100l82 147h149z" />
    <glyph glyph-name="ecircumflex" unicode="&#xea;" horiz-adv-x="623" 
d="M315 422q-53 0 -89.5 -31.5t-49.5 -85.5h276q-13 53 -49 85t-88 32zM578 65q-40 -37 -100.5 -63t-140.5 -26q-68 0 -123.5 21t-94 57.5t-59.5 87t-21 108.5t20.5 108.5t57 87t87.5 57.5t112 21q56 0 105.5 -20.5t85.5 -56.5t57 -86t21 -108v-32h-414q8 -69 53 -107
t115 -38q54 0 96.5 18.5t74.5 47.5zM387 572l-71 86l-70 -86h-109l114 147h131l115 -147h-110z" />
    <glyph glyph-name="edieresis" unicode="&#xeb;" horiz-adv-x="623" 
d="M315 422q-53 0 -89.5 -31.5t-49.5 -85.5h276q-13 53 -49 85t-88 32zM578 65q-40 -37 -100.5 -63t-140.5 -26q-68 0 -123.5 21t-94 57.5t-59.5 87t-21 108.5t20.5 108.5t57 87t87.5 57.5t112 21q56 0 105.5 -20.5t85.5 -56.5t57 -86t21 -108v-32h-414q8 -69 53 -107
t115 -38q54 0 96.5 18.5t74.5 47.5zM475 675v-103h-114v103h114zM272 675v-103h-115v103h115z" />
    <glyph glyph-name="igrave" unicode="&#xec;" horiz-adv-x="247" 
d="M185 500v-500h-124v500h124zM-60 719h152l82 -147h-102z" />
    <glyph glyph-name="iacute" unicode="&#xed;" horiz-adv-x="247" 
d="M185 500v-500h-124v500h124zM303 719l-131 -147h-100l82 147h149z" />
    <glyph glyph-name="icircumflex" unicode="&#xee;" horiz-adv-x="247" 
d="M185 500v-500h-124v500h124zM194 572l-71 86l-70 -86h-109l114 147h131l115 -147h-110z" />
    <glyph glyph-name="idieresis" unicode="&#xef;" horiz-adv-x="247" 
d="M185 500v-500h-124v500h124zM283 675v-103h-114v103h114zM80 675v-103h-115v103h115z" />
    <glyph glyph-name="eth" unicode="&#xf0;" horiz-adv-x="654" 
d="M323 -23q-60 0 -112 21.5t-90 58.5t-60 87t-22 106q0 54 21.5 102t59.5 83t89.5 56t111.5 21q32 0 62.5 -6.5t56.5 -19.5q-19 32 -42.5 63.5t-51.5 62.5l-162 -50l-37 63l142 44q-31 29 -66.5 57t-73.5 54h162q25 -17 48.5 -36.5t45.5 -39.5l136 42l35 -64l-116 -35
q72 -83 113 -179t41 -192v-22v0q-2 -58 -25 -109t-61.5 -88t-91 -58.5t-113.5 -21.5zM327 414q-34 0 -63 -13t-50.5 -35.5t-33.5 -52.5t-12 -63q0 -67 45.5 -115.5t113.5 -48.5t113.5 48.5t45.5 115.5q0 33 -12 63t-33.5 52.5t-50.5 35.5t-63 13z" />
    <glyph glyph-name="ntilde" unicode="&#xf1;" horiz-adv-x="579" 
d="M184 298v-298h-125v500h119v-62q23 28 65 51.5t99 23.5q78 0 128.5 -50t50.5 -137v-326h-124v289q0 63 -31.5 88t-73.5 25q-18 0 -37.5 -7t-35 -20t-25.5 -32.5t-10 -44.5zM181 573l-94 2q-6 84 28 116.5t80 32.5q22 0 45 -8.5t44 -19t39.5 -19t31.5 -8.5q15 0 26 10.5
t11 42.5l94 -3q5 -72 -24.5 -108t-82.5 -36q-22 0 -45 8.5t-44.5 18t-40 18t-31.5 8.5q-15 0 -26.5 -10.5t-10.5 -44.5z" />
    <glyph glyph-name="ograve" unicode="&#xf2;" horiz-adv-x="658" 
d="M329 524q62 0 115.5 -21.5t92 -58.5t60.5 -87t22 -107t-22 -107t-60.5 -87t-92 -58.5t-115.5 -21.5t-115.5 21.5t-92 58.5t-60.5 87t-22 107t22 107t60.5 87t92 58.5t115.5 21.5zM329 417q-34 0 -63.5 -13.5t-50.5 -36t-33 -53t-12 -64.5q0 -69 45 -118t114 -49
q34 0 63.5 13.5t51 36t33.5 53t12 64.5t-12 64.5t-33.5 53t-51 36t-63.5 13.5zM145 719h152l82 -147h-102z" />
    <glyph glyph-name="oacute" unicode="&#xf3;" horiz-adv-x="658" 
d="M329 524q62 0 115.5 -21.5t92 -58.5t60.5 -87t22 -107t-22 -107t-60.5 -87t-92 -58.5t-115.5 -21.5t-115.5 21.5t-92 58.5t-60.5 87t-22 107t22 107t60.5 87t92 58.5t115.5 21.5zM329 417q-34 0 -63.5 -13.5t-50.5 -36t-33 -53t-12 -64.5q0 -69 45 -118t114 -49
q34 0 63.5 13.5t51 36t33.5 53t12 64.5t-12 64.5t-33.5 53t-51 36t-63.5 13.5zM508 719l-131 -147h-100l82 147h149z" />
    <glyph glyph-name="ocircumflex" unicode="&#xf4;" horiz-adv-x="658" 
d="M329 524q62 0 115.5 -21.5t92 -58.5t60.5 -87t22 -107t-22 -107t-60.5 -87t-92 -58.5t-115.5 -21.5t-115.5 21.5t-92 58.5t-60.5 87t-22 107t22 107t60.5 87t92 58.5t115.5 21.5zM329 417q-34 0 -63.5 -13.5t-50.5 -36t-33 -53t-12 -64.5q0 -69 45 -118t114 -49
q34 0 63.5 13.5t51 36t33.5 53t12 64.5t-12 64.5t-33.5 53t-51 36t-63.5 13.5zM400 572l-71 86l-70 -86h-109l114 147h131l115 -147h-110z" />
    <glyph glyph-name="otilde" unicode="&#xf5;" horiz-adv-x="658" 
d="M329 524q62 0 115.5 -21.5t92 -58.5t60.5 -87t22 -107t-22 -107t-60.5 -87t-92 -58.5t-115.5 -21.5t-115.5 21.5t-92 58.5t-60.5 87t-22 107t22 107t60.5 87t92 58.5t115.5 21.5zM329 417q-34 0 -63.5 -13.5t-50.5 -36t-33 -53t-12 -64.5q0 -69 45 -118t114 -49
q34 0 63.5 13.5t51 36t33.5 53t12 64.5t-12 64.5t-33.5 53t-51 36t-63.5 13.5zM223 573l-94 2q-6 84 28 116.5t80 32.5q22 0 45 -8.5t44 -19t39.5 -19t31.5 -8.5q15 0 26 10.5t11 42.5l94 -3q5 -72 -24.5 -108t-82.5 -36q-22 0 -45 8.5t-44.5 18t-40 18t-31.5 8.5
q-15 0 -26.5 -10.5t-10.5 -44.5z" />
    <glyph glyph-name="odieresis" unicode="&#xf6;" horiz-adv-x="658" 
d="M329 524q62 0 115.5 -21.5t92 -58.5t60.5 -87t22 -107t-22 -107t-60.5 -87t-92 -58.5t-115.5 -21.5t-115.5 21.5t-92 58.5t-60.5 87t-22 107t22 107t60.5 87t92 58.5t115.5 21.5zM329 417q-34 0 -63.5 -13.5t-50.5 -36t-33 -53t-12 -64.5q0 -69 45 -118t114 -49
q34 0 63.5 13.5t51 36t33.5 53t12 64.5t-12 64.5t-33.5 53t-51 36t-63.5 13.5zM488 675v-103h-114v103h114zM285 675v-103h-115v103h115z" />
    <glyph glyph-name="divide" unicode="&#xf7;" horiz-adv-x="634" 
d="M258 491v127h120v-127h-120zM580 400v-101h-526v101h526zM258 81v127h120v-127h-120z" />
    <glyph glyph-name="oslash" unicode="&#xf8;" horiz-adv-x="663" 
d="M179 250q0 -28 8 -52.5t23 -44.5l156 252q-8 2 -17 3t-18 1q-65 0 -108.5 -47t-43.5 -112zM331 91q66 0 109.5 46.5t43.5 112.5q0 27 -8 52t-23 45l-157 -252q8 -2 17 -3t18 -1zM331 -24q-26 0 -51.5 4t-47.5 12l-25 -40h-122l55 89q-46 37 -73 91.5t-27 117.5
q0 57 22 107t61 87t92.5 58.5t115.5 21.5q26 0 51.5 -4t48.5 -11l24 39h123l-55 -89q46 -37 73 -91.5t27 -117.5q0 -57 -22 -107t-61 -87t-92.5 -58.5t-116.5 -21.5z" />
    <glyph glyph-name="ugrave" unicode="&#xf9;" horiz-adv-x="579" 
d="M401 0v63q-23 -28 -65.5 -52t-98.5 -24q-78 0 -129 50t-51 137v326h125v-289q0 -63 31 -88t74 -25q18 0 37.5 7t35.5 20t26 32.5t10 44.5v298h123v-500h-118zM104 719h152l82 -147h-102z" />
    <glyph glyph-name="uacute" unicode="&#xfa;" horiz-adv-x="579" 
d="M401 0v63q-23 -28 -65.5 -52t-98.5 -24q-78 0 -129 50t-51 137v326h125v-289q0 -63 31 -88t74 -25q18 0 37.5 7t35.5 20t26 32.5t10 44.5v298h123v-500h-118zM467 719l-131 -147h-100l82 147h149z" />
    <glyph glyph-name="ucircumflex" unicode="&#xfb;" horiz-adv-x="579" 
d="M401 0v63q-23 -28 -65.5 -52t-98.5 -24q-78 0 -129 50t-51 137v326h125v-289q0 -63 31 -88t74 -25q18 0 37.5 7t35.5 20t26 32.5t10 44.5v298h123v-500h-118zM359 572l-71 86l-70 -86h-109l114 147h131l115 -147h-110z" />
    <glyph glyph-name="udieresis" unicode="&#xfc;" horiz-adv-x="579" 
d="M401 0v63q-23 -28 -65.5 -52t-98.5 -24q-78 0 -129 50t-51 137v326h125v-289q0 -63 31 -88t74 -25q18 0 37.5 7t35.5 20t26 32.5t10 44.5v298h123v-500h-118zM447 675v-103h-114v103h114zM244 675v-103h-115v103h115z" />
    <glyph glyph-name="yacute" unicode="&#xfd;" horiz-adv-x="582" 
d="M299 -213h-128l73 199l-229 514h139l151 -371l134 371h128zM478 719l-131 -147h-100l82 147h149z" />
    <glyph glyph-name="thorn" unicode="&#xfe;" horiz-adv-x="668" 
d="M181 251q0 -32 12 -61.5t33.5 -51.5t50.5 -35t63 -13t62.5 13t49.5 34.5t33 51t12 61.5t-12 61t-33 51t-49.5 35t-62.5 13t-63 -13t-50.5 -34.5t-33.5 -50.5t-12 -61zM377 -19q-59 0 -109 25t-84 68v-287h-125v993h125v-352q34 42 83.5 66.5t109.5 24.5q53 0 99 -21
t79.5 -57.5t52.5 -85.5t19 -105q0 -55 -19 -104.5t-52.5 -85.5t-79.5 -57.5t-99 -21.5z" />
    <glyph glyph-name="ydieresis" unicode="&#xff;" horiz-adv-x="582" 
d="M299 -213h-128l73 199l-229 514h139l151 -371l134 371h128zM458 675v-103h-114v103h114zM255 675v-103h-115v103h115z" />
    <glyph glyph-name="Amacron" unicode="&#x100;" horiz-adv-x="756" 
d="M504 242l-127 339l-129 -339h256zM595 0l-50 133h-338l-51 -133h-140l295 746h135l294 -746h-145zM525 900v-93h-290v93h290z" />
    <glyph glyph-name="amacron" unicode="&#x101;" horiz-adv-x="540" 
d="M262 57q41 0 68.5 27t27.5 64q0 36 -26.5 61.5t-69.5 25.5t-69 -25.5t-26 -61.5q0 -37 26 -64t69 -27zM365 0v49q-24 -28 -62 -47.5t-89 -19.5q-77 0 -126 46.5t-49 116.5q0 69 50.5 117t134.5 48q43 0 76.5 -11.5t56.5 -29.5v28q0 65 -31.5 90t-86.5 25q-24 0 -51 -3.5
t-73 -12.5l-4 102q46 9 78.5 12.5t72.5 3.5q110 0 164.5 -51.5t54.5 -135.5v-327h-116zM413 665v-93h-284v93h284z" />
    <glyph glyph-name="Abreve" unicode="&#x102;" horiz-adv-x="756" 
d="M504 242l-127 339l-129 -339h256zM595 0l-50 133h-338l-51 -133h-140l295 746h135l294 -746h-145zM543 955q-13 -68 -55.5 -110.5t-107.5 -42.5t-107.5 42.5t-55.5 110.5l79 3q14 -39 37.5 -58t46.5 -19q24 0 47 19t37 58z" />
    <glyph glyph-name="abreve" unicode="&#x103;" horiz-adv-x="540" 
d="M262 57q41 0 68.5 27t27.5 64q0 36 -26.5 61.5t-69.5 25.5t-69 -25.5t-26 -61.5q0 -37 26 -64t69 -27zM365 0v49q-24 -28 -62 -47.5t-89 -19.5q-77 0 -126 46.5t-49 116.5q0 69 50.5 117t134.5 48q43 0 76.5 -11.5t56.5 -29.5v28q0 65 -31.5 90t-86.5 25q-24 0 -51 -3.5
t-73 -12.5l-4 102q46 9 78.5 12.5t72.5 3.5q110 0 164.5 -51.5t54.5 -135.5v-327h-116zM434 720q-13 -68 -55.5 -110.5t-107.5 -42.5t-107.5 42.5t-55.5 110.5l79 3q14 -39 37.5 -58t46.5 -19q24 0 47 19t37 58z" />
    <glyph glyph-name="Aogonek" unicode="&#x104;" horiz-adv-x="756" 
d="M647 -183q-52 0 -76 24.5t-24 54.5t17 53.5t42 41.5l3 3l-11 -1l-53 140h-338l-51 -133h-140l295 746h135l294 -746l-53 -36q-22 -15 -31 -25.5t-9 -22.5q0 -11 8.5 -20t22.5 -9q12 0 21 4.5t16 10.5l37 -48q-13 -13 -40.5 -25t-64.5 -12zM504 242l-127 339l-129 -339
h256z" />
    <glyph glyph-name="aogonek" unicode="&#x105;" horiz-adv-x="540" 
d="M390 -176q-51 0 -74 23.5t-23 52.5q0 27 16.5 48.5t40.5 38.5l15 10v52q-24 -28 -62 -47.5t-89 -19.5q-77 0 -126 46.5t-49 116.5q0 69 50.5 117t134.5 48q43 0 76.5 -11.5t56.5 -29.5v28q0 65 -31.5 90t-86.5 25q-24 0 -51 -3.5t-73 -12.5l-4 102q46 9 78.5 12.5
t72.5 3.5q110 0 164.5 -51.5t54.5 -135.5v-327l-51 -36q-19 -13 -28.5 -23.5t-9.5 -22.5q0 -10 8 -18t22 -8q10 0 19.5 4t15.5 10l36 -46q-14 -13 -41 -24t-62 -12zM262 57q41 0 68.5 27t27.5 64q0 36 -26.5 61.5t-69.5 25.5t-69 -25.5t-26 -61.5q0 -37 26 -64t69 -27z" />
    <glyph glyph-name="Cacute" unicode="&#x106;" horiz-adv-x="671" 
d="M618 732v-132q-35 22 -75.5 33t-84.5 11q-58 0 -109 -22t-88.5 -58.5t-59.5 -85.5t-22 -103q0 -55 22 -104.5t59.5 -87t88.5 -59.5t109 -22q44 0 84.5 11t75.5 33v-133q-37 -17 -79.5 -26.5t-87.5 -9.5q-87 0 -162 31t-129.5 85t-85.5 126.5t-31 154.5t31 154t85.5 125.5
t129.5 84.5t162 31q45 0 87 -9.5t80 -27.5zM601 954l-131 -147h-100l82 147h149z" />
    <glyph glyph-name="cacute" unicode="&#x107;" horiz-adv-x="505" 
d="M453 119v-111q-22 -13 -57 -18.5t-63 -5.5q-62 0 -116 20.5t-93.5 56t-62 84.5t-22.5 105t22.5 105t62 84.5t93.5 56t116 20.5q27 0 62 -6t58 -19v-112h-4q-26 18 -55.5 24.5t-56.5 6.5q-71 0 -119 -46.5t-48 -113.5t48 -113.5t119 -46.5q27 0 55.5 6t56.5 23h4zM492 719
l-131 -147h-100l82 147h149z" />
    <glyph glyph-name="Ccircumflex" unicode="&#x108;" horiz-adv-x="671" 
d="M618 732v-132q-35 22 -75.5 33t-84.5 11q-58 0 -109 -22t-88.5 -58.5t-59.5 -85.5t-22 -103q0 -55 22 -104.5t59.5 -87t88.5 -59.5t109 -22q44 0 84.5 11t75.5 33v-133q-37 -17 -79.5 -26.5t-87.5 -9.5q-87 0 -162 31t-129.5 85t-85.5 126.5t-31 154.5t31 154t85.5 125.5
t129.5 84.5t162 31q45 0 87 -9.5t80 -27.5zM492 807l-71 86l-70 -86h-109l114 147h131l115 -147h-110z" />
    <glyph glyph-name="ccircumflex" unicode="&#x109;" horiz-adv-x="505" 
d="M453 119v-111q-22 -13 -57 -18.5t-63 -5.5q-62 0 -116 20.5t-93.5 56t-62 84.5t-22.5 105t22.5 105t62 84.5t93.5 56t116 20.5q27 0 62 -6t58 -19v-112h-4q-26 18 -55.5 24.5t-56.5 6.5q-71 0 -119 -46.5t-48 -113.5t48 -113.5t119 -46.5q27 0 55.5 6t56.5 23h4zM384 572
l-71 86l-70 -86h-109l114 147h131l115 -147h-110z" />
    <glyph glyph-name="Cdotaccent" unicode="&#x10a;" horiz-adv-x="671" 
d="M618 732v-132q-35 22 -75.5 33t-84.5 11q-58 0 -109 -22t-88.5 -58.5t-59.5 -85.5t-22 -103q0 -55 22 -104.5t59.5 -87t88.5 -59.5t109 -22q44 0 84.5 11t75.5 33v-133q-37 -17 -79.5 -26.5t-87.5 -9.5q-87 0 -162 31t-129.5 85t-85.5 126.5t-31 154.5t31 154t85.5 125.5
t129.5 84.5t162 31q45 0 87 -9.5t80 -27.5zM485 915v-108h-126v108h126z" />
    <glyph glyph-name="cdotaccent" unicode="&#x10b;" horiz-adv-x="505" 
d="M453 119v-111q-22 -13 -57 -18.5t-63 -5.5q-62 0 -116 20.5t-93.5 56t-62 84.5t-22.5 105t22.5 105t62 84.5t93.5 56t116 20.5q27 0 62 -6t58 -19v-112h-4q-26 18 -55.5 24.5t-56.5 6.5q-71 0 -119 -46.5t-48 -113.5t48 -113.5t119 -46.5q27 0 55.5 6t56.5 23h4zM376 695
v-117h-126v117h126z" />
    <glyph glyph-name="Ccaron" unicode="&#x10c;" horiz-adv-x="671" 
d="M618 732v-132q-35 22 -75.5 33t-84.5 11q-58 0 -109 -22t-88.5 -58.5t-59.5 -85.5t-22 -103q0 -55 22 -104.5t59.5 -87t88.5 -59.5t109 -22q44 0 84.5 11t75.5 33v-133q-37 -17 -79.5 -26.5t-87.5 -9.5q-87 0 -162 31t-129.5 85t-85.5 126.5t-31 154.5t31 154t85.5 125.5
t129.5 84.5t162 31q45 0 87 -9.5t80 -27.5zM488 807h-131l-114 147h108l70 -86l70 86h112z" />
    <glyph glyph-name="ccaron" unicode="&#x10d;" horiz-adv-x="505" 
d="M453 119v-111q-22 -13 -57 -18.5t-63 -5.5q-62 0 -116 20.5t-93.5 56t-62 84.5t-22.5 105t22.5 105t62 84.5t93.5 56t116 20.5q27 0 62 -6t58 -19v-112h-4q-26 18 -55.5 24.5t-56.5 6.5q-71 0 -119 -46.5t-48 -113.5t48 -113.5t119 -46.5q27 0 55.5 6t56.5 23h4zM379 572
h-131l-114 147h108l70 -86l70 86h112z" />
    <glyph glyph-name="Dcaron" unicode="&#x10e;" horiz-adv-x="704" 
d="M67 0v746h205q75 0 144.5 -23.5t123 -69.5t85.5 -116t32 -163q0 -94 -32 -164.5t-85 -116.5t-122.5 -69.5t-144.5 -23.5h-206zM203 624v-502h73q48 0 92.5 16t78.5 47.5t54 79t20 109.5q0 61 -20 108t-54 78t-78.5 47.5t-92.5 16.5h-73zM389 807h-131l-114 147h108
l70 -86l70 86h112z" />
    <glyph glyph-name="dcaron" unicode="&#x10f;" horiz-adv-x="668" 
d="M487 249q0 32 -12 61.5t-33.5 51.5t-50.5 35t-63 13t-62.5 -13t-49.5 -34.5t-33 -51t-12 -61.5t12 -61t33 -51t49.5 -35t62.5 -13t63 13t50.5 34.5t33.5 50.5t12 61zM492 0v80q-34 -45 -85.5 -72t-115.5 -27q-53 0 -99 21t-79.5 57t-52.5 85t-19 105q0 55 19 104t52.5 86
t79.5 58.5t99 21.5q59 0 109 -25t84 -68v354h124v-780h-116zM770 780l-53 -170h-72l18 170h107z" />
    <glyph glyph-name="Dcroat" unicode="&#x110;" horiz-adv-x="714" 
d="M282 0h-205v328h-49v104h49v314h204q75 0 144.5 -23.5t123 -69.5t85.5 -116t32 -163q0 -94 -31.5 -164.5t-84.5 -116.5t-123 -69.5t-145 -23.5zM213 122h71q48 0 93 16t78.5 47.5t54 79t20.5 109.5q0 61 -20.5 108t-54 78t-78.5 47.5t-93 16.5h-71v-192h125v-104h-125
v-206z" />
    <glyph glyph-name="dcroat" unicode="&#x111;" horiz-adv-x="668" 
d="M487 249q0 32 -12 61.5t-33.5 51.5t-50.5 35t-63 13t-62.5 -13t-49.5 -34.5t-33 -51t-12 -61.5t12 -61t33 -51t49.5 -35t62.5 -13t63 13t50.5 34.5t33.5 50.5t12 61zM492 0v80q-34 -45 -85.5 -72t-115.5 -27q-53 0 -99 21t-79.5 57t-52.5 85t-19 105q0 55 19 104t52.5 86
t79.5 58.5t99 21.5q59 0 109 -25t84 -68v158h-80v79h80v117h124v-117h49v-79h-49v-584h-116z" />
    <glyph glyph-name="Emacron" unicode="&#x112;" horiz-adv-x="537" 
d="M67 0v746h403v-119h-267v-183h244v-112h-244v-213h275v-119h-411zM423 900v-93h-290v93h290z" />
    <glyph glyph-name="emacron" unicode="&#x113;" horiz-adv-x="623" 
d="M315 422q-53 0 -89.5 -31.5t-49.5 -85.5h276q-13 53 -49 85t-88 32zM578 65q-40 -37 -100.5 -63t-140.5 -26q-68 0 -123.5 21t-94 57.5t-59.5 87t-21 108.5t20.5 108.5t57 87t87.5 57.5t112 21q56 0 105.5 -20.5t85.5 -56.5t57 -86t21 -108v-32h-414q8 -69 53 -107
t115 -38q54 0 96.5 18.5t74.5 47.5zM458 665v-93h-284v93h284z" />
    <glyph glyph-name="Ebreve" unicode="&#x114;" horiz-adv-x="537" 
d="M67 0v746h403v-119h-267v-183h244v-112h-244v-213h275v-119h-411zM441 955q-13 -68 -55.5 -110.5t-107.5 -42.5t-107.5 42.5t-55.5 110.5l79 3q14 -39 37.5 -58t46.5 -19q24 0 47 19t37 58z" />
    <glyph glyph-name="ebreve" unicode="&#x115;" horiz-adv-x="623" 
d="M315 422q-53 0 -89.5 -31.5t-49.5 -85.5h276q-13 53 -49 85t-88 32zM578 65q-40 -37 -100.5 -63t-140.5 -26q-68 0 -123.5 21t-94 57.5t-59.5 87t-21 108.5t20.5 108.5t57 87t87.5 57.5t112 21q56 0 105.5 -20.5t85.5 -56.5t57 -86t21 -108v-32h-414q8 -69 53 -107
t115 -38q54 0 96.5 18.5t74.5 47.5zM479 720q-13 -68 -55.5 -110.5t-107.5 -42.5t-107.5 42.5t-55.5 110.5l79 3q14 -39 37.5 -58t46.5 -19q24 0 47 19t37 58z" />
    <glyph glyph-name="Edotaccent" unicode="&#x116;" horiz-adv-x="537" 
d="M67 0v746h403v-119h-267v-183h244v-112h-244v-213h275v-119h-411zM341 915v-108h-126v108h126z" />
    <glyph glyph-name="edotaccent" unicode="&#x117;" horiz-adv-x="623" 
d="M315 422q-53 0 -89.5 -31.5t-49.5 -85.5h276q-13 53 -49 85t-88 32zM578 65q-40 -37 -100.5 -63t-140.5 -26q-68 0 -123.5 21t-94 57.5t-59.5 87t-21 108.5t20.5 108.5t57 87t87.5 57.5t112 21q56 0 105.5 -20.5t85.5 -56.5t57 -86t21 -108v-32h-414q8 -69 53 -107
t115 -38q54 0 96.5 18.5t74.5 47.5zM379 695v-117h-126v117h126z" />
    <glyph glyph-name="Eogonek" unicode="&#x118;" horiz-adv-x="537" 
d="M491 -146q-14 -13 -41 -25t-64 -12q-53 0 -77 24.5t-24 54.5q0 28 17 50.5t42 39.5l21 14h-298v746h403v-119h-267v-183h244v-112h-244v-213h275v-119l-53 -36q-20 -14 -29.5 -25t-9.5 -23q0 -11 8.5 -20t21.5 -9q12 0 21.5 4.5t15.5 10.5z" />
    <glyph glyph-name="eogonek" unicode="&#x119;" horiz-adv-x="623" 
d="M315 422q-53 0 -89.5 -31.5t-49.5 -85.5h276q-13 53 -49 85t-88 32zM584 -140q-14 -13 -41.5 -24t-62.5 -12q-50 0 -74 24t-24 55q0 23 10 43t25 38q-19 -4 -39 -6t-41 -2q-68 0 -123.5 21t-94 57.5t-59.5 87t-21 108.5t20.5 108.5t57 87t87.5 57.5t112 21
q56 0 105.5 -20.5t85.5 -56.5t57 -86t21 -108v-32h-414q8 -69 53 -107t115 -38q54 0 96.5 18.5t74.5 47.5l68 -77q-1 -1 -2 -1.5t-2 -1.5l-57 -71q-17 -21 -25.5 -37t-8.5 -30t7.5 -23t22.5 -9q10 0 19.5 4t15.5 10z" />
    <glyph glyph-name="Ecaron" unicode="&#x11a;" horiz-adv-x="537" 
d="M67 0v746h403v-119h-267v-183h244v-112h-244v-213h275v-119h-411zM344 807h-131l-114 147h108l70 -86l70 86h112z" />
    <glyph glyph-name="ecaron" unicode="&#x11b;" horiz-adv-x="623" 
d="M315 422q-53 0 -89.5 -31.5t-49.5 -85.5h276q-13 53 -49 85t-88 32zM578 65q-40 -37 -100.5 -63t-140.5 -26q-68 0 -123.5 21t-94 57.5t-59.5 87t-21 108.5t20.5 108.5t57 87t87.5 57.5t112 21q56 0 105.5 -20.5t85.5 -56.5t57 -86t21 -108v-32h-414q8 -69 53 -107
t115 -38q54 0 96.5 18.5t74.5 47.5zM383 572h-131l-114 147h108l70 -86l70 86h112z" />
    <glyph glyph-name="Gcircumflex" unicode="&#x11c;" horiz-adv-x="873" 
d="M832 373q0 -82 -29.5 -154.5t-80.5 -126.5t-120 -85t-148 -31q-86 0 -161.5 31.5t-130.5 85t-87 126.5t-32 155t32 154.5t87 126t130.5 84.5t161.5 31q81 0 154.5 -28.5t125.5 -75.5l-89 -96q-39 36 -88 56t-103 20q-57 0 -107.5 -22t-87.5 -59t-58.5 -86.5t-21.5 -103.5
q0 -56 21.5 -106t58.5 -87.5t87.5 -59.5t107.5 -22q44 0 84 16t71 43.5t52.5 64.5t29.5 80h-221l49 115h313v-46zM525 807l-71 86l-70 -86h-109l114 147h131l115 -147h-110z" />
    <glyph glyph-name="gcircumflex" unicode="&#x11d;" horiz-adv-x="645" 
d="M319 120q60 0 102.5 43t42.5 103t-42.5 103t-102.5 43t-103.5 -43t-43.5 -103t43.5 -103t103.5 -43zM306 -215q-38 0 -80 3.5t-88 13.5v109q52 -11 91 -15t74 -4q67 0 113 32.5t46 125.5v45q-34 -37 -79.5 -59t-93.5 -22q-49 0 -94 17.5t-79 50.5t-54.5 80t-20.5 104
q0 58 20.5 105t54.5 80t79 51.5t94 18.5t96 -23.5t81 -63.5v66h120v-446q0 -146 -73 -207.5t-207 -61.5zM388 572l-71 86l-70 -86h-109l114 147h131l115 -147h-110z" />
    <glyph glyph-name="Gbreve" unicode="&#x11e;" horiz-adv-x="873" 
d="M832 373q0 -82 -29.5 -154.5t-80.5 -126.5t-120 -85t-148 -31q-86 0 -161.5 31.5t-130.5 85t-87 126.5t-32 155t32 154.5t87 126t130.5 84.5t161.5 31q81 0 154.5 -28.5t125.5 -75.5l-89 -96q-39 36 -88 56t-103 20q-57 0 -107.5 -22t-87.5 -59t-58.5 -86.5t-21.5 -103.5
q0 -56 21.5 -106t58.5 -87.5t87.5 -59.5t107.5 -22q44 0 84 16t71 43.5t52.5 64.5t29.5 80h-221l49 115h313v-46zM617 955q-13 -68 -55.5 -110.5t-107.5 -42.5t-107.5 42.5t-55.5 110.5l79 3q14 -39 37.5 -58t46.5 -19q24 0 47 19t37 58z" />
    <glyph glyph-name="gbreve" unicode="&#x11f;" horiz-adv-x="645" 
d="M319 120q60 0 102.5 43t42.5 103t-42.5 103t-102.5 43t-103.5 -43t-43.5 -103t43.5 -103t103.5 -43zM306 -215q-38 0 -80 3.5t-88 13.5v109q52 -11 91 -15t74 -4q67 0 113 32.5t46 125.5v45q-34 -37 -79.5 -59t-93.5 -22q-49 0 -94 17.5t-79 50.5t-54.5 80t-20.5 104
q0 58 20.5 105t54.5 80t79 51.5t94 18.5t96 -23.5t81 -63.5v66h120v-446q0 -146 -73 -207.5t-207 -61.5zM481 720q-13 -68 -55.5 -110.5t-107.5 -42.5t-107.5 42.5t-55.5 110.5l79 3q14 -39 37.5 -58t46.5 -19q24 0 47 19t37 58z" />
    <glyph glyph-name="Gdotaccent" unicode="&#x120;" horiz-adv-x="873" 
d="M832 373q0 -82 -29.5 -154.5t-80.5 -126.5t-120 -85t-148 -31q-86 0 -161.5 31.5t-130.5 85t-87 126.5t-32 155t32 154.5t87 126t130.5 84.5t161.5 31q81 0 154.5 -28.5t125.5 -75.5l-89 -96q-39 36 -88 56t-103 20q-57 0 -107.5 -22t-87.5 -59t-58.5 -86.5t-21.5 -103.5
q0 -56 21.5 -106t58.5 -87.5t87.5 -59.5t107.5 -22q44 0 84 16t71 43.5t52.5 64.5t29.5 80h-221l49 115h313v-46zM517 915v-108h-126v108h126z" />
    <glyph glyph-name="gdotaccent" unicode="&#x121;" horiz-adv-x="645" 
d="M319 120q60 0 102.5 43t42.5 103t-42.5 103t-102.5 43t-103.5 -43t-43.5 -103t43.5 -103t103.5 -43zM306 -215q-38 0 -80 3.5t-88 13.5v109q52 -11 91 -15t74 -4q67 0 113 32.5t46 125.5v45q-34 -37 -79.5 -59t-93.5 -22q-49 0 -94 17.5t-79 50.5t-54.5 80t-20.5 104
q0 58 20.5 105t54.5 80t79 51.5t94 18.5t96 -23.5t81 -63.5v66h120v-446q0 -146 -73 -207.5t-207 -61.5zM381 695v-117h-126v117h126z" />
    <glyph glyph-name="Gcommaaccent" unicode="&#x122;" horiz-adv-x="873" 
d="M832 373q0 -82 -29.5 -154.5t-80.5 -126.5t-120 -85t-148 -31q-86 0 -161.5 31.5t-130.5 85t-87 126.5t-32 155t32 154.5t87 126t130.5 84.5t161.5 31q81 0 154.5 -28.5t125.5 -75.5l-89 -96q-39 36 -88 56t-103 20q-57 0 -107.5 -22t-87.5 -59t-58.5 -86.5t-21.5 -103.5
q0 -56 21.5 -106t58.5 -87.5t87.5 -59.5t107.5 -22q44 0 84 16t71 43.5t52.5 64.5t29.5 80h-221l49 115h313v-46zM514 -70l-64 -170h-91l27 170h128z" />
    <glyph glyph-name="gcommaaccent" unicode="&#x123;" horiz-adv-x="645" 
d="M319 120q60 0 102.5 43t42.5 103t-42.5 103t-102.5 43t-103.5 -43t-43.5 -103t43.5 -103t103.5 -43zM306 -215q-38 0 -80 3.5t-88 13.5v109q52 -11 91 -15t74 -4q67 0 113 32.5t46 125.5v45q-34 -37 -79.5 -59t-93.5 -22q-49 0 -94 17.5t-79 50.5t-54.5 80t-20.5 104
q0 58 20.5 105t54.5 80t79 51.5t94 18.5t96 -23.5t81 -63.5v66h120v-446q0 -146 -73 -207.5t-207 -61.5z" />
    <glyph glyph-name="Hcircumflex" unicode="&#x124;" horiz-adv-x="715" 
d="M67 0v746h136v-288h309v288h136v-746h-136v337h-309v-337h-136zM429 807l-71 86l-70 -86h-109l114 147h131l115 -147h-110z" />
    <glyph glyph-name="hcircumflex" unicode="&#x125;" horiz-adv-x="579" 
d="M184 297v-297h-125v780h121v-343q23 28 65 51.5t97 23.5q78 0 128.5 -49.5t50.5 -136.5v-326h-124v289q0 62 -31 87.5t-74 25.5q-18 0 -37.5 -7t-35 -20t-25.5 -33t-10 -45zM191 840l-71 86l-70 -86h-109l114 147h131l115 -147h-110z" />
    <glyph glyph-name="Hbar" unicode="&#x126;" horiz-adv-x="733" 
d="M208 458h318v90h-318v-90zM208 337v-337h-136v548h-47v96h47v102h136v-102h318v102h135v-102h47v-96h-47v-548h-135v337h-318z" />
    <glyph glyph-name="hbar" unicode="&#x127;" horiz-adv-x="577" 
d="M184 297v-297h-125v584h-45v79h45v117h121v-117h87v-79h-87v-147q23 28 65 51.5t97 23.5q78 0 128.5 -49.5t50.5 -136.5v-326h-124v289q0 62 -31 87.5t-74 25.5q-18 0 -37.5 -7t-35 -20t-25.5 -33t-10 -45z" />
    <glyph glyph-name="Itilde" unicode="&#x128;" horiz-adv-x="273" 
d="M69 0v746h135v-746h-135zM17 808l-96 2q-7 87 29.5 121t86.5 34q24 0 48.5 -9.5t48 -20.5t44 -20.5t35.5 -9.5q16 0 28.5 11.5t11.5 46.5l97 -3q6 -76 -27 -113t-87 -37q-24 0 -49.5 9t-49 20t-44 20t-35.5 9q-16 0 -29 -11.5t-12 -48.5z" />
    <glyph glyph-name="itilde" unicode="&#x129;" horiz-adv-x="247" 
d="M185 500v-500h-124v500h124zM18 573l-94 2q-6 84 28 116.5t80 32.5q22 0 45 -8.5t44 -19t39.5 -19t31.5 -8.5q15 0 26 10.5t11 42.5l94 -3q5 -72 -24.5 -108t-82.5 -36q-22 0 -45 8.5t-44.5 18t-40 18t-31.5 8.5q-15 0 -26.5 -10.5t-10.5 -44.5z" />
    <glyph glyph-name="Imacron" unicode="&#x12a;" horiz-adv-x="273" 
d="M69 0v746h135v-746h-135zM281 900v-93h-290v93h290z" />
    <glyph glyph-name="imacron" unicode="&#x12b;" horiz-adv-x="247" 
d="M185 500v-500h-124v500h124zM266 665v-93h-284v93h284z" />
    <glyph glyph-name="Ibreve" unicode="&#x12c;" horiz-adv-x="273" 
d="M69 0v746h135v-746h-135zM299 955q-13 -68 -55.5 -110.5t-107.5 -42.5t-107.5 42.5t-55.5 110.5l79 3q14 -39 37.5 -58t46.5 -19q24 0 47 19t37 58z" />
    <glyph glyph-name="ibreve" unicode="&#x12d;" horiz-adv-x="247" 
d="M185 500v-500h-124v500h124zM287 720q-13 -68 -55.5 -110.5t-107.5 -42.5t-107.5 42.5t-55.5 110.5l79 3q14 -39 37.5 -58t46.5 -19q24 0 47 19t37 58z" />
    <glyph glyph-name="Iogonek" unicode="&#x12e;" horiz-adv-x="273" 
d="M111 -183q-52 0 -76.5 24.5t-24.5 55.5t17 54t41 41l1 1v753h135v-746l-53 -36q-20 -14 -30 -25t-10 -23q0 -11 8.5 -20t22.5 -9q12 0 21 4.5t16 10.5l38 -48q-15 -13 -42 -25t-64 -12z" />
    <glyph glyph-name="iogonek" unicode="&#x12f;" horiz-adv-x="247" 
d="M188 694v-117h-128v117h128zM95 -176q-51 0 -74 23.5t-23 52.5q0 28 17.5 51.5t40.5 39.5l9 7h-3v502h124v-500l-51 -36q-19 -13 -28.5 -23.5t-9.5 -22.5q0 -10 8.5 -18t21.5 -8q11 0 19.5 4t15.5 10l35 -46q-13 -13 -40 -24t-62 -12z" />
    <glyph glyph-name="Idotaccent" unicode="&#x130;" horiz-adv-x="273" 
d="M69 0v746h135v-746h-135zM199 915v-108h-126v108h126z" />
    <glyph glyph-name="dotlessi" unicode="&#x131;" horiz-adv-x="247" 
d="M185 500v-500h-124v500h124z" />
    <glyph glyph-name="IJ" unicode="&#x132;" horiz-adv-x="658" 
d="M69 0v746h135v-746h-135zM298 0v126q17 -8 35 -12.5t36 -4.5q37 0 61.5 29t24.5 120v488h136v-530q0 -117 -47 -174.5t-158 -57.5q-25 0 -47 3.5t-41 12.5z" />
    <glyph glyph-name="ij" unicode="&#x133;" horiz-adv-x="494" 
d="M188 694v-117h-128v117h128zM186 500v-500h-124v500h124zM435 694v-117h-128v117h128zM215 -107h14q38 0 59 21.5t21 67.5v518h124v-519q0 -110 -49 -154.5t-156 -44.5h-13v111z" />
    <glyph glyph-name="Jcircumflex" unicode="&#x134;" horiz-adv-x="386" 
d="M25 0v126q17 -8 35 -12.5t36 -4.5q37 0 61.5 29t24.5 120v488h136v-530q0 -117 -47 -174.5t-158 -57.5q-25 0 -47 3.5t-41 12.5zM320 807l-71 86l-70 -86h-109l114 147h131l115 -147h-110z" />
    <glyph glyph-name="jcircumflex" unicode="&#x135;" horiz-adv-x="243" 
d="M-26 -109h12q33 0 53.5 24.5t20.5 70.5v514h123v-516q0 -104 -49.5 -153t-146.5 -49h-13v109zM195 572l-71 86l-70 -86h-109l114 147h131l115 -147h-110z" />
    <glyph glyph-name="Kcommaaccent" unicode="&#x136;" horiz-adv-x="699" 
d="M509 0l-246 325l-60 -68v-257h-136v746h136v-305l260 305h166l-276 -320l324 -426h-168zM406 -57l-64 -170h-91l27 170h128z" />
    <glyph glyph-name="kcommaaccent" unicode="&#x137;" horiz-adv-x="558" 
d="M385 0l-151 221l-50 -52v-169h-125v780h125v-460l182 180h157l-197 -198l210 -302h-151zM358 -57l-64 -170h-91l27 170h128z" />
    <glyph glyph-name="kgreenlandic" unicode="&#x138;" horiz-adv-x="558" 
d="M385 0l-150 221l-51 -52v-169h-125v500h125v-180l182 180h157l-197 -198l210 -302h-151z" />
    <glyph glyph-name="Lacute" unicode="&#x139;" horiz-adv-x="498" 
d="M67 746h136v-624h264v-122h-400v746zM313 954l-131 -147h-100l82 147h149z" />
    <glyph glyph-name="lacute" unicode="&#x13a;" horiz-adv-x="247" 
d="M186 780v-780h-124v780h124zM303 987l-131 -147h-100l82 147h149z" />
    <glyph glyph-name="Lcommaaccent" unicode="&#x13b;" horiz-adv-x="498" 
d="M67 746h136v-624h264v-122h-400v746zM353 -57l-64 -170h-91l27 170h128z" />
    <glyph glyph-name="lcommaaccent" unicode="&#x13c;" horiz-adv-x="247" 
d="M186 780v-780h-124v780h124zM187 -58l-64 -170h-91l27 170h128z" />
    <glyph glyph-name="Lcaron" unicode="&#x13d;" horiz-adv-x="498" 
d="M67 746h136v-624h264v-122h-400v746zM426 780l-53 -170h-72l18 170h107z" />
    <glyph glyph-name="lcaron" unicode="&#x13e;" horiz-adv-x="247" 
d="M186 780v-780h-124v780h124zM348 780l-53 -170h-72l18 170h107z" />
    <glyph glyph-name="Ldot" unicode="&#x13f;" horiz-adv-x="498" 
d="M67 746h136v-624h264v-122h-400v746zM411 463v-108h-126v108h126z" />
    <glyph glyph-name="ldot" unicode="&#x140;" horiz-adv-x="326" 
d="M186 780v-780h-124v780h124zM332 474v-117h-126v117h126z" />
    <glyph glyph-name="Lslash" unicode="&#x141;" horiz-adv-x="504" 
d="M467 0h-400v295l-45 -22l-1 106l46 23v344h136v-278l170 84v-106l-170 -84v-240h264v-122z" />
    <glyph glyph-name="lslash" unicode="&#x142;" horiz-adv-x="261" 
d="M194 0h-125v347l-48 -26v95l48 26v338h125v-272l52 28v-94l-52 -28v-414z" />
    <glyph glyph-name="Nacute" unicode="&#x143;" horiz-adv-x="776" 
d="M577 0l-374 521v-521h-136v746h135l370 -515v515h136v-746h-131zM557 954l-131 -147h-100l82 147h149z" />
    <glyph glyph-name="nacute" unicode="&#x144;" horiz-adv-x="579" 
d="M184 298v-298h-125v500h119v-62q23 28 65 51.5t99 23.5q78 0 128.5 -50t50.5 -137v-326h-124v289q0 63 -31.5 88t-73.5 25q-18 0 -37.5 -7t-35 -20t-25.5 -32.5t-10 -44.5zM467 719l-131 -147h-100l82 147h149z" />
    <glyph glyph-name="Ncommaaccent" unicode="&#x145;" horiz-adv-x="776" 
d="M577 0l-374 521v-521h-136v746h135l370 -515v515h136v-746h-131zM442 -57l-64 -170h-91l27 170h128z" />
    <glyph glyph-name="ncommaaccent" unicode="&#x146;" horiz-adv-x="579" 
d="M184 298v-298h-125v500h119v-62q23 28 65 51.5t99 23.5q78 0 128.5 -50t50.5 -137v-326h-124v289q0 63 -31.5 88t-73.5 25q-18 0 -37.5 -7t-35 -20t-25.5 -32.5t-10 -44.5zM355 -57l-64 -170h-91l27 170h128z" />
    <glyph glyph-name="Ncaron" unicode="&#x147;" horiz-adv-x="776" 
d="M577 0l-374 521v-521h-136v746h135l370 -515v515h136v-746h-131zM444 807h-131l-114 147h108l70 -86l70 86h112z" />
    <glyph glyph-name="ncaron" unicode="&#x148;" horiz-adv-x="579" 
d="M184 298v-298h-125v500h119v-62q23 28 65 51.5t99 23.5q78 0 128.5 -50t50.5 -137v-326h-124v289q0 63 -31.5 88t-73.5 25q-18 0 -37.5 -7t-35 -20t-25.5 -32.5t-10 -44.5zM354 572h-131l-114 147h108l70 -86l70 86h112z" />
    <glyph glyph-name="Eng" unicode="&#x14a;" horiz-adv-x="776" 
d="M492 -228h-20v111h18q40 0 63.5 31t23.5 86l-374 521v-521h-136v746h135l370 -515v515h136v-746q0 -119 -56 -173.5t-160 -54.5z" />
    <glyph glyph-name="eng" unicode="&#x14b;" horiz-adv-x="579" 
d="M325 -218h-14v109h12q33 0 53.5 24t20.5 69v305q0 63 -31.5 88t-73.5 25q-18 0 -37.5 -7t-35 -20t-25.5 -32.5t-10 -44.5v-298h-125v500h119v-62q23 28 65 51.5t99 23.5q78 0 128.5 -50t50.5 -137v-342q0 -104 -49.5 -153t-146.5 -49z" />
    <glyph glyph-name="Omacron" unicode="&#x14c;" horiz-adv-x="907" 
d="M454 770q85 0 160.5 -31t130.5 -84.5t87 -126t32 -154.5t-32 -155t-87 -126.5t-130.5 -85t-160.5 -31.5q-86 0 -161.5 31.5t-130.5 85t-87 126.5t-32 155t32 154.5t87 126t130.5 84.5t161.5 31zM454 646q-57 0 -107.5 -22t-87.5 -59t-58.5 -86.5t-21.5 -104.5
q0 -56 21.5 -106t58.5 -87t87.5 -59t107.5 -22t107 22t86.5 59t58 87t21.5 106q0 55 -21.5 104.5t-58 86.5t-86.5 59t-107 22zM599 900v-93h-290v93h290z" />
    <glyph glyph-name="omacron" unicode="&#x14d;" horiz-adv-x="658" 
d="M329 524q62 0 115.5 -21.5t92 -58.5t60.5 -87t22 -107t-22 -107t-60.5 -87t-92 -58.5t-115.5 -21.5t-115.5 21.5t-92 58.5t-60.5 87t-22 107t22 107t60.5 87t92 58.5t115.5 21.5zM329 417q-34 0 -63.5 -13.5t-50.5 -36t-33 -53t-12 -64.5q0 -69 45 -118t114 -49
q34 0 63.5 13.5t51 36t33.5 53t12 64.5t-12 64.5t-33.5 53t-51 36t-63.5 13.5zM471 665v-93h-284v93h284z" />
    <glyph glyph-name="Obreve" unicode="&#x14e;" horiz-adv-x="907" 
d="M454 770q85 0 160.5 -31t130.5 -84.5t87 -126t32 -154.5t-32 -155t-87 -126.5t-130.5 -85t-160.5 -31.5q-86 0 -161.5 31.5t-130.5 85t-87 126.5t-32 155t32 154.5t87 126t130.5 84.5t161.5 31zM454 646q-57 0 -107.5 -22t-87.5 -59t-58.5 -86.5t-21.5 -104.5
q0 -56 21.5 -106t58.5 -87t87.5 -59t107.5 -22t107 22t86.5 59t58 87t21.5 106q0 55 -21.5 104.5t-58 86.5t-86.5 59t-107 22zM617 955q-13 -68 -55.5 -110.5t-107.5 -42.5t-107.5 42.5t-55.5 110.5l79 3q14 -39 37.5 -58t46.5 -19q24 0 47 19t37 58z" />
    <glyph glyph-name="obreve" unicode="&#x14f;" horiz-adv-x="658" 
d="M329 524q62 0 115.5 -21.5t92 -58.5t60.5 -87t22 -107t-22 -107t-60.5 -87t-92 -58.5t-115.5 -21.5t-115.5 21.5t-92 58.5t-60.5 87t-22 107t22 107t60.5 87t92 58.5t115.5 21.5zM329 417q-34 0 -63.5 -13.5t-50.5 -36t-33 -53t-12 -64.5q0 -69 45 -118t114 -49
q34 0 63.5 13.5t51 36t33.5 53t12 64.5t-12 64.5t-33.5 53t-51 36t-63.5 13.5zM492 720q-13 -68 -55.5 -110.5t-107.5 -42.5t-107.5 42.5t-55.5 110.5l79 3q14 -39 37.5 -58t46.5 -19q24 0 47 19t37 58z" />
    <glyph glyph-name="Ohungarumlaut" unicode="&#x150;" horiz-adv-x="907" 
d="M454 770q85 0 160.5 -31t130.5 -84.5t87 -126t32 -154.5t-32 -155t-87 -126.5t-130.5 -85t-160.5 -31.5q-86 0 -161.5 31.5t-130.5 85t-87 126.5t-32 155t32 154.5t87 126t130.5 84.5t161.5 31zM454 646q-57 0 -107.5 -22t-87.5 -59t-58.5 -86.5t-21.5 -104.5
q0 -56 21.5 -106t58.5 -87t87.5 -59t107.5 -22t107 22t86.5 59t58 87t21.5 106q0 55 -21.5 104.5t-58 86.5t-86.5 59t-107 22zM588 954h135l-132 -147h-93zM393 954h136l-134 -147h-93z" />
    <glyph glyph-name="ohungarumlaut" unicode="&#x151;" horiz-adv-x="658" 
d="M329 524q62 0 115.5 -21.5t92 -58.5t60.5 -87t22 -107t-22 -107t-60.5 -87t-92 -58.5t-115.5 -21.5t-115.5 21.5t-92 58.5t-60.5 87t-22 107t22 107t60.5 87t92 58.5t115.5 21.5zM329 417q-34 0 -63.5 -13.5t-50.5 -36t-33 -53t-12 -64.5q0 -69 45 -118t114 -49
q34 0 63.5 13.5t51 36t33.5 53t12 64.5t-12 64.5t-33.5 53t-51 36t-63.5 13.5zM461 719h135l-132 -147h-93zM272 719h136l-134 -147h-93z" />
    <glyph glyph-name="OE" unicode="&#x152;" horiz-adv-x="997" 
d="M463 122h62v502h-62q-54 0 -105 -16t-89.5 -47.5t-62 -78.5t-23.5 -108q0 -62 23.5 -109.5t62 -79t89.5 -47.5t105 -16zM466 0q-82 0 -158 23.5t-133.5 69.5t-92.5 116.5t-35 164.5q0 93 35 163t93 116t134.5 69.5t157.5 23.5h458v-119h-267v-183h251v-112h-251v-213h275
v-119h-467z" />
    <glyph glyph-name="oe" unicode="&#x153;" horiz-adv-x="1071" 
d="M764 422q-53 0 -89 -31.5t-49 -85.5h274q-12 53 -48 85t-88 32zM329 417q-34 0 -63.5 -13.5t-50.5 -36t-33 -53t-12 -64.5t12 -64.5t33 -53t50.5 -36t63.5 -13.5q35 0 64.5 13.5t50.5 36t33 53t12 64.5t-12 64.5t-33.5 53t-51 36t-63.5 13.5zM1027 65q-40 -37 -100.5 -63
t-140.5 -26q-76 0 -136 27t-98 73q-39 -46 -96.5 -73t-126.5 -27q-62 0 -115.5 21.5t-92 58.5t-60.5 87t-22 107t22 107t60.5 87t92 58.5t115.5 21.5q68 0 125.5 -26.5t96.5 -71.5q35 45 90 71.5t124 26.5q56 0 105.5 -20.5t86 -56.5t57.5 -86t21 -108v-32h-414
q7 -69 51.5 -107t116.5 -38q54 0 96 18.5t74 47.5z" />
    <glyph glyph-name="Racute" unicode="&#x154;" horiz-adv-x="632" 
d="M260 624h-57v-234h56q61 0 98 33t37 87q0 49 -34 81.5t-100 32.5zM438 0l-226 279h-9v-279h-136v746h190q58 0 108 -13.5t86 -42t57 -73t21 -106.5q0 -81 -48.5 -135t-117.5 -78l240 -298h-165zM460 954l-131 -147h-100l82 147h149z" />
    <glyph glyph-name="racute" unicode="&#x155;" horiz-adv-x="377" 
d="M184 262v-262h-125v500h119v-106q7 15 20 33.5t31 35t41.5 28t50.5 11.5h17v-139q-4 2 -11.5 3t-12.5 1q-30 0 -54 -10.5t-41 -26t-26 -34t-9 -34.5zM397 719l-131 -147h-100l82 147h149z" />
    <glyph glyph-name="Rcommaaccent" unicode="&#x156;" horiz-adv-x="632" 
d="M260 624h-57v-234h56q61 0 98 33t37 87q0 49 -34 81.5t-100 32.5zM438 0l-226 279h-9v-279h-136v746h190q58 0 108 -13.5t86 -42t57 -73t21 -106.5q0 -81 -48.5 -135t-117.5 -78l240 -298h-165zM370 -57l-64 -170h-91l27 170h128z" />
    <glyph glyph-name="rcommaaccent" unicode="&#x157;" horiz-adv-x="377" 
d="M184 262v-262h-125v500h119v-106q7 15 20 33.5t31 35t41.5 28t50.5 11.5h17v-139q-4 2 -11.5 3t-12.5 1q-30 0 -54 -10.5t-41 -26t-26 -34t-9 -34.5zM185 -57l-64 -170h-91l27 170h128z" />
    <glyph glyph-name="Rcaron" unicode="&#x158;" horiz-adv-x="632" 
d="M260 624h-57v-234h56q61 0 98 33t37 87q0 49 -34 81.5t-100 32.5zM438 0l-226 279h-9v-279h-136v746h190q58 0 108 -13.5t86 -42t57 -73t21 -106.5q0 -81 -48.5 -135t-117.5 -78l240 -298h-165zM347 807h-131l-114 147h108l70 -86l70 86h112z" />
    <glyph glyph-name="rcaron" unicode="&#x159;" horiz-adv-x="377" 
d="M184 262v-262h-125v500h119v-106q7 15 20 33.5t31 35t41.5 28t50.5 11.5h17v-139q-4 2 -11.5 3t-12.5 1q-30 0 -54 -10.5t-41 -26t-26 -34t-9 -34.5zM284 572h-131l-114 147h108l70 -86l70 86h112z" />
    <glyph glyph-name="Sacute" unicode="&#x15a;" horiz-adv-x="525" 
d="M438 737l-1 -122q-28 14 -64.5 24t-72.5 10q-57 0 -80.5 -22t-23.5 -47q0 -33 28.5 -63t88.5 -79q93 -76 131 -131.5t38 -113.5q0 -48 -19.5 -86.5t-54 -64.5t-81 -40t-100.5 -14q-42 0 -93.5 9.5t-82.5 23.5l2 123q34 -19 82.5 -31.5t94.5 -12.5q56 0 85 27.5t29 61.5
t-29 69t-95 87q-44 36 -75.5 65.5t-51 56t-28.5 53.5t-9 59q0 35 14 68t43.5 58t74.5 40.5t106 15.5q34 0 73.5 -6t70.5 -18zM468 954l-131 -147h-100l82 147h149z" />
    <glyph glyph-name="sacute" unicode="&#x15b;" horiz-adv-x="433" 
d="M226 516q33 0 62 -5.5t51 -14.5v-107q-28 13 -55 20t-46 7q-28 0 -45 -10.5t-17 -29.5q0 -14 17.5 -29.5t56.5 -40.5q84 -55 113.5 -94t29.5 -83q0 -63 -49.5 -103.5t-137.5 -41.5q-37 0 -77.5 10t-70.5 23v107q37 -19 72.5 -28.5t58.5 -9.5q37 0 54 14t17 33
q0 13 -15.5 32t-74.5 56q-75 49 -100 83t-25 78q0 25 10 49t32 43t56.5 30.5t82.5 11.5zM399 719l-131 -147h-100l82 147h149z" />
    <glyph glyph-name="Scircumflex" unicode="&#x15c;" horiz-adv-x="525" 
d="M438 737l-1 -122q-28 14 -64.5 24t-72.5 10q-57 0 -80.5 -22t-23.5 -47q0 -33 28.5 -63t88.5 -79q93 -76 131 -131.5t38 -113.5q0 -48 -19.5 -86.5t-54 -64.5t-81 -40t-100.5 -14q-42 0 -93.5 9.5t-82.5 23.5l2 123q34 -19 82.5 -31.5t94.5 -12.5q56 0 85 27.5t29 61.5
t-29 69t-95 87q-44 36 -75.5 65.5t-51 56t-28.5 53.5t-9 59q0 35 14 68t43.5 58t74.5 40.5t106 15.5q34 0 73.5 -6t70.5 -18zM360 807l-71 86l-70 -86h-109l114 147h131l115 -147h-110z" />
    <glyph glyph-name="scircumflex" unicode="&#x15d;" horiz-adv-x="433" 
d="M226 516q33 0 62 -5.5t51 -14.5v-107q-28 13 -55 20t-46 7q-28 0 -45 -10.5t-17 -29.5q0 -14 17.5 -29.5t56.5 -40.5q84 -55 113.5 -94t29.5 -83q0 -63 -49.5 -103.5t-137.5 -41.5q-37 0 -77.5 10t-70.5 23v107q37 -19 72.5 -28.5t58.5 -9.5q37 0 54 14t17 33
q0 13 -15.5 32t-74.5 56q-75 49 -100 83t-25 78q0 25 10 49t32 43t56.5 30.5t82.5 11.5zM292 572l-71 86l-70 -86h-109l114 147h131l115 -147h-110z" />
    <glyph glyph-name="Scedilla" unicode="&#x15e;" horiz-adv-x="525" 
d="M438 737l-1 -122q-28 14 -64.5 24t-72.5 10q-57 0 -80.5 -22t-23.5 -47q0 -33 28.5 -63t88.5 -79q93 -76 131 -131.5t38 -113.5q0 -48 -19.5 -86.5t-54 -64.5t-81 -40t-100.5 -14q-42 0 -93.5 9.5t-82.5 23.5l2 123q34 -19 82.5 -31.5t94.5 -12.5q56 0 85 27.5t29 61.5
t-29 69t-95 87q-44 36 -75.5 65.5t-51 56t-28.5 53.5t-9 59q0 35 14 68t43.5 58t74.5 40.5t106 15.5q34 0 73.5 -6t70.5 -18zM212 -213q-14 0 -35.5 3t-40.5 10v57h1q19 -6 38 -9t29 -3q25 0 40 9t15 24q0 14 -18.5 23t-48.5 9h-20l-3 8l30 81l60 -1l-17 -40q45 -6 70 -28
t25 -56q0 -37 -34.5 -62t-90.5 -25z" />
    <glyph glyph-name="scedilla" unicode="&#x15f;" horiz-adv-x="433" 
d="M226 516q33 0 62 -5.5t51 -14.5v-107q-28 13 -55 20t-46 7q-28 0 -45 -10.5t-17 -29.5q0 -14 17.5 -29.5t56.5 -40.5q84 -55 113.5 -94t29.5 -83q0 -63 -49.5 -103.5t-137.5 -41.5q-37 0 -77.5 10t-70.5 23v107q37 -19 72.5 -28.5t58.5 -9.5q37 0 54 14t17 33
q0 13 -15.5 32t-74.5 56q-75 49 -100 83t-25 78q0 25 10 49t32 43t56.5 30.5t82.5 11.5zM189 -208q-14 0 -35 3.5t-39 10.5v55h1q18 -5 36.5 -8t28.5 -3q22 0 36 9t14 22t-17.5 22t-45.5 9h-18l-2 6l28 79l58 -3l-15 -35q43 -6 66.5 -27.5t23.5 -53.5q0 -37 -33 -61.5
t-87 -24.5z" />
    <glyph glyph-name="Scaron" unicode="&#x160;" horiz-adv-x="525" 
d="M438 737l-1 -122q-28 14 -64.5 24t-72.5 10q-57 0 -80.5 -22t-23.5 -47q0 -33 28.5 -63t88.5 -79q93 -76 131 -131.5t38 -113.5q0 -48 -19.5 -86.5t-54 -64.5t-81 -40t-100.5 -14q-42 0 -93.5 9.5t-82.5 23.5l2 123q34 -19 82.5 -31.5t94.5 -12.5q56 0 85 27.5t29 61.5
t-29 69t-95 87q-44 36 -75.5 65.5t-51 56t-28.5 53.5t-9 59q0 35 14 68t43.5 58t74.5 40.5t106 15.5q34 0 73.5 -6t70.5 -18zM356 807h-131l-114 147h108l70 -86l70 86h112z" />
    <glyph glyph-name="scaron" unicode="&#x161;" horiz-adv-x="433" 
d="M226 516q33 0 62 -5.5t51 -14.5v-107q-28 13 -55 20t-46 7q-28 0 -45 -10.5t-17 -29.5q0 -14 17.5 -29.5t56.5 -40.5q84 -55 113.5 -94t29.5 -83q0 -63 -49.5 -103.5t-137.5 -41.5q-37 0 -77.5 10t-70.5 23v107q37 -19 72.5 -28.5t58.5 -9.5q37 0 54 14t17 33
q0 13 -15.5 32t-74.5 56q-75 49 -100 83t-25 78q0 25 10 49t32 43t56.5 30.5t82.5 11.5zM287 572h-131l-114 147h108l70 -86l70 86h112z" />
    <glyph glyph-name="Tcaron" unicode="&#x164;" horiz-adv-x="454" 
d="M159 0v625h-131v121h398v-121h-131v-625h-136zM293 807h-131l-114 147h108l70 -86l70 86h112z" />
    <glyph glyph-name="tcaron" unicode="&#x165;" horiz-adv-x="315" 
d="M281 396h-62v-396h-124v396h-62v104h62v159l124 37v-196h62v-104zM371 806l-53 -170h-72l18 170h107z" />
    <glyph glyph-name="Tbar" unicode="&#x166;" horiz-adv-x="454" 
d="M370 312h-75v-312h-136v312h-77v97h77v216h-131v121h398v-121h-131v-216h75v-97z" />
    <glyph glyph-name="tbar" unicode="&#x167;" horiz-adv-x="315" 
d="M281 222h-62v-222h-124v222h-62v78h62v96h-62v104h62v159l124 37v-196h62v-104h-62v-96h62v-78z" />
    <glyph glyph-name="Utilde" unicode="&#x168;" horiz-adv-x="718" 
d="M650 307q0 -155 -74.5 -243t-216.5 -88q-141 0 -216.5 88t-75.5 243v439h136v-470q0 -43 13 -76.5t35 -55.5t50 -33.5t58 -11.5q31 0 59 11.5t49.5 33.5t34 55.5t12.5 76.5v470h136v-439zM240 808l-96 2q-7 87 29.5 121t86.5 34q24 0 48.5 -9.5t48 -20.5t44 -20.5
t35.5 -9.5q16 0 28.5 11.5t11.5 46.5l97 -3q6 -76 -27 -113t-87 -37q-24 0 -49.5 9t-49 20t-44 20t-35.5 9q-16 0 -29 -11.5t-12 -48.5z" />
    <glyph glyph-name="utilde" unicode="&#x169;" horiz-adv-x="579" 
d="M401 0v63q-23 -28 -65.5 -52t-98.5 -24q-78 0 -129 50t-51 137v326h125v-289q0 -63 31 -88t74 -25q18 0 37.5 7t35.5 20t26 32.5t10 44.5v298h123v-500h-118zM182 573l-94 2q-6 84 28 116.5t80 32.5q22 0 45 -8.5t44 -19t39.5 -19t31.5 -8.5q15 0 26 10.5t11 42.5l94 -3
q5 -72 -24.5 -108t-82.5 -36q-22 0 -45 8.5t-44.5 18t-40 18t-31.5 8.5q-15 0 -26.5 -10.5t-10.5 -44.5z" />
    <glyph glyph-name="Umacron" unicode="&#x16a;" horiz-adv-x="718" 
d="M650 307q0 -155 -74.5 -243t-216.5 -88q-141 0 -216.5 88t-75.5 243v439h136v-470q0 -43 13 -76.5t35 -55.5t50 -33.5t58 -11.5q31 0 59 11.5t49.5 33.5t34 55.5t12.5 76.5v470h136v-439zM504 900v-93h-290v93h290z" />
    <glyph glyph-name="umacron" unicode="&#x16b;" horiz-adv-x="579" 
d="M401 0v63q-23 -28 -65.5 -52t-98.5 -24q-78 0 -129 50t-51 137v326h125v-289q0 -63 31 -88t74 -25q18 0 37.5 7t35.5 20t26 32.5t10 44.5v298h123v-500h-118zM430 665v-93h-284v93h284z" />
    <glyph glyph-name="Ubreve" unicode="&#x16c;" horiz-adv-x="718" 
d="M650 307q0 -155 -74.5 -243t-216.5 -88q-141 0 -216.5 88t-75.5 243v439h136v-470q0 -43 13 -76.5t35 -55.5t50 -33.5t58 -11.5q31 0 59 11.5t49.5 33.5t34 55.5t12.5 76.5v470h136v-439zM522 955q-13 -68 -55.5 -110.5t-107.5 -42.5t-107.5 42.5t-55.5 110.5l79 3
q14 -39 37.5 -58t46.5 -19q24 0 47 19t37 58z" />
    <glyph glyph-name="ubreve" unicode="&#x16d;" horiz-adv-x="579" 
d="M401 0v63q-23 -28 -65.5 -52t-98.5 -24q-78 0 -129 50t-51 137v326h125v-289q0 -63 31 -88t74 -25q18 0 37.5 7t35.5 20t26 32.5t10 44.5v298h123v-500h-118zM451 720q-13 -68 -55.5 -110.5t-107.5 -42.5t-107.5 42.5t-55.5 110.5l79 3q14 -39 37.5 -58t46.5 -19
q24 0 47 19t37 58z" />
    <glyph glyph-name="Uring" unicode="&#x16e;" horiz-adv-x="718" 
d="M650 307q0 -155 -74.5 -243t-216.5 -88q-141 0 -216.5 88t-75.5 243v439h136v-470q0 -43 13 -76.5t35 -55.5t50 -33.5t58 -11.5q31 0 59 11.5t49.5 33.5t34 55.5t12.5 76.5v470h136v-439zM359 1043q52 0 88.5 -36t36.5 -84q0 -49 -36.5 -85t-88.5 -36t-88.5 37t-36.5 84
q0 48 36.5 84t88.5 36zM359 985q-25 0 -43.5 -18t-18.5 -44t18.5 -44t43.5 -18q26 0 44 18t18 44t-18 44t-44 18z" />
    <glyph glyph-name="uring" unicode="&#x16f;" horiz-adv-x="579" 
d="M401 0v63q-23 -28 -65.5 -52t-98.5 -24q-78 0 -129 50t-51 137v326h125v-289q0 -63 31 -88t74 -25q18 0 37.5 7t35.5 20t26 32.5t10 44.5v298h123v-500h-118zM288 808q52 0 88.5 -36t36.5 -84q0 -49 -36.5 -85t-88.5 -36t-88.5 37t-36.5 84q0 48 36.5 84t88.5 36z
M288 750q-25 0 -43.5 -18t-18.5 -44t18.5 -44t43.5 -18q26 0 44 18t18 44t-18 44t-44 18z" />
    <glyph glyph-name="Uhungarumlaut" unicode="&#x170;" horiz-adv-x="718" 
d="M650 307q0 -155 -74.5 -243t-216.5 -88q-141 0 -216.5 88t-75.5 243v439h136v-470q0 -43 13 -76.5t35 -55.5t50 -33.5t58 -11.5q31 0 59 11.5t49.5 33.5t34 55.5t12.5 76.5v470h136v-439zM493 954h135l-132 -147h-93zM298 954h136l-134 -147h-93z" />
    <glyph glyph-name="uhungarumlaut" unicode="&#x171;" horiz-adv-x="579" 
d="M401 0v63q-23 -28 -65.5 -52t-98.5 -24q-78 0 -129 50t-51 137v326h125v-289q0 -63 31 -88t74 -25q18 0 37.5 7t35.5 20t26 32.5t10 44.5v298h123v-500h-118zM420 719h135l-132 -147h-93zM231 719h136l-134 -147h-93z" />
    <glyph glyph-name="Uogonek" unicode="&#x172;" horiz-adv-x="725" 
d="M424 -183q-51 0 -75.5 25t-24.5 56q0 23 9 42.5t25 35.5q-140 0 -215.5 88t-75.5 243v439h136v-470q0 -43 13 -76.5t35 -55.5t50 -33.5t58 -11.5q31 0 59 11.5t49.5 33.5t34 55.5t12.5 76.5v470h137v-439q0 -104 -34 -179.5t-100 -113.5v0l-51 -36q-23 -16 -32 -30
t-9 -28q0 -13 8.5 -23t22.5 -10q12 0 21 4.5t16 10.5l37 -48q-15 -13 -42 -25t-64 -12z" />
    <glyph glyph-name="uogonek" unicode="&#x173;" horiz-adv-x="579" 
d="M428 -176q-50 0 -73.5 23.5t-23.5 52.5q0 27 17 49.5t40 38.5l13 9v66q-23 -28 -65.5 -52t-98.5 -24q-78 0 -129 50t-51 137v326h125v-289q0 -63 31 -88t74 -25q18 0 37.5 7t35.5 20t26 32.5t10 44.5v298h123v-500l-51 -36q-19 -13 -28 -23.5t-9 -22.5q0 -10 8 -18t21 -8
q11 0 20 4t16 10l36 -46q-14 -13 -41 -24t-63 -12z" />
    <glyph glyph-name="Wcircumflex" unicode="&#x174;" horiz-adv-x="1023" 
d="M660 0l-147 534l-151 -534h-132l-214 746h141l148 -547l147 547h126l145 -546l149 546h135l-215 -746h-132zM588 807l-71 86l-70 -86h-109l114 147h131l115 -147h-110z" />
    <glyph glyph-name="wcircumflex" unicode="&#x175;" horiz-adv-x="818" 
d="M518 0l-107 326l-105 -326h-119l-172 500h130l102 -339l107 339h115l107 -339l102 339h125l-171 -500h-114zM483 572l-71 86l-70 -86h-109l114 147h131l115 -147h-110z" />
    <glyph glyph-name="Ycircumflex" unicode="&#x176;" horiz-adv-x="670" 
d="M403 0h-136v240l-256 506h148l178 -376l184 376h139l-257 -506v-240zM416 807l-71 86l-70 -86h-109l114 147h131l115 -147h-110z" />
    <glyph glyph-name="ycircumflex" unicode="&#x177;" horiz-adv-x="582" 
d="M299 -213h-128l73 199l-229 514h139l151 -371l134 371h128zM370 572l-71 86l-70 -86h-109l114 147h131l115 -147h-110z" />
    <glyph glyph-name="Ydieresis" unicode="&#x178;" horiz-adv-x="670" 
d="M403 0h-136v240l-256 506h148l178 -376l184 376h139l-257 -506v-240zM513 910v-103h-116v103h116zM293 910v-103h-116v103h116z" />
    <glyph glyph-name="Zacute" unicode="&#x179;" horiz-adv-x="658" 
d="M580 0h-546l-2 16l365 613h-320l52 117h477l3 -16l-366 -613h387zM519 954l-131 -147h-100l82 147h149z" />
    <glyph glyph-name="zacute" unicode="&#x17a;" horiz-adv-x="544" 
d="M459 0h-424l-6 11l274 384h-225l43 105h377l6 -11l-272 -384h269zM466 719l-131 -147h-100l82 147h149z" />
    <glyph glyph-name="Zdotaccent" unicode="&#x17b;" horiz-adv-x="658" 
d="M580 0h-546l-2 16l365 613h-320l52 117h477l3 -16l-366 -613h387zM404 915v-108h-126v108h126z" />
    <glyph glyph-name="zdotaccent" unicode="&#x17c;" horiz-adv-x="544" 
d="M459 0h-424l-6 11l274 384h-225l43 105h377l6 -11l-272 -384h269zM350 695v-117h-126v117h126z" />
    <glyph glyph-name="Zcaron" unicode="&#x17d;" horiz-adv-x="658" 
d="M580 0h-546l-2 16l365 613h-320l52 117h477l3 -16l-366 -613h387zM407 807h-131l-114 147h108l70 -86l70 86h112z" />
    <glyph glyph-name="zcaron" unicode="&#x17e;" horiz-adv-x="544" 
d="M459 0h-424l-6 11l274 384h-225l43 105h377l6 -11l-272 -384h269zM354 572h-131l-114 147h108l70 -86l70 86h112z" />
    <glyph glyph-name="florin" unicode="&#x192;" horiz-adv-x="515" 
d="M283 1q-10 -65 -28.5 -108t-48 -68t-70.5 -35t-95 -10v110q22 0 40.5 3t33 14.5t25 34t15.5 60.5q2 16 7.5 52t12 83.5t14.5 103t15 109.5h-78v107h93q4 27 7.5 50t5.5 40q8 63 29.5 102t52.5 60.5t69.5 29t80.5 7.5v-110q-34 0 -65 -15t-40 -75q-2 -17 -5.5 -40
t-7.5 -49h79v-107h-94q-7 -54 -15 -109.5t-14.5 -103.5t-11.5 -84t-7 -52z" />
    <glyph glyph-name="Aringacute" unicode="&#x1fa;" horiz-adv-x="756" 
d="M504 242l-127 339l-129 -339h256zM595 0l-50 133h-338l-51 -133h-140l295 746h135l294 -746h-145zM380 929q52 0 88.5 -36t36.5 -84q0 -49 -36.5 -85t-88.5 -36t-88.5 37t-36.5 84q0 48 36.5 84t88.5 36zM380 871q-25 0 -43.5 -18t-18.5 -44t18.5 -44t43.5 -18
q26 0 44 18t18 44t-18 44t-44 18zM560 1101l-131 -147h-100l82 147h149z" />
    <glyph glyph-name="aringacute" unicode="&#x1fb;" horiz-adv-x="540" 
d="M262 57q41 0 68.5 27t27.5 64q0 36 -26.5 61.5t-69.5 25.5t-69 -25.5t-26 -61.5q0 -37 26 -64t69 -27zM365 0v49q-24 -28 -62 -47.5t-89 -19.5q-77 0 -126 46.5t-49 116.5q0 69 50.5 117t134.5 48q43 0 76.5 -11.5t56.5 -29.5v28q0 65 -31.5 90t-86.5 25q-24 0 -51 -3.5
t-73 -12.5l-4 102q46 9 78.5 12.5t72.5 3.5q110 0 164.5 -51.5t54.5 -135.5v-327h-116zM271 808q52 0 88.5 -36t36.5 -84q0 -49 -36.5 -85t-88.5 -36t-88.5 37t-36.5 84q0 48 36.5 84t88.5 36zM271 750q-25 0 -43.5 -18t-18.5 -44t18.5 -44t43.5 -18q26 0 44 18t18 44
t-18 44t-44 18zM450 979l-131 -147h-100l82 147h149z" />
    <glyph glyph-name="AEacute" unicode="&#x1fc;" horiz-adv-x="977" 
d="M490 242l-125 361l-124 -361h249zM574 0l-46 133h-325l-46 -133h-141l284 746h457v-119h-277l69 -183h291v-112h-249l80 -213h291v-119h-388zM569 954l-131 -147h-100l82 147h149z" />
    <glyph glyph-name="aeacute" unicode="&#x1fd;" horiz-adv-x="926" 
d="M618 422q-54 0 -89.5 -31.5t-48.5 -85.5h275q-13 53 -49 85t-88 32zM262 52q41 0 69 26.5t28 66.5q0 37 -27 63.5t-70 26.5t-69 -26.5t-26 -63.5q0 -40 26 -66.5t69 -26.5zM881 65q-40 -37 -100.5 -63t-140.5 -26q-72 0 -129 26t-94 70q-19 -37 -64.5 -66.5t-118.5 -29.5
q-89 0 -142 47t-53 119q0 70 50.5 119t134.5 49q40 0 71.5 -10t54.5 -26v23q0 65 -29.5 90t-84.5 25q-24 0 -49.5 -3t-71.5 -13l-4 102q46 9 77.5 12.5t71.5 3.5q60 0 103 -18t68 -49q34 36 82.5 56.5t105.5 20.5q56 0 105.5 -20.5t86 -56.5t57.5 -86t21 -108v-32h-414
q7 -69 51.5 -107t115.5 -38q54 0 96.5 18.5t73.5 47.5zM626 719l-131 -147h-100l82 147h149z" />
    <glyph glyph-name="Oslashacute" unicode="&#x1fe;" horiz-adv-x="918" 
d="M179 374q0 -52 19 -99.5t52 -83.5l303 436q-23 9 -48 14t-51 5q-57 0 -107.5 -22t-87.5 -59t-58.5 -86.5t-21.5 -104.5zM454 100q57 0 107 22t86.5 59t58 87t21.5 106q0 60 -24.5 113t-67.5 90l-309 -446q28 -15 61 -23t67 -8zM454 -24q-55 0 -106 13t-95 37l-51 -74
h-117l89 129q-60 54 -95.5 130t-35.5 163q0 82 32 154.5t87 126t130.5 84.5t161.5 31q46 0 89.5 -9.5t82.5 -26.5l42 60h117l-76 -109q71 -54 113 -135.5t42 -175.5q0 -82 -32 -155t-87 -126.5t-130.5 -85t-160.5 -31.5zM632 954l-131 -147h-100l82 147h149z" />
    <glyph glyph-name="oslashacute" unicode="&#x1ff;" horiz-adv-x="663" 
d="M179 250q0 -28 8 -52.5t23 -44.5l156 252q-8 2 -17 3t-18 1q-65 0 -108.5 -47t-43.5 -112zM331 91q66 0 109.5 46.5t43.5 112.5q0 27 -8 52t-23 45l-157 -252q8 -2 17 -3t18 -1zM331 -24q-26 0 -51.5 4t-47.5 12l-25 -40h-122l55 89q-46 37 -73 91.5t-27 117.5
q0 57 22 107t61 87t92.5 58.5t115.5 21.5q26 0 51.5 -4t48.5 -11l24 39h123l-55 -89q46 -37 73 -91.5t27 -117.5q0 -57 -22 -107t-61 -87t-92.5 -58.5t-116.5 -21.5zM499 719l-131 -147h-100l82 147h149z" />
    <glyph glyph-name="Scommaaccent" unicode="&#x218;" horiz-adv-x="525" 
d="M438 737l-1 -122q-28 14 -64.5 24t-72.5 10q-57 0 -80.5 -22t-23.5 -47q0 -33 28.5 -63t88.5 -79q93 -76 131 -131.5t38 -113.5q0 -48 -19.5 -86.5t-54 -64.5t-81 -40t-100.5 -14q-42 0 -93.5 9.5t-82.5 23.5l2 123q34 -19 82.5 -31.5t94.5 -12.5q56 0 85 27.5t29 61.5
t-29 69t-95 87q-44 36 -75.5 65.5t-51 56t-28.5 53.5t-9 59q0 35 14 68t43.5 58t74.5 40.5t106 15.5q34 0 73.5 -6t70.5 -18zM294 -57l-64 -170h-91l27 170h128z" />
    <glyph glyph-name="scommaaccent" unicode="&#x219;" horiz-adv-x="433" 
d="M226 516q33 0 62 -5.5t51 -14.5v-107q-28 13 -55 20t-46 7q-28 0 -45 -10.5t-17 -29.5q0 -14 17.5 -29.5t56.5 -40.5q84 -55 113.5 -94t29.5 -83q0 -63 -49.5 -103.5t-137.5 -41.5q-37 0 -77.5 10t-70.5 23v107q37 -19 72.5 -28.5t58.5 -9.5q37 0 54 14t17 33
q0 13 -15.5 32t-74.5 56q-75 49 -100 83t-25 78q0 25 10 49t32 43t56.5 30.5t82.5 11.5zM271 -57l-64 -170h-91l27 170h128z" />
    <glyph glyph-name="Tcommaaccent" unicode="&#x21a;" horiz-adv-x="454" 
d="M159 0v625h-131v121h398v-121h-131v-625h-136zM291 -57l-64 -170h-91l27 170h128z" />
    <glyph glyph-name="tcommaaccent" unicode="&#x21b;" horiz-adv-x="315" 
d="M281 396h-62v-396h-124v396h-62v104h62v159l124 37v-196h62v-104zM220 -57l-64 -170h-91l27 170h128z" />
    <glyph glyph-name="dotlessj" unicode="&#x237;" horiz-adv-x="243" 
d="M-26 -109h12q33 0 53.5 24.5t20.5 70.5v514h123v-516q0 -104 -49.5 -153t-146.5 -49h-13v109z" />
    <glyph glyph-name="schwa" unicode="&#x259;" horiz-adv-x="623" 
d="M307 -24q-57 0 -106.5 20.5t-85.5 56.5t-57 86t-21 108v32h414q-7 69 -51.5 107t-116.5 38q-54 0 -96 -18.5t-73 -47.5l-70 77q40 37 101 63t140 26q69 0 124.5 -21t93.5 -57.5t59 -87t21 -108.5t-20.5 -108.5t-56.5 -87t-87 -57.5t-112 -21zM308 78q53 0 89 31.5
t49 85.5h-275q12 -53 48.5 -85t88.5 -32z" />
    <glyph glyph-name="circumflex" unicode="&#x2c6;" horiz-adv-x="536" 
d="M337 643l-71 86l-70 -86h-109l114 147h131l115 -147h-110z" />
    <glyph glyph-name="caron" unicode="&#x2c7;" horiz-adv-x="536" 
d="M332 643h-131l-114 147h108l70 -86l70 86h112z" />
    <glyph glyph-name="breve" unicode="&#x2d8;" horiz-adv-x="536" 
d="M431 792q-13 -68 -55.5 -110.5t-107.5 -42.5t-107.5 42.5t-55.5 110.5l79 3q14 -39 37.5 -58t46.5 -19q24 0 47 19t37 58z" />
    <glyph glyph-name="dotaccent" unicode="&#x2d9;" horiz-adv-x="536" 
d="M331 738v-108h-126v108h126z" />
    <glyph glyph-name="ring" unicode="&#x2da;" horiz-adv-x="536" 
d="M268 878q52 0 88.5 -36t36.5 -84q0 -49 -36.5 -85t-88.5 -36t-88.5 37t-36.5 84q0 48 36.5 84t88.5 36zM268 820q-25 0 -43.5 -18t-18.5 -44t18.5 -44t43.5 -18q26 0 44 18t18 44t-18 44t-44 18z" />
    <glyph glyph-name="ogonek" unicode="&#x2db;" horiz-adv-x="536" 
d="M286 -30q-20 -15 -29.5 -25.5t-9.5 -22.5q0 -11 8.5 -20t22.5 -9q11 0 20.5 4.5t15.5 10.5l38 -48q-15 -13 -42 -25t-64 -12q-52 0 -76 24.5t-24 54.5q0 28 17 50.5t42 39.5l38 25l93 -11z" />
    <glyph glyph-name="tilde" unicode="&#x2dc;" horiz-adv-x="536" 
d="M149 643l-96 2q-7 87 29.5 121t86.5 34q24 0 48.5 -9.5t48 -20.5t44 -20.5t35.5 -9.5q16 0 28.5 11.5t11.5 46.5l97 -3q6 -76 -27 -113t-87 -37q-24 0 -49.5 9t-49 20t-44 20t-35.5 9q-16 0 -29 -11.5t-12 -48.5z" />
    <glyph glyph-name="hungarumlaut" unicode="&#x2dd;" horiz-adv-x="536" 
d="M393 790h135l-132 -147h-93zM198 790h136l-134 -147h-93z" />
    <glyph glyph-name="acute.cmb" unicode="&#x301;" 
d="M159 790l-131 -147h-100l82 147h149z" />
    <glyph glyph-name="mu" unicode="&#x3bc;" horiz-adv-x="580" 
d="M167 -194l-108 -26v720h125v-296q0 -27 9.5 -47t25 -33t34 -19.5t36.5 -6.5t37.5 6.5t35 19.5t25.5 32.5t10 45.5v298h124v-500h-107v58q-16 -31 -49.5 -51t-76.5 -20q-40 0 -71.5 18.5t-49.5 49.5v-249z" />
    <glyph glyph-name="Wgrave" unicode="&#x1e80;" horiz-adv-x="1023" 
d="M660 0l-147 534l-151 -534h-132l-214 746h141l148 -547l147 547h126l145 -546l149 546h135l-215 -746h-132zM334 954h152l82 -147h-102z" />
    <glyph glyph-name="wgrave" unicode="&#x1e81;" horiz-adv-x="818" 
d="M518 0l-107 326l-105 -326h-119l-172 500h130l102 -339l107 339h115l107 -339l102 339h125l-171 -500h-114zM229 719h152l82 -147h-102z" />
    <glyph glyph-name="Wacute" unicode="&#x1e82;" horiz-adv-x="1023" 
d="M660 0l-147 534l-151 -534h-132l-214 746h141l148 -547l147 547h126l145 -546l149 546h135l-215 -746h-132zM696 954l-131 -147h-100l82 147h149z" />
    <glyph glyph-name="wacute" unicode="&#x1e83;" horiz-adv-x="818" 
d="M518 0l-107 326l-105 -326h-119l-172 500h130l102 -339l107 339h115l107 -339l102 339h125l-171 -500h-114zM592 719l-131 -147h-100l82 147h149z" />
    <glyph glyph-name="Wdieresis" unicode="&#x1e84;" horiz-adv-x="1023" 
d="M660 0l-147 534l-151 -534h-132l-214 746h141l148 -547l147 547h126l145 -546l149 546h135l-215 -746h-132zM685 910v-103h-116v103h116zM465 910v-103h-116v103h116z" />
    <glyph glyph-name="wdieresis" unicode="&#x1e85;" horiz-adv-x="818" 
d="M518 0l-107 326l-105 -326h-119l-172 500h130l102 -339l107 339h115l107 -339l102 339h125l-171 -500h-114zM571 675v-103h-114v103h114zM368 675v-103h-115v103h115z" />
    <glyph glyph-name="Ygrave" unicode="&#x1ef2;" horiz-adv-x="670" 
d="M403 0h-136v240l-256 506h148l178 -376l184 376h139l-257 -506v-240zM161 954h152l82 -147h-102z" />
    <glyph glyph-name="ygrave" unicode="&#x1ef3;" horiz-adv-x="582" 
d="M299 -213h-128l73 199l-229 514h139l151 -371l134 371h128zM116 719h152l82 -147h-102z" />
    <glyph glyph-name="uni2000" unicode="&#x2000;" horiz-adv-x="500" 
 />
    <glyph glyph-name="uni2001" unicode="&#x2001;" horiz-adv-x="1000" 
 />
    <glyph glyph-name="uni2002" unicode="&#x2002;" horiz-adv-x="500" 
 />
    <glyph glyph-name="uni2003" unicode="&#x2003;" horiz-adv-x="1000" 
 />
    <glyph glyph-name="uni2004" unicode="&#x2004;" horiz-adv-x="333" 
 />
    <glyph glyph-name="uni2005" unicode="&#x2005;" horiz-adv-x="250" 
 />
    <glyph glyph-name="uni2009" unicode="&#x2009;" horiz-adv-x="166" 
 />
    <glyph glyph-name="uni200A" unicode="&#x200a;" horiz-adv-x="100" 
 />
    <glyph glyph-name="uni200B" unicode="&#x200b;" horiz-adv-x="0" 
 />
    <glyph glyph-name="endash" unicode="&#x2013;" horiz-adv-x="560" 
d="M512 325v-97h-464v97h464z" />
    <glyph glyph-name="emdash" unicode="&#x2014;" horiz-adv-x="760" 
d="M712 325v-97h-664v97h664z" />
    <glyph glyph-name="emdash.salt_em" unicode="&#x2015;" horiz-adv-x="1036" 
d="M1018 325v-97h-1000v97h1000z" />
    <glyph glyph-name="quoteleft" unicode="&#x2018;" horiz-adv-x="337" 
d="M271 746l-60 -290h-143l108 290h95z" />
    <glyph glyph-name="quoteright" unicode="&#x2019;" horiz-adv-x="334" 
d="M71 456l61 290h142l-107 -290h-96z" />
    <glyph glyph-name="quotesinglbase" unicode="&#x201a;" horiz-adv-x="336" 
d="M51 -290l61 290h142l-107 -290h-96z" />
    <glyph glyph-name="quotedblleft" unicode="&#x201c;" horiz-adv-x="532" 
d="M271 746l-60 -290h-143l108 290h95zM465 746l-60 -290h-143l108 290h95z" />
    <glyph glyph-name="quotedblright" unicode="&#x201d;" horiz-adv-x="527" 
d="M71 456l61 290h142l-107 -290h-96zM266 456l61 290h142l-107 -290h-96z" />
    <glyph glyph-name="quotedblbase" unicode="&#x201e;" horiz-adv-x="531" 
d="M52 -290l61 290h142l-107 -290h-96zM247 -290l61 290h142l-107 -290h-96z" />
    <glyph glyph-name="dagger" unicode="&#x2020;" horiz-adv-x="504" 
d="M451 467h-135v-577l-127 30v547h-135v100h135v179h127v-179h135v-100z" />
    <glyph glyph-name="daggerdbl" unicode="&#x2021;" horiz-adv-x="507" 
d="M451 216h-135v-326l-126 30v296h-136v100h136v151h-136v100h136v179h126v-179h135v-100h-135v-151h135v-100z" />
    <glyph glyph-name="bullet" unicode="&#x2022;" horiz-adv-x="303" 
d="M74 390h155v-145h-155v145z" />
    <glyph glyph-name="ellipsis" unicode="&#x2026;" horiz-adv-x="796" 
d="M72 141h148v-141h-148v141zM323 141h148v-141h-148v141zM574 141h148v-141h-148v141z" />
    <glyph glyph-name="perthousand" unicode="&#x2030;" horiz-adv-x="1210" 
d="M720 746l-483 -746h-103l481 746h105zM206 746q72 0 118.5 -47.5t46.5 -140.5v-26q0 -93 -47 -140.5t-118 -47.5q-69 0 -116.5 47.5t-47.5 140.5v26q0 93 47.5 140.5t116.5 47.5zM273 532v25q0 60 -18.5 89.5t-48.5 29.5q-28 0 -47 -29.5t-19 -89.5v-25q0 -60 19 -89
t47 -29q29 0 48 29t19 89zM646 402q70 0 117 -47.5t47 -140.5v-26q0 -93 -47 -140.5t-117 -47.5q-69 0 -116.5 47.5t-47.5 140.5v26q0 93 47.5 140.5t116.5 47.5zM1004 402q71 0 117.5 -47.5t46.5 -140.5v-26q0 -93 -46.5 -140.5t-117.5 -47.5q-69 0 -116.5 47.5
t-47.5 140.5v26q0 93 47.5 140.5t116.5 47.5zM1071 189v24q0 60 -18.5 90t-48.5 30q-28 0 -47 -30t-19 -90v-24q0 -61 19 -90.5t47 -29.5q30 0 48.5 29.5t18.5 90.5zM712 188v25q0 60 -18.5 89.5t-47.5 29.5t-47.5 -29.5t-18.5 -89.5v-25q0 -60 18.5 -89t47.5 -29t47.5 29
t18.5 89z" />
    <glyph glyph-name="minute" unicode="&#x2032;" horiz-adv-x="281" 
d="M52 415l59 331h118l-60 -331h-117z" />
    <glyph glyph-name="second" unicode="&#x2033;" horiz-adv-x="481" 
d="M52 415l59 331h118l-60 -331h-117zM252 415l59 331h118l-60 -331h-117z" />
    <glyph glyph-name="guilsinglleft" unicode="&#x2039;" horiz-adv-x="387" 
d="M324 0h-107l-161 248v3l161 249h109l-161 -249z" />
    <glyph glyph-name="guilsinglright" unicode="&#x203a;" horiz-adv-x="387" 
d="M170 0h-109l161 252l-159 248h107l161 -248v-4z" />
    <glyph glyph-name="fraction" unicode="&#x2044;" horiz-adv-x="327" 
d="M332 746h112l-450 -746h-111z" />
    <glyph glyph-name="zero.sups" unicode="&#x2070;" horiz-adv-x="495" 
d="M248 761q81 0 133.5 -58.5t52.5 -174.5v-32q0 -114 -52.5 -173t-133.5 -59q-79 0 -132.5 59t-53.5 173v32q0 116 53.5 174.5t132.5 58.5zM334 495v32q0 75 -23.5 111.5t-62.5 36.5q-37 0 -62 -36.5t-25 -111.5v-32q0 -75 25 -111.5t62 -36.5q38 0 62 36.5t24 111.5z" />
    <glyph glyph-name="four.sups" unicode="&#x2074;" horiz-adv-x="479" 
d="M278 443v161l-111 -161h111zM414 361h-35v-82h-101v82h-227l-9 18l251 367h86v-303h59z" />
    <glyph glyph-name="five.sups" unicode="&#x2075;" horiz-adv-x="448" 
d="M173 264q-27 0 -61 7t-60 21v86q27 -15 57 -22.5t64 -7.5q46 0 77 23.5t31 62.5q0 32 -32 54.5t-85 22.5q-25 0 -46.5 -3.5t-41.5 -10.5l59 249h265l-27 -85h-171l-21 -75h8.5h8.5q90 0 137.5 -42.5t47.5 -108.5q0 -75 -57 -123t-153 -48z" />
    <glyph glyph-name="six.sups" unicode="&#x2076;" horiz-adv-x="466" 
d="M236 264q-78 0 -131 45t-53 124q0 39 16 79.5t41 80.5t56 78.5t62 74.5h120q-42 -46 -81 -91.5t-68 -87.5q16 8 34.5 13t38.5 5q60 0 104 -44t44 -109q0 -34 -13.5 -65t-37.5 -53.5t-58 -36t-74 -13.5zM236 511q-35 0 -60.5 -24t-25.5 -58t25.5 -58t60.5 -24t59.5 24
t24.5 58t-24.5 58t-59.5 24z" />
    <glyph glyph-name="seven.sups" unicode="&#x2077;" horiz-adv-x="445" 
d="M205 279h-112l169 379h-212l27 88h329z" />
    <glyph glyph-name="eight.sups" unicode="&#x2078;" horiz-adv-x="461" 
d="M231 264q-85 0 -134 43t-49 109q0 39 21 70t60 50q-27 16 -41.5 41t-14.5 55q0 52 42 90.5t116 38.5q75 0 116.5 -38.5t41.5 -90.5q0 -30 -14 -55.5t-41 -41.5q38 -18 59 -49t21 -70q0 -66 -49.5 -109t-133.5 -43zM231 561q25 0 44 18t19 45q0 25 -18.5 41t-44.5 16
t-45 -16t-19 -41q0 -27 18.5 -45t45.5 -18zM231 343q35 0 59.5 22.5t24.5 56.5q0 33 -24.5 54t-59.5 21t-60 -21t-25 -54q0 -34 25 -56.5t60 -22.5z" />
    <glyph glyph-name="nine.sups" unicode="&#x2079;" horiz-adv-x="466" 
d="M241 279h-120q42 45 80.5 90.5t67.5 87.5q-16 -8 -34 -13t-38 -5q-61 0 -105 44t-44 109q0 34 13.5 65t37.5 54t58 36.5t75 13.5q78 0 131 -45t53 -124q0 -39 -16 -80t-41 -80.5t-56.5 -78.5t-61.5 -74zM232 513q34 0 59.5 24t25.5 58t-25.5 58.5t-59.5 24.5
q-36 0 -60.5 -24.5t-24.5 -58.5t24.5 -58t60.5 -24z" />
    <glyph glyph-name="zero.sinf" unicode="&#x2080;" horiz-adv-x="457" 
d="M228 282q81 0 133.5 -58.5t52.5 -174.5v-32q0 -114 -52.5 -173t-133.5 -59q-79 0 -132.5 59t-53.5 173v32q0 116 53.5 174.5t132.5 58.5zM314 16v32q0 75 -23.5 111.5t-62.5 36.5q-37 0 -62 -36.5t-25 -111.5v-32q0 -75 25 -111.5t62 -36.5q38 0 62 36.5t24 111.5z" />
    <glyph glyph-name="one.sinf" unicode="&#x2081;" horiz-adv-x="282" 
d="M226 -200h-100v323l-86 -84v128l108 100h78v-467z" />
    <glyph glyph-name="two.sinf" unicode="&#x2082;" horiz-adv-x="406" 
d="M344 -200h-313l-7 13q10 14 37 46.5t56.5 69t55.5 68.5t35 44q21 25 30.5 43t9.5 43q0 27 -21 47.5t-58 21.5q-23 0 -48.5 -9t-52.5 -31v99q27 13 56.5 20t57.5 7q78 -1 124.5 -42.5t46.5 -103.5q-1 -48 -22.5 -77.5t-46.5 -61.5q-13 -16 -42 -49.5t-57 -64.5h194z" />
    <glyph glyph-name="three.sinf" unicode="&#x2083;" horiz-adv-x="368" 
d="M151 -215q-25 0 -62 5t-59 18v82q18 -13 47 -18t45 -5q51 -1 83 19.5t32 53.5q0 32 -30 51.5t-76 19.5h-31l3 79h28q35 0 58.5 17t23.5 42q0 24 -21 37.5t-55 13.5q-18 0 -40 -3.5t-41 -12.5l6 86q17 5 39 8.5t55 3.5q67 1 112 -33.5t45 -85.5q-1 -31 -17.5 -59
t-44.5 -45q37 -16 61.5 -48.5t24.5 -73.5q0 -66 -52 -109.5t-134 -42.5z" />
    <glyph glyph-name="four.sinf" unicode="&#x2084;" horiz-adv-x="441" 
d="M258 -36v161l-111 -161h111zM394 -118h-35v-82h-101v82h-227l-9 18l251 367h86v-303h59z" />
    <glyph glyph-name="five.sinf" unicode="&#x2085;" horiz-adv-x="410" 
d="M153 -215q-27 0 -61 7t-60 21v86q27 -15 57 -22.5t64 -7.5q46 0 77 23.5t31 62.5q0 32 -32 54.5t-85 22.5q-25 0 -46.5 -3.5t-41.5 -10.5l59 249h265l-27 -85h-171l-21 -75h8.5h8.5q90 0 137.5 -42.5t47.5 -108.5q0 -75 -57 -123t-153 -48z" />
    <glyph glyph-name="six.sinf" unicode="&#x2086;" horiz-adv-x="427" 
d="M216 -215q-78 0 -131 45t-53 124q0 39 16 79.5t41 80.5t56 78.5t62 74.5h120q-42 -46 -81 -91.5t-68 -87.5q16 8 34.5 13t38.5 5q60 0 104 -44t44 -109q0 -34 -13.5 -65t-37.5 -53.5t-58 -36t-74 -13.5zM216 32q-35 0 -60.5 -24t-25.5 -58t25.5 -58t60.5 -24t59.5 24
t24.5 58t-24.5 58t-59.5 24z" />
    <glyph glyph-name="seven.sinf" unicode="&#x2087;" horiz-adv-x="407" 
d="M185 -200h-112l169 379h-212l27 88h329z" />
    <glyph glyph-name="eight.sinf" unicode="&#x2088;" horiz-adv-x="422" 
d="M211 -215q-85 0 -134 43t-49 109q0 39 21 70t60 50q-27 16 -41.5 41t-14.5 55q0 52 42 90.5t116 38.5q75 0 116.5 -38.5t41.5 -90.5q0 -30 -14 -55.5t-41 -41.5q38 -18 59 -49t21 -70q0 -66 -49.5 -109t-133.5 -43zM211 82q25 0 44 18t19 45q0 25 -18.5 41t-44.5 16
t-45 -16t-19 -41q0 -27 18.5 -45t45.5 -18zM211 -136q35 0 59.5 22.5t24.5 56.5q0 33 -24.5 54t-59.5 21t-60 -21t-25 -54q0 -34 25 -56.5t60 -22.5z" />
    <glyph glyph-name="nine.sinf" unicode="&#x2089;" horiz-adv-x="427" 
d="M221 -200h-120q42 45 80.5 90.5t67.5 87.5q-16 -8 -34 -13t-38 -5q-61 0 -105 44t-44 109q0 34 13.5 65t37.5 54t58 36.5t75 13.5q78 0 131 -45t53 -124q0 -39 -16 -80t-41 -80.5t-56.5 -78.5t-61.5 -74zM212 34q34 0 59.5 24t25.5 58t-25.5 58.5t-59.5 24.5
q-36 0 -60.5 -24.5t-24.5 -58.5t24.5 -58t60.5 -24z" />
    <glyph glyph-name="Euro" unicode="&#x20ac;" horiz-adv-x="667" 
d="M615 9q-31 -15 -65.5 -22.5t-71.5 -7.5q-65 0 -121.5 21.5t-101 59t-76.5 89.5t-47 113h-107l14 67h81q-1 11 -1.5 22.5t-0.5 22.5v16.5t1 16.5h-94l14 69h90q15 63 46.5 116.5t76 92t102.5 60.5t124 22q37 0 70.5 -7.5t66.5 -23.5v-117q-28 16 -57.5 26t-63.5 10
q-81 0 -141.5 -51t-86.5 -128h286l-15 -69h-285q-1 -7 -1.5 -15.5t-0.5 -16.5q0 -12 1 -23.5t2 -22.5h269l-15 -67h-237q27 -74 86.5 -122.5t137.5 -48.5q34 0 63.5 10t57.5 27v-119z" />
    <glyph glyph-name="copyrightsound" unicode="&#x2117;" horiz-adv-x="908" 
d="M455 756q83 0 154.5 -30t123.5 -82t81.5 -122t29.5 -149t-29.5 -149t-81.5 -122t-123.5 -82t-154.5 -30t-155 30t-124 82t-81.5 122t-29.5 149t29.5 149t81.5 122t124 82t155 30zM455 712q-71 0 -133 -26.5t-108 -72t-73 -107.5t-27 -133q0 -70 27 -132t73 -108
t108 -72.5t133 -26.5q70 0 132 26.5t107.5 72.5t72.5 108t27 132q0 71 -27 133t-72.5 107.5t-107.5 72t-132 26.5zM466 295h-27v-136h-106v435h132q75 0 127 -31.5t53 -119.5q0 -40 -16.5 -68t-42 -45.5t-57.5 -26t-63 -8.5zM476 502h-38v-115h38q29 0 47.5 15.5t18.5 40.5
q1 27 -15.5 43t-50.5 16z" />
    <glyph glyph-name="trademark" unicode="&#x2122;" horiz-adv-x="685" 
d="M98 442v237h-62v67h197v-67h-62v-237h-73zM437 494l-87 136v-188h-72v304h79l90 -147l87 147h78v-304h-73v187l-85 -135h-17z" />
    <glyph glyph-name="arrowleft" unicode="&#x2190;" horiz-adv-x="786" 
d="M480 117v-8h-173l-287 287v14l287 287h173v-8l-218 -218h501v-136h-501z" />
    <glyph glyph-name="arrowup" unicode="&#x2191;" horiz-adv-x="786" 
d="M680 283l-219 220v-503h-136v502l-218 -219h-7v173l286 287h14l287 -287v-173h-7z" />
    <glyph glyph-name="arrowright" unicode="&#x2192;" horiz-adv-x="786" 
d="M479 104h-173v8l219 218h-502v136h502l-219 218v8h173l287 -287v-14z" />
    <glyph glyph-name="arrowdown" unicode="&#x2193;" horiz-adv-x="786" 
d="M400 3h-14l-286 287v173h7l218 -219v502h136v-503l219 220h7v-173z" />
    <glyph glyph-name="uni2196" unicode="&#x2196;" horiz-adv-x="786" 
d="M690 155l-96 -96l-354 353v-308l-6 -5l-122 123v405l9 9h405l123 -122l-4 -5l-311 1z" />
    <glyph glyph-name="uni2197" unicode="&#x2197;" horiz-adv-x="786" 
d="M548 107v310l-355 -356l-96 96l354 354h-309l-5 5l123 123h405l9 -10v-405l-121 -122z" />
    <glyph glyph-name="uni2198" unicode="&#x2198;" horiz-adv-x="786" 
d="M259 79l-122 123l4 5h310l-355 355l96 95l355 -355v309l5 6l122 -123v-405l-10 -9z" />
    <glyph glyph-name="uni2199" unicode="&#x2199;" horiz-adv-x="786" 
d="M526 77l-405 1l-9 8v407l122 121l5 -5v-309l354 355l96 -96l-355 -355h311l4 -5z" />
    <glyph glyph-name="minus" unicode="&#x2212;" horiz-adv-x="612" 
d="M562 401v-102h-512v102h512z" />
    <glyph glyph-name="radical" unicode="&#x221a;" horiz-adv-x="702" 
d="M396 0h-126l-127 353h-86v102h161l115 -331l234 622h111z" />
    <glyph glyph-name="infinity" unicode="&#x221e;" horiz-adv-x="710" 
d="M513 158q-58 0 -95 33.5t-63 73.5q-30 -47 -68 -77t-94 -30q-36 0 -66.5 15t-52 40t-34 58t-12.5 70t12.5 70t35 58t53.5 40t68 15q57 0 93.5 -31t64.5 -73q33 53 72.5 78.5t89.5 25.5q36 0 66.5 -15t52 -40t34 -58t12.5 -70t-12.5 -70t-35 -58t-53.5 -40t-68 -15z
M204 252q41 0 64 27.5t39 57.5q-26 42 -46.5 67.5t-59.5 25.5q-35 0 -57.5 -27t-22.5 -62t23 -62t60 -27zM509 252q35 0 57.5 27t22.5 62t-23 62t-60 27q-38 0 -61.5 -23.5t-42.5 -60.5q24 -40 45.5 -67t61.5 -27z" />
    <glyph glyph-name="approxequal" unicode="&#x2248;" horiz-adv-x="607" 
d="M149 383l-93 14q0 43 11.5 71.5t30 45.5t42 24t46.5 7q26 0 56 -11.5t59.5 -25t56 -25t47.5 -11.5q19 0 36 9t17 41l92 -15q0 -43 -11.5 -71.5t-30 -45t-42 -23.5t-47.5 -7q-26 0 -56 11.5t-59 24.5t-55.5 24.5t-47.5 11.5q-19 1 -35.5 -8.5t-16.5 -40.5zM149 160l-93 16
q0 42 11.5 70t30 45t42 24t46.5 7q26 0 56 -11.5t59.5 -24.5t56 -24.5t47.5 -11.5q19 -1 36 8.5t17 41.5l92 -16q0 -42 -11.5 -70.5t-30 -45.5t-42 -24t-47.5 -7q-26 0 -56 11.5t-59 25t-55.5 25t-47.5 11.5q-19 0 -35.5 -9t-16.5 -41z" />
    <glyph glyph-name="notequal" unicode="&#x2260;" horiz-adv-x="583" 
d="M226 17l-111 -1l66 168h-125v95h162l48 121h-210v95h247l66 169h110l-66 -169h114v-95h-151l-48 -121h199v-95h-236z" />
    <glyph glyph-name="lessequal" unicode="&#x2264;" horiz-adv-x="597" 
d="M553 148l-510 178v100l510 181v-108l-385 -123l385 -117v-111zM43 112h510v-88h-510v88z" />
    <glyph glyph-name="greaterequal" unicode="&#x2265;" horiz-adv-x="597" 
d="M44 148v111l386 117l-386 123v108l510 -181v-100zM554 112v-88h-510v88h510z" />
    <glyph glyph-name="lozenge" unicode="&#x25ca;" horiz-adv-x="636" 
d="M578 373l-216 -373h-86l-218 373l217 373h88zM320 103l155 268l-157 273l-155 -270z" />
    <glyph glyph-name="commaaccent" unicode="&#xf6c3;" horiz-adv-x="536" 
d="M331 -30l-64 -170h-91l27 170h128z" />
    <glyph glyph-name="apple" unicode="&#xf8ff;" horiz-adv-x="632" 
d="M28 -101v761h576v-761h-576zM113 560v-560h177q51 0 98 18.5t82 54.5t56.5 88.5t21.5 119.5q0 66 -21.5 118.5t-57.5 88t-83 54t-98 18.5h-175zM263 17h-142v525h142q43 0 83.5 -17t72 -49.5t50.5 -81.5t19 -113q0 -65 -19 -114.5t-50.5 -82.5t-72 -50t-83.5 -17z
M263 535h-135v-510h135q41 0 80.5 16.5t69.5 49t48.5 80.5t18.5 110t-18.5 109.5t-48.5 79.5t-69.5 48.5t-80.5 16.5zM187 67v426h102q36 0 69.5 -14t58.5 -40.5t40.5 -66t15.5 -91.5q0 -53 -15.5 -93t-40.5 -67t-58.5 -40.5t-69.5 -13.5h-102z" />
    <glyph glyph-name="uniFEFF" unicode="&#xfeff;" horiz-adv-x="0" 
 />
    <glyph glyph-name="Jacute" horiz-adv-x="386" 
d="M25 0v126q17 -8 35 -12.5t36 -4.5q37 0 61.5 29t24.5 120v488h136v-530q0 -117 -47 -174.5t-158 -57.5q-25 0 -47 3.5t-41 12.5zM429 954l-131 -147h-100l82 147h149z" />
    <glyph glyph-name="jacute" horiz-adv-x="243" 
d="M-26 -109h12q33 0 53.5 24.5t20.5 70.5v514h123v-516q0 -104 -49.5 -153t-146.5 -49h-13v109zM301 719l-131 -147h-100l82 147h149z" />
    <glyph glyph-name="I_Jacute" horiz-adv-x="658" 
d="M69 0v746h135v-746h-135zM315 954l-131 -147h-100l82 147h149zM298 0v126q17 -8 35 -12.5t36 -4.5q37 0 61.5 29t24.5 120v488h136v-530q0 -117 -47 -174.5t-158 -57.5q-25 0 -47 3.5t-41 12.5zM702 954l-131 -147h-100l82 147h149z" />
    <glyph glyph-name="c_h" horiz-adv-x="1034" 
d="M453 119v-111q-22 -13 -57 -18.5t-63 -5.5q-62 0 -116 20.5t-93.5 56t-62 84.5t-22.5 105t22.5 105t62 84.5t93.5 56t116 20.5q27 0 62 -6t58 -19v-112h-4q-26 18 -55.5 24.5t-56.5 6.5q-71 0 -119 -46.5t-48 -113.5t48 -113.5t119 -46.5q27 0 55.5 6t56.5 23h4zM640 297
v-297h-125v780h121v-343q23 28 65 51.5t97 23.5q78 0 128.5 -49.5t50.5 -136.5v-326h-124v289q0 62 -31 87.5t-74 25.5q-18 0 -37.5 -7t-35 -20t-25.5 -33t-10 -45z" />
    <glyph glyph-name="c_k" horiz-adv-x="1014" 
d="M453 119v-111q-22 -13 -57 -18.5t-63 -5.5q-62 0 -116 20.5t-93.5 56t-62 84.5t-22.5 105t22.5 105t62 84.5t93.5 56t116 20.5q27 0 62 -6t58 -19v-112h-4q-26 18 -55.5 24.5t-56.5 6.5q-71 0 -119 -46.5t-48 -113.5t48 -113.5t119 -46.5q27 0 55.5 6t56.5 23h4zM841 0
l-151 221l-50 -52v-169h-125v780h125v-460l182 180h157l-197 -198l210 -302h-151z" />
    <glyph glyph-name="i_jacute" horiz-adv-x="490" 
d="M185 500v-500h-124v500h124zM303 719l-131 -147h-100l82 147h149zM221 -109h12q33 0 53.5 24.5t20.5 70.5v514h123v-516q0 -104 -49.5 -153t-146.5 -49h-13v109zM548 719l-131 -147h-100l82 147h149z" />
    <glyph glyph-name="caron.vertical" orientation="v" 
d="M50 -30l-53 -170h-72l18 170h107z" />
    <glyph glyph-name="endash.salt_en" horiz-adv-x="536" 
d="M518 325v-97h-500v97h500z" />
    <glyph glyph-name="emdash.uc_salt_em" horiz-adv-x="1036" 
d="M1018 403v-97h-1000v97h1000z" />
    <glyph glyph-name="endash.uc_salt_en" horiz-adv-x="536" 
d="M518 403v-97h-500v97h500z" />
    <glyph glyph-name="registered.salt_big" horiz-adv-x="908" 
d="M455 756q83 0 154.5 -30t123.5 -82t81.5 -122t29.5 -149t-29.5 -149t-81.5 -122t-123.5 -82t-154.5 -30t-155 30t-124 82t-81.5 122t-29.5 149t29.5 149t81.5 122t124 82t155 30zM455 712q-70 0 -132.5 -26.5t-108.5 -72.5t-73 -108t-27 -132t27 -132t73 -107.5
t108.5 -72.5t132.5 -27q69 0 131 27t108 72.5t73 107.5t27 132t-27 132t-73 108t-108 72.5t-131 26.5zM453 502h-26v-117h26q31 0 47.5 15.5t16.5 43.5t-17.5 43t-46.5 15zM535 161l-101 142h-6v-142h-106v433h126q32 0 63 -7t55 -24t39 -45t15 -69q0 -45 -23 -76t-57 -48
l112 -155l-7 -9h-110z" />
    <glyph glyph-name="acute.lc" 
d="M159 790l-131 -147h-100l82 147h149z" />
    <glyph glyph-name="grave.lc" 
d="M-120 790h152l82 -147h-102z" />
    <glyph glyph-name="hungarumlaut.lc" 
d="M140 790h135l-132 -147h-93zM-49 790h136l-134 -147h-93z" />
    <glyph glyph-name="circumflex.lc" 
d="M87 643l-71 86l-70 -86h-109l114 147h131l115 -147h-110z" />
    <glyph glyph-name="caron.lc" 
d="M82 643h-131l-114 147h108l70 -86l70 86h112z" />
    <glyph glyph-name="breve.lc" 
d="M181 792q-13 -68 -55.5 -110.5t-107.5 -42.5t-107.5 42.5t-55.5 110.5l79 3q14 -39 37.5 -58t46.5 -19q24 0 47 19t37 58z" />
    <glyph glyph-name="tilde.lc" 
d="M-88 643l-94 2q-6 84 28 116.5t80 32.5q22 0 45 -8.5t44 -19t39.5 -19t31.5 -8.5q15 0 26 10.5t11 42.5l94 -3q5 -72 -24.5 -108t-82.5 -36q-22 0 -45 8.5t-44.5 18t-40 18t-31.5 8.5q-15 0 -26.5 -10.5t-10.5 -44.5z" />
    <glyph glyph-name="macron.lc" 
d="M160 760v-93h-284v93h284z" />
    <glyph glyph-name="dieresis.lc" 
d="M177 778v-103h-114v103h114zM-26 778v-103h-115v103h115z" />
    <glyph glyph-name="dotaccent.lc" 
d="M81 747v-117h-126v117h126z" />
    <glyph glyph-name="ring.lc" 
d="M18 878q52 0 88.5 -36t36.5 -84q0 -49 -36.5 -85t-88.5 -36t-88.5 37t-36.5 84q0 48 36.5 84t88.5 36zM18 820q-25 0 -43.5 -18t-18.5 -44t18.5 -44t43.5 -18q26 0 44 18t18 44t-18 44t-44 18z" />
    <glyph glyph-name="cedilla.lc" 
d="M-11 -192q-14 0 -35 3.5t-39 10.5v55h1q18 -5 36.5 -8t28.5 -3q22 0 36 9t14 22t-17.5 22t-45.5 9h-18l-2 6l28 79l58 -3l-15 -35q43 -6 66.5 -27.5t23.5 -53.5q0 -37 -33 -61.5t-87 -24.5z" />
    <glyph glyph-name="ogonek.lc" 
d="M34 -30q-19 -13 -28 -23.5t-9 -22.5q0 -10 8 -18t22 -8q11 0 19.5 4t15.5 10l35 -46q-13 -13 -40 -24t-62 -12q-51 0 -74.5 23.5t-23.5 52.5q0 27 17 48.5t41 38.5l35 24l95 -11z" />
    <glyph glyph-name="commaaccent.lc" 
d="M81 -30l-64 -170h-91l27 170h128z" />
    <glyph glyph-name="grave.cmb" 
d="M-120 790h152l82 -147h-102z" />
    <glyph glyph-name="hungarumlaut.cmb" 
d="M143 790h135l-132 -147h-93zM-52 790h136l-134 -147h-93z" />
    <glyph glyph-name="circumflex.cmb" 
d="M87 643l-71 86l-70 -86h-109l114 147h131l115 -147h-110z" />
    <glyph glyph-name="caron.cmb" 
d="M82 643h-131l-114 147h108l70 -86l70 86h112z" />
    <glyph glyph-name="breve.cmb" 
d="M181 792q-13 -68 -55.5 -110.5t-107.5 -42.5t-107.5 42.5t-55.5 110.5l79 3q14 -39 37.5 -58t46.5 -19q24 0 47 19t37 58z" />
    <glyph glyph-name="tilde.cmb" 
d="M-101 643l-96 2q-7 87 29.5 121t86.5 34q24 0 48.5 -9.5t48 -20.5t44 -20.5t35.5 -9.5q16 0 28.5 11.5t11.5 46.5l97 -3q6 -76 -27 -113t-87 -37q-24 0 -49.5 9t-49 20t-44 20t-35.5 9q-16 0 -29 -11.5t-12 -48.5z" />
    <glyph glyph-name="macron.cmb" 
d="M163 760v-93h-290v93h290z" />
    <glyph glyph-name="dieresis.cmb" 
d="M186 778v-103h-116v103h116zM-34 778v-103h-116v103h116z" />
    <glyph glyph-name="dotaccent.cmb" 
d="M81 738v-108h-126v108h126z" />
    <glyph glyph-name="ring.cmb" 
d="M18 878q52 0 88.5 -36t36.5 -84q0 -49 -36.5 -85t-88.5 -36t-88.5 37t-36.5 84q0 48 36.5 84t88.5 36zM18 820q-25 0 -43.5 -18t-18.5 -44t18.5 -44t43.5 -18q26 0 44 18t18 44t-18 44t-44 18z" />
    <glyph glyph-name="cedilla.cmb" 
d="M-10 -201q-14 0 -35.5 3t-40.5 10v57h1q19 -6 38 -9t29 -3q25 0 40 9t15 24q0 14 -18.5 23t-48.5 9h-20l-3 8l30 81l60 -1l-17 -40q45 -6 70 -28t25 -56q0 -37 -34.5 -62t-90.5 -25z" />
    <glyph glyph-name="ogonek.cmb" 
d="M36 -30q-20 -15 -29.5 -25.5t-9.5 -22.5q0 -11 8.5 -20t22.5 -9q11 0 20.5 4.5t15.5 10.5l38 -48q-15 -13 -42 -25t-64 -12q-52 0 -76 24.5t-24 54.5q0 28 17 50.5t42 39.5l38 25l93 -11z" />
    <glyph glyph-name="commaaccent.cmb" 
d="M81 -30l-64 -170h-91l27 170h128z" />
    <glyph glyph-name="hyphen.uc" horiz-adv-x="440" 
d="M382 413v-117h-324v117h324z" />
    <glyph glyph-name="endash.uc" horiz-adv-x="560" 
d="M512 403v-97h-464v97h464z" />
    <glyph glyph-name="emdash.uc" horiz-adv-x="760" 
d="M712 403v-97h-664v97h664z" />
    <glyph glyph-name="parenleft.uc" horiz-adv-x="441" 
d="M306 846l71 -75q-25 -25 -52.5 -65t-49.5 -91.5t-36.5 -114t-14.5 -131.5v-13q0 -69 14.5 -131.5t36.5 -114t49 -91t53 -63.5l-71 -75q-34 27 -71 71.5t-67 104t-50 134.5t-20 162v18q0 88 20 163t50 134.5t67 104t71 73.5z" />
    <glyph glyph-name="parenright.uc" horiz-adv-x="452" 
d="M145 846q34 -29 70.5 -73.5t66.5 -104t50 -134.5t20 -163v-18q0 -87 -20 -162t-50 -134.5t-67 -104t-71 -71.5l-70 75q26 24 53.5 63.5t49.5 91t36.5 114t14.5 131.5v13q0 69 -14.5 131.5t-37 114t-50 91.5t-52.5 65z" />
    <glyph glyph-name="bracketleft.uc" horiz-adv-x="445" 
d="M130 -122v960h252v-81h-127v-798h135v-81h-260z" />
    <glyph glyph-name="bracketright.uc" horiz-adv-x="445" 
d="M315 -122h-261v81h135v798h-127v81h253v-960z" />
    <glyph glyph-name="braceleft.uc" horiz-adv-x="461" 
d="M379 -122h-86q-61 0 -96.5 28.5t-35.5 109.5v201q0 46 -15.5 68t-40.5 29q-1 1 -4 1.5t-4 1.5v80q1 1 4 1.5t4 1.5q25 7 40.5 29t15.5 67v204q0 81 35.5 109.5t96.5 28.5h86v-81h-35q-30 0 -44 -16t-14 -70v-173q0 -47 -19 -80.5t-61 -51.5v-18q42 -17 61 -49t19 -80
v-182q0 -54 14 -66t44 -12h35v-81z" />
    <glyph glyph-name="braceright.uc" horiz-adv-x="462" 
d="M169 -122h-86v73h35q28 0 43 13t15 68v187q0 48 18.5 80t61.5 50v17q-43 18 -61.5 51.5t-18.5 80.5v181q0 54 -15 70t-43 16h-35v73h86q60 0 96 -28.5t36 -109.5v-204q0 -45 15.5 -67t40.5 -29q1 -1 4 -1.5t4 -1.5v-80q-1 -1 -4 -1.5t-4 -1.5q-25 -7 -40.5 -29t-15.5 -68
v-201q0 -81 -36 -109.5t-96 -28.5z" />
    <glyph glyph-name="guilsinglleft.uc" horiz-adv-x="422" 
d="M355 46h-108l-185 285v4l185 285h109l-186 -286z" />
    <glyph glyph-name="guilsinglright.uc" horiz-adv-x="422" 
d="M175 46h-109l185 288l-184 286h108l185 -285v-4z" />
    <glyph glyph-name="guillemotleft.uc" horiz-adv-x="622" 
d="M555 46h-108l-185 285v4l185 285h110l-186 -286zM355 46h-108l-185 285v4l185 285h109l-186 -286z" />
    <glyph glyph-name="guillemotright.uc" horiz-adv-x="622" 
d="M376 46h-109l185 288l-184 286h108l185 -285v-4zM175 46h-109l185 288l-184 286h108l185 -285v-4z" />
    <glyph glyph-name="colon.uc" horiz-adv-x="290" 
d="M74 622h143v-149h-143v149zM74 249h143v-149h-143v149z" />
    <glyph glyph-name="semicolon.uc" horiz-adv-x="316" 
d="M95 622h141v-149h-141v149zM96 219h142l-88 -269h-100z" />
    <glyph glyph-name="plus.uc" horiz-adv-x="657" 
d="M600 323h-213v-234h-117v234h-214v102h214v217h117v-217h213v-102z" />
    <glyph glyph-name="minus.uc" horiz-adv-x="612" 
d="M562 424v-102h-512v102h512z" />
    <glyph glyph-name="divide.uc" horiz-adv-x="634" 
d="M258 514v127h120v-127h-120zM580 423v-101h-526v101h526zM258 104v127h120v-127h-120z" />
    <glyph glyph-name="multiply.uc" horiz-adv-x="584" 
d="M464 117l-177 178l-170 -170l-69 70l169 169l-166 167l73 71l166 -165l156 156l70 -69l-157 -157l177 -177z" />
    <glyph glyph-name="equal.uc" horiz-adv-x="587" 
d="M532 518v-95h-476v95h476zM532 302v-95h-476v95h476z" />
    <glyph glyph-name="zero.dnom" horiz-adv-x="457" 
d="M228 482q81 0 133.5 -58.5t52.5 -174.5v-32q0 -114 -52.5 -173t-133.5 -59q-79 0 -132.5 59t-53.5 173v32q0 116 53.5 174.5t132.5 58.5zM314 216v32q0 75 -23.5 111.5t-62.5 36.5q-37 0 -62 -36.5t-25 -111.5v-32q0 -75 25 -111.5t62 -36.5q38 0 62 36.5t24 111.5z" />
    <glyph glyph-name="one.dnom" horiz-adv-x="282" 
d="M226 0h-100v323l-86 -84v128l108 100h78v-467z" />
    <glyph glyph-name="two.dnom" horiz-adv-x="406" 
d="M344 0h-313l-7 13q10 14 37 46.5t56.5 69t55.5 68.5t35 44q21 25 30.5 43t9.5 43q0 27 -21 47.5t-58 21.5q-23 0 -48.5 -9t-52.5 -31v99q27 13 56.5 20t57.5 7q78 -1 124.5 -42.5t46.5 -103.5q-1 -48 -22.5 -77.5t-46.5 -61.5q-13 -16 -42 -49.5t-57 -64.5h194z" />
    <glyph glyph-name="three.dnom" horiz-adv-x="368" 
d="M151 -15q-25 0 -62 5t-59 18v82q18 -13 47 -18t45 -5q51 -1 83 19.5t32 53.5q0 32 -30 51.5t-76 19.5h-31l3 79h28q35 0 58.5 17t23.5 42q0 24 -21 37.5t-55 13.5q-18 0 -40 -3.5t-41 -12.5l6 86q17 5 39 8.5t55 3.5q67 1 112 -33.5t45 -85.5q-1 -31 -17.5 -59t-44.5 -45
q37 -16 61.5 -48.5t24.5 -73.5q0 -66 -52 -109.5t-134 -42.5z" />
    <glyph glyph-name="four.dnom" horiz-adv-x="441" 
d="M258 164v161l-111 -161h111zM394 82h-35v-82h-101v82h-227l-9 18l251 367h86v-303h59z" />
    <glyph glyph-name="five.dnom" horiz-adv-x="410" 
d="M153 -15q-27 0 -61 7t-60 21v86q27 -15 57 -22.5t64 -7.5q46 0 77 23.5t31 62.5q0 32 -32 54.5t-85 22.5q-25 0 -46.5 -3.5t-41.5 -10.5l59 249h265l-27 -85h-171l-21 -75h8.5h8.5q90 0 137.5 -42.5t47.5 -108.5q0 -75 -57 -123t-153 -48z" />
    <glyph glyph-name="six.dnom" horiz-adv-x="427" 
d="M216 -15q-78 0 -131 45t-53 124q0 39 16 79.5t41 80.5t56 78.5t62 74.5h120q-42 -46 -81 -91.5t-68 -87.5q16 8 34.5 13t38.5 5q60 0 104 -44t44 -109q0 -34 -13.5 -65t-37.5 -53.5t-58 -36t-74 -13.5zM216 232q-35 0 -60.5 -24t-25.5 -58t25.5 -58t60.5 -24t59.5 24
t24.5 58t-24.5 58t-59.5 24z" />
    <glyph glyph-name="seven.dnom" horiz-adv-x="407" 
d="M185 0h-112l169 379h-212l27 88h329z" />
    <glyph glyph-name="eight.dnom" horiz-adv-x="422" 
d="M211 -15q-85 0 -134 43t-49 109q0 39 21 70t60 50q-27 16 -41.5 41t-14.5 55q0 52 42 90.5t116 38.5q75 0 116.5 -38.5t41.5 -90.5q0 -30 -14 -55.5t-41 -41.5q38 -18 59 -49t21 -70q0 -66 -49.5 -109t-133.5 -43zM211 282q25 0 44 18t19 45q0 25 -18.5 41t-44.5 16
t-45 -16t-19 -41q0 -27 18.5 -45t45.5 -18zM211 64q35 0 59.5 22.5t24.5 56.5q0 33 -24.5 54t-59.5 21t-60 -21t-25 -54q0 -34 25 -56.5t60 -22.5z" />
    <glyph glyph-name="nine.dnom" horiz-adv-x="427" 
d="M221 0h-120q42 45 80.5 90.5t67.5 87.5q-16 -8 -34 -13t-38 -5q-61 0 -105 44t-44 109q0 34 13.5 65t37.5 54t58 36.5t75 13.5q78 0 131 -45t53 -124q0 -39 -16 -80t-41 -80.5t-56.5 -78.5t-61.5 -74zM212 234q34 0 59.5 24t25.5 58t-25.5 58.5t-59.5 24.5
q-36 0 -60.5 -24.5t-24.5 -58.5t24.5 -58t60.5 -24z" />
    <glyph glyph-name="zero.numr" horiz-adv-x="457" 
d="M228 761q81 0 133.5 -58.5t52.5 -174.5v-32q0 -114 -52.5 -173t-133.5 -59q-79 0 -132.5 59t-53.5 173v32q0 116 53.5 174.5t132.5 58.5zM314 495v32q0 75 -23.5 111.5t-62.5 36.5q-37 0 -62 -36.5t-25 -111.5v-32q0 -75 25 -111.5t62 -36.5q38 0 62 36.5t24 111.5z" />
    <glyph glyph-name="one.numr" horiz-adv-x="282" 
d="M226 279h-100v323l-86 -84v128l108 100h78v-467z" />
    <glyph glyph-name="two.numr" horiz-adv-x="406" 
d="M344 279h-313l-7 13q10 14 37 46.5t56.5 69t55.5 68.5t35 44q21 25 30.5 43t9.5 43q0 27 -21 47.5t-58 21.5q-23 0 -48.5 -9t-52.5 -31v99q27 13 56.5 20t57.5 7q78 -1 124.5 -42.5t46.5 -103.5q-1 -48 -22.5 -77.5t-46.5 -61.5q-13 -16 -42 -49.5t-57 -64.5h194z" />
    <glyph glyph-name="three.numr" horiz-adv-x="368" 
d="M151 264q-25 0 -62 5t-59 18v82q18 -13 47 -18t45 -5q51 -1 83 19.5t32 53.5q0 32 -30 51.5t-76 19.5h-31l3 79h28q35 0 58.5 17t23.5 42q0 24 -21 37.5t-55 13.5q-18 0 -40 -3.5t-41 -12.5l6 86q17 5 39 8.5t55 3.5q67 1 112 -33.5t45 -85.5q-1 -31 -17.5 -59t-44.5 -45
q37 -16 61.5 -48.5t24.5 -73.5q0 -66 -52 -109.5t-134 -42.5z" />
    <glyph glyph-name="four.numr" horiz-adv-x="441" 
d="M258 443v161l-111 -161h111zM394 361h-35v-82h-101v82h-227l-9 18l251 367h86v-303h59z" />
    <glyph glyph-name="five.numr" horiz-adv-x="410" 
d="M153 264q-27 0 -61 7t-60 21v86q27 -15 57 -22.5t64 -7.5q46 0 77 23.5t31 62.5q0 32 -32 54.5t-85 22.5q-25 0 -46.5 -3.5t-41.5 -10.5l59 249h265l-27 -85h-171l-21 -75h8.5h8.5q90 0 137.5 -42.5t47.5 -108.5q0 -75 -57 -123t-153 -48z" />
    <glyph glyph-name="six.numr" horiz-adv-x="427" 
d="M216 264q-78 0 -131 45t-53 124q0 39 16 79.5t41 80.5t56 78.5t62 74.5h120q-42 -46 -81 -91.5t-68 -87.5q16 8 34.5 13t38.5 5q60 0 104 -44t44 -109q0 -34 -13.5 -65t-37.5 -53.5t-58 -36t-74 -13.5zM216 511q-35 0 -60.5 -24t-25.5 -58t25.5 -58t60.5 -24t59.5 24
t24.5 58t-24.5 58t-59.5 24z" />
    <glyph glyph-name="seven.numr" horiz-adv-x="407" 
d="M185 279h-112l169 379h-212l27 88h329z" />
    <glyph glyph-name="eight.numr" horiz-adv-x="422" 
d="M211 264q-85 0 -134 43t-49 109q0 39 21 70t60 50q-27 16 -41.5 41t-14.5 55q0 52 42 90.5t116 38.5q75 0 116.5 -38.5t41.5 -90.5q0 -30 -14 -55.5t-41 -41.5q38 -18 59 -49t21 -70q0 -66 -49.5 -109t-133.5 -43zM211 561q25 0 44 18t19 45q0 25 -18.5 41t-44.5 16
t-45 -16t-19 -41q0 -27 18.5 -45t45.5 -18zM211 343q35 0 59.5 22.5t24.5 56.5q0 33 -24.5 54t-59.5 21t-60 -21t-25 -54q0 -34 25 -56.5t60 -22.5z" />
    <glyph glyph-name="nine.numr" horiz-adv-x="427" 
d="M221 279h-120q42 45 80.5 90.5t67.5 87.5q-16 -8 -34 -13t-38 -5q-61 0 -105 44t-44 109q0 34 13.5 65t37.5 54t58 36.5t75 13.5q78 0 131 -45t53 -124q0 -39 -16 -80t-41 -80.5t-56.5 -78.5t-61.5 -74zM212 513q34 0 59.5 24t25.5 58t-25.5 58.5t-59.5 24.5
q-36 0 -60.5 -24.5t-24.5 -58.5t24.5 -58t60.5 -24z" />
    <glyph glyph-name="zero.salt_slash" horiz-adv-x="671" 
d="M336 770q60 0 110.5 -23.5t87.5 -70t57.5 -116.5t20.5 -162v-52q0 -91 -21 -160.5t-57.5 -116t-87.5 -70t-110 -23.5t-110 23.5t-88 70t-58 116t-21 160.5v52q0 92 21 162t58 116.5t88 70t110 23.5zM336 661q-21 0 -40.5 -7t-35.5 -20l190 -477q17 32 26.5 79t9.5 109v52
q0 134 -42 199t-108 65zM336 83q13 0 24.5 2.5t22.5 6.5l-179 450q-9 -29 -14 -65.5t-5 -79.5v-52q0 -134 43 -198t108 -64z" />
    <glyph glyph-name="C.salt_low" horiz-adv-x="727" 
d="M682 699l-61 -102q-37 24 -79.5 36.5t-89.5 12.5q-61 0 -111.5 -22t-86 -59.5t-55.5 -86.5t-20 -103q0 -55 20 -105t55.5 -87.5t86 -60t111.5 -22.5q45 0 87 12t82 37l61 -102q-59 -38 -115.5 -54.5t-118.5 -16.5q-90 0 -165 31.5t-128 85t-82.5 126.5t-29.5 155
t29.5 154.5t82.5 126t128 84.5t165 31q62 0 118 -16t116 -55z" />
    <glyph glyph-name="Ccedilla.salt_low" horiz-adv-x="727" 
d="M682 699l-61 -102q-37 24 -79.5 36.5t-89.5 12.5q-61 0 -111.5 -22t-86 -59.5t-55.5 -86.5t-20 -103q0 -55 20 -105t55.5 -87.5t86 -60t111.5 -22.5q45 0 87 12t82 37l61 -102q-59 -38 -115.5 -54.5t-118.5 -16.5q-90 0 -165 31.5t-128 85t-82.5 126.5t-29.5 155
t29.5 154.5t82.5 126t128 84.5t165 31q62 0 118 -16t116 -55zM414 -225q-14 0 -35.5 3t-40.5 10v57h1q19 -6 38 -9t29 -3q25 0 40 9t15 24q0 14 -18.5 23t-48.5 9h-20l-3 8l30 81l60 -1l-17 -40q45 -6 70 -28t25 -56q0 -37 -34.5 -62t-90.5 -25z" />
    <glyph glyph-name="Cacute.salt_low" horiz-adv-x="727" 
d="M682 699l-61 -102q-37 24 -79.5 36.5t-89.5 12.5q-61 0 -111.5 -22t-86 -59.5t-55.5 -86.5t-20 -103q0 -55 20 -105t55.5 -87.5t86 -60t111.5 -22.5q45 0 87 12t82 37l61 -102q-59 -38 -115.5 -54.5t-118.5 -16.5q-90 0 -165 31.5t-128 85t-82.5 126.5t-29.5 155
t29.5 154.5t82.5 126t128 84.5t165 31q62 0 118 -16t116 -55zM614 954l-131 -147h-100l82 147h149z" />
    <glyph glyph-name="Ccircumflex.salt_low" horiz-adv-x="727" 
d="M682 699l-61 -102q-37 24 -79.5 36.5t-89.5 12.5q-61 0 -111.5 -22t-86 -59.5t-55.5 -86.5t-20 -103q0 -55 20 -105t55.5 -87.5t86 -60t111.5 -22.5q45 0 87 12t82 37l61 -102q-59 -38 -115.5 -54.5t-118.5 -16.5q-90 0 -165 31.5t-128 85t-82.5 126.5t-29.5 155
t29.5 154.5t82.5 126t128 84.5t165 31q62 0 118 -16t116 -55zM506 807l-71 86l-70 -86h-109l114 147h131l115 -147h-110z" />
    <glyph glyph-name="Cdotaccent.salt_low" horiz-adv-x="727" 
d="M682 699l-61 -102q-37 24 -79.5 36.5t-89.5 12.5q-61 0 -111.5 -22t-86 -59.5t-55.5 -86.5t-20 -103q0 -55 20 -105t55.5 -87.5t86 -60t111.5 -22.5q45 0 87 12t82 37l61 -102q-59 -38 -115.5 -54.5t-118.5 -16.5q-90 0 -165 31.5t-128 85t-82.5 126.5t-29.5 155
t29.5 154.5t82.5 126t128 84.5t165 31q62 0 118 -16t116 -55zM498 915v-108h-126v108h126z" />
    <glyph glyph-name="Ccaron.salt_low" horiz-adv-x="727" 
d="M682 699l-61 -102q-37 24 -79.5 36.5t-89.5 12.5q-61 0 -111.5 -22t-86 -59.5t-55.5 -86.5t-20 -103q0 -55 20 -105t55.5 -87.5t86 -60t111.5 -22.5q45 0 87 12t82 37l61 -102q-59 -38 -115.5 -54.5t-118.5 -16.5q-90 0 -165 31.5t-128 85t-82.5 126.5t-29.5 155
t29.5 154.5t82.5 126t128 84.5t165 31q62 0 118 -16t116 -55zM501 807h-131l-114 147h108l70 -86l70 86h112z" />
    <glyph glyph-name="S.salt_low" horiz-adv-x="527" 
d="M462 711l-52 -106q-25 18 -57 31t-64 13q-51 0 -72 -22t-21 -47q0 -33 28.5 -63t88.5 -79q93 -76 131 -132t38 -113q0 -48 -19 -86.5t-52 -64.5t-78.5 -40t-96.5 -14q-49 0 -106 15t-100 41l52 108q35 -21 74 -36.5t82 -15.5q52 0 79 27.5t27 61.5t-29.5 69t-94.5 87
q-44 36 -75.5 65.5t-51 56t-28.5 53.5t-9 59q0 35 14 68t42.5 58t72.5 40.5t104 15.5q43 0 89.5 -14t83.5 -36z" />
    <glyph glyph-name="Sacute.salt_low" horiz-adv-x="527" 
d="M462 711l-52 -106q-25 18 -57 31t-64 13q-51 0 -72 -22t-21 -47q0 -33 28.5 -63t88.5 -79q93 -76 131 -132t38 -113q0 -48 -19 -86.5t-52 -64.5t-78.5 -40t-96.5 -14q-49 0 -106 15t-100 41l52 108q35 -21 74 -36.5t82 -15.5q52 0 79 27.5t27 61.5t-29.5 69t-94.5 87
q-44 36 -75.5 65.5t-51 56t-28.5 53.5t-9 59q0 35 14 68t42.5 58t72.5 40.5t104 15.5q43 0 89.5 -14t83.5 -36zM465 954l-131 -147h-100l82 147h149z" />
    <glyph glyph-name="Scircumflex.salt_low" horiz-adv-x="527" 
d="M462 711l-52 -106q-25 18 -57 31t-64 13q-51 0 -72 -22t-21 -47q0 -33 28.5 -63t88.5 -79q93 -76 131 -132t38 -113q0 -48 -19 -86.5t-52 -64.5t-78.5 -40t-96.5 -14q-49 0 -106 15t-100 41l52 108q35 -21 74 -36.5t82 -15.5q52 0 79 27.5t27 61.5t-29.5 69t-94.5 87
q-44 36 -75.5 65.5t-51 56t-28.5 53.5t-9 59q0 35 14 68t42.5 58t72.5 40.5t104 15.5q43 0 89.5 -14t83.5 -36zM356 807l-71 86l-70 -86h-109l114 147h131l115 -147h-110z" />
    <glyph glyph-name="Scedilla.salt_low" horiz-adv-x="527" 
d="M462 711l-52 -106q-25 18 -57 31t-64 13q-51 0 -72 -22t-21 -47q0 -33 28.5 -63t88.5 -79q93 -76 131 -132t38 -113q0 -48 -19 -86.5t-52 -64.5t-78.5 -40t-96.5 -14q-49 0 -106 15t-100 41l52 108q35 -21 74 -36.5t82 -15.5q52 0 79 27.5t27 61.5t-29.5 69t-94.5 87
q-44 36 -75.5 65.5t-51 56t-28.5 53.5t-9 59q0 35 14 68t42.5 58t72.5 40.5t104 15.5q43 0 89.5 -14t83.5 -36zM216 -213q-14 0 -35.5 3t-40.5 10v57h1q19 -6 38 -9t29 -3q25 0 40 9t15 24q0 14 -18.5 23t-48.5 9h-20l-3 8l30 81l60 -1l-17 -40q45 -6 70 -28t25 -56
q0 -37 -34.5 -62t-90.5 -25z" />
    <glyph glyph-name="Scaron.salt_low" horiz-adv-x="527" 
d="M462 711l-52 -106q-25 18 -57 31t-64 13q-51 0 -72 -22t-21 -47q0 -33 28.5 -63t88.5 -79q93 -76 131 -132t38 -113q0 -48 -19 -86.5t-52 -64.5t-78.5 -40t-96.5 -14q-49 0 -106 15t-100 41l52 108q35 -21 74 -36.5t82 -15.5q52 0 79 27.5t27 61.5t-29.5 69t-94.5 87
q-44 36 -75.5 65.5t-51 56t-28.5 53.5t-9 59q0 35 14 68t42.5 58t72.5 40.5t104 15.5q43 0 89.5 -14t83.5 -36zM352 807h-131l-114 147h108l70 -86l70 86h112z" />
    <glyph glyph-name="Scommaaccent.salt_low" horiz-adv-x="527" 
d="M462 711l-52 -106q-25 18 -57 31t-64 13q-51 0 -72 -22t-21 -47q0 -33 28.5 -63t88.5 -79q93 -76 131 -132t38 -113q0 -48 -19 -86.5t-52 -64.5t-78.5 -40t-96.5 -14q-49 0 -106 15t-100 41l52 108q35 -21 74 -36.5t82 -15.5q52 0 79 27.5t27 61.5t-29.5 69t-94.5 87
q-44 36 -75.5 65.5t-51 56t-28.5 53.5t-9 59q0 35 14 68t42.5 58t72.5 40.5t104 15.5q43 0 89.5 -14t83.5 -36zM300 -57l-64 -170h-91l27 170h128z" />
    <glyph glyph-name="a.salt_low" horiz-adv-x="540" 
d="M262 58q41 0 68.5 26.5t27.5 64.5q0 37 -26.5 62t-69.5 25t-69 -25t-26 -62q0 -38 26 -64.5t69 -26.5zM365 0v43q-24 -25 -61.5 -43t-87.5 -18q-78 0 -127.5 46.5t-49.5 117.5q0 68 50.5 116t134.5 48q43 0 76.5 -11.5t56.5 -29.5v28q0 65 -31.5 90t-86.5 25
q-23 0 -48.5 -3.5t-65.5 -11.5l-23 98q52 11 87 15t73 4q110 0 164.5 -51.5t54.5 -135.5v-327h-116z" />
    <glyph glyph-name="agrave.salt_low" horiz-adv-x="540" 
d="M262 58q41 0 68.5 26.5t27.5 64.5q0 37 -26.5 62t-69.5 25t-69 -25t-26 -62q0 -38 26 -64.5t69 -26.5zM365 0v43q-24 -25 -61.5 -43t-87.5 -18q-78 0 -127.5 46.5t-49.5 117.5q0 68 50.5 116t134.5 48q43 0 76.5 -11.5t56.5 -29.5v28q0 65 -31.5 90t-86.5 25
q-23 0 -48.5 -3.5t-65.5 -11.5l-23 98q52 11 87 15t73 4q110 0 164.5 -51.5t54.5 -135.5v-327h-116zM88 719h152l82 -147h-102z" />
    <glyph glyph-name="aacute.salt_low" horiz-adv-x="540" 
d="M262 58q41 0 68.5 26.5t27.5 64.5q0 37 -26.5 62t-69.5 25t-69 -25t-26 -62q0 -38 26 -64.5t69 -26.5zM365 0v43q-24 -25 -61.5 -43t-87.5 -18q-78 0 -127.5 46.5t-49.5 117.5q0 68 50.5 116t134.5 48q43 0 76.5 -11.5t56.5 -29.5v28q0 65 -31.5 90t-86.5 25
q-23 0 -48.5 -3.5t-65.5 -11.5l-23 98q52 11 87 15t73 4q110 0 164.5 -51.5t54.5 -135.5v-327h-116zM450 719l-131 -147h-100l82 147h149z" />
    <glyph glyph-name="acircumflex.salt_low" horiz-adv-x="540" 
d="M262 58q41 0 68.5 26.5t27.5 64.5q0 37 -26.5 62t-69.5 25t-69 -25t-26 -62q0 -38 26 -64.5t69 -26.5zM365 0v43q-24 -25 -61.5 -43t-87.5 -18q-78 0 -127.5 46.5t-49.5 117.5q0 68 50.5 116t134.5 48q43 0 76.5 -11.5t56.5 -29.5v28q0 65 -31.5 90t-86.5 25
q-23 0 -48.5 -3.5t-65.5 -11.5l-23 98q52 11 87 15t73 4q110 0 164.5 -51.5t54.5 -135.5v-327h-116zM342 572l-71 86l-70 -86h-109l114 147h131l115 -147h-110z" />
    <glyph glyph-name="atilde.salt_low" horiz-adv-x="540" 
d="M262 58q41 0 68.5 26.5t27.5 64.5q0 37 -26.5 62t-69.5 25t-69 -25t-26 -62q0 -38 26 -64.5t69 -26.5zM365 0v43q-24 -25 -61.5 -43t-87.5 -18q-78 0 -127.5 46.5t-49.5 117.5q0 68 50.5 116t134.5 48q43 0 76.5 -11.5t56.5 -29.5v28q0 65 -31.5 90t-86.5 25
q-23 0 -48.5 -3.5t-65.5 -11.5l-23 98q52 11 87 15t73 4q110 0 164.5 -51.5t54.5 -135.5v-327h-116zM165 573l-94 2q-6 84 28 116.5t80 32.5q22 0 45 -8.5t44 -19t39.5 -19t31.5 -8.5q15 0 26 10.5t11 42.5l94 -3q5 -72 -24.5 -108t-82.5 -36q-22 0 -45 8.5t-44.5 18t-40 18
t-31.5 8.5q-15 0 -26.5 -10.5t-10.5 -44.5z" />
    <glyph glyph-name="adieresis.salt_low" horiz-adv-x="540" 
d="M262 58q41 0 68.5 26.5t27.5 64.5q0 37 -26.5 62t-69.5 25t-69 -25t-26 -62q0 -38 26 -64.5t69 -26.5zM365 0v43q-24 -25 -61.5 -43t-87.5 -18q-78 0 -127.5 46.5t-49.5 117.5q0 68 50.5 116t134.5 48q43 0 76.5 -11.5t56.5 -29.5v28q0 65 -31.5 90t-86.5 25
q-23 0 -48.5 -3.5t-65.5 -11.5l-23 98q52 11 87 15t73 4q110 0 164.5 -51.5t54.5 -135.5v-327h-116zM434 675v-103h-114v103h114zM231 675v-103h-115v103h115z" />
    <glyph glyph-name="aring.salt_low" horiz-adv-x="540" 
d="M262 58q41 0 68.5 26.5t27.5 64.5q0 37 -26.5 62t-69.5 25t-69 -25t-26 -62q0 -38 26 -64.5t69 -26.5zM365 0v43q-24 -25 -61.5 -43t-87.5 -18q-78 0 -127.5 46.5t-49.5 117.5q0 68 50.5 116t134.5 48q43 0 76.5 -11.5t56.5 -29.5v28q0 65 -31.5 90t-86.5 25
q-23 0 -48.5 -3.5t-65.5 -11.5l-23 98q52 11 87 15t73 4q110 0 164.5 -51.5t54.5 -135.5v-327h-116zM271 808q52 0 88.5 -36t36.5 -84q0 -49 -36.5 -85t-88.5 -36t-88.5 37t-36.5 84q0 48 36.5 84t88.5 36zM271 750q-25 0 -43.5 -18t-18.5 -44t18.5 -44t43.5 -18q26 0 44 18
t18 44t-18 44t-44 18z" />
    <glyph glyph-name="amacron.salt_low" horiz-adv-x="540" 
d="M262 58q41 0 68.5 26.5t27.5 64.5q0 37 -26.5 62t-69.5 25t-69 -25t-26 -62q0 -38 26 -64.5t69 -26.5zM365 0v43q-24 -25 -61.5 -43t-87.5 -18q-78 0 -127.5 46.5t-49.5 117.5q0 68 50.5 116t134.5 48q43 0 76.5 -11.5t56.5 -29.5v28q0 65 -31.5 90t-86.5 25
q-23 0 -48.5 -3.5t-65.5 -11.5l-23 98q52 11 87 15t73 4q110 0 164.5 -51.5t54.5 -135.5v-327h-116zM413 665v-93h-284v93h284z" />
    <glyph glyph-name="abreve.salt_low" horiz-adv-x="540" 
d="M262 58q41 0 68.5 26.5t27.5 64.5q0 37 -26.5 62t-69.5 25t-69 -25t-26 -62q0 -38 26 -64.5t69 -26.5zM365 0v43q-24 -25 -61.5 -43t-87.5 -18q-78 0 -127.5 46.5t-49.5 117.5q0 68 50.5 116t134.5 48q43 0 76.5 -11.5t56.5 -29.5v28q0 65 -31.5 90t-86.5 25
q-23 0 -48.5 -3.5t-65.5 -11.5l-23 98q52 11 87 15t73 4q110 0 164.5 -51.5t54.5 -135.5v-327h-116zM434 720q-13 -68 -55.5 -110.5t-107.5 -42.5t-107.5 42.5t-55.5 110.5l79 3q14 -39 37.5 -58t46.5 -19q24 0 47 19t37 58z" />
    <glyph glyph-name="aogonek.salt_low" horiz-adv-x="540" 
d="M390 -176q-51 0 -74 23.5t-23 52.5q0 27 16.5 48.5t40.5 38.5l15 10v46q-24 -25 -61.5 -43t-87.5 -18q-78 0 -127.5 46.5t-49.5 117.5q0 68 50.5 116t134.5 48q43 0 76.5 -11.5t56.5 -29.5v28q0 65 -31.5 90t-86.5 25q-23 0 -48.5 -3.5t-65.5 -11.5l-23 98q52 11 87 15
t73 4q110 0 164.5 -51.5t54.5 -135.5v-327l-51 -36q-19 -13 -28.5 -23.5t-9.5 -22.5q0 -10 8 -18t22 -8q10 0 19.5 4t15.5 10l36 -46q-14 -13 -41 -24t-62 -12zM262 57q41 0 68.5 27t27.5 64t-26.5 62t-69.5 25t-69 -25.5t-26 -61.5q0 -37 26 -64t69 -27z" />
    <glyph glyph-name="aringacute.salt_low" horiz-adv-x="540" 
d="M262 58q41 0 68.5 26.5t27.5 64.5q0 37 -26.5 62t-69.5 25t-69 -25t-26 -62q0 -38 26 -64.5t69 -26.5zM365 0v43q-24 -25 -61.5 -43t-87.5 -18q-78 0 -127.5 46.5t-49.5 117.5q0 68 50.5 116t134.5 48q43 0 76.5 -11.5t56.5 -29.5v28q0 65 -31.5 90t-86.5 25
q-23 0 -48.5 -3.5t-65.5 -11.5l-23 98q52 11 87 15t73 4q110 0 164.5 -51.5t54.5 -135.5v-327h-116zM271 808q52 0 88.5 -36t36.5 -84q0 -49 -36.5 -85t-88.5 -36t-88.5 37t-36.5 84q0 48 36.5 84t88.5 36zM271 750q-25 0 -43.5 -18t-18.5 -44t18.5 -44t43.5 -18q26 0 44 18
t18 44t-18 44t-44 18zM450 979l-131 -147h-100l82 147h149z" />
    <glyph glyph-name="c.salt_low" horiz-adv-x="517" 
d="M437 120l50 -89q-31 -22 -73.5 -35t-86.5 -13q-61 0 -114 20.5t-91.5 56t-60.5 84.5t-22 106q0 56 22 105t60.5 84t91.5 55.5t114 20.5q44 0 86.5 -13t73.5 -35l-50 -88h-3q-23 17 -51 23.5t-52 6.5q-68 0 -114.5 -46.5t-46.5 -112.5q0 -68 46.5 -114.5t114.5 -46.5
q24 0 52 7t51 24h3z" />
    <glyph glyph-name="ccedilla.salt_low" horiz-adv-x="517" 
d="M437 120l50 -89q-31 -22 -73.5 -35t-86.5 -13q-61 0 -114 20.5t-91.5 56t-60.5 84.5t-22 106q0 56 22 105t60.5 84t91.5 55.5t114 20.5q44 0 86.5 -13t73.5 -35l-50 -88h-3q-23 17 -51 23.5t-52 6.5q-68 0 -114.5 -46.5t-46.5 -112.5q0 -68 46.5 -114.5t114.5 -46.5
q24 0 52 7t51 24h3zM285 -208q-14 0 -35 3.5t-39 10.5v55h1q18 -5 36.5 -8t28.5 -3q22 0 36 9t14 22t-17.5 22t-45.5 9h-18l-2 6l28 79l58 -3l-15 -35q43 -6 66.5 -27.5t23.5 -53.5q0 -37 -33 -61.5t-87 -24.5z" />
    <glyph glyph-name="cacute.salt_low" horiz-adv-x="517" 
d="M437 120l50 -89q-31 -22 -73.5 -35t-86.5 -13q-61 0 -114 20.5t-91.5 56t-60.5 84.5t-22 106q0 56 22 105t60.5 84t91.5 55.5t114 20.5q44 0 86.5 -13t73.5 -35l-50 -88h-3q-23 17 -51 23.5t-52 6.5q-68 0 -114.5 -46.5t-46.5 -112.5q0 -68 46.5 -114.5t114.5 -46.5
q24 0 52 7t51 24h3zM492 719l-131 -147h-100l82 147h149z" />
    <glyph glyph-name="ccircumflex.salt_low" horiz-adv-x="517" 
d="M437 120l50 -89q-31 -22 -73.5 -35t-86.5 -13q-61 0 -114 20.5t-91.5 56t-60.5 84.5t-22 106q0 56 22 105t60.5 84t91.5 55.5t114 20.5q44 0 86.5 -13t73.5 -35l-50 -88h-3q-23 17 -51 23.5t-52 6.5q-68 0 -114.5 -46.5t-46.5 -112.5q0 -68 46.5 -114.5t114.5 -46.5
q24 0 52 7t51 24h3zM384 572l-71 86l-70 -86h-109l114 147h131l115 -147h-110z" />
    <glyph glyph-name="cdotaccent.salt_low" horiz-adv-x="517" 
d="M437 120l50 -89q-31 -22 -73.5 -35t-86.5 -13q-61 0 -114 20.5t-91.5 56t-60.5 84.5t-22 106q0 56 22 105t60.5 84t91.5 55.5t114 20.5q44 0 86.5 -13t73.5 -35l-50 -88h-3q-23 17 -51 23.5t-52 6.5q-68 0 -114.5 -46.5t-46.5 -112.5q0 -68 46.5 -114.5t114.5 -46.5
q24 0 52 7t51 24h3zM376 697v-117h-126v117h126z" />
    <glyph glyph-name="ccaron.salt_low" horiz-adv-x="517" 
d="M437 120l50 -89q-31 -22 -73.5 -35t-86.5 -13q-61 0 -114 20.5t-91.5 56t-60.5 84.5t-22 106q0 56 22 105t60.5 84t91.5 55.5t114 20.5q44 0 86.5 -13t73.5 -35l-50 -88h-3q-23 17 -51 23.5t-52 6.5q-68 0 -114.5 -46.5t-46.5 -112.5q0 -68 46.5 -114.5t114.5 -46.5
q24 0 52 7t51 24h3zM379 572h-131l-114 147h108l70 -86l70 86h112z" />
    <glyph glyph-name="s.salt_low" horiz-adv-x="433" 
d="M223 516q43 0 79 -10.5t63 -23.5l-38 -92q-26 13 -50.5 19t-41.5 6q-26 0 -42.5 -11t-16.5 -28q0 -16 17.5 -31t57.5 -41q84 -55 112.5 -90.5t28.5 -78.5q0 -63 -50.5 -106.5t-138.5 -44.5q-46 0 -90.5 12.5t-79.5 33.5l35 94q37 -19 65 -28.5t52 -9.5q39 1 57 14.5
t18 32.5q0 13 -15.5 31.5t-73.5 55.5q-77 50 -101 82.5t-24 76.5q0 24 10 48.5t31.5 44.5t55 32t80.5 12z" />
    <glyph glyph-name="sacute.salt_low" horiz-adv-x="433" 
d="M223 516q43 0 79 -10.5t63 -23.5l-38 -92q-26 13 -50.5 19t-41.5 6q-26 0 -42.5 -11t-16.5 -28q0 -16 17.5 -31t57.5 -41q84 -55 112.5 -90.5t28.5 -78.5q0 -63 -50.5 -106.5t-138.5 -44.5q-46 0 -90.5 12.5t-79.5 33.5l35 94q37 -19 65 -28.5t52 -9.5q39 1 57 14.5
t18 32.5q0 13 -15.5 31.5t-73.5 55.5q-77 50 -101 82.5t-24 76.5q0 24 10 48.5t31.5 44.5t55 32t80.5 12zM399 719l-131 -147h-100l82 147h149z" />
    <glyph glyph-name="scircumflex.salt_low" horiz-adv-x="433" 
d="M223 516q43 0 79 -10.5t63 -23.5l-38 -92q-26 13 -50.5 19t-41.5 6q-26 0 -42.5 -11t-16.5 -28q0 -16 17.5 -31t57.5 -41q84 -55 112.5 -90.5t28.5 -78.5q0 -63 -50.5 -106.5t-138.5 -44.5q-46 0 -90.5 12.5t-79.5 33.5l35 94q37 -19 65 -28.5t52 -9.5q39 1 57 14.5
t18 32.5q0 13 -15.5 31.5t-73.5 55.5q-77 50 -101 82.5t-24 76.5q0 24 10 48.5t31.5 44.5t55 32t80.5 12zM290 572l-71 86l-70 -86h-109l114 147h131l115 -147h-110z" />
    <glyph glyph-name="scedilla.salt_low" horiz-adv-x="433" 
d="M223 516q43 0 79 -10.5t63 -23.5l-38 -92q-26 13 -50.5 19t-41.5 6q-26 0 -42.5 -11t-16.5 -28q0 -16 17.5 -31t57.5 -41q84 -55 112.5 -90.5t28.5 -78.5q0 -63 -50.5 -106.5t-138.5 -44.5q-46 0 -90.5 12.5t-79.5 33.5l35 94q37 -19 65 -28.5t52 -9.5q39 1 57 14.5
t18 32.5q0 13 -15.5 31.5t-73.5 55.5q-77 50 -101 82.5t-24 76.5q0 24 10 48.5t31.5 44.5t55 32t80.5 12zM186 -208q-14 0 -35 3.5t-39 10.5v55h1q18 -5 36.5 -8t28.5 -3q22 0 36 9t14 22t-17.5 22t-45.5 9h-18l-2 6l28 79l58 -3l-15 -35q43 -6 66.5 -27.5t23.5 -53.5
q0 -37 -33 -61.5t-87 -24.5z" />
    <glyph glyph-name="scaron.salt_low" horiz-adv-x="433" 
d="M223 516q43 0 79 -10.5t63 -23.5l-38 -92q-26 13 -50.5 19t-41.5 6q-26 0 -42.5 -11t-16.5 -28q0 -16 17.5 -31t57.5 -41q84 -55 112.5 -90.5t28.5 -78.5q0 -63 -50.5 -106.5t-138.5 -44.5q-46 0 -90.5 12.5t-79.5 33.5l35 94q37 -19 65 -28.5t52 -9.5q39 1 57 14.5
t18 32.5q0 13 -15.5 31.5t-73.5 55.5q-77 50 -101 82.5t-24 76.5q0 24 10 48.5t31.5 44.5t55 32t80.5 12zM285 572h-131l-114 147h108l70 -86l70 86h112z" />
    <glyph glyph-name="scommaaccent.salt_low" horiz-adv-x="433" 
d="M223 516q43 0 79 -10.5t63 -23.5l-38 -92q-26 13 -50.5 19t-41.5 6q-26 0 -42.5 -11t-16.5 -28q0 -16 17.5 -31t57.5 -41q84 -55 112.5 -90.5t28.5 -78.5q0 -63 -50.5 -106.5t-138.5 -44.5q-46 0 -90.5 12.5t-79.5 33.5l35 94q37 -19 65 -28.5t52 -9.5q39 1 57 14.5
t18 32.5q0 13 -15.5 31.5t-73.5 55.5q-77 50 -101 82.5t-24 76.5q0 24 10 48.5t31.5 44.5t55 32t80.5 12zM269 -57l-64 -170h-91l27 170h128z" />
    <glyph glyph-name="ae.salt_low" horiz-adv-x="926" 
d="M618 422q-54 0 -89.5 -31.5t-48.5 -85.5h275q-13 53 -49 85t-88 32zM262 52q41 0 69 26.5t28 66.5q0 37 -27 63.5t-70 26.5t-69 -26.5t-26 -63.5q0 -40 26 -66.5t69 -26.5zM881 65q-40 -37 -100.5 -63t-140.5 -26q-72 0 -129 26t-94 70q-19 -37 -64.5 -66.5t-118.5 -29.5
q-89 0 -142 47t-53 119q0 70 50.5 119t134.5 49q40 0 71.5 -10t54.5 -26v23q0 65 -29.5 90t-83.5 25q-24 0 -49 -3.5t-69 -12.5l-10 101q47 10 78.5 13.5t72.5 3.5q60 0 103 -18t68 -49q34 36 82.5 56.5t105.5 20.5q56 0 105.5 -20.5t86 -56.5t57.5 -86t21 -108v-32h-414
q7 -69 51.5 -107t115.5 -38q54 0 96.5 18.5t73.5 47.5z" />
    <glyph glyph-name="aeacute.salt_low" horiz-adv-x="926" 
d="M618 422q-54 0 -89.5 -31.5t-48.5 -85.5h275q-13 53 -49 85t-88 32zM262 52q41 0 69 26.5t28 66.5q0 37 -27 63.5t-70 26.5t-69 -26.5t-26 -63.5q0 -40 26 -66.5t69 -26.5zM881 65q-40 -37 -100.5 -63t-140.5 -26q-72 0 -129 26t-94 70q-19 -37 -64.5 -66.5t-118.5 -29.5
q-89 0 -142 47t-53 119q0 70 50.5 119t134.5 49q40 0 71.5 -10t54.5 -26v23q0 65 -29.5 90t-83.5 25q-24 0 -49 -3.5t-69 -12.5l-10 101q47 10 78.5 13.5t72.5 3.5q60 0 103 -18t68 -49q34 36 82.5 56.5t105.5 20.5q56 0 105.5 -20.5t86 -56.5t57.5 -86t21 -108v-32h-414
q7 -69 51.5 -107t115.5 -38q54 0 96.5 18.5t73.5 47.5zM627 719l-131 -147h-100l82 147h149z" />
    <glyph glyph-name="K.salt_tall" horiz-adv-x="691" 
d="M482 0l-279 352v-352h-136v746h136v-341l268 341h159l-291 -358l316 -388h-173z" />
    <glyph glyph-name="Kcommaaccent.salt_tall" horiz-adv-x="691" 
d="M482 0l-279 352v-352h-136v746h136v-341l268 341h159l-291 -358l316 -388h-173zM401 -57l-64 -170h-91l27 170h128z" />
    <glyph glyph-name="P.salt_tall" horiz-adv-x="589" 
d="M259 243h-56v-243h-136v746h198q62 0 115 -14t92 -43.5t61 -76t22 -111.5t-25.5 -113.5t-66.5 -80.5t-94.5 -48t-109.5 -16zM262 624h-59v-261h59q69 0 112 37.5t43 100.5q0 54 -35.5 88.5t-119.5 34.5z" />
    <glyph glyph-name="R.salt_tall" horiz-adv-x="619" 
d="M263 624h-60v-248h59q69 0 113 36.5t44 95.5q-1 50 -38 83t-118 33zM420 0l-212 264h-5v-264h-136v746h186q64 0 119.5 -14t95.5 -42.5t63 -73.5t23 -106q0 -45 -15 -82t-41.5 -65.5t-62 -49t-75.5 -32.5l225 -281h-165z" />
    <glyph glyph-name="Racute.salt_tall" horiz-adv-x="619" 
d="M263 624h-60v-248h59q69 0 113 36.5t44 95.5q-1 50 -38 83t-118 33zM420 0l-212 264h-5v-264h-136v746h186q64 0 119.5 -14t95.5 -42.5t63 -73.5t23 -106q0 -45 -15 -82t-41.5 -65.5t-62 -49t-75.5 -32.5l225 -281h-165zM472 954l-131 -147h-100l82 147h149z" />
    <glyph glyph-name="Rcommaaccent.salt_tall" horiz-adv-x="619" 
d="M263 624h-60v-248h59q69 0 113 36.5t44 95.5q-1 50 -38 83t-118 33zM420 0l-212 264h-5v-264h-136v746h186q64 0 119.5 -14t95.5 -42.5t63 -73.5t23 -106q0 -45 -15 -82t-41.5 -65.5t-62 -49t-75.5 -32.5l225 -281h-165zM364 -57l-64 -170h-91l27 170h128z" />
    <glyph glyph-name="Rcaron.salt_tall" horiz-adv-x="619" 
d="M263 624h-60v-248h59q69 0 113 36.5t44 95.5q-1 50 -38 83t-118 33zM420 0l-212 264h-5v-264h-136v746h186q64 0 119.5 -14t95.5 -42.5t63 -73.5t23 -106q0 -45 -15 -82t-41.5 -65.5t-62 -49t-75.5 -32.5l225 -281h-165zM360 807h-131l-114 147h108l70 -86l70 86h112z
" />
    <glyph glyph-name="S.salt_tall" horiz-adv-x="550" 
d="M453 735l-2 -120q-28 15 -67.5 24.5t-76.5 9.5q-62 0 -87.5 -24t-25.5 -52q0 -31 30 -62.5t99 -75.5q91 -61 136.5 -114t45.5 -122q0 -50 -20.5 -89t-56 -66t-84.5 -41.5t-105 -14.5q-22 0 -47.5 2.5t-50.5 6.5t-47.5 10.5t-37.5 13.5l2 123q35 -19 83.5 -31.5
t99.5 -12.5q63 0 94.5 30t31.5 66q0 34 -34 68.5t-107 80.5q-97 63 -134.5 114t-37.5 113q0 36 14.5 70.5t45 60.5t77.5 42t111 16q36 0 77.5 -6.5t73.5 -19.5z" />
    <glyph glyph-name="Sacute.salt_tall" horiz-adv-x="550" 
d="M453 735l-2 -120q-28 15 -67.5 24.5t-76.5 9.5q-62 0 -87.5 -24t-25.5 -52q0 -31 30 -62.5t99 -75.5q91 -61 136.5 -114t45.5 -122q0 -50 -20.5 -89t-56 -66t-84.5 -41.5t-105 -14.5q-22 0 -47.5 2.5t-50.5 6.5t-47.5 10.5t-37.5 13.5l2 123q35 -19 83.5 -31.5
t99.5 -12.5q63 0 94.5 30t31.5 66q0 34 -34 68.5t-107 80.5q-97 63 -134.5 114t-37.5 113q0 36 14.5 70.5t45 60.5t77.5 42t111 16q36 0 77.5 -6.5t73.5 -19.5zM474 954l-131 -147h-100l82 147h149z" />
    <glyph glyph-name="Scircumflex.salt_tall" horiz-adv-x="550" 
d="M453 735l-2 -120q-28 15 -67.5 24.5t-76.5 9.5q-62 0 -87.5 -24t-25.5 -52q0 -31 30 -62.5t99 -75.5q91 -61 136.5 -114t45.5 -122q0 -50 -20.5 -89t-56 -66t-84.5 -41.5t-105 -14.5q-22 0 -47.5 2.5t-50.5 6.5t-47.5 10.5t-37.5 13.5l2 123q35 -19 83.5 -31.5
t99.5 -12.5q63 0 94.5 30t31.5 66q0 34 -34 68.5t-107 80.5q-97 63 -134.5 114t-37.5 113q0 36 14.5 70.5t45 60.5t77.5 42t111 16q36 0 77.5 -6.5t73.5 -19.5zM365 807l-71 86l-70 -86h-109l114 147h131l115 -147h-110z" />
    <glyph glyph-name="Scedilla.salt_tall" horiz-adv-x="550" 
d="M453 735l-2 -120q-28 15 -67.5 24.5t-76.5 9.5q-62 0 -87.5 -24t-25.5 -52q0 -31 30 -62.5t99 -75.5q91 -61 136.5 -114t45.5 -122q0 -50 -20.5 -89t-56 -66t-84.5 -41.5t-105 -14.5q-22 0 -47.5 2.5t-50.5 6.5t-47.5 10.5t-37.5 13.5l2 123q35 -19 83.5 -31.5
t99.5 -12.5q63 0 94.5 30t31.5 66q0 34 -34 68.5t-107 80.5q-97 63 -134.5 114t-37.5 113q0 36 14.5 70.5t45 60.5t77.5 42t111 16q36 0 77.5 -6.5t73.5 -19.5zM226 -213q-14 0 -35.5 3t-40.5 10v57h1q19 -6 38 -9t29 -3q25 0 40 9t15 24q0 14 -18.5 23t-48.5 9h-20l-3 8
l30 81l60 -1l-17 -40q45 -6 70 -28t25 -56q0 -37 -34.5 -62t-90.5 -25z" />
    <glyph glyph-name="Scaron.salt_tall" horiz-adv-x="550" 
d="M453 735l-2 -120q-28 15 -67.5 24.5t-76.5 9.5q-62 0 -87.5 -24t-25.5 -52q0 -31 30 -62.5t99 -75.5q91 -61 136.5 -114t45.5 -122q0 -50 -20.5 -89t-56 -66t-84.5 -41.5t-105 -14.5q-22 0 -47.5 2.5t-50.5 6.5t-47.5 10.5t-37.5 13.5l2 123q35 -19 83.5 -31.5
t99.5 -12.5q63 0 94.5 30t31.5 66q0 34 -34 68.5t-107 80.5q-97 63 -134.5 114t-37.5 113q0 36 14.5 70.5t45 60.5t77.5 42t111 16q36 0 77.5 -6.5t73.5 -19.5zM361 807h-131l-114 147h108l70 -86l70 86h112z" />
    <glyph glyph-name="Scommaaccent.salt_tall" horiz-adv-x="550" 
d="M453 735l-2 -120q-28 15 -67.5 24.5t-76.5 9.5q-62 0 -87.5 -24t-25.5 -52q0 -31 30 -62.5t99 -75.5q91 -61 136.5 -114t45.5 -122q0 -50 -20.5 -89t-56 -66t-84.5 -41.5t-105 -14.5q-22 0 -47.5 2.5t-50.5 6.5t-47.5 10.5t-37.5 13.5l2 123q35 -19 83.5 -31.5
t99.5 -12.5q63 0 94.5 30t31.5 66q0 34 -34 68.5t-107 80.5q-97 63 -134.5 114t-37.5 113q0 36 14.5 70.5t45 60.5t77.5 42t111 16q36 0 77.5 -6.5t73.5 -19.5zM311 -66l-64 -170h-91l27 170h128z" />
    <glyph glyph-name="T.salt_tall" horiz-adv-x="487" 
d="M175 0v625h-148v121h433v-121h-149v-625h-136z" />
    <glyph glyph-name="Tcaron.salt_tall" horiz-adv-x="487" 
d="M175 0v625h-148v121h433v-121h-149v-625h-136zM310 807h-131l-114 147h108l70 -86l70 86h112z" />
    <glyph glyph-name="Tcommaaccent.salt_tall" horiz-adv-x="487" 
d="M175 0v625h-148v121h433v-121h-149v-625h-136zM307 -57l-64 -170h-91l27 170h128z" />
    <glyph glyph-name="Tbar.salt_tall" horiz-adv-x="487" 
d="M388 312h-77v-312h-136v312h-76v97h76v216h-148v121h433v-121h-149v-216h77v-97z" />
    <glyph glyph-name="a.salt_ss" horiz-adv-x="668" 
d="M487 249q0 32 -12 61.5t-33.5 51.5t-50.5 35t-63 13t-62.5 -13t-49.5 -34.5t-33 -51t-12 -61.5t12 -61t33 -51t49.5 -35t62.5 -13t63 13t50.5 34.5t33.5 50.5t12 61zM492 0v80q-34 -46 -85.5 -72.5t-115.5 -26.5q-53 0 -99 21t-79.5 57t-52.5 85t-19 105q0 55 19 104
t52.5 86t79.5 58.5t99 21.5q60 0 109.5 -25t83.5 -68v74h124v-500h-116z" />
    <glyph glyph-name="agrave.salt_ss" horiz-adv-x="668" 
d="M487 249q0 32 -12 61.5t-33.5 51.5t-50.5 35t-63 13t-62.5 -13t-49.5 -34.5t-33 -51t-12 -61.5t12 -61t33 -51t49.5 -35t62.5 -13t63 13t50.5 34.5t33.5 50.5t12 61zM492 0v80q-34 -46 -85.5 -72.5t-115.5 -26.5q-53 0 -99 21t-79.5 57t-52.5 85t-19 105q0 55 19 104
t52.5 86t79.5 58.5t99 21.5q60 0 109.5 -25t83.5 -68v74h124v-500h-116zM159 719h152l82 -147h-102z" />
    <glyph glyph-name="aacute.salt_ss" horiz-adv-x="668" 
d="M487 249q0 32 -12 61.5t-33.5 51.5t-50.5 35t-63 13t-62.5 -13t-49.5 -34.5t-33 -51t-12 -61.5t12 -61t33 -51t49.5 -35t62.5 -13t63 13t50.5 34.5t33.5 50.5t12 61zM492 0v80q-34 -46 -85.5 -72.5t-115.5 -26.5q-53 0 -99 21t-79.5 57t-52.5 85t-19 105q0 55 19 104
t52.5 86t79.5 58.5t99 21.5q60 0 109.5 -25t83.5 -68v74h124v-500h-116zM521 719l-131 -147h-100l82 147h149z" />
    <glyph glyph-name="acircumflex.salt_ss" horiz-adv-x="668" 
d="M487 249q0 32 -12 61.5t-33.5 51.5t-50.5 35t-63 13t-62.5 -13t-49.5 -34.5t-33 -51t-12 -61.5t12 -61t33 -51t49.5 -35t62.5 -13t63 13t50.5 34.5t33.5 50.5t12 61zM492 0v80q-34 -46 -85.5 -72.5t-115.5 -26.5q-53 0 -99 21t-79.5 57t-52.5 85t-19 105q0 55 19 104
t52.5 86t79.5 58.5t99 21.5q60 0 109.5 -25t83.5 -68v74h124v-500h-116zM412 572l-71 86l-70 -86h-109l114 147h131l115 -147h-110z" />
    <glyph glyph-name="atilde.salt_ss" horiz-adv-x="668" 
d="M487 249q0 32 -12 61.5t-33.5 51.5t-50.5 35t-63 13t-62.5 -13t-49.5 -34.5t-33 -51t-12 -61.5t12 -61t33 -51t49.5 -35t62.5 -13t63 13t50.5 34.5t33.5 50.5t12 61zM492 0v80q-34 -46 -85.5 -72.5t-115.5 -26.5q-53 0 -99 21t-79.5 57t-52.5 85t-19 105q0 55 19 104
t52.5 86t79.5 58.5t99 21.5q60 0 109.5 -25t83.5 -68v74h124v-500h-116zM235 573l-94 2q-6 84 28 116.5t80 32.5q22 0 45 -8.5t44 -19t39.5 -19t31.5 -8.5q15 0 26 10.5t11 42.5l94 -3q5 -72 -24.5 -108t-82.5 -36q-22 0 -45 8.5t-44.5 18t-40 18t-31.5 8.5
q-15 0 -26.5 -10.5t-10.5 -44.5z" />
    <glyph glyph-name="adieresis.salt_ss" horiz-adv-x="668" 
d="M487 249q0 32 -12 61.5t-33.5 51.5t-50.5 35t-63 13t-62.5 -13t-49.5 -34.5t-33 -51t-12 -61.5t12 -61t33 -51t49.5 -35t62.5 -13t63 13t50.5 34.5t33.5 50.5t12 61zM492 0v80q-34 -46 -85.5 -72.5t-115.5 -26.5q-53 0 -99 21t-79.5 57t-52.5 85t-19 105q0 55 19 104
t52.5 86t79.5 58.5t99 21.5q60 0 109.5 -25t83.5 -68v74h124v-500h-116zM500 675v-103h-114v103h114zM297 675v-103h-115v103h115z" />
    <glyph glyph-name="aring.salt_ss" horiz-adv-x="668" 
d="M487 249q0 32 -12 61.5t-33.5 51.5t-50.5 35t-63 13t-62.5 -13t-49.5 -34.5t-33 -51t-12 -61.5t12 -61t33 -51t49.5 -35t62.5 -13t63 13t50.5 34.5t33.5 50.5t12 61zM492 0v80q-34 -46 -85.5 -72.5t-115.5 -26.5q-53 0 -99 21t-79.5 57t-52.5 85t-19 105q0 55 19 104
t52.5 86t79.5 58.5t99 21.5q60 0 109.5 -25t83.5 -68v74h124v-500h-116zM342 808q52 0 88.5 -36t36.5 -84q0 -49 -36.5 -85t-88.5 -36t-88.5 37t-36.5 84q0 48 36.5 84t88.5 36zM342 750q-25 0 -43.5 -18t-18.5 -44t18.5 -44t43.5 -18q26 0 44 18t18 44t-18 44t-44 18z" />
    <glyph glyph-name="amacron.salt_ss" horiz-adv-x="668" 
d="M487 249q0 32 -12 61.5t-33.5 51.5t-50.5 35t-63 13t-62.5 -13t-49.5 -34.5t-33 -51t-12 -61.5t12 -61t33 -51t49.5 -35t62.5 -13t63 13t50.5 34.5t33.5 50.5t12 61zM492 0v80q-34 -46 -85.5 -72.5t-115.5 -26.5q-53 0 -99 21t-79.5 57t-52.5 85t-19 105q0 55 19 104
t52.5 86t79.5 58.5t99 21.5q60 0 109.5 -25t83.5 -68v74h124v-500h-116zM483 665v-93h-284v93h284z" />
    <glyph glyph-name="abreve.salt_ss" horiz-adv-x="668" 
d="M487 249q0 32 -12 61.5t-33.5 51.5t-50.5 35t-63 13t-62.5 -13t-49.5 -34.5t-33 -51t-12 -61.5t12 -61t33 -51t49.5 -35t62.5 -13t63 13t50.5 34.5t33.5 50.5t12 61zM492 0v80q-34 -46 -85.5 -72.5t-115.5 -26.5q-53 0 -99 21t-79.5 57t-52.5 85t-19 105q0 55 19 104
t52.5 86t79.5 58.5t99 21.5q60 0 109.5 -25t83.5 -68v74h124v-500h-116zM504 720q-13 -68 -55.5 -110.5t-107.5 -42.5t-107.5 42.5t-55.5 110.5l79 3q14 -39 37.5 -58t46.5 -19q24 0 47 19t37 58z" />
    <glyph glyph-name="aogonek.salt_ss" horiz-adv-x="668" 
d="M517 -176q-50 0 -73.5 23.5t-23.5 52.5q0 27 17.5 48.5t39.5 38.5l15 10v83q-34 -46 -85.5 -72.5t-115.5 -26.5q-53 0 -99 21t-79.5 57t-52.5 85t-19 105q0 55 19 104t52.5 86t79.5 58.5t99 21.5q60 0 109.5 -25t83.5 -68v74h124v-500l-50 -36q-19 -13 -28.5 -23.5
t-9.5 -22.5q0 -10 8.5 -18t21.5 -8q10 0 19 4t16 10l36 -46q-14 -13 -41 -24t-63 -12zM487 249q0 32 -12 61.5t-33.5 51.5t-50.5 35t-63 13t-62.5 -13t-49.5 -34.5t-33 -51t-12 -61.5t12 -61t33 -51t49.5 -35t62.5 -13t63 13t50.5 34.5t33.5 50.5t12 61z" />
    <glyph glyph-name="aringacute.salt_ss" horiz-adv-x="668" 
d="M487 249q0 32 -12 61.5t-33.5 51.5t-50.5 35t-63 13t-62.5 -13t-49.5 -34.5t-33 -51t-12 -61.5t12 -61t33 -51t49.5 -35t62.5 -13t63 13t50.5 34.5t33.5 50.5t12 61zM492 0v80q-34 -46 -85.5 -72.5t-115.5 -26.5q-53 0 -99 21t-79.5 57t-52.5 85t-19 105q0 55 19 104
t52.5 86t79.5 58.5t99 21.5q60 0 109.5 -25t83.5 -68v74h124v-500h-116zM341 808q52 0 88.5 -36t36.5 -84q0 -49 -36.5 -85t-88.5 -36t-88.5 37t-36.5 84q0 48 36.5 84t88.5 36zM341 750q-25 0 -43.5 -18t-18.5 -44t18.5 -44t43.5 -18q26 0 44 18t18 44t-18 44t-44 18z
M521 979l-131 -147h-100l82 147h149z" />
    <glyph glyph-name="Adieresis.salt" horiz-adv-x="756" 
d="M648 746v-115h-133v115h133zM241 746v-115h-133v115h133zM504 242l-127 339l-129 -339h256zM595 0l-50 133h-338l-51 -133h-140l295 746h135l294 -746h-145z" />
    <glyph glyph-name="Odieresis.salt" horiz-adv-x="907" 
d="M454 646q-57 0 -107.5 -22t-87.5 -59t-58.5 -86.5t-21.5 -104.5q0 -56 21.5 -106t58.5 -87t87.5 -59t107.5 -22t107 22t86.5 59t58 87t21.5 106q0 55 -21.5 104.5t-58 86.5t-86.5 59t-107 22zM864 374q0 -82 -32 -155t-87 -126.5t-130.5 -85t-160.5 -31.5
q-86 0 -161.5 31.5t-130.5 85t-87 126.5t-32 155q0 73 25.5 139.5t71.5 117.5h-82v115h131v-68q53 43 121 67.5t144 24.5q75 0 143 -24.5t121 -67.5v68h131v-115h-82q46 -51 71.5 -117.5t25.5 -139.5z" />
    <glyph glyph-name="Udieresis.salt" horiz-adv-x="728" 
d="M659 746v-107h-145v107h145zM214 746v-107h-145v107h145zM659 310q0 -157 -76 -245.5t-219 -88.5t-219 88.5t-76 245.5v309h145v-340q0 -42 12.5 -74t33.5 -54t48 -33t56 -11t56.5 11t48 33t33 54t12.5 74v340h145v-309z" />
    <glyph glyph-name="asterisk.salt1" horiz-adv-x="401" 
d="M343 502l-113 23l-43 -100l-25 2l-12 114l-110 11l-5 25l104 47l-23 108l21 11l78 -85l95 56l18 -17l-57 -99l82 -74z" />
    <glyph glyph-name="space.em" horiz-adv-x="1000" 
 />
    <glyph glyph-name="space.en" horiz-adv-x="500" 
 />
    <glyph glyph-name="space.frac" horiz-adv-x="85" 
 />
    <glyph glyph-name="space.thin" horiz-adv-x="150" 
 />
    </font>
</defs>
</svg>
