<?xml version="1.0" standalone="no"?>
<!DOCTYPE svg PUBLIC "-//W3C//DTD SVG 1.1//EN" "http://www.w3.org/Graphics/SVG/1.1/DTD/svg11.dtd" >
<svg xmlns="http://www.w3.org/2000/svg" xmlns:xlink="http://www.w3.org/1999/xlink" version="1.1">
<metadata>
Created by FontForge 20200314 at Fri Oct 14 10:40:42 2016
 By Unknown
Copyright (c) 2015 CJ Type. All rights reserved.
</metadata>
<defs>
<font id="DunbarText-Bold" horiz-adv-x="34" >
  <font-face 
    font-family="DunbarText"
    font-weight="700"
    font-stretch="normal"
    units-per-em="1000"
    panose-1="0 0 0 0 0 0 0 2 0 0"
    ascent="780"
    descent="-220"
    x-height="500"
    cap-height="746"
    bbox="-206.828 -298 1229 1104"
    underline-thickness="0"
    underline-position="0"
    unicode-range="U+0020-FEFF"
  />
<missing-glyph horiz-adv-x="17" 
 />
    <glyph glyph-name="f_f" unicode="ff" horiz-adv-x="650" 
d="M291 381h-58v-381h-142v381h-59v119h59v98q0 60 19 98.5t49.5 60t69 29.5t76.5 8v-123q-29 0 -50.5 -15.5t-21.5 -65.5v-90h58v-119zM616 381h-58v-381h-142v381h-59v119h59v98q0 60 19 98.5t49.5 60t69 29.5t76.5 8v-123q-29 0 -50.5 -15.5t-21.5 -65.5v-90h58v-119z
" />
    <glyph glyph-name="f_i" unicode="fi" horiz-adv-x="583" 
d="M291 381h-58v-381h-142v381h-59v119h59v98q0 60 19 98.5t49.5 60t69 29.5t76.5 8v-123q-29 0 -50.5 -15.5t-21.5 -65.5v-90h58v-119zM527 695v-121h-145v121h145zM525 500v-500h-142v500h142z" />
    <glyph glyph-name="f_l" unicode="fl" horiz-adv-x="583" 
d="M291 381h-58v-381h-142v381h-59v119h59v98q0 60 19 98.5t49.5 60t69 29.5t76.5 8v-123q-29 0 -50.5 -15.5t-21.5 -65.5v-90h58v-119zM525 780v-780h-142v780h142z" />
    <glyph glyph-name="f_f_i" unicode="ffi" horiz-adv-x="908" 
d="M291 381h-58v-381h-142v381h-59v119h59v98q0 60 19 98.5t49.5 60t69 29.5t76.5 8v-123q-29 0 -50.5 -15.5t-21.5 -65.5v-90h58v-119zM616 381h-58v-381h-142v381h-59v119h59v98q0 60 19 98.5t49.5 60t69 29.5t76.5 8v-123q-29 0 -50.5 -15.5t-21.5 -65.5v-90h58v-119z
M852 695v-121h-145v121h145zM850 500v-500h-142v500h142z" />
    <glyph glyph-name="f_f_l" unicode="ffl" horiz-adv-x="908" 
d="M291 381h-58v-381h-142v381h-59v119h59v98q0 60 19 98.5t49.5 60t69 29.5t76.5 8v-123q-29 0 -50.5 -15.5t-21.5 -65.5v-90h58v-119zM616 381h-58v-381h-142v381h-59v119h59v98q0 60 19 98.5t49.5 60t69 29.5t76.5 8v-123q-29 0 -50.5 -15.5t-21.5 -65.5v-90h58v-119z
M850 780v-780h-142v780h142z" />
    <glyph glyph-name=".notdef" horiz-adv-x="17" 
 />
    <glyph glyph-name=".null" horiz-adv-x="0" 
 />
    <glyph glyph-name="nonmarkingreturn" horiz-adv-x="333" 
 />
    <glyph glyph-name="space" unicode=" " horiz-adv-x="200" 
 />
    <glyph glyph-name="exclam" unicode="!" horiz-adv-x="355" 
d="M239 209h-124l-27 537h178zM96 0v141h162v-141h-162z" />
    <glyph glyph-name="quotedbl" unicode="&#x22;" horiz-adv-x="562" 
d="M67 448l65 298h161l-115 -298h-111zM281 448l65 298h161l-115 -298h-111z" />
    <glyph glyph-name="numbersign" unicode="#" horiz-adv-x="826" 
d="M474 301l28 144h-139l-28 -144h139zM415 0l36 186h-139l-36 -186h-119l36 186h-130v115h153l27 144h-141v115h164l36 186h120l-36 -186h139l36 186h119l-36 -186h119v-115h-142l-28 -144h130v-115h-153l-36 -186h-119z" />
    <glyph glyph-name="dollar" unicode="$" horiz-adv-x="568" 
d="M338 -116h-93v114q-51 1 -102.5 12t-85.5 33v132q47 -29 91 -42t98 -13q60 0 91.5 24t31.5 53q0 31 -36 62t-107 80q-96 66 -133 113.5t-37 107.5t48 110.5t141 63.5v115h93v-112q34 -3 71.5 -11.5t68.5 -24.5v-129q-31 20 -71.5 32t-85.5 12q-57 0 -81 -19.5t-24 -35.5
q0 -31 30.5 -59.5t92.5 -71.5q48 -36 83 -64t57.5 -53.5t33 -53t10.5 -62.5q0 -42 -14.5 -74.5t-39.5 -56t-59 -39t-72 -22.5v-121z" />
    <glyph glyph-name="percent" unicode="%" horiz-adv-x="894" 
d="M750 746l-486 -746h-118l484 746h120zM215 746q76 0 125.5 -47.5t49.5 -140.5v-27q0 -92 -50 -139.5t-125 -47.5q-74 0 -124 47.5t-50 139.5v27q0 93 50 140.5t124 47.5zM278 532v25q0 56 -17.5 83.5t-45.5 27.5q-27 0 -45 -27.5t-18 -83.5v-25q0 -56 18 -83t45 -27
q28 0 45.5 27t17.5 83zM679 402q75 0 124.5 -47.5t49.5 -140.5v-27q0 -92 -49.5 -139.5t-124.5 -47.5q-74 0 -124.5 47.5t-50.5 139.5v27q0 93 50.5 140.5t124.5 47.5zM741 188v25q0 56 -17 83.5t-45 27.5t-45.5 -27.5t-17.5 -83.5v-25q0 -56 17.5 -83t45.5 -27t45 27t17 83
z" />
    <glyph glyph-name="ampersand" unicode="&#x26;" horiz-adv-x="816" 
d="M294 585q0 -32 16.5 -54.5t47.5 -54.5q53 34 77 58.5t24 56.5q0 26 -21 49t-63 23q-35 0 -58 -22.5t-23 -55.5zM329 93q37 0 73 17.5t71 46.5q-40 43 -80 87.5t-71 78.5q-51 -34 -76 -64.5t-25 -70.5q0 -39 33 -66.5t75 -28.5zM620 0q-7 7 -23 23.5t-37 39.5
q-50 -40 -110 -64t-139 -23q-121 1 -190 55.5t-69 142.5q0 83 53 133.5t138 100.5q-47 50 -76 88.5t-29 89.5q0 39 18 72.5t49.5 58.5t75 39t93.5 14q107 0 172 -49.5t65 -127.5q0 -57 -39.5 -99.5t-110.5 -85.5q-6 -4 -12 -7.5t-12 -6.5q27 -29 61 -66.5t70 -76.5
q23 26 47 54t47 56l91 -98q-26 -28 -50 -56t-48 -53q49 -55 85.5 -96t43.5 -48l-5 -10h-159z" />
    <glyph glyph-name="quotesingle" unicode="'" horiz-adv-x="350" 
d="M68 448l65 298h161l-115 -298h-111z" />
    <glyph glyph-name="parenleft" unicode="(" horiz-adv-x="453" 
d="M303 785l81 -83q-25 -25 -51 -64.5t-47.5 -90t-35.5 -112t-14 -129.5v-13q0 -68 14 -129.5t35 -112t47.5 -89.5t51.5 -63l-81 -83q-34 27 -71 71.5t-68 104t-51 135t-20 163.5v19q0 88 20 163t51 135t68 104.5t71 73.5z" />
    <glyph glyph-name="parenright" unicode=")" horiz-adv-x="453" 
d="M150 785q34 -29 71 -73.5t68 -104.5t51 -135t20 -163v-19q0 -88 -20 -163.5t-51 -135t-68.5 -104t-71.5 -71.5l-80 83q25 24 51.5 63t48 89.5t35.5 112t14 129.5v13q0 68 -14 129.5t-36 112t-48.5 90t-50.5 64.5z" />
    <glyph glyph-name="asterisk" unicode="*" horiz-adv-x="416" 
d="M276 403l-66 136l-67 -138l-81 59l109 100l-134 16l31 95l118 -65l-27 140h99l-26 -139l115 65l31 -95l-130 -16l107 -100z" />
    <glyph glyph-name="plus" unicode="+" horiz-adv-x="658" 
d="M603 294h-208v-229h-132v229h-208v116h208v212h132v-212h208v-116z" />
    <glyph glyph-name="comma" unicode="," horiz-adv-x="329" 
d="M101 139h166l-111 -292h-112z" />
    <glyph glyph-name="hyphen" unicode="-" horiz-adv-x="405" 
d="M348 343v-133h-291v133h291z" />
    <glyph glyph-name="period" unicode="." horiz-adv-x="303" 
d="M69 151h165v-151h-165v151z" />
    <glyph glyph-name="slash" unicode="/" horiz-adv-x="596" 
d="M567 780l-485 -1000h-142l482 1000h145z" />
    <glyph glyph-name="zero" unicode="0" horiz-adv-x="688" 
d="M343 770q62 0 115 -23.5t91.5 -70t60 -116.5t21.5 -162v-52q0 -91 -22 -160.5t-60 -116t-91 -70t-115 -23.5q-61 0 -113.5 23.5t-90.5 70t-60 116t-22 160.5v52q0 92 22 162t60 116.5t90.5 70t113.5 23.5zM486 345v52q0 126 -40 187.5t-103 61.5q-60 0 -101 -61.5
t-41 -187.5v-52q0 -126 41 -187t101 -61q63 0 103 61t40 187z" />
    <glyph glyph-name="one" unicode="1" horiz-adv-x="414" 
d="M335 0h-145v536l-138 -137v185l169 162h114v-746z" />
    <glyph glyph-name="two" unicode="2" horiz-adv-x="626" 
d="M534 0h-490l-10 20q15 19 56 67.5t86 103t85 103t54 66.5q44 54 63 90t19 78q0 45 -36.5 80.5t-96.5 35.5q-38 0 -79.5 -13.5t-84.5 -50.5l1 147q42 22 88.5 32.5t92.5 10.5q60 0 109 -18.5t83.5 -50t53.5 -74.5t19 -92q0 -71 -32.5 -123t-86.5 -117q-10 -12 -27 -32
t-38 -43.5t-44 -49.5t-45 -50h310z" />
    <glyph glyph-name="three" unicode="3" horiz-adv-x="561" 
d="M224 -24q-20 0 -45 2t-50.5 6.5t-49.5 11.5t-42 17v123q15 -10 35.5 -17.5t41 -13t39.5 -8t31 -2.5q84 -1 137 35.5t53 92.5t-50 89t-125 33h-52l5 116h47q57 0 96 30t39 72q0 40 -35 64.5t-91 24.5q-30 0 -62.5 -5.5t-65.5 -21.5l9 125q26 9 61.5 14.5t84.5 5.5
q51 0 96 -14t77.5 -39t51 -60t18.5 -75q-1 -49 -28.5 -94t-72.5 -72q61 -25 100.5 -77t39.5 -121q0 -52 -21.5 -96.5t-60 -77t-92.5 -50.5t-119 -18z" />
    <glyph glyph-name="four" unicode="4" horiz-adv-x="671" 
d="M399 253v276l-182 -276h182zM604 135h-60v-135h-145v135h-358l-11 26l391 585h123v-493h94z" />
    <glyph glyph-name="five" unicode="5" horiz-adv-x="629" 
d="M232 -24q-42 0 -95 11.5t-95 33.5v125q43 -23 90 -36t100 -13q79 0 130 42t51 108q0 57 -51.5 95t-137.5 38q-40 0 -74.5 -6t-68.5 -17l94 389h412l-37 -123h-276l-35 -130q7 1 15.5 1h15.5q70 0 124.5 -18.5t91.5 -50.5t56 -77.5t19 -98.5q0 -60 -23 -110t-66 -86.5
t-104 -56.5t-136 -20z" />
    <glyph glyph-name="six" unicode="6" horiz-adv-x="649" 
d="M327 -24q-60 0 -113 18t-91.5 52t-60.5 83t-22 111q0 61 24.5 125t64 128t90 128t100.5 125h180q-68 -75 -131 -149.5t-109 -142.5l1 -1q25 14 54 22t61 8q49 0 93 -19t76.5 -52t51.5 -77.5t19 -94.5q0 -54 -21.5 -102.5t-59.5 -84t-91 -56.5t-116 -21zM327 376
q-58 0 -101 -41t-43 -99q0 -57 43 -98.5t101 -41.5q60 0 101.5 41.5t41.5 98.5q0 58 -41.5 99t-101.5 41z" />
    <glyph glyph-name="seven" unicode="7" horiz-adv-x="616" 
d="M275 0h-160l268 617h-344l41 129h513z" />
    <glyph glyph-name="eight" unicode="8" horiz-adv-x="642" 
d="M320 -24q-66 0 -119.5 18t-91 49.5t-57.5 75.5t-20 95q0 63 34.5 115t97.5 81q-44 25 -68 65.5t-24 87.5q0 43 17.5 80.5t49.5 65.5t78 44.5t103 16.5q59 0 105.5 -16.5t78.5 -44.5t49 -65.5t17 -80.5q0 -48 -24 -88t-68 -66q61 -29 96 -80.5t35 -114.5q0 -51 -20.5 -95
t-58 -75.5t-91 -49.5t-119.5 -18zM320 448q44 0 77.5 30.5t33.5 73.5t-33 72t-78 29t-77.5 -29t-32.5 -72t32.5 -73.5t77.5 -30.5zM320 90q61 0 104 38.5t43 94.5t-43 93t-104 37q-58 0 -101.5 -37t-43.5 -93t43.5 -94.5t101.5 -38.5z" />
    <glyph glyph-name="nine" unicode="9" horiz-adv-x="649" 
d="M330 0h-180q68 75 131.5 149.5t109.5 142.5l-2 1q-25 -14 -54 -22t-61 -8q-49 0 -93 19t-76 52t-51 77.5t-19 94.5q0 54 21.5 102.5t59 84t90.5 56.5t116 21q61 0 114 -18t91.5 -52t60.5 -83t22 -111q0 -61 -25 -125t-64.5 -128t-90 -128t-100.5 -125zM322 370
q58 0 101 41t43 99q0 57 -43 98.5t-101 41.5q-60 0 -101.5 -41.5t-41.5 -98.5q0 -58 41.5 -99t101.5 -41z" />
    <glyph glyph-name="colon" unicode=":" horiz-adv-x="297" 
d="M70 464h159v-156h-159v156zM70 156h159v-156h-159v156z" />
    <glyph glyph-name="semicolon" unicode=";" horiz-adv-x="330" 
d="M96 464h157v-156h-157v156zM95 121h160l-90 -263h-117z" />
    <glyph glyph-name="less" unicode="&#x3c;" horiz-adv-x="595" 
d="M554 5l-514 243v116l514 245v-129l-388 -172l388 -170v-133z" />
    <glyph glyph-name="equal" unicode="=" horiz-adv-x="590" 
d="M537 503v-107h-483v107h483zM537 283v-107h-483v107h483z" />
    <glyph glyph-name="greater" unicode="&#x3e;" horiz-adv-x="595" 
d="M41 5v133l388 170l-388 172v129l514 -245v-116z" />
    <glyph glyph-name="question" unicode="?" horiz-adv-x="588" 
d="M328 195h-134v203h34q29 0 56.5 8t48 23.5t32.5 39.5t12 56q0 45 -38 80t-108 35q-39 0 -78 -12t-79 -43l-5 124q45 26 95.5 39t100.5 13q115 0 185 -63t70 -164q0 -51 -15.5 -91t-41.5 -69t-61 -47t-74 -25v-107zM192 0v128h138v-128h-138z" />
    <glyph glyph-name="at" unicode="@" horiz-adv-x="1034" 
d="M543 -191q-109 0 -198.5 36.5t-152.5 99.5t-98 149.5t-35 185.5q0 92 33.5 175.5t94.5 146t148.5 99.5t194.5 37q101 0 184.5 -34t141.5 -91t90 -133t32 -160q0 -75 -20 -128t-50 -86t-67 -48t-70 -15q-54 0 -87.5 23t-45.5 58q-27 -34 -67 -56t-90 -23q-45 -1 -84 14.5
t-67.5 44.5t-45 69.5t-16.5 88.5q0 49 17 90t45.5 70.5t67.5 46t83 16.5q46 1 85 -19t67 -53v53h119v-300q0 -33 15 -40.5t25 -7.5q13 0 32.5 11t37 35t30 63t12.5 94q0 69 -26.5 133t-75 112t-118 77t-154.5 29q-90 0 -163.5 -33t-125 -87.5t-80 -125t-28.5 -145.5
q0 -79 28 -153t81 -129.5t129 -89.5t172 -34q42 0 86 5.5t84.5 16t77 26t62.5 34.5l35 -58q-29 -21 -69.5 -38t-86 -28.5t-94.5 -17.5t-95 -6zM511 156q45 0 76.5 33.5t31.5 76.5q0 42 -30.5 75t-77.5 33q-43 0 -76.5 -28.5t-33.5 -81.5q0 -51 33.5 -79.5t76.5 -28.5z" />
    <glyph glyph-name="A" unicode="A" horiz-adv-x="767" 
d="M495 246l-113 308l-114 -308h227zM586 0l-45 123h-319l-46 -123h-161l292 746h154l292 -746h-167z" />
    <glyph glyph-name="B" unicode="B" horiz-adv-x="616" 
d="M335 0h-270v746h249q64 0 108 -15t70.5 -41t38.5 -61.5t12 -75.5q0 -46 -23 -88t-65 -71q55 -28 86 -78.5t31 -110.5q0 -39 -14 -76t-43 -65.5t-74 -46t-106 -17.5zM279 621h-58v-184h55q60 0 93.5 26t33.5 69q-1 40 -27 64.5t-97 24.5zM288 327h-67v-202h69
q72 0 99 28.5t27 69.5q0 49 -33.5 76.5t-94.5 27.5z" />
    <glyph glyph-name="C" unicode="C" horiz-adv-x="664" 
d="M612 733v-150q-33 21 -72.5 31.5t-82.5 10.5q-54 0 -102 -20t-83 -54t-55.5 -80t-20.5 -96q0 -51 20.5 -97.5t55.5 -81t83 -55t102 -20.5q43 0 82.5 10.5t72.5 31.5v-151q-37 -17 -78 -26t-86 -9q-88 0 -163 31.5t-129 85t-85 126t-31 154.5q0 81 31 153.5t85 126
t129 84.5t163 31q45 0 86 -9.5t78 -26.5z" />
    <glyph glyph-name="D" unicode="D" horiz-adv-x="714" 
d="M65 0v746h214q76 0 147 -22.5t125 -68t86.5 -116t32.5 -165.5q0 -96 -32 -167t-86 -116.5t-124.5 -68t-146.5 -22.5h-216zM221 606v-466h65q45 0 86.5 15t73 44t50 73t18.5 102q0 57 -18.5 100.5t-50 72.5t-73 44t-86.5 15h-65z" />
    <glyph glyph-name="E" unicode="E" horiz-adv-x="547" 
d="M65 0v746h417v-137h-261v-162h236v-126h-236v-184h269v-137h-425z" />
    <glyph glyph-name="F" unicode="F" horiz-adv-x="552" 
d="M65 0v746h441v-137h-285v-182h252v-136h-252v-291h-156z" />
    <glyph glyph-name="G" unicode="G" horiz-adv-x="870" 
d="M831 374q0 -83 -29.5 -156t-80.5 -126.5t-120 -84.5t-148 -31q-87 0 -162.5 31.5t-131 85t-87.5 126.5t-32 155t32 154.5t87.5 126t131 84.5t162.5 31q81 0 154.5 -29t125.5 -76l-100 -110q-37 34 -83 53.5t-97 19.5q-54 0 -101 -20t-81.5 -54.5t-54.5 -81t-20 -98.5
q0 -53 20 -99.5t54.5 -81t81.5 -55t101 -20.5q78 0 137.5 50.5t77.5 125.5h-205l54 128h314v-48z" />
    <glyph glyph-name="H" unicode="H" horiz-adv-x="722" 
d="M65 0v746h156v-279h280v279h156v-746h-156v328h-280v-328h-156z" />
    <glyph glyph-name="I" unicode="I" horiz-adv-x="287" 
d="M66 0v746h155v-746h-155z" />
    <glyph glyph-name="J" unicode="J" horiz-adv-x="403" 
d="M25 0v145q18 -10 37 -14.5t37 -4.5q37 0 60 30t23 117v473h155v-526q0 -115 -49 -176t-168 -61q-26 0 -50 3.5t-45 13.5z" />
    <glyph glyph-name="K" unicode="K" horiz-adv-x="718" 
d="M507 0l-226 313l-60 -71v-242h-156v746h156v-295l247 295h190l-271 -316l311 -430h-191z" />
    <glyph glyph-name="L" unicode="L" horiz-adv-x="510" 
d="M65 746h156v-606h258v-140h-414v746z" />
    <glyph glyph-name="M" unicode="M" horiz-adv-x="915" 
d="M219 469v-469h-154v746h161l238 -359l227 359h159v-746h-154v468v15l-225 -344h-18l-234 346v-16z" />
    <glyph glyph-name="N" unicode="N" horiz-adv-x="786" 
d="M572 0l-351 485v-485h-156v746h152l349 -483v483h155v-746h-149z" />
    <glyph glyph-name="O" unicode="O" horiz-adv-x="904" 
d="M453 770q85 0 160.5 -31t131 -84.5t87.5 -126t32 -154.5t-32 -155t-87.5 -126.5t-131 -85t-160.5 -31.5q-87 0 -162.5 31.5t-131 85t-87.5 126.5t-32 155t32 154.5t87.5 126t131 84.5t162.5 31zM453 628q-54 0 -101 -20t-81.5 -54.5t-54.5 -81t-20 -98.5t20 -99
t54.5 -81.5t81.5 -55t101 -20.5q53 0 99.5 20.5t81 55t54.5 81.5t20 99t-20 98.5t-54.5 81t-81 54.5t-99.5 20z" />
    <glyph glyph-name="P" unicode="P" horiz-adv-x="603" 
d="M274 256h-53v-256h-156v746h212q59 0 111.5 -11t92 -38.5t63 -75.5t23.5 -122q0 -65 -26.5 -111t-68 -75.5t-94 -43t-104.5 -13.5zM289 607h-68v-214h68q54 0 89 28t35 78q0 51 -30 79.5t-94 28.5z" />
    <glyph glyph-name="Q" unicode="Q" horiz-adv-x="904" 
d="M453 628q-54 0 -101 -20t-81.5 -54.5t-54.5 -81t-20 -98.5t20 -99t54.5 -81.5t81.5 -55t101 -20.5q53 0 99.5 20.5t81 55t54.5 81.5t20 99t-20 98.5t-54.5 81t-81 54.5t-99.5 20zM858 -23h-377q-7 -1 -14 -1h-14q-87 0 -162.5 31.5t-131 85t-87.5 126.5t-32 155t32 154.5
t87.5 126t131 84.5t162.5 31q85 0 160.5 -31.5t131 -84.5t87.5 -124.5t32 -150.5q0 -84 -44 -161.5t-117 -126.5l170 21z" />
    <glyph glyph-name="R" unicode="R" horiz-adv-x="648" 
d="M270 607h-49v-218h49q57 0 90.5 30t33.5 82q0 49 -33 77.5t-91 28.5zM434 0l-203 265h-10v-265h-156v746h201q56 0 107.5 -12.5t90 -41.5t61.5 -75.5t23 -113.5q0 -78 -44 -131t-107 -80l224 -292h-187z" />
    <glyph glyph-name="S" unicode="S" horiz-adv-x="527" 
d="M447 738l-2 -136q-27 13 -64 22.5t-72 9.5q-51 0 -74 -18t-23 -42q0 -31 28 -58.5t83 -75.5q91 -78 127.5 -133.5t36.5 -112.5q0 -48 -20 -86.5t-55 -65t-83 -40.5t-103 -14q-21 0 -46 2.5t-48.5 6.5t-45.5 9.5t-37 11.5l2 138q33 -16 81 -28.5t95 -12.5q49 0 76 23
t27 52q0 31 -28.5 63.5t-88.5 82.5q-44 38 -75.5 67.5t-50.5 56.5t-28 54t-9 59q0 36 15 70t45.5 60t78 42t112.5 16q35 0 74.5 -5.5t71.5 -17.5z" />
    <glyph glyph-name="T" unicode="T" horiz-adv-x="468" 
d="M156 0v607h-129v139h414v-139h-129v-607h-156z" />
    <glyph glyph-name="U" unicode="U" horiz-adv-x="730" 
d="M664 314q0 -160 -77 -249t-222 -89q-144 0 -222 89t-78 249v432h156v-464q0 -40 12 -71t32 -52t46 -31.5t54 -10.5t54.5 10.5t46 31.5t31.5 52t12 71v464h155v-432z" />
    <glyph glyph-name="V" unicode="V" horiz-adv-x="757" 
d="M461 0h-167l-281 746h167l202 -556l202 556h160z" />
    <glyph glyph-name="W" unicode="W" horiz-adv-x="1027" 
d="M652 0l-138 505l-141 -505h-148l-210 746h161l136 -519l135 519h139l135 -518l136 518h155l-212 -746h-148z" />
    <glyph glyph-name="X" unicode="X" horiz-adv-x="719" 
d="M525 0l-168 286l-161 -286h-172l230 389l-212 357h173l144 -247l146 247h167l-212 -355l235 -391h-170z" />
    <glyph glyph-name="Y" unicode="Y" horiz-adv-x="690" 
d="M422 0h-155v238l-257 508h169l167 -361l176 361h158l-258 -508v-238z" />
    <glyph glyph-name="Z" unicode="Z" horiz-adv-x="668" 
d="M587 0h-554l-2 19l350 593h-306l57 134h487l3 -20l-351 -592h371z" />
    <glyph glyph-name="bracketleft" unicode="[" horiz-adv-x="455" 
d="M127 -214v960h269v-90h-127v-780h135v-90h-277z" />
    <glyph glyph-name="backslash" unicode="\" horiz-adv-x="599" 
d="M30 780h145l483 -1000h-143z" />
    <glyph glyph-name="bracketright" unicode="]" horiz-adv-x="455" 
d="M329 -214h-278v90h135v780h-127v90h270v-960z" />
    <glyph glyph-name="asciicircum" unicode="^" horiz-adv-x="668" 
d="M481 369l-148 256l-148 -256h-133l224 377h113l227 -377h-135z" />
    <glyph glyph-name="underscore" unicode="_" horiz-adv-x="534" 
d="M517 -49v-113h-500v113h500z" />
    <glyph glyph-name="grave" unicode="`" horiz-adv-x="534" 
d="M118 790h171l81 -147h-118z" />
    <glyph glyph-name="a" unicode="a" horiz-adv-x="546" 
d="M265 65q37 0 61 23.5t24 57.5q0 32 -23.5 55t-61.5 23t-61 -23t-23 -55q0 -33 23 -57t61 -24zM359 0v49q-23 -28 -61 -47.5t-89 -19.5q-78 0 -125.5 46t-47.5 115q0 68 49 115t133 47q43 0 75.5 -11t55.5 -28v25q0 61 -30.5 84t-84.5 23q-23 0 -50.5 -3.5t-73.5 -12.5
l-2 115q46 10 79.5 13t75.5 3q113 0 170.5 -51t57.5 -136v-326h-132z" />
    <glyph glyph-name="b" unicode="b" horiz-adv-x="668" 
d="M385 -18q-63 0 -113 26t-82 70v-78h-134v780h142v-352q33 41 81.5 65.5t105.5 24.5q51 0 96 -21.5t77.5 -58t51.5 -85.5t19 -105t-19 -105t-51.5 -84.5t-77.5 -56t-96 -20.5zM195 250q0 -58 41.5 -101t102.5 -43q60 0 101 43t41 101q0 60 -41 102t-101 42
q-61 0 -102.5 -42.5t-41.5 -101.5z" />
    <glyph glyph-name="c" unicode="c" horiz-adv-x="500" 
d="M452 133v-125q-20 -13 -55.5 -18t-63.5 -5q-63 0 -117.5 20t-94 55t-62.5 84t-23 106t23 106t62.5 84t94 55t117.5 20q28 0 62.5 -5t56.5 -18v-126h-4q-23 16 -51.5 22.5t-57.5 6.5q-65 0 -109 -42t-44 -103q0 -62 44 -103.5t109 -41.5q29 0 57 6t52 22h4z" />
    <glyph glyph-name="d" unicode="d" horiz-adv-x="668" 
d="M473 250q0 59 -42 101.5t-102 42.5t-101 -42t-41 -102q0 -58 41 -101t101 -43t102 43t42 101zM479 0v79q-32 -45 -82.5 -71t-113.5 -26q-52 0 -97 20.5t-77.5 56t-51 84.5t-18.5 105t18.5 105t51 85.5t77.5 58t97 21.5q57 0 105.5 -24.5t81.5 -65.5v352h142v-780h-133z
" />
    <glyph glyph-name="e" unicode="e" horiz-adv-x="621" 
d="M314 408q-47 0 -78.5 -27t-43.5 -76h244q-12 48 -44 75.5t-78 27.5zM581 63q-40 -37 -100.5 -62t-140.5 -25q-71 0 -127.5 21t-95.5 57.5t-60 86.5t-21 109t20.5 109.5t57.5 87t88.5 57t113.5 20.5q57 0 106.5 -20.5t85.5 -57t57 -86.5t21 -109v-38h-398
q9 -60 49.5 -92.5t105.5 -32.5q51 0 90.5 17t70.5 44z" />
    <glyph glyph-name="f" unicode="f" horiz-adv-x="325" 
d="M291 381h-58v-381h-142v381h-59v119h59v98q0 60 19 98.5t49.5 60t69 29.5t76.5 8v-123q-29 0 -50.5 -15.5t-21.5 -65.5v-90h58v-119z" />
    <glyph glyph-name="g" unicode="g" horiz-adv-x="646" 
d="M320 135q53 0 91.5 38t38.5 92t-38.5 92.5t-91.5 38.5q-54 0 -93 -38.5t-39 -92.5t39 -92t93 -38zM303 -216q-40 0 -81 3.5t-86 12.5v125q49 -11 87.5 -15t75.5 -4q66 0 107.5 29.5t41.5 113.5v42q-33 -36 -76.5 -57t-90.5 -21t-91 18t-77.5 50.5t-54 79.5t-20.5 104
q0 58 20.5 105.5t54 80.5t77.5 51t91 18q49 0 94.5 -23.5t78.5 -61.5v65h136v-117.5t-0.5 -134.5t-0.5 -120v-74q0 -144 -71.5 -207t-214.5 -63z" />
    <glyph glyph-name="h" unicode="h" horiz-adv-x="588" 
d="M198 291v-291h-142v780h138v-344q22 28 63.5 52t98.5 24q76 0 127 -50t51 -135v-327h-142v283q0 56 -28 79.5t-67 23.5q-34 0 -66.5 -25t-32.5 -70z" />
    <glyph glyph-name="i" unicode="i" horiz-adv-x="257" 
d="M202 695v-121h-145v121h145zM200 500v-500h-142v500h142z" />
    <glyph glyph-name="j" unicode="j" horiz-adv-x="257" 
d="M202 695v-121h-145v121h145zM-32 -94h16q35 0 54.5 18t19.5 60v516h142v-518q0 -113 -52 -157t-166 -44h-14v125z" />
    <glyph glyph-name="k" unicode="k" horiz-adv-x="574" 
d="M382 0l-136 211l-48 -53v-158h-142v780h142v-450l165 170h177l-189 -197l202 -303h-171z" />
    <glyph glyph-name="l" unicode="l" horiz-adv-x="257" 
d="M200 780v-780h-142v780h142z" />
    <glyph glyph-name="m" unicode="m" horiz-adv-x="862" 
d="M198 292v-292h-142v500h137v-74q17 29 54 57.5t92 28.5q50 0 89 -25t58 -70q7 15 20.5 32t32.5 30.5t45 23t58 9.5q74 0 120.5 -49.5t46.5 -135.5v-327h-143v283q0 57 -21.5 80.5t-58.5 23.5q-31 0 -57 -24t-26 -76v-287h-142v283q0 57 -22.5 80.5t-57.5 23.5
q-34 0 -58.5 -25.5t-24.5 -69.5z" />
    <glyph glyph-name="n" unicode="n" horiz-adv-x="588" 
d="M198 292v-292h-142v500h135v-64q22 28 64.5 52t100.5 24q76 0 127 -49.5t51 -135.5v-327h-142v283q0 57 -28 80t-67 23q-34 0 -66.5 -25t-32.5 -69z" />
    <glyph glyph-name="o" unicode="o" horiz-adv-x="659" 
d="M329 524q63 0 117 -21.5t93 -58t61.5 -87t22.5 -107.5t-22.5 -107.5t-61.5 -87t-93 -58t-117 -21.5q-62 0 -116 21.5t-93 58t-61.5 87t-22.5 107.5t22.5 107.5t61.5 87t93 58t116 21.5zM329 401q-62 0 -103 -44.5t-41 -106.5q0 -63 41 -107t103 -44t103.5 44t41.5 107
q0 62 -41.5 106.5t-103.5 44.5z" />
    <glyph glyph-name="p" unicode="p" horiz-adv-x="668" 
d="M195 250q0 -59 41.5 -101.5t102.5 -42.5q60 0 101 42t41 102q0 58 -41 101t-101 43q-61 0 -102.5 -43t-41.5 -101zM385 -18q-57 0 -105.5 24.5t-81.5 65.5v-285h-142v713h134v-78q32 44 82 70t113 26q51 0 96 -20.5t77.5 -56t51.5 -84.5t19 -105t-19 -105t-51.5 -85.5
t-77.5 -58t-96 -21.5z" />
    <glyph glyph-name="q" unicode="q" horiz-adv-x="666" 
d="M610 -213h-141v285q-32 -41 -81 -65.5t-107 -24.5q-51 0 -95.5 21.5t-77 58t-51 85.5t-18.5 105t18.5 105t51 84.5t77 56t95.5 20.5q63 0 113 -26t83 -70v78h133v-713zM473 250q0 58 -42 101t-102 43t-101 -43t-41 -101q0 -60 41 -102t101 -42t102 42.5t42 101.5z" />
    <glyph glyph-name="r" unicode="r" horiz-adv-x="387" 
d="M198 255v-255h-142v500h136v-106q7 15 20 33.5t31 35.5t41.5 28.5t50.5 11.5h17v-158q-4 2 -12 3t-14 1q-29 0 -53 -9t-40.5 -23t-25.5 -30.5t-9 -31.5z" />
    <glyph glyph-name="s" unicode="s" horiz-adv-x="436" 
d="M231 516q34 0 63.5 -5t52.5 -14v-119q-30 13 -57 19.5t-45 6.5q-25 0 -39.5 -8.5t-14.5 -24.5q0 -13 16.5 -27t50.5 -36q83 -55 112 -93.5t29 -82.5q0 -63 -50.5 -105t-142.5 -43q-37 0 -78 9t-71 22v119q37 -18 71.5 -27t56.5 -9q32 -1 46.5 10.5t14.5 27.5
q0 12 -14.5 29t-67.5 51q-75 49 -98.5 84t-23.5 78q0 26 10.5 51t33.5 44.5t59 31t86 11.5z" />
    <glyph glyph-name="t" unicode="t" horiz-adv-x="325" 
d="M292 381h-59v-381h-141v381h-60v119h60v159l141 37v-196h59v-119z" />
    <glyph glyph-name="u" unicode="u" horiz-adv-x="588" 
d="M398 0v65q-22 -28 -64.5 -52.5t-99.5 -24.5q-77 0 -128.5 49.5t-51.5 135.5v327h142v-283q0 -57 28 -80t68 -23q34 0 66.5 25t32.5 69v292h141v-500h-134z" />
    <glyph glyph-name="v" unicode="v" horiz-adv-x="602" 
d="M387 0h-171l-203 500h158l132 -355l138 355h149z" />
    <glyph glyph-name="w" unicode="w" horiz-adv-x="830" 
d="M517 0l-100 303l-97 -303h-133l-172 500h147l93 -318l100 318h125l101 -319l92 319h142l-170 -500h-128z" />
    <glyph glyph-name="x" unicode="x" horiz-adv-x="593" 
d="M407 0l-116 171l-118 -171h-149l182 259l-166 241h158l106 -165l109 165h150l-175 -243l170 -257h-151z" />
    <glyph glyph-name="y" unicode="y" horiz-adv-x="598" 
d="M317 -213h-147l72 197l-228 516h160l139 -353l124 353h147z" />
    <glyph glyph-name="z" unicode="z" horiz-adv-x="544" 
d="M457 0h-422l-8 14l253 366h-210l48 120h378l8 -14l-249 -366h249z" />
    <glyph glyph-name="braceleft" unicode="{" horiz-adv-x="472" 
d="M391 -214h-91q-64 0 -102.5 28.5t-38.5 109.5v197q0 46 -15.5 68.5t-40.5 29.5q-1 1 -4 1.5t-4 1.5v86q1 1 4 1.5t4 1.5q25 7 40.5 29.5t15.5 67.5v200q0 81 38.5 109.5t102.5 28.5h91v-90h-33q-28 0 -42 -15.5t-14 -67.5v-162q0 -48 -20.5 -82.5t-64.5 -53.5v-20
q44 -19 64.5 -51.5t20.5 -80.5v-173q0 -52 14 -63t42 -11h33v-90z" />
    <glyph glyph-name="bar" unicode="|" horiz-adv-x="248" 
d="M77 746h93v-906h-93v906z" />
    <glyph glyph-name="braceright" unicode="}" horiz-adv-x="472" 
d="M172 -214h-91v82h33q28 0 42.5 11t14.5 64v180q0 48 20 80.5t64 51.5v20q-44 19 -64 53.5t-20 82.5v171q0 51 -14.5 66.5t-42.5 15.5h-33v82h91q64 0 102.5 -28.5t38.5 -109.5v-200q0 -45 15.5 -67.5t40.5 -29.5q1 -1 4.5 -1.5t4.5 -1.5v-86q-1 -1 -4.5 -1.5t-4.5 -1.5
q-25 -7 -40.5 -29.5t-15.5 -68.5v-197q0 -81 -38.5 -109.5t-102.5 -28.5z" />
    <glyph glyph-name="asciitilde" unicode="~" horiz-adv-x="699" 
d="M188 219l-123 9q0 107 43.5 154t112.5 47q29 0 61.5 -15.5t64.5 -33.5t62 -33.5t54 -15.5q20 0 34.5 14t14.5 64l122 -9q0 -93 -37 -145t-109 -52q-30 0 -64 15.5t-67.5 33.5t-65 33.5t-55.5 15.5q-18 0 -33 -15.5t-15 -66.5z" />
    <glyph glyph-name="exclamdown" unicode="&#xa1;" horiz-adv-x="355" 
d="M96 746h162v-141h-162v141zM239 537l27 -537h-178l27 537h124z" />
    <glyph glyph-name="cent" unicode="&#xa2;" horiz-adv-x="546" 
d="M507 0q-25 -10 -54 -15t-55 -6v-96h-93v101q-58 10 -107 36.5t-84 65.5t-55 90t-20 111t20 111t55 90t84 65.5t107 36.5v105h93v-100q26 -1 54.5 -6.5t54.5 -17.5v-132h-4q-27 19 -60 27t-61 8q-40 0 -75 -15t-61 -40t-41.5 -59.5t-15.5 -72.5q0 -39 15.5 -73t41.5 -59.5
t61 -40t75 -14.5q30 0 59.5 6.5t61.5 25.5h4v-132z" />
    <glyph glyph-name="sterling" unicode="&#xa3;" horiz-adv-x="639" 
d="M582 114v-114h-525v115h26q40 0 60 25.5t20 79.5v119h-81v90h81v130q0 48 21 85.5t56 63.5t81 39.5t96 13.5q32 0 65 -4t64 -17v-125q-26 14 -52.5 20t-54.5 6q-24 0 -47 -6.5t-41 -19t-29 -30.5t-11 -40v-116h175v-90h-175v-119q0 -36 -9 -62.5t-25 -42.5z" />
    <glyph glyph-name="currency" unicode="&#xa4;" horiz-adv-x="606" 
d="M488 143l-88 86q-21 -12 -45.5 -19t-51.5 -7t-52 7t-46 20l-88 -87l-72 76l87 86q-11 21 -17.5 44t-6.5 48q0 24 6 47.5t17 43.5l-86 87l72 76l88 -86q21 12 46 19t52 7t51.5 -7t46.5 -19l87 86l74 -75l-88 -87q11 -21 17 -44.5t6 -47.5t-6 -47t-17 -44l88 -87zM303 502
q-44 0 -73 -31.5t-29 -73.5t29 -73.5t73 -31.5t73 31.5t29 73.5t-29 73.5t-73 31.5z" />
    <glyph glyph-name="yen" unicode="&#xa5;" horiz-adv-x="711" 
d="M639 155h-207v-155h-155v155h-198v88h198v27l-25 49h-173v89h127l-174 338h168l157 -331l163 331h159l-175 -338h135v-89h-182l-25 -49v-27h207v-88z" />
    <glyph glyph-name="brokenbar" unicode="&#xa6;" horiz-adv-x="248" 
d="M77 746h93v-406h-93v406zM77 246h93v-406h-93v406z" />
    <glyph glyph-name="section" unicode="&#xa7;" horiz-adv-x="589" 
d="M305 192q20 -9 37.5 -18.5t32.5 -19.5q21 11 33.5 30.5t12.5 44.5q0 11 -4.5 25.5t-17.5 31t-38 35t-65 38.5q-13 6 -26 12.5t-24 12.5q-34 -4 -54 -23.5t-20 -47.5q0 -27 24.5 -55.5t108.5 -65.5zM252 -224q-42 0 -85.5 10.5t-76.5 29.5l2 131q40 -23 79.5 -37t80.5 -14
q45 0 74.5 19.5t29.5 52.5q0 13 -4.5 25.5t-18 26.5t-40.5 31t-72 39q-90 38 -131.5 83t-41.5 107q0 49 28.5 94.5t82.5 70.5q-30 29 -41.5 60t-11.5 65q0 35 14 71t41 64t67 46t91 18q33 0 65 -6.5t66 -25.5l-1 -121q-31 17 -62.5 25t-67.5 8q-33 0 -59.5 -18t-26.5 -46
t32 -50.5t93 -56.5q112 -56 150.5 -112.5t38.5 -115.5q0 -63 -27.5 -103.5t-68.5 -62.5q19 -26 27 -53.5t8 -55.5q0 -52 -20.5 -90t-53.5 -62t-75 -35.5t-85 -11.5z" />
    <glyph glyph-name="dieresis" unicode="&#xa8;" horiz-adv-x="534" 
d="M443 786v-111h-126v111h126zM218 786v-111h-127v111h127z" />
    <glyph glyph-name="copyright" unicode="&#xa9;" horiz-adv-x="902" 
d="M452 756q83 0 154.5 -30t123.5 -82t81.5 -122t29.5 -149t-29.5 -149t-81.5 -122t-123.5 -82t-154.5 -30t-155 30t-124 82t-81.5 122t-29.5 149t29.5 149t81.5 122t124 82t155 30zM452 711q-70 0 -132 -27t-107.5 -72.5t-72.5 -107.5t-27 -131q0 -70 27 -132t72.5 -107.5
t107.5 -72t132 -26.5q69 0 131 26.5t107.5 72t72 107.5t26.5 132q0 69 -26.5 131t-72 107.5t-107.5 72.5t-131 27zM621 555l-55 -85q-22 15 -45 23.5t-48 8.5q-55 0 -93 -37t-38 -89t38 -89.5t93 -37.5q25 0 48 8.5t45 23.5l55 -85q-34 -29 -74 -43.5t-81 -14.5
q-52 0 -97 19t-77.5 51t-51 75.5t-18.5 92.5t18.5 92.5t51 75.5t77.5 50.5t97 18.5q41 0 81 -14.5t74 -43.5z" />
    <glyph glyph-name="ordfeminine" unicode="&#xaa;" horiz-adv-x="425" 
d="M204 440q22 0 36.5 14.5t14.5 35.5q0 19 -14.5 33t-36.5 14q-24 0 -37.5 -14t-13.5 -33q0 -20 13.5 -35t37.5 -15zM264 384v36q-17 -20 -44.5 -34.5t-67.5 -14.5q-57 0 -91 33t-34 83q0 49 35.5 84t98.5 35q30 0 53 -7t39 -17v10q0 37 -20.5 51.5t-61.5 13.5
q-16 0 -37 -2.5t-54 -8.5v103q33 7 59.5 9t60.5 2q89 0 135 -38.5t46 -101.5v-236h-117z" />
    <glyph glyph-name="guillemotleft" unicode="&#xab;" horiz-adv-x="597" 
d="M337 0h-122l-161 248v3l161 249h123l-161 -250zM539 0h-122l-161 248v3l161 249h123l-161 -250z" />
    <glyph glyph-name="logicalnot" unicode="&#xac;" horiz-adv-x="688" 
d="M631 121h-146v196h-438v125h584v-321z" />
    <glyph glyph-name="registered" unicode="&#xae;" horiz-adv-x="561" 
d="M281 756q50 0 92.5 -18t73.5 -49t49 -73t18 -89q0 -48 -18 -90t-49 -73t-73.5 -49t-92.5 -18t-93 18t-74 49t-49 73t-18 90q0 47 18 89t49 73t74 49t93 18zM281 729q-42 0 -79 -16t-65 -43t-44 -64t-16 -79t16 -79t44 -64.5t65 -43.5t79 -16q41 0 78 16t64.5 43.5
t43.5 64.5t16 79t-16 79t-43.5 64t-64.5 43t-78 16zM281 598h-13v-65h14q16 0 24.5 8.5t8.5 23.5q0 17 -9.5 25t-24.5 8zM324 399l-51 81h-4v-81h-72v260h81q18 0 37 -4t34 -13.5t25 -27t10 -44.5q0 -26 -12.5 -44.5t-29.5 -28.5l61 -92l-4 -6h-75z" />
    <glyph glyph-name="macron" unicode="&#xaf;" horiz-adv-x="534" 
d="M418 772v-104h-302v104h302z" />
    <glyph glyph-name="degree" unicode="&#xb0;" horiz-adv-x="417" 
d="M208 765q36 0 67 -13t53 -35t35 -51.5t13 -61.5q0 -33 -13 -62.5t-35 -51.5t-53 -35t-67 -13q-35 0 -66 13t-53.5 35t-35.5 51.5t-13 62.5q0 32 13 61.5t35.5 51.5t53.5 35t66 13zM208 695q-38 0 -63.5 -27.5t-25.5 -64.5t25.5 -64t63.5 -27q39 0 64.5 27.5t25.5 63.5
q0 37 -25.5 64.5t-64.5 27.5z" />
    <glyph glyph-name="plusminus" unicode="&#xb1;" horiz-adv-x="648" 
d="M591 315h-200v-167h-132v167h-202v116h202v193h132v-193h200v-116zM593 111v-104h-538v104h538z" />
    <glyph glyph-name="two.sups" unicode="&#xb2;" horiz-adv-x="452" 
d="M368 279h-318l-8 16q12 15 37.5 47t53.5 66.5t53 65.5t35 44q19 25 28.5 42.5t9.5 39.5q0 25 -19.5 43.5t-54.5 19.5q-22 0 -47 -8.5t-52 -29.5v111q27 13 57 19t57 6q81 -1 129 -43.5t48 -105.5q-1 -49 -23 -79.5t-48 -63.5q-12 -16 -35 -43t-47 -53h182z" />
    <glyph glyph-name="three.sups" unicode="&#xb3;" horiz-adv-x="414" 
d="M175 264q-28 0 -65.5 5t-60.5 18v92q19 -13 47 -18t44 -5q51 -1 81 17t30 47q0 28 -28 45t-73 17h-30l4 89h26q34 0 56.5 15t22.5 38q0 21 -20.5 33t-53.5 12q-18 0 -40.5 -3.5t-41.5 -12.5l6 96q18 5 40.5 8.5t58.5 3.5q70 1 117 -34t47 -87q-1 -31 -17.5 -59t-44.5 -45
q37 -17 60.5 -49t23.5 -72q0 -65 -52.5 -108.5t-136.5 -42.5z" />
    <glyph glyph-name="acute" unicode="&#xb4;" horiz-adv-x="534" 
d="M420 790l-134 -147h-114l79 147h169z" />
    <glyph glyph-name="paragraph" unicode="&#xb6;" horiz-adv-x="667" 
d="M424 -207h-91v479h-22q-59 0 -107.5 18t-83 49.5t-53.5 74.5t-19 93q0 46 19.5 89.5t54.5 76.5t84.5 53t109.5 20h280v-953h-91v856h-81v-856z" />
    <glyph glyph-name="periodcentered" unicode="&#xb7;" horiz-adv-x="303" 
d="M69 421h165v-150h-165v150z" />
    <glyph glyph-name="cedilla" unicode="&#xb8;" horiz-adv-x="534" 
d="M239 -204q-16 0 -38 3t-42 10v61h1q19 -6 39 -9t30 -3q25 0 39.5 8.5t14.5 23.5q0 14 -19 23t-49 9h-18l-3 7l28 82h64l-16 -40q47 -6 73 -28.5t26 -57.5q0 -37 -36 -63t-94 -26z" />
    <glyph glyph-name="one.sups" unicode="&#xb9;" horiz-adv-x="331" 
d="M256 279h-113v306l-84 -81v145l109 97h88v-467z" />
    <glyph glyph-name="ordmasculine" unicode="&#xba;" horiz-adv-x="500" 
d="M250 765q47 0 87 -15.5t69.5 -42t46 -63t16.5 -78.5q0 -43 -16.5 -80t-46 -63.5t-69.5 -41.5t-87 -15t-87 15t-69.5 41.5t-46 63.5t-16.5 80q0 42 16.5 78.5t46 63t69.5 42t87 15.5zM250 657q-37 0 -62.5 -26.5t-25.5 -64.5q0 -40 25.5 -66t62.5 -26q38 0 63 26t25 66
q0 38 -25 64.5t-63 26.5z" />
    <glyph glyph-name="guillemotright" unicode="&#xbb;" horiz-adv-x="597" 
d="M181 0h-122l161 251l-160 249h121l161 -249v-3zM382 0h-122l161 251l-160 249h121l161 -249v-3z" />
    <glyph glyph-name="onequarter" unicode="&#xbc;" horiz-adv-x="958" 
d="M237 279h-113v306l-84 -81v145l109 97h88v-467zM626 746h128l-454 -746h-126zM764 170v142l-96 -142h96zM911 77h-33v-77h-114v77h-222l-10 22l247 368h99v-297h58z" />
    <glyph glyph-name="onehalf" unicode="&#xbd;" horiz-adv-x="1027" 
d="M237 279h-113v306l-84 -81v145l109 97h88v-467zM626 746h128l-454 -746h-126zM962 0h-318l-8 16q12 15 37.5 47t53.5 66.5t53 65.5t35 44q19 25 28.5 42.5t9.5 39.5q0 25 -19.5 43.5t-54.5 19.5q-22 0 -47 -8.5t-52 -29.5v111q27 13 57 19t57 6q81 -1 129 -43.5
t48 -105.5q-1 -49 -23 -79.5t-48 -63.5q-12 -16 -35 -43t-47 -53h182z" />
    <glyph glyph-name="threequarters" unicode="&#xbe;" horiz-adv-x="1029" 
d="M156 264q-28 0 -65.5 5t-60.5 18v92q19 -13 47 -18t44 -5q51 -1 81 17t30 47q0 28 -28 45t-73 17h-30l4 89h26q34 0 56.5 15t22.5 38q0 21 -20.5 33t-53.5 12q-18 0 -40.5 -3.5t-41.5 -12.5l6 96q18 5 40.5 8.5t58.5 3.5q70 1 117 -34t47 -87q-1 -31 -17.5 -59t-44.5 -45
q37 -17 60.5 -49t23.5 -72q0 -65 -52.5 -108.5t-136.5 -42.5zM698 746h128l-454 -746h-126zM835 170v142l-96 -142h96zM982 77h-33v-77h-114v77h-222l-10 22l247 368h99v-297h58z" />
    <glyph glyph-name="questiondown" unicode="&#xbf;" horiz-adv-x="601" 
d="M403 746v-128h-139v128h139zM331 -15q-116 0 -186 61.5t-70 162.5q0 52 15.5 91.5t41.5 67t61 43t75 21.5v120h132v-189h-32q-60 0 -105.5 -34t-45.5 -98q0 -52 38 -88.5t109 -36.5q39 0 78 12t79 43l4 -124q-45 -25 -95 -38.5t-99 -13.5z" />
    <glyph glyph-name="Agrave" unicode="&#xc0;" horiz-adv-x="767" 
d="M495 246l-113 308l-114 -308h227zM586 0l-45 123h-319l-46 -123h-161l292 746h154l292 -746h-167zM192 954h171l81 -147h-118z" />
    <glyph glyph-name="Aacute" unicode="&#xc1;" horiz-adv-x="767" 
d="M495 246l-113 308l-114 -308h227zM586 0l-45 123h-319l-46 -123h-161l292 746h154l292 -746h-167zM577 954l-134 -147h-114l79 147h169z" />
    <glyph glyph-name="Acircumflex" unicode="&#xc2;" horiz-adv-x="767" 
d="M495 246l-113 308l-114 -308h227zM586 0l-45 123h-319l-46 -123h-161l292 746h154l292 -746h-167zM452 807l-66 81l-66 -81h-126l119 147h146l120 -147h-127z" />
    <glyph glyph-name="Atilde" unicode="&#xc3;" horiz-adv-x="767" 
d="M495 246l-113 308l-114 -308h227zM586 0l-45 123h-319l-46 -123h-161l292 746h154l292 -746h-167zM272 807l-109 3q-6 90 31.5 125.5t91.5 35.5q24 0 48.5 -8.5t47.5 -18.5t43 -18.5t34 -8.5q16 0 28.5 10t11.5 41l108 -3q5 -77 -27.5 -116t-92.5 -39q-25 0 -50 8t-48 18
t-43 18t-34 8q-16 0 -29 -10.5t-11 -44.5z" />
    <glyph glyph-name="Adieresis" unicode="&#xc4;" horiz-adv-x="767" 
d="M495 246l-113 308l-114 -308h227zM586 0l-45 123h-319l-46 -123h-161l292 746h154l292 -746h-167zM562 918v-111h-126v111h126zM337 918v-111h-127v111h127z" />
    <glyph glyph-name="Aring" unicode="&#xc5;" horiz-adv-x="767" 
d="M495 246l-113 308l-114 -308h227zM586 0l-45 123h-319l-46 -123h-161l292 746h154l292 -746h-167zM386 933q54 0 92.5 -37.5t38.5 -87.5t-38.5 -88t-92.5 -38t-92 38.5t-38 87.5t38 87t92 38zM386 869q-25 0 -43 -18t-18 -43t18 -43t43 -18t43 18t18 43t-18 43t-43 18z
" />
    <glyph glyph-name="AE" unicode="&#xc6;" horiz-adv-x="978" 
d="M484 246l-112 334l-113 -334h225zM566 0l-41 123h-307l-42 -123h-161l282 746h474v-137h-269l61 -162h285v-126h-239l69 -184h285v-137h-397z" />
    <glyph glyph-name="Ccedilla" unicode="&#xc7;" horiz-adv-x="664" 
d="M612 733v-150q-33 21 -72.5 31.5t-82.5 10.5q-54 0 -102 -20t-83 -54t-55.5 -80t-20.5 -96q0 -51 20.5 -97.5t55.5 -81t83 -55t102 -20.5q43 0 82.5 10.5t72.5 31.5v-151q-37 -17 -78 -26t-86 -9q-88 0 -163 31.5t-129 85t-85 126t-31 154.5q0 81 31 153.5t85 126
t129 84.5t163 31q45 0 86 -9.5t78 -26.5zM392 -227q-16 0 -38 3t-42 10v61h1q19 -6 39 -9t30 -3q25 0 39.5 8.5t14.5 23.5q0 14 -19 23t-49 9h-18l-3 7l28 82h64l-16 -40q47 -6 73 -28.5t26 -57.5q0 -37 -36 -63t-94 -26z" />
    <glyph glyph-name="Egrave" unicode="&#xc8;" horiz-adv-x="547" 
d="M65 0v746h417v-137h-261v-162h236v-126h-236v-184h269v-137h-425zM87 954h171l81 -147h-118z" />
    <glyph glyph-name="Eacute" unicode="&#xc9;" horiz-adv-x="547" 
d="M65 0v746h417v-137h-261v-162h236v-126h-236v-184h269v-137h-425zM472 954l-134 -147h-114l79 147h169z" />
    <glyph glyph-name="Ecircumflex" unicode="&#xca;" horiz-adv-x="547" 
d="M65 0v746h417v-137h-261v-162h236v-126h-236v-184h269v-137h-425zM348 807l-66 81l-66 -81h-126l119 147h146l120 -147h-127z" />
    <glyph glyph-name="Edieresis" unicode="&#xcb;" horiz-adv-x="547" 
d="M65 0v746h417v-137h-261v-162h236v-126h-236v-184h269v-137h-425zM458 918v-111h-126v111h126zM233 918v-111h-127v111h127z" />
    <glyph glyph-name="Igrave" unicode="&#xcc;" horiz-adv-x="287" 
d="M66 0v746h155v-746h-155zM-51 954h171l81 -147h-118z" />
    <glyph glyph-name="Iacute" unicode="&#xcd;" horiz-adv-x="287" 
d="M66 0v746h155v-746h-155zM334 954l-134 -147h-114l79 147h169z" />
    <glyph glyph-name="Icircumflex" unicode="&#xce;" horiz-adv-x="287" 
d="M66 0v746h155v-746h-155zM210 807l-66 81l-66 -81h-126l119 147h146l120 -147h-127z" />
    <glyph glyph-name="Idieresis" unicode="&#xcf;" horiz-adv-x="287" 
d="M66 0v746h155v-746h-155zM320 918v-111h-126v111h126zM95 918v-111h-127v111h127z" />
    <glyph glyph-name="Eth" unicode="&#xd0;" horiz-adv-x="721" 
d="M287 0h-215v320h-48v118h48v308h213q76 0 147 -22.5t125 -68t86.5 -116t32.5 -165.5q0 -96 -32 -167t-85.5 -116.5t-124.5 -68t-147 -22.5zM227 140h64q45 0 86.5 15t73 44t50 73t18.5 102q0 57 -18.5 100.5t-50 72.5t-73 44t-86.5 15h-64v-168h116v-118h-116v-180z" />
    <glyph glyph-name="Ntilde" unicode="&#xd1;" horiz-adv-x="786" 
d="M572 0l-351 485v-485h-156v746h152l349 -483v483h155v-746h-149zM266 807l-109 3q-6 90 31.5 125.5t91.5 35.5q24 0 48.5 -8.5t47.5 -18.5t43 -18.5t34 -8.5q16 0 28.5 10t11.5 41l108 -3q5 -77 -27.5 -116t-92.5 -39q-25 0 -50 8t-48 18t-43 18t-34 8q-16 0 -29 -10.5
t-11 -44.5z" />
    <glyph glyph-name="Ograve" unicode="&#xd2;" horiz-adv-x="904" 
d="M453 770q85 0 160.5 -31t131 -84.5t87.5 -126t32 -154.5t-32 -155t-87.5 -126.5t-131 -85t-160.5 -31.5q-87 0 -162.5 31.5t-131 85t-87.5 126.5t-32 155t32 154.5t87.5 126t131 84.5t162.5 31zM453 628q-54 0 -101 -20t-81.5 -54.5t-54.5 -81t-20 -98.5t20 -99
t54.5 -81.5t81.5 -55t101 -20.5q53 0 99.5 20.5t81 55t54.5 81.5t20 99t-20 98.5t-54.5 81t-81 54.5t-99.5 20zM257 954h171l81 -147h-118z" />
    <glyph glyph-name="Oacute" unicode="&#xd3;" horiz-adv-x="904" 
d="M453 770q85 0 160.5 -31t131 -84.5t87.5 -126t32 -154.5t-32 -155t-87.5 -126.5t-131 -85t-160.5 -31.5q-87 0 -162.5 31.5t-131 85t-87.5 126.5t-32 155t32 154.5t87.5 126t131 84.5t162.5 31zM453 628q-54 0 -101 -20t-81.5 -54.5t-54.5 -81t-20 -98.5t20 -99
t54.5 -81.5t81.5 -55t101 -20.5q53 0 99.5 20.5t81 55t54.5 81.5t20 99t-20 98.5t-54.5 81t-81 54.5t-99.5 20zM642 954l-134 -147h-114l79 147h169z" />
    <glyph glyph-name="Ocircumflex" unicode="&#xd4;" horiz-adv-x="904" 
d="M453 770q85 0 160.5 -31t131 -84.5t87.5 -126t32 -154.5t-32 -155t-87.5 -126.5t-131 -85t-160.5 -31.5q-87 0 -162.5 31.5t-131 85t-87.5 126.5t-32 155t32 154.5t87.5 126t131 84.5t162.5 31zM453 628q-54 0 -101 -20t-81.5 -54.5t-54.5 -81t-20 -98.5t20 -99
t54.5 -81.5t81.5 -55t101 -20.5q53 0 99.5 20.5t81 55t54.5 81.5t20 99t-20 98.5t-54.5 81t-81 54.5t-99.5 20zM518 807l-66 81l-66 -81h-126l119 147h146l120 -147h-127z" />
    <glyph glyph-name="Otilde" unicode="&#xd5;" horiz-adv-x="904" 
d="M453 770q85 0 160.5 -31t131 -84.5t87.5 -126t32 -154.5t-32 -155t-87.5 -126.5t-131 -85t-160.5 -31.5q-87 0 -162.5 31.5t-131 85t-87.5 126.5t-32 155t32 154.5t87.5 126t131 84.5t162.5 31zM453 628q-54 0 -101 -20t-81.5 -54.5t-54.5 -81t-20 -98.5t20 -99
t54.5 -81.5t81.5 -55t101 -20.5q53 0 99.5 20.5t81 55t54.5 81.5t20 99t-20 98.5t-54.5 81t-81 54.5t-99.5 20zM338 807l-109 3q-6 90 31.5 125.5t91.5 35.5q24 0 48.5 -8.5t47.5 -18.5t43 -18.5t34 -8.5q16 0 28.5 10t11.5 41l108 -3q5 -77 -27.5 -116t-92.5 -39
q-25 0 -50 8t-48 18t-43 18t-34 8q-16 0 -29 -10.5t-11 -44.5z" />
    <glyph glyph-name="Odieresis" unicode="&#xd6;" horiz-adv-x="904" 
d="M453 770q85 0 160.5 -31t131 -84.5t87.5 -126t32 -154.5t-32 -155t-87.5 -126.5t-131 -85t-160.5 -31.5q-87 0 -162.5 31.5t-131 85t-87.5 126.5t-32 155t32 154.5t87.5 126t131 84.5t162.5 31zM453 628q-54 0 -101 -20t-81.5 -54.5t-54.5 -81t-20 -98.5t20 -99
t54.5 -81.5t81.5 -55t101 -20.5q53 0 99.5 20.5t81 55t54.5 81.5t20 99t-20 98.5t-54.5 81t-81 54.5t-99.5 20zM628 918v-111h-126v111h126zM403 918v-111h-127v111h127z" />
    <glyph glyph-name="multiply" unicode="&#xd7;" horiz-adv-x="591" 
d="M463 91l-172 173l-166 -166l-78 79l165 166l-163 163l82 81l163 -163l154 155l80 -79l-155 -155l172 -172z" />
    <glyph glyph-name="Oslash" unicode="&#xd8;" horiz-adv-x="917" 
d="M196 374q0 -47 16 -89.5t44 -75.5l281 405q-20 7 -41 10.5t-43 3.5q-54 0 -101 -20t-81.5 -54.5t-54.5 -81t-20 -98.5zM453 118q53 0 99.5 20.5t81 55t54.5 81.5t20 99q0 54 -21.5 102.5t-58.5 82.5l-288 -416q25 -12 53.5 -18.5t59.5 -6.5zM453 -24q-53 0 -103 12.5
t-93 34.5l-49 -71h-129l91 131q-60 54 -95 129.5t-35 161.5q0 82 32 154.5t87.5 126t131 84.5t162.5 31q45 0 87.5 -9t80.5 -25l40 58h129l-78 -112q69 -54 110.5 -134.5t41.5 -173.5q0 -82 -32 -155t-87.5 -126.5t-131 -85t-160.5 -31.5z" />
    <glyph glyph-name="Ugrave" unicode="&#xd9;" horiz-adv-x="730" 
d="M664 314q0 -160 -77 -249t-222 -89q-144 0 -222 89t-78 249v432h156v-464q0 -40 12 -71t32 -52t46 -31.5t54 -10.5t54.5 10.5t46 31.5t31.5 52t12 71v464h155v-432zM169 954h171l81 -147h-118z" />
    <glyph glyph-name="Uacute" unicode="&#xda;" horiz-adv-x="730" 
d="M664 314q0 -160 -77 -249t-222 -89q-144 0 -222 89t-78 249v432h156v-464q0 -40 12 -71t32 -52t46 -31.5t54 -10.5t54.5 10.5t46 31.5t31.5 52t12 71v464h155v-432zM554 954l-134 -147h-114l79 147h169z" />
    <glyph glyph-name="Ucircumflex" unicode="&#xdb;" horiz-adv-x="730" 
d="M664 314q0 -160 -77 -249t-222 -89q-144 0 -222 89t-78 249v432h156v-464q0 -40 12 -71t32 -52t46 -31.5t54 -10.5t54.5 10.5t46 31.5t31.5 52t12 71v464h155v-432zM431 807l-66 81l-66 -81h-126l119 147h146l120 -147h-127z" />
    <glyph glyph-name="Udieresis" unicode="&#xdc;" horiz-adv-x="730" 
d="M664 314q0 -160 -77 -249t-222 -89q-144 0 -222 89t-78 249v432h156v-464q0 -40 12 -71t32 -52t46 -31.5t54 -10.5t54.5 10.5t46 31.5t31.5 52t12 71v464h155v-432zM541 918v-111h-126v111h126zM316 918v-111h-127v111h127z" />
    <glyph glyph-name="Yacute" unicode="&#xdd;" horiz-adv-x="690" 
d="M422 0h-155v238l-257 508h169l167 -361l176 361h158l-258 -508v-238zM545 954l-134 -147h-114l79 147h169z" />
    <glyph glyph-name="Thorn" unicode="&#xde;" horiz-adv-x="597" 
d="M289 506h-68v-215h68q54 0 89 29t35 78q0 50 -30 79t-94 29zM273 155h-52v-155h-156v746h156v-101h56q59 0 111.5 -11t92 -38.5t63 -75.5t23.5 -122q0 -65 -26 -111.5t-67.5 -75.5t-94.5 -42.5t-106 -13.5z" />
    <glyph glyph-name="germandbls" unicode="&#xdf;" horiz-adv-x="611" 
d="M295 -165v143q67 37 95 78.5t28 81.5q0 46 -32.5 74.5t-83.5 39.5l68 129h-170v-381h-143v604q0 64 19.5 103t51 59.5t71 27t79.5 6.5v-124q-32 0 -55 -15t-23 -67v-163l43 69h318l3 -6l-99 -192q49 -28 74 -70.5t25 -93.5q0 -52 -20 -96.5t-55.5 -81.5t-85 -68
t-108.5 -57z" />
    <glyph glyph-name="agrave" unicode="&#xe0;" horiz-adv-x="546" 
d="M265 65q37 0 61 23.5t24 57.5q0 32 -23.5 55t-61.5 23t-61 -23t-23 -55q0 -33 23 -57t61 -24zM359 0v49q-23 -28 -61 -47.5t-89 -19.5q-78 0 -125.5 46t-47.5 115q0 68 49 115t133 47q43 0 75.5 -11t55.5 -28v25q0 61 -30.5 84t-84.5 23q-23 0 -50.5 -3.5t-73.5 -12.5
l-2 115q46 10 79.5 13t75.5 3q113 0 170.5 -51t57.5 -136v-326h-132zM77 719h171l81 -147h-118z" />
    <glyph glyph-name="aacute" unicode="&#xe1;" horiz-adv-x="546" 
d="M265 65q37 0 61 23.5t24 57.5q0 32 -23.5 55t-61.5 23t-61 -23t-23 -55q0 -33 23 -57t61 -24zM359 0v49q-23 -28 -61 -47.5t-89 -19.5q-78 0 -125.5 46t-47.5 115q0 68 49 115t133 47q43 0 75.5 -11t55.5 -28v25q0 61 -30.5 84t-84.5 23q-23 0 -50.5 -3.5t-73.5 -12.5
l-2 115q46 10 79.5 13t75.5 3q113 0 170.5 -51t57.5 -136v-326h-132zM462 719l-134 -147h-114l79 147h169z" />
    <glyph glyph-name="acircumflex" unicode="&#xe2;" horiz-adv-x="546" 
d="M265 65q37 0 61 23.5t24 57.5q0 32 -23.5 55t-61.5 23t-61 -23t-23 -55q0 -33 23 -57t61 -24zM359 0v49q-23 -28 -61 -47.5t-89 -19.5q-78 0 -125.5 46t-47.5 115q0 68 49 115t133 47q43 0 75.5 -11t55.5 -28v25q0 61 -30.5 84t-84.5 23q-23 0 -50.5 -3.5t-73.5 -12.5
l-2 115q46 10 79.5 13t75.5 3q113 0 170.5 -51t57.5 -136v-326h-132zM338 572l-66 81l-66 -81h-126l119 147h146l120 -147h-127z" />
    <glyph glyph-name="atilde" unicode="&#xe3;" horiz-adv-x="546" 
d="M265 65q37 0 61 23.5t24 57.5q0 32 -23.5 55t-61.5 23t-61 -23t-23 -55q0 -33 23 -57t61 -24zM359 0v49q-23 -28 -61 -47.5t-89 -19.5q-78 0 -125.5 46t-47.5 115q0 68 49 115t133 47q43 0 75.5 -11t55.5 -28v25q0 61 -30.5 84t-84.5 23q-23 0 -50.5 -3.5t-73.5 -12.5
l-2 115q46 10 79.5 13t75.5 3q113 0 170.5 -51t57.5 -136v-326h-132zM170 571l-106 4q-5 87 29.5 121.5t85.5 34.5q22 0 45 -8t43.5 -17.5t38 -17.5t30.5 -8q16 0 26.5 9t10.5 38l106 -3q4 -74 -26 -112t-87 -38q-23 0 -46 7.5t-44 16.5t-39 16.5t-31 7.5q-14 0 -25.5 -10
t-10.5 -41z" />
    <glyph glyph-name="adieresis" unicode="&#xe4;" horiz-adv-x="546" 
d="M265 65q37 0 61 23.5t24 57.5q0 32 -23.5 55t-61.5 23t-61 -23t-23 -55q0 -33 23 -57t61 -24zM359 0v49q-23 -28 -61 -47.5t-89 -19.5q-78 0 -125.5 46t-47.5 115q0 68 49 115t133 47q43 0 75.5 -11t55.5 -28v25q0 61 -30.5 84t-84.5 23q-23 0 -50.5 -3.5t-73.5 -12.5
l-2 115q46 10 79.5 13t75.5 3q113 0 170.5 -51t57.5 -136v-326h-132zM444 683v-111h-126v111h126zM236 683v-111h-126v111h126z" />
    <glyph glyph-name="aring" unicode="&#xe5;" horiz-adv-x="546" 
d="M265 65q37 0 61 23.5t24 57.5q0 32 -23.5 55t-61.5 23t-61 -23t-23 -55q0 -33 23 -57t61 -24zM359 0v49q-23 -28 -61 -47.5t-89 -19.5q-78 0 -125.5 46t-47.5 115q0 68 49 115t133 47q43 0 75.5 -11t55.5 -28v25q0 61 -30.5 84t-84.5 23q-23 0 -50.5 -3.5t-73.5 -12.5
l-2 115q46 10 79.5 13t75.5 3q113 0 170.5 -51t57.5 -136v-326h-132zM272 817q54 0 92.5 -37.5t38.5 -87.5t-38.5 -88t-92.5 -38t-92 38.5t-38 87.5t38 87t92 38zM272 753q-25 0 -43 -18t-18 -43t18 -43t43 -18t43 18t18 43t-18 43t-43 18z" />
    <glyph glyph-name="ae" unicode="&#xe6;" horiz-adv-x="919" 
d="M613 408q-48 0 -79 -27t-43 -76h243q-12 48 -43.5 75.5t-77.5 27.5zM265 59q37 0 62 24t25 61q0 32 -24 56t-63 24q-38 0 -61 -24t-23 -56q0 -36 23 -60.5t61 -24.5zM879 63q-40 -36 -100 -61.5t-141 -25.5q-72 0 -129 24.5t-94 66.5q-19 -34 -65 -62.5t-118 -28.5
q-90 0 -143 47.5t-53 117.5q0 68 49 116t133 48q40 0 72 -10t54 -26v22q0 61 -29 84t-83 23q-24 0 -50 -3t-72 -13l-2 115q46 10 78 13t75 3q59 0 101.5 -16t68.5 -44q34 34 81 52.5t102 18.5q57 0 107 -20.5t86 -57t57 -86.5t21 -109v-38h-398q9 -60 49 -92.5t105 -32.5
q51 0 90.5 17t70.5 44z" />
    <glyph glyph-name="ccedilla" unicode="&#xe7;" horiz-adv-x="500" 
d="M452 133v-125q-20 -13 -55.5 -18t-63.5 -5q-63 0 -117.5 20t-94 55t-62.5 84t-23 106t23 106t62.5 84t94 55t117.5 20q28 0 62.5 -5t56.5 -18v-126h-4q-23 16 -51.5 22.5t-57.5 6.5q-65 0 -109 -42t-44 -103q0 -62 44 -103.5t109 -41.5q29 0 57 6t52 22h4zM283 -210
q-15 0 -37 3.5t-41 10.5v59h1q19 -5 38 -8t29 -3q22 0 35.5 8t13.5 22q0 13 -17.5 21.5t-45.5 8.5h-18l-2 7l28 80l61 -3l-15 -35q45 -6 70.5 -28t25.5 -55q0 -38 -34.5 -63t-91.5 -25z" />
    <glyph glyph-name="egrave" unicode="&#xe8;" horiz-adv-x="621" 
d="M314 408q-47 0 -78.5 -27t-43.5 -76h244q-12 48 -44 75.5t-78 27.5zM581 63q-40 -37 -100.5 -62t-140.5 -25q-71 0 -127.5 21t-95.5 57.5t-60 86.5t-21 109t20.5 109.5t57.5 87t88.5 57t113.5 20.5q57 0 106.5 -20.5t85.5 -57t57 -86.5t21 -109v-38h-398
q9 -60 49.5 -92.5t105.5 -32.5q51 0 90.5 17t70.5 44zM121 719h171l81 -147h-118z" />
    <glyph glyph-name="eacute" unicode="&#xe9;" horiz-adv-x="621" 
d="M314 408q-47 0 -78.5 -27t-43.5 -76h244q-12 48 -44 75.5t-78 27.5zM581 63q-40 -37 -100.5 -62t-140.5 -25q-71 0 -127.5 21t-95.5 57.5t-60 86.5t-21 109t20.5 109.5t57.5 87t88.5 57t113.5 20.5q57 0 106.5 -20.5t85.5 -57t57 -86.5t21 -109v-38h-398
q9 -60 49.5 -92.5t105.5 -32.5q51 0 90.5 17t70.5 44zM505 719l-134 -147h-114l79 147h169z" />
    <glyph glyph-name="ecircumflex" unicode="&#xea;" horiz-adv-x="621" 
d="M314 408q-47 0 -78.5 -27t-43.5 -76h244q-12 48 -44 75.5t-78 27.5zM581 63q-40 -37 -100.5 -62t-140.5 -25q-71 0 -127.5 21t-95.5 57.5t-60 86.5t-21 109t20.5 109.5t57.5 87t88.5 57t113.5 20.5q57 0 106.5 -20.5t85.5 -57t57 -86.5t21 -109v-38h-398
q9 -60 49.5 -92.5t105.5 -32.5q51 0 90.5 17t70.5 44zM382 572l-66 81l-66 -81h-126l119 147h146l120 -147h-127z" />
    <glyph glyph-name="edieresis" unicode="&#xeb;" horiz-adv-x="621" 
d="M314 408q-47 0 -78.5 -27t-43.5 -76h244q-12 48 -44 75.5t-78 27.5zM581 63q-40 -37 -100.5 -62t-140.5 -25q-71 0 -127.5 21t-95.5 57.5t-60 86.5t-21 109t20.5 109.5t57.5 87t88.5 57t113.5 20.5q57 0 106.5 -20.5t85.5 -57t57 -86.5t21 -109v-38h-398
q9 -60 49.5 -92.5t105.5 -32.5q51 0 90.5 17t70.5 44zM483 683v-111h-126v111h126zM275 683v-111h-126v111h126z" />
    <glyph glyph-name="igrave" unicode="&#xec;" horiz-adv-x="257" 
d="M199 500v-500h-141v500h141zM-66 719h171l81 -147h-118z" />
    <glyph glyph-name="iacute" unicode="&#xed;" horiz-adv-x="257" 
d="M199 500v-500h-141v500h141zM319 719l-134 -147h-114l79 147h169z" />
    <glyph glyph-name="icircumflex" unicode="&#xee;" horiz-adv-x="257" 
d="M199 500v-500h-141v500h141zM194 572l-66 81l-66 -81h-126l119 147h146l120 -147h-127z" />
    <glyph glyph-name="idieresis" unicode="&#xef;" horiz-adv-x="257" 
d="M199 500v-500h-141v500h141zM296 683v-111h-126v111h126zM88 683v-111h-126v111h126z" />
    <glyph glyph-name="eth" unicode="&#xf0;" horiz-adv-x="655" 
d="M323 -23q-61 0 -113.5 21.5t-91 58t-60.5 86.5t-22 107q0 54 22 101.5t60 82t90 55t112 20.5q28 0 55 -5t51 -15q-18 30 -40 59.5t-47 57.5l-167 -50l-41 68l146 44q-32 30 -67.5 58.5t-72.5 53.5h182q23 -16 45.5 -35t42.5 -38l140 42l38 -69l-118 -36
q69 -81 110 -175.5t41 -189.5q0 -4 -0.5 -7.5t-0.5 -6.5h1q0 -60 -22.5 -113t-62 -91.5t-93.5 -61t-117 -22.5zM328 398q-62 0 -103.5 -44t-41.5 -104q0 -61 41.5 -104.5t103.5 -43.5q61 0 102 43.5t41 104.5q0 60 -41 104t-102 44z" />
    <glyph glyph-name="ntilde" unicode="&#xf1;" horiz-adv-x="588" 
d="M198 292v-292h-142v500h135v-64q22 28 64.5 52t100.5 24q76 0 127 -49.5t51 -135.5v-327h-142v283q0 57 -28 80t-67 23q-34 0 -66.5 -25t-32.5 -69zM188 571l-106 4q-5 87 29.5 121.5t85.5 34.5q22 0 45 -8t43.5 -17.5t38 -17.5t30.5 -8q16 0 26.5 9t10.5 38l106 -3
q4 -74 -26 -112t-87 -38q-23 0 -46 7.5t-44 16.5t-39 16.5t-31 7.5q-14 0 -25.5 -10t-10.5 -41z" />
    <glyph glyph-name="ograve" unicode="&#xf2;" horiz-adv-x="659" 
d="M329 524q63 0 117 -21.5t93 -58t61.5 -87t22.5 -107.5t-22.5 -107.5t-61.5 -87t-93 -58t-117 -21.5q-62 0 -116 21.5t-93 58t-61.5 87t-22.5 107.5t22.5 107.5t61.5 87t93 58t116 21.5zM329 401q-62 0 -103 -44.5t-41 -106.5q0 -63 41 -107t103 -44t103.5 44t41.5 107
q0 62 -41.5 106.5t-103.5 44.5zM134 719h171l81 -147h-118z" />
    <glyph glyph-name="oacute" unicode="&#xf3;" horiz-adv-x="659" 
d="M329 524q63 0 117 -21.5t93 -58t61.5 -87t22.5 -107.5t-22.5 -107.5t-61.5 -87t-93 -58t-117 -21.5q-62 0 -116 21.5t-93 58t-61.5 87t-22.5 107.5t22.5 107.5t61.5 87t93 58t116 21.5zM329 401q-62 0 -103 -44.5t-41 -106.5q0 -63 41 -107t103 -44t103.5 44t41.5 107
q0 62 -41.5 106.5t-103.5 44.5zM519 719l-134 -147h-114l79 147h169z" />
    <glyph glyph-name="ocircumflex" unicode="&#xf4;" horiz-adv-x="659" 
d="M329 524q63 0 117 -21.5t93 -58t61.5 -87t22.5 -107.5t-22.5 -107.5t-61.5 -87t-93 -58t-117 -21.5q-62 0 -116 21.5t-93 58t-61.5 87t-22.5 107.5t22.5 107.5t61.5 87t93 58t116 21.5zM329 401q-62 0 -103 -44.5t-41 -106.5q0 -63 41 -107t103 -44t103.5 44t41.5 107
q0 62 -41.5 106.5t-103.5 44.5zM395 572l-66 81l-66 -81h-126l119 147h146l120 -147h-127z" />
    <glyph glyph-name="otilde" unicode="&#xf5;" horiz-adv-x="659" 
d="M329 524q63 0 117 -21.5t93 -58t61.5 -87t22.5 -107.5t-22.5 -107.5t-61.5 -87t-93 -58t-117 -21.5q-62 0 -116 21.5t-93 58t-61.5 87t-22.5 107.5t22.5 107.5t61.5 87t93 58t116 21.5zM329 401q-62 0 -103 -44.5t-41 -106.5q0 -63 41 -107t103 -44t103.5 44t41.5 107
q0 62 -41.5 106.5t-103.5 44.5zM227 571l-106 4q-5 87 29.5 121.5t85.5 34.5q22 0 45 -8t43.5 -17.5t38 -17.5t30.5 -8q16 0 26.5 9t10.5 38l106 -3q4 -74 -26 -112t-87 -38q-23 0 -46 7.5t-44 16.5t-39 16.5t-31 7.5q-14 0 -25.5 -10t-10.5 -41z" />
    <glyph glyph-name="odieresis" unicode="&#xf6;" horiz-adv-x="659" 
d="M329 524q63 0 117 -21.5t93 -58t61.5 -87t22.5 -107.5t-22.5 -107.5t-61.5 -87t-93 -58t-117 -21.5q-62 0 -116 21.5t-93 58t-61.5 87t-22.5 107.5t22.5 107.5t61.5 87t93 58t116 21.5zM329 401q-62 0 -103 -44.5t-41 -106.5q0 -63 41 -107t103 -44t103.5 44t41.5 107
q0 62 -41.5 106.5t-103.5 44.5zM496 683v-111h-126v111h126zM288 683v-111h-126v111h126z" />
    <glyph glyph-name="divide" unicode="&#xf7;" horiz-adv-x="633" 
d="M250 491v137h134v-137h-134zM581 407v-115h-529v115h529zM250 71v137h134v-137h-134z" />
    <glyph glyph-name="oslash" unicode="&#xf8;" horiz-adv-x="654" 
d="M194 250q0 -20 5 -38t14 -34l127 210q-3 1 -6 1h-6q-57 0 -95.5 -41t-38.5 -98zM328 111q57 0 95.5 40.5t38.5 98.5q0 20 -5 39t-15 35l-128 -212q3 -1 6.5 -1h7.5zM328 -23q-23 0 -45.5 3t-43.5 9l-22 -37h-141l55 91q-46 37 -72 90.5t-26 116.5q0 57 22.5 107.5
t61.5 87t93.5 57.5t117.5 21q22 0 44 -3t42 -8l22 36h142l-55 -90q46 -37 73 -91t27 -117q0 -57 -22.5 -107.5t-61.5 -87t-93.5 -57.5t-117.5 -21z" />
    <glyph glyph-name="ugrave" unicode="&#xf9;" horiz-adv-x="588" 
d="M398 0v65q-22 -28 -64.5 -52.5t-99.5 -24.5q-77 0 -128.5 49.5t-51.5 135.5v327h142v-283q0 -57 28 -80t68 -23q34 0 66.5 25t32.5 69v292h141v-500h-134zM97 719h171l81 -147h-118z" />
    <glyph glyph-name="uacute" unicode="&#xfa;" horiz-adv-x="588" 
d="M398 0v65q-22 -28 -64.5 -52.5t-99.5 -24.5q-77 0 -128.5 49.5t-51.5 135.5v327h142v-283q0 -57 28 -80t68 -23q34 0 66.5 25t32.5 69v292h141v-500h-134zM483 719l-134 -147h-114l79 147h169z" />
    <glyph glyph-name="ucircumflex" unicode="&#xfb;" horiz-adv-x="588" 
d="M398 0v65q-22 -28 -64.5 -52.5t-99.5 -24.5q-77 0 -128.5 49.5t-51.5 135.5v327h142v-283q0 -57 28 -80t68 -23q34 0 66.5 25t32.5 69v292h141v-500h-134zM359 572l-66 81l-66 -81h-126l119 147h146l120 -147h-127z" />
    <glyph glyph-name="udieresis" unicode="&#xfc;" horiz-adv-x="588" 
d="M398 0v65q-22 -28 -64.5 -52.5t-99.5 -24.5q-77 0 -128.5 49.5t-51.5 135.5v327h142v-283q0 -57 28 -80t68 -23q34 0 66.5 25t32.5 69v292h141v-500h-134zM460 683v-111h-126v111h126zM252 683v-111h-126v111h126z" />
    <glyph glyph-name="yacute" unicode="&#xfd;" horiz-adv-x="598" 
d="M317 -213h-147l72 197l-228 516h160l139 -353l124 353h147zM498 719l-134 -147h-114l79 147h169z" />
    <glyph glyph-name="thorn" unicode="&#xfe;" horiz-adv-x="668" 
d="M195 250q0 -59 41.5 -101.5t102.5 -42.5q60 0 101 42.5t41 102.5q0 57 -41 100t-101 43q-61 0 -102.5 -43t-41.5 -101zM385 -18q-57 0 -105.5 24t-81.5 64v-283h-142v993h142v-348q32 40 80.5 63t106.5 23q51 0 96 -20.5t77.5 -56.5t51.5 -85.5t19 -105.5t-19 -105
t-51.5 -85t-77.5 -57t-96 -21z" />
    <glyph glyph-name="ydieresis" unicode="&#xff;" horiz-adv-x="598" 
d="M317 -213h-147l72 197l-228 516h160l139 -353l124 353h147zM474 683v-111h-126v111h126zM266 683v-111h-126v111h126z" />
    <glyph glyph-name="Amacron" unicode="&#x100;" horiz-adv-x="767" 
d="M495 246l-113 308l-114 -308h227zM586 0l-45 123h-319l-46 -123h-161l292 746h154l292 -746h-167zM537 911v-104h-302v104h302z" />
    <glyph glyph-name="amacron" unicode="&#x101;" horiz-adv-x="546" 
d="M265 65q37 0 61 23.5t24 57.5q0 32 -23.5 55t-61.5 23t-61 -23t-23 -55q0 -33 23 -57t61 -24zM359 0v49q-23 -28 -61 -47.5t-89 -19.5q-78 0 -125.5 46t-47.5 115q0 68 49 115t133 47q43 0 75.5 -11t55.5 -28v25q0 61 -30.5 84t-84.5 23q-23 0 -50.5 -3.5t-73.5 -12.5
l-2 115q46 10 79.5 13t75.5 3q113 0 170.5 -51t57.5 -136v-326h-132zM420 676v-104h-296v104h296z" />
    <glyph glyph-name="Abreve" unicode="&#x102;" horiz-adv-x="767" 
d="M495 246l-113 308l-114 -308h227zM586 0l-45 123h-319l-46 -123h-161l292 746h154l292 -746h-167zM555 959q-13 -69 -57 -113t-112 -44t-112 44t-57 113l87 3q13 -37 36 -55t46 -18q24 0 46.5 18t35.5 55z" />
    <glyph glyph-name="abreve" unicode="&#x103;" horiz-adv-x="546" 
d="M265 65q37 0 61 23.5t24 57.5q0 32 -23.5 55t-61.5 23t-61 -23t-23 -55q0 -33 23 -57t61 -24zM359 0v49q-23 -28 -61 -47.5t-89 -19.5q-78 0 -125.5 46t-47.5 115q0 68 49 115t133 47q43 0 75.5 -11t55.5 -28v25q0 61 -30.5 84t-84.5 23q-23 0 -50.5 -3.5t-73.5 -12.5
l-2 115q46 10 79.5 13t75.5 3q113 0 170.5 -51t57.5 -136v-326h-132zM441 723q-13 -69 -57 -113t-112 -44t-112 44t-57 113l87 3q13 -37 36 -55t46 -18q24 0 46.5 18t35.5 55z" />
    <glyph glyph-name="Aogonek" unicode="&#x104;" horiz-adv-x="767" 
d="M650 -187q-55 0 -80.5 25.5t-25.5 57.5q0 31 18 55.5t43 41.5l3 2l-20 -1l-47 129h-319l-46 -123h-161l292 746h154l292 -746l-59 -37q-21 -13 -29 -24t-8 -21q0 -11 8.5 -19.5t21.5 -8.5q11 0 20.5 4.5t16.5 9.5l40 -51q-16 -15 -45 -27t-69 -13zM495 246l-113 308
l-114 -308h227z" />
    <glyph glyph-name="aogonek" unicode="&#x105;" horiz-adv-x="546" 
d="M391 -179q-54 0 -78.5 24t-24.5 55q0 28 17 50.5t42 38.5l12 8v52q-23 -28 -61 -47.5t-89 -19.5q-78 0 -125.5 46t-47.5 115q0 68 49 115t133 47q43 0 75.5 -11t55.5 -28v25q0 61 -30.5 84t-84.5 23q-23 0 -50.5 -3.5t-73.5 -12.5l-2 115q46 10 79.5 13t75.5 3
q113 0 170.5 -51t57.5 -136v-326l-56 -37q-19 -13 -27 -23t-8 -20t8 -17.5t21 -7.5q10 0 19.5 4t14.5 9l39 -50q-15 -14 -43.5 -25.5t-67.5 -11.5zM265 65q37 0 61 23.5t24 57.5q0 32 -23.5 55t-61.5 23t-61 -23t-23 -55q0 -33 23 -57t61 -24z" />
    <glyph glyph-name="Cacute" unicode="&#x106;" horiz-adv-x="664" 
d="M612 733v-150q-33 21 -72.5 31.5t-82.5 10.5q-54 0 -102 -20t-83 -54t-55.5 -80t-20.5 -96q0 -51 20.5 -97.5t55.5 -81t83 -55t102 -20.5q43 0 82.5 10.5t72.5 31.5v-151q-37 -17 -78 -26t-86 -9q-88 0 -163 31.5t-129 85t-85 126t-31 154.5q0 81 31 153.5t85 126
t129 84.5t163 31q45 0 86 -9.5t78 -26.5zM607 954l-134 -147h-114l79 147h169z" />
    <glyph glyph-name="cacute" unicode="&#x107;" horiz-adv-x="500" 
d="M452 133v-125q-20 -13 -55.5 -18t-63.5 -5q-63 0 -117.5 20t-94 55t-62.5 84t-23 106t23 106t62.5 84t94 55t117.5 20q28 0 62.5 -5t56.5 -18v-126h-4q-23 16 -51.5 22.5t-57.5 6.5q-65 0 -109 -42t-44 -103q0 -62 44 -103.5t109 -41.5q29 0 57 6t52 22h4zM503 719
l-134 -147h-114l79 147h169z" />
    <glyph glyph-name="Ccircumflex" unicode="&#x108;" horiz-adv-x="664" 
d="M612 733v-150q-33 21 -72.5 31.5t-82.5 10.5q-54 0 -102 -20t-83 -54t-55.5 -80t-20.5 -96q0 -51 20.5 -97.5t55.5 -81t83 -55t102 -20.5q43 0 82.5 10.5t72.5 31.5v-151q-37 -17 -78 -26t-86 -9q-88 0 -163 31.5t-129 85t-85 126t-31 154.5q0 81 31 153.5t85 126
t129 84.5t163 31q45 0 86 -9.5t78 -26.5zM483 807l-66 81l-66 -81h-126l119 147h146l120 -147h-127z" />
    <glyph glyph-name="ccircumflex" unicode="&#x109;" horiz-adv-x="500" 
d="M452 133v-125q-20 -13 -55.5 -18t-63.5 -5q-63 0 -117.5 20t-94 55t-62.5 84t-23 106t23 106t62.5 84t94 55t117.5 20q28 0 62.5 -5t56.5 -18v-126h-4q-23 16 -51.5 22.5t-57.5 6.5q-65 0 -109 -42t-44 -103q0 -62 44 -103.5t109 -41.5q29 0 57 6t52 22h4zM379 572
l-66 81l-66 -81h-126l119 147h146l120 -147h-127z" />
    <glyph glyph-name="Cdotaccent" unicode="&#x10a;" horiz-adv-x="664" 
d="M612 733v-150q-33 21 -72.5 31.5t-82.5 10.5q-54 0 -102 -20t-83 -54t-55.5 -80t-20.5 -96q0 -51 20.5 -97.5t55.5 -81t83 -55t102 -20.5q43 0 82.5 10.5t72.5 31.5v-151q-37 -17 -78 -26t-86 -9q-88 0 -163 31.5t-129 85t-85 126t-31 154.5q0 81 31 153.5t85 126
t129 84.5t163 31q45 0 86 -9.5t78 -26.5zM490 919v-112h-144v112h144z" />
    <glyph glyph-name="cdotaccent" unicode="&#x10b;" horiz-adv-x="500" 
d="M452 133v-125q-20 -13 -55.5 -18t-63.5 -5q-63 0 -117.5 20t-94 55t-62.5 84t-23 106t23 106t62.5 84t94 55t117.5 20q28 0 62.5 -5t56.5 -18v-126h-4q-23 16 -51.5 22.5t-57.5 6.5q-65 0 -109 -42t-44 -103q0 -62 44 -103.5t109 -41.5q29 0 57 6t52 22h4zM385 696v-121
h-144v121h144z" />
    <glyph glyph-name="Ccaron" unicode="&#x10c;" horiz-adv-x="664" 
d="M612 733v-150q-33 21 -72.5 31.5t-82.5 10.5q-54 0 -102 -20t-83 -54t-55.5 -80t-20.5 -96q0 -51 20.5 -97.5t55.5 -81t83 -55t102 -20.5q43 0 82.5 10.5t72.5 31.5v-151q-37 -17 -78 -26t-86 -9q-88 0 -163 31.5t-129 85t-85 126t-31 154.5q0 81 31 153.5t85 126
t129 84.5t163 31q45 0 86 -9.5t78 -26.5zM491 807h-146l-119 147h125l65 -81l66 81h129z" />
    <glyph glyph-name="ccaron" unicode="&#x10d;" horiz-adv-x="500" 
d="M452 133v-125q-20 -13 -55.5 -18t-63.5 -5q-63 0 -117.5 20t-94 55t-62.5 84t-23 106t23 106t62.5 84t94 55t117.5 20q28 0 62.5 -5t56.5 -18v-126h-4q-23 16 -51.5 22.5t-57.5 6.5q-65 0 -109 -42t-44 -103q0 -62 44 -103.5t109 -41.5q29 0 57 6t52 22h4zM386 572h-146
l-119 147h125l65 -81l66 81h129z" />
    <glyph glyph-name="Dcaron" unicode="&#x10e;" horiz-adv-x="714" 
d="M65 0v746h214q76 0 147 -22.5t125 -68t86.5 -116t32.5 -165.5q0 -96 -32 -167t-86 -116.5t-124.5 -68t-146.5 -22.5h-216zM221 606v-466h65q45 0 86.5 15t73 44t50 73t18.5 102q0 57 -18.5 100.5t-50 72.5t-73 44t-86.5 15h-65zM403 807h-146l-119 147h125l65 -81l66 81
h129z" />
    <glyph glyph-name="dcaron" unicode="&#x10f;" horiz-adv-x="668" 
d="M473 250q0 59 -42 101.5t-102 42.5t-101 -42t-41 -102q0 -58 41 -101t101 -43t102 43t42 101zM479 0v79q-32 -45 -82.5 -71t-113.5 -26q-52 0 -97 20.5t-77.5 56t-51 84.5t-18.5 105t18.5 105t51 85.5t77.5 58t97 21.5q57 0 105.5 -24.5t81.5 -65.5v352h142v-780h-133z
M785 780l-57 -175h-81l18 175h120z" />
    <glyph glyph-name="Dcroat" unicode="&#x110;" horiz-adv-x="724" 
d="M291 0h-215v320h-48v118h48v308h213q76 0 147 -22.5t125 -68t86.5 -116t32.5 -165.5q0 -96 -32 -167t-85.5 -116.5t-124.5 -68t-147 -22.5zM231 140h64q45 0 86.5 15t73 44t50 73t18.5 102q0 57 -18.5 100.5t-50 72.5t-73 44t-86.5 15h-64v-168h116v-118h-116v-180z" />
    <glyph glyph-name="dcroat" unicode="&#x111;" horiz-adv-x="668" 
d="M473 250q0 59 -42 101.5t-102 42.5t-101 -42t-41 -102q0 -58 41 -101t101 -43t102 43t42 101zM479 0v79q-32 -45 -82.5 -71t-113.5 -26q-52 0 -97 20.5t-77.5 56t-51 84.5t-18.5 105t18.5 105t51 85.5t77.5 58t97 21.5q57 0 105.5 -24.5t81.5 -65.5v153h-80v87h80v112
h142v-112h46v-87h-46v-581h-133z" />
    <glyph glyph-name="Emacron" unicode="&#x112;" horiz-adv-x="547" 
d="M65 0v746h417v-137h-261v-162h236v-126h-236v-184h269v-137h-425zM433 911v-104h-302v104h302z" />
    <glyph glyph-name="emacron" unicode="&#x113;" horiz-adv-x="621" 
d="M314 408q-47 0 -78.5 -27t-43.5 -76h244q-12 48 -44 75.5t-78 27.5zM581 63q-40 -37 -100.5 -62t-140.5 -25q-71 0 -127.5 21t-95.5 57.5t-60 86.5t-21 109t20.5 109.5t57.5 87t88.5 57t113.5 20.5q57 0 106.5 -20.5t85.5 -57t57 -86.5t21 -109v-38h-398
q9 -60 49.5 -92.5t105.5 -32.5q51 0 90.5 17t70.5 44zM464 676v-104h-296v104h296z" />
    <glyph glyph-name="Ebreve" unicode="&#x114;" horiz-adv-x="547" 
d="M65 0v746h417v-137h-261v-162h236v-126h-236v-184h269v-137h-425zM451 959q-13 -69 -57 -113t-112 -44t-112 44t-57 113l87 3q13 -37 36 -55t46 -18q24 0 46.5 18t35.5 55z" />
    <glyph glyph-name="ebreve" unicode="&#x115;" horiz-adv-x="621" 
d="M314 408q-47 0 -78.5 -27t-43.5 -76h244q-12 48 -44 75.5t-78 27.5zM581 63q-40 -37 -100.5 -62t-140.5 -25q-71 0 -127.5 21t-95.5 57.5t-60 86.5t-21 109t20.5 109.5t57.5 87t88.5 57t113.5 20.5q57 0 106.5 -20.5t85.5 -57t57 -86.5t21 -109v-38h-398
q9 -60 49.5 -92.5t105.5 -32.5q51 0 90.5 17t70.5 44zM485 723q-13 -69 -57 -113t-112 -44t-112 44t-57 113l87 3q13 -37 36 -55t46 -18q24 0 46.5 18t35.5 55z" />
    <glyph glyph-name="Edotaccent" unicode="&#x116;" horiz-adv-x="547" 
d="M65 0v746h417v-137h-261v-162h236v-126h-236v-184h269v-137h-425zM354 919v-112h-144v112h144z" />
    <glyph glyph-name="edotaccent" unicode="&#x117;" horiz-adv-x="621" 
d="M314 408q-47 0 -78.5 -27t-43.5 -76h244q-12 48 -44 75.5t-78 27.5zM581 63q-40 -37 -100.5 -62t-140.5 -25q-71 0 -127.5 21t-95.5 57.5t-60 86.5t-21 109t20.5 109.5t57.5 87t88.5 57t113.5 20.5q57 0 106.5 -20.5t85.5 -57t57 -86.5t21 -109v-38h-398
q9 -60 49.5 -92.5t105.5 -32.5q51 0 90.5 17t70.5 44zM388 696v-121h-144v121h144z" />
    <glyph glyph-name="Eogonek" unicode="&#x118;" horiz-adv-x="547" 
d="M501 -147q-16 -15 -44.5 -27t-68.5 -13q-56 0 -82 25.5t-26 57.5q0 29 18.5 52.5t43.5 39.5l19 12h-296v746h417v-137h-261v-162h236v-126h-236v-184h269v-137l-59 -37q-20 -13 -29 -24t-9 -21q0 -12 8.5 -20t22.5 -8q11 0 21 4.5t16 9.5z" />
    <glyph glyph-name="eogonek" unicode="&#x119;" horiz-adv-x="621" 
d="M314 408q-47 0 -78.5 -27t-43.5 -76h244q-12 48 -44 75.5t-78 27.5zM586 -142q-16 -14 -45 -25.5t-67 -11.5q-54 0 -79.5 24.5t-25.5 57.5q0 22 10 41.5t24 36.5q-15 -2 -31 -3.5t-32 -1.5q-71 0 -127.5 21t-95.5 57.5t-60 86.5t-21 109t20.5 109.5t57.5 87t88.5 57
t113.5 20.5q57 0 106.5 -20.5t85.5 -57t57 -86.5t21 -109v-38h-398q9 -60 49.5 -92.5t105.5 -32.5q51 0 90.5 17t70.5 44l77 -86l-2 -2l-2 -2l-61 -70q-17 -19 -25.5 -34.5t-8.5 -28.5t7.5 -22t22.5 -9q10 0 19.5 4t15.5 9z" />
    <glyph glyph-name="Ecaron" unicode="&#x11a;" horiz-adv-x="547" 
d="M65 0v746h417v-137h-261v-162h236v-126h-236v-184h269v-137h-425zM356 807h-146l-119 147h125l65 -81l66 81h129z" />
    <glyph glyph-name="ecaron" unicode="&#x11b;" horiz-adv-x="621" 
d="M314 408q-47 0 -78.5 -27t-43.5 -76h244q-12 48 -44 75.5t-78 27.5zM581 63q-40 -37 -100.5 -62t-140.5 -25q-71 0 -127.5 21t-95.5 57.5t-60 86.5t-21 109t20.5 109.5t57.5 87t88.5 57t113.5 20.5q57 0 106.5 -20.5t85.5 -57t57 -86.5t21 -109v-38h-398
q9 -60 49.5 -92.5t105.5 -32.5q51 0 90.5 17t70.5 44zM390 572h-146l-119 147h125l65 -81l66 81h129z" />
    <glyph glyph-name="Gcircumflex" unicode="&#x11c;" horiz-adv-x="870" 
d="M831 374q0 -83 -29.5 -156t-80.5 -126.5t-120 -84.5t-148 -31q-87 0 -162.5 31.5t-131 85t-87.5 126.5t-32 155t32 154.5t87.5 126t131 84.5t162.5 31q81 0 154.5 -29t125.5 -76l-100 -110q-37 34 -83 53.5t-97 19.5q-54 0 -101 -20t-81.5 -54.5t-54.5 -81t-20 -98.5
q0 -53 20 -99.5t54.5 -81t81.5 -55t101 -20.5q78 0 137.5 50.5t77.5 125.5h-205l54 128h314v-48zM518 807l-66 81l-66 -81h-126l119 147h146l120 -147h-127z" />
    <glyph glyph-name="gcircumflex" unicode="&#x11d;" horiz-adv-x="646" 
d="M320 135q53 0 91.5 38t38.5 92t-38.5 92.5t-91.5 38.5q-54 0 -93 -38.5t-39 -92.5t39 -92t93 -38zM303 -216q-40 0 -81 3.5t-86 12.5v125q49 -11 87.5 -15t75.5 -4q66 0 107.5 29.5t41.5 113.5v42q-33 -36 -76.5 -57t-90.5 -21t-91 18t-77.5 50.5t-54 79.5t-20.5 104
q0 58 20.5 105.5t54 80.5t77.5 51t91 18q49 0 94.5 -23.5t78.5 -61.5v65h136v-117.5t-0.5 -134.5t-0.5 -120v-74q0 -144 -71.5 -207t-214.5 -63zM383 572l-66 81l-66 -81h-126l119 147h146l120 -147h-127z" />
    <glyph glyph-name="Gbreve" unicode="&#x11e;" horiz-adv-x="870" 
d="M831 374q0 -83 -29.5 -156t-80.5 -126.5t-120 -84.5t-148 -31q-87 0 -162.5 31.5t-131 85t-87.5 126.5t-32 155t32 154.5t87.5 126t131 84.5t162.5 31q81 0 154.5 -29t125.5 -76l-100 -110q-37 34 -83 53.5t-97 19.5q-54 0 -101 -20t-81.5 -54.5t-54.5 -81t-20 -98.5
q0 -53 20 -99.5t54.5 -81t81.5 -55t101 -20.5q78 0 137.5 50.5t77.5 125.5h-205l54 128h314v-48zM621 959q-13 -69 -57 -113t-112 -44t-112 44t-57 113l87 3q13 -37 36 -55t46 -18q24 0 46.5 18t35.5 55z" />
    <glyph glyph-name="gbreve" unicode="&#x11f;" horiz-adv-x="646" 
d="M320 135q53 0 91.5 38t38.5 92t-38.5 92.5t-91.5 38.5q-54 0 -93 -38.5t-39 -92.5t39 -92t93 -38zM303 -216q-40 0 -81 3.5t-86 12.5v125q49 -11 87.5 -15t75.5 -4q66 0 107.5 29.5t41.5 113.5v42q-33 -36 -76.5 -57t-90.5 -21t-91 18t-77.5 50.5t-54 79.5t-20.5 104
q0 58 20.5 105.5t54 80.5t77.5 51t91 18q49 0 94.5 -23.5t78.5 -61.5v65h136v-117.5t-0.5 -134.5t-0.5 -120v-74q0 -144 -71.5 -207t-214.5 -63zM486 723q-13 -69 -57 -113t-112 -44t-112 44t-57 113l87 3q13 -37 36 -55t46 -18q24 0 46.5 18t35.5 55z" />
    <glyph glyph-name="Gdotaccent" unicode="&#x120;" horiz-adv-x="870" 
d="M831 374q0 -83 -29.5 -156t-80.5 -126.5t-120 -84.5t-148 -31q-87 0 -162.5 31.5t-131 85t-87.5 126.5t-32 155t32 154.5t87.5 126t131 84.5t162.5 31q81 0 154.5 -29t125.5 -76l-100 -110q-37 34 -83 53.5t-97 19.5q-54 0 -101 -20t-81.5 -54.5t-54.5 -81t-20 -98.5
q0 -53 20 -99.5t54.5 -81t81.5 -55t101 -20.5q78 0 137.5 50.5t77.5 125.5h-205l54 128h314v-48zM524 919v-112h-144v112h144z" />
    <glyph glyph-name="gdotaccent" unicode="&#x121;" horiz-adv-x="646" 
d="M320 135q53 0 91.5 38t38.5 92t-38.5 92.5t-91.5 38.5q-54 0 -93 -38.5t-39 -92.5t39 -92t93 -38zM303 -216q-40 0 -81 3.5t-86 12.5v125q49 -11 87.5 -15t75.5 -4q66 0 107.5 29.5t41.5 113.5v42q-33 -36 -76.5 -57t-90.5 -21t-91 18t-77.5 50.5t-54 79.5t-20.5 104
q0 58 20.5 105.5t54 80.5t77.5 51t91 18q49 0 94.5 -23.5t78.5 -61.5v65h136v-117.5t-0.5 -134.5t-0.5 -120v-74q0 -144 -71.5 -207t-214.5 -63zM389 696v-121h-144v121h144z" />
    <glyph glyph-name="Gcommaaccent" unicode="&#x122;" horiz-adv-x="870" 
d="M831 374q0 -83 -29.5 -156t-80.5 -126.5t-120 -84.5t-148 -31q-87 0 -162.5 31.5t-131 85t-87.5 126.5t-32 155t32 154.5t87.5 126t131 84.5t162.5 31q81 0 154.5 -29t125.5 -76l-100 -110q-37 34 -83 53.5t-97 19.5q-54 0 -101 -20t-81.5 -54.5t-54.5 -81t-20 -98.5
q0 -53 20 -99.5t54.5 -81t81.5 -55t101 -20.5q78 0 137.5 50.5t77.5 125.5h-205l54 128h314v-48zM522 -71l-70 -175h-103l30 175h143z" />
    <glyph glyph-name="gcommaaccent" unicode="&#x123;" horiz-adv-x="646" 
d="M320 135q53 0 91.5 38t38.5 92t-38.5 92.5t-91.5 38.5q-54 0 -93 -38.5t-39 -92.5t39 -92t93 -38zM303 -216q-40 0 -81 3.5t-86 12.5v125q49 -11 87.5 -15t75.5 -4q66 0 107.5 29.5t41.5 113.5v42q-33 -36 -76.5 -57t-90.5 -21t-91 18t-77.5 50.5t-54 79.5t-20.5 104
q0 58 20.5 105.5t54 80.5t77.5 51t91 18q49 0 94.5 -23.5t78.5 -61.5v65h136v-117.5t-0.5 -134.5t-0.5 -120v-74q0 -144 -71.5 -207t-214.5 -63z" />
    <glyph glyph-name="Hcircumflex" unicode="&#x124;" horiz-adv-x="722" 
d="M65 0v746h156v-279h280v279h156v-746h-156v328h-280v-328h-156zM427 807l-66 81l-66 -81h-126l119 147h146l120 -147h-127z" />
    <glyph glyph-name="hcircumflex" unicode="&#x125;" horiz-adv-x="588" 
d="M198 291v-291h-142v780h138v-344q22 28 63.5 52t98.5 24q76 0 127 -50t51 -135v-327h-142v283q0 56 -28 79.5t-67 23.5q-34 0 -66.5 -25t-32.5 -70zM191 840l-66 81l-66 -81h-126l119 147h146l120 -147h-127z" />
    <glyph glyph-name="Hbar" unicode="&#x126;" horiz-adv-x="743" 
d="M226 467h291v82h-291v-82zM226 328v-328h-155v549h-47v105h47v92h155v-92h291v92h154v-92h48v-105h-48v-549h-154v328h-291z" />
    <glyph glyph-name="hbar" unicode="&#x127;" horiz-adv-x="586" 
d="M198 291v-291h-142v581h-45v87h45v112h138v-112h85v-87h-85v-145q22 28 63.5 52t98.5 24q76 0 127 -50t51 -135v-327h-142v283q0 56 -28 79.5t-67 23.5q-34 0 -66.5 -25t-32.5 -70z" />
    <glyph glyph-name="Itilde" unicode="&#x128;" horiz-adv-x="287" 
d="M66 0v746h155v-746h-155zM30 807l-109 3q-6 90 31.5 125.5t91.5 35.5q24 0 48.5 -8.5t47.5 -18.5t43 -18.5t34 -8.5q16 0 28.5 10t11.5 41l108 -3q5 -77 -27.5 -116t-92.5 -39q-25 0 -50 8t-48 18t-43 18t-34 8q-16 0 -29 -10.5t-11 -44.5z" />
    <glyph glyph-name="itilde" unicode="&#x129;" horiz-adv-x="257" 
d="M199 500v-500h-141v500h141zM27 571l-106 4q-5 87 29.5 121.5t85.5 34.5q22 0 45 -8t43.5 -17.5t38 -17.5t30.5 -8q16 0 26.5 9t10.5 38l106 -3q4 -74 -26 -112t-87 -38q-23 0 -46 7.5t-44 16.5t-39 16.5t-31 7.5q-14 0 -25.5 -10t-10.5 -41z" />
    <glyph glyph-name="Imacron" unicode="&#x12a;" horiz-adv-x="287" 
d="M66 0v746h155v-746h-155zM295 911v-104h-302v104h302z" />
    <glyph glyph-name="imacron" unicode="&#x12b;" horiz-adv-x="257" 
d="M199 500v-500h-141v500h141zM277 676v-104h-296v104h296z" />
    <glyph glyph-name="Ibreve" unicode="&#x12c;" horiz-adv-x="287" 
d="M66 0v746h155v-746h-155zM313 959q-13 -69 -57 -113t-112 -44t-112 44t-57 113l87 3q13 -37 36 -55t46 -18q24 0 46.5 18t35.5 55z" />
    <glyph glyph-name="ibreve" unicode="&#x12d;" horiz-adv-x="257" 
d="M199 500v-500h-141v500h141zM298 723q-13 -69 -57 -113t-112 -44t-112 44t-57 113l87 3q13 -37 36 -55t46 -18q24 0 46.5 18t35.5 55z" />
    <glyph glyph-name="Iogonek" unicode="&#x12e;" horiz-adv-x="287" 
d="M119 -187q-56 0 -81.5 26t-25.5 59q0 30 15.5 52.5t38.5 40.5v755h155v-746l-58 -37q-20 -13 -29 -24t-9 -21q0 -11 8.5 -19.5t22.5 -8.5q11 0 20.5 4.5t16.5 9.5l40 -51q-16 -15 -45 -27t-69 -13z" />
    <glyph glyph-name="iogonek" unicode="&#x12f;" horiz-adv-x="257" 
d="M202 695v-121h-145v121h145zM100 -179q-54 0 -78.5 24t-24.5 55q0 28 18 53t42 41l6 4h-5v502h142v-500l-55 -37q-19 -13 -27.5 -23t-8.5 -20t8 -17.5t21 -7.5q11 0 20 4t14 9l39 -50q-14 -14 -43 -25.5t-68 -11.5z" />
    <glyph glyph-name="Idotaccent" unicode="&#x130;" horiz-adv-x="287" 
d="M66 0v746h155v-746h-155zM216 919v-112h-144v112h144z" />
    <glyph glyph-name="dotlessi" unicode="&#x131;" horiz-adv-x="257" 
d="M199 500v-500h-141v500h141z" />
    <glyph glyph-name="IJ" unicode="&#x132;" horiz-adv-x="690" 
d="M66 0v746h155v-746h-155zM312 0v145q18 -10 37 -14.5t37 -4.5q37 0 60 30t23 117v473h155v-526q0 -115 -49 -176t-168 -61q-26 0 -50 3.5t-45 13.5z" />
    <glyph glyph-name="ij" unicode="&#x133;" horiz-adv-x="515" 
d="M202 695v-121h-145v121h145zM200 500v-500h-142v500h142zM459 695v-121h-145v121h145zM225 -94h16q35 0 54.5 18t19.5 60v516h142v-518q0 -113 -52 -157t-166 -44h-14v125z" />
    <glyph glyph-name="Jcircumflex" unicode="&#x134;" horiz-adv-x="403" 
d="M25 0v145q18 -10 37 -14.5t37 -4.5q37 0 60 30t23 117v473h155v-526q0 -115 -49 -176t-168 -61q-26 0 -50 3.5t-45 13.5zM325 807l-66 81l-66 -81h-126l119 147h146l120 -147h-127z" />
    <glyph glyph-name="jcircumflex" unicode="&#x135;" horiz-adv-x="253" 
d="M-25 -97h14q29 0 48 22.5t19 62.5v512h141v-515q0 -106 -53 -155t-156 -49h-13v122zM195 572l-66 81l-66 -81h-126l119 147h146l120 -147h-127z" />
    <glyph glyph-name="Kcommaaccent" unicode="&#x136;" horiz-adv-x="718" 
d="M507 0l-226 313l-60 -71v-242h-156v746h156v-295l247 295h190l-271 -316l311 -430h-191zM425 -56l-70 -175h-103l30 175h143z" />
    <glyph glyph-name="kcommaaccent" unicode="&#x137;" horiz-adv-x="574" 
d="M382 0l-136 211l-48 -53v-158h-142v780h142v-450l165 170h177l-189 -197l202 -303h-171zM371 -56l-70 -175h-103l30 175h143z" />
    <glyph glyph-name="kgreenlandic" unicode="&#x138;" horiz-adv-x="574" 
d="M382 0l-136 211l-48 -53v-158h-142v500h142v-170l165 170h177l-189 -197l202 -303h-171z" />
    <glyph glyph-name="Lacute" unicode="&#x139;" horiz-adv-x="510" 
d="M65 746h156v-606h258v-140h-414v746zM331 954l-134 -147h-114l79 147h169z" />
    <glyph glyph-name="lacute" unicode="&#x13a;" horiz-adv-x="257" 
d="M200 780v-780h-142v780h142zM319 987l-134 -147h-114l79 147h169z" />
    <glyph glyph-name="Lcommaaccent" unicode="&#x13b;" horiz-adv-x="510" 
d="M65 746h156v-606h258v-140h-414v746zM367 -56l-70 -175h-103l30 175h143z" />
    <glyph glyph-name="lcommaaccent" unicode="&#x13c;" horiz-adv-x="257" 
d="M200 780v-780h-142v780h142zM200 -57l-70 -175h-103l30 175h143z" />
    <glyph glyph-name="Lcaron" unicode="&#x13d;" horiz-adv-x="510" 
d="M65 746h156v-606h258v-140h-414v746zM449 780l-57 -175h-81l18 175h120z" />
    <glyph glyph-name="lcaron" unicode="&#x13e;" horiz-adv-x="257" 
d="M200 780v-780h-142v780h142zM374 780l-57 -175h-81l18 175h120z" />
    <glyph glyph-name="Ldot" unicode="&#x13f;" horiz-adv-x="510" 
d="M65 746h156v-606h258v-140h-414v746zM435 466v-112h-144v112h144z" />
    <glyph glyph-name="ldot" unicode="&#x140;" horiz-adv-x="357" 
d="M200 780v-780h-142v780h142zM362 473v-121h-144v121h144z" />
    <glyph glyph-name="Lslash" unicode="&#x141;" horiz-adv-x="516" 
d="M479 0h-414v289l-44 -21l-1 116l45 22v340h156v-265l168 81v-117l-168 -81v-224h258v-140z" />
    <glyph glyph-name="lslash" unicode="&#x142;" horiz-adv-x="275" 
d="M210 0h-142v337l-50 -27v105l50 27v338h142v-262l51 27v-106l-51 -27v-412z" />
    <glyph glyph-name="Nacute" unicode="&#x143;" horiz-adv-x="786" 
d="M572 0l-351 485v-485h-156v746h152l349 -483v483h155v-746h-149zM571 954l-134 -147h-114l79 147h169z" />
    <glyph glyph-name="nacute" unicode="&#x144;" horiz-adv-x="588" 
d="M198 292v-292h-142v500h135v-64q22 28 64.5 52t100.5 24q76 0 127 -49.5t51 -135.5v-327h-142v283q0 57 -28 80t-67 23q-34 0 -66.5 -25t-32.5 -69zM481 719l-134 -147h-114l79 147h169z" />
    <glyph glyph-name="Ncommaaccent" unicode="&#x145;" horiz-adv-x="786" 
d="M572 0l-351 485v-485h-156v746h152l349 -483v483h155v-746h-149zM453 -56l-70 -175h-103l30 175h143z" />
    <glyph glyph-name="ncommaaccent" unicode="&#x146;" horiz-adv-x="588" 
d="M198 292v-292h-142v500h135v-64q22 28 64.5 52t100.5 24q76 0 127 -49.5t51 -135.5v-327h-142v283q0 57 -28 80t-67 23q-34 0 -66.5 -25t-32.5 -69zM367 -56l-70 -175h-103l30 175h143z" />
    <glyph glyph-name="Ncaron" unicode="&#x147;" horiz-adv-x="786" 
d="M572 0l-351 485v-485h-156v746h152l349 -483v483h155v-746h-149zM454 807h-146l-119 147h125l65 -81l66 81h129z" />
    <glyph glyph-name="ncaron" unicode="&#x148;" horiz-adv-x="588" 
d="M198 292v-292h-142v500h135v-64q22 28 64.5 52t100.5 24q76 0 127 -49.5t51 -135.5v-327h-142v283q0 57 -28 80t-67 23q-34 0 -66.5 -25t-32.5 -69zM364 572h-146l-119 147h125l65 -81l66 81h129z" />
    <glyph glyph-name="Eng" unicode="&#x14a;" horiz-adv-x="786" 
d="M491 -229h-21v125h19q37 0 60 27.5t23 75.5l-351 486v-485h-156v746h152l349 -483v483h155v-745q0 -119 -59 -174.5t-171 -55.5z" />
    <glyph glyph-name="eng" unicode="&#x14b;" horiz-adv-x="588" 
d="M324 -219h-13v122h14q29 0 48 21.5t19 61.5v297q0 57 -28 80t-67 23q-34 0 -66.5 -25t-32.5 -69v-292h-142v500h135v-64q22 28 64.5 52t100.5 24q76 0 127 -49.5t51 -135.5v-342q0 -106 -53 -155t-157 -49z" />
    <glyph glyph-name="Omacron" unicode="&#x14c;" horiz-adv-x="904" 
d="M453 770q85 0 160.5 -31t131 -84.5t87.5 -126t32 -154.5t-32 -155t-87.5 -126.5t-131 -85t-160.5 -31.5q-87 0 -162.5 31.5t-131 85t-87.5 126.5t-32 155t32 154.5t87.5 126t131 84.5t162.5 31zM453 628q-54 0 -101 -20t-81.5 -54.5t-54.5 -81t-20 -98.5t20 -99
t54.5 -81.5t81.5 -55t101 -20.5q53 0 99.5 20.5t81 55t54.5 81.5t20 99t-20 98.5t-54.5 81t-81 54.5t-99.5 20zM603 911v-104h-302v104h302z" />
    <glyph glyph-name="omacron" unicode="&#x14d;" horiz-adv-x="659" 
d="M329 524q63 0 117 -21.5t93 -58t61.5 -87t22.5 -107.5t-22.5 -107.5t-61.5 -87t-93 -58t-117 -21.5q-62 0 -116 21.5t-93 58t-61.5 87t-22.5 107.5t22.5 107.5t61.5 87t93 58t116 21.5zM329 401q-62 0 -103 -44.5t-41 -106.5q0 -63 41 -107t103 -44t103.5 44t41.5 107
q0 62 -41.5 106.5t-103.5 44.5zM477 676v-104h-296v104h296z" />
    <glyph glyph-name="Obreve" unicode="&#x14e;" horiz-adv-x="904" 
d="M453 770q85 0 160.5 -31t131 -84.5t87.5 -126t32 -154.5t-32 -155t-87.5 -126.5t-131 -85t-160.5 -31.5q-87 0 -162.5 31.5t-131 85t-87.5 126.5t-32 155t32 154.5t87.5 126t131 84.5t162.5 31zM453 628q-54 0 -101 -20t-81.5 -54.5t-54.5 -81t-20 -98.5t20 -99
t54.5 -81.5t81.5 -55t101 -20.5q53 0 99.5 20.5t81 55t54.5 81.5t20 99t-20 98.5t-54.5 81t-81 54.5t-99.5 20zM621 959q-13 -69 -57 -113t-112 -44t-112 44t-57 113l87 3q13 -37 36 -55t46 -18q24 0 46.5 18t35.5 55z" />
    <glyph glyph-name="obreve" unicode="&#x14f;" horiz-adv-x="659" 
d="M329 524q63 0 117 -21.5t93 -58t61.5 -87t22.5 -107.5t-22.5 -107.5t-61.5 -87t-93 -58t-117 -21.5q-62 0 -116 21.5t-93 58t-61.5 87t-22.5 107.5t22.5 107.5t61.5 87t93 58t116 21.5zM329 401q-62 0 -103 -44.5t-41 -106.5q0 -63 41 -107t103 -44t103.5 44t41.5 107
q0 62 -41.5 106.5t-103.5 44.5zM498 723q-13 -69 -57 -113t-112 -44t-112 44t-57 113l87 3q13 -37 36 -55t46 -18q24 0 46.5 18t35.5 55z" />
    <glyph glyph-name="Ohungarumlaut" unicode="&#x150;" horiz-adv-x="904" 
d="M453 770q85 0 160.5 -31t131 -84.5t87.5 -126t32 -154.5t-32 -155t-87.5 -126.5t-131 -85t-160.5 -31.5q-87 0 -162.5 31.5t-131 85t-87.5 126.5t-32 155t32 154.5t87.5 126t131 84.5t162.5 31zM453 628q-54 0 -101 -20t-81.5 -54.5t-54.5 -81t-20 -98.5t20 -99
t54.5 -81.5t81.5 -55t101 -20.5q53 0 99.5 20.5t81 55t54.5 81.5t20 99t-20 98.5t-54.5 81t-81 54.5t-99.5 20zM583 954h151l-133 -147h-104zM376 954h151l-133 -147h-106z" />
    <glyph glyph-name="ohungarumlaut" unicode="&#x151;" horiz-adv-x="659" 
d="M329 524q63 0 117 -21.5t93 -58t61.5 -87t22.5 -107.5t-22.5 -107.5t-61.5 -87t-93 -58t-117 -21.5q-62 0 -116 21.5t-93 58t-61.5 87t-22.5 107.5t22.5 107.5t61.5 87t93 58t116 21.5zM329 401q-62 0 -103 -44.5t-41 -106.5q0 -63 41 -107t103 -44t103.5 44t41.5 107
q0 62 -41.5 106.5t-103.5 44.5zM457 719h151l-133 -147h-104zM256 719h151l-133 -147h-106z" />
    <glyph glyph-name="OE" unicode="&#x152;" horiz-adv-x="1004" 
d="M462 140h60v466h-60q-51 0 -98 -15t-83.5 -44t-58 -72.5t-21.5 -100.5q0 -58 21.5 -102t58 -73t83.5 -44t98 -15zM468 0q-83 0 -160 22.5t-135 68t-93 116.5t-35 167q0 95 35.5 165.5t94.5 116t135.5 68t158.5 22.5h464v-137h-261v-162h240v-126h-240v-184h269v-137h-473
z" />
    <glyph glyph-name="oe" unicode="&#x153;" horiz-adv-x="1058" 
d="M752 408q-48 0 -79.5 -27t-43.5 -76h244q-12 48 -43.5 75.5t-77.5 27.5zM329 401q-62 0 -103 -44.5t-41 -106.5q0 -63 41 -107t103 -44q63 0 104 44.5t41 106.5t-41.5 106.5t-103.5 44.5zM1019 63q-41 -36 -101 -61.5t-141 -25.5q-75 0 -134 24t-97 66q-39 -41 -95 -65.5
t-122 -24.5q-62 0 -116 21.5t-93 58t-61.5 87t-22.5 107.5t22.5 107.5t61.5 87t93 58t116 21.5q65 0 120.5 -24t94.5 -65q36 42 89.5 65.5t119.5 23.5q57 0 106.5 -20.5t86 -57t57.5 -86.5t21 -109v-38h-399q9 -60 50 -92.5t106 -32.5q51 0 90 17t70 44z" />
    <glyph glyph-name="Racute" unicode="&#x154;" horiz-adv-x="648" 
d="M270 607h-49v-218h49q57 0 90.5 30t33.5 82q0 49 -33 77.5t-91 28.5zM434 0l-203 265h-10v-265h-156v746h201q56 0 107.5 -12.5t90 -41.5t61.5 -75.5t23 -113.5q0 -78 -44 -131t-107 -80l224 -292h-187zM481 954l-134 -147h-114l79 147h169z" />
    <glyph glyph-name="racute" unicode="&#x155;" horiz-adv-x="387" 
d="M198 255v-255h-142v500h136v-106q7 15 20 33.5t31 35.5t41.5 28.5t50.5 11.5h17v-158q-4 2 -12 3t-14 1q-29 0 -53 -9t-40.5 -23t-25.5 -30.5t-9 -31.5zM417 719l-134 -147h-114l79 147h169z" />
    <glyph glyph-name="Rcommaaccent" unicode="&#x156;" horiz-adv-x="648" 
d="M270 607h-49v-218h49q57 0 90.5 30t33.5 82q0 49 -33 77.5t-91 28.5zM434 0l-203 265h-10v-265h-156v746h201q56 0 107.5 -12.5t90 -41.5t61.5 -75.5t23 -113.5q0 -78 -44 -131t-107 -80l224 -292h-187zM388 -56l-70 -175h-103l30 175h143z" />
    <glyph glyph-name="rcommaaccent" unicode="&#x157;" horiz-adv-x="387" 
d="M198 255v-255h-142v500h136v-106q7 15 20 33.5t31 35.5t41.5 28.5t50.5 11.5h17v-158q-4 2 -12 3t-14 1q-29 0 -53 -9t-40.5 -23t-25.5 -30.5t-9 -31.5zM198 -56l-70 -175h-103l30 175h143z" />
    <glyph glyph-name="Rcaron" unicode="&#x158;" horiz-adv-x="648" 
d="M270 607h-49v-218h49q57 0 90.5 30t33.5 82q0 49 -33 77.5t-91 28.5zM434 0l-203 265h-10v-265h-156v746h201q56 0 107.5 -12.5t90 -41.5t61.5 -75.5t23 -113.5q0 -78 -44 -131t-107 -80l224 -292h-187zM364 807h-146l-119 147h125l65 -81l66 81h129z" />
    <glyph glyph-name="rcaron" unicode="&#x159;" horiz-adv-x="387" 
d="M198 255v-255h-142v500h136v-106q7 15 20 33.5t31 35.5t41.5 28.5t50.5 11.5h17v-158q-4 2 -12 3t-14 1q-29 0 -53 -9t-40.5 -23t-25.5 -30.5t-9 -31.5zM301 572h-146l-119 147h125l65 -81l66 81h129z" />
    <glyph glyph-name="Sacute" unicode="&#x15a;" horiz-adv-x="527" 
d="M447 738l-2 -136q-27 13 -64 22.5t-72 9.5q-51 0 -74 -18t-23 -42q0 -31 28 -58.5t83 -75.5q91 -78 127.5 -133.5t36.5 -112.5q0 -48 -20 -86.5t-55 -65t-83 -40.5t-103 -14q-21 0 -46 2.5t-48.5 6.5t-45.5 9.5t-37 11.5l2 138q33 -16 81 -28.5t95 -12.5q49 0 76 23
t27 52q0 31 -28.5 63.5t-88.5 82.5q-44 38 -75.5 67.5t-50.5 56.5t-28 54t-9 59q0 36 15 70t45.5 60t78 42t112.5 16q35 0 74.5 -5.5t71.5 -17.5zM483 954l-134 -147h-114l79 147h169z" />
    <glyph glyph-name="sacute" unicode="&#x15b;" horiz-adv-x="436" 
d="M231 516q34 0 63.5 -5t52.5 -14v-119q-30 13 -57 19.5t-45 6.5q-25 0 -39.5 -8.5t-14.5 -24.5q0 -13 16.5 -27t50.5 -36q83 -55 112 -93.5t29 -82.5q0 -63 -50.5 -105t-142.5 -43q-37 0 -78 9t-71 22v119q37 -18 71.5 -27t56.5 -9q32 -1 46.5 10.5t14.5 27.5
q0 12 -14.5 29t-67.5 51q-75 49 -98.5 84t-23.5 78q0 26 10.5 51t33.5 44.5t59 31t86 11.5zM415 719l-134 -147h-114l79 147h169z" />
    <glyph glyph-name="Scircumflex" unicode="&#x15c;" horiz-adv-x="527" 
d="M447 738l-2 -136q-27 13 -64 22.5t-72 9.5q-51 0 -74 -18t-23 -42q0 -31 28 -58.5t83 -75.5q91 -78 127.5 -133.5t36.5 -112.5q0 -48 -20 -86.5t-55 -65t-83 -40.5t-103 -14q-21 0 -46 2.5t-48.5 6.5t-45.5 9.5t-37 11.5l2 138q33 -16 81 -28.5t95 -12.5q49 0 76 23
t27 52q0 31 -28.5 63.5t-88.5 82.5q-44 38 -75.5 67.5t-50.5 56.5t-28 54t-9 59q0 36 15 70t45.5 60t78 42t112.5 16q35 0 74.5 -5.5t71.5 -17.5zM359 807l-66 81l-66 -81h-126l119 147h146l120 -147h-127z" />
    <glyph glyph-name="scircumflex" unicode="&#x15d;" horiz-adv-x="436" 
d="M231 516q34 0 63.5 -5t52.5 -14v-119q-30 13 -57 19.5t-45 6.5q-25 0 -39.5 -8.5t-14.5 -24.5q0 -13 16.5 -27t50.5 -36q83 -55 112 -93.5t29 -82.5q0 -63 -50.5 -105t-142.5 -43q-37 0 -78 9t-71 22v119q37 -18 71.5 -27t56.5 -9q32 -1 46.5 10.5t14.5 27.5
q0 12 -14.5 29t-67.5 51q-75 49 -98.5 84t-23.5 78q0 26 10.5 51t33.5 44.5t59 31t86 11.5zM292 572l-66 81l-66 -81h-126l119 147h146l120 -147h-127z" />
    <glyph glyph-name="Scedilla" unicode="&#x15e;" horiz-adv-x="527" 
d="M447 738l-2 -136q-27 13 -64 22.5t-72 9.5q-51 0 -74 -18t-23 -42q0 -31 28 -58.5t83 -75.5q91 -78 127.5 -133.5t36.5 -112.5q0 -48 -20 -86.5t-55 -65t-83 -40.5t-103 -14q-21 0 -46 2.5t-48.5 6.5t-45.5 9.5t-37 11.5l2 138q33 -16 81 -28.5t95 -12.5q49 0 76 23
t27 52q0 31 -28.5 63.5t-88.5 82.5q-44 38 -75.5 67.5t-50.5 56.5t-28 54t-9 59q0 36 15 70t45.5 60t78 42t112.5 16q35 0 74.5 -5.5t71.5 -17.5zM210 -216q-16 0 -38 3t-42 10v61h1q19 -6 39 -9t30 -3q25 0 39.5 8.5t14.5 23.5q0 14 -19 23t-49 9h-18l-3 7l28 82h64
l-16 -40q47 -6 73 -28.5t26 -57.5q0 -37 -36 -63t-94 -26z" />
    <glyph glyph-name="scedilla" unicode="&#x15f;" horiz-adv-x="436" 
d="M231 516q34 0 63.5 -5t52.5 -14v-119q-30 13 -57 19.5t-45 6.5q-25 0 -39.5 -8.5t-14.5 -24.5q0 -13 16.5 -27t50.5 -36q83 -55 112 -93.5t29 -82.5q0 -63 -50.5 -105t-142.5 -43q-37 0 -78 9t-71 22v119q37 -18 71.5 -27t56.5 -9q32 -1 46.5 10.5t14.5 27.5
q0 12 -14.5 29t-67.5 51q-75 49 -98.5 84t-23.5 78q0 26 10.5 51t33.5 44.5t59 31t86 11.5zM188 -211q-15 0 -37 3.5t-41 10.5v59h1q19 -5 38 -8t29 -3q22 0 35.5 8t13.5 22q0 13 -17.5 21.5t-45.5 8.5h-18l-2 7l28 80l61 -3l-15 -35q45 -6 70.5 -28t25.5 -55
q0 -38 -34.5 -63t-91.5 -25z" />
    <glyph glyph-name="Scaron" unicode="&#x160;" horiz-adv-x="527" 
d="M447 738l-2 -136q-27 13 -64 22.5t-72 9.5q-51 0 -74 -18t-23 -42q0 -31 28 -58.5t83 -75.5q91 -78 127.5 -133.5t36.5 -112.5q0 -48 -20 -86.5t-55 -65t-83 -40.5t-103 -14q-21 0 -46 2.5t-48.5 6.5t-45.5 9.5t-37 11.5l2 138q33 -16 81 -28.5t95 -12.5q49 0 76 23
t27 52q0 31 -28.5 63.5t-88.5 82.5q-44 38 -75.5 67.5t-50.5 56.5t-28 54t-9 59q0 36 15 70t45.5 60t78 42t112.5 16q35 0 74.5 -5.5t71.5 -17.5zM367 807h-146l-119 147h125l65 -81l66 81h129z" />
    <glyph glyph-name="scaron" unicode="&#x161;" horiz-adv-x="436" 
d="M231 516q34 0 63.5 -5t52.5 -14v-119q-30 13 -57 19.5t-45 6.5q-25 0 -39.5 -8.5t-14.5 -24.5q0 -13 16.5 -27t50.5 -36q83 -55 112 -93.5t29 -82.5q0 -63 -50.5 -105t-142.5 -43q-37 0 -78 9t-71 22v119q37 -18 71.5 -27t56.5 -9q32 -1 46.5 10.5t14.5 27.5
q0 12 -14.5 29t-67.5 51q-75 49 -98.5 84t-23.5 78q0 26 10.5 51t33.5 44.5t59 31t86 11.5zM299 572h-146l-119 147h125l65 -81l66 81h129z" />
    <glyph glyph-name="Tcaron" unicode="&#x164;" horiz-adv-x="468" 
d="M156 0v607h-129v139h414v-139h-129v-607h-156zM308 807h-146l-119 147h125l65 -81l66 81h129z" />
    <glyph glyph-name="tcaron" unicode="&#x165;" horiz-adv-x="325" 
d="M292 381h-59v-381h-141v381h-60v119h60v159l141 37v-196h59v-119zM395 809l-57 -175h-81l18 175h120z" />
    <glyph glyph-name="Tbar" unicode="&#x166;" horiz-adv-x="468" 
d="M386 304h-74v-304h-156v304h-75v107h75v196h-129v139h414v-139h-129v-196h74v-107z" />
    <glyph glyph-name="tbar" unicode="&#x167;" horiz-adv-x="325" 
d="M293 206h-60v-206h-141v206h-60v86h60v89h-60v119h60v159l141 37v-196h59v-119h-59v-89h60v-86z" />
    <glyph glyph-name="Utilde" unicode="&#x168;" horiz-adv-x="730" 
d="M664 314q0 -160 -77 -249t-222 -89q-144 0 -222 89t-78 249v432h156v-464q0 -40 12 -71t32 -52t46 -31.5t54 -10.5t54.5 10.5t46 31.5t31.5 52t12 71v464h155v-432zM251 807l-109 3q-6 90 31.5 125.5t91.5 35.5q24 0 48.5 -8.5t47.5 -18.5t43 -18.5t34 -8.5q16 0 28.5 10
t11.5 41l108 -3q5 -77 -27.5 -116t-92.5 -39q-25 0 -50 8t-48 18t-43 18t-34 8q-16 0 -29 -10.5t-11 -44.5z" />
    <glyph glyph-name="utilde" unicode="&#x169;" horiz-adv-x="588" 
d="M398 0v65q-22 -28 -64.5 -52.5t-99.5 -24.5q-77 0 -128.5 49.5t-51.5 135.5v327h142v-283q0 -57 28 -80t68 -23q34 0 66.5 25t32.5 69v292h141v-500h-134zM191 571l-106 4q-5 87 29.5 121.5t85.5 34.5q22 0 45 -8t43.5 -17.5t38 -17.5t30.5 -8q16 0 26.5 9t10.5 38
l106 -3q4 -74 -26 -112t-87 -38q-23 0 -46 7.5t-44 16.5t-39 16.5t-31 7.5q-14 0 -25.5 -10t-10.5 -41z" />
    <glyph glyph-name="Umacron" unicode="&#x16a;" horiz-adv-x="730" 
d="M664 314q0 -160 -77 -249t-222 -89q-144 0 -222 89t-78 249v432h156v-464q0 -40 12 -71t32 -52t46 -31.5t54 -10.5t54.5 10.5t46 31.5t31.5 52t12 71v464h155v-432zM516 911v-104h-302v104h302z" />
    <glyph glyph-name="umacron" unicode="&#x16b;" horiz-adv-x="588" 
d="M398 0v65q-22 -28 -64.5 -52.5t-99.5 -24.5q-77 0 -128.5 49.5t-51.5 135.5v327h142v-283q0 -57 28 -80t68 -23q34 0 66.5 25t32.5 69v292h141v-500h-134zM441 676v-104h-296v104h296z" />
    <glyph glyph-name="Ubreve" unicode="&#x16c;" horiz-adv-x="730" 
d="M664 314q0 -160 -77 -249t-222 -89q-144 0 -222 89t-78 249v432h156v-464q0 -40 12 -71t32 -52t46 -31.5t54 -10.5t54.5 10.5t46 31.5t31.5 52t12 71v464h155v-432zM534 959q-13 -69 -57 -113t-112 -44t-112 44t-57 113l87 3q13 -37 36 -55t46 -18q24 0 46.5 18t35.5 55z
" />
    <glyph glyph-name="ubreve" unicode="&#x16d;" horiz-adv-x="588" 
d="M398 0v65q-22 -28 -64.5 -52.5t-99.5 -24.5q-77 0 -128.5 49.5t-51.5 135.5v327h142v-283q0 -57 28 -80t68 -23q34 0 66.5 25t32.5 69v292h141v-500h-134zM462 723q-13 -69 -57 -113t-112 -44t-112 44t-57 113l87 3q13 -37 36 -55t46 -18q24 0 46.5 18t35.5 55z" />
    <glyph glyph-name="Uring" unicode="&#x16e;" horiz-adv-x="730" 
d="M664 314q0 -160 -77 -249t-222 -89q-144 0 -222 89t-78 249v432h156v-464q0 -40 12 -71t32 -52t46 -31.5t54 -10.5t54.5 10.5t46 31.5t31.5 52t12 71v464h155v-432zM365 1053q54 0 92.5 -37.5t38.5 -87.5t-38.5 -88t-92.5 -38t-92 38.5t-38 87.5t38 87t92 38zM365 989
q-25 0 -43 -18t-18 -43t18 -43t43 -18t43 18t18 43t-18 43t-43 18z" />
    <glyph glyph-name="uring" unicode="&#x16f;" horiz-adv-x="588" 
d="M398 0v65q-22 -28 -64.5 -52.5t-99.5 -24.5q-77 0 -128.5 49.5t-51.5 135.5v327h142v-283q0 -57 28 -80t68 -23q34 0 66.5 25t32.5 69v292h141v-500h-134zM293 817q54 0 92.5 -37.5t38.5 -87.5t-38.5 -88t-92.5 -38t-92 38.5t-38 87.5t38 87t92 38zM293 753
q-25 0 -43 -18t-18 -43t18 -43t43 -18t43 18t18 43t-18 43t-43 18z" />
    <glyph glyph-name="Uhungarumlaut" unicode="&#x170;" horiz-adv-x="730" 
d="M664 314q0 -160 -77 -249t-222 -89q-144 0 -222 89t-78 249v432h156v-464q0 -40 12 -71t32 -52t46 -31.5t54 -10.5t54.5 10.5t46 31.5t31.5 52t12 71v464h155v-432zM495 954h151l-133 -147h-104zM288 954h151l-133 -147h-106z" />
    <glyph glyph-name="uhungarumlaut" unicode="&#x171;" horiz-adv-x="588" 
d="M398 0v65q-22 -28 -64.5 -52.5t-99.5 -24.5q-77 0 -128.5 49.5t-51.5 135.5v327h142v-283q0 -57 28 -80t68 -23q34 0 66.5 25t32.5 69v292h141v-500h-134zM420 719h151l-133 -147h-104zM219 719h151l-133 -147h-106z" />
    <glyph glyph-name="Uogonek" unicode="&#x172;" horiz-adv-x="741" 
d="M429 -187q-55 0 -81 25.5t-26 58.5q0 23 9.5 43t25.5 36q-140 3 -216 92t-76 246v432h156v-464q0 -40 12 -71t32 -52t46 -31.5t54 -10.5t54.5 10.5t46 31.5t31.5 52t12 71v464h156v-432q0 -107 -35 -183.5t-102 -115.5h1l-56 -38q-22 -16 -30 -29.5t-8 -26.5t8.5 -22
t22.5 -9q12 0 21 4.5t16 9.5l39 -51q-16 -15 -44.5 -27t-68.5 -13z" />
    <glyph glyph-name="uogonek" unicode="&#x173;" horiz-adv-x="588" 
d="M432 -179q-54 0 -78.5 24t-24.5 55q0 28 17.5 51t40.5 39l11 7v68q-22 -28 -64.5 -52.5t-99.5 -24.5q-77 0 -128.5 49.5t-51.5 135.5v327h142v-283q0 -57 28 -80t68 -23q34 0 66.5 25t32.5 69v292h141v-500l-55 -37q-19 -13 -27.5 -23t-8.5 -20t8 -17.5t21 -7.5
q11 0 20 4t15 9l39 -50q-15 -14 -44.5 -25.5t-67.5 -11.5z" />
    <glyph glyph-name="Wcircumflex" unicode="&#x174;" horiz-adv-x="1027" 
d="M652 0l-138 505l-141 -505h-148l-210 746h161l136 -519l135 519h139l135 -518l136 518h155l-212 -746h-148zM585 807l-66 81l-66 -81h-126l119 147h146l120 -147h-127z" />
    <glyph glyph-name="wcircumflex" unicode="&#x175;" horiz-adv-x="830" 
d="M517 0l-100 303l-97 -303h-133l-172 500h147l93 -318l100 318h125l101 -319l92 319h142l-170 -500h-128zM484 572l-66 81l-66 -81h-126l119 147h146l120 -147h-127z" />
    <glyph glyph-name="Ycircumflex" unicode="&#x176;" horiz-adv-x="690" 
d="M422 0h-155v238l-257 508h169l167 -361l176 361h158l-258 -508v-238zM421 807l-66 81l-66 -81h-126l119 147h146l120 -147h-127z" />
    <glyph glyph-name="ycircumflex" unicode="&#x177;" horiz-adv-x="598" 
d="M317 -213h-147l72 197l-228 516h160l139 -353l124 353h147zM373 572l-66 81l-66 -81h-126l119 147h146l120 -147h-127z" />
    <glyph glyph-name="Ydieresis" unicode="&#x178;" horiz-adv-x="690" 
d="M422 0h-155v238l-257 508h169l167 -361l176 361h158l-258 -508v-238zM531 918v-111h-126v111h126zM306 918v-111h-127v111h127z" />
    <glyph glyph-name="Zacute" unicode="&#x179;" horiz-adv-x="668" 
d="M587 0h-554l-2 19l350 593h-306l57 134h487l3 -20l-351 -592h371zM537 954l-134 -147h-114l79 147h169z" />
    <glyph glyph-name="zacute" unicode="&#x17a;" horiz-adv-x="544" 
d="M457 0h-422l-8 14l253 366h-210l48 120h378l8 -14l-249 -366h249zM475 719l-134 -147h-114l79 147h169z" />
    <glyph glyph-name="Zdotaccent" unicode="&#x17b;" horiz-adv-x="668" 
d="M587 0h-554l-2 19l350 593h-306l57 134h487l3 -20l-351 -592h371zM419 919v-112h-144v112h144z" />
    <glyph glyph-name="zdotaccent" unicode="&#x17c;" horiz-adv-x="544" 
d="M457 0h-422l-8 14l253 366h-210l48 120h378l8 -14l-249 -366h249zM357 696v-121h-144v121h144z" />
    <glyph glyph-name="Zcaron" unicode="&#x17d;" horiz-adv-x="668" 
d="M587 0h-554l-2 19l350 593h-306l57 134h487l3 -20l-351 -592h371zM421 807h-146l-119 147h125l65 -81l66 81h129z" />
    <glyph glyph-name="zcaron" unicode="&#x17e;" horiz-adv-x="544" 
d="M457 0h-422l-8 14l253 366h-210l48 120h378l8 -14l-249 -366h249zM359 572h-146l-119 147h125l65 -81l66 81h129z" />
    <glyph glyph-name="florin" unicode="&#x192;" horiz-adv-x="525" 
d="M299 14q-10 -68 -29.5 -113.5t-50.5 -72t-75 -37.5t-104 -11v125q23 0 42 3t32.5 14t23.5 33t15 59q2 15 7 47.5t10.5 75.5t12.5 93.5t14 100.5h-74v123h92q3 25 6.5 47t5.5 38q9 65 32 106t55.5 63t73.5 30t85 8v-125q-33 0 -63 -13.5t-38 -69.5q-2 -16 -5 -37.5
t-7 -46.5h75v-123h-92q-7 -50 -14 -100.5t-12.5 -94t-10.5 -76t-7 -46.5z" />
    <glyph glyph-name="Aringacute" unicode="&#x1fa;" horiz-adv-x="767" 
d="M495 246l-113 308l-114 -308h227zM586 0l-45 123h-319l-46 -123h-161l292 746h154l292 -746h-167zM386 933q54 0 92.5 -37.5t38.5 -87.5t-38.5 -88t-92.5 -38t-92 38.5t-38 87.5t38 87t92 38zM386 869q-25 0 -43 -18t-18 -43t18 -43t43 -18t43 18t18 43t-18 43t-43 18z
M577 1104l-134 -147h-114l79 147h169z" />
    <glyph glyph-name="aringacute" unicode="&#x1fb;" horiz-adv-x="546" 
d="M265 65q37 0 61 23.5t24 57.5q0 32 -23.5 55t-61.5 23t-61 -23t-23 -55q0 -33 23 -57t61 -24zM359 0v49q-23 -28 -61 -47.5t-89 -19.5q-78 0 -125.5 46t-47.5 115q0 68 49 115t133 47q43 0 75.5 -11t55.5 -28v25q0 61 -30.5 84t-84.5 23q-23 0 -50.5 -3.5t-73.5 -12.5
l-2 115q46 10 79.5 13t75.5 3q113 0 170.5 -51t57.5 -136v-326h-132zM272 817q54 0 92.5 -37.5t38.5 -87.5t-38.5 -88t-92.5 -38t-92 38.5t-38 87.5t38 87t92 38zM272 753q-25 0 -43 -18t-18 -43t18 -43t43 -18t43 18t18 43t-18 43t-43 18zM462 988l-134 -147h-114l79 147
h169z" />
    <glyph glyph-name="AEacute" unicode="&#x1fc;" horiz-adv-x="978" 
d="M484 246l-112 334l-113 -334h225zM566 0l-41 123h-307l-42 -123h-161l282 746h474v-137h-269l61 -162h285v-126h-239l69 -184h285v-137h-397zM585 954l-134 -147h-114l79 147h169z" />
    <glyph glyph-name="aeacute" unicode="&#x1fd;" horiz-adv-x="919" 
d="M613 408q-48 0 -79 -27t-43 -76h243q-12 48 -43.5 75.5t-77.5 27.5zM265 59q37 0 62 24t25 61q0 32 -24 56t-63 24q-38 0 -61 -24t-23 -56q0 -36 23 -60.5t61 -24.5zM879 63q-40 -36 -100 -61.5t-141 -25.5q-72 0 -129 24.5t-94 66.5q-19 -34 -65 -62.5t-118 -28.5
q-90 0 -143 47.5t-53 117.5q0 68 49 116t133 48q40 0 72 -10t54 -26v22q0 61 -29 84t-83 23q-24 0 -50 -3t-72 -13l-2 115q46 10 78 13t75 3q59 0 101.5 -16t68.5 -44q34 34 81 52.5t102 18.5q57 0 107 -20.5t86 -57t57 -86.5t21 -109v-38h-398q9 -60 49 -92.5t105 -32.5
q51 0 90.5 17t70.5 44zM634 719l-134 -147h-114l79 147h169z" />
    <glyph glyph-name="Oslashacute" unicode="&#x1fe;" horiz-adv-x="917" 
d="M196 374q0 -47 16 -89.5t44 -75.5l281 405q-20 7 -41 10.5t-43 3.5q-54 0 -101 -20t-81.5 -54.5t-54.5 -81t-20 -98.5zM453 118q53 0 99.5 20.5t81 55t54.5 81.5t20 99q0 54 -21.5 102.5t-58.5 82.5l-288 -416q25 -12 53.5 -18.5t59.5 -6.5zM453 -24q-53 0 -103 12.5
t-93 34.5l-49 -71h-129l91 131q-60 54 -95 129.5t-35 161.5q0 82 32 154.5t87.5 126t131 84.5t162.5 31q45 0 87.5 -9t80.5 -25l40 58h129l-78 -112q69 -54 110.5 -134.5t41.5 -173.5q0 -82 -32 -155t-87.5 -126.5t-131 -85t-160.5 -31.5zM642 954l-134 -147h-114l79 147
h169z" />
    <glyph glyph-name="oslashacute" unicode="&#x1ff;" horiz-adv-x="654" 
d="M194 250q0 -20 5 -38t14 -34l127 210q-3 1 -6 1h-6q-57 0 -95.5 -41t-38.5 -98zM328 111q57 0 95.5 40.5t38.5 98.5q0 20 -5 39t-15 35l-128 -212q3 -1 6.5 -1h7.5zM328 -23q-23 0 -45.5 3t-43.5 9l-22 -37h-141l55 91q-46 37 -72 90.5t-26 116.5q0 57 22.5 107.5
t61.5 87t93.5 57.5t117.5 21q22 0 44 -3t42 -8l22 36h142l-55 -90q46 -37 73 -91t27 -117q0 -57 -22.5 -107.5t-61.5 -87t-93.5 -57.5t-117.5 -21zM505 718l-134 -147h-114l79 147h169z" />
    <glyph glyph-name="Scommaaccent" unicode="&#x218;" horiz-adv-x="527" 
d="M447 738l-2 -136q-27 13 -64 22.5t-72 9.5q-51 0 -74 -18t-23 -42q0 -31 28 -58.5t83 -75.5q91 -78 127.5 -133.5t36.5 -112.5q0 -48 -20 -86.5t-55 -65t-83 -40.5t-103 -14q-21 0 -46 2.5t-48.5 6.5t-45.5 9.5t-37 11.5l2 138q33 -16 81 -28.5t95 -12.5q49 0 76 23
t27 52q0 31 -28.5 63.5t-88.5 82.5q-44 38 -75.5 67.5t-50.5 56.5t-28 54t-9 59q0 36 15 70t45.5 60t78 42t112.5 16q35 0 74.5 -5.5t71.5 -17.5zM299 -56l-70 -175h-103l30 175h143z" />
    <glyph glyph-name="scommaaccent" unicode="&#x219;" horiz-adv-x="436" 
d="M231 516q34 0 63.5 -5t52.5 -14v-119q-30 13 -57 19.5t-45 6.5q-25 0 -39.5 -8.5t-14.5 -24.5q0 -13 16.5 -27t50.5 -36q83 -55 112 -93.5t29 -82.5q0 -63 -50.5 -105t-142.5 -43q-37 0 -78 9t-71 22v119q37 -18 71.5 -27t56.5 -9q32 -1 46.5 10.5t14.5 27.5
q0 12 -14.5 29t-67.5 51q-75 49 -98.5 84t-23.5 78q0 26 10.5 51t33.5 44.5t59 31t86 11.5zM278 -56l-70 -175h-103l30 175h143z" />
    <glyph glyph-name="Tcommaaccent" unicode="&#x21a;" horiz-adv-x="468" 
d="M156 0v607h-129v139h414v-139h-129v-607h-156zM306 -56l-70 -175h-103l30 175h143z" />
    <glyph glyph-name="tcommaaccent" unicode="&#x21b;" horiz-adv-x="325" 
d="M292 381h-59v-381h-141v381h-60v119h60v159l141 37v-196h59v-119zM233 -56l-70 -175h-103l30 175h143z" />
    <glyph glyph-name="dotlessj" unicode="&#x237;" horiz-adv-x="253" 
d="M-25 -97h14q29 0 48 22.5t19 62.5v512h141v-515q0 -106 -53 -155t-156 -49h-13v122z" />
    <glyph glyph-name="schwa" unicode="&#x259;" horiz-adv-x="621" 
d="M305 -24q-57 0 -107 20.5t-86 57t-57 86.5t-21 109v38h399q-9 60 -49.5 92.5t-106.5 32.5q-51 0 -90.5 -17t-69.5 -44l-77 86q40 36 100.5 61.5t140.5 25.5q71 0 127 -21t95 -57.5t60 -86.5t21 -109t-20.5 -109.5t-57 -87t-88 -57t-113.5 -20.5zM307 92q46 0 78 27t43 76
h-243q12 -48 43.5 -75.5t78.5 -27.5z" />
    <glyph glyph-name="circumflex" unicode="&#x2c6;" horiz-adv-x="534" 
d="M331 643l-66 81l-66 -81h-126l119 147h146l120 -147h-127z" />
    <glyph glyph-name="caron" unicode="&#x2c7;" horiz-adv-x="534" 
d="M338 643h-146l-119 147h125l65 -81l66 81h129z" />
    <glyph glyph-name="breve" unicode="&#x2d8;" horiz-adv-x="534" 
d="M436 795q-13 -69 -57 -113t-112 -44t-112 44t-57 113l87 3q13 -37 36 -55t46 -18q24 0 46.5 18t35.5 55z" />
    <glyph glyph-name="dotaccent" unicode="&#x2d9;" horiz-adv-x="534" 
d="M339 737v-112h-144v112h144z" />
    <glyph glyph-name="ring" unicode="&#x2da;" horiz-adv-x="534" 
d="M267 885q54 0 92.5 -37.5t38.5 -87.5t-38.5 -88t-92.5 -38t-92 38.5t-38 87.5t38 87t92 38zM267 821q-25 0 -43 -18t-18 -43t18 -43t43 -18t43 18t18 43t-18 43t-43 18z" />
    <glyph glyph-name="ogonek" unicode="&#x2db;" horiz-adv-x="534" 
d="M291 -31q-20 -14 -29 -24.5t-9 -20.5q0 -12 8.5 -20t22.5 -8q11 0 20.5 4.5t15.5 9.5l40 -51q-15 -15 -44 -27t-69 -13q-57 0 -82 25.5t-25 57.5q0 29 18 52.5t44 39.5l37 24l106 -12z" />
    <glyph glyph-name="tilde" unicode="&#x2dc;" horiz-adv-x="534" 
d="M153 642l-109 3q-6 90 31.5 125.5t91.5 35.5q24 0 48.5 -8.5t47.5 -18.5t43 -18.5t34 -8.5q16 0 28.5 10t11.5 41l108 -3q5 -77 -27.5 -116t-92.5 -39q-25 0 -50 8t-48 18t-43 18t-34 8q-16 0 -29 -10.5t-11 -44.5z" />
    <glyph glyph-name="hungarumlaut" unicode="&#x2dd;" horiz-adv-x="534" 
d="M386 790h151l-133 -147h-104zM179 790h151l-133 -147h-106z" />
    <glyph glyph-name="acute.cmb" unicode="&#x301;" 
d="M170 790l-134 -147h-114l79 147h169z" />
    <glyph glyph-name="mu" unicode="&#x3bc;" horiz-adv-x="590" 
d="M177 -194l-121 -26v720h142v-290q0 -49 31 -72.5t65 -23.5t66 24t32 70v292h142v-500h-121v56q-16 -28 -47 -48t-74 -20q-37 0 -67.5 17t-47.5 47v-246z" />
    <glyph glyph-name="Wgrave" unicode="&#x1e80;" horiz-adv-x="1027" 
d="M652 0l-138 505l-141 -505h-148l-210 746h161l136 -519l135 519h139l135 -518l136 518h155l-212 -746h-148zM324 954h171l81 -147h-118z" />
    <glyph glyph-name="wgrave" unicode="&#x1e81;" horiz-adv-x="830" 
d="M517 0l-100 303l-97 -303h-133l-172 500h147l93 -318l100 318h125l101 -319l92 319h142l-170 -500h-128zM223 719h171l81 -147h-118z" />
    <glyph glyph-name="Wacute" unicode="&#x1e82;" horiz-adv-x="1027" 
d="M652 0l-138 505l-141 -505h-148l-210 746h161l136 -519l135 519h139l135 -518l136 518h155l-212 -746h-148zM709 954l-134 -147h-114l79 147h169z" />
    <glyph glyph-name="wacute" unicode="&#x1e83;" horiz-adv-x="830" 
d="M517 0l-100 303l-97 -303h-133l-172 500h147l93 -318l100 318h125l101 -319l92 319h142l-170 -500h-128zM609 719l-134 -147h-114l79 147h169z" />
    <glyph glyph-name="Wdieresis" unicode="&#x1e84;" horiz-adv-x="1027" 
d="M652 0l-138 505l-141 -505h-148l-210 746h161l136 -519l135 519h139l135 -518l136 518h155l-212 -746h-148zM695 918v-111h-126v111h126zM470 918v-111h-127v111h127z" />
    <glyph glyph-name="wdieresis" unicode="&#x1e85;" horiz-adv-x="830" 
d="M517 0l-100 303l-97 -303h-133l-172 500h147l93 -318l100 318h125l101 -319l92 319h142l-170 -500h-128zM585 683v-111h-126v111h126zM377 683v-111h-126v111h126z" />
    <glyph glyph-name="Ygrave" unicode="&#x1ef2;" horiz-adv-x="690" 
d="M422 0h-155v238l-257 508h169l167 -361l176 361h158l-258 -508v-238zM160 954h171l81 -147h-118z" />
    <glyph glyph-name="ygrave" unicode="&#x1ef3;" horiz-adv-x="598" 
d="M317 -213h-147l72 197l-228 516h160l139 -353l124 353h147zM113 719h171l81 -147h-118z" />
    <glyph glyph-name="uni2000" unicode="&#x2000;" horiz-adv-x="500" 
 />
    <glyph glyph-name="uni2001" unicode="&#x2001;" horiz-adv-x="1000" 
 />
    <glyph glyph-name="uni2002" unicode="&#x2002;" horiz-adv-x="500" 
 />
    <glyph glyph-name="uni2003" unicode="&#x2003;" horiz-adv-x="1000" 
 />
    <glyph glyph-name="uni2004" unicode="&#x2004;" horiz-adv-x="333" 
 />
    <glyph glyph-name="uni2005" unicode="&#x2005;" horiz-adv-x="250" 
 />
    <glyph glyph-name="uni2009" unicode="&#x2009;" horiz-adv-x="166" 
 />
    <glyph glyph-name="uni200A" unicode="&#x200a;" horiz-adv-x="100" 
 />
    <glyph glyph-name="uni200B" unicode="&#x200b;" horiz-adv-x="0" 
 />
    <glyph glyph-name="endash" unicode="&#x2013;" horiz-adv-x="558" 
d="M511 332v-111h-464v111h464z" />
    <glyph glyph-name="emdash" unicode="&#x2014;" horiz-adv-x="758" 
d="M711 332v-111h-664v111h664z" />
    <glyph glyph-name="emdash.salt_em" unicode="&#x2015;" horiz-adv-x="1034" 
d="M1017 332v-111h-1000v111h1000z" />
    <glyph glyph-name="quoteleft" unicode="&#x2018;" horiz-adv-x="354" 
d="M290 746l-63 -298h-162l116 298h109z" />
    <glyph glyph-name="quoteright" unicode="&#x2019;" horiz-adv-x="350" 
d="M68 448l65 298h161l-115 -298h-111z" />
    <glyph glyph-name="quotesinglbase" unicode="&#x201a;" horiz-adv-x="352" 
d="M49 -298l65 298h161l-115 -298h-111z" />
    <glyph glyph-name="quotedblleft" unicode="&#x201c;" horiz-adv-x="566" 
d="M290 746l-63 -298h-162l116 298h109zM502 746l-63 -298h-162l116 298h109z" />
    <glyph glyph-name="quotedblright" unicode="&#x201d;" horiz-adv-x="562" 
d="M67 448l65 298h161l-115 -298h-111zM281 448l65 298h161l-115 -298h-111z" />
    <glyph glyph-name="quotedblbase" unicode="&#x201e;" horiz-adv-x="566" 
d="M48 -298l65 298h161l-115 -298h-111zM262 -298l65 298h161l-115 -298h-111z" />
    <glyph glyph-name="dagger" unicode="&#x2020;" horiz-adv-x="499" 
d="M448 456h-126v-566l-145 30v536h-126v112h126v178h145v-178h126v-112z" />
    <glyph glyph-name="daggerdbl" unicode="&#x2021;" horiz-adv-x="500" 
d="M448 205h-126v-315l-144 30v285h-127v112h127v139h-127v112h127v178h144v-178h126v-112h-126v-139h126v-112z" />
    <glyph glyph-name="bullet" unicode="&#x2022;" horiz-adv-x="311" 
d="M69 394h172v-154h-172v154z" />
    <glyph glyph-name="ellipsis" unicode="&#x2026;" horiz-adv-x="828" 
d="M69 151h165v-151h-165v151zM331 151h165v-151h-165v151zM593 151h165v-151h-165v151z" />
    <glyph glyph-name="perthousand" unicode="&#x2030;" horiz-adv-x="1269" 
d="M750 746l-486 -746h-118l484 746h120zM215 746q76 0 125.5 -47.5t49.5 -140.5v-27q0 -92 -50 -139.5t-125 -47.5q-74 0 -124 47.5t-50 139.5v27q0 93 50 140.5t124 47.5zM278 532v25q0 56 -17.5 83.5t-45.5 27.5q-27 0 -45 -27.5t-18 -83.5v-25q0 -56 18 -83t45 -27
q28 0 45.5 27t17.5 83zM679 402q75 0 124.5 -47.5t49.5 -140.5v-27q0 -92 -49.5 -139.5t-124.5 -47.5q-74 0 -124.5 47.5t-50.5 139.5v27q0 93 50.5 140.5t124.5 47.5zM1055 402q75 0 124.5 -47.5t49.5 -140.5v-27q0 -92 -49.5 -139.5t-124.5 -47.5q-73 0 -123.5 47.5
t-50.5 139.5v27q0 93 50.5 140.5t123.5 47.5zM1118 188v25q0 56 -17.5 84t-45.5 28q-27 0 -45 -28t-18 -84v-25q0 -57 18 -84t45 -27q28 0 45.5 27t17.5 84zM741 188v25q0 56 -17 83.5t-45 27.5t-45.5 -27.5t-17.5 -83.5v-25q0 -56 17.5 -83t45.5 -27t45 27t17 83z" />
    <glyph glyph-name="minute" unicode="&#x2032;" horiz-adv-x="295" 
d="M50 409l60 337h135l-60 -337h-135z" />
    <glyph glyph-name="second" unicode="&#x2033;" horiz-adv-x="510" 
d="M50 409l60 337h135l-60 -337h-135zM265 409l60 337h135l-60 -337h-135z" />
    <glyph glyph-name="guilsinglleft" unicode="&#x2039;" horiz-adv-x="397" 
d="M337 0h-122l-161 248v3l161 249h123l-161 -250z" />
    <glyph glyph-name="guilsinglright" unicode="&#x203a;" horiz-adv-x="397" 
d="M181 0h-122l161 251l-160 249h121l161 -249v-3z" />
    <glyph glyph-name="fraction" unicode="&#x2044;" horiz-adv-x="343" 
d="M334 746h128l-454 -746h-126z" />
    <glyph glyph-name="zero.sups" unicode="&#x2070;" horiz-adv-x="509" 
d="M255 761q84 0 139 -58.5t55 -174.5v-32q0 -114 -55 -173t-139 -59q-83 0 -139 59t-56 173v32q0 116 56 174.5t139 58.5zM335 495v32q0 69 -22.5 103t-57.5 34t-58.5 -34t-23.5 -103v-32q0 -70 23.5 -103.5t58.5 -33.5q34 0 57 33.5t23 103.5z" />
    <glyph glyph-name="four.sups" unicode="&#x2074;" horiz-adv-x="485" 
d="M272 449v142l-96 -142h96zM419 356h-33v-77h-114v77h-222l-10 22l247 368h99v-297h58z" />
    <glyph glyph-name="five.sups" unicode="&#x2075;" horiz-adv-x="455" 
d="M174 264q-27 0 -62.5 7t-60.5 21v96q28 -15 57.5 -22t66.5 -7q43 0 71.5 20t28.5 54q0 29 -31.5 49t-85.5 20q-23 0 -44.5 -3t-40.5 -9l60 256h273l-29 -96h-168l-18 -65h3.5h3.5q96 0 144.5 -42.5t48.5 -108.5q0 -75 -58.5 -122.5t-158.5 -47.5z" />
    <glyph glyph-name="six.sups" unicode="&#x2076;" horiz-adv-x="475" 
d="M240 264q-82 0 -136 45.5t-54 126.5q0 40 16 81t41 80t56.5 77t61.5 72h135q-41 -43 -80.5 -88t-69.5 -87q16 8 34 13t38 5q59 0 102.5 -43.5t43.5 -109.5q0 -35 -13.5 -66.5t-38.5 -55t-59.5 -37t-76.5 -13.5zM240 507q-32 0 -55 -22t-23 -53q0 -30 23 -52t55 -22
q31 0 53.5 22t22.5 52q0 31 -22.5 53t-53.5 22z" />
    <glyph glyph-name="seven.sups" unicode="&#x2077;" horiz-adv-x="457" 
d="M216 279h-127l165 366h-204l30 101h339z" />
    <glyph glyph-name="eight.sups" unicode="&#x2078;" horiz-adv-x="471" 
d="M235 264q-90 0 -139.5 42.5t-49.5 109.5q0 38 20.5 69t58.5 49q-26 16 -40 41t-14 55q0 53 43 92t121 39q80 0 122 -39t42 -92q0 -30 -13.5 -55t-40.5 -41q38 -19 58.5 -49.5t20.5 -68.5q0 -67 -50 -109.5t-139 -42.5zM235 562q23 0 40.5 16t17.5 41q0 23 -17 37.5
t-41 14.5t-41.5 -14.5t-17.5 -37.5q0 -25 17 -41t42 -16zM235 352q32 0 54.5 20t22.5 51q0 30 -22.5 49t-54.5 19t-54.5 -19t-22.5 -49q0 -31 22.5 -51t54.5 -20z" />
    <glyph glyph-name="nine.sups" unicode="&#x2079;" horiz-adv-x="475" 
d="M250 278h-135q42 43 81.5 88t69.5 88q-16 -8 -34.5 -13t-37.5 -5q-60 0 -104 43.5t-44 109.5q0 35 14 66.5t39 54.5t60 36.5t77 13.5q81 0 135 -45.5t54 -126.5q0 -40 -16 -80.5t-41 -80t-56.5 -77.5t-61.5 -72zM236 517q31 0 54 22t23 53t-23 53t-54 22q-33 0 -55 -22
t-22 -53t22 -53t55 -22z" />
    <glyph glyph-name="zero.sinf" unicode="&#x2080;" horiz-adv-x="472" 
d="M236 282q84 0 139 -58.5t55 -174.5v-32q0 -114 -55 -173t-139 -59q-83 0 -139 59t-56 173v32q0 116 56 174.5t139 58.5zM316 16v32q0 69 -22.5 103t-57.5 34t-58.5 -34t-23.5 -103v-32q0 -70 23.5 -103.5t58.5 -33.5q34 0 57 33.5t23 103.5z" />
    <glyph glyph-name="one.sinf" unicode="&#x2081;" horiz-adv-x="292" 
d="M237 -200h-113v306l-84 -81v145l109 97h88v-467z" />
    <glyph glyph-name="two.sinf" unicode="&#x2082;" horiz-adv-x="414" 
d="M349 -200h-318l-8 16q12 15 37.5 47t53.5 66.5t53 65.5t35 44q19 25 28.5 42.5t9.5 39.5q0 25 -19.5 43.5t-54.5 19.5q-22 0 -47 -8.5t-52 -29.5v111q27 13 57 19t57 6q81 -1 129 -43.5t48 -105.5q-1 -49 -23 -79.5t-48 -63.5q-12 -16 -35 -43t-47 -53h182z" />
    <glyph glyph-name="three.sinf" unicode="&#x2083;" horiz-adv-x="376" 
d="M156 -215q-28 0 -65.5 5t-60.5 18v92q19 -13 47 -18t44 -5q51 -1 81 17t30 47q0 28 -28 45t-73 17h-30l4 89h26q34 0 56.5 15t22.5 38q0 21 -20.5 33t-53.5 12q-18 0 -40.5 -3.5t-41.5 -12.5l6 96q18 5 40.5 8.5t58.5 3.5q70 1 117 -34t47 -87q-1 -31 -17.5 -59
t-44.5 -45q37 -17 60.5 -49t23.5 -72q0 -65 -52.5 -108.5t-136.5 -42.5z" />
    <glyph glyph-name="four.sinf" unicode="&#x2084;" horiz-adv-x="447" 
d="M253 -30v142l-96 -142h96zM400 -123h-33v-77h-114v77h-222l-10 22l247 368h99v-297h58z" />
    <glyph glyph-name="five.sinf" unicode="&#x2085;" horiz-adv-x="417" 
d="M155 -215q-27 0 -62.5 7t-60.5 21v96q28 -15 57.5 -22t66.5 -7q43 0 71.5 20t28.5 54q0 29 -31.5 49t-85.5 20q-23 0 -44.5 -3t-40.5 -9l60 256h273l-29 -96h-168l-18 -65h3.5h3.5q96 0 144.5 -42.5t48.5 -108.5q0 -75 -58.5 -122.5t-158.5 -47.5z" />
    <glyph glyph-name="six.sinf" unicode="&#x2086;" horiz-adv-x="437" 
d="M221 -215q-82 0 -136 45.5t-54 126.5q0 40 16 81t41 80t56.5 77t61.5 72h135q-41 -43 -80.5 -88t-69.5 -87q16 8 34 13t38 5q59 0 102.5 -43.5t43.5 -109.5q0 -35 -13.5 -66.5t-38.5 -55t-59.5 -37t-76.5 -13.5zM221 28q-32 0 -55 -22t-23 -53q0 -30 23 -52t55 -22
q31 0 53.5 22t22.5 52q0 31 -22.5 53t-53.5 22z" />
    <glyph glyph-name="seven.sinf" unicode="&#x2087;" horiz-adv-x="419" 
d="M197 -200h-127l165 366h-204l30 101h339z" />
    <glyph glyph-name="eight.sinf" unicode="&#x2088;" horiz-adv-x="432" 
d="M216 -215q-90 0 -139.5 42.5t-49.5 109.5q0 38 20.5 69t58.5 49q-26 16 -40 41t-14 55q0 53 43 92t121 39q80 0 122 -39t42 -92q0 -30 -13.5 -55t-40.5 -41q38 -19 58.5 -49.5t20.5 -68.5q0 -67 -50 -109.5t-139 -42.5zM216 83q23 0 40.5 16t17.5 41q0 23 -17 37.5
t-41 14.5t-41.5 -14.5t-17.5 -37.5q0 -25 17 -41t42 -16zM216 -127q32 0 54.5 20t22.5 51q0 30 -22.5 49t-54.5 19t-54.5 -19t-22.5 -49q0 -31 22.5 -51t54.5 -20z" />
    <glyph glyph-name="nine.sinf" unicode="&#x2089;" horiz-adv-x="437" 
d="M231 -201h-135q42 43 81.5 88t69.5 88q-16 -8 -34.5 -13t-37.5 -5q-60 0 -104 43.5t-44 109.5q0 35 14 66.5t39 54.5t60 36.5t77 13.5q81 0 135 -45.5t54 -126.5q0 -40 -16 -80.5t-41 -80t-56.5 -77.5t-61.5 -72zM217 38q31 0 54 22t23 53t-23 53t-54 22q-33 0 -55 -22
t-22 -53t22 -53t55 -22z" />
    <glyph glyph-name="Euro" unicode="&#x20ac;" horiz-adv-x="660" 
d="M609 8q-31 -15 -64 -21.5t-70 -6.5q-65 0 -122 21t-102 58.5t-76.5 89t-47.5 112.5h-103l15 73h76q-1 10 -1.5 20t-0.5 20v14.5t1 14.5h-90l15 74h86q14 62 45.5 115.5t76.5 91.5t103 60t125 22q37 0 70 -6.5t64 -22.5v-132q-26 16 -54.5 25t-59.5 9q-75 0 -132 -46
t-82 -116h270l-17 -74h-270q-1 -7 -1 -14v-14q0 -10 1 -20.5t2 -20.5h255l-17 -73h-219q26 -67 82 -110.5t128 -43.5q31 0 59.5 9.5t54.5 25.5v-134z" />
    <glyph glyph-name="copyrightsound" unicode="&#x2117;" horiz-adv-x="902" 
d="M452 756q83 0 154.5 -30t123.5 -82t81.5 -122t29.5 -149t-29.5 -149t-81.5 -122t-123.5 -82t-154.5 -30t-155 30t-124 82t-81.5 122t-29.5 149t29.5 149t81.5 122t124 82t155 30zM452 711q-70 0 -132 -26.5t-108 -72t-72.5 -107.5t-26.5 -132t26.5 -132t72.5 -107.5
t108 -72t132 -26.5q69 0 131 26.5t107.5 72t72 107.5t26.5 132t-26.5 132t-72 107.5t-107.5 72t-131 26.5zM464 286h-22v-127h-121v435h141q38 0 72.5 -7t60 -24.5t40.5 -48t15 -77.5q0 -42 -17.5 -71t-44 -46.5t-60 -25.5t-64.5 -8zM475 492h-35v-105h35q26 0 43 14t17 36
q0 26 -14.5 40.5t-45.5 14.5z" />
    <glyph glyph-name="trademark" unicode="&#x2122;" horiz-adv-x="694" 
d="M95 442v230h-62v74h203v-74h-60v-230h-81zM442 495l-84 128v-181h-79v304h88l85 -137l83 137h87v-304h-80v179l-82 -126h-18z" />
    <glyph glyph-name="arrowleft" unicode="&#x2190;" horiz-adv-x="784" 
d="M501 116v-8h-196l-287 287v16l287 287h196v-8l-209 -209h470v-156h-470z" />
    <glyph glyph-name="arrowup" unicode="&#x2191;" horiz-adv-x="784" 
d="M679 262l-209 208v-470h-156v470l-208 -208h-9v195l287 287h16l287 -287v-195h-8z" />
    <glyph glyph-name="arrowright" unicode="&#x2192;" horiz-adv-x="784" 
d="M479 103h-196v8l209 209h-470v156h470l-209 209v8h196l288 -287v-16z" />
    <glyph glyph-name="arrowdown" unicode="&#x2193;" horiz-adv-x="784" 
d="M400 2h-16l-287 287v195h9l208 -208v470h156v-470l209 208h8v-195z" />
    <glyph glyph-name="uni2196" unicode="&#x2196;" horiz-adv-x="784" 
d="M693 162l-110 -110l-332 332v-295l-7 -6l-137 138l-1 406l12 11h405l139 -138l-5 -6l-296 1z" />
    <glyph glyph-name="uni2197" unicode="&#x2197;" horiz-adv-x="784" 
d="M534 92v296l-334 -334l-109 110l332 332h-295l-6 6l139 139h405l11 -11l1 -406l-138 -139z" />
    <glyph glyph-name="uni2198" unicode="&#x2198;" horiz-adv-x="784" 
d="M260 74l-139 139l6 6h296l-333 333l111 109l332 -333v296l7 7l137 -140v-405l-11 -11z" />
    <glyph glyph-name="uni2199" unicode="&#x2199;" horiz-adv-x="784" 
d="M523 72l-405 1l-12 10v407l139 138l5 -7v-296l333 334l110 -110l-333 -333h297l5 -6z" />
    <glyph glyph-name="minus" unicode="&#x2212;" horiz-adv-x="609" 
d="M561 408v-116h-514v116h514z" />
    <glyph glyph-name="radical" unicode="&#x221a;" horiz-adv-x="703" 
d="M402 0h-144l-121 340h-85v115h169l109 -316l225 607h126z" />
    <glyph glyph-name="infinity" unicode="&#x221e;" horiz-adv-x="709" 
d="M512 152q-57 0 -94 32.5t-63 71.5q-31 -47 -69.5 -75.5t-93.5 -28.5q-36 0 -66.5 15.5t-52 41t-34 60t-12.5 72.5t12.5 72.5t35 60t54 41t68.5 15.5q56 0 93 -31t65 -71q33 52 72.5 77t88.5 25q36 0 67 -15.5t53 -41t34.5 -60t12.5 -72.5t-13 -72.5t-35.5 -60t-54 -41
t-68.5 -15.5zM206 259q37 0 59 24.5t36 52.5q-25 39 -43.5 63t-54.5 24q-32 0 -52.5 -24.5t-20.5 -57.5t21 -57.5t55 -24.5zM507 259q31 0 51.5 24.5t20.5 57.5t-21.5 57.5t-54.5 24.5q-35 0 -56.5 -21.5t-38.5 -54.5q22 -37 42 -62.5t57 -25.5z" />
    <glyph glyph-name="approxequal" unicode="&#x2248;" horiz-adv-x="616" 
d="M159 381l-104 17q0 46 12 76.5t31.5 49t44 26t49.5 7.5t54 -11t57.5 -24t54.5 -24.5t46 -11.5q19 0 36 8.5t17 39.5l103 -18q0 -46 -12 -76.5t-31 -48.5t-44 -25.5t-51 -7.5q-25 0 -54 11t-57.5 24t-54.5 24t-46 11q-19 1 -35 -7.5t-16 -39.5zM159 148l-104 18
q0 45 12 75.5t31.5 48.5t44 25.5t49.5 7.5t54 -11t57.5 -24t54.5 -24t46 -11q19 0 36 8.5t17 39.5l103 -18q0 -46 -12 -76.5t-31 -48.5t-44 -25.5t-51 -7.5q-25 0 -54 11t-57.5 24t-54.5 24t-46 11q-19 0 -35 -8t-16 -39z" />
    <glyph glyph-name="notequal" unicode="&#x2260;" horiz-adv-x="586" 
d="M236 11l-125 -1l63 166h-120v107h160l43 113h-203v107h244l63 167h124l-63 -167h110v-107h-151l-42 -113h193v-107h-234z" />
    <glyph glyph-name="lessequal" unicode="&#x2264;" horiz-adv-x="595" 
d="M554 150l-514 170v116l514 173v-121l-379 -110l379 -104v-124zM40 119h514v-99h-514v99z" />
    <glyph glyph-name="greaterequal" unicode="&#x2265;" horiz-adv-x="595" 
d="M41 150v124l379 104l-379 110v121l514 -173v-116zM555 118v-98h-514v98h514z" />
    <glyph glyph-name="lozenge" unicode="&#x25ca;" horiz-adv-x="642" 
d="M585 373l-216 -373h-94l-218 373l217 373h95zM323 118l147 253l-149 258l-148 -255z" />
    <glyph glyph-name="commaaccent" unicode="&#xf6c3;" horiz-adv-x="534" 
d="M337 -30l-70 -175h-103l30 175h143z" />
    <glyph glyph-name="apple" unicode="&#xf8ff;" horiz-adv-x="630" 
d="M27 -101v761h576v-761h-576zM108 560v-560h180q52 0 99.5 18t83.5 53.5t58 88t22 121.5q0 68 -22 120t-59 87.5t-85 53.5t-100 18h-177zM254 17h-138v525h138q43 0 83.5 -17t72 -49.5t50.5 -81.5t19 -113q0 -65 -19 -114.5t-50.5 -82.5t-72 -50t-83.5 -17zM254 535h-131
v-510h131q41 0 80.5 16.5t69.5 49t48.5 80.5t18.5 110t-18.5 109.5t-48.5 79.5t-69.5 48.5t-80.5 16.5zM194 78v404h94q34 0 66 -13t56.5 -38t39 -63t14.5 -87q0 -50 -14.5 -88t-39 -63.5t-56.5 -38.5t-66 -13h-94z" />
    <glyph glyph-name="uniFEFF" unicode="&#xfeff;" horiz-adv-x="0" 
 />
    <glyph glyph-name="Jacute" horiz-adv-x="403" 
d="M25 0v145q18 -10 37 -14.5t37 -4.5q37 0 60 30t23 117v473h155v-526q0 -115 -49 -176t-168 -61q-26 0 -50 3.5t-45 13.5zM449 954l-134 -147h-114l79 147h169z" />
    <glyph glyph-name="jacute" horiz-adv-x="253" 
d="M-25 -97h14q29 0 48 22.5t19 62.5v512h141v-515q0 -106 -53 -155t-156 -49h-13v122zM318 719l-134 -147h-114l79 147h169z" />
    <glyph glyph-name="I_Jacute" horiz-adv-x="690" 
d="M66 0v746h155v-746h-155zM334 954l-134 -147h-114l79 147h169zM312 0v145q18 -10 37 -14.5t37 -4.5q37 0 60 30t23 117v473h155v-526q0 -115 -49 -176t-168 -61q-26 0 -50 3.5t-45 13.5zM736 954l-134 -147h-114l79 147h169z" />
    <glyph glyph-name="c_h" horiz-adv-x="1046" 
d="M452 133v-125q-20 -13 -55.5 -18t-63.5 -5q-63 0 -117.5 20t-94 55t-62.5 84t-23 106t23 106t62.5 84t94 55t117.5 20q28 0 62.5 -5t56.5 -18v-126h-4q-23 16 -51.5 22.5t-57.5 6.5q-65 0 -109 -42t-44 -103q0 -62 44 -103.5t109 -41.5q29 0 57 6t52 22h4zM655 291v-291
h-142v780h138v-344q22 28 63.5 52t98.5 24q76 0 127 -50t51 -135v-327h-142v283q0 56 -28 79.5t-67 23.5q-34 0 -66.5 -25t-32.5 -70z" />
    <glyph glyph-name="c_k" horiz-adv-x="1031" 
d="M452 133v-125q-20 -13 -55.5 -18t-63.5 -5q-63 0 -117.5 20t-94 55t-62.5 84t-23 106t23 106t62.5 84t94 55t117.5 20q28 0 62.5 -5t56.5 -18v-126h-4q-23 16 -51.5 22.5t-57.5 6.5q-65 0 -109 -42t-44 -103q0 -62 44 -103.5t109 -41.5q29 0 57 6t52 22h4zM839 0
l-136 211l-48 -53v-158h-142v780h142v-450l165 170h177l-189 -197l202 -303h-171z" />
    <glyph glyph-name="i_jacute" horiz-adv-x="510" 
d="M199 500v-500h-141v500h141zM319 719l-134 -147h-114l79 147h169zM232 -97h14q29 0 48 22.5t19 62.5v512h141v-515q0 -106 -53 -155t-156 -49h-13v122zM575 719l-134 -147h-114l79 147h169z" />
    <glyph glyph-name="caron.vertical" orientation="v" 
d="M51 -30l-57 -175h-81l18 175h120z" />
    <glyph glyph-name="endash.salt_en" horiz-adv-x="534" 
d="M517 332v-111h-500v111h500z" />
    <glyph glyph-name="emdash.uc_salt_em" horiz-adv-x="1034" 
d="M1017 410v-111h-1000v111h1000z" />
    <glyph glyph-name="endash.uc_salt_en" horiz-adv-x="534" 
d="M517 410v-111h-500v111h500z" />
    <glyph glyph-name="registered.salt_big" horiz-adv-x="902" 
d="M452 756q83 0 154.5 -30t123.5 -82t81.5 -122t29.5 -149t-29.5 -149t-81.5 -122t-123.5 -82t-154.5 -30t-155 30t-124 82t-81.5 122t-29.5 149t29.5 149t81.5 122t124 82t155 30zM452 711q-70 0 -132 -26.5t-107.5 -72t-72.5 -107.5t-27 -132q0 -69 27 -131t72.5 -107.5
t107.5 -72.5t132 -27q69 0 131 27t107.5 72.5t72 107.5t26.5 131q0 70 -26.5 132t-72 107.5t-107.5 72t-131 26.5zM452 492h-22v-107h23q27 0 42 13.5t15 39.5q0 28 -16.5 41t-41.5 13zM525 161l-85 134h-7v-134h-121v433h134q31 0 63 -6.5t57.5 -23t42 -45.5t16.5 -73
q0 -43 -20.5 -73t-50.5 -48l103 -154l-9 -10h-123z" />
    <glyph glyph-name="acute.lc" 
d="M170 790l-134 -147h-114l79 147h169z" />
    <glyph glyph-name="grave.lc" 
d="M-132 790h171l81 -147h-118z" />
    <glyph glyph-name="hungarumlaut.lc" 
d="M133 790h151l-133 -147h-104zM-68 790h151l-133 -147h-106z" />
    <glyph glyph-name="circumflex.lc" 
d="M81 643l-66 81l-66 -81h-126l119 147h146l120 -147h-127z" />
    <glyph glyph-name="caron.lc" 
d="M88 643h-146l-119 147h125l65 -81l66 81h129z" />
    <glyph glyph-name="breve.lc" 
d="M186 795q-13 -69 -57 -113t-112 -44t-112 44t-57 113l87 3q13 -37 36 -55t46 -18q24 0 46.5 18t35.5 55z" />
    <glyph glyph-name="tilde.lc" 
d="M-85 642l-106 4q-5 87 29.5 121.5t85.5 34.5q22 0 45 -8t43.5 -17.5t38 -17.5t30.5 -8q16 0 26.5 9t10.5 38l106 -3q4 -74 -26 -112t-87 -38q-23 0 -46 7.5t-44 16.5t-39 16.5t-31 7.5q-14 0 -25.5 -10t-10.5 -41z" />
    <glyph glyph-name="macron.lc" 
d="M165 772v-104h-296v104h296z" />
    <glyph glyph-name="dieresis.lc" 
d="M184 786v-111h-126v111h126zM-24 786v-111h-126v111h126z" />
    <glyph glyph-name="dotaccent.lc" 
d="M89 746v-121h-144v121h144z" />
    <glyph glyph-name="ring.lc" 
d="M17 885q54 0 92.5 -37.5t38.5 -87.5t-38.5 -88t-92.5 -38t-92 38.5t-38 87.5t38 87t92 38zM17 821q-25 0 -43 -18t-18 -43t18 -43t43 -18t43 18t18 43t-18 43t-43 18z" />
    <glyph glyph-name="cedilla.lc" 
d="M-13 -195q-15 0 -37 3.5t-41 10.5v59h1q19 -5 38 -8t29 -3q22 0 35.5 8t13.5 22q0 13 -17.5 21.5t-45.5 8.5h-18l-2 7l28 80l61 -3l-15 -35q45 -6 70.5 -28t25.5 -55q0 -38 -34.5 -63t-91.5 -25z" />
    <glyph glyph-name="ogonek.lc" 
d="M40 -31q-19 -13 -27 -23t-8 -20t7.5 -17.5t20.5 -7.5q11 0 20 4t15 9l38 -50q-14 -14 -43 -25.5t-67 -11.5q-54 0 -79 24t-25 55q0 28 17 50.5t42 38.5l36 23l108 -12z" />
    <glyph glyph-name="commaaccent.lc" 
d="M87 -30l-70 -175h-103l30 175h143z" />
    <glyph glyph-name="grave.cmb" 
d="M-132 790h171l81 -147h-118z" />
    <glyph glyph-name="hungarumlaut.cmb" 
d="M136 790h151l-133 -147h-104zM-71 790h151l-133 -147h-106z" />
    <glyph glyph-name="circumflex.cmb" 
d="M81 643l-66 81l-66 -81h-126l119 147h146l120 -147h-127z" />
    <glyph glyph-name="caron.cmb" 
d="M88 643h-146l-119 147h125l65 -81l66 81h129z" />
    <glyph glyph-name="breve.cmb" 
d="M186 795q-13 -69 -57 -113t-112 -44t-112 44t-57 113l87 3q13 -37 36 -55t46 -18q24 0 46.5 18t35.5 55z" />
    <glyph glyph-name="tilde.cmb" 
d="M-97 642l-109 3q-6 90 31.5 125.5t91.5 35.5q24 0 48.5 -8.5t47.5 -18.5t43 -18.5t34 -8.5q16 0 28.5 10t11.5 41l108 -3q5 -77 -27.5 -116t-92.5 -39q-25 0 -50 8t-48 18t-43 18t-34 8q-16 0 -29 -10.5t-11 -44.5z" />
    <glyph glyph-name="macron.cmb" 
d="M168 772v-104h-302v104h302z" />
    <glyph glyph-name="dieresis.cmb" 
d="M193 786v-111h-126v111h126zM-32 786v-111h-127v111h127z" />
    <glyph glyph-name="dotaccent.cmb" 
d="M89 737v-112h-144v112h144z" />
    <glyph glyph-name="ring.cmb" 
d="M17 885q54 0 92.5 -37.5t38.5 -87.5t-38.5 -88t-92.5 -38t-92 38.5t-38 87.5t38 87t92 38zM17 821q-25 0 -43 -18t-18 -43t18 -43t43 -18t43 18t18 43t-18 43t-43 18z" />
    <glyph glyph-name="cedilla.cmb" 
d="M-11 -204q-16 0 -38 3t-42 10v61h1q19 -6 39 -9t30 -3q25 0 39.5 8.5t14.5 23.5q0 14 -19 23t-49 9h-18l-3 7l28 82h64l-16 -40q47 -6 73 -28.5t26 -57.5q0 -37 -36 -63t-94 -26z" />
    <glyph glyph-name="ogonek.cmb" 
d="M41 -31q-20 -14 -29 -24.5t-9 -20.5q0 -12 8.5 -20t22.5 -8q11 0 20.5 4.5t15.5 9.5l40 -51q-15 -15 -44 -27t-69 -13q-57 0 -82 25.5t-25 57.5q0 29 18 52.5t44 39.5l37 24l106 -12z" />
    <glyph glyph-name="commaaccent.cmb" 
d="M87 -30l-70 -175h-103l30 175h143z" />
    <glyph glyph-name="hyphen.uc" horiz-adv-x="438" 
d="M381 421v-133h-324v133h324z" />
    <glyph glyph-name="endash.uc" horiz-adv-x="558" 
d="M511 410v-111h-464v111h464z" />
    <glyph glyph-name="emdash.uc" horiz-adv-x="758" 
d="M711 410v-111h-664v111h664z" />
    <glyph glyph-name="parenleft.uc" horiz-adv-x="441" 
d="M303 849l81 -83q-25 -25 -51 -64.5t-47.5 -90t-35.5 -112t-14 -129.5v-13q0 -68 14 -129.5t35 -112t47.5 -89.5t51.5 -63l-81 -83q-34 27 -71 71.5t-68 104t-51 135t-20 163.5v19q0 88 20 163t51 135t68 104.5t71 73.5z" />
    <glyph glyph-name="parenright.uc" horiz-adv-x="453" 
d="M150 849q34 -29 71 -73.5t68 -104.5t51 -135t20 -163v-19q0 -88 -20 -163.5t-51 -135t-68.5 -104t-71.5 -71.5l-80 83q25 24 51.5 63t48 89.5t35.5 112t14 129.5v13q0 68 -14 129.5t-36 112t-48.5 90t-50.5 64.5z" />
    <glyph glyph-name="bracketleft.uc" horiz-adv-x="455" 
d="M127 -122v960h269v-90h-127v-780h135v-90h-277z" />
    <glyph glyph-name="bracketright.uc" horiz-adv-x="455" 
d="M329 -122h-278v90h135v780h-127v90h270v-960z" />
    <glyph glyph-name="braceleft.uc" horiz-adv-x="471" 
d="M391 -122h-91q-64 0 -102.5 28.5t-38.5 109.5v197q0 46 -15.5 68.5t-40.5 29.5q-1 1 -4 1.5t-4 1.5v86q1 1 4 1.5t4 1.5q25 7 40.5 29.5t15.5 67.5v200q0 81 38.5 109.5t102.5 28.5h91v-90h-33q-28 0 -42 -15.5t-14 -67.5v-162q0 -48 -20.5 -82.5t-64.5 -53.5v-20
q44 -19 64.5 -51.5t20.5 -80.5v-173q0 -52 14 -63t42 -11h33v-90z" />
    <glyph glyph-name="braceright.uc" horiz-adv-x="472" 
d="M172 -122h-91v82h33q28 0 42.5 11t14.5 64v180q0 48 20 80.5t64 51.5v20q-44 19 -64 53.5t-20 82.5v171q0 51 -14.5 66.5t-42.5 15.5h-33v82h91q64 0 102.5 -28.5t38.5 -109.5v-200q0 -45 15.5 -67.5t40.5 -29.5q1 -1 4.5 -1.5t4.5 -1.5v-86q-1 -1 -4.5 -1.5t-4.5 -1.5
q-25 -7 -40.5 -29.5t-15.5 -68.5v-197q0 -81 -38.5 -109.5t-102.5 -28.5z" />
    <glyph glyph-name="guilsinglleft.uc" horiz-adv-x="430" 
d="M366 46h-121l-185 285v3l185 286h122l-186 -286z" />
    <glyph glyph-name="guilsinglright.uc" horiz-adv-x="430" 
d="M186 46h-123l185 289l-184 285h122l185 -286v-3z" />
    <glyph glyph-name="guillemotleft.uc" horiz-adv-x="640" 
d="M576 46h-122l-185 285v3l185 286h124l-186 -286zM366 46h-121l-185 285v3l185 286h122l-186 -286z" />
    <glyph glyph-name="guillemotright.uc" horiz-adv-x="640" 
d="M396 46h-123l185 289l-184 285h122l185 -286v-3zM186 46h-123l185 289l-184 285h122l185 -286v-3z" />
    <glyph glyph-name="colon.uc" horiz-adv-x="297" 
d="M70 622h159v-157h-159v157zM70 258h159v-158h-159v158z" />
    <glyph glyph-name="semicolon.uc" horiz-adv-x="329" 
d="M95 622h158v-157h-158v157zM95 224h160l-95 -275h-115z" />
    <glyph glyph-name="plus.uc" horiz-adv-x="658" 
d="M603 317h-208v-229h-132v229h-208v116h208v212h132v-212h208v-116z" />
    <glyph glyph-name="minus.uc" horiz-adv-x="609" 
d="M561 431v-116h-514v116h514z" />
    <glyph glyph-name="divide.uc" horiz-adv-x="633" 
d="M250 514v137h134v-137h-134zM581 430v-115h-529v115h529zM250 94v137h134v-137h-134z" />
    <glyph glyph-name="multiply.uc" horiz-adv-x="591" 
d="M463 114l-172 173l-166 -166l-78 79l165 166l-163 163l82 81l163 -163l154 155l80 -79l-155 -155l172 -172z" />
    <glyph glyph-name="equal.uc" horiz-adv-x="590" 
d="M537 526v-107h-483v107h483zM537 306v-107h-483v107h483z" />
    <glyph glyph-name="zero.dnom" horiz-adv-x="472" 
d="M236 482q84 0 139 -58.5t55 -174.5v-32q0 -114 -55 -173t-139 -59q-83 0 -139 59t-56 173v32q0 116 56 174.5t139 58.5zM316 216v32q0 69 -22.5 103t-57.5 34t-58.5 -34t-23.5 -103v-32q0 -70 23.5 -103.5t58.5 -33.5q34 0 57 33.5t23 103.5z" />
    <glyph glyph-name="one.dnom" horiz-adv-x="292" 
d="M237 0h-113v306l-84 -81v145l109 97h88v-467z" />
    <glyph glyph-name="two.dnom" horiz-adv-x="414" 
d="M349 0h-318l-8 16q12 15 37.5 47t53.5 66.5t53 65.5t35 44q19 25 28.5 42.5t9.5 39.5q0 25 -19.5 43.5t-54.5 19.5q-22 0 -47 -8.5t-52 -29.5v111q27 13 57 19t57 6q81 -1 129 -43.5t48 -105.5q-1 -49 -23 -79.5t-48 -63.5q-12 -16 -35 -43t-47 -53h182z" />
    <glyph glyph-name="three.dnom" horiz-adv-x="376" 
d="M156 -15q-28 0 -65.5 5t-60.5 18v92q19 -13 47 -18t44 -5q51 -1 81 17t30 47q0 28 -28 45t-73 17h-30l4 89h26q34 0 56.5 15t22.5 38q0 21 -20.5 33t-53.5 12q-18 0 -40.5 -3.5t-41.5 -12.5l6 96q18 5 40.5 8.5t58.5 3.5q70 1 117 -34t47 -87q-1 -31 -17.5 -59t-44.5 -45
q37 -17 60.5 -49t23.5 -72q0 -65 -52.5 -108.5t-136.5 -42.5z" />
    <glyph glyph-name="four.dnom" horiz-adv-x="447" 
d="M253 170v142l-96 -142h96zM400 77h-33v-77h-114v77h-222l-10 22l247 368h99v-297h58z" />
    <glyph glyph-name="five.dnom" horiz-adv-x="417" 
d="M155 -15q-27 0 -62.5 7t-60.5 21v96q28 -15 57.5 -22t66.5 -7q43 0 71.5 20t28.5 54q0 29 -31.5 49t-85.5 20q-23 0 -44.5 -3t-40.5 -9l60 256h273l-29 -96h-168l-18 -65h3.5h3.5q96 0 144.5 -42.5t48.5 -108.5q0 -75 -58.5 -122.5t-158.5 -47.5z" />
    <glyph glyph-name="six.dnom" horiz-adv-x="437" 
d="M221 -15q-82 0 -136 45.5t-54 126.5q0 40 16 81t41 80t56.5 77t61.5 72h135q-41 -43 -80.5 -88t-69.5 -87q16 8 34 13t38 5q59 0 102.5 -43.5t43.5 -109.5q0 -35 -13.5 -66.5t-38.5 -55t-59.5 -37t-76.5 -13.5zM221 228q-32 0 -55 -22t-23 -53q0 -30 23 -52t55 -22
q31 0 53.5 22t22.5 52q0 31 -22.5 53t-53.5 22z" />
    <glyph glyph-name="seven.dnom" horiz-adv-x="419" 
d="M197 0h-127l165 366h-204l30 101h339z" />
    <glyph glyph-name="eight.dnom" horiz-adv-x="432" 
d="M216 -15q-90 0 -139.5 42.5t-49.5 109.5q0 38 20.5 69t58.5 49q-26 16 -40 41t-14 55q0 53 43 92t121 39q80 0 122 -39t42 -92q0 -30 -13.5 -55t-40.5 -41q38 -19 58.5 -49.5t20.5 -68.5q0 -67 -50 -109.5t-139 -42.5zM216 283q23 0 40.5 16t17.5 41q0 23 -17 37.5
t-41 14.5t-41.5 -14.5t-17.5 -37.5q0 -25 17 -41t42 -16zM216 73q32 0 54.5 20t22.5 51q0 30 -22.5 49t-54.5 19t-54.5 -19t-22.5 -49q0 -31 22.5 -51t54.5 -20z" />
    <glyph glyph-name="nine.dnom" horiz-adv-x="437" 
d="M231 -1h-135q42 43 81.5 88t69.5 88q-16 -8 -34.5 -13t-37.5 -5q-60 0 -104 43.5t-44 109.5q0 35 14 66.5t39 54.5t60 36.5t77 13.5q81 0 135 -45.5t54 -126.5q0 -40 -16 -80.5t-41 -80t-56.5 -77.5t-61.5 -72zM217 238q31 0 54 22t23 53t-23 53t-54 22q-33 0 -55 -22
t-22 -53t22 -53t55 -22z" />
    <glyph glyph-name="zero.numr" horiz-adv-x="472" 
d="M236 761q84 0 139 -58.5t55 -174.5v-32q0 -114 -55 -173t-139 -59q-83 0 -139 59t-56 173v32q0 116 56 174.5t139 58.5zM316 495v32q0 69 -22.5 103t-57.5 34t-58.5 -34t-23.5 -103v-32q0 -70 23.5 -103.5t58.5 -33.5q34 0 57 33.5t23 103.5z" />
    <glyph glyph-name="one.numr" horiz-adv-x="292" 
d="M237 279h-113v306l-84 -81v145l109 97h88v-467z" />
    <glyph glyph-name="two.numr" horiz-adv-x="414" 
d="M349 279h-318l-8 16q12 15 37.5 47t53.5 66.5t53 65.5t35 44q19 25 28.5 42.5t9.5 39.5q0 25 -19.5 43.5t-54.5 19.5q-22 0 -47 -8.5t-52 -29.5v111q27 13 57 19t57 6q81 -1 129 -43.5t48 -105.5q-1 -49 -23 -79.5t-48 -63.5q-12 -16 -35 -43t-47 -53h182z" />
    <glyph glyph-name="three.numr" horiz-adv-x="376" 
d="M156 264q-28 0 -65.5 5t-60.5 18v92q19 -13 47 -18t44 -5q51 -1 81 17t30 47q0 28 -28 45t-73 17h-30l4 89h26q34 0 56.5 15t22.5 38q0 21 -20.5 33t-53.5 12q-18 0 -40.5 -3.5t-41.5 -12.5l6 96q18 5 40.5 8.5t58.5 3.5q70 1 117 -34t47 -87q-1 -31 -17.5 -59t-44.5 -45
q37 -17 60.5 -49t23.5 -72q0 -65 -52.5 -108.5t-136.5 -42.5z" />
    <glyph glyph-name="four.numr" horiz-adv-x="447" 
d="M253 449v142l-96 -142h96zM400 356h-33v-77h-114v77h-222l-10 22l247 368h99v-297h58z" />
    <glyph glyph-name="five.numr" horiz-adv-x="417" 
d="M155 264q-27 0 -62.5 7t-60.5 21v96q28 -15 57.5 -22t66.5 -7q43 0 71.5 20t28.5 54q0 29 -31.5 49t-85.5 20q-23 0 -44.5 -3t-40.5 -9l60 256h273l-29 -96h-168l-18 -65h3.5h3.5q96 0 144.5 -42.5t48.5 -108.5q0 -75 -58.5 -122.5t-158.5 -47.5z" />
    <glyph glyph-name="six.numr" horiz-adv-x="437" 
d="M221 264q-82 0 -136 45.5t-54 126.5q0 40 16 81t41 80t56.5 77t61.5 72h135q-41 -43 -80.5 -88t-69.5 -87q16 8 34 13t38 5q59 0 102.5 -43.5t43.5 -109.5q0 -35 -13.5 -66.5t-38.5 -55t-59.5 -37t-76.5 -13.5zM221 507q-32 0 -55 -22t-23 -53q0 -30 23 -52t55 -22
q31 0 53.5 22t22.5 52q0 31 -22.5 53t-53.5 22z" />
    <glyph glyph-name="seven.numr" horiz-adv-x="419" 
d="M197 279h-127l165 366h-204l30 101h339z" />
    <glyph glyph-name="eight.numr" horiz-adv-x="432" 
d="M216 264q-90 0 -139.5 42.5t-49.5 109.5q0 38 20.5 69t58.5 49q-26 16 -40 41t-14 55q0 53 43 92t121 39q80 0 122 -39t42 -92q0 -30 -13.5 -55t-40.5 -41q38 -19 58.5 -49.5t20.5 -68.5q0 -67 -50 -109.5t-139 -42.5zM216 562q23 0 40.5 16t17.5 41q0 23 -17 37.5
t-41 14.5t-41.5 -14.5t-17.5 -37.5q0 -25 17 -41t42 -16zM216 352q32 0 54.5 20t22.5 51q0 30 -22.5 49t-54.5 19t-54.5 -19t-22.5 -49q0 -31 22.5 -51t54.5 -20z" />
    <glyph glyph-name="nine.numr" horiz-adv-x="437" 
d="M231 278h-135q42 43 81.5 88t69.5 88q-16 -8 -34.5 -13t-37.5 -5q-60 0 -104 43.5t-44 109.5q0 35 14 66.5t39 54.5t60 36.5t77 13.5q81 0 135 -45.5t54 -126.5q0 -40 -16 -80.5t-41 -80t-56.5 -77.5t-61.5 -72zM217 517q31 0 54 22t23 53t-23 53t-54 22q-33 0 -55 -22
t-22 -53t22 -53t55 -22z" />
    <glyph glyph-name="zero.salt_slash" horiz-adv-x="688" 
d="M343 770q62 0 115 -23.5t91.5 -70t60 -116.5t21.5 -162v-52q0 -91 -22 -160.5t-60 -116t-91 -70t-115 -23.5q-61 0 -113.5 23.5t-90.5 70t-60 116t-22 160.5v52q0 92 22 162t60 116.5t90.5 70t113.5 23.5zM343 646q-18 0 -34.5 -5.5t-31.5 -15.5l179 -450q14 31 22 73.5
t8 96.5v52q0 126 -40 187.5t-103 61.5zM343 97q10 0 20.5 1.5t19.5 5.5l-167 420q-7 -26 -11 -58t-4 -69v-52q0 -126 41 -187t101 -61z" />
    <glyph glyph-name="C.salt_low" horiz-adv-x="720" 
d="M681 698l-70 -116q-34 22 -75 34t-86 12q-57 0 -104.5 -20.5t-80.5 -55t-51 -81t-18 -96.5q0 -52 18 -99t51 -82t80.5 -55.5t104.5 -20.5q43 0 83.5 11.5t77.5 34.5l70 -116q-59 -38 -116 -55t-120 -17q-90 0 -165 31.5t-128 85t-82.5 126.5t-29.5 155t29.5 154.5
t82.5 126t128 84.5t165 31q63 0 119.5 -16.5t116.5 -55.5z" />
    <glyph glyph-name="Ccedilla.salt_low" horiz-adv-x="720" 
d="M681 698l-70 -116q-34 22 -75 34t-86 12q-57 0 -104.5 -20.5t-80.5 -55t-51 -81t-18 -96.5q0 -52 18 -99t51 -82t80.5 -55.5t104.5 -20.5q43 0 83.5 11.5t77.5 34.5l70 -116q-59 -38 -116 -55t-120 -17q-90 0 -165 31.5t-128 85t-82.5 126.5t-29.5 155t29.5 154.5
t82.5 126t128 84.5t165 31q63 0 119.5 -16.5t116.5 -55.5zM410 -228q-16 0 -38 3t-42 10v61h1q19 -6 39 -9t30 -3q25 0 39.5 8.5t14.5 23.5q0 14 -19 23t-49 9h-18l-3 7l28 82h64l-16 -40q47 -6 73 -28.5t26 -57.5q0 -37 -36 -63t-94 -26z" />
    <glyph glyph-name="Cacute.salt_low" horiz-adv-x="720" 
d="M681 698l-70 -116q-34 22 -75 34t-86 12q-57 0 -104.5 -20.5t-80.5 -55t-51 -81t-18 -96.5q0 -52 18 -99t51 -82t80.5 -55.5t104.5 -20.5q43 0 83.5 11.5t77.5 34.5l70 -116q-59 -38 -116 -55t-120 -17q-90 0 -165 31.5t-128 85t-82.5 126.5t-29.5 155t29.5 154.5
t82.5 126t128 84.5t165 31q63 0 119.5 -16.5t116.5 -55.5zM624 954l-134 -147h-114l79 147h169z" />
    <glyph glyph-name="Ccircumflex.salt_low" horiz-adv-x="720" 
d="M681 698l-70 -116q-34 22 -75 34t-86 12q-57 0 -104.5 -20.5t-80.5 -55t-51 -81t-18 -96.5q0 -52 18 -99t51 -82t80.5 -55.5t104.5 -20.5q43 0 83.5 11.5t77.5 34.5l70 -116q-59 -38 -116 -55t-120 -17q-90 0 -165 31.5t-128 85t-82.5 126.5t-29.5 155t29.5 154.5
t82.5 126t128 84.5t165 31q63 0 119.5 -16.5t116.5 -55.5zM500 807l-66 81l-66 -81h-126l119 147h146l120 -147h-127z" />
    <glyph glyph-name="Cdotaccent.salt_low" horiz-adv-x="720" 
d="M681 698l-70 -116q-34 22 -75 34t-86 12q-57 0 -104.5 -20.5t-80.5 -55t-51 -81t-18 -96.5q0 -52 18 -99t51 -82t80.5 -55.5t104.5 -20.5q43 0 83.5 11.5t77.5 34.5l70 -116q-59 -38 -116 -55t-120 -17q-90 0 -165 31.5t-128 85t-82.5 126.5t-29.5 155t29.5 154.5
t82.5 126t128 84.5t165 31q63 0 119.5 -16.5t116.5 -55.5zM507 919v-112h-144v112h144z" />
    <glyph glyph-name="Ccaron.salt_low" horiz-adv-x="720" 
d="M681 698l-70 -116q-34 22 -75 34t-86 12q-57 0 -104.5 -20.5t-80.5 -55t-51 -81t-18 -96.5q0 -52 18 -99t51 -82t80.5 -55.5t104.5 -20.5q43 0 83.5 11.5t77.5 34.5l70 -116q-59 -38 -116 -55t-120 -17q-90 0 -165 31.5t-128 85t-82.5 126.5t-29.5 155t29.5 154.5
t82.5 126t128 84.5t165 31q63 0 119.5 -16.5t116.5 -55.5zM508 807h-146l-119 147h125l65 -81l66 81h129z" />
    <glyph glyph-name="S.salt_low" horiz-adv-x="529" 
d="M472 712l-57 -120q-25 17 -56 29.5t-62 12.5q-45 0 -65 -18t-20 -42q0 -31 28 -58.5t83 -75.5q91 -78 127.5 -133.5t36.5 -113.5q0 -48 -19.5 -86t-53.5 -64.5t-80.5 -40.5t-99.5 -14q-49 0 -107 14.5t-100 39.5l56 121q35 -20 72.5 -34t79.5 -14q46 0 70.5 23t24.5 52
q0 31 -28.5 63.5t-88.5 82.5q-44 38 -75.5 67.5t-50.5 56.5t-28 54t-9 59q0 36 14.5 70t44.5 60t76.5 42t109.5 16q43 0 90 -13.5t87 -35.5z" />
    <glyph glyph-name="Sacute.salt_low" horiz-adv-x="529" 
d="M472 712l-57 -120q-25 17 -56 29.5t-62 12.5q-45 0 -65 -18t-20 -42q0 -31 28 -58.5t83 -75.5q91 -78 127.5 -133.5t36.5 -113.5q0 -48 -19.5 -86t-53.5 -64.5t-80.5 -40.5t-99.5 -14q-49 0 -107 14.5t-100 39.5l56 121q35 -20 72.5 -34t79.5 -14q46 0 70.5 23t24.5 52
q0 31 -28.5 63.5t-88.5 82.5q-44 38 -75.5 67.5t-50.5 56.5t-28 54t-9 59q0 36 14.5 70t44.5 60t76.5 42t109.5 16q43 0 90 -13.5t87 -35.5zM479 954l-134 -147h-114l79 147h169z" />
    <glyph glyph-name="Scircumflex.salt_low" horiz-adv-x="529" 
d="M472 712l-57 -120q-25 17 -56 29.5t-62 12.5q-45 0 -65 -18t-20 -42q0 -31 28 -58.5t83 -75.5q91 -78 127.5 -133.5t36.5 -113.5q0 -48 -19.5 -86t-53.5 -64.5t-80.5 -40.5t-99.5 -14q-49 0 -107 14.5t-100 39.5l56 121q35 -20 72.5 -34t79.5 -14q46 0 70.5 23t24.5 52
q0 31 -28.5 63.5t-88.5 82.5q-44 38 -75.5 67.5t-50.5 56.5t-28 54t-9 59q0 36 14.5 70t44.5 60t76.5 42t109.5 16q43 0 90 -13.5t87 -35.5zM355 807l-66 81l-66 -81h-126l119 147h146l120 -147h-127z" />
    <glyph glyph-name="Scedilla.salt_low" horiz-adv-x="529" 
d="M472 712l-57 -120q-25 17 -56 29.5t-62 12.5q-45 0 -65 -18t-20 -42q0 -31 28 -58.5t83 -75.5q91 -78 127.5 -133.5t36.5 -113.5q0 -48 -19.5 -86t-53.5 -64.5t-80.5 -40.5t-99.5 -14q-49 0 -107 14.5t-100 39.5l56 121q35 -20 72.5 -34t79.5 -14q46 0 70.5 23t24.5 52
q0 31 -28.5 63.5t-88.5 82.5q-44 38 -75.5 67.5t-50.5 56.5t-28 54t-9 59q0 36 14.5 70t44.5 60t76.5 42t109.5 16q43 0 90 -13.5t87 -35.5zM216 -216q-16 0 -38 3t-42 10v61h1q19 -6 39 -9t30 -3q25 0 39.5 8.5t14.5 23.5q0 14 -19 23t-49 9h-18l-3 7l28 82h64l-16 -40
q47 -6 73 -28.5t26 -57.5q0 -37 -36 -63t-94 -26z" />
    <glyph glyph-name="Scaron.salt_low" horiz-adv-x="529" 
d="M472 712l-57 -120q-25 17 -56 29.5t-62 12.5q-45 0 -65 -18t-20 -42q0 -31 28 -58.5t83 -75.5q91 -78 127.5 -133.5t36.5 -113.5q0 -48 -19.5 -86t-53.5 -64.5t-80.5 -40.5t-99.5 -14q-49 0 -107 14.5t-100 39.5l56 121q35 -20 72.5 -34t79.5 -14q46 0 70.5 23t24.5 52
q0 31 -28.5 63.5t-88.5 82.5q-44 38 -75.5 67.5t-50.5 56.5t-28 54t-9 59q0 36 14.5 70t44.5 60t76.5 42t109.5 16q43 0 90 -13.5t87 -35.5zM363 807h-146l-119 147h125l65 -81l66 81h129z" />
    <glyph glyph-name="Scommaaccent.salt_low" horiz-adv-x="529" 
d="M472 712l-57 -120q-25 17 -56 29.5t-62 12.5q-45 0 -65 -18t-20 -42q0 -31 28 -58.5t83 -75.5q91 -78 127.5 -133.5t36.5 -113.5q0 -48 -19.5 -86t-53.5 -64.5t-80.5 -40.5t-99.5 -14q-49 0 -107 14.5t-100 39.5l56 121q35 -20 72.5 -34t79.5 -14q46 0 70.5 23t24.5 52
q0 31 -28.5 63.5t-88.5 82.5q-44 38 -75.5 67.5t-50.5 56.5t-28 54t-9 59q0 36 14.5 70t44.5 60t76.5 42t109.5 16q43 0 90 -13.5t87 -35.5zM305 -56l-70 -175h-103l30 175h143z" />
    <glyph glyph-name="a.salt_low" horiz-adv-x="546" 
d="M265 65q37 0 61 24.5t24 58.5q0 32 -23.5 54.5t-61.5 22.5t-61 -22.5t-23 -54.5q0 -34 23 -58.5t61 -24.5zM359 0v43q-23 -25 -60.5 -43t-88.5 -18q-78 0 -126 46t-48 116q0 67 49 114t133 47q43 0 75.5 -11t55.5 -28v25q0 61 -30.5 84t-84.5 23q-22 0 -47.5 -3.5
t-64.5 -10.5l-26 111q53 11 90 14.5t77 3.5q113 0 170.5 -51t57.5 -136v-326h-132z" />
    <glyph glyph-name="agrave.salt_low" horiz-adv-x="546" 
d="M265 65q37 0 61 24.5t24 58.5q0 32 -23.5 54.5t-61.5 22.5t-61 -22.5t-23 -54.5q0 -34 23 -58.5t61 -24.5zM359 0v43q-23 -25 -60.5 -43t-88.5 -18q-78 0 -126 46t-48 116q0 67 49 114t133 47q43 0 75.5 -11t55.5 -28v25q0 61 -30.5 84t-84.5 23q-22 0 -47.5 -3.5
t-64.5 -10.5l-26 111q53 11 90 14.5t77 3.5q113 0 170.5 -51t57.5 -136v-326h-132zM77 719h171l81 -147h-118z" />
    <glyph glyph-name="aacute.salt_low" horiz-adv-x="546" 
d="M265 65q37 0 61 24.5t24 58.5q0 32 -23.5 54.5t-61.5 22.5t-61 -22.5t-23 -54.5q0 -34 23 -58.5t61 -24.5zM359 0v43q-23 -25 -60.5 -43t-88.5 -18q-78 0 -126 46t-48 116q0 67 49 114t133 47q43 0 75.5 -11t55.5 -28v25q0 61 -30.5 84t-84.5 23q-22 0 -47.5 -3.5
t-64.5 -10.5l-26 111q53 11 90 14.5t77 3.5q113 0 170.5 -51t57.5 -136v-326h-132zM462 719l-134 -147h-114l79 147h169z" />
    <glyph glyph-name="acircumflex.salt_low" horiz-adv-x="546" 
d="M265 65q37 0 61 24.5t24 58.5q0 32 -23.5 54.5t-61.5 22.5t-61 -22.5t-23 -54.5q0 -34 23 -58.5t61 -24.5zM359 0v43q-23 -25 -60.5 -43t-88.5 -18q-78 0 -126 46t-48 116q0 67 49 114t133 47q43 0 75.5 -11t55.5 -28v25q0 61 -30.5 84t-84.5 23q-22 0 -47.5 -3.5
t-64.5 -10.5l-26 111q53 11 90 14.5t77 3.5q113 0 170.5 -51t57.5 -136v-326h-132zM338 572l-66 81l-66 -81h-126l119 147h146l120 -147h-127z" />
    <glyph glyph-name="atilde.salt_low" horiz-adv-x="546" 
d="M265 65q37 0 61 24.5t24 58.5q0 32 -23.5 54.5t-61.5 22.5t-61 -22.5t-23 -54.5q0 -34 23 -58.5t61 -24.5zM359 0v43q-23 -25 -60.5 -43t-88.5 -18q-78 0 -126 46t-48 116q0 67 49 114t133 47q43 0 75.5 -11t55.5 -28v25q0 61 -30.5 84t-84.5 23q-22 0 -47.5 -3.5
t-64.5 -10.5l-26 111q53 11 90 14.5t77 3.5q113 0 170.5 -51t57.5 -136v-326h-132zM170 571l-106 4q-5 87 29.5 121.5t85.5 34.5q22 0 45 -8t43.5 -17.5t38 -17.5t30.5 -8q16 0 26.5 9t10.5 38l106 -3q4 -74 -26 -112t-87 -38q-23 0 -46 7.5t-44 16.5t-39 16.5t-31 7.5
q-14 0 -25.5 -10t-10.5 -41z" />
    <glyph glyph-name="adieresis.salt_low" horiz-adv-x="546" 
d="M265 65q37 0 61 24.5t24 58.5q0 32 -23.5 54.5t-61.5 22.5t-61 -22.5t-23 -54.5q0 -34 23 -58.5t61 -24.5zM359 0v43q-23 -25 -60.5 -43t-88.5 -18q-78 0 -126 46t-48 116q0 67 49 114t133 47q43 0 75.5 -11t55.5 -28v25q0 61 -30.5 84t-84.5 23q-22 0 -47.5 -3.5
t-64.5 -10.5l-26 111q53 11 90 14.5t77 3.5q113 0 170.5 -51t57.5 -136v-326h-132zM444 683v-111h-126v111h126zM236 683v-111h-126v111h126z" />
    <glyph glyph-name="aring.salt_low" horiz-adv-x="546" 
d="M265 65q37 0 61 24.5t24 58.5q0 32 -23.5 54.5t-61.5 22.5t-61 -22.5t-23 -54.5q0 -34 23 -58.5t61 -24.5zM359 0v43q-23 -25 -60.5 -43t-88.5 -18q-78 0 -126 46t-48 116q0 67 49 114t133 47q43 0 75.5 -11t55.5 -28v25q0 61 -30.5 84t-84.5 23q-22 0 -47.5 -3.5
t-64.5 -10.5l-26 111q53 11 90 14.5t77 3.5q113 0 170.5 -51t57.5 -136v-326h-132zM272 817q54 0 92.5 -37.5t38.5 -87.5t-38.5 -88t-92.5 -38t-92 38.5t-38 87.5t38 87t92 38zM272 753q-25 0 -43 -18t-18 -43t18 -43t43 -18t43 18t18 43t-18 43t-43 18z" />
    <glyph glyph-name="amacron.salt_low" horiz-adv-x="546" 
d="M265 65q37 0 61 24.5t24 58.5q0 32 -23.5 54.5t-61.5 22.5t-61 -22.5t-23 -54.5q0 -34 23 -58.5t61 -24.5zM359 0v43q-23 -25 -60.5 -43t-88.5 -18q-78 0 -126 46t-48 116q0 67 49 114t133 47q43 0 75.5 -11t55.5 -28v25q0 61 -30.5 84t-84.5 23q-22 0 -47.5 -3.5
t-64.5 -10.5l-26 111q53 11 90 14.5t77 3.5q113 0 170.5 -51t57.5 -136v-326h-132zM420 676v-104h-296v104h296z" />
    <glyph glyph-name="abreve.salt_low" horiz-adv-x="546" 
d="M265 65q37 0 61 24.5t24 58.5q0 32 -23.5 54.5t-61.5 22.5t-61 -22.5t-23 -54.5q0 -34 23 -58.5t61 -24.5zM359 0v43q-23 -25 -60.5 -43t-88.5 -18q-78 0 -126 46t-48 116q0 67 49 114t133 47q43 0 75.5 -11t55.5 -28v25q0 61 -30.5 84t-84.5 23q-22 0 -47.5 -3.5
t-64.5 -10.5l-26 111q53 11 90 14.5t77 3.5q113 0 170.5 -51t57.5 -136v-326h-132zM441 723q-13 -69 -57 -113t-112 -44t-112 44t-57 113l87 3q13 -37 36 -55t46 -18q24 0 46.5 18t35.5 55z" />
    <glyph glyph-name="aogonek.salt_low" horiz-adv-x="546" 
d="M391 -179q-54 0 -78.5 24t-24.5 55q0 28 17 50.5t42 38.5l12 8v46q-23 -25 -60.5 -43t-88.5 -18q-78 0 -126 46t-48 116q0 67 49 114t133 47q43 0 75.5 -11t55.5 -28v25q0 61 -30.5 84t-84.5 23q-22 0 -47.5 -3.5t-64.5 -10.5l-26 111q53 11 90 14.5t77 3.5
q113 0 170.5 -51t57.5 -136v-326l-56 -37q-19 -13 -27 -23t-8 -20t8 -17.5t21 -7.5q10 0 19.5 4t14.5 9l39 -50q-16 -14 -44.5 -25.5t-66.5 -11.5zM265 65q37 0 61 23.5t24 57.5q0 32 -23.5 55t-61.5 23t-61 -23t-23 -55q0 -34 23 -57.5t61 -23.5z" />
    <glyph glyph-name="aringacute.salt_low" horiz-adv-x="546" 
d="M265 65q37 0 61 24.5t24 58.5q0 32 -23.5 54.5t-61.5 22.5t-61 -22.5t-23 -54.5q0 -34 23 -58.5t61 -24.5zM359 0v43q-23 -25 -60.5 -43t-88.5 -18q-78 0 -126 46t-48 116q0 67 49 114t133 47q43 0 75.5 -11t55.5 -28v25q0 61 -30.5 84t-84.5 23q-22 0 -47.5 -3.5
t-64.5 -10.5l-26 111q53 11 90 14.5t77 3.5q113 0 170.5 -51t57.5 -136v-326h-132zM272 817q54 0 92.5 -37.5t38.5 -87.5t-38.5 -88t-92.5 -38t-92 38.5t-38 87.5t38 87t92 38zM272 753q-25 0 -43 -18t-18 -43t18 -43t43 -18t43 18t18 43t-18 43t-43 18zM462 988l-134 -147
h-114l79 147h169z" />
    <glyph glyph-name="c.salt_low" horiz-adv-x="516" 
d="M434 134l56 -100q-31 -23 -74 -37t-90 -14q-62 0 -115 20t-92 55t-61 84.5t-22 107.5q0 57 22 106t61 84t92 55t115 20q47 0 90 -14t74 -37l-56 -99h-3q-21 16 -47.5 22.5t-51.5 6.5q-62 0 -104 -42t-42 -102q0 -63 42 -104.5t104 -41.5q25 0 51.5 7t47.5 23h3z" />
    <glyph glyph-name="ccedilla.salt_low" horiz-adv-x="516" 
d="M434 134l56 -100q-31 -23 -74 -37t-90 -14q-62 0 -115 20t-92 55t-61 84.5t-22 107.5q0 57 22 106t61 84t92 55t115 20q47 0 90 -14t74 -37l-56 -99h-3q-21 16 -47.5 22.5t-51.5 6.5q-62 0 -104 -42t-42 -102q0 -63 42 -104.5t104 -41.5q25 0 51.5 7t47.5 23h3zM283 -210
q-15 0 -37 3.5t-41 10.5v59h1q19 -5 38 -8t29 -3q22 0 35.5 8t13.5 22q0 13 -17.5 21.5t-45.5 8.5h-18l-2 7l28 80l61 -3l-15 -35q45 -6 70.5 -28t25.5 -55q0 -38 -34.5 -63t-91.5 -25z" />
    <glyph glyph-name="cacute.salt_low" horiz-adv-x="516" 
d="M434 134l56 -100q-31 -23 -74 -37t-90 -14q-62 0 -115 20t-92 55t-61 84.5t-22 107.5q0 57 22 106t61 84t92 55t115 20q47 0 90 -14t74 -37l-56 -99h-3q-21 16 -47.5 22.5t-51.5 6.5q-62 0 -104 -42t-42 -102q0 -63 42 -104.5t104 -41.5q25 0 51.5 7t47.5 23h3zM503 719
l-134 -147h-114l79 147h169z" />
    <glyph glyph-name="ccircumflex.salt_low" horiz-adv-x="516" 
d="M434 134l56 -100q-31 -23 -74 -37t-90 -14q-62 0 -115 20t-92 55t-61 84.5t-22 107.5q0 57 22 106t61 84t92 55t115 20q47 0 90 -14t74 -37l-56 -99h-3q-21 16 -47.5 22.5t-51.5 6.5q-62 0 -104 -42t-42 -102q0 -63 42 -104.5t104 -41.5q25 0 51.5 7t47.5 23h3zM379 572
l-66 81l-66 -81h-126l119 147h146l120 -147h-127z" />
    <glyph glyph-name="cdotaccent.salt_low" horiz-adv-x="516" 
d="M434 134l56 -100q-31 -23 -74 -37t-90 -14q-62 0 -115 20t-92 55t-61 84.5t-22 107.5q0 57 22 106t61 84t92 55t115 20q47 0 90 -14t74 -37l-56 -99h-3q-21 16 -47.5 22.5t-51.5 6.5q-62 0 -104 -42t-42 -102q0 -63 42 -104.5t104 -41.5q25 0 51.5 7t47.5 23h3zM385 699
v-121h-144v121h144z" />
    <glyph glyph-name="ccaron.salt_low" horiz-adv-x="516" 
d="M434 134l56 -100q-31 -23 -74 -37t-90 -14q-62 0 -115 20t-92 55t-61 84.5t-22 107.5q0 57 22 106t61 84t92 55t115 20q47 0 90 -14t74 -37l-56 -99h-3q-21 16 -47.5 22.5t-51.5 6.5q-62 0 -104 -42t-42 -102q0 -63 42 -104.5t104 -41.5q25 0 51.5 7t47.5 23h3zM386 572
h-146l-119 147h125l65 -81l66 81h129z" />
    <glyph glyph-name="s.salt_low" horiz-adv-x="436" 
d="M228 516q45 0 81.5 -10t64.5 -22l-39 -105q-28 13 -52.5 18.5t-39.5 5.5q-23 0 -37.5 -9t-14.5 -23t16 -27.5t53 -37.5q81 -55 109.5 -90t28.5 -78q0 -63 -51 -108t-144 -46q-49 0 -94.5 12t-79.5 32l37 106q37 -18 64.5 -27t51.5 -9q34 1 49 12t15 27q0 11 -14.5 27.5
t-66.5 50.5q-77 50 -100 83t-23 76q0 26 10.5 51.5t32.5 45.5t57.5 32.5t85.5 12.5z" />
    <glyph glyph-name="sacute.salt_low" horiz-adv-x="436" 
d="M228 516q45 0 81.5 -10t64.5 -22l-39 -105q-28 13 -52.5 18.5t-39.5 5.5q-23 0 -37.5 -9t-14.5 -23t16 -27.5t53 -37.5q81 -55 109.5 -90t28.5 -78q0 -63 -51 -108t-144 -46q-49 0 -94.5 12t-79.5 32l37 106q37 -18 64.5 -27t51.5 -9q34 1 49 12t15 27q0 11 -14.5 27.5
t-66.5 50.5q-77 50 -100 83t-23 76q0 26 10.5 51.5t32.5 45.5t57.5 32.5t85.5 12.5zM415 719l-134 -147h-114l79 147h169z" />
    <glyph glyph-name="scircumflex.salt_low" horiz-adv-x="436" 
d="M228 516q45 0 81.5 -10t64.5 -22l-39 -105q-28 13 -52.5 18.5t-39.5 5.5q-23 0 -37.5 -9t-14.5 -23t16 -27.5t53 -37.5q81 -55 109.5 -90t28.5 -78q0 -63 -51 -108t-144 -46q-49 0 -94.5 12t-79.5 32l37 106q37 -18 64.5 -27t51.5 -9q34 1 49 12t15 27q0 11 -14.5 27.5
t-66.5 50.5q-77 50 -100 83t-23 76q0 26 10.5 51.5t32.5 45.5t57.5 32.5t85.5 12.5zM290 572l-66 81l-66 -81h-126l119 147h146l120 -147h-127z" />
    <glyph glyph-name="scedilla.salt_low" horiz-adv-x="436" 
d="M228 516q45 0 81.5 -10t64.5 -22l-39 -105q-28 13 -52.5 18.5t-39.5 5.5q-23 0 -37.5 -9t-14.5 -23t16 -27.5t53 -37.5q81 -55 109.5 -90t28.5 -78q0 -63 -51 -108t-144 -46q-49 0 -94.5 12t-79.5 32l37 106q37 -18 64.5 -27t51.5 -9q34 1 49 12t15 27q0 11 -14.5 27.5
t-66.5 50.5q-77 50 -100 83t-23 76q0 26 10.5 51.5t32.5 45.5t57.5 32.5t85.5 12.5zM185 -211q-15 0 -37 3.5t-41 10.5v59h1q19 -5 38 -8t29 -3q22 0 35.5 8t13.5 22q0 13 -17.5 21.5t-45.5 8.5h-18l-2 7l28 80l61 -3l-15 -35q45 -6 70.5 -28t25.5 -55q0 -38 -34.5 -63
t-91.5 -25z" />
    <glyph glyph-name="scaron.salt_low" horiz-adv-x="436" 
d="M228 516q45 0 81.5 -10t64.5 -22l-39 -105q-28 13 -52.5 18.5t-39.5 5.5q-23 0 -37.5 -9t-14.5 -23t16 -27.5t53 -37.5q81 -55 109.5 -90t28.5 -78q0 -63 -51 -108t-144 -46q-49 0 -94.5 12t-79.5 32l37 106q37 -18 64.5 -27t51.5 -9q34 1 49 12t15 27q0 11 -14.5 27.5
t-66.5 50.5q-77 50 -100 83t-23 76q0 26 10.5 51.5t32.5 45.5t57.5 32.5t85.5 12.5zM298 572h-146l-119 147h125l65 -81l66 81h129z" />
    <glyph glyph-name="scommaaccent.salt_low" horiz-adv-x="436" 
d="M228 516q45 0 81.5 -10t64.5 -22l-39 -105q-28 13 -52.5 18.5t-39.5 5.5q-23 0 -37.5 -9t-14.5 -23t16 -27.5t53 -37.5q81 -55 109.5 -90t28.5 -78q0 -63 -51 -108t-144 -46q-49 0 -94.5 12t-79.5 32l37 106q37 -18 64.5 -27t51.5 -9q34 1 49 12t15 27q0 11 -14.5 27.5
t-66.5 50.5q-77 50 -100 83t-23 76q0 26 10.5 51.5t32.5 45.5t57.5 32.5t85.5 12.5zM275 -56l-70 -175h-103l30 175h143z" />
    <glyph glyph-name="ae.salt_low" horiz-adv-x="919" 
d="M613 408q-48 0 -79 -27t-43 -76h243q-12 48 -43.5 75.5t-77.5 27.5zM265 59q37 0 62 24t25 61q0 32 -24 56t-63 24q-38 0 -61 -24t-23 -56q0 -36 23 -60.5t61 -24.5zM879 63q-40 -36 -100 -61.5t-141 -25.5q-72 0 -129 24.5t-94 66.5q-19 -34 -65 -62.5t-118 -28.5
q-90 0 -143 47.5t-53 117.5q0 68 49 116t133 48q40 0 72 -10t54 -26v22q0 61 -29 84t-83 23q-22 0 -48 -3.5t-70 -12.5l-10 114q48 10 81 13.5t76 3.5q59 0 101.5 -16t68.5 -44q34 34 81 52.5t102 18.5q57 0 107 -20.5t86 -57t57 -86.5t21 -109v-38h-398q9 -60 49 -92.5
t105 -32.5q51 0 90.5 17t70.5 44z" />
    <glyph glyph-name="aeacute.salt_low" horiz-adv-x="919" 
d="M613 408q-48 0 -79 -27t-43 -76h243q-12 48 -43.5 75.5t-77.5 27.5zM265 59q37 0 62 24t25 61q0 32 -24 56t-63 24q-38 0 -61 -24t-23 -56q0 -36 23 -60.5t61 -24.5zM879 63q-40 -36 -100 -61.5t-141 -25.5q-72 0 -129 24.5t-94 66.5q-19 -34 -65 -62.5t-118 -28.5
q-90 0 -143 47.5t-53 117.5q0 68 49 116t133 48q40 0 72 -10t54 -26v22q0 61 -29 84t-83 23q-22 0 -48 -3.5t-70 -12.5l-10 114q48 10 81 13.5t76 3.5q59 0 101.5 -16t68.5 -44q34 34 81 52.5t102 18.5q57 0 107 -20.5t86 -57t57 -86.5t21 -109v-38h-398q9 -60 49 -92.5
t105 -32.5q51 0 90.5 17t70.5 44zM634 719l-134 -147h-114l79 147h169z" />
    <glyph glyph-name="K.salt_tall" horiz-adv-x="708" 
d="M480 0l-259 345v-345h-156v746h156v-335l250 335h181l-278 -357l304 -389h-198z" />
    <glyph glyph-name="Kcommaaccent.salt_tall" horiz-adv-x="708" 
d="M480 0l-259 345v-345h-156v746h156v-335l250 335h181l-278 -357l304 -389h-198zM418 -56l-70 -175h-103l30 175h143z" />
    <glyph glyph-name="P.salt_tall" horiz-adv-x="607" 
d="M268 228h-47v-228h-156v746h207q61 0 116.5 -13t96.5 -43t65.5 -78.5t24.5 -119.5q0 -68 -27.5 -118t-70.5 -82.5t-98.5 -48t-110.5 -15.5zM271 607h-50v-243h50q66 0 106.5 34.5t40.5 93.5q0 53 -34.5 84t-112.5 31z" />
    <glyph glyph-name="R.salt_tall" horiz-adv-x="637" 
d="M273 607h-52v-229h53q64 0 105 33t41 89q-1 49 -37 78t-110 29zM417 0l-192 253h-4v-253h-156v746h196q63 0 120.5 -13t100 -41.5t67.5 -75.5t25 -114q0 -43 -14 -79t-38.5 -63.5t-57.5 -48.5t-70 -34l210 -277h-187z" />
    <glyph glyph-name="Racute.salt_tall" horiz-adv-x="637" 
d="M273 607h-52v-229h53q64 0 105 33t41 89q-1 49 -37 78t-110 29zM417 0l-192 253h-4v-253h-156v746h196q63 0 120.5 -13t100 -41.5t67.5 -75.5t25 -114q0 -43 -14 -79t-38.5 -63.5t-57.5 -48.5t-70 -34l210 -277h-187zM494 954l-134 -147h-114l79 147h169z" />
    <glyph glyph-name="Rcommaaccent.salt_tall" horiz-adv-x="637" 
d="M273 607h-52v-229h53q64 0 105 33t41 89q-1 49 -37 78t-110 29zM417 0l-192 253h-4v-253h-156v746h196q63 0 120.5 -13t100 -41.5t67.5 -75.5t25 -114q0 -43 -14 -79t-38.5 -63.5t-57.5 -48.5t-70 -34l210 -277h-187zM382 -56l-70 -175h-103l30 175h143z" />
    <glyph glyph-name="Rcaron.salt_tall" horiz-adv-x="637" 
d="M273 607h-52v-229h53q64 0 105 33t41 89q-1 49 -37 78t-110 29zM417 0l-192 253h-4v-253h-156v746h196q63 0 120.5 -13t100 -41.5t67.5 -75.5t25 -114q0 -43 -14 -79t-38.5 -63.5t-57.5 -48.5t-70 -34l210 -277h-187zM377 807h-146l-119 147h125l65 -81l66 81h129z" />
    <glyph glyph-name="S.salt_tall" horiz-adv-x="551" 
d="M460 736l-1 -134q-28 14 -68 23t-77 9q-55 0 -79.5 -20t-24.5 -47q0 -29 29.5 -58t92.5 -72q89 -63 133.5 -115.5t44.5 -121.5q0 -50 -21 -89.5t-58 -66.5t-87 -41.5t-107 -14.5q-22 0 -47.5 2t-50.5 6t-47 9.5t-37 12.5l1 138q34 -16 82.5 -28.5t99.5 -12.5
q55 0 84 25.5t29 56.5t-32.5 62.5t-101.5 76.5q-96 66 -132.5 116.5t-36.5 113.5q0 38 15.5 73t47 62t81 43.5t116.5 16.5q37 0 78.5 -6t73.5 -19z" />
    <glyph glyph-name="Sacute.salt_tall" horiz-adv-x="551" 
d="M460 736l-1 -134q-28 14 -68 23t-77 9q-55 0 -79.5 -20t-24.5 -47q0 -29 29.5 -58t92.5 -72q89 -63 133.5 -115.5t44.5 -121.5q0 -50 -21 -89.5t-58 -66.5t-87 -41.5t-107 -14.5q-22 0 -47.5 2t-50.5 6t-47 9.5t-37 12.5l1 138q34 -16 82.5 -28.5t99.5 -12.5
q55 0 84 25.5t29 56.5t-32.5 62.5t-101.5 76.5q-96 66 -132.5 116.5t-36.5 113.5q0 38 15.5 73t47 62t81 43.5t116.5 16.5q37 0 78.5 -6t73.5 -19zM488 954l-134 -147h-114l79 147h169z" />
    <glyph glyph-name="Scircumflex.salt_tall" horiz-adv-x="551" 
d="M460 736l-1 -134q-28 14 -68 23t-77 9q-55 0 -79.5 -20t-24.5 -47q0 -29 29.5 -58t92.5 -72q89 -63 133.5 -115.5t44.5 -121.5q0 -50 -21 -89.5t-58 -66.5t-87 -41.5t-107 -14.5q-22 0 -47.5 2t-50.5 6t-47 9.5t-37 12.5l1 138q34 -16 82.5 -28.5t99.5 -12.5
q55 0 84 25.5t29 56.5t-32.5 62.5t-101.5 76.5q-96 66 -132.5 116.5t-36.5 113.5q0 38 15.5 73t47 62t81 43.5t116.5 16.5q37 0 78.5 -6t73.5 -19zM363 807l-66 81l-66 -81h-126l119 147h146l120 -147h-127z" />
    <glyph glyph-name="Scedilla.salt_tall" horiz-adv-x="551" 
d="M460 736l-1 -134q-28 14 -68 23t-77 9q-55 0 -79.5 -20t-24.5 -47q0 -29 29.5 -58t92.5 -72q89 -63 133.5 -115.5t44.5 -121.5q0 -50 -21 -89.5t-58 -66.5t-87 -41.5t-107 -14.5q-22 0 -47.5 2t-50.5 6t-47 9.5t-37 12.5l1 138q34 -16 82.5 -28.5t99.5 -12.5
q55 0 84 25.5t29 56.5t-32.5 62.5t-101.5 76.5q-96 66 -132.5 116.5t-36.5 113.5q0 38 15.5 73t47 62t81 43.5t116.5 16.5q37 0 78.5 -6t73.5 -19zM225 -216q-16 0 -38 3t-42 10v61h1q19 -6 39 -9t30 -3q25 0 39.5 8.5t14.5 23.5q0 14 -19 23t-49 9h-18l-3 7l28 82h64
l-16 -40q47 -6 73 -28.5t26 -57.5q0 -37 -36 -63t-94 -26z" />
    <glyph glyph-name="Scaron.salt_tall" horiz-adv-x="551" 
d="M460 736l-1 -134q-28 14 -68 23t-77 9q-55 0 -79.5 -20t-24.5 -47q0 -29 29.5 -58t92.5 -72q89 -63 133.5 -115.5t44.5 -121.5q0 -50 -21 -89.5t-58 -66.5t-87 -41.5t-107 -14.5q-22 0 -47.5 2t-50.5 6t-47 9.5t-37 12.5l1 138q34 -16 82.5 -28.5t99.5 -12.5
q55 0 84 25.5t29 56.5t-32.5 62.5t-101.5 76.5q-96 66 -132.5 116.5t-36.5 113.5q0 38 15.5 73t47 62t81 43.5t116.5 16.5q37 0 78.5 -6t73.5 -19zM371 807h-146l-119 147h125l65 -81l66 81h129z" />
    <glyph glyph-name="Scommaaccent.salt_tall" horiz-adv-x="551" 
d="M460 736l-1 -134q-28 14 -68 23t-77 9q-55 0 -79.5 -20t-24.5 -47q0 -29 29.5 -58t92.5 -72q89 -63 133.5 -115.5t44.5 -121.5q0 -50 -21 -89.5t-58 -66.5t-87 -41.5t-107 -14.5q-22 0 -47.5 2t-50.5 6t-47 9.5t-37 12.5l1 138q34 -16 82.5 -28.5t99.5 -12.5
q55 0 84 25.5t29 56.5t-32.5 62.5t-101.5 76.5q-96 66 -132.5 116.5t-36.5 113.5q0 38 15.5 73t47 62t81 43.5t116.5 16.5q37 0 78.5 -6t73.5 -19zM318 -65l-70 -175h-103l30 175h143z" />
    <glyph glyph-name="T.salt_tall" horiz-adv-x="498" 
d="M172 0v607h-146v139h446v-139h-145v-607h-155z" />
    <glyph glyph-name="Tcaron.salt_tall" horiz-adv-x="498" 
d="M172 0v607h-146v139h446v-139h-145v-607h-155zM323 807h-146l-119 147h125l65 -81l66 81h129z" />
    <glyph glyph-name="Tcommaaccent.salt_tall" horiz-adv-x="498" 
d="M172 0v607h-146v139h446v-139h-145v-607h-155zM321 -56l-70 -175h-103l30 175h143z" />
    <glyph glyph-name="Tbar.salt_tall" horiz-adv-x="498" 
d="M402 304h-75v-304h-155v304h-76v107h76v196h-146v139h446v-139h-145v-196h75v-107z" />
    <glyph glyph-name="a.salt_ss" horiz-adv-x="668" 
d="M473 250q0 59 -42 101.5t-102 42.5t-101 -42t-41 -102q0 -58 41 -101t101 -43t102 43t42 101zM479 0v79q-32 -45 -82.5 -71t-113.5 -26q-52 0 -97 20.5t-77.5 56t-51 84.5t-18.5 105t18.5 105t51 85.5t77.5 58t97 21.5q57 0 106 -24.5t81 -64.5v71h142v-500h-133z" />
    <glyph glyph-name="agrave.salt_ss" horiz-adv-x="668" 
d="M473 250q0 59 -42 101.5t-102 42.5t-101 -42t-41 -102q0 -58 41 -101t101 -43t102 43t42 101zM479 0v79q-32 -45 -82.5 -71t-113.5 -26q-52 0 -97 20.5t-77.5 56t-51 84.5t-18.5 105t18.5 105t51 85.5t77.5 58t97 21.5q57 0 106 -24.5t81 -64.5v71h142v-500h-133z
M150 719h171l81 -147h-118z" />
    <glyph glyph-name="aacute.salt_ss" horiz-adv-x="668" 
d="M473 250q0 59 -42 101.5t-102 42.5t-101 -42t-41 -102q0 -58 41 -101t101 -43t102 43t42 101zM479 0v79q-32 -45 -82.5 -71t-113.5 -26q-52 0 -97 20.5t-77.5 56t-51 84.5t-18.5 105t18.5 105t51 85.5t77.5 58t97 21.5q57 0 106 -24.5t81 -64.5v71h142v-500h-133z
M535 719l-134 -147h-114l79 147h169z" />
    <glyph glyph-name="acircumflex.salt_ss" horiz-adv-x="668" 
d="M473 250q0 59 -42 101.5t-102 42.5t-101 -42t-41 -102q0 -58 41 -101t101 -43t102 43t42 101zM479 0v79q-32 -45 -82.5 -71t-113.5 -26q-52 0 -97 20.5t-77.5 56t-51 84.5t-18.5 105t18.5 105t51 85.5t77.5 58t97 21.5q57 0 106 -24.5t81 -64.5v71h142v-500h-133z
M410 572l-66 81l-66 -81h-126l119 147h146l120 -147h-127z" />
    <glyph glyph-name="atilde.salt_ss" horiz-adv-x="668" 
d="M473 250q0 59 -42 101.5t-102 42.5t-101 -42t-41 -102q0 -58 41 -101t101 -43t102 43t42 101zM479 0v79q-32 -45 -82.5 -71t-113.5 -26q-52 0 -97 20.5t-77.5 56t-51 84.5t-18.5 105t18.5 105t51 85.5t77.5 58t97 21.5q57 0 106 -24.5t81 -64.5v71h142v-500h-133z
M242 571l-106 4q-5 87 29.5 121.5t85.5 34.5q22 0 45 -8t43.5 -17.5t38 -17.5t30.5 -8q16 0 26.5 9t10.5 38l106 -3q4 -74 -26 -112t-87 -38q-23 0 -46 7.5t-44 16.5t-39 16.5t-31 7.5q-14 0 -25.5 -10t-10.5 -41z" />
    <glyph glyph-name="adieresis.salt_ss" horiz-adv-x="668" 
d="M473 250q0 59 -42 101.5t-102 42.5t-101 -42t-41 -102q0 -58 41 -101t101 -43t102 43t42 101zM479 0v79q-32 -45 -82.5 -71t-113.5 -26q-52 0 -97 20.5t-77.5 56t-51 84.5t-18.5 105t18.5 105t51 85.5t77.5 58t97 21.5q57 0 106 -24.5t81 -64.5v71h142v-500h-133z
M511 683v-111h-126v111h126zM303 683v-111h-126v111h126z" />
    <glyph glyph-name="aring.salt_ss" horiz-adv-x="668" 
d="M473 250q0 59 -42 101.5t-102 42.5t-101 -42t-41 -102q0 -58 41 -101t101 -43t102 43t42 101zM479 0v79q-32 -45 -82.5 -71t-113.5 -26q-52 0 -97 20.5t-77.5 56t-51 84.5t-18.5 105t18.5 105t51 85.5t77.5 58t97 21.5q57 0 106 -24.5t81 -64.5v71h142v-500h-133z
M344 817q54 0 92.5 -37.5t38.5 -87.5t-38.5 -88t-92.5 -38t-92 38.5t-38 87.5t38 87t92 38zM344 753q-25 0 -43 -18t-18 -43t18 -43t43 -18t43 18t18 43t-18 43t-43 18z" />
    <glyph glyph-name="amacron.salt_ss" horiz-adv-x="668" 
d="M473 250q0 59 -42 101.5t-102 42.5t-101 -42t-41 -102q0 -58 41 -101t101 -43t102 43t42 101zM479 0v79q-32 -45 -82.5 -71t-113.5 -26q-52 0 -97 20.5t-77.5 56t-51 84.5t-18.5 105t18.5 105t51 85.5t77.5 58t97 21.5q57 0 106 -24.5t81 -64.5v71h142v-500h-133z
M492 676v-104h-296v104h296z" />
    <glyph glyph-name="abreve.salt_ss" horiz-adv-x="668" 
d="M473 250q0 59 -42 101.5t-102 42.5t-101 -42t-41 -102q0 -58 41 -101t101 -43t102 43t42 101zM479 0v79q-32 -45 -82.5 -71t-113.5 -26q-52 0 -97 20.5t-77.5 56t-51 84.5t-18.5 105t18.5 105t51 85.5t77.5 58t97 21.5q57 0 106 -24.5t81 -64.5v71h142v-500h-133z
M513 723q-13 -69 -57 -113t-112 -44t-112 44t-57 113l87 3q13 -37 36 -55t46 -18q24 0 46.5 18t35.5 55z" />
    <glyph glyph-name="aogonek.salt_ss" horiz-adv-x="668" 
d="M512 -179q-54 0 -79 24t-25 55q0 28 18 50.5t41 38.5l12 7v83q-32 -45 -82.5 -71t-113.5 -26q-52 0 -97 20.5t-77.5 56t-51 84.5t-18.5 105t18.5 105t51 85.5t77.5 58t97 21.5q57 0 106 -24.5t81 -64.5v71h142v-500l-55 -37q-19 -13 -27.5 -23t-8.5 -20t8 -17.5t21 -7.5
q10 0 19.5 4t15.5 9l39 -50q-16 -14 -44.5 -25.5t-67.5 -11.5zM473 250q0 59 -42 101.5t-102 42.5t-101 -42t-41 -102q0 -58 41 -101t101 -43t102 43t42 101z" />
    <glyph glyph-name="aringacute.salt_ss" horiz-adv-x="668" 
d="M473 250q0 59 -42 101.5t-102 42.5t-101 -42t-41 -102q0 -58 41 -101t101 -43t102 43t42 101zM479 0v79q-32 -45 -82.5 -71t-113.5 -26q-52 0 -97 20.5t-77.5 56t-51 84.5t-18.5 105t18.5 105t51 85.5t77.5 58t97 21.5q57 0 106 -24.5t81 -64.5v71h142v-500h-133z
M344 817q54 0 92.5 -37.5t38.5 -87.5t-38.5 -88t-92.5 -38t-92 38.5t-38 87.5t38 87t92 38zM344 753q-25 0 -43 -18t-18 -43t18 -43t43 -18t43 18t18 43t-18 43t-43 18zM535 988l-134 -147h-114l79 147h169z" />
    <glyph glyph-name="Adieresis.salt" horiz-adv-x="767" 
d="M676 746v-124h-149v124h149zM240 746v-124h-149v124h149zM495 246l-113 308l-114 -308h227zM586 0l-45 123h-319l-46 -123h-161l292 746h154l292 -746h-167z" />
    <glyph glyph-name="Odieresis.salt" horiz-adv-x="904" 
d="M453 628q-54 0 -101 -20t-81.5 -54.5t-54.5 -81t-20 -98.5t20 -99t54.5 -81.5t81.5 -55t101 -20.5q53 0 99.5 20.5t81 55t54.5 81.5t20 99t-20 98.5t-54.5 81t-81 54.5t-99.5 20zM864 374q0 -82 -32 -155t-87.5 -126.5t-131 -85t-160.5 -31.5q-87 0 -162.5 31.5t-131 85
t-87.5 126.5t-32 155q0 70 23.5 133.5t66.5 114.5h-75v124h145v-58q51 39 116 60.5t137 21.5q71 0 135.5 -21.5t115.5 -60.5v58h146v-124h-76q43 -51 66.5 -114.5t23.5 -133.5z" />
    <glyph glyph-name="Udieresis.salt" horiz-adv-x="736" 
d="M674 746v-118h-170v118h170zM232 746v-118h-170v118h170zM674 319q0 -163 -79.5 -253t-226.5 -90q-146 0 -226 90t-80 253v289h170v-321q0 -38 11.5 -67.5t30.5 -49.5t43.5 -30t50.5 -10q54 0 95 40.5t41 116.5v321h170v-289z" />
    <glyph glyph-name="asterisk.salt1" horiz-adv-x="404" 
d="M345 499l-112 20l-45 -98l-27 3l-14 113l-108 12l-5 27l102 49l-21 106l23 13l79 -83l94 53l20 -18l-54 -99l79 -74z" />
    <glyph glyph-name="space.em" horiz-adv-x="1000" 
 />
    <glyph glyph-name="space.en" horiz-adv-x="500" 
 />
    <glyph glyph-name="space.frac" horiz-adv-x="85" 
 />
    <glyph glyph-name="space.thin" horiz-adv-x="150" 
 />
    </font>
</defs>
</svg>
