<?xml version="1.0" encoding="utf-8"?>
<!-- Generator: Adobe Illustrator 27.7.0, SVG Export Plug-In . SVG Version: 6.00 Build 0)  -->
<svg version="1.1" id="Capa_1" xmlns="http://www.w3.org/2000/svg" xmlns:xlink="http://www.w3.org/1999/xlink" x="0px" y="0px"
	 viewBox="0 0 1080 1080" style="enable-background:new 0 0 1080 1080;" xml:space="preserve">
<style type="text/css">
	.st0{fill:#FFFFFF;}
	.st1{fill:#9AD6D5;}
	.st2{fill:#C7C26E;}
	.st3{fill:#3B695F;}
	.st4{fill:#F99F53;}
	.st5{fill:url(#SVGID_1_);}
</style>
<g>
	<g>
		<path class="st0" d="M1010,474.9v130.2c0,227.7-184.6,412.2-412.2,412.2H482.2C254.6,1017.3,70,832.8,70,605.1V474.9
			C70,247.2,254.6,62.7,482.2,62.7h115.6C825.4,62.7,1010,247.2,1010,474.9z"/>
		<path class="st1" d="M482.2,1017.3L482.2,1017.3L482.2,1017.3C254.6,1017.3,70,832.8,70,605.1v0h0
			C297.7,605.1,482.2,789.7,482.2,1017.3z"/>
		<path class="st2" d="M482.2,62.7L482.2,62.7c0,227.7-184.6,412.2-412.2,412.2h0v0C70,247.2,254.6,62.7,482.2,62.7L482.2,62.7z"/>
		<path class="st3" d="M1010,605.1L1010,605.1c0,227.7-184.6,412.2-412.2,412.2h0v0C597.8,789.7,782.3,605.1,1010,605.1L1010,605.1z
			"/>
		<path class="st4" d="M1010,474.9L1010,474.9L1010,474.9c-227.7,0-412.2-184.6-412.2-412.2v0h0C825.4,62.7,1010,247.2,1010,474.9z"
			/>
	</g>
	<g>
		<linearGradient id="SVGID_1_" gradientUnits="userSpaceOnUse" x1="139.872" y1="156.927" x2="852.151" y2="821.1381">
			<stop  offset="0" style="stop-color:#3B695F"/>
			<stop  offset="0.369" style="stop-color:#C0BA6E"/>
			<stop  offset="0.6905" style="stop-color:#F99F53"/>
			<stop  offset="0.9504" style="stop-color:#F6B8C4"/>
		</linearGradient>
		<path class="st5" d="M606,459.8c-3.7-0.3-7.3-0.5-10.6-0.5c-26.7,0-39.1,11.5-52.6,26.5L540,489l0,0l-2.9-3.2
			c-13.5-15-25.9-26.5-52.6-26.5c-3.3,0-6.9,0.2-10.6,0.5c-22.2,2-47.6,21-50.9,57.6v12.6c1.6,19.3,11,39.6,27.8,60.4
			c19.4,24,49.4,49.4,89.1,75.7c0,0,0,0,0,0c39.7-26.3,69.7-51.8,89.1-75.7c16.8-20.8,26.2-41.1,27.8-60.3v-12.6
			C653.7,480.7,628.3,461.8,606,459.8z"/>
	</g>
</g>
</svg>
